<svg width="458" height="467" viewBox="0 0 458 467" fill="none" xmlns="http://www.w3.org/2000/svg">
<circle cx="228.5" cy="228.5" r="227.5" stroke="#DAF2FF" stroke-width="2"/>
<path d="M446.201 235.357C451.638 351.531 362.08 450.102 246.173 455.526C130.266 460.951 31.8932 371.174 26.4563 255.001C21.0194 138.827 110.577 40.2558 226.485 34.8314C342.392 29.4071 440.764 119.183 446.201 235.357Z" stroke="#DAF2FF" stroke-width="2"/>
<g clip-path="url(#clip0_1286_2)">
<path d="M381.53 229.97C358.19 264.92 308.37 373.01 320.63 413.12L141.92 413.16C141.92 413.16 116.1 393.93 91.01 360.51C86.45 354.44 81.92 347.89 77.57 340.91C72.95 333.51 68.55 325.62 64.55 317.27C52.91 293.049 44.61 265 44.28 233.98C43.11 126.63 136.02 26.8595 262.42 67.1195C388.82 107.38 404.86 195.02 381.52 229.96L381.53 229.97Z" fill="#EAF9F8"/>
<path d="M269.71 414.38C269.35 414.38 269 414.22 268.75 413.92L173.45 295.43C173.03 294.9 173.11 294.13 173.64 293.7C174.17 293.28 174.94 293.36 175.37 293.89L270.67 412.38C271.1 412.91 271.01 413.68 270.48 414.11C270.25 414.29 269.98 414.38 269.71 414.38Z" fill="#E03C03"/>
<path d="M121.88 414.38C121.61 414.38 121.34 414.29 121.11 414.11C120.58 413.68 120.5 412.91 120.92 412.38L216.22 293.89C216.65 293.36 217.42 293.28 217.95 293.7C218.48 294.13 218.56 294.9 218.14 295.43L122.84 413.92C122.6 414.22 122.24 414.38 121.88 414.38Z" fill="#FF6224"/>
<path d="M217.18 414.38C216.82 414.38 216.47 414.22 216.22 413.92L120.92 295.43C120.5 294.9 120.58 294.13 121.11 293.7C121.64 293.28 122.41 293.36 122.84 293.89L218.14 412.38C218.57 412.91 218.48 413.68 217.95 414.11C217.72 414.29 217.45 414.38 217.18 414.38Z" fill="#FF6224"/>
<path d="M138.77 297.81H94.49C92.75 297.81 91.34 296.4 91.34 294.66C91.34 292.92 92.75 291.51 94.49 291.51H138.77C140.51 291.51 141.92 292.92 141.92 294.66C141.92 296.4 140.51 297.81 138.77 297.81Z" fill="#E03C03"/>
<path d="M266.16 297.81H139.61C137.87 297.81 136.46 296.4 136.46 294.66C136.46 292.92 137.87 291.51 139.61 291.51H266.16V297.8V297.81Z" fill="#FF6224"/>
<path d="M172.97 353.911C172.97 355.811 171.43 357.351 169.53 357.351C167.63 357.351 166.09 355.811 166.09 353.911C166.09 352.011 167.63 350.471 169.53 350.471C171.43 350.471 172.97 352.011 172.97 353.911Z" fill="#E03C03"/>
<path d="M225.5 353.911C225.5 355.811 223.96 357.351 222.06 357.351C220.16 357.351 218.62 355.811 218.62 353.911C218.62 352.011 220.16 350.471 222.06 350.471C223.96 350.471 225.5 352.011 225.5 353.911Z" fill="#FFC947"/>
<path d="M179.77 156.449H135.17C132.966 156.449 131.18 158.236 131.18 160.439V193.609C131.18 195.813 132.966 197.599 135.17 197.599H179.77C181.974 197.599 183.76 195.813 183.76 193.609V160.439C183.76 158.236 181.974 156.449 179.77 156.449Z" fill="#20C3C5"/>
<path d="M168.88 174.619H167.23C166.98 173.719 166.6 172.859 166.12 172.079L167.39 170.809C167.88 170.319 167.88 169.539 167.39 169.049L165.6 167.259C165.11 166.769 164.33 166.769 163.84 167.259L162.49 168.609C161.74 168.189 160.94 167.859 160.09 167.639V165.609C160.09 164.919 159.53 164.369 158.85 164.369H156.31C155.62 164.369 155.07 164.929 155.07 165.609V167.659C154.25 167.869 153.47 168.179 152.74 168.579L151.25 167.089C150.76 166.599 149.98 166.599 149.49 167.089L147.7 168.879C147.21 169.369 147.21 170.149 147.7 170.639L149.08 172.019C148.62 172.749 148.26 173.549 148 174.389H146.06C145.37 174.389 144.82 174.949 144.82 175.629V178.169C144.82 178.859 145.38 179.409 146.06 179.409H147.76C147.95 180.349 148.27 181.239 148.71 182.069L147.55 183.229C147.06 183.719 147.06 184.499 147.55 184.989L149.34 186.779C149.83 187.269 150.61 187.269 151.1 186.779L152.11 185.769C152.95 186.319 153.87 186.739 154.85 187.009V188.419C154.85 189.109 155.41 189.659 156.09 189.659H158.63C159.32 189.659 159.87 189.099 159.87 188.419V187.109C160.89 186.869 161.84 186.479 162.71 185.959L163.68 186.929C164.17 187.419 164.95 187.419 165.44 186.929L167.23 185.139C167.72 184.649 167.72 183.869 167.23 183.379L166.24 182.389C166.73 181.539 167.1 180.619 167.33 179.629H168.87C169.56 179.629 170.11 179.069 170.11 178.389V175.849C170.11 175.159 169.55 174.609 168.87 174.609L168.88 174.619ZM158.82 183.639C154.32 184.489 150.45 180.619 151.3 176.119C151.78 173.599 153.8 171.579 156.32 171.099C160.82 170.249 164.69 174.119 163.84 178.619C163.36 181.139 161.34 183.159 158.82 183.639Z" fill="white"/>
<path d="M246.93 133.719H202.33C200.126 133.719 198.34 135.505 198.34 137.709V170.879C198.34 173.082 200.126 174.869 202.33 174.869H246.93C249.134 174.869 250.92 173.082 250.92 170.879V137.709C250.92 135.505 249.134 133.719 246.93 133.719Z" fill="#FF6224"/>
<path d="M215.75 161.207C215.44 161.207 215.12 161.077 214.88 160.827L209.34 154.897C208.86 154.387 208.86 153.547 209.34 153.037L214.98 147.007C215.46 146.498 216.24 146.498 216.72 147.007C217.2 147.517 217.2 148.348 216.72 148.868L211.95 153.967L216.62 158.967C217.1 159.477 217.1 160.307 216.62 160.827C216.38 161.087 216.07 161.207 215.75 161.207Z" fill="white"/>
<path d="M233.51 161.207C233.2 161.207 232.88 161.077 232.64 160.827C232.16 160.317 232.16 159.477 232.64 158.967L237.32 153.967L232.55 148.868C232.07 148.358 232.07 147.527 232.55 147.007C233.03 146.498 233.81 146.498 234.29 147.007L239.93 153.037C240.16 153.287 240.29 153.617 240.29 153.967C240.29 154.317 240.16 154.647 239.93 154.897L234.39 160.827C234.15 161.087 233.84 161.207 233.52 161.207H233.51Z" fill="white"/>
<path d="M221.88 162.838C221.73 162.838 221.57 162.808 221.42 162.738C220.79 162.468 220.49 161.698 220.75 161.028L226.25 146.568C226.51 145.898 227.22 145.568 227.85 145.848C228.48 146.118 228.78 146.888 228.52 147.558L223.02 162.018C222.83 162.528 222.37 162.838 221.88 162.838Z" fill="white"/>
<path d="M178.18 177.719H285.54C286.46 177.719 287.2 178.459 287.2 179.379V182.779H176.52V179.379C176.52 178.459 177.26 177.719 178.18 177.719Z" fill="white"/>
<path d="M176.52 182.77H287.2V238.69C287.2 240.4 285.82 241.78 284.11 241.78H179.61C177.9 241.78 176.52 240.4 176.52 238.69V182.77Z" fill="#383873"/>
<path d="M281.88 180.239C281.88 180.669 281.53 181.019 281.1 181.019C280.67 181.019 280.32 180.669 280.32 180.239C280.32 179.809 280.67 179.459 281.1 179.459C281.53 179.459 281.88 179.809 281.88 180.239Z" fill="#FF6224"/>
<path d="M276.54 180.239C276.54 180.669 276.19 181.019 275.76 181.019C275.33 181.019 274.98 180.669 274.98 180.239C274.98 179.809 275.33 179.459 275.76 179.459C276.19 179.459 276.54 179.809 276.54 180.239Z" fill="#FF6224"/>
<path d="M271.19 180.239C271.19 180.669 270.84 181.019 270.41 181.019C269.98 181.019 269.63 180.669 269.63 180.239C269.63 179.809 269.98 179.459 270.41 179.459C270.84 179.459 271.19 179.809 271.19 180.239Z" fill="#FF6224"/>
<path d="M243.72 190.749H182.26C181.67 190.749 181.19 190.269 181.19 189.679C181.19 189.089 181.67 188.609 182.26 188.609H243.72C244.31 188.609 244.79 189.089 244.79 189.679C244.79 190.269 244.31 190.749 243.72 190.749Z" fill="#20C3C5"/>
<path d="M243.72 197.548H182.26C181.67 197.548 181.19 197.068 181.19 196.478C181.19 195.888 181.67 195.408 182.26 195.408H243.72C244.31 195.408 244.79 195.888 244.79 196.478C244.79 197.068 244.31 197.548 243.72 197.548Z" fill="#20C3C5"/>
<path d="M214.4 204.359H182.26C181.67 204.359 181.19 203.879 181.19 203.289C181.19 202.699 181.67 202.219 182.26 202.219H214.4C214.99 202.219 215.47 202.699 215.47 203.289C215.47 203.879 214.99 204.359 214.4 204.359Z" fill="#20C3C5"/>
<path d="M243.72 217.978H182.26C181.67 217.978 181.19 217.498 181.19 216.908C181.19 216.318 181.67 215.838 182.26 215.838H243.72C244.31 215.838 244.79 216.318 244.79 216.908C244.79 217.498 244.31 217.978 243.72 217.978Z" fill="#FF6224"/>
<path d="M214.4 224.779H182.26C181.67 224.779 181.19 224.299 181.19 223.709C181.19 223.119 181.67 222.639 182.26 222.639H214.4C214.99 222.639 215.47 223.119 215.47 223.709C215.47 224.299 214.99 224.779 214.4 224.779Z" fill="#FF6224"/>
<path d="M214.4 231.589H182.26C181.67 231.589 181.19 231.109 181.19 230.519C181.19 229.929 181.67 229.449 182.26 229.449H214.4C214.99 229.449 215.47 229.929 215.47 230.519C215.47 231.109 214.99 231.589 214.4 231.589Z" fill="#20C3C5"/>
<path d="M243.72 204.359H220.62C220.03 204.359 219.55 203.879 219.55 203.289C219.55 202.699 220.03 202.219 220.62 202.219H243.72C244.31 202.219 244.79 202.699 244.79 203.289C244.79 203.879 244.31 204.359 243.72 204.359Z" fill="white"/>
<path d="M274.22 189.079L257.89 205.409C257.47 205.829 256.8 205.829 256.38 205.409C255.96 204.989 255.96 204.309 256.38 203.899L272.71 187.569C273.13 187.149 273.81 187.149 274.22 187.569C274.64 187.989 274.64 188.669 274.22 189.079Z" fill="#FF6224"/>
<path d="M274.68 222.193C275.907 217.018 272.707 211.828 267.532 210.601C262.357 209.374 257.167 212.574 255.94 217.749C254.713 222.924 257.913 228.114 263.088 229.341C268.263 230.568 273.453 227.368 274.68 222.193Z" fill="#FF6224"/>
<path d="M264.04 226.679C264.04 229.689 261.6 232.129 258.59 232.129C255.58 232.129 253.14 229.689 253.14 226.679C253.14 223.669 255.58 221.229 258.59 221.229C261.6 221.229 264.04 223.669 264.04 226.679Z" fill="#20C3C5"/>
<path d="M176.52 235.809V255.279L194.41 237.379" fill="#383873"/>
<path d="M157.47 260.539H196.73L210.93 287.869H171.67L157.47 260.539Z" fill="#86BFBC"/>
<path d="M172.46 285.85L160.7 263.22C160.45 262.75 160.8 262.18 161.33 262.18H195.3C195.57 262.18 195.81 262.33 195.93 262.56L207.69 285.19C207.94 285.66 207.59 286.23 207.06 286.23H173.09C172.82 286.23 172.58 286.08 172.46 285.85Z" fill="white"/>
<path d="M203.47 287.869H171.67V291.519H203.47V287.869Z" fill="#B8E3E2"/>
<path d="M230.79 287.869H199.41C198.4 287.869 197.59 288.689 197.59 289.689C197.59 290.699 198.41 291.509 199.41 291.509H230.79C231.8 291.509 232.61 290.689 232.61 289.689C232.61 288.679 231.79 287.869 230.79 287.869Z" fill="#9FCCC9"/>
<path d="M171.67 287.869L157.47 260.539L156.76 261.069C156.3 261.409 156.16 262.039 156.43 262.549L171.67 291.509V287.859V287.869Z" fill="#B8E3E2"/>
<path d="M185.96 289.568H182.46V290.178H185.96V289.568Z" fill="#9FCCC9"/>
<path d="M190.36 289.568H186.86V290.178H190.36V289.568Z" fill="#9FCCC9"/>
<path d="M194.77 289.568H191.27V290.178H194.77V289.568Z" fill="#9FCCC9"/>
<g style="mix-blend-mode:overlay" opacity="0.25">
<path d="M356.03 237.098C356.03 237.098 356.28 237.738 356.69 239.028" stroke="black" stroke-width="0.82" stroke-miterlimit="10" stroke-linecap="round"/>
<path d="M357.85 243.008C359.02 247.398 360.54 254.228 361.75 263.538C364.88 287.688 361.7 321.598 340.7 343.068" stroke="black" stroke-width="0.82" stroke-miterlimit="10" stroke-linecap="round"/>
<path d="M339.21 344.537C338.72 345.007 338.22 345.467 337.71 345.927" stroke="black" stroke-width="0.82" stroke-miterlimit="10" stroke-linecap="round"/>
</g>
<g style="mix-blend-mode:overlay" opacity="0.15">
<path d="M315.84 347.168V359.938C313.55 361.128 311.22 362.048 309.23 362.718V347.168H315.84Z" fill="black"/>
</g>
<g style="mix-blend-mode:overlay" opacity="0.15">
<path d="M324.99 327.327C323.43 332.187 313.72 331.317 312.54 334.917C310.04 342.547 308.65 339.187 299.04 340.167C293.54 340.727 289.55 344.247 287.14 347.177H268.01L270 345.757L282.6 337.637L307.88 335.887C309.24 330.247 312.94 330.057 318.58 329.467C321.86 329.127 322.18 323.587 321.18 316.267C320.45 310.997 319.04 304.797 317.55 298.937C316.47 294.657 315.69 290.477 315.18 286.437C314.57 281.717 314.3 277.207 314.27 272.957C318.01 292.457 326.15 323.727 324.99 327.327Z" fill="black"/>
</g>
<g style="mix-blend-mode:overlay" opacity="0.15">
<path d="M338.99 294.457C338.99 293.867 338.99 293.287 338.99 292.707C338.75 262.027 332.2 245.117 324.12 240.287C326.65 238.787 330.01 237.357 334.46 236.367C333.13 238.287 331.73 241.177 332.39 244.267C333.56 249.727 346.79 270.727 341.73 304.377C338.08 328.657 339.29 341.287 343.1 347.167H315.85C315.85 347.167 339 340.357 339 294.457H338.99Z" fill="black"/>
</g>
<g style="mix-blend-mode:overlay" opacity="0.25">
<path d="M121.22 267.239C121.2 268.299 121.11 269.309 120.91 270.199H111.52C108.76 268.369 104.26 264.739 101.56 259.299C104.07 262.029 108.36 265.359 112.73 266.379C116.54 267.259 119.38 266.889 121.22 267.239Z" fill="black"/>
</g>
<path d="M143.03 229.969C141.98 233.779 137.18 241.159 132.79 249.069C127.99 257.699 123.7 266.939 125.38 272.809C125.8 274.279 125.99 275.359 125.99 276.139C126.01 278.689 124.07 277.899 122.11 276.449C120.11 274.969 118.09 272.809 118.09 272.809L118.24 261.429C118.24 261.429 111.79 255.499 117.09 242.539C117.43 241.719 117.81 240.869 118.24 239.989C125.53 225.259 136.47 209.799 126.11 205.419C140.41 204.539 145.22 222.019 143.03 229.979V229.969Z" fill="#20C3C5"/>
<g style="mix-blend-mode:overlay" opacity="0.53">
<path d="M126.11 205.399C128.79 205.979 131.12 207.779 132.6 210.069C133 210.629 133.28 211.259 133.6 211.859C133.84 212.499 134.14 213.119 134.31 213.789C134.5 214.449 134.69 215.109 134.78 215.789L134.96 216.799L135.02 217.829C134.96 220.599 134.08 223.239 133.17 225.809C132.22 228.369 131.12 230.879 129.98 233.359C127.7 238.319 125.25 243.199 123.08 248.199C122.01 250.699 120.98 253.219 120.22 255.819C119.83 257.109 119.54 258.429 119.37 259.749C119.2 261.069 119.22 262.419 119.64 263.609C119.71 263.829 119.6 264.069 119.39 264.139C119.18 264.219 118.94 264.099 118.87 263.889C118.4 262.479 118.43 261.029 118.61 259.649C118.81 258.269 119.13 256.919 119.54 255.599C120.35 252.969 121.42 250.439 122.53 247.939C124.77 242.949 127.28 238.099 129.62 233.179C130.79 230.719 131.91 228.229 132.89 225.689C133.83 223.149 134.73 220.529 134.82 217.819L134.77 216.809L134.61 215.809C134.52 215.129 134.35 214.479 134.16 213.819C134.01 213.159 133.71 212.539 133.48 211.899C133.17 211.289 132.9 210.669 132.51 210.109C131.07 207.819 128.77 205.999 126.1 205.389L126.11 205.399Z" fill="black"/>
</g>
<path d="M136.46 252.959C132.09 264.479 136.46 273.229 129.9 274.469C126.9 275.039 125.57 272.819 125.02 270.229C124.37 267.169 124.8 263.609 124.8 263.609C124.8 263.609 125.91 260.759 128.25 257.999C130.16 255.749 132.87 253.559 136.46 252.969V252.959Z" fill="#169799"/>
<path d="M121.22 267.239C121.2 269.919 120.59 272.199 119.35 273.389C119.23 273.509 119.1 273.619 118.99 273.709C115.89 276.219 113.91 271.619 113.91 271.619C113.91 271.619 105.66 267.549 101.57 259.289C98.44 252.949 97.74 244.119 105.11 232.779C106.19 240.859 110.62 246.359 115.01 251.579C115.56 252.239 116.1 252.879 116.64 253.529C119.68 257.169 121.27 262.769 121.23 267.229L121.22 267.239Z" fill="#B8E3E2"/>
<g style="mix-blend-mode:overlay" opacity="0.53">
<path d="M105.11 232.789C104.4 236.259 104.22 239.839 104.55 243.359C104.92 246.869 105.89 250.349 107.79 253.319C109.62 256.339 112.17 258.819 114.48 261.539C115.63 262.899 116.73 264.349 117.51 265.999C118.29 267.649 118.65 269.529 118.5 271.369C118.48 271.599 118.28 271.759 118.06 271.739C117.83 271.719 117.67 271.519 117.69 271.299C117.86 269.589 117.57 267.869 116.86 266.289C116.16 264.709 115.12 263.289 114.01 261.919C111.78 259.199 109.25 256.629 107.45 253.519C105.57 250.459 104.66 246.899 104.36 243.369C104.1 239.819 104.34 236.239 105.12 232.779L105.11 232.789Z" fill="black"/>
</g>
<g style="mix-blend-mode:overlay" opacity="0.25">
<path d="M136.47 252.959C135.22 254.409 134.05 255.929 132.94 257.489C131.83 259.049 130.77 260.649 129.83 262.299C127.94 265.599 126.33 269.139 125.8 272.849C125.77 273.089 125.56 273.239 125.34 273.209C125.12 273.179 124.96 272.969 124.99 272.749C125.69 268.849 127.46 265.339 129.48 262.089C130.5 260.449 131.62 258.889 132.78 257.369C133.95 255.849 135.17 254.369 136.48 252.959H136.47Z" fill="black"/>
</g>
<path d="M133.81 273.079L131.01 290.269C130.87 290.989 130.24 291.509 129.5 291.509H112.06C111.32 291.509 110.69 290.989 110.55 290.269L108.27 276.319L107.75 273.089C107.58 272.149 108.3 271.279 109.26 271.279H132.3C133.26 271.279 133.98 272.149 133.81 273.089V273.079Z" fill="#B8E3E2"/>
<path d="M136.46 276.589H105.1L105.93 271.909C106.11 270.929 106.96 270.209 107.96 270.209H133.61C134.6 270.209 135.46 270.929 135.63 271.909L136.46 276.589Z" fill="#86BFBC"/>
<g style="mix-blend-mode:overlay" opacity="0.25">
<path d="M124.8 263.609C124.8 263.609 124.37 267.149 125.01 270.209H120.91C121.11 269.319 121.2 268.309 121.22 267.249C121.26 262.789 119.66 257.189 116.63 253.549C116.09 252.899 115.55 252.269 115 251.609C115.07 249.089 115.64 246.079 117.08 242.539C117.32 246.669 118.33 253.859 122.46 254.619C125.59 255.189 129.68 252.079 132.79 249.069C131.14 252.019 129.57 255.049 128.26 257.999C125.92 260.769 124.81 263.609 124.81 263.609H124.8Z" fill="black"/>
</g>
<g style="mix-blend-mode:overlay" opacity="0.25">
<path d="M122.48 291.52H112.07C111.33 291.52 110.7 291 110.56 290.28L108.33 276.6H117.33C117.11 278.52 116.84 282.09 117.52 284.87C118.05 287.07 119.98 289.9 122.49 291.53L122.48 291.52Z" fill="black"/>
</g>
<path d="M201.35 108.789H156.75C154.546 108.789 152.76 110.575 152.76 112.779V145.949C152.76 148.153 154.546 149.939 156.75 149.939H201.35C203.554 149.939 205.34 148.153 205.34 145.949V112.779C205.34 110.575 203.554 108.789 201.35 108.789Z" fill="#383873"/>
<path d="M165 123.339V127.769C165 128.119 165.29 128.409 165.64 128.409H168.09C168.44 128.409 168.73 128.119 168.73 127.769V123.339C168.73 122.989 169.02 122.699 169.37 122.699H169.61C169.96 122.699 170.25 122.989 170.25 123.339V135.379C170.25 135.729 169.96 136.019 169.61 136.019H169.37C169.02 136.019 168.73 135.729 168.73 135.379V130.439C168.73 130.089 168.44 129.799 168.09 129.799H165.64C165.29 129.799 165 130.089 165 130.439V135.379C165 135.729 164.71 136.019 164.36 136.019H164.12C163.77 136.019 163.48 135.729 163.48 135.379V123.339C163.48 122.989 163.77 122.699 164.12 122.699H164.36C164.71 122.699 165 122.989 165 123.339Z" fill="white"/>
<path d="M173.54 124.069H172.39C172.04 124.069 171.75 123.779 171.75 123.429V123.349C171.75 122.999 172.04 122.709 172.39 122.709H177.49C177.84 122.709 178.13 122.999 178.13 123.349V123.429C178.13 123.779 177.84 124.069 177.49 124.069H176.34C175.99 124.069 175.7 124.359 175.7 124.709V135.389C175.7 135.739 175.41 136.029 175.06 136.029H174.82C174.47 136.029 174.18 135.739 174.18 135.389V124.709C174.18 124.359 173.89 124.069 173.54 124.069Z" fill="white"/>
<path d="M187.61 130.289C187.51 128.529 187.41 126.569 187.47 125.069H187.39C187.09 126.549 186.74 128.129 186.32 129.699L184.68 135.949H183.71L182.15 129.959C181.71 128.259 181.32 126.619 181.06 125.079H181C181 126.639 180.92 128.499 180.84 130.399L180.61 135.419C180.59 135.759 180.31 136.029 179.97 136.029H179.9C179.53 136.029 179.24 135.719 179.26 135.349L179.97 123.309C179.99 122.969 180.27 122.709 180.61 122.709H181.15C181.44 122.709 181.7 122.909 181.77 123.189L183.21 128.799C183.66 130.559 184 131.859 184.28 133.389H184.34C184.6 131.869 184.89 130.599 185.33 128.799L186.71 123.199C186.78 122.909 187.04 122.709 187.33 122.709H187.92C188.26 122.709 188.54 122.979 188.56 123.319L189.26 135.359C189.28 135.729 188.99 136.039 188.62 136.039H188.49C188.15 136.039 187.86 135.769 187.85 135.429L187.6 130.309L187.61 130.289Z" fill="white"/>
<path d="M192.02 122.699H192.26C192.61 122.699 192.9 122.989 192.9 123.339V134.099C192.9 134.449 193.19 134.739 193.54 134.739H196.01C196.36 134.739 196.65 135.029 196.65 135.379C196.65 135.729 196.36 136.019 196.01 136.019H192.02C191.67 136.019 191.38 135.729 191.38 135.379V123.339C191.38 122.989 191.67 122.699 192.02 122.699Z" fill="white"/>
<path d="M221.68 112.309C223.35 112.309 223.74 111.189 223.74 110.189C223.74 109.309 223.65 108.459 223.56 107.609C223.47 106.699 223.38 105.879 223.38 104.939C223.38 102.209 225.05 101.059 227.2 101.059H227.56V102.639H227.1C225.83 102.639 225.31 103.549 225.31 104.919C225.31 105.739 225.4 106.499 225.49 107.229C225.55 108.019 225.64 108.749 225.64 109.479C225.67 111.849 224.85 112.669 223.55 113.029V113.089C224.85 113.479 225.67 114.299 225.64 116.699C225.64 117.459 225.55 118.219 225.49 118.979C225.4 119.739 225.31 120.499 225.31 121.319C225.31 122.689 225.77 123.629 227.13 123.629H227.55V125.209H227.16C225.16 125.209 223.37 124.209 223.37 121.329C223.37 120.419 223.46 119.509 223.55 118.629C223.64 117.749 223.73 116.869 223.73 116.019C223.73 115.049 223.34 113.869 221.67 113.869V112.349L221.68 112.309Z" fill="#383873"/>
<path d="M252.62 113.83C250.95 113.83 250.56 115.01 250.56 115.98C250.56 116.83 250.65 117.71 250.74 118.59C250.83 119.47 250.92 120.38 250.92 121.29C250.92 124.17 249.13 125.17 247.13 125.17H246.74V123.59H247.16C248.53 123.44 248.98 122.65 248.98 121.28C248.98 120.46 248.89 119.7 248.83 118.94C248.74 118.18 248.65 117.42 248.65 116.66C248.62 114.26 249.44 113.44 250.74 113.05V112.99C249.43 112.63 248.62 111.81 248.65 109.44C248.65 108.71 248.74 107.98 248.83 107.19C248.89 106.46 248.98 105.7 248.98 104.88C248.98 103.51 248.46 102.76 247.19 102.6H246.73V101.02H247.09C249.24 101.02 250.91 102.17 250.91 104.9C250.91 105.84 250.82 106.66 250.73 107.57C250.64 108.42 250.55 109.27 250.55 110.15C250.55 111.15 250.94 112.27 252.61 112.27V113.79L252.62 113.83Z" fill="#383873"/>
<path d="M242.21 116.039V110.199L237.15 107.279L232.1 110.199V116.039L237.15 118.959L242.21 116.039Z" fill="#FF6224"/>
<path d="M280.24 145.119C275.49 142.749 269.77 143.689 266.02 147.439C261.38 152.079 261.23 159.509 265.53 164.349L263.68 164.129C263.46 164.099 263.25 164.259 263.23 164.489C263.2 164.709 263.36 164.919 263.59 164.939L266.41 165.279C266.52 165.289 266.63 165.259 266.71 165.199C266.79 165.139 266.85 165.039 266.86 164.929L267.19 162.199C267.22 161.979 267.06 161.769 266.83 161.749C266.61 161.719 266.4 161.879 266.38 162.109L266.17 163.849C262.13 159.329 262.27 152.379 266.61 148.039C270.12 144.529 275.45 143.659 279.89 145.869C280.09 145.969 280.34 145.889 280.44 145.689C280.54 145.489 280.46 145.239 280.26 145.139L280.24 145.119Z" fill="#FF6224"/>
<path d="M269.62 167.769C274.37 170.139 280.09 169.199 283.84 165.449C288.48 160.809 288.63 153.379 284.33 148.539L286.18 148.759C286.4 148.789 286.61 148.629 286.63 148.399C286.66 148.179 286.5 147.969 286.27 147.949L283.45 147.609C283.34 147.599 283.23 147.629 283.15 147.689C283.07 147.749 283.01 147.849 283 147.959L282.68 150.689C282.65 150.909 282.81 151.119 283.04 151.139C283.26 151.169 283.47 151.009 283.49 150.779L283.7 149.039C287.74 153.559 287.6 160.509 283.26 164.849C279.75 168.359 274.42 169.229 269.98 167.019C269.78 166.919 269.53 166.999 269.43 167.199C269.33 167.399 269.41 167.649 269.61 167.749L269.62 167.769Z" fill="#FF6224"/>
<path d="M379.08 190.749H305.01C303.66 190.749 302.57 189.659 302.57 188.309C302.57 186.959 303.66 185.869 305.01 185.869H379.08C380.43 185.869 381.52 186.959 381.52 188.309C381.52 189.659 380.43 190.749 379.08 190.749Z" fill="#FF6224"/>
<path d="M352.63 201.368H305.01C303.66 201.368 302.57 200.278 302.57 198.928C302.57 197.578 303.66 196.488 305.01 196.488H352.63C353.98 196.488 355.07 197.578 355.07 198.928C355.07 200.278 353.98 201.368 352.63 201.368Z" fill="#20C3C5"/>
<path d="M352.63 212.778H305.01C303.66 212.778 302.57 211.688 302.57 210.338C302.57 208.988 303.66 207.898 305.01 207.898H352.63C353.98 207.898 355.07 208.988 355.07 210.338C355.07 211.688 353.98 212.778 352.63 212.778Z" fill="#20C3C5"/>
<path d="M116.44 150.13H77.96C76.61 150.13 75.52 149.04 75.52 147.69C75.52 146.34 76.61 145.25 77.96 145.25H116.44C117.79 145.25 118.88 146.34 118.88 147.69C118.88 149.04 117.79 150.13 116.44 150.13Z" fill="#20C3C5"/>
<path d="M101.91 160.749H77.96C76.61 160.749 75.52 159.659 75.52 158.309C75.52 156.959 76.61 155.869 77.96 155.869H101.91C103.26 155.869 104.35 156.959 104.35 158.309C104.35 159.659 103.26 160.749 101.91 160.749Z" fill="#FF6224"/>
<path d="M101.91 172.159H77.96C76.61 172.159 75.52 171.069 75.52 169.719C75.52 168.369 76.61 167.279 77.96 167.279H101.91C103.26 167.279 104.35 168.369 104.35 169.719C104.35 171.069 103.26 172.159 101.91 172.159Z" fill="#FF6224"/>
<path d="M347.97 427.319H99.36C95.44 427.319 92.26 424.139 92.26 420.219C92.26 416.299 95.44 413.119 99.36 413.119H347.97C351.89 413.119 355.07 416.299 355.07 420.219C355.07 424.139 351.89 427.319 347.97 427.319Z" fill="#EAF9F8"/>
<path d="M248.132 264.577C248.038 263.92 247.568 263.357 247.568 262.606C247.568 262.136 247.756 261.667 247.756 261.292C247.756 260.541 247.38 259.977 247.098 259.32C246.722 258.569 246.534 257.631 246.44 256.786C245.97 256.974 245.5 257.255 245.219 257.725C244.937 258.194 244.843 258.757 244.937 259.227C245.031 259.79 245.406 260.353 245.313 260.916C245.219 261.104 245.125 261.292 245.031 261.479L244.937 261.385C244.467 260.916 243.903 260.541 243.339 260.071C241.553 258.757 240.144 256.88 238.734 255.096C238.546 254.815 238.17 254.533 237.794 254.721C237.512 254.909 237.418 255.566 237.606 255.941C238.17 257.631 239.204 258.945 240.332 260.353C240.52 260.541 240.614 260.728 240.707 260.916C240.801 261.198 240.614 261.479 240.52 261.761C240.238 262.418 239.956 263.075 239.674 263.732C239.486 264.389 239.204 265.14 239.486 265.797C239.58 266.267 239.956 266.642 240.238 267.017C240.895 267.862 241.741 268.707 242.775 268.895C243.339 268.989 244.091 269.176 244.749 269.083C246.628 270.678 248.414 272.462 249.918 274.433C251.045 273.213 252.455 272.086 253.959 271.241C251.985 269.364 250.012 267.393 248.226 265.422C248.226 265.14 248.226 264.859 248.132 264.577Z" fill="#E7A988"/>
<path d="M240.144 266.175C239.862 265.518 239.956 264.767 240.144 264.11C240.331 262.983 240.519 261.857 240.707 260.73C241.177 261.2 241.835 261.294 242.399 261.481C242.963 261.669 243.621 261.951 243.903 262.514C243.997 262.702 243.997 262.889 243.997 263.171C244.091 264.297 244.279 265.424 244.373 266.644C243.809 267.207 242.963 267.583 242.117 267.583C241.271 267.395 240.425 266.926 240.144 266.175Z" fill="#D88568"/>
<path d="M240.332 262.419C240.708 262.7 241.083 262.982 241.459 263.17C241.647 263.264 241.929 263.451 242.117 263.357C242.305 263.264 242.493 262.982 242.493 262.794C242.493 262.325 242.305 261.762 241.929 261.386C241.553 261.011 241.177 260.729 240.708 260.448C240.52 260.354 240.238 260.166 240.05 260.166C239.674 260.166 239.392 260.448 239.298 260.823C239.204 261.199 239.298 261.48 239.58 261.856C239.768 262.043 240.05 262.231 240.332 262.419Z" fill="#E7A988"/>
<path d="M238.734 263.453C238.828 263.829 239.204 264.016 239.58 264.204C239.956 264.392 240.332 264.673 240.801 264.861C241.083 265.049 241.365 265.143 241.647 265.237C241.929 265.33 242.305 265.237 242.493 264.955C242.681 264.767 242.681 264.392 242.587 264.204C242.493 263.922 242.305 263.735 242.117 263.547C241.459 262.796 240.52 262.233 239.58 261.951C239.392 261.857 239.204 261.857 239.11 261.951C238.922 262.045 238.828 262.233 238.828 262.421C238.734 262.702 238.64 263.078 238.734 263.453Z" fill="#E7A988"/>
<path d="M238.922 264.676C238.734 265.052 238.828 265.521 239.11 265.897C239.392 266.272 239.768 266.46 240.144 266.648C240.52 266.835 240.989 266.835 241.365 266.929C241.553 266.929 241.835 267.023 242.023 266.929C242.211 266.929 242.493 266.742 242.587 266.554C242.775 266.272 242.587 265.897 242.305 265.615C242.023 265.334 241.553 265.146 241.177 264.864C240.802 264.676 240.426 264.489 240.05 264.301C239.862 264.207 239.58 264.113 239.392 264.113C239.11 264.301 239.016 264.489 238.922 264.676Z" fill="#E7A988"/>
<path d="M304.05 285.323L300.009 283.915C282.059 284.666 263.827 278.283 250.387 266.268C249.823 265.799 249.072 265.799 248.508 266.268C247.662 267.019 246.91 267.77 246.346 268.709C245.5 270.023 245.124 271.618 245.688 273.026C246.158 274.153 247.098 274.998 248.038 275.842C254.335 281.099 260.725 286.449 267.774 290.673C274.822 294.897 282.717 297.995 290.987 298.464C294.934 298.652 299.069 298.183 302.171 295.742C305.178 293.302 306.494 288.327 304.05 285.323Z" fill="#98A9D8"/>
<path d="M285.16 285.983C285.16 286.359 284.879 286.64 284.503 286.64C284.127 286.64 283.845 286.359 283.845 285.983C283.845 285.608 284.127 285.326 284.503 285.326C284.879 285.326 285.16 285.608 285.16 285.983Z" fill="#E8E9EB"/>
<path d="M275.951 290.581C275.951 290.862 275.669 291.144 275.387 291.144C275.105 291.144 274.823 290.862 274.823 290.581C274.823 290.299 275.105 290.018 275.387 290.018C275.763 290.018 275.951 290.299 275.951 290.581Z" fill="#E8E9EB"/>
<path d="M274.823 283.82C275.29 283.82 275.669 283.442 275.669 282.976C275.669 282.509 275.29 282.131 274.823 282.131C274.356 282.131 273.977 282.509 273.977 282.976C273.977 283.442 274.356 283.82 274.823 283.82Z" fill="#E8E9EB"/>
<path d="M264.391 279.224C264.65 279.224 264.861 279.014 264.861 278.754C264.861 278.495 264.65 278.285 264.391 278.285C264.131 278.285 263.921 278.495 263.921 278.754C263.921 279.014 264.131 279.224 264.391 279.224Z" fill="#E8E9EB"/>
<path d="M259.034 278.282C259.034 278.658 258.752 278.939 258.376 278.939C258 278.939 257.718 278.658 257.718 278.282C257.718 277.907 258 277.625 258.376 277.625C258.752 277.625 259.034 277.907 259.034 278.282Z" fill="#E8E9EB"/>
<path d="M253.207 271.057C253.207 271.339 252.925 271.621 252.643 271.621C252.361 271.621 252.079 271.339 252.079 271.057C252.079 270.776 252.361 270.494 252.643 270.494C252.925 270.588 253.207 270.776 253.207 271.057Z" fill="#E8E9EB"/>
<path d="M249.542 274.623C249.957 274.623 250.293 274.287 250.293 273.872C250.293 273.457 249.957 273.121 249.542 273.121C249.126 273.121 248.79 273.457 248.79 273.872C248.79 274.287 249.126 274.623 249.542 274.623Z" fill="#E8E9EB"/>
<path d="M245.97 269.273C245.406 270.4 245.124 271.808 245.594 273.028C246.064 274.155 247.004 274.999 247.944 275.844C254.24 281.101 260.631 286.451 267.68 290.675C274.728 294.899 282.623 297.997 290.893 298.466C294.84 298.654 298.975 298.184 302.077 295.744C303.392 294.711 304.426 293.209 304.896 291.52C283.562 295.087 260.067 286.169 245.97 269.273Z" fill="#7D95C9"/>
<path d="M268.056 280.535C267.492 282.506 268.15 284.759 269.747 286.073C269.747 284.102 269.183 282.131 268.056 280.535Z" fill="#7D95C9"/>
<path d="M268.432 412.889C266.553 412.889 264.955 414.484 264.955 416.362C264.955 418.239 266.553 419.835 268.432 419.835C270.312 419.835 271.91 418.239 271.91 416.362C271.91 414.484 270.312 412.889 268.432 412.889Z" fill="#022A44"/>
<path d="M333.091 413.077V412.42V411.575C333.091 410.824 332.527 410.167 331.681 410.073C327.546 409.697 315.517 408.759 310.912 408.196C305.273 407.539 302.923 404.535 302.923 404.535H302.171V385.292H301.42V357.695H298.6V385.292H297.848V404.535H297.096C297.096 404.535 294.747 407.539 289.108 408.196C284.503 408.759 272.379 409.697 268.338 410.073C267.586 410.167 266.929 410.824 266.929 411.575V412.42H267.493V414.86H269.748V412.232L295.875 410.167C295.311 410.636 294.747 411.012 294.183 411.387C293.713 411.669 293.243 412.044 292.867 412.513C292.679 412.701 292.585 412.983 292.491 413.264H290.8V419.741H296.533V413.264H294.747C294.747 413.077 294.747 412.889 294.841 412.795C297.096 412.513 299.258 411.481 300.95 409.979L330.741 412.42V413.264C329.426 413.734 328.392 415.048 328.392 416.55C328.392 418.427 329.99 420.023 331.869 420.023C333.749 420.023 335.347 418.427 335.347 416.55C335.44 414.86 334.501 413.546 333.091 413.077Z" fill="#022A44"/>
<path d="M259.41 365.579C257.624 367.081 256.027 369.333 256.685 371.586C257.53 374.496 261.384 374.965 264.391 374.872C275.481 374.684 286.57 374.496 297.66 374.308C304.991 374.215 312.885 373.839 318.524 369.24C322.565 365.954 324.821 360.979 326.512 356.098C328.956 349.058 330.741 341.737 331.305 334.321C331.681 329.346 331.493 324.09 329.238 319.584C326.982 315.079 322.095 311.605 317.114 312.356C313.637 312.826 310.63 315.266 308.656 318.082C306.682 320.992 305.555 324.371 304.615 327.751C302.171 335.917 299.822 344.74 293.431 350.372C283.939 358.633 268.902 357.506 259.41 365.579Z" fill="#FAA701"/>
<path d="M259.41 363.421C257.624 364.922 256.027 367.175 256.685 369.428C257.53 372.338 261.384 372.807 264.391 372.713C275.481 372.526 286.57 372.338 297.66 372.15C304.991 372.056 312.885 371.681 318.524 367.081C322.565 363.796 324.821 358.821 326.512 353.94C328.956 346.9 330.741 339.578 331.305 332.163C331.681 327.188 331.493 321.932 329.238 317.426C326.982 312.92 322.095 309.447 317.114 310.198C313.637 310.668 310.63 313.108 308.656 315.924C306.682 318.834 305.555 322.213 304.615 325.592C302.171 333.759 299.822 342.582 293.431 348.214C283.939 356.474 268.902 355.348 259.41 363.421Z" fill="#FFD255"/>
<path d="M322.753 319.398C324.821 320.055 326.23 322.12 326.512 324.279C326.888 326.438 326.418 328.597 325.854 330.755C324.633 335.824 323.223 340.799 321.625 345.774C319.652 351.688 317.302 357.883 312.603 362.013C307.622 366.519 300.762 368.114 294.089 369.053C286.289 370.179 278.394 370.461 270.5 370.273C268.15 370.179 265.425 369.898 264.297 367.833C263.545 366.519 263.639 364.923 264.297 363.515C264.955 362.107 266.083 361.074 267.21 360.136C273.601 354.973 281.965 353.096 289.014 348.872C295.029 345.211 299.916 339.673 302.923 333.196C304.145 330.474 305.085 327.658 306.4 325.03C307.716 322.401 309.502 319.867 312.039 318.365C314.577 316.863 318.054 316.582 320.497 318.271L322.753 319.398Z" fill="#022248"/>
<path d="M240.613 409.22C242.587 408.376 245.876 407.343 247.85 405.56C250.857 402.744 250.669 401.43 250.951 398.52C251.233 395.14 250.481 390.916 250.199 387.537C250.105 386.411 250.011 385.284 249.823 384.252H259.409C258 391.761 258.094 399.458 259.503 406.874C259.785 408.376 260.067 410.065 259.127 411.192C258.282 412.224 256.778 412.318 255.556 412.13C254.24 411.943 253.395 411.661 252.173 411.849C248.038 412.506 243.903 413.82 240.049 412.787C239.297 412.6 237.982 412.13 237.794 411.379C237.512 410.535 239.767 409.596 240.613 409.22Z" fill="#E7A988"/>
<path d="M259.503 406.971C257.999 399.556 257.999 391.765 259.409 384.35H249.823C249.917 385.476 250.011 386.509 250.199 387.635C250.293 388.949 250.481 390.451 250.669 391.953C254.24 393.267 255.18 397.773 256.778 400.964C258.657 405.657 253.958 408.473 250.199 409.412C246.44 410.445 242.023 411.289 237.794 411.477C237.794 411.477 237.794 411.477 237.794 411.571C237.982 412.322 239.297 412.791 240.049 412.979C243.902 414.011 248.131 412.697 252.173 412.04C253.488 411.853 254.334 412.134 255.556 412.322C256.872 412.51 258.281 412.416 259.127 411.383C260.067 410.163 259.785 408.379 259.503 406.971Z" fill="#D88568"/>
<path d="M241.553 414.101C240.238 414.007 238.828 413.725 237.794 412.88C237.324 412.505 236.854 411.942 237.042 411.378C237.136 411.003 237.512 410.628 237.794 410.44C238.734 409.783 239.862 409.22 240.989 408.938C240.989 409.595 241.365 410.158 241.929 410.44C242.493 410.815 243.057 410.909 243.715 411.003C246.44 411.379 249.26 410.909 251.985 410.252C254.711 409.595 257.436 408.844 260.161 408.562C260.537 409.877 259.786 411.472 258.564 412.129C257.06 412.88 255.274 412.411 253.583 412.411C251.609 412.411 249.636 413.162 247.662 413.631C245.594 414.101 243.527 414.288 241.553 414.101Z" fill="#2070B4"/>
<path d="M250.388 392.137C250.388 390.635 250.2 389.133 250.106 387.537C250.012 386.411 249.918 385.284 249.73 384.252H259.316C258.846 386.88 258.564 389.508 258.376 392.137H250.388Z" fill="#7D95C9"/>
<path d="M261.289 388.293L250.294 388.763C248.978 388.763 247.85 387.73 247.662 386.416C245.783 373.275 242.775 364.733 245.125 352.906C245.971 348.682 250.2 345.021 254.429 344.27C265.613 342.205 282.435 340.703 283.469 328.219L299.916 331.316C300.291 337.042 300.291 350.465 294.935 358.256L259.692 360.697C260.068 371.491 260.256 376.748 261.289 388.293Z" fill="#2070B4"/>
<path d="M299.164 346.617C284.691 348.776 268.996 347.18 254.805 352.155C251.985 354.033 248.226 356.849 249.166 360.603C250.294 370.272 250.764 379.564 251.516 388.763L261.196 388.294C260.162 376.748 259.974 371.492 259.504 360.697L294.747 358.257C297.096 354.971 298.412 350.747 299.164 346.617Z" fill="#22619C"/>
<path d="M247.662 419.086C249.447 418.053 252.831 416.551 255.086 415.331C257.53 414.017 258.47 412.703 258.846 410.075C259.315 406.695 258.282 400.782 258 397.403C257.906 396.276 257.812 395.15 257.624 394.117H267.21C266.928 402.002 265.894 409.324 267.304 416.739C267.586 418.241 267.868 419.931 266.928 421.057C265.518 422.747 262.887 422.089 261.007 422.089C258.752 422.089 256.402 422.183 254.147 422.465C252.079 422.747 249.823 423.216 247.756 422.653C247.004 422.465 246.252 421.996 246.064 421.245C245.97 420.4 246.816 419.555 247.662 419.086Z" fill="#E7A988"/>
<path d="M267.398 416.739C265.894 409.324 267.022 402.002 267.304 394.117H263.921C264.954 403.598 266.27 413.548 264.485 422.183C265.518 422.089 266.364 421.808 267.022 421.057C267.962 419.931 267.68 418.241 267.398 416.739Z" fill="#D88568"/>
<path d="M258 402.096C258 400.594 257.718 398.811 257.53 397.309C257.436 396.182 257.812 395.244 257.718 394.117L267.962 394.211C267.492 396.839 267.398 399.468 267.304 402.096H258Z" fill="#7D95C9"/>
<path d="M244.843 421.524C245.406 422.744 247.662 423.589 249.072 423.777C250.387 423.871 251.703 423.589 253.019 423.401C255.65 422.932 258.282 422.838 260.913 423.026C262.135 423.12 263.451 423.214 264.673 423.12C265.894 422.932 267.586 422.65 268.432 421.712C269.278 420.773 268.432 418.896 267.68 417.863C264.86 419.741 262.041 420.304 258.658 420.492C256.778 420.585 254.898 420.867 253.019 420.773C251.703 420.773 249.636 420.961 249.26 419.271C249.166 418.708 249.354 418.426 249.73 417.957C248.978 417.582 247.944 418.802 246.628 419.365C246.158 419.553 245.312 419.834 244.937 420.304C244.561 420.679 244.655 421.149 244.843 421.524Z" fill="#2070B4"/>
<path d="M267.116 398.711H258.376C256.872 398.711 255.556 397.585 255.368 396.083L252.079 371.396C251.609 367.829 250.857 363.417 252.549 360.226C253.677 358.161 254.898 356.096 256.872 354.781C264.954 349.243 276.326 347.741 282.623 341.64C285.724 338.636 285.912 334.694 287.134 329.531C293.149 330.752 301.795 332.441 306.588 336.29C308.467 373.93 284.972 359.381 269.747 366.609C269.747 376.558 270.123 386.414 269.653 396.177C269.653 397.585 268.526 398.711 267.116 398.711Z" fill="#2070B4"/>
<path d="M286.288 331.971C285.16 331.502 283.75 331.032 282.717 331.69C281.119 332.722 281.589 335.35 280.085 336.477C289.577 339.856 297.847 346.427 303.298 354.781C304.802 351.683 304.238 347.928 302.546 344.925C300.855 341.921 298.223 339.574 295.498 337.509C292.585 335.256 289.577 333.379 286.288 331.971Z" fill="#22619C"/>
<path d="M306.682 336.296C305.366 335.17 303.674 334.325 301.795 333.48C307.246 354.225 284.972 366.897 266.082 362.391C268.902 372.717 269.841 383.981 264.203 393.367C262.605 395.714 259.128 396.747 255.462 396.559C255.838 397.779 257.06 398.718 258.376 398.718H267.116C268.526 398.718 269.747 397.591 269.747 396.183C270.123 386.421 269.841 376.565 269.841 366.615C285.066 359.388 308.561 373.937 306.682 336.296Z" fill="#22619C"/>
<path d="M280.179 333.849C280.743 333.004 280.837 330.845 281.401 330C286.382 330.375 290.705 333.285 294.371 336.665C298.036 340.044 301.137 343.892 305.084 346.99C305.554 347.365 306.118 347.741 306.4 348.398C307.058 349.712 306.118 351.214 305.272 352.34C302.453 348.679 298.788 345.676 295.216 342.672C290.423 338.636 286.006 336.007 280.179 333.849Z" fill="#022248"/>
<path d="M285.348 314.234C284.126 311.887 283.093 309.447 282.811 306.819C282.529 303.064 284.032 299.497 286.1 296.212C286.006 288.984 291.833 282.977 299.069 282.977C302.641 282.977 306.306 283.352 309.877 284.009C313.26 284.666 316.738 285.793 318.899 288.421C320.591 290.392 321.155 293.114 321.625 295.649C323.598 308.227 310.159 321.086 307.621 348.495C307.527 349.246 306.682 349.716 306.024 349.246C298.317 343.614 289.013 331.412 280.367 330.473C282.435 327.939 284.314 321.65 285.348 314.234Z" fill="#98A9D8"/>
<path d="M321.624 295.74C321.249 293.205 320.591 290.483 318.899 288.512C316.737 285.884 313.26 284.757 309.877 284.1C308.467 283.819 307.151 283.631 305.742 283.443C302.546 287.573 299.727 291.797 300.573 296.772C300.761 301.935 301.043 307.098 300.949 312.167C297.941 311.979 295.028 311.791 292.021 311.603C290.611 311.509 289.295 311.416 287.979 311.04C286.664 310.665 285.442 309.82 284.69 308.693C284.22 307.849 283.844 306.816 282.904 306.722C283.468 310.008 284.972 313.105 287.134 315.64C287.322 315.827 287.509 316.015 287.791 316.109C288.449 316.203 288.731 315.17 289.389 314.795C289.859 314.513 290.517 314.795 290.893 315.076C291.363 315.452 291.645 315.827 292.209 316.109C293.336 316.672 294.746 316.015 295.968 316.203C297.847 316.391 299.163 318.174 300.667 319.394C300.103 326.528 298.599 333.474 295.31 339.669C299.069 343.143 302.734 346.897 306.118 349.338C306.776 349.807 307.621 349.338 307.715 348.587C310.159 321.178 323.598 308.318 321.624 295.74Z" fill="#7D95C9"/>
<path d="M293.054 285.225C292.491 285.976 292.397 286.915 292.397 287.853C292.303 290.2 292.679 292.734 294.37 294.33C295.31 295.269 296.626 295.832 297.941 296.02C299.257 296.207 300.667 296.02 301.983 295.738C305.46 294.987 308.749 293.204 311.287 290.669C312.321 289.637 313.26 288.229 312.884 286.821C312.509 285.6 311.287 284.943 310.159 284.474C305.366 282.409 299.727 281.846 294.934 283.911C294.276 284.192 293.524 284.568 293.054 285.225Z" fill="#022A44"/>
<path d="M289.577 319.769C289.389 319.487 289.013 319.3 288.732 319.394C288.45 319.487 288.168 319.863 288.262 320.238C288.356 320.614 288.825 320.895 289.201 320.802C289.577 320.708 289.765 320.144 289.577 319.769Z" fill="#E8E9EB"/>
<path d="M289.107 301.179C289.483 300.898 289.483 300.241 289.107 299.959C288.732 299.771 288.074 300.053 288.074 300.522C288.074 301.086 288.732 301.461 289.107 301.179Z" fill="#E8E9EB"/>
<path d="M297.096 305.781C297.377 306.156 298.129 306.062 298.317 305.593C298.505 305.124 298.129 304.561 297.659 304.561C297.096 304.654 296.72 305.405 297.096 305.781Z" fill="#E8E9EB"/>
<path d="M292.303 329.247C291.739 329.341 291.551 330.186 292.021 330.561C292.491 330.936 293.242 330.561 293.242 329.998C293.242 329.528 292.772 329.153 292.303 329.247Z" fill="#E8E9EB"/>
<path d="M304.614 328.118C304.802 327.931 304.99 327.649 304.99 327.367C305.084 327.086 304.99 326.804 304.802 326.617C304.426 326.335 303.862 326.71 303.862 327.18C303.768 327.555 304.144 327.931 304.614 328.118Z" fill="#E8E9EB"/>
<path d="M303.58 337.694C303.58 338.07 303.205 338.445 302.829 338.445C302.453 338.445 302.077 338.07 302.077 337.694C302.077 337.319 302.453 336.943 302.829 336.943C303.205 336.943 303.58 337.319 303.58 337.694Z" fill="#E8E9EB"/>
<path d="M298.505 323.334C298.921 323.334 299.257 322.998 299.257 322.583C299.257 322.168 298.921 321.832 298.505 321.832C298.09 321.832 297.753 322.168 297.753 322.583C297.753 322.998 298.09 323.334 298.505 323.334Z" fill="#E8E9EB"/>
<path d="M289.953 310.004C290.368 310.004 290.705 309.668 290.705 309.253C290.705 308.838 290.368 308.502 289.953 308.502C289.538 308.502 289.201 308.838 289.201 309.253C289.201 309.668 289.538 310.004 289.953 310.004Z" fill="#E8E9EB"/>
<path d="M306.776 345.11C306.776 345.486 306.494 345.767 306.118 345.767C305.742 345.767 305.46 345.486 305.46 345.11C305.46 344.735 305.742 344.453 306.118 344.453C306.494 344.453 306.776 344.735 306.776 345.11Z" fill="#E8E9EB"/>
<path d="M295.968 336.757C295.968 337.038 295.686 337.32 295.404 337.32C295.122 337.32 294.84 337.038 294.84 336.757C294.84 336.475 295.122 336.193 295.404 336.193C295.686 336.287 295.968 336.475 295.968 336.757Z" fill="#E8E9EB"/>
<path d="M286.664 328.589C286.664 329.058 286.288 329.434 285.818 329.434C285.348 329.434 284.972 329.058 284.972 328.589C284.972 328.12 285.348 327.744 285.818 327.744C286.288 327.744 286.664 328.12 286.664 328.589Z" fill="#E8E9EB"/>
<path d="M305.648 254.347C304.05 253.783 303.017 252 301.325 252C299.727 252.094 298.788 253.877 297.378 254.534C295.968 255.098 294.182 254.722 293.149 255.755C291.927 256.881 292.491 258.852 292.021 260.448C291.645 261.856 290.517 262.982 289.577 264.109C288.638 265.235 287.886 266.737 288.356 268.145C288.638 268.99 289.483 269.647 289.389 270.586C289.389 270.961 289.108 271.337 289.014 271.712C288.732 272.651 289.014 273.777 289.295 274.716C289.671 275.654 289.389 276.499 289.295 277.532C289.295 278.564 288.356 279.409 288.638 281.099C298.694 282.882 308.655 284.102 318.617 281.756C317.866 281.099 317.866 279.409 318.336 278.564C318.617 278.001 319.181 277.438 318.993 276.875C318.805 276.311 317.96 276.218 317.584 275.842C316.55 274.716 316.362 273.308 316.832 272.932C317.678 272.181 317.584 270.867 317.584 269.835C317.584 267.582 315.422 265.986 314.294 264.015C313.355 262.419 313.167 260.542 312.603 258.758C312.039 256.975 310.911 255.191 309.125 254.816C308.092 254.347 306.87 254.722 305.648 254.347Z" fill="#FFD255"/>
<path d="M293.712 260.353C293.054 261.197 292.49 262.23 292.772 263.262C292.96 263.92 293.524 264.483 293.618 265.14C293.712 266.642 291.457 267.393 291.269 268.988C291.175 269.833 291.832 270.49 292.114 271.335C292.49 272.368 292.302 273.588 291.927 274.62C291.551 275.653 291.081 276.685 290.893 277.812C290.705 278.938 290.987 280.158 291.833 280.909C292.302 281.285 292.866 281.473 293.524 281.566C296.719 282.411 299.915 282.974 303.204 282.974C306.494 282.974 309.783 282.317 312.696 280.816C312.79 280.816 312.884 280.722 312.884 280.628C313.072 280.346 312.696 280.065 312.414 279.971C311.756 279.501 311.568 278.563 311.662 277.812C311.756 276.967 312.132 276.216 312.226 275.465C312.414 274.62 312.32 273.776 311.85 273.118C311.099 272.18 309.595 272.368 308.561 271.804C307.245 271.147 306.681 269.645 306.4 268.237C306.024 266.829 305.742 265.328 304.614 264.295C303.392 263.262 301.512 263.169 300.573 261.854C300.103 261.104 300.009 260.165 299.539 259.414C298.881 258.475 297.565 258.194 296.438 258.475C295.31 258.663 294.464 259.414 293.712 260.353Z" fill="#D88568"/>
<path d="M298.036 283.353C299.633 279.786 299.821 276.407 300.197 272.559C302.923 273.31 305.084 273.403 307.903 273.122C308.467 276.783 309.031 280.443 309.595 284.104C310.253 284.386 310.723 284.855 310.911 285.418C311.099 286.169 310.723 286.92 310.253 287.671C308.749 290.018 306.682 292.177 304.144 293.209C301.607 294.336 298.411 294.242 296.156 292.552C293.9 290.863 293.149 287.39 294.746 285.137C295.31 284.48 297.284 283.635 298.036 283.353Z" fill="#E7A988"/>
<path d="M310.723 285.041C308.938 290.767 303.017 294.24 297.096 292.081C296.25 292.081 294.935 291.048 294.089 289.734C294.465 290.861 295.123 291.893 296.062 292.644C298.318 294.334 301.513 294.428 304.051 293.301C306.588 292.175 308.656 290.016 310.16 287.763C310.629 287.106 311.005 286.355 310.817 285.51C310.911 285.323 310.817 285.135 310.723 285.041Z" fill="#D88568"/>
<path d="M307.246 273.118C304.802 273.306 302.735 273.118 300.197 272.461C299.821 276.309 299.539 279.689 298.036 283.256C297.284 283.631 295.31 284.382 294.84 285.039C294.276 285.884 293.994 286.823 293.994 287.855C297.19 285.696 301.231 284.382 304.708 283.537C307.152 282.786 306.682 277.53 307.246 273.118Z" fill="#D88568"/>
<path d="M299.069 280.158C299.727 277.717 299.915 275.183 300.197 272.461C302.453 273.118 304.52 273.306 306.776 273.118C306.588 277.811 303.204 279.501 299.069 280.158Z" fill="#022A44"/>
<path d="M294.276 265.52C294.558 265.145 294.558 264.581 294.558 264.112C294.464 263.079 294.84 261.39 295.216 260.357L295.874 258.48C299.915 256.415 304.708 257.26 308.186 260.17C309.595 261.39 310.817 262.986 311.005 264.863C311.193 266.74 310.441 268.524 309.689 270.213C308.843 272.091 307.904 274.062 306.4 275.47C304.99 276.784 303.017 277.535 301.137 278.004C299.821 278.286 298.412 278.38 297.002 278.38C295.968 278.38 295.028 277.723 294.652 276.69C293.712 273.874 293.055 270.964 293.431 267.867C293.431 267.022 293.807 266.271 294.276 265.52Z" fill="#E7A988"/>
<path d="M311.005 264.767C310.817 262.889 309.595 261.294 308.185 260.073C305.46 257.821 302.077 256.788 298.881 257.445C299.257 257.633 299.633 257.915 300.009 258.196C302.453 259.792 302.077 264.204 304.896 265.987C305.836 266.55 306.4 267.583 306.306 268.615C306.212 270.587 306.494 272.558 307.434 274.247C308.373 273.027 309.031 271.525 309.689 270.117C310.441 268.428 311.193 266.644 311.005 264.767Z" fill="#D88568"/>
<path d="M313.73 274.999C313.918 273.309 314.482 271.62 314.388 269.836C314.294 268.522 313.918 267.302 313.166 266.269C312.978 265.988 312.79 265.8 312.602 265.612C312.602 265.424 312.602 265.237 312.602 265.049C312.696 263.547 312.602 261.857 311.945 260.543C311.099 258.854 309.501 257.633 307.715 256.882C305.366 255.85 302.453 255.287 299.915 255.568L297.472 256.695C298.505 256.413 301.607 257.352 302.171 258.29C302.64 259.135 302.64 260.168 302.922 261.013C303.298 262.139 304.144 262.984 305.178 263.453C306.024 263.735 306.964 263.922 307.434 264.58C307.903 265.237 307.622 266.175 307.434 267.02C307.152 268.146 306.964 269.273 307.152 270.493C307.246 271.056 307.434 271.62 307.715 272.183C307.809 272.84 308.373 273.497 308.937 273.966C309.689 274.529 310.629 274.999 311.005 275.844C311.475 276.782 311.287 278.096 311.945 278.941C312.602 279.786 313.73 279.88 314.764 279.974C313.73 278.66 313.542 276.782 313.73 274.999Z" fill="#FFD255"/>
<path d="M289.295 268.709C289.577 268.99 289.859 269.178 289.953 269.553C290.047 270.023 289.765 270.398 289.577 270.774C289.201 271.712 289.389 272.839 290.141 273.496C289.765 272.557 289.859 271.618 290.235 270.68C290.516 270.21 290.892 269.647 290.704 269.178C290.61 268.427 289.671 268.052 289.389 267.394C289.201 266.831 289.389 266.268 289.671 265.799C289.953 265.329 290.329 264.86 290.422 264.297C289.859 264.86 289.201 265.517 288.919 266.268C288.731 267.019 288.731 268.052 289.295 268.709Z" fill="#FAA701"/>
<path d="M291.174 274.902C290.61 275.841 290.141 276.874 289.953 277.906C289.765 278.939 290.047 280.159 290.892 280.91C290.329 278.939 290.423 276.78 291.174 274.902Z" fill="#FAA701"/>
<path d="M309.219 263.078C309.971 263.266 310.347 264.111 310.347 264.862C310.347 265.613 309.971 266.363 309.783 267.114C309.595 267.865 309.501 268.71 309.877 269.367C310.253 270.024 311.005 270.306 311.663 270.681C312.32 271.057 312.884 271.714 312.79 272.465C312.696 273.028 312.226 273.403 312.226 273.967C312.226 274.342 312.508 274.718 312.79 274.999C313.072 275.281 313.448 275.469 313.636 275.844C313.918 276.219 313.918 276.689 313.824 277.158C313.73 277.627 313.542 278.003 313.354 278.472C313.824 278.097 314.2 277.627 314.2 276.97C314.294 276.407 314.106 275.75 313.73 275.375C313.542 275.093 313.26 274.905 313.072 274.624C312.884 274.154 313.072 273.591 313.26 273.122C313.448 272.653 313.73 272.183 313.636 271.62C313.542 270.963 312.884 270.587 312.226 270.212C311.663 269.93 310.911 269.555 310.723 268.898C310.441 268.147 310.911 267.396 311.099 266.551C311.569 265.143 310.629 263.547 309.219 263.078Z" fill="#FAA701"/>
<path d="M316.267 271.526C316.549 270.869 317.113 270.305 317.019 269.648C316.925 268.991 316.268 268.522 315.704 268.24C315.986 268.428 316.268 268.616 316.455 268.803C316.643 269.085 316.831 269.367 316.737 269.648C316.643 270.118 316.268 270.399 315.892 270.775C315.046 271.713 314.764 273.215 315.328 274.342C315.61 274.905 316.174 275.468 316.362 276.031C316.737 276.876 316.643 277.815 316.267 278.659C315.892 279.504 315.422 280.255 314.858 280.912C315.516 280.349 316.08 279.88 316.549 279.223C317.019 278.566 317.301 277.721 317.207 276.876C317.019 275.937 316.361 275.186 315.986 274.342C315.704 273.497 315.798 272.37 316.267 271.526Z" fill="#FAA701"/>
<path d="M300.197 255.1C301.418 255.382 302.358 256.227 303.298 257.165C301.324 255.851 298.693 255.663 296.625 256.79C297.283 255.569 298.787 254.819 300.197 255.1Z" fill="#FAA701"/>
<path d="M306.305 259.793C305.835 259.324 305.553 258.667 305.272 258.103C304.99 257.54 304.708 256.883 304.238 256.414C303.768 255.945 303.11 255.569 302.546 255.663C303.11 255.851 303.58 256.414 303.862 256.977C304.144 257.54 304.426 258.197 304.708 258.667C305.178 259.23 305.741 259.699 306.305 259.793Z" fill="#FAA701"/>
<path d="M306.212 257.164C306.306 257.915 306.869 258.572 307.621 258.76C307.621 258.29 307.339 257.727 306.963 257.446C306.588 257.164 306.681 257.164 306.212 257.164Z" fill="#FAA701"/>
<path d="M322.001 332.731L312.885 333.951C313.355 325.879 312.885 317.806 311.569 309.828C310.629 303.82 309.219 297.437 311.475 291.805C312.321 289.646 314.012 287.487 316.362 287.3C317.96 287.112 319.463 287.957 320.591 289.083C321.719 290.21 322.377 291.711 322.941 293.213C325.854 301.004 325.196 306.918 324.444 315.178C323.88 320.622 323.974 327.193 322.001 332.731Z" fill="#98A9D8"/>
<path d="M310.911 293.307C309.407 298.563 310.629 304.289 311.569 309.827C312.884 317.806 313.26 325.878 312.884 333.951L315.422 333.575C316.737 320.246 314.67 306.166 310.911 293.307Z" fill="#7D95C9"/>
<path d="M314.858 293.867C315.169 293.867 315.422 293.614 315.422 293.303C315.422 292.992 315.169 292.74 314.858 292.74C314.547 292.74 314.294 292.992 314.294 293.303C314.294 293.614 314.547 293.867 314.858 293.867Z" fill="#E8E9EB"/>
<path d="M321.531 299.121C322.05 299.121 322.471 298.701 322.471 298.183C322.471 297.664 322.05 297.244 321.531 297.244C321.012 297.244 320.591 297.664 320.591 298.183C320.591 298.701 321.012 299.121 321.531 299.121Z" fill="#E8E9EB"/>
<path d="M317.302 308.042C317.302 308.417 316.926 308.793 316.55 308.793C316.174 308.793 315.799 308.417 315.799 308.042C315.799 307.666 316.174 307.291 316.55 307.291C317.02 307.291 317.302 307.666 317.302 308.042Z" fill="#E8E9EB"/>
<path d="M323.128 309.07C323.544 309.07 323.88 308.734 323.88 308.319C323.88 307.905 323.544 307.568 323.128 307.568C322.713 307.568 322.377 307.905 322.377 308.319C322.377 308.734 322.713 309.07 323.128 309.07Z" fill="#E8E9EB"/>
<path d="M321.437 319.212C321.437 319.587 321.155 319.869 320.779 319.869C320.403 319.869 320.121 319.587 320.121 319.212C320.121 318.836 320.403 318.555 320.779 318.555C321.155 318.555 321.437 318.836 321.437 319.212Z" fill="#E8E9EB"/>
<path d="M310.911 305.316C310.535 305.785 309.689 306.255 309.595 306.818C309.501 307.006 309.689 307.1 309.689 307.287C309.689 308.226 309.689 309.165 309.877 310.197C308.28 311.793 306.588 311.793 304.896 312.45L304.708 310.667C304.614 310.291 304.426 309.728 304.144 309.446C303.957 309.071 303.581 308.883 303.299 308.601C302.641 307.944 302.359 307.006 302.265 306.161C302.171 305.222 302.265 304.377 302.265 303.439C302.265 300.811 301.701 298.182 301.419 295.554C301.419 295.179 301.325 294.803 301.513 294.521C301.795 294.521 302.265 294.897 302.359 295.179C302.829 296.868 303.205 298.088 303.487 300.341C303.863 299.872 303.675 299.309 303.581 298.652C303.581 297.995 303.393 297.244 303.299 296.587C303.111 295.554 302.829 294.709 302.829 293.677C302.829 293.395 303.111 292.926 303.299 292.832C303.581 292.738 303.769 292.926 303.862 293.301C303.769 292.832 303.862 292.832 303.862 292.55C303.862 292.269 304.144 291.987 304.426 292.081C305.272 293.113 306.306 294.803 306.588 296.117C306.87 297.431 306.87 297.901 306.776 299.59C307.058 298.276 306.964 296.868 306.494 295.648C306.306 295.085 305.93 294.521 305.836 293.864C305.648 293.301 305.648 292.55 306.024 292.081C307.528 294.24 309.031 296.587 308.937 299.215C308.937 300.341 308.562 301.374 308.937 302.406C309.407 302.125 309.971 301.749 310.253 301.28C310.535 300.811 310.629 300.341 310.911 299.872C311.193 299.403 311.569 299.027 312.039 298.933C312.133 298.933 312.321 298.933 312.415 299.027C312.509 299.121 312.509 299.309 312.509 299.496C312.227 300.811 311.475 301.937 311.287 303.251C311.287 303.908 311.381 304.753 310.911 305.316Z" fill="#E7A988"/>
<path d="M302.828 307.851C302.922 308.039 303.11 308.32 303.298 308.508C303.58 308.79 303.956 309.071 304.144 309.353C304.331 309.728 304.613 310.198 304.707 310.573L304.895 312.357C306.587 311.7 308.279 311.7 309.876 310.104C309.782 309.165 309.688 308.226 309.688 307.194C309.688 307.006 309.5 306.912 309.594 306.725C307.433 307.757 305.177 308.039 302.828 307.851Z" fill="#D88568"/>
<path d="M310.911 305.316C311.287 304.753 311.287 304.002 311.38 303.251C311.568 301.937 312.32 300.811 312.602 299.496C312.602 299.309 312.602 299.215 312.508 299.027C312.414 298.933 312.32 298.933 312.132 298.933C311.662 298.933 311.193 299.403 311.005 299.872C310.723 300.341 310.629 300.811 310.347 301.28C309.971 301.749 309.501 302.125 309.031 302.406C308.749 301.374 309.031 300.247 309.031 299.215C309.125 296.587 307.527 294.24 306.118 292.081C305.742 292.55 305.742 293.301 305.93 293.864C306.118 294.428 306.4 294.991 306.588 295.648C307.057 296.868 307.151 298.276 306.869 299.59C306.963 297.901 306.963 297.431 306.681 296.117C306.4 294.803 305.366 293.113 304.52 292.081C304.238 291.987 303.956 292.269 303.956 292.55C303.956 292.832 303.862 292.832 303.956 293.301C303.862 293.02 303.768 292.738 303.392 292.832C303.204 292.926 302.922 293.489 302.922 293.677C302.922 294.709 303.11 295.554 303.392 296.587C303.486 297.15 303.674 297.995 303.674 298.652C303.674 299.309 303.956 299.778 303.58 300.341C303.298 298.088 302.922 296.868 302.452 295.179C302.358 294.897 301.982 294.428 301.607 294.521C301.419 294.803 301.419 295.179 301.513 295.554C301.794 298.182 302.358 300.811 302.358 303.439C302.358 304.377 302.264 305.222 302.358 306.161C302.452 306.818 302.64 307.475 302.922 308.038C305.272 308.226 307.433 308.038 309.689 307.006C309.783 306.161 310.629 305.785 310.911 305.316Z" fill="#E7A988"/>
<path d="M305.742 299.966H305.272C305.272 297.525 304.708 295.179 303.486 293.02L303.862 292.832C305.084 294.991 305.742 297.431 305.742 299.966Z" fill="#022A44"/>
<path d="M318.148 336.669C316.08 337.044 313.448 336.293 312.227 334.604C310.911 332.914 309.689 330.473 309.125 328.408C307.34 322.213 305.648 315.83 303.862 309.635C306.212 309.541 309.313 308.227 310.535 306.256C312.603 311.325 314.952 316.3 317.96 320.899C319.745 323.527 321.813 326.156 322.377 329.253C322.847 332.351 321.249 336.199 318.148 336.669Z" fill="#98A9D8"/>
<path d="M319.651 327.845C319.651 323.715 317.678 319.866 315.704 316.581C315.14 315.642 314.576 314.797 314.013 313.953C312.509 311.7 311.099 309.541 310.253 306.631L310.723 306.537C311.569 309.353 312.979 311.418 314.388 313.671C314.952 314.516 315.516 315.361 316.08 316.393C318.054 319.678 320.027 323.621 320.121 327.939L319.651 327.845Z" fill="#022A44"/>
<path d="M314.2 330.096C314.615 330.096 314.952 329.759 314.952 329.345C314.952 328.93 314.615 328.594 314.2 328.594C313.785 328.594 313.448 328.93 313.448 329.345C313.448 329.759 313.785 330.096 314.2 330.096Z" fill="#E8E9EB"/>
<path d="M315.61 321.929C315.921 321.929 316.174 321.677 316.174 321.366C316.174 321.055 315.921 320.803 315.61 320.803C315.298 320.803 315.046 321.055 315.046 321.366C315.046 321.677 315.298 321.929 315.61 321.929Z" fill="#E8E9EB"/>
<path d="M309.689 317.989C309.689 318.271 309.407 318.552 309.125 318.552C308.843 318.552 308.561 318.271 308.561 317.989C308.561 317.707 308.843 317.426 309.125 317.426C309.501 317.52 309.689 317.707 309.689 317.989Z" fill="#E8E9EB"/>
<path d="M310.911 312.546C310.911 312.827 310.629 313.109 310.347 313.109C310.065 313.109 309.783 312.827 309.783 312.546C309.783 312.264 310.065 311.982 310.347 311.982C310.629 311.982 310.911 312.264 310.911 312.546Z" fill="#E8E9EB"/>
<path d="M258.376 398.993C256.684 398.993 255.274 397.773 255.086 396.084L251.703 370.646C251.233 367.267 250.669 363.043 252.267 360.039C253.395 357.974 254.711 355.815 256.684 354.501C260.349 351.966 264.672 350.277 268.902 348.681C274.071 346.616 279.052 344.739 282.529 341.359L282.811 341.735C279.333 345.114 274.352 347.085 269.09 349.15C264.954 350.746 260.631 352.436 256.966 354.97C255.086 356.284 253.865 358.349 252.737 360.414C251.139 363.23 251.703 367.36 252.173 370.74L252.267 371.397L255.556 396.084C255.744 397.492 256.966 398.524 258.376 398.524V398.993Z" fill="#022A44"/>
</g>
<defs>
<clipPath id="clip0_1286_2">
<rect width="346.54" height="369.32" fill="white" transform="translate(44 58)"/>
</clipPath>
</defs>
</svg>
