<svg width="586" height="414" viewBox="0 0 586 414" fill="none" xmlns="http://www.w3.org/2000/svg">
<path d="M526.996 402.408H488.2V402.701H526.996V402.408Z" fill="#EBEBEB"/>
<path d="M387.978 405.596H377.799V405.889H387.978V405.596Z" fill="#EBEBEB"/>
<path d="M487.029 391.539H464.55V391.832H487.029V391.539Z" fill="#EBEBEB"/>
<path d="M112.041 393.506H61.4497V393.799H112.041V393.506Z" fill="#EBEBEB"/>
<path d="M129.892 393.506H122.478V393.799H129.892V393.506Z" fill="#EBEBEB"/>
<path d="M263.732 398.451H153.999V398.744H263.732V398.451Z" fill="#EBEBEB"/>
<path d="M277.625 331.32H51.4463C47.7565 331.32 44.7578 328.321 44.7578 324.631V6.68848C44.7578 2.99869 47.7565 0 51.4463 0H277.636C281.326 0 284.325 2.99869 284.325 6.68848V324.631C284.313 328.321 281.314 331.32 277.625 331.32ZM51.4463 0.292841C47.9205 0.292841 45.0507 3.16268 45.0507 6.68848V324.631C45.0507 328.157 47.9205 331.027 51.4463 331.027H277.636C281.162 331.027 284.032 328.157 284.032 324.631V6.68848C284.032 3.16268 281.162 0.292841 277.636 0.292841H51.4463Z" fill="#EBEBEB"/>
<path d="M530.99 331.32H304.8C301.11 331.32 298.112 328.321 298.112 324.631V6.68848C298.112 2.99869 301.11 0 304.8 0H530.99C534.68 0 537.679 2.99869 537.679 6.68848V324.631C537.679 328.321 534.68 331.32 530.99 331.32ZM304.8 0.292841C301.274 0.292841 298.405 3.16268 298.405 6.68848V324.631C298.405 328.157 301.274 331.027 304.8 331.027H530.99C534.516 331.027 537.386 328.157 537.386 324.631V6.68848C537.386 3.16268 534.516 0.292841 530.99 0.292841H304.8Z" fill="#EBEBEB"/>
<path d="M585.681 383.562H0V383.855H585.681V383.562Z" fill="#EBEBEB"/>
<path d="M488.165 46.5254H341.991V202.188H488.165V46.5254Z" fill="#EBEBEB"/>
<path d="M479.38 55.3105H350.776V193.402H479.38V55.3105Z" fill="#F5F5F5"/>
<path d="M401.25 193.402H439.905L476.194 55.3105H437.539L401.25 193.402Z" fill="#FAFAFA"/>
<path d="M419.582 55.3105L383.293 193.402H392.664L428.953 55.3105H419.582Z" fill="#FAFAFA"/>
<path d="M490.016 53.8483H340.14L336.977 46.4688H493.178L490.016 53.8483Z" fill="#F5F5F5"/>
<path d="M490.016 58.1218H340.14L336.977 50.7422H493.178L490.016 58.1218Z" fill="#F0F0F0"/>
<path d="M490.016 62.3991H340.14L336.977 55.0195H493.178L490.016 62.3991Z" fill="#E6E6E6"/>
<path d="M490.016 66.6745H340.14L336.977 59.2949H493.178L490.016 66.6745Z" fill="#E0E0E0"/>
<path d="M498.625 37.2266H331.53V47.066H498.625V37.2266Z" fill="#E0E0E0"/>
<path d="M333.241 136.278C332.304 136.278 331.542 135.517 331.542 134.58V77.1828C331.542 76.2458 332.304 75.4844 333.241 75.4844C334.178 75.4844 334.939 76.2458 334.939 77.1828V134.568C334.939 135.517 334.178 136.278 333.241 136.278Z" fill="#E0E0E0"/>
<path d="M333.85 45.0879H332.62V79.1745H333.85V45.0879Z" fill="#E0E0E0"/>
<path d="M106.032 43.5039H103.923V207.928H106.032V43.5039Z" fill="#E0E0E0"/>
<path d="M237.283 43.5039H235.174V207.928H237.283V43.5039Z" fill="#E0E0E0"/>
<path d="M245.541 53.8483H95.6651L92.5024 46.4688H248.704L245.541 53.8483Z" fill="#F5F5F5"/>
<path d="M245.541 63.9792H95.6651L92.5024 56.5996H248.704L245.541 63.9792Z" fill="#F5F5F5"/>
<path d="M245.541 74.112H95.6651L92.5024 66.7324H248.704L245.541 74.112Z" fill="#F5F5F5"/>
<path d="M245.541 84.2448H95.6651L92.5024 76.8652H248.704L245.541 84.2448Z" fill="#F5F5F5"/>
<path d="M245.541 94.3776H95.6651L92.5024 86.998H248.704L245.541 94.3776Z" fill="#F5F5F5"/>
<path d="M245.541 104.51H95.6651L92.5024 97.1309H248.704L245.541 104.51Z" fill="#F5F5F5"/>
<path d="M245.541 114.641H95.6651L92.5024 107.262H248.704L245.541 114.641Z" fill="#F5F5F5"/>
<path d="M245.541 124.762H95.6651L92.5024 117.383H248.704L245.541 124.762Z" fill="#F5F5F5"/>
<path d="M245.541 134.895H95.6651L92.5024 127.516H248.704L245.541 134.895Z" fill="#F5F5F5"/>
<path d="M245.541 145.028H95.6651L92.5024 137.648H248.704L245.541 145.028Z" fill="#F5F5F5"/>
<path d="M245.541 155.161H95.6651L92.5024 147.781H248.704L245.541 155.161Z" fill="#F5F5F5"/>
<path d="M245.541 165.292H95.6651L92.5024 157.912H248.704L245.541 165.292Z" fill="#F5F5F5"/>
<path d="M245.541 175.423H95.6651L92.5024 168.043H248.704L245.541 175.423Z" fill="#F5F5F5"/>
<path d="M245.541 185.555H95.6651L92.5024 178.176H248.704L245.541 185.555Z" fill="#F5F5F5"/>
<path d="M245.541 195.688H95.6651L92.5024 188.309H248.704L245.541 195.688Z" fill="#F5F5F5"/>
<path d="M245.541 205.821H95.6651L92.5024 198.441H248.704L245.541 205.821Z" fill="#F5F5F5"/>
<path d="M248.704 205.82H92.5024V210.037H248.704V205.82Z" fill="#E0E0E0"/>
<path d="M254.15 37.2266H87.0557V47.066H254.15V37.2266Z" fill="#E0E0E0"/>
<path d="M88.7776 136.278C87.8405 136.278 87.0791 135.517 87.0791 134.58V77.1828C87.0791 76.2458 87.8405 75.4844 88.7776 75.4844C89.7147 75.4844 90.4761 76.2458 90.4761 77.1828V134.568C90.4761 135.517 89.7147 136.278 88.7776 136.278Z" fill="#E0E0E0"/>
<path d="M89.3867 45.0879H88.1567V79.1745H89.3867V45.0879Z" fill="#E0E0E0"/>
<path d="M104.627 313.246C104.486 313.41 105.271 314.511 102.061 314.019C94.1548 312.836 80.3913 309.626 76.5609 301.497C71.0906 289.889 88.052 294.129 87.4663 288.19C86.8806 282.251 67.5765 283.294 65.5267 274.579C63.4768 265.876 76.5726 270.022 76.7483 265.77C76.924 261.53 61.8369 264.165 58.8382 254.771C55.8395 245.377 67.2486 252.288 65.9366 248.387C64.6247 244.487 51.8686 226.811 58.803 224.761C65.7492 222.711 77.4511 240.844 81.9609 243.409C86.4706 245.974 90.4884 231.18 95.8649 237.423C101.241 243.667 92.714 265.524 99.5782 269.765C104.685 272.927 103.245 264.224 109.992 265.84C119.163 268.078 116.083 300.431 104.627 313.246Z" fill="#EBEBEB"/>
<path d="M80.2274 265.83C83.3315 266.087 85.6273 266.72 87.0564 267.235C84.2686 263.159 82.2655 261.062 82.1953 260.992C81.9727 260.758 81.9727 260.394 82.207 260.16C82.4412 259.938 82.8044 259.938 83.0386 260.172C83.0972 260.23 87.7124 264.986 92.7727 274.298C95.2559 259.317 88.9892 246.233 88.9189 246.092C88.8135 245.87 88.9072 245.612 89.118 245.506C89.3289 245.401 89.5983 245.495 89.7037 245.706C89.774 245.846 96.4742 259.82 93.4286 275.54C94.2369 277.086 95.0451 278.726 95.8533 280.507C98.1726 285.626 100.609 292.185 102.53 300.08C103.865 297.667 106.923 291.213 107.192 282.205C107.204 281.959 107.403 281.772 107.649 281.784C107.895 281.795 108.082 281.994 108.071 282.24C107.754 292.665 103.76 299.799 102.835 301.322C105.377 312.286 106.899 325.78 105.81 341.687C105.786 342.015 105.505 342.249 105.189 342.226C105.166 342.226 105.142 342.226 105.119 342.214C104.838 342.156 104.627 341.898 104.65 341.605C106.103 320.556 102.952 303.629 98.5943 290.815C97.4932 289.538 94.2251 286.258 89.2469 285.485C89.0243 285.426 88.8486 285.227 88.8837 284.981C88.9189 284.747 89.1414 284.583 89.3874 284.618C93.3232 285.239 96.2047 287.277 97.9149 288.859C94.7054 279.956 90.957 273.186 87.9232 268.559C86.951 268.114 84.2803 267.083 80.1571 266.732C79.9228 266.696 79.7354 266.497 79.7588 266.251C79.7705 265.994 79.9814 265.818 80.2274 265.83Z" fill="#F5F5F5"/>
<path d="M114.747 317.728C121.318 317.857 132.54 311.754 136.944 305.815C141.419 299.795 128.839 303.531 130.127 298.799C131.416 294.067 146.924 297.569 149.783 290.787C152.641 284.016 141.454 285.574 141.899 282.107C142.344 278.64 153.929 279.343 157.654 272.15C161.379 264.947 151.176 268.988 152.781 266.001C154.386 263.014 167.154 250.457 161.812 247.845C156.471 245.221 144.488 258.305 140.482 259.769C136.464 261.233 135.527 252.19 130.315 256.513C125.09 260.835 129.003 279.717 122.853 282.212C118.273 284.063 120.217 275.419 114.958 277.609C105.728 281.428 112.088 317.681 114.747 317.728Z" fill="#E0E0E0"/>
<g opacity="0.3">
<path d="M114.747 317.728C121.318 317.857 132.54 311.754 136.944 305.815C141.419 299.795 128.839 303.531 130.127 298.799C131.416 294.067 146.924 297.569 149.783 290.787C152.641 284.016 141.454 285.574 141.899 282.107C142.344 278.64 153.929 279.343 157.654 272.15C161.379 264.947 151.176 268.988 152.781 266.001C154.386 263.014 167.154 250.457 161.812 247.845C156.471 245.221 144.488 258.305 140.482 259.769C136.464 261.233 135.527 252.19 130.315 256.513C125.09 260.835 129.003 279.717 122.853 282.212C118.273 284.063 120.217 275.419 114.958 277.609C105.728 281.428 112.088 317.681 114.747 317.728Z" fill="#E0E0E0"/>
</g>
<path d="M116.926 309.847C116.832 309.812 116.75 309.753 116.692 309.659C116.54 309.367 112.943 302.397 113.74 292.054C113.763 291.808 113.963 291.632 114.209 291.656C114.455 291.679 114.63 291.89 114.607 292.124C113.927 300.862 116.54 307.258 117.266 308.863C120.206 300.874 123.732 293.776 127.269 287.696C126.11 273.593 133.337 262.044 133.407 261.926C133.536 261.727 133.805 261.657 134.016 261.786C134.215 261.915 134.286 262.184 134.157 262.395C134.087 262.5 127.445 273.125 128.066 286.338C136.488 272.234 144.699 264.047 144.863 263.883C145.097 263.66 145.46 263.66 145.695 263.894C145.917 264.129 145.917 264.492 145.683 264.726C145.542 264.867 139.697 270.7 132.868 280.938C136.874 279.45 141.22 278.677 145.285 278.747C145.531 278.747 145.718 278.946 145.718 279.192C145.718 279.427 145.519 279.626 145.273 279.626C145.273 279.626 145.273 279.626 145.261 279.626C140.916 279.544 136.23 280.457 132.013 282.203C129.659 285.81 127.222 289.934 124.868 294.49C127.129 292.968 131.51 290.847 137.12 292.335C137.355 292.394 137.495 292.64 137.437 292.874C137.378 293.108 137.132 293.249 136.898 293.19C129.776 291.316 124.763 295.568 123.943 296.318C117.5 309.285 111.948 325.684 111.21 344.472C111.198 344.789 110.94 345.035 110.624 345.035C110.612 345.035 110.612 345.035 110.601 345.035C110.273 345.023 110.027 344.753 110.038 344.425C110.554 331.704 113.248 320.085 116.926 309.847Z" fill="#F5F5F5"/>
<path d="M96.2748 381.899C90.008 370.103 85.8848 353.072 85.8848 345.61C85.8848 339.297 88.8483 333.639 93.5455 329.668H125.653C130.35 333.639 133.313 339.297 133.313 345.61C133.313 353.072 129.19 370.115 122.923 381.899H96.2748Z" fill="#F0F0F0"/>
<path d="M338.941 65.5938H310.852C309.013 65.5938 307.338 66.9642 306.952 68.7916L306.764 69.6701C305.804 74.133 301.716 77.4714 297.229 77.4714H270.522C266.024 77.4714 262.534 74.133 262.346 69.6701L262.311 68.7916C262.241 66.9642 260.8 65.5938 258.961 65.5938H230.872C221.501 65.5938 213.243 73.1842 212.423 82.5551L189.827 340.887C189.007 350.258 195.942 357.849 205.312 357.849H313.394C322.765 357.849 331.023 350.258 331.843 340.887L354.439 82.5551C355.235 73.1842 348.301 65.5938 338.941 65.5938Z" fill="#407BFF"/>
<path opacity="0.7" d="M338.941 65.5938H310.852C309.013 65.5938 307.338 66.9642 306.952 68.7916L306.764 69.6701C305.804 74.133 301.716 77.4714 297.229 77.4714H270.522C266.024 77.4714 262.534 74.133 262.346 69.6701L262.311 68.7916C262.241 66.9642 260.8 65.5938 258.961 65.5938H230.872C221.501 65.5938 213.243 73.1842 212.423 82.5551L189.827 340.887C189.007 350.258 195.942 357.849 205.312 357.849H313.394C322.765 357.849 331.023 350.258 331.843 340.887L354.439 82.5551C355.235 73.1842 348.301 65.5938 338.941 65.5938Z" fill="white"/>
<path d="M327.977 184.407H270.592C268.507 184.407 266.973 182.72 267.148 180.635L271.471 131.215C271.658 129.13 273.486 127.443 275.571 127.443H332.956C335.041 127.443 336.575 129.13 336.399 131.215L332.077 180.635C331.901 182.72 330.062 184.407 327.977 184.407Z" fill="white"/>
<path d="M308.872 338.931H212.832C207.666 338.931 203.836 334.738 204.293 329.572C204.75 324.406 209.306 320.213 214.472 320.213H310.512C315.678 320.213 319.508 324.406 319.051 329.572C318.594 334.738 314.038 338.931 308.872 338.931Z" fill="white"/>
<path d="M316.545 113.869H228.424C225.519 113.869 223.375 111.514 223.633 108.609L224.347 100.398C224.605 97.4931 227.159 95.1387 230.064 95.1387H318.185C321.09 95.1387 323.234 97.4931 322.976 100.398L322.262 108.609C322.004 111.514 319.45 113.869 316.545 113.869Z" fill="white"/>
<path d="M334.455 100.128C334.385 100.937 333.67 101.592 332.862 101.592C332.054 101.592 331.456 100.937 331.527 100.128C331.597 99.32 332.311 98.6641 333.12 98.6641C333.928 98.6641 334.525 99.32 334.455 100.128Z" fill="white"/>
<path d="M334.081 104.497C334.01 105.306 333.296 105.962 332.487 105.962C331.679 105.962 331.082 105.306 331.152 104.497C331.222 103.689 331.937 103.033 332.745 103.033C333.553 103.033 334.151 103.689 334.081 104.497Z" fill="white"/>
<path d="M333.694 108.878C333.624 109.687 332.909 110.342 332.101 110.342C331.292 110.342 330.695 109.687 330.765 108.878C330.836 108.07 331.55 107.414 332.358 107.414C333.167 107.414 333.764 108.07 333.694 108.878Z" fill="white"/>
<path d="M320.844 265.943H213.629C211.544 265.943 210.009 264.256 210.185 262.171L215.117 205.77C215.304 203.685 217.131 201.998 219.216 201.998H326.431C328.516 201.998 330.051 203.685 329.875 205.77L324.943 262.171C324.768 264.244 322.929 265.943 320.844 265.943Z" fill="white"/>
<path d="M243.124 277.728H209.741C209.237 277.728 208.85 277.318 208.897 276.802C208.944 276.299 209.389 275.877 209.893 275.877H243.277C243.78 275.877 244.167 276.287 244.12 276.802C244.085 277.318 243.64 277.728 243.124 277.728Z" fill="white"/>
<path d="M284.848 277.728H249.016C248.513 277.728 248.126 277.318 248.173 276.802C248.22 276.299 248.665 275.877 249.169 275.877H285.001C285.504 275.877 285.891 276.287 285.844 276.802C285.809 277.318 285.364 277.728 284.848 277.728Z" fill="white"/>
<path d="M231.621 285.857H209.037C208.533 285.857 208.147 285.447 208.194 284.931C208.241 284.428 208.686 284.006 209.189 284.006H231.773C232.277 284.006 232.664 284.416 232.617 284.931C232.57 285.447 232.125 285.857 231.621 285.857Z" fill="white"/>
<path d="M274.494 285.857H237.502C236.998 285.857 236.612 285.447 236.659 284.931C236.705 284.428 237.151 284.006 237.654 284.006H274.646C275.15 284.006 275.536 284.416 275.489 284.931C275.454 285.447 274.997 285.857 274.494 285.857Z" fill="white"/>
<path d="M268.519 293.997H208.323C207.819 293.997 207.433 293.587 207.479 293.072C207.526 292.568 207.971 292.146 208.475 292.146H268.671C269.175 292.146 269.562 292.556 269.515 293.072C269.48 293.576 269.035 293.997 268.519 293.997Z" fill="white"/>
<path d="M278.382 293.997H274.411C273.908 293.997 273.521 293.587 273.568 293.072C273.615 292.568 274.06 292.146 274.563 292.146H278.534C279.038 292.146 279.425 292.556 279.378 293.072C279.343 293.576 278.898 293.997 278.382 293.997Z" fill="white"/>
<path d="M235.721 302.126H207.62C207.116 302.126 206.73 301.716 206.777 301.201C206.824 300.697 207.269 300.275 207.772 300.275H235.873C236.377 300.275 236.764 300.685 236.717 301.201C236.682 301.716 236.225 302.126 235.721 302.126Z" fill="white"/>
<path d="M276.602 302.126H241.602C241.098 302.126 240.711 301.716 240.758 301.201C240.805 300.697 241.25 300.275 241.766 300.275H276.754C277.258 300.275 277.644 300.685 277.598 301.201C277.562 301.716 277.106 302.126 276.602 302.126Z" fill="white"/>
<path d="M241.508 310.269H206.906C206.402 310.269 206.016 309.859 206.062 309.343C206.109 308.84 206.554 308.418 207.058 308.418H241.66C242.164 308.418 242.55 308.828 242.504 309.343C242.468 309.847 242.012 310.269 241.508 310.269Z" fill="white"/>
<path d="M275.278 310.269H247.4C246.896 310.269 246.51 309.859 246.557 309.343C246.603 308.84 247.049 308.418 247.564 308.418H275.442C275.946 308.418 276.333 308.828 276.286 309.343C276.227 309.847 275.782 310.269 275.278 310.269Z" fill="white"/>
<path d="M326.619 179.734C326.15 180.214 325.4 180.261 324.955 179.839L277.011 134.086C276.566 133.653 276.578 132.915 277.046 132.434C277.515 131.954 278.265 131.907 278.71 132.329L326.654 178.082C327.11 178.504 327.087 179.242 326.619 179.734Z" fill="#407BFF"/>
<path d="M272.771 179.711C272.385 179.231 272.502 178.481 273.017 178.059L297.475 158.064C298.002 157.631 298.729 157.689 299.115 158.17C299.502 158.65 299.385 159.4 298.869 159.821L274.411 179.816C273.896 180.25 273.158 180.203 272.771 179.711Z" fill="#407BFF"/>
<path d="M304.374 153.871C303.988 153.391 304.105 152.641 304.62 152.22L329.125 132.189C329.652 131.756 330.379 131.803 330.765 132.295C331.152 132.775 331.035 133.525 330.519 133.946L306.014 153.977C305.499 154.398 304.761 154.351 304.374 153.871Z" fill="#407BFF"/>
<g opacity="0.7">
<path d="M326.619 179.734C326.15 180.214 325.4 180.261 324.955 179.839L277.011 134.086C276.566 133.653 276.578 132.915 277.046 132.434C277.515 131.954 278.265 131.907 278.71 132.329L326.654 178.082C327.11 178.504 327.087 179.242 326.619 179.734Z" fill="white"/>
</g>
<g opacity="0.7">
<path d="M272.771 179.711C272.385 179.231 272.502 178.481 273.017 178.059L297.475 158.064C298.002 157.631 298.729 157.689 299.115 158.17C299.502 158.65 299.385 159.4 298.869 159.821L274.411 179.816C273.896 180.25 273.158 180.203 272.771 179.711Z" fill="white"/>
</g>
<g opacity="0.7">
<path d="M304.374 153.871C303.988 153.391 304.105 152.641 304.62 152.22L329.125 132.189C329.652 131.756 330.379 131.803 330.765 132.295C331.152 132.775 331.035 133.525 330.519 133.946L306.014 153.977C305.499 154.398 304.761 154.351 304.374 153.871Z" fill="white"/>
</g>
<path d="M194.142 70.1523H178.973C175.892 70.1523 173.397 72.6473 173.397 75.728V90.8972C173.397 93.9779 175.892 96.4729 178.973 96.4729H194.142C197.222 96.4729 199.717 93.9779 199.717 90.8972V75.728C199.717 72.6473 197.222 70.1523 194.142 70.1523ZM186.563 75.5406C188.847 75.5406 190.089 77.3914 190.089 79.6872C190.089 81.9714 188.859 83.8339 186.563 83.8339C184.279 83.8339 183.037 81.9831 183.037 79.6872C183.037 77.3914 184.267 75.5406 186.563 75.5406ZM195.711 91.0846H177.391C177.239 91.0846 177.098 91.026 177.005 90.9206L178.176 87.7111C178.926 85.6495 180.894 84.279 183.096 84.279H190.007C192.209 84.279 194.165 85.6495 194.927 87.7111L196.098 90.9206C196.004 91.026 195.875 91.0846 195.711 91.0846Z" fill="#407BFF"/>
<path opacity="0.7" d="M194.142 70.1523H178.973C175.892 70.1523 173.397 72.6473 173.397 75.728V90.8972C173.397 93.9779 175.892 96.4729 178.973 96.4729H194.142C197.222 96.4729 199.717 93.9779 199.717 90.8972V75.728C199.717 72.6473 197.222 70.1523 194.142 70.1523ZM186.563 75.5406C188.847 75.5406 190.089 77.3914 190.089 79.6872C190.089 81.9714 188.859 83.8339 186.563 83.8339C184.279 83.8339 183.037 81.9831 183.037 79.6872C183.037 77.3914 184.267 75.5406 186.563 75.5406ZM195.711 91.0846H177.391C177.239 91.0846 177.098 91.026 177.005 90.9206L178.176 87.7111C178.926 85.6495 180.894 84.279 183.096 84.279H190.007C192.209 84.279 194.165 85.6495 194.927 87.7111L196.098 90.9206C196.004 91.026 195.875 91.0846 195.711 91.0846Z" fill="white"/>
<path d="M140.166 132.549H128.64C124.493 132.549 121.131 135.911 121.131 140.057V151.583C121.131 155.73 124.493 159.092 128.64 159.092H140.166C144.313 159.092 147.674 155.73 147.674 151.583V140.057C147.663 135.911 144.313 132.549 140.166 132.549ZM134.403 152.111C134.403 152.111 129.671 146.957 129.671 144.344C129.671 141.732 131.791 139.612 134.403 139.612C137.015 139.612 139.135 141.732 139.135 144.344C139.135 146.957 134.403 152.111 134.403 152.111Z" fill="#407BFF"/>
<path d="M134.403 142.189C133.208 142.189 132.248 143.162 132.248 144.356C132.248 145.551 133.22 146.523 134.403 146.523C135.598 146.523 136.57 145.551 136.57 144.356C136.558 143.15 135.598 142.189 134.403 142.189Z" fill="#407BFF"/>
<g opacity="0.7">
<path d="M140.166 132.549H128.64C124.493 132.549 121.131 135.911 121.131 140.057V151.583C121.131 155.73 124.493 159.092 128.64 159.092H140.166C144.313 159.092 147.674 155.73 147.674 151.583V140.057C147.663 135.911 144.313 132.549 140.166 132.549ZM134.403 152.111C134.403 152.111 129.671 146.957 129.671 144.344C129.671 141.732 131.791 139.612 134.403 139.612C137.015 139.612 139.135 141.732 139.135 144.344C139.135 146.957 134.403 152.111 134.403 152.111Z" fill="white"/>
<path d="M134.403 142.189C133.208 142.189 132.248 143.162 132.248 144.356C132.248 145.551 133.22 146.523 134.403 146.523C135.598 146.523 136.57 145.551 136.57 144.356C136.558 143.15 135.598 142.189 134.403 142.189Z" fill="white"/>
</g>
<path d="M393.227 99.896L400.946 94.8943L393.227 89.9043V99.896Z" fill="#407BFF"/>
<path d="M403.171 81.2832H388.459C384.992 81.2832 382.192 84.0945 382.192 87.55V102.262C382.192 105.73 385.004 108.529 388.459 108.529H403.171C406.639 108.529 409.438 105.718 409.438 102.262V87.55C409.438 84.0828 406.639 81.2832 403.171 81.2832ZM395.815 104.699C390.404 104.699 386.023 100.306 386.023 94.9061C386.023 89.4944 390.404 85.1136 395.815 85.1136C401.227 85.1136 405.608 89.5062 405.608 94.9061C405.62 100.306 401.227 104.699 395.815 104.699Z" fill="#407BFF"/>
<g opacity="0.7">
<path d="M393.227 99.896L400.946 94.8943L393.227 89.9043V99.896Z" fill="white"/>
<path d="M403.171 81.2832H388.459C384.992 81.2832 382.192 84.0945 382.192 87.55V102.262C382.192 105.73 385.004 108.529 388.459 108.529H403.171C406.639 108.529 409.438 105.718 409.438 102.262V87.55C409.438 84.0828 406.639 81.2832 403.171 81.2832ZM395.815 104.699C390.404 104.699 386.023 100.306 386.023 94.9061C386.023 89.4944 390.404 85.1136 395.815 85.1136C401.227 85.1136 405.608 89.5062 405.608 94.9061C405.62 100.306 401.227 104.699 395.815 104.699Z" fill="white"/>
</g>
<path d="M417.614 137.706C417.614 137.401 417.603 137.097 417.568 136.804L419.336 135.82C419.207 134.965 418.985 134.145 418.68 133.372L416.666 133.407C416.408 132.856 416.103 132.341 415.764 131.849L416.806 130.115C416.267 129.459 415.67 128.85 415.014 128.323L413.28 129.366C412.788 129.026 412.273 128.721 411.722 128.464L411.758 126.449C410.973 126.144 410.153 125.922 409.309 125.793L408.325 127.562C408.033 127.538 407.728 127.515 407.424 127.515C407.119 127.515 406.814 127.527 406.522 127.562L405.538 125.793C404.683 125.922 403.863 126.144 403.089 126.449L403.125 128.464C402.574 128.721 402.059 129.026 401.567 129.366L399.833 128.323C399.177 128.862 398.568 129.459 398.041 130.115L399.083 131.849C398.744 132.341 398.439 132.856 398.181 133.407L396.167 133.372C395.862 134.156 395.64 134.976 395.511 135.82L397.28 136.804C397.256 137.097 397.233 137.401 397.233 137.706C397.233 138.01 397.244 138.315 397.28 138.608L395.511 139.592C395.64 140.447 395.862 141.267 396.167 142.04L398.181 142.005C398.439 142.555 398.744 143.071 399.083 143.563L398.041 145.296C398.58 145.952 399.177 146.561 399.833 147.088L401.567 146.046C402.059 146.386 402.574 146.69 403.125 146.948L403.089 148.963C403.874 149.267 404.694 149.49 405.538 149.618L406.522 147.85C406.814 147.873 407.119 147.897 407.424 147.897C407.728 147.897 408.033 147.885 408.325 147.85L409.309 149.618C410.164 149.49 410.984 149.267 411.758 148.963L411.722 146.948C412.273 146.69 412.788 146.386 413.28 146.046L415.014 147.088C415.67 146.55 416.279 145.952 416.806 145.296L415.764 143.563C416.103 143.071 416.408 142.555 416.666 142.005L418.68 142.04C418.985 141.255 419.207 140.435 419.336 139.592L417.568 138.608C417.591 138.303 417.614 138.01 417.614 137.706ZM407.4 144.628C403.57 144.628 400.466 141.524 400.466 137.694C400.466 133.864 403.57 130.76 407.4 130.76C411.23 130.76 414.335 133.864 414.335 137.694C414.335 141.536 411.23 144.628 407.4 144.628Z" fill="#407BFF"/>
<path opacity="0.7" d="M417.614 137.706C417.614 137.401 417.603 137.097 417.568 136.804L419.336 135.82C419.207 134.965 418.985 134.145 418.68 133.372L416.666 133.407C416.408 132.856 416.103 132.341 415.764 131.849L416.806 130.115C416.267 129.459 415.67 128.85 415.014 128.323L413.28 129.366C412.788 129.026 412.273 128.721 411.722 128.464L411.758 126.449C410.973 126.144 410.153 125.922 409.309 125.793L408.325 127.562C408.033 127.538 407.728 127.515 407.424 127.515C407.119 127.515 406.814 127.527 406.522 127.562L405.538 125.793C404.683 125.922 403.863 126.144 403.089 126.449L403.125 128.464C402.574 128.721 402.059 129.026 401.567 129.366L399.833 128.323C399.177 128.862 398.568 129.459 398.041 130.115L399.083 131.849C398.744 132.341 398.439 132.856 398.181 133.407L396.167 133.372C395.862 134.156 395.64 134.976 395.511 135.82L397.28 136.804C397.256 137.097 397.233 137.401 397.233 137.706C397.233 138.01 397.244 138.315 397.28 138.608L395.511 139.592C395.64 140.447 395.862 141.267 396.167 142.04L398.181 142.005C398.439 142.555 398.744 143.071 399.083 143.563L398.041 145.296C398.58 145.952 399.177 146.561 399.833 147.088L401.567 146.046C402.059 146.386 402.574 146.69 403.125 146.948L403.089 148.963C403.874 149.267 404.694 149.49 405.538 149.618L406.522 147.85C406.814 147.873 407.119 147.897 407.424 147.897C407.728 147.897 408.033 147.885 408.325 147.85L409.309 149.618C410.164 149.49 410.984 149.267 411.758 148.963L411.722 146.948C412.273 146.69 412.788 146.386 413.28 146.046L415.014 147.088C415.67 146.55 416.279 145.952 416.806 145.296L415.764 143.563C416.103 143.071 416.408 142.555 416.666 142.005L418.68 142.04C418.985 141.255 419.207 140.435 419.336 139.592L417.568 138.608C417.591 138.303 417.614 138.01 417.614 137.706ZM407.4 144.628C403.57 144.628 400.466 141.524 400.466 137.694C400.466 133.864 403.57 130.76 407.4 130.76C411.23 130.76 414.335 133.864 414.335 137.694C414.335 141.536 411.23 144.628 407.4 144.628Z" fill="white"/>
<path d="M390.919 172.529C390.919 172.072 390.896 171.627 390.861 171.182L393.508 169.718C393.309 168.441 392.969 167.223 392.524 166.052L389.502 166.099C389.115 165.279 388.67 164.494 388.155 163.768L389.713 161.179C388.916 160.195 388.014 159.293 387.03 158.496L384.442 160.054C383.704 159.539 382.93 159.082 382.11 158.707L382.157 155.685C380.986 155.24 379.756 154.9 378.491 154.701L377.027 157.348C376.582 157.313 376.137 157.29 375.68 157.29C375.223 157.29 374.778 157.313 374.333 157.348L372.868 154.701C371.592 154.9 370.373 155.24 369.202 155.685L369.249 158.707C368.429 159.094 367.644 159.539 366.918 160.054L364.329 158.496C363.345 159.293 362.443 160.195 361.647 161.179L363.205 163.768C362.689 164.505 362.232 165.279 361.858 166.099L358.836 166.052C358.39 167.223 358.051 168.441 357.852 169.718L360.499 171.182C360.464 171.627 360.44 172.072 360.44 172.529C360.44 172.986 360.464 173.431 360.499 173.876L357.852 175.341C358.051 176.617 358.39 177.836 358.836 179.007L361.858 178.96C362.244 179.78 362.689 180.565 363.205 181.291L361.647 183.88C362.443 184.864 363.345 185.766 364.329 186.562L366.918 185.004C367.656 185.52 368.429 185.977 369.249 186.351L369.202 189.373C370.373 189.819 371.592 190.158 372.868 190.357L374.333 187.71C374.778 187.745 375.223 187.769 375.68 187.769C376.137 187.769 376.582 187.745 377.027 187.71L378.491 190.357C379.768 190.158 380.986 189.819 382.157 189.373L382.11 186.351C382.93 185.965 383.715 185.52 384.442 185.004L387.03 186.562C388.014 185.766 388.916 184.864 389.713 183.88L388.155 181.291C388.67 180.553 389.127 179.78 389.502 178.96L392.524 179.007C392.969 177.836 393.309 176.617 393.508 175.341L390.861 173.876C390.896 173.431 390.919 172.986 390.919 172.529ZM375.656 178.55C372.33 178.55 369.635 175.856 369.635 172.529C369.635 169.203 372.33 166.508 375.656 166.508C378.983 166.508 381.677 169.203 381.677 172.529C381.677 175.856 378.983 178.55 375.656 178.55Z" fill="#407BFF"/>
<path opacity="0.7" d="M390.919 172.529C390.919 172.072 390.896 171.627 390.861 171.182L393.508 169.718C393.309 168.441 392.969 167.223 392.524 166.052L389.502 166.099C389.115 165.279 388.67 164.494 388.155 163.768L389.713 161.179C388.916 160.195 388.014 159.293 387.03 158.496L384.442 160.054C383.704 159.539 382.93 159.082 382.11 158.707L382.157 155.685C380.986 155.24 379.756 154.9 378.491 154.701L377.027 157.348C376.582 157.313 376.137 157.29 375.68 157.29C375.223 157.29 374.778 157.313 374.333 157.348L372.868 154.701C371.592 154.9 370.373 155.24 369.202 155.685L369.249 158.707C368.429 159.094 367.644 159.539 366.918 160.054L364.329 158.496C363.345 159.293 362.443 160.195 361.647 161.179L363.205 163.768C362.689 164.505 362.232 165.279 361.858 166.099L358.836 166.052C358.39 167.223 358.051 168.441 357.852 169.718L360.499 171.182C360.464 171.627 360.44 172.072 360.44 172.529C360.44 172.986 360.464 173.431 360.499 173.876L357.852 175.341C358.051 176.617 358.39 177.836 358.836 179.007L361.858 178.96C362.244 179.78 362.689 180.565 363.205 181.291L361.647 183.88C362.443 184.864 363.345 185.766 364.329 186.562L366.918 185.004C367.656 185.52 368.429 185.977 369.249 186.351L369.202 189.373C370.373 189.819 371.592 190.158 372.868 190.357L374.333 187.71C374.778 187.745 375.223 187.769 375.68 187.769C376.137 187.769 376.582 187.745 377.027 187.71L378.491 190.357C379.768 190.158 380.986 189.819 382.157 189.373L382.11 186.351C382.93 185.965 383.715 185.52 384.442 185.004L387.03 186.562C388.014 185.766 388.916 184.864 389.713 183.88L388.155 181.291C388.67 180.553 389.127 179.78 389.502 178.96L392.524 179.007C392.969 177.836 393.309 176.617 393.508 175.341L390.861 173.876C390.896 173.431 390.919 172.986 390.919 172.529ZM375.656 178.55C372.33 178.55 369.635 175.856 369.635 172.529C369.635 169.203 372.33 166.508 375.656 166.508C378.983 166.508 381.677 169.203 381.677 172.529C381.677 175.856 378.983 178.55 375.656 178.55Z" fill="white"/>
<path d="M347.86 104.614V110.752L342.015 113.833C341.007 114.372 341.007 115.812 342.015 116.351L347.86 119.432V125.57C347.86 126.94 348.973 128.053 350.343 128.053H371.299C372.669 128.053 373.782 126.94 373.782 125.57V104.614C373.782 103.244 372.669 102.131 371.299 102.131H350.343C348.961 102.131 347.86 103.244 347.86 104.614Z" fill="#407BFF"/>
<g opacity="0.9">
<path d="M355.064 110.999C355.544 110.999 366.485 110.999 366.965 110.999C367.773 110.999 368.429 110.343 368.429 109.535C368.429 108.726 367.773 108.07 366.965 108.07C366.367 108.07 355.649 108.07 355.064 108.07C354.256 108.07 353.6 108.726 353.6 109.535C353.611 110.354 354.256 110.999 355.064 110.999Z" fill="white"/>
<path d="M366.976 113.623C366.437 113.623 355.614 113.623 355.075 113.623C354.267 113.623 353.611 114.279 353.611 115.087C353.611 115.895 354.267 116.551 355.075 116.551C355.614 116.551 366.437 116.551 366.976 116.551C367.784 116.551 368.44 115.895 368.44 115.087C368.44 114.279 367.784 113.623 366.976 113.623Z" fill="white"/>
<path d="M366.976 119.176C366.355 119.176 355.696 119.176 355.075 119.176C354.267 119.176 353.611 119.832 353.611 120.64C353.611 121.448 354.267 122.104 355.075 122.104C355.52 122.104 366.531 122.104 366.976 122.104C367.784 122.104 368.44 121.448 368.44 120.64C368.44 119.832 367.784 119.176 366.976 119.176Z" fill="white"/>
</g>
<path d="M229.47 94.975H234.471L237.048 99.8596C237.798 101.277 239.824 101.277 240.562 99.8596L243.139 94.975H248.141C250.132 94.975 251.749 93.3585 251.749 91.3672V72.684C251.749 70.6926 250.132 69.0762 248.141 69.0762H229.47C227.478 69.0762 225.862 70.6926 225.862 72.684V91.3672C225.862 93.3585 227.467 94.975 229.47 94.975Z" fill="#407BFF"/>
<path opacity="0.9" d="M238.817 74.6523L233.054 78.0376V87.9005H237.341V81.2705H240.305V87.9005H244.592V78.0376L238.817 74.6523Z" fill="white"/>
<path d="M474.742 245.141C474.742 245.141 465.195 268.803 455.848 271.368C446.5 273.933 432.409 271.848 432.409 271.848L428.051 273.043L423.776 272.41C423.729 272.399 423.682 272.399 423.623 272.399L418.797 272.293C417.977 272.27 417.521 271.473 417.977 270.841L419.711 268.451C419.852 268.264 420.051 268.123 420.285 268.041L424.877 266.565C425.052 266.507 425.252 266.495 425.439 266.519L432.456 267.631C432.456 267.631 451.959 264.434 453.95 262.63C455.93 260.826 461.81 241.908 461.81 241.908L474.742 245.141Z" fill="#EEC1BB"/>
<path opacity="0.1" d="M432.9 267.538C432.608 267.585 432.455 267.608 432.455 267.608L425.439 266.496C425.251 266.472 425.064 266.484 424.877 266.543L420.285 268.018C420.051 268.089 419.851 268.241 419.711 268.428L417.977 270.818C417.52 271.451 417.977 272.247 418.797 272.271L423.623 272.376C423.67 272.376 423.717 272.376 423.775 272.388L426.645 272.809C428.777 271.896 430.897 269.963 432.9 267.538Z" fill="black"/>
<path d="M480.505 221.702C473.57 219.43 463.813 224.642 460.076 246.476L474.472 250.682C474.472 250.682 490.414 224.959 480.505 221.702Z" fill="#407BFF"/>
<path d="M440.163 193.17C440.174 193.884 440.549 194.47 441.018 194.458C441.486 194.458 441.896 193.837 441.861 193.146C441.838 192.455 441.475 191.846 441.006 191.858C440.537 191.869 440.163 192.455 440.163 193.17Z" fill="#263238"/>
<path d="M442.998 193.885L439.589 199.519C439.589 199.519 440.772 200.854 443.326 199.87L442.998 193.885Z" fill="#D4827D"/>
<path d="M443.642 188.672C443.56 188.766 443.431 188.813 443.302 188.801C442.365 188.637 441.416 188.942 440.737 189.598C440.596 189.75 440.362 189.773 440.21 189.633C440.057 189.492 440.046 189.258 440.175 189.106C441.018 188.239 442.224 187.852 443.407 188.051C443.618 188.075 443.759 188.274 443.724 188.473C443.724 188.555 443.689 188.625 443.642 188.672Z" fill="#263238"/>
<path d="M467.725 188.062C468.263 197.585 468.685 201.615 464.492 207.026C457.78 212.825 446.335 213.75 442.974 204.578C439.94 196.32 439.577 182.17 448.397 177.262C454.676 173.771 462.606 176.032 466.108 182.311C467.069 184.068 467.631 186.047 467.725 188.062Z" fill="#EEC1BB"/>
<path d="M454.453 208.901L456.866 223.004L468.627 220.287L464.515 205.891L454.453 208.901Z" fill="#EEC1BB"/>
<path d="M445.984 188.765C446.582 182.58 444.462 189.725 441.592 181.561C438.722 173.396 452.24 166.767 454.407 168.289C456.562 169.812 455.332 172.155 462.477 173.467C469.623 174.779 469.318 181.725 469.318 181.725C469.318 181.725 473.43 183.634 471.965 192.466C470.501 201.298 464.925 207.975 464.925 207.975C464.925 207.975 462.22 205.187 457.944 207.764C457.944 207.764 455.836 206.581 453.762 203.489C451.83 200.607 451.244 197.878 448.597 197.632C443.056 197.128 445.785 190.791 445.984 188.765Z" fill="#263238"/>
<path d="M468.533 182.802C468.533 182.802 474.367 179.218 471.79 175.457C469.213 171.697 470.454 179.581 468.533 182.802Z" fill="#263238"/>
<path d="M447.659 192.36C446.359 193.812 445.692 195.722 445.797 197.666C445.961 200.243 448.491 200.7 450.482 199.294C452.286 198.017 454.36 195.148 453.212 192.887C452.064 190.614 449.276 190.603 447.659 192.36Z" fill="#FFC3BD"/>
<path opacity="0.1" d="M454.676 210.235L455.636 215.835C455.578 210.716 458.284 208.186 458.284 208.186C455.531 208.584 454.676 210.235 454.676 210.235Z" fill="black"/>
<path d="M371.99 246.643H368.628V266.474H371.99V246.643Z" fill="#407BFF"/>
<path opacity="0.7" d="M371.99 246.643H368.628V266.474H371.99V246.643Z" fill="white"/>
<path d="M348.89 207.26H340.515C337.376 207.26 334.834 209.802 334.834 212.941V251.736C334.834 254.876 337.376 257.417 340.515 257.417H348.89V207.26Z" fill="#407BFF"/>
<path d="M400.102 257.417H343.443C340.304 257.417 337.762 254.876 337.762 251.736V212.941C337.762 209.802 340.304 207.26 343.443 207.26H400.102C403.241 207.26 405.783 209.802 405.783 212.941V251.736C405.783 254.876 403.241 257.417 400.102 257.417Z" fill="#407BFF"/>
<path opacity="0.5" d="M400.102 257.417H343.443C340.304 257.417 337.762 254.876 337.762 251.736V212.941C337.762 209.802 340.304 207.26 343.443 207.26H400.102C403.241 207.26 405.783 209.802 405.783 212.941V251.736C405.783 254.876 403.241 257.417 400.102 257.417Z" fill="white"/>
<path d="M343.443 209.602C341.604 209.602 340.105 211.101 340.105 212.94V251.735C340.105 253.575 341.604 255.074 343.443 255.074H400.102C401.941 255.074 403.441 253.575 403.441 251.735V212.94C403.441 211.101 401.941 209.602 400.102 209.602H343.443Z" fill="#263238"/>
<path d="M358.074 274.79C358.074 268.031 363.556 262.561 370.303 262.561C377.062 262.561 382.532 268.043 382.532 274.79H358.074Z" fill="#407BFF"/>
<path d="M386.948 270.607H362.49V274.59H411.418V272.95L386.948 270.607Z" fill="#407BFF"/>
<path opacity="0.8" d="M386.948 270.607H362.49V274.59H411.418V272.95L386.948 270.607Z" fill="white"/>
<path d="M386.948 274.59H362.49V270.607L386.948 272.95V274.59Z" fill="#407BFF"/>
<path opacity="0.6" d="M386.948 274.59H362.49V270.607L386.948 272.95V274.59Z" fill="white"/>
<path d="M440.901 411.302H390.415C386.175 411.302 382.743 407.87 382.743 403.629V287.583C382.743 283.342 386.175 279.91 390.415 279.91H440.901C442.037 279.91 442.951 280.824 442.951 281.96C442.951 283.096 442.037 284.01 440.901 284.01H390.415C388.447 284.01 386.842 285.603 386.842 287.583V403.629C386.842 405.597 388.435 407.202 390.415 407.202H440.901C442.037 407.202 442.951 408.116 442.951 409.252C442.951 410.388 442.037 411.302 440.901 411.302Z" fill="#263238"/>
<g opacity="0.5">
<path d="M440.901 411.302H390.415C386.175 411.302 382.743 407.87 382.743 403.629V287.583C382.743 283.342 386.175 279.91 390.415 279.91H440.901C442.037 279.91 442.951 280.824 442.951 281.96C442.951 283.096 442.037 284.01 440.901 284.01H390.415C388.447 284.01 386.842 285.603 386.842 287.583V403.629C386.842 405.597 388.435 407.202 390.415 407.202H440.901C442.037 407.202 442.951 408.116 442.951 409.252C442.951 410.388 442.037 411.302 440.901 411.302Z" fill="white"/>
</g>
<path d="M390.228 274.59H318.553V280.599H390.228V274.59Z" fill="#407BFF"/>
<path opacity="0.2" d="M390.228 274.59H318.553V280.599H390.228V274.59Z" fill="white"/>
<path d="M448.082 274.59H386.949V280.599H448.082V274.59Z" fill="#407BFF"/>
<path opacity="0.5" d="M448.082 274.59H386.949V280.599H448.082V274.59Z" fill="white"/>
<path d="M426.646 368.721L430.031 402.936H421.925L413.808 369.611L426.646 368.721Z" fill="#EEC1BB"/>
<path d="M421.165 400.709L431.508 400.884C431.894 400.896 432.234 401.166 432.304 401.552L434.026 409.998C434.19 410.747 433.71 411.485 432.96 411.638C432.867 411.661 432.761 411.673 432.667 411.673C428.942 411.544 425.627 411.286 420.989 411.216C415.507 411.122 416.889 411.802 410.447 411.79C406.569 411.778 405.925 407.35 407.577 407.163C415.12 406.343 415.94 404.082 418.892 401.435C419.548 400.908 420.345 400.662 421.165 400.709Z" fill="#263238"/>
<path opacity="0.1" d="M429.153 394.01L426.646 368.721L413.808 369.611L419.747 394.01H429.153Z" fill="black"/>
<path d="M482.145 289.807L448.89 291.001C448.89 291.001 404.156 306.639 402.891 318.716C401.602 331.109 416.643 388.037 416.643 388.037H430.008C430.008 388.037 426.318 346.255 424.912 333.463C423.495 320.672 471.521 324.912 479.861 313.995C487.545 303.945 482.145 289.807 482.145 289.807Z" fill="#263238"/>
<path opacity="0.2" d="M482.145 289.807L448.89 291.001C448.89 291.001 404.156 306.639 402.891 318.716C401.602 331.109 416.643 388.037 416.643 388.037H430.008C430.008 388.037 426.318 346.255 424.912 333.463C423.495 320.672 471.521 324.912 479.861 313.995C487.545 303.945 482.145 289.807 482.145 289.807Z" fill="black"/>
<path d="M432.292 386.129L432.585 390.849H416.069L414.452 386.129H432.292Z" fill="#407BFF"/>
<path d="M395.71 370.35L396.6 402.937H388.635L383.915 370.35H395.71Z" fill="#EEC1BB"/>
<path d="M387.534 400.713L397.877 400.888C398.263 400.9 398.603 401.169 398.673 401.556L400.395 410.002C400.559 410.751 400.079 411.489 399.329 411.641C399.236 411.665 399.13 411.677 399.037 411.677C395.312 411.548 391.997 411.29 387.358 411.22C381.876 411.126 383.258 411.805 376.816 411.794C372.939 411.782 372.294 407.354 373.946 407.167C381.49 406.347 382.309 404.086 385.261 401.439C385.906 400.912 386.714 400.666 387.534 400.713Z" fill="#263238"/>
<path opacity="0.1" d="M396.354 393.988L395.71 370.35H383.915L387.347 394.011C389.912 394.011 393.438 393.999 396.354 393.988Z" fill="black"/>
<path d="M467.69 292.559C467.69 292.559 470.455 317.826 444.731 319.009C419.008 320.192 398.955 323.144 398.369 332.28C397.783 341.429 398.369 388.037 398.369 388.037H384.395C384.395 388.037 378.959 358.577 376.839 340.292C374.778 322.546 371.018 309.673 389.232 303.664C408.595 297.268 443.009 291.365 443.009 291.365L467.795 289.795L467.69 292.559Z" fill="#263238"/>
<path d="M400.431 386.129L399.552 390.849H384.207L382.591 386.129H400.431Z" fill="#407BFF"/>
<path d="M473.277 220.041C473.277 220.041 473.277 214.336 461.763 214.992C449.545 215.695 451.841 221.153 451.841 221.153L473.277 220.041Z" fill="#407BFF"/>
<path opacity="0.3" d="M473.277 220.041C473.277 220.041 473.277 214.336 461.763 214.992C449.545 215.695 451.841 221.153 451.841 221.153L473.277 220.041Z" fill="black"/>
<path d="M483.96 245.578C483.187 256.834 483.456 290.698 483.456 290.698C483.456 290.698 458.893 292.315 439.554 291.682L437.316 226.543C437.316 224.224 438.757 222.115 440.995 221.237C446.453 219.116 459.268 216.715 479.31 219.339C486.221 220.253 484.874 232.271 483.96 245.578Z" fill="#407BFF"/>
<path d="M441.264 245.141C441.264 245.141 431.717 268.803 422.37 271.368C413.022 273.933 398.931 271.848 398.931 271.848L394.573 273.043L390.298 272.41C390.251 272.399 390.204 272.399 390.145 272.399L385.319 272.293C384.499 272.27 384.043 271.473 384.499 270.841L386.233 268.451C386.374 268.264 386.573 268.123 386.807 268.041L391.399 266.565C391.574 266.507 391.774 266.495 391.961 266.519L398.977 267.631C398.977 267.631 418.481 264.434 420.472 262.63C422.452 260.826 428.332 241.908 428.332 241.908L441.264 245.141Z" fill="#EEC1BB"/>
<path opacity="0.1" d="M441.018 234.13C441.018 234.13 439.542 235.887 437.727 238.452L438.371 257.311C445.551 254.149 448.398 235.653 448.398 235.653L443.736 232.35L441.018 234.13Z" fill="black"/>
<path d="M447.027 221.702C440.093 219.43 430.335 224.642 426.599 246.476L440.995 250.682C440.995 250.682 456.937 224.959 447.027 221.702Z" fill="#407BFF"/>
<path d="M456.199 331.281H445.364V363.037H456.199V331.281Z" fill="#263238"/>
<path opacity="0.6" d="M456.199 331.281H445.364V363.037H456.199V331.281Z" fill="white"/>
<path d="M457.873 391.807V351.453H443.677V391.807L411.359 396.293V400.779L450.775 397.417L490.191 400.779V396.293L457.873 391.807Z" fill="#263238"/>
<path d="M410.89 411.778C413.251 411.778 415.166 409.863 415.166 407.502C415.166 405.141 413.251 403.227 410.89 403.227C408.529 403.227 406.615 405.141 406.615 407.502C406.615 409.863 408.529 411.778 410.89 411.778Z" fill="#407BFF"/>
<path d="M490.192 411.778C492.553 411.778 494.467 409.863 494.467 407.502C494.467 405.141 492.553 403.227 490.192 403.227C487.83 403.227 485.916 405.141 485.916 407.502C485.916 409.863 487.83 411.778 490.192 411.778Z" fill="#407BFF"/>
<path d="M450.775 411.778C453.136 411.778 455.05 409.863 455.05 407.502C455.05 405.141 453.136 403.227 450.775 403.227C448.414 403.227 446.5 405.141 446.5 407.502C446.5 409.863 448.414 411.778 450.775 411.778Z" fill="#407BFF"/>
<path opacity="0.3" d="M456.199 331.281H445.364V339.129H456.199V331.281Z" fill="black"/>
<path d="M493.612 259.301H458.308C452.556 259.301 447.754 263.682 447.215 269.398L444.239 301.306C443.56 308.568 437.645 314.238 430.359 314.613L396.284 316.334C392.137 316.545 388.893 319.966 388.893 324.112V324.827C388.893 328.388 391.786 331.281 395.347 331.281H441.44H450.776H499.118L504.705 271.483C505.314 264.947 500.172 259.301 493.612 259.301Z" fill="#407BFF"/>
<path opacity="0.3" d="M493.612 259.301H458.308C452.556 259.301 447.754 263.682 447.215 269.398L444.239 301.306C443.56 308.568 437.645 314.238 430.359 314.613L396.284 316.334C392.137 316.545 388.893 319.966 388.893 324.112V324.827C388.893 328.388 391.786 331.281 395.347 331.281H441.44H450.776H499.118L504.705 271.483C505.314 264.947 500.172 259.301 493.612 259.301Z" fill="white"/>
<path d="M415.084 323.058H414.909C413.62 323.058 412.566 322.016 412.566 320.715V295.285H417.427V320.715C417.427 322.016 416.385 323.058 415.084 323.058Z" fill="#263238"/>
<path opacity="0.2" d="M415.084 323.058H414.909C413.62 323.058 412.566 322.016 412.566 320.715V295.285H417.427V320.715C417.427 322.016 416.385 323.058 415.084 323.058Z" fill="white"/>
<path d="M436.016 287.939H425.181V296.912H436.016C438.488 296.912 440.503 294.909 440.503 292.426C440.503 289.942 438.5 287.939 436.016 287.939Z" fill="#407BFF"/>
<path opacity="0.5" d="M436.016 287.939H425.181V296.912H436.016C438.488 296.912 440.503 294.909 440.503 292.426C440.503 289.942 438.5 287.939 436.016 287.939Z" fill="white"/>
<path d="M431.694 296.9H393.812C391.422 296.9 389.49 294.968 389.49 292.578V292.25C389.49 289.86 391.422 287.928 393.812 287.928H431.694C434.084 287.928 436.016 289.86 436.016 292.25V292.578C436.016 294.968 434.084 296.9 431.694 296.9Z" fill="#407BFF"/>
<path opacity="0.3" d="M431.694 296.9H393.812C391.422 296.9 389.49 294.968 389.49 292.578V292.25C389.49 289.86 391.422 287.928 393.812 287.928H431.694C434.084 287.928 436.016 289.86 436.016 292.25V292.578C436.016 294.968 434.084 296.9 431.694 296.9Z" fill="white"/>
<path d="M501.554 331.281H449.651L455.438 269.41C455.977 263.682 460.779 259.312 466.531 259.312H501.836C508.395 259.312 513.537 264.958 512.928 271.483L507.88 325.53C507.564 328.786 504.834 331.281 501.554 331.281Z" fill="#407BFF"/>
<path opacity="0.5" d="M501.554 331.281H449.651L455.438 269.41C455.977 263.682 460.779 259.312 466.531 259.312H501.836C508.395 259.312 513.537 264.958 512.928 271.483L507.88 325.53C507.564 328.786 504.834 331.281 501.554 331.281Z" fill="white"/>
<path d="M380.307 411.302H329.821C325.581 411.302 322.148 407.87 322.148 403.629V287.583C322.148 283.342 325.581 279.91 329.821 279.91H380.307C381.443 279.91 382.356 280.824 382.356 281.96C382.356 283.096 381.443 284.01 380.307 284.01H329.821C327.853 284.01 326.248 285.603 326.248 287.583V403.629C326.248 405.597 327.841 407.202 329.821 407.202H380.307C381.443 407.202 382.356 408.116 382.356 409.252C382.356 410.388 381.443 411.302 380.307 411.302Z" fill="#263238"/>
<g opacity="0.5">
<path d="M380.307 411.302H329.821C325.581 411.302 322.148 407.87 322.148 403.629V287.583C322.148 283.342 325.581 279.91 329.821 279.91H380.307C381.443 279.91 382.356 280.824 382.356 281.96C382.356 283.096 381.443 284.01 380.307 284.01H329.821C327.853 284.01 326.248 285.603 326.248 287.583V403.629C326.248 405.597 327.841 407.202 329.821 407.202H380.307C381.443 407.202 382.356 408.116 382.356 409.252C382.356 410.388 381.443 411.302 380.307 411.302Z" fill="white"/>
</g>
<path d="M346.946 218.846L343.396 216.491C343.022 216.234 343.022 215.683 343.396 215.425L346.946 213.071C347.215 212.895 347.566 212.966 347.742 213.235C347.918 213.504 347.848 213.856 347.578 214.032L344.673 215.964L347.578 217.897C347.848 218.073 347.918 218.436 347.742 218.694C347.578 218.951 347.215 219.022 346.946 218.846Z" fill="white"/>
<path d="M354.723 218.694C354.548 218.424 354.618 218.073 354.887 217.897L357.792 215.964L354.887 214.032C354.618 213.856 354.548 213.493 354.723 213.235C354.899 212.966 355.262 212.895 355.52 213.071L359.069 215.425C359.456 215.683 359.456 216.234 359.069 216.491L355.52 218.846C355.25 219.022 354.899 218.951 354.723 218.694Z" fill="white"/>
<path d="M349.909 220.228C349.605 220.134 349.441 219.806 349.535 219.501L351.959 211.841C352.053 211.536 352.381 211.372 352.686 211.466C352.99 211.559 353.154 211.887 353.06 212.192L350.636 219.853C350.542 220.146 350.214 220.321 349.909 220.228Z" fill="white"/>
<path d="M369.8 226.13H343.714C343.374 226.13 343.105 225.861 343.105 225.521C343.105 225.182 343.374 224.912 343.714 224.912H369.8C370.14 224.912 370.409 225.182 370.409 225.521C370.409 225.861 370.14 226.13 369.8 226.13Z" fill="white"/>
<path d="M399.763 226.13H373.677C373.337 226.13 373.068 225.861 373.068 225.521C373.068 225.182 373.337 224.912 373.677 224.912H399.763C400.103 224.912 400.372 225.182 400.372 225.521C400.372 225.861 400.103 226.13 399.763 226.13Z" fill="white"/>
<path d="M358.625 231.496H343.725C343.385 231.496 343.116 231.226 343.116 230.886C343.116 230.547 343.385 230.277 343.725 230.277H358.625C358.964 230.277 359.234 230.547 359.234 230.886C359.234 231.226 358.953 231.496 358.625 231.496Z" fill="white"/>
<path d="M386.925 231.496H362.514C362.174 231.496 361.905 231.226 361.905 230.886C361.905 230.547 362.174 230.277 362.514 230.277H386.925C387.265 230.277 387.534 230.547 387.534 230.886C387.522 231.226 387.253 231.496 386.925 231.496Z" fill="white"/>
<path d="M383.446 236.861H343.714C343.374 236.861 343.104 236.591 343.104 236.252C343.104 235.912 343.374 235.643 343.714 235.643H383.446C383.786 235.643 384.055 235.912 384.055 236.252C384.055 236.591 383.786 236.861 383.446 236.861Z" fill="white"/>
<path d="M395.628 236.861H387.335C386.996 236.861 386.726 236.591 386.726 236.252C386.726 235.912 386.996 235.643 387.335 235.643H395.628C395.968 235.643 396.238 235.912 396.238 236.252C396.238 236.591 395.968 236.861 395.628 236.861Z" fill="white"/>
<path d="M362.268 242.238H343.714C343.374 242.238 343.104 241.968 343.104 241.629C343.104 241.289 343.374 241.02 343.714 241.02H362.268C362.608 241.02 362.877 241.289 362.877 241.629C362.877 241.968 362.608 242.238 362.268 242.238Z" fill="white"/>
<path d="M389.244 242.238H366.145C365.806 242.238 365.536 241.968 365.536 241.629C365.536 241.289 365.806 241.02 366.145 241.02H389.244C389.584 241.02 389.854 241.289 389.854 241.629C389.854 241.968 389.584 242.238 389.244 242.238Z" fill="white"/>
<path d="M369.8 247.603H343.714C343.374 247.603 343.104 247.334 343.104 246.994C343.104 246.654 343.374 246.385 343.714 246.385H369.8C370.14 246.385 370.409 246.654 370.409 246.994C370.409 247.334 370.14 247.603 369.8 247.603Z" fill="white"/>
<path d="M392.091 247.603H373.689C373.349 247.603 373.08 247.334 373.08 246.994C373.08 246.654 373.349 246.385 373.689 246.385H392.091C392.431 246.385 392.7 246.654 392.7 246.994C392.688 247.334 392.419 247.603 392.091 247.603Z" fill="white"/>
<path d="M165.713 142.752C166.181 148.269 164.998 158.261 160.828 161.459C167.622 163.907 174.802 168.124 179.406 173.688C183.963 167.058 178.773 163.274 178.773 163.274C172.905 161.189 173.549 156.75 175.048 152.662L165.713 142.752Z" fill="#B97964"/>
<path d="M187.886 137.997C187.816 138.688 188.144 139.285 188.601 139.332C189.058 139.379 189.48 138.84 189.538 138.149C189.608 137.458 189.28 136.849 188.824 136.813C188.378 136.767 187.968 137.294 187.886 137.997Z" fill="#263238"/>
<path d="M188.648 136.824L190.358 136.496C190.346 136.496 189.374 137.761 188.648 136.824Z" fill="#263238"/>
<path d="M188.121 138.734C188.601 140.374 189.292 141.944 190.194 143.408C189.433 143.853 188.507 143.947 187.676 143.642L188.121 138.734Z" fill="#A24E3F"/>
<path d="M189.854 134.343C189.96 134.331 190.065 134.284 190.135 134.202C190.276 134.027 190.264 133.769 190.089 133.617C189.116 132.726 187.769 132.363 186.469 132.656C186.27 132.773 186.211 133.031 186.328 133.218C186.399 133.347 186.539 133.418 186.68 133.418C187.711 133.218 188.765 133.511 189.538 134.226C189.632 134.308 189.737 134.355 189.854 134.343Z" fill="#263238"/>
<path d="M165.127 133.595C164.858 142.169 164.565 145.812 168.383 150.579C174.135 157.76 184.548 156.19 187.324 147.85C189.831 140.342 189.855 127.562 181.983 123.404C174.1 119.257 165.408 125.009 165.127 133.595Z" fill="#B97964"/>
<path d="M165.537 149.769C157.115 148.329 159.528 143.022 159.528 143.022C151.234 141.347 157.642 137.294 157.642 137.294C150.742 134.319 157.642 131.66 157.642 131.66C150.988 126.143 160.523 124.269 160.523 124.269C158.169 115.659 166.345 119.197 166.345 119.197C170.808 111.806 174.638 118.869 174.638 118.869C182.44 108.268 184.349 117.217 184.349 117.217C192.314 115.121 189.257 123.507 189.257 123.507C195.817 125.265 190.674 128.591 190.674 128.591C193.204 131.789 184.056 132.34 184.056 132.34C184.056 132.34 188.413 139.321 184.021 141.3L172.94 149.793C172.928 149.769 167.833 147.649 165.537 149.769Z" fill="#263238"/>
<path d="M173.818 142.859C173.818 142.859 179.617 128.838 175.095 116.808L178.961 115.484C178.961 115.473 184.009 132.926 173.818 142.859Z" fill="#407BFF"/>
<path d="M179.664 141.312C180.636 143.326 180.999 144.193 182.381 144.873C183.599 145.552 185.134 145.119 185.813 143.912C186.13 143.362 186.212 142.706 186.071 142.085C185.708 140.07 184.15 137.107 182.018 137.036C179.863 136.978 178.656 139.32 179.664 141.312Z" fill="#B97964"/>
<path d="M173.608 170.573C173.608 170.573 181.538 176.395 184.759 178.738L207.706 167.914C207.648 165.314 209.182 162.936 211.583 161.917L213.212 161.226L216.667 159.691C217.979 159.106 219.502 159.27 220.661 160.113C222.032 161.109 222.629 162.866 222.149 164.494C221.165 167.844 218.494 170.433 215.121 171.311L211.783 172.19C211.783 172.19 192.104 187.125 185.099 187.511C178.094 187.898 167.774 180.963 167.774 180.963L173.608 170.573Z" fill="#B97964"/>
<path d="M154.538 160.697C160.594 160.674 167.364 164.469 178.024 171.38C178.024 171.38 176.009 178.959 169.813 184.359C169.813 184.359 163.967 182.789 156.19 175.457C146.76 166.601 150.825 160.709 154.538 160.697Z" fill="#263238"/>
<path d="M269.565 178.243H212.18C210.095 178.243 208.561 176.556 208.736 174.471L213.059 125.051C213.246 122.966 215.073 121.279 217.158 121.279H274.543C276.629 121.279 278.163 122.966 277.987 125.051L273.665 174.471C273.489 176.556 271.65 178.243 269.565 178.243Z" fill="#407BFF"/>
<path opacity="0.4" d="M269.565 178.243H212.18C210.095 178.243 208.561 176.556 208.736 174.471L213.059 125.051C213.246 122.966 215.073 121.279 217.158 121.279H274.543C276.629 121.279 278.163 122.966 277.987 125.051L273.665 174.471C273.489 176.556 271.65 178.243 269.565 178.243Z" fill="white"/>
<path opacity="0.7" d="M269.776 175.901C270.561 175.901 271.264 175.257 271.334 174.472L275.656 125.052C275.726 124.267 275.141 123.623 274.356 123.623H216.971C216.186 123.623 215.483 124.267 215.413 125.052L211.091 174.472C211.02 175.257 211.606 175.901 212.391 175.901H269.776Z" fill="white"/>
<path d="M229.891 146.84L211.126 173.98L211.079 174.472C211.009 175.257 211.595 175.901 212.379 175.901H244.896L229.891 146.84Z" fill="#407BFF"/>
<path opacity="0.3" d="M229.891 146.84L211.126 173.98L211.079 174.472C211.009 175.257 211.595 175.901 212.379 175.901H244.896L229.891 146.84Z" fill="white"/>
<path d="M271.486 172.575L255.778 142.74L232.515 175.901H269.776C270.561 175.901 271.264 175.257 271.334 174.472L271.486 172.575Z" fill="#407BFF"/>
<path d="M249.711 137.468C249.453 140.385 246.888 142.74 243.971 142.74C241.054 142.74 238.899 140.373 239.157 137.468C239.414 134.552 241.98 132.197 244.896 132.197C247.813 132.197 249.968 134.563 249.711 137.468Z" fill="#407BFF"/>
<path opacity="0.4" d="M249.711 137.468C249.453 140.385 246.888 142.74 243.971 142.74C241.054 142.74 238.899 140.373 239.157 137.468C239.414 134.552 241.98 132.197 244.896 132.197C247.813 132.197 249.968 134.563 249.711 137.468Z" fill="white"/>
<path d="M106.477 377.668L100.644 394.957L109.581 398.6L116.574 382.646L106.477 377.668Z" fill="#B97964"/>
<path d="M112.79 398.166C112.697 398.119 112.65 398.013 112.65 397.908C112.662 397.803 112.744 397.709 112.849 397.685C113.036 397.639 117.253 396.701 118.823 397.709C119.116 397.896 119.327 398.177 119.409 398.517C119.538 398.904 119.42 399.325 119.104 399.583C118.507 400.005 117.113 399.829 115.836 399.431C114.793 399.103 113.774 398.681 112.79 398.166ZM113.681 398.084C115.52 398.915 118.12 399.7 118.8 399.173C118.893 399.114 118.999 398.986 118.917 398.623C118.87 398.412 118.741 398.236 118.542 398.131C118.401 398.037 118.249 397.967 118.097 397.931C116.633 397.709 115.133 397.756 113.681 398.084Z" fill="#407BFF"/>
<path d="M112.662 398.12C112.603 398.05 112.592 397.956 112.615 397.863C112.674 397.734 113.798 395.051 115.438 394.372C115.918 394.173 116.445 394.173 116.926 394.372C117.582 394.641 117.675 395.051 117.617 395.333C117.476 396.562 114.314 398.027 112.92 398.191C112.884 398.202 112.849 398.191 112.814 398.167C112.767 398.179 112.709 398.156 112.662 398.12ZM116.633 394.794C116.328 394.7 115.989 394.712 115.696 394.841C114.653 395.485 113.833 396.445 113.353 397.57C114.864 397.207 117.019 395.965 117.172 395.251C117.172 395.18 117.195 394.993 116.773 394.829L116.633 394.794Z" fill="#407BFF"/>
<path d="M112.181 396.409L100.96 392.942C100.538 392.813 100.081 392.989 99.8587 393.376L95.0093 401.88C94.5759 402.629 94.8336 403.59 95.5832 404.023C95.6769 404.082 95.7824 404.129 95.8878 404.164C99.9524 405.347 103.619 406.237 108.656 407.795C114.606 409.634 112.873 409.88 119.83 412.141C124.024 413.5 126.273 408.943 124.563 408.158C116.703 404.609 116.621 401.88 114.372 397.979C113.856 397.206 113.083 396.644 112.181 396.409Z" fill="#263238"/>
<path opacity="0.2" d="M103.677 385.961L113.048 390.694L116.574 382.646L106.477 377.668L103.677 385.961Z" fill="#263238"/>
<path d="M146.093 217.756C146.093 217.756 133.5 227.373 136.194 257.5C136.44 260.288 137.342 263.205 137.354 266.391C137.366 268.511 136.768 269.999 136.077 274.754C135.07 281.701 133.219 307.552 131.263 310.914C129.33 314.241 128.51 313.69 123.017 322.956C117.101 332.936 109.546 350.436 103.666 380.107C103.666 380.107 108.785 384.101 116.82 385.612C116.82 385.612 148.997 334.869 155.838 315.975C161.964 299.072 169.25 245.131 169.25 245.131L169.836 221.739L146.093 217.756Z" fill="#407BFF"/>
<path opacity="0.1" d="M159.868 257.5H150.743C150.743 257.5 147.744 286.175 157.654 310.094C158.685 306.252 159.739 301.649 160.758 296.67L164.694 271.416C164.132 267.152 163.698 263.896 163.628 263.685C163.441 263.017 159.868 257.5 159.868 257.5Z" fill="black"/>
<path d="M158.368 384.627L158.427 403.006L168.794 402.303L170.387 384.627H158.368Z" fill="#B97964"/>
<path d="M169.988 401.997C169.883 401.974 169.801 401.903 169.777 401.798C169.754 401.693 169.801 401.587 169.895 401.529C170.059 401.423 173.737 399.151 175.541 399.584C175.88 399.654 176.173 399.865 176.361 400.146C176.618 400.463 176.642 400.908 176.419 401.259C175.997 401.845 174.627 402.149 173.292 402.196C172.19 402.22 171.078 402.161 169.988 401.997ZM170.808 401.622C172.823 401.798 175.529 401.681 176.009 400.966C176.079 400.873 176.138 400.72 175.939 400.416C175.833 400.228 175.634 400.111 175.423 400.076C175.259 400.041 175.095 400.018 174.931 400.029C173.467 400.299 172.062 400.838 170.808 401.622Z" fill="#407BFF"/>
<path d="M169.859 401.986C169.777 401.939 169.73 401.857 169.742 401.763C169.753 401.623 169.929 398.718 171.265 397.546C171.651 397.195 172.155 397.019 172.67 397.066C173.373 397.113 173.607 397.453 173.642 397.745C173.912 398.952 171.417 401.377 170.152 401.986C170.117 401.997 170.081 402.009 170.046 401.997C169.976 402.009 169.906 402.009 169.859 401.986ZM172.506 397.546C172.178 397.558 171.874 397.675 171.639 397.898C170.866 398.858 170.409 400.018 170.327 401.248C171.628 400.416 173.268 398.53 173.174 397.804C173.15 397.734 173.115 397.558 172.658 397.535L172.506 397.546Z" fill="#407BFF"/>
<path d="M168.84 400.532L157.103 400.954C156.658 400.966 156.283 401.294 156.201 401.727L154.421 411.356C154.257 412.211 154.819 413.031 155.662 413.195C155.768 413.218 155.885 413.23 155.99 413.218C160.219 412.996 163.979 412.633 169.25 412.445C175.47 412.223 173.912 413.031 181.233 412.867C185.637 412.773 186.27 407.736 184.396 407.549C175.81 406.776 174.826 404.234 171.417 401.282C170.679 400.732 169.765 400.462 168.84 400.532Z" fill="#263238"/>
<path opacity="0.2" d="M158.404 394.127L169.555 393.892L170.387 384.627H158.368L158.404 394.127Z" fill="#263238"/>
<path d="M153.109 214.381C153.109 214.381 140.54 231.026 149.852 263.613L160.359 311.147C160.359 311.147 150.356 332.77 155.639 389.816C155.639 389.816 163.581 391.093 171.159 389.464C171.159 389.464 182.861 329.221 184.642 308.863C186.598 286.455 185.426 218.867 185.426 218.867L153.109 214.381Z" fill="#407BFF"/>
<path d="M160.7 160.465C160.7 160.465 158.755 152.148 171.23 155.779C183.717 159.422 182.674 166.532 182.674 166.532L160.7 160.465Z" fill="#263238"/>
<path opacity="0.4" d="M160.7 160.465C160.7 160.465 158.755 152.148 171.23 155.779C183.717 159.422 182.674 166.532 182.674 166.532L160.7 160.465Z" fill="black"/>
<path d="M191.67 181.268C191.67 184.184 190.44 188.401 189.339 193.122C188.8 195.359 188.308 197.69 187.98 200.056C186.211 212.953 185.637 226.517 185.637 226.517C185.637 226.517 165.232 232.245 145.413 218.54C145.413 218.54 150.321 214.382 149.313 185.578C148.856 172.6 144.171 157.173 165.619 159.598C183.728 161.647 189.819 167.27 191.283 176.067C191.295 176.172 191.318 176.289 191.342 176.407C191.377 176.676 191.412 176.945 191.447 177.227C191.599 178.503 191.67 179.862 191.67 181.268Z" fill="#263238"/>
<path opacity="0.4" d="M191.67 181.267C191.67 184.183 190.441 188.4 189.339 193.121C184.443 187.229 179.535 176.195 179.535 176.195L183.576 170.244L190.698 173.559C190.944 174.367 191.132 175.199 191.284 176.066C191.296 176.171 191.319 176.288 191.342 176.406C191.378 176.675 191.413 176.944 191.448 177.225C191.6 178.502 191.67 179.861 191.67 181.267Z" fill="black"/>
<path d="M199.073 176.173C199.073 176.173 206.043 183.107 208.878 185.907L233.172 178.621C233.5 176.032 235.374 173.912 237.892 173.268L239.614 172.834L243.269 171.827C244.651 171.441 246.139 171.827 247.158 172.834C248.364 174.029 248.692 175.845 247.978 177.391C246.502 180.554 243.48 182.721 240.013 183.096L236.569 183.47C236.569 183.47 214.875 195.313 207.894 194.657C200.912 194.001 191.741 185.602 191.741 185.602L199.073 176.173Z" fill="#B97964"/>
<path d="M181.678 163.567C187.676 164.446 193.802 169.213 203.314 177.624C203.314 177.624 200.198 184.816 193.263 189.243C193.263 189.243 187.711 186.819 181.116 178.42C173.116 168.241 178 163.028 181.678 163.567Z" fill="#263238"/>
</svg>
