<svg width="447" height="335" viewBox="0 0 447 335" fill="none" xmlns="http://www.w3.org/2000/svg">
<g clip-path="url(#clip0_1385_4)">
<path d="M207.188 289.172C286.953 289.172 351.615 224.438 351.615 144.586C351.615 64.7333 286.953 0 207.188 0C127.423 0 62.7607 64.7333 62.7607 144.586C62.7607 224.438 127.423 289.172 207.188 289.172Z" fill="#C4E9FC"/>
<path d="M376.696 151.845C403.45 151.845 425.139 130.132 425.139 103.349C425.139 76.5657 403.45 54.8535 376.696 54.8535C349.942 54.8535 328.254 76.5657 328.254 103.349C328.254 130.132 349.942 151.845 376.696 151.845Z" fill="#C4E8FC"/>
<path d="M29.9864 128.105C46.5475 128.105 59.9729 114.665 59.9729 98.0858C59.9729 81.5065 46.5475 68.0664 29.9864 68.0664C13.4254 68.0664 0 81.5065 0 98.0858C0 114.665 13.4254 128.105 29.9864 128.105Z" fill="#C4E8FC"/>
<path fill-rule="evenodd" clip-rule="evenodd" d="M130.956 98.087H259.353C259.353 98.087 260.165 91.3041 252.869 88.1512C245.573 84.9982 238.542 96.0115 238.542 96.0115C238.542 96.0115 232.375 64.1728 201.304 59.3241C170.232 54.4666 163.36 94.9958 163.36 94.9958C163.36 94.9958 162.151 89.5996 158.808 90.0235C155.464 90.4475 153.673 96.4354 153.673 96.4354C153.673 96.4354 140.51 85.0071 130.956 98.087Z" fill="url(#paint0_linear_1385_4)"/>
<path fill-rule="evenodd" clip-rule="evenodd" d="M99.0195 98.0863H72.4648C72.4648 98.0863 90.1003 87.0465 99.0195 98.0863Z" fill="url(#paint1_linear_1385_4)"/>
<path fill-rule="evenodd" clip-rule="evenodd" d="M207 34.2579L341.485 34.9998C341.485 34.9998 338.547 25.7352 324.511 32.9331C324.511 32.9331 320.162 9.50231 298.6 9.00772C277.039 8.50431 271.19 32.7742 271.19 32.7742C271.19 32.7742 264.67 27.2543 258.151 27.5899C251.631 27.9255 250.458 32.942 250.458 32.942C250.458 32.942 241.098 13.194 228.058 11.8604C215.019 10.5091 207 34.2579 207 34.2579Z" fill="url(#paint2_linear_1385_4)"/>
<path fill-rule="evenodd" clip-rule="evenodd" d="M293.134 46.0586L293.293 180.391L323.994 185.884L342.467 76.2811L293.134 46.0586Z" fill="url(#paint3_linear_1385_4)"/>
<path fill-rule="evenodd" clip-rule="evenodd" d="M367.884 310.236L351.96 82.3574L326.252 99.0319L264.012 151.643L261.56 167.302L367.884 310.236Z" fill="url(#paint4_linear_1385_4)"/>
<path fill-rule="evenodd" clip-rule="evenodd" d="M440.102 335.001L447 297.589L13.6836 297.58L17.3271 328.403L440.102 335.001Z" fill="url(#paint5_linear_1385_4)"/>
<path fill-rule="evenodd" clip-rule="evenodd" d="M447 297.59L397.499 281.684L66.0783 278.469L13.6836 297.581L447 297.59Z" fill="url(#paint6_linear_1385_4)"/>
<path fill-rule="evenodd" clip-rule="evenodd" d="M397.5 281.684L397.932 259.498H62.9023L66.0783 278.469L397.5 281.684Z" fill="url(#paint7_linear_1385_4)"/>
<path fill-rule="evenodd" clip-rule="evenodd" d="M62.9023 259.498L95.8442 250.631H369.569L397.932 259.498H62.9023Z" fill="url(#paint8_linear_1385_4)"/>
<path fill-rule="evenodd" clip-rule="evenodd" d="M95.7203 250.63L94.0176 236.252L369.815 237.329L369.568 250.63H95.7203Z" fill="url(#paint9_linear_1385_4)"/>
<path fill-rule="evenodd" clip-rule="evenodd" d="M94.0176 236.252L115.702 233.885L348.36 233.107L369.815 237.329L94.0176 236.252Z" fill="url(#paint10_linear_1385_4)"/>
<path fill-rule="evenodd" clip-rule="evenodd" d="M348.361 233.108L348.334 221.361L113.083 221.856L114.23 233.92L348.361 233.108Z" fill="url(#paint11_linear_1385_4)"/>
<path fill-rule="evenodd" clip-rule="evenodd" d="M336.636 220.726V212.38L127.71 211.205L128.001 220.726H336.636Z" fill="url(#paint12_linear_1385_4)"/>
<path fill-rule="evenodd" clip-rule="evenodd" d="M336.636 212.379L324.382 211.205L138.402 210.445L127.71 211.205L336.636 212.379Z" fill="url(#paint13_linear_1385_4)"/>
<path fill-rule="evenodd" clip-rule="evenodd" d="M324.382 211.204V202.328L138.111 203.291L138.367 210.445L324.382 211.204Z" fill="url(#paint14_linear_1385_4)"/>
<path fill-rule="evenodd" clip-rule="evenodd" d="M314.183 203.83V194.875L148.618 195.405L148.945 204.987L314.183 203.83Z" fill="url(#paint15_linear_1385_4)"/>
<path fill-rule="evenodd" clip-rule="evenodd" d="M307.77 189.664L308.414 197.082H157.449L157.379 188.736L307.77 189.664Z" fill="url(#paint16_linear_1385_4)"/>
<path fill-rule="evenodd" clip-rule="evenodd" d="M298.736 183.252L298.93 191.165L164.64 192.225L164.384 183.252H298.736Z" fill="url(#paint17_linear_1385_4)"/>
<path fill-rule="evenodd" clip-rule="evenodd" d="M292.701 178.624L293.134 185.31L171.494 185.884V177.803L292.701 178.624Z" fill="url(#paint18_linear_1385_4)"/>
<path fill-rule="evenodd" clip-rule="evenodd" d="M286.967 174.182L287.293 179.552L177.264 177.865V173.52L286.967 174.182Z" fill="url(#paint19_linear_1385_4)"/>
<path fill-rule="evenodd" clip-rule="evenodd" d="M138.111 203.291L148.874 202.249L314.184 201.127L324.382 202.328L138.111 203.291Z" fill="url(#paint20_linear_1385_4)"/>
<path fill-rule="evenodd" clip-rule="evenodd" d="M187.444 169.28L329.613 76.0161L293.134 46.0586L298.339 46.4119L351.96 82.3574L274.978 163.707V167.302L274.828 170.631L266.747 172.398L187.444 169.28Z" fill="#C8BBE0"/>
<path fill-rule="evenodd" clip-rule="evenodd" d="M280.721 174.949V169.279H182.821V174.923L280.721 174.949Z" fill="url(#paint21_linear_1385_4)"/>
<path fill-rule="evenodd" clip-rule="evenodd" d="M348.334 221.361L336.636 219.975L125.796 220.725L113.083 221.856L348.334 221.361Z" fill="url(#paint22_linear_1385_4)"/>
<path opacity="0.8" fill-rule="evenodd" clip-rule="evenodd" d="M150.761 235.899L158.975 235.219H180.501L171.026 236.579L170.814 250.63L139.981 259.497L140.695 279.272L103.951 297.589V328.73H29.9863L32.1477 297.589L106.977 278.945L108.627 259.497L149.447 250.63L150.761 235.899Z" fill="#ADA0C9"/>
<path opacity="0.91" d="M174.714 200.325C174.714 200.325 170.232 203.337 169.385 204.185C168.574 204.997 166.492 208.918 166.306 209.272C166.571 208.15 175.19 171.127 174.573 168.99C173.946 166.817 164.621 168.009 160.395 173.679C161.11 170.597 167.833 160.22 167.833 160.22C163.668 160.653 144.427 164.812 144.427 164.812C140.255 165.899 128.362 171.33 128.362 171.33C126.739 182.405 117.564 209.916 113.77 221.018C112.456 222.016 110.762 223.403 109.818 224.639C108.115 226.856 102.24 258.324 103.484 267.5C103.484 267.5 101.578 267.862 100.396 268.586C99.8668 268.904 99.1433 269.77 98.4993 270.626C100.034 261.627 104.093 236.836 103.96 227.792C103.96 227.792 98.5346 222.537 91.124 226.397C91.7416 225.16 95.4469 221.601 97.9259 216.655C100.396 211.7 106.695 171.71 106.695 171.71L105.566 169.078L107.816 155.972L141.031 143.687C142.151 143.342 143.351 143.068 144.621 142.865L139.981 148.491C139.981 148.491 138.367 151.052 151.459 150.902C164.568 150.752 182.821 149.277 182.821 149.277C182.821 149.277 169.306 190.177 174.714 200.325Z" fill="url(#paint23_linear_1385_4)"/>
<path d="M166 214.5L165.988 214.685C165.988 214.685 166.156 218.376 164.603 220.169L162.415 220.443C161.71 219.162 160.201 216.495 159.46 216.23C158.481 215.868 155.702 215.921 155.702 215.921C155.702 215.921 155.084 214.835 155.19 214.428C155.287 214.013 156.063 213.651 156.063 213.651L156.937 210.746L161.824 208.776L165.618 208.635C165.556 209.491 165.503 210.613 165.529 211.505L165.521 211.532C165.521 211.532 166 212.5 166 213L166.041 214C166.041 214 165.959 214.483 166 214.5Z" fill="#FFA378"/>
<path fill-rule="evenodd" clip-rule="evenodd" d="M100.749 281.409C99.6634 282.76 90.6913 279.802 90.6913 279.802L90.4531 274.573L99.7252 266.73L99.5664 270.749C99.5664 270.749 100.607 270.793 100.722 271.102C100.846 271.411 99.8311 273.345 99.8311 273.345C99.8311 273.345 101.825 280.058 100.749 281.409Z" fill="url(#paint24_linear_1385_4)"/>
<path d="M100.749 281.409C99.6634 282.76 90.6913 279.802 90.6913 279.802L90.4531 274.573L99.7252 266.73L99.5664 270.749C99.5664 270.749 97.5285 274.767 93.3291 277.196C93.7173 277.02 99.9281 274.07 100.731 271.093C100.854 271.403 99.8399 273.337 99.8399 273.337C99.8399 273.337 101.825 280.058 100.749 281.409Z" fill="url(#paint25_linear_1385_4)"/>
<path fill-rule="evenodd" clip-rule="evenodd" d="M168.229 232.728L165.185 232.498L163.386 232.366C163.386 232.366 163.58 231.968 163.871 231.456C164.427 230.546 165.327 229.274 166.165 229.266C166.826 229.266 167.356 230.184 167.709 231.067L167.717 231.076C168.044 231.924 168.229 232.728 168.229 232.728Z" fill="#B53D27"/>
<path fill-rule="evenodd" clip-rule="evenodd" d="M183.986 224.629C183.915 224.823 183.827 225.009 183.747 225.185C180.086 233.169 168.229 232.728 168.229 232.728C168.229 232.728 167.029 231.103 166.474 231.182C166.147 231.226 165.591 231.924 165.186 232.498C164.895 232.913 164.674 233.266 164.674 233.266C160.889 234.733 153.858 233.266 153.858 233.266L153.179 230.617L164.048 226.342L169.235 225.901L183.986 224.629Z" fill="#3D3D3D"/>
<path fill-rule="evenodd" clip-rule="evenodd" d="M106.977 294.719L103.193 294.498L101.587 294.41C101.587 294.41 101.605 294.136 101.675 293.73C101.869 292.635 102.469 290.639 104.189 291.284C105.451 291.761 106.166 292.732 106.554 293.509C106.88 294.18 106.977 294.719 106.977 294.719Z" fill="#B53D27"/>
<path fill-rule="evenodd" clip-rule="evenodd" d="M118.772 284.969C117.537 293.633 106.977 294.719 106.977 294.719C105.178 293.474 103.951 293.633 103.951 293.633L103.193 294.498L101.516 296.415C97.3876 298.791 89.977 296.83 89.977 296.83L89.5977 294.498V294.145L91.8208 290.33L106.757 287.353L118.772 284.969Z" fill="url(#paint26_linear_1385_4)"/>
<path fill-rule="evenodd" clip-rule="evenodd" d="M183.862 151.625C183.377 155.087 181.612 161.34 179.707 169.456C177.201 180.099 174.863 199.087 174.722 200.262L174.713 200.315C174.713 200.315 170.232 203.326 169.385 204.174C168.573 204.987 166.491 208.908 166.306 209.261V209.27L166.297 209.288C162.583 213.306 155.913 211.514 155.913 211.514L156.178 210.489C158.754 204.713 159.68 176.76 160.404 173.669C161.118 170.587 167.841 160.209 167.841 160.209C163.677 160.642 144.436 164.802 144.436 164.802C140.263 165.888 128.371 171.32 128.371 171.32C126.932 181.106 119.592 203.759 115.287 216.539V216.548C114.723 218.226 114.22 219.727 113.779 221.008C113.779 221.008 113.761 221.052 113.735 221.14C112.747 224.028 112.138 225.759 112.138 225.759C108.3 236.234 103.916 264.637 103.519 267.286C103.51 267.348 103.492 267.419 103.483 267.481C103.483 267.481 101.578 267.843 100.396 268.567C99.8662 268.885 99.1428 269.751 98.4988 270.607C97.6871 271.702 96.999 272.789 96.999 272.789C94.4229 275.111 89.9678 274.864 89.9678 274.864L89.7296 273.257C87.1006 253.306 90.5059 227.623 91.1235 226.377C91.6969 225.238 94.8993 222.112 97.3342 217.749C97.546 217.387 97.7401 217.016 97.9253 216.636C100.396 211.681 106.695 171.691 106.695 171.691L105.565 169.059L107.815 155.952L141.03 143.667C142.151 143.323 143.35 143.049 144.621 142.846C144.85 142.802 145.08 142.775 145.318 142.74C145.318 142.74 145.335 142.74 145.371 142.731C158.269 140.947 176.989 145.672 182.362 148.083C182.38 148.083 182.397 148.092 182.406 148.101C183.244 148.481 183.747 148.808 183.844 149.028C184.038 149.523 184.029 150.397 183.862 151.625Z" fill="url(#paint27_radial_1385_4)"/>
<path fill-rule="evenodd" clip-rule="evenodd" d="M118.773 284.968C117.749 291.672 107.648 294.03 107.648 294.03C107.648 294.03 107.18 293.783 106.554 293.509C105.636 293.103 104.384 292.626 103.793 292.793C103.298 292.935 102.425 293.35 101.684 293.73C100.917 294.127 100.281 294.498 100.281 294.498C95.0586 295.885 89.6153 294.498 89.6153 294.498C89.6153 294.498 89.0331 293.103 89.1478 292.025C89.2713 290.939 90.7005 279.802 90.7005 279.802C90.7005 279.802 96.1261 279.714 97.8199 278.318C98.2081 278 99.8226 280.862 100.087 280.429C100.952 278.972 99.8578 273.938 99.8578 273.938C99.8578 273.938 104.578 279.758 107.683 282.169H107.692V282.178C108.283 282.646 108.83 282.981 109.262 283.114C111.935 283.988 115.138 282.902 115.138 282.902C117.643 283.061 118.773 284.968 118.773 284.968Z" fill="url(#paint28_linear_1385_4)"/>
<path opacity="0.91" d="M135.146 155.627C132.993 159.663 132.914 160.997 132.914 160.997C132.914 160.997 139.689 164.3 144.427 164.812C140.254 165.898 128.362 171.33 128.362 171.33C126.923 181.115 119.583 203.769 115.278 216.549V216.558C115.278 216.558 106.147 216.399 97.3164 217.759C97.5281 217.397 97.7222 217.026 97.9075 216.646C100.378 211.691 106.677 171.701 106.677 171.701L105.547 169.069L107.797 155.962L141.012 143.677C142.133 143.333 143.333 143.059 144.603 142.856C144.832 142.812 145.062 142.785 145.3 142.75L145.265 142.856L144.1 143.545C144.109 143.536 137.298 151.591 135.146 155.627Z" fill="#935B9D"/>
<path fill-rule="evenodd" clip-rule="evenodd" d="M183.985 224.63C183.985 224.63 183.923 224.842 183.747 225.187C183.262 226.132 181.982 228.11 179.045 229.638C175.154 231.66 168.017 231.289 168.017 231.289C168.017 231.289 167.893 231.21 167.717 231.095L167.708 231.086C167.285 230.812 166.579 230.38 166.473 230.415C166.314 230.468 164.62 231.342 164.62 231.342C164.373 231.395 164.126 231.431 163.871 231.466C158.842 232.208 153.178 230.618 153.178 230.618C152.358 225.769 155.71 215.922 155.71 215.922C155.71 215.922 159.848 214.783 161.497 215.41C163.165 216.028 164.047 218.607 164.982 218.607C165.714 218.607 165.997 214.686 165.997 214.686C165.997 214.686 168.255 218.015 170.681 220.205C171.546 220.983 172.437 221.619 173.248 221.901C176.336 222.979 181.206 222.926 181.206 222.926C183.42 223.138 183.985 224.63 183.985 224.63Z" fill="#313131"/>
<path fill-rule="evenodd" clip-rule="evenodd" d="M149.791 55.1816C149.791 55.1816 150.47 57.2571 150.876 58.0167C151.291 58.7762 151.467 59.1118 151.458 59.3061C151.449 59.5004 151.176 60.622 150.038 60.9312C148.909 61.2403 149.791 55.1816 149.791 55.1816Z" fill="#D2726C"/>
<path fill-rule="evenodd" clip-rule="evenodd" d="M150.92 50.5373C150.92 50.5373 149.676 53.5843 149.729 54.6706C149.782 55.7481 150.382 57.3908 150.373 57.9649C150.329 60.5084 149.191 66.9027 145.821 70.5944C145.645 70.7975 145.442 70.983 145.248 71.1773C145.248 71.1773 141.798 70.7622 138.605 68.8545V70.2411C138.605 70.2411 136.505 70.2234 133.691 70.4089C130.171 70.6562 125.513 71.2303 122.416 72.6169C122.495 72.4844 123.192 71.3186 123.951 69.6405C124.639 68.1656 125.363 66.2668 125.786 64.3326C125.901 63.785 125.998 63.2375 126.051 62.6899V62.6811C126.113 62.0452 126.139 61.4093 126.104 60.7911C125.998 58.9717 125.566 57.5763 125.036 56.1632C124.022 53.5136 122.654 50.8023 122.398 45.0881C122.398 45.0881 128.186 35.8058 134.988 33.4036C141.789 31.0101 150.488 41.785 150.488 41.785C150.488 41.785 151.379 46.0507 150.92 50.5373Z" fill="url(#paint29_linear_1385_4)"/>
<path opacity="0.8" d="M143.651 54.8199C143.651 54.8199 142.627 56.5244 142.812 58.9179C142.812 58.9179 143.183 56.0564 144.462 54.8199C144.462 54.8199 143.959 56.1358 144.462 56.8689C144.462 56.8689 146.729 54.5461 146.024 51.8789C146.024 51.8789 144.85 52.6561 143.651 54.8199Z" fill="#D2726C"/>
<path fill-rule="evenodd" clip-rule="evenodd" d="M151.017 46.4117C151.017 46.4117 151.017 43.9829 150.506 41.775C150.506 41.775 149.262 46.4117 148.291 50.174C147.321 53.9364 147.109 57.1865 147.109 57.1865L146.545 57.4956C146.545 57.4956 147.259 51.1544 146.077 50.2182C144.895 49.2997 140.298 51.7726 140.925 58.6791C140.925 58.6791 133.408 62.8035 125.557 62.6622C125.557 62.6622 125.857 61.5494 125.504 59.8802C124.78 56.5594 120.634 50.4831 121.102 40.1234L119.028 38.6662C119.267 38.7456 121.693 39.514 126.968 36.7761C132.526 33.8881 140.722 29.9668 141.851 30.1258C142.98 30.2848 147.003 33.844 147.003 33.844C147.003 33.844 152.041 36.891 152.976 38.0214C153.911 39.1431 151.017 46.4117 151.017 46.4117Z" fill="url(#paint30_linear_1385_4)"/>
<path d="M149.853 44.2227C149.853 44.2227 147.727 46.8192 142.522 47.4904C142.522 47.4904 139.637 49.248 139.072 51.871C139.072 51.871 140.775 49.1155 143.086 48.7887C145.407 48.4708 148.106 48.7004 148.838 48.0468L149.853 44.2227Z" fill="url(#paint31_linear_1385_4)"/>
<path d="M150.356 42.332C150.356 42.332 147.383 45.4408 144.463 46.3947C144.463 46.3947 148.124 45.4938 149.853 44.2309L150.356 42.332Z" fill="url(#paint32_linear_1385_4)"/>
<path d="M141.305 32.8371C141.305 32.8371 148.706 32.3779 152.985 38.0126C152.985 38.0126 153.382 39.6288 152.368 40.6886C152.359 40.6886 148.795 35.7605 141.305 32.8371Z" fill="url(#paint33_linear_1385_4)"/>
<path d="M133.108 34.0918C133.108 34.0918 141.057 32.2195 141.851 30.1175C141.851 30.1175 140.201 29.826 133.108 34.0918Z" fill="url(#paint34_linear_1385_4)"/>
<path d="M140.414 40.3968C140.414 40.3968 138.711 42.8255 137.167 43.4084C137.167 43.4084 146.642 42.4369 148.468 37.8002C148.468 37.8002 146.968 35.9455 144.463 36.4136C141.957 36.8817 140.414 40.3968 140.414 40.3968Z" fill="url(#paint35_linear_1385_4)"/>
<path d="M119.028 38.6659C119.028 38.6659 121.172 41.3419 125.31 41.0151L130.338 35.0625C130.329 35.0625 122.672 39.6286 119.028 38.6659Z" fill="url(#paint36_linear_1385_4)"/>
<path fill-rule="evenodd" clip-rule="evenodd" d="M96.3643 155.626C96.3643 155.626 104.145 155.485 110.841 153.701C117.537 151.917 113.003 143.147 113.003 143.147L108.371 142.334L96.3643 155.626Z" fill="url(#paint37_radial_1385_4)"/>
<path fill-rule="evenodd" clip-rule="evenodd" d="M153.708 92.6907C150.735 100.878 147.003 107.263 147.003 107.263C144.012 112.412 141.101 129.228 141.56 130.544C141.93 131.577 143.554 133.008 144.286 133.979L144.374 134.094C144.524 134.306 144.63 134.492 144.648 134.642C144.806 135.499 142.716 138.13 142.795 138.59C142.821 138.766 143.28 139.588 143.827 140.497C144.207 141.124 144.612 141.796 144.948 142.334L144.965 142.361C145.362 142.997 145.653 143.456 145.653 143.456L141.022 143.668C130.1 156.351 105.989 155.988 105.989 155.988L106.607 148.72C103.201 152.332 95.623 155.988 95.623 155.988C95.623 155.988 107.701 131.206 107.559 115.318C107.551 115.106 107.551 114.982 107.551 114.982C107.533 113.958 107.462 112.977 107.33 112.05C105.169 96.5767 105.945 81.9865 106.413 81.5185C106.88 81.0504 106.924 81.2093 110.638 79.6638C111.291 79.39 112.032 79.0102 112.817 78.5686L112.967 78.498L112.976 78.4891C116.593 76.449 120.943 73.2165 120.943 73.2165V70.4345C128.662 65.5947 138.604 68.8359 138.604 68.8359C148.168 68.6328 156.893 70.9468 156.893 70.9468C158.163 77.6501 156.213 85.8107 153.708 92.6907Z" fill="url(#paint38_radial_1385_4)"/>
<path d="M106.713 148.781L106.519 148.684C110.886 140.214 112.112 126.357 113.303 112.951C113.929 105.938 114.511 99.3142 115.535 93.9445C118.446 78.6212 124.525 71.8031 124.586 71.7324L124.745 71.8826C124.683 71.9532 118.64 78.7272 115.747 93.9798C114.732 99.3407 114.141 105.956 113.523 112.959C112.332 126.393 111.097 140.267 106.713 148.781Z" fill="url(#paint39_linear_1385_4)"/>
<path fill-rule="evenodd" clip-rule="evenodd" d="M122.407 69.6317L123.519 67.7858C123.519 67.7858 133.611 64.4651 138.613 68.8545C138.605 68.8456 130.259 66.2402 122.407 69.6317Z" fill="url(#paint40_linear_1385_4)"/>
<path fill-rule="evenodd" clip-rule="evenodd" d="M147.391 178.254C147.391 178.254 148.203 188.666 145.574 195.864L141.772 196.111C141.772 196.111 138.013 210.34 132.914 216.548C132.914 216.548 110.241 214.826 91.7412 209.739L85.7422 204.864C85.7422 204.864 91.3795 179.252 96.7875 166.631C96.7875 166.631 123.536 175.869 147.391 178.254Z" fill="url(#paint41_linear_1385_4)"/>
<path fill-rule="evenodd" clip-rule="evenodd" d="M96.7871 166.631C96.7871 166.631 121.039 174.738 136.848 174.942C136.848 174.942 140.554 176.143 147.391 178.254C147.391 178.254 125.274 176.602 105.512 169.766L96.7871 166.631Z" fill="url(#paint42_linear_1385_4)"/>
<path fill-rule="evenodd" clip-rule="evenodd" d="M130.62 166.684C130.62 166.684 133.17 168.707 131.52 175.348C131.52 175.348 132.817 176.178 134.881 175.613C134.881 175.613 135.005 168.318 134.202 165.562L130.62 166.684Z" fill="#50182A"/>
<path fill-rule="evenodd" clip-rule="evenodd" d="M91.7412 209.748C91.7412 209.748 100.828 186.591 103.863 170.605L105.645 171.815C105.645 171.815 106.598 182.104 105.486 188.684L106.818 189.735C106.818 189.735 108.08 175.419 105.513 169.766L96.7875 166.631C96.7875 166.631 92.2265 176.222 85.7422 204.864L91.7412 209.748Z" fill="#4B1124"/>
<path fill-rule="evenodd" clip-rule="evenodd" d="M111.477 170.809C111.477 170.809 111.962 171.631 115.614 172.24C115.614 172.24 118.684 166.649 120.969 165.369L121.004 160.008C121.004 160.017 114.503 165.051 111.477 170.809Z" fill="#50182A"/>
<path opacity="0.6" fill-rule="evenodd" clip-rule="evenodd" d="M140.078 199.945L96.7875 203.142L91.7412 209.748L85.7422 204.873L90.5767 185.452C90.5767 185.452 89.2975 197.684 90.1091 198.002C92.2706 198.85 97.802 189.479 99.8311 183.968C102.504 176.691 103.863 170.605 103.863 170.605L105.645 171.815C105.645 171.815 106.686 179.826 105.486 188.684L106.818 189.735C106.818 189.735 122.151 194.513 141.772 196.121L140.078 199.945Z" fill="#9A2463"/>
<path fill-rule="evenodd" clip-rule="evenodd" d="M125.054 190.84L129.509 191.847C129.509 191.847 129.73 194.938 128.159 197.861L123.934 197.084V195.892L124.701 191.175L125.054 190.84Z" fill="url(#paint43_linear_1385_4)"/>
<path fill-rule="evenodd" clip-rule="evenodd" d="M125.054 190.84C125.054 190.84 125.839 194.222 123.934 197.084V195.892L124.701 191.175L125.054 190.84Z" fill="#755689"/>
<path opacity="0.7" fill-rule="evenodd" clip-rule="evenodd" d="M125.213 190.963C125.213 190.963 125.345 193.506 126.307 194.072C127.268 194.637 128.407 194.725 128.962 194.354C129.518 193.983 129.509 191.97 129.509 191.97L125.213 190.963Z" fill="white"/>
<path opacity="0.6" fill-rule="evenodd" clip-rule="evenodd" d="M120.73 202.684L117.122 207.824L121.763 208.61L124.568 204.114L120.73 202.684Z" fill="#9A2463"/>
<path fill-rule="evenodd" clip-rule="evenodd" d="M119.928 206.825C119.928 206.825 121.066 205.721 122.345 202.691L125.309 203.557C125.309 203.557 125.018 205.844 123.324 207.478L119.928 206.825Z" fill="url(#paint44_linear_1385_4)"/>
<path fill-rule="evenodd" clip-rule="evenodd" d="M122.336 202.684H120.73L119.442 206.587L119.928 206.817C119.928 206.826 122.063 204.627 122.336 202.684Z" fill="#755689"/>
<path opacity="0.91" d="M144.26 99.0332C143.775 99.3423 143.254 99.6338 142.698 99.9341C143.554 99.4395 144.127 99.1127 144.26 99.0332Z" fill="url(#paint45_linear_1385_4)"/>
<path opacity="0.91" d="M147.003 107.264C144.013 112.413 141.101 129.229 141.56 130.544C140.263 134.289 133.841 140.524 133.841 140.524C142.028 138.599 144.286 133.98 144.286 133.98L144.374 134.095C144.524 134.307 144.63 134.492 144.648 134.642C144.806 135.499 142.716 138.131 142.795 138.59C142.822 138.767 143.28 139.588 143.827 140.498L138.613 143.457L144.939 142.335L144.956 142.361C145.353 142.997 145.645 143.457 145.645 143.457L141.013 143.669C130.091 156.351 105.98 155.989 105.98 155.989L106.598 148.72C103.192 152.333 95.6143 155.989 95.6143 155.989C95.6143 155.989 107.692 131.207 107.551 115.318C107.621 117.42 108.133 128.601 111.035 128.601C113.611 128.601 121.234 113.985 125.027 106.045C128.9 97.9373 130.488 99.5 130.488 99.5V91.9494C133.408 84.5218 137.925 80.4238 137.925 80.4238L153.69 92.7001C150.744 100.878 147.003 107.264 147.003 107.264Z" fill="#4D316F"/>
<path opacity="0.91" d="M120.943 70.443V73.225C120.943 73.225 116.594 76.4575 112.977 78.4976L124.684 71.8031C124.684 71.8031 131.274 68.553 138.614 68.8356C138.605 68.8444 128.662 65.6032 120.943 70.443Z" fill="url(#paint46_linear_1385_4)"/>
<path opacity="0.91" d="M103.66 233.92C103.66 233.92 97.6785 261.961 90.4531 274.573C90.4531 274.582 101.834 241.462 103.66 233.92Z" fill="#93789D"/>
<path opacity="0.33" d="M144.621 142.847C144.621 142.847 141.278 146.371 138.631 150.424C138.631 150.424 162.389 151.361 183.835 149.029C183.835 149.038 169.297 140.851 144.621 142.847Z" fill="url(#paint47_linear_1385_4)"/>
<path opacity="0.7" d="M113.77 221.018C113.77 221.018 113.752 221.062 113.726 221.15C112.738 224.038 112.129 225.769 112.129 225.769C108.291 236.244 103.907 264.647 103.51 267.296C103.501 267.358 103.483 267.429 103.475 267.491C103.475 267.491 104.824 235.29 109.068 226.511C109.077 226.511 111.035 222.139 113.77 221.018Z" fill="url(#paint48_linear_1385_4)"/>
<path fill-rule="evenodd" clip-rule="evenodd" d="M134.881 164.344L133.567 166.684L133.223 167.294L130.62 167.055L129.72 166.649L124.895 166.508L124.163 167.108L120.978 166.808L120.087 165.845L120.96 165.359L121.004 160.007L119.884 157.216C119.884 157.216 120.051 156.43 121.675 152.642L124.471 151.635L132.561 153.092C132.57 153.101 134.961 159.477 134.881 164.344Z" fill="url(#paint49_linear_1385_4)"/>
<path opacity="0.91" d="M134.105 165.722L133.223 167.303L130.62 167.065L129.72 166.659L124.895 166.517L124.163 167.118L120.978 166.818L120.087 165.855L120.96 165.369L121.004 160.017L119.884 157.226C119.884 157.226 120.051 156.44 121.675 152.651L124.471 151.645L132.561 153.102C132.561 153.102 130.612 155.266 123.863 155.637L122.725 156.007V165.572L124.657 165.917L125.018 165.572H130.603L131.432 166.146L134.105 165.722Z" fill="url(#paint50_linear_1385_4)"/>
<path fill-rule="evenodd" clip-rule="evenodd" d="M121.021 152.519V153.305C121.021 153.305 127.382 154.33 132.914 153.093L132.773 151.371C132.773 151.371 126.968 152.572 121.021 152.519Z" fill="url(#paint51_linear_1385_4)"/>
<path fill-rule="evenodd" clip-rule="evenodd" d="M154.934 89.0612C154.934 89.0612 145.124 98.8999 139.407 111.891C139.063 112.678 138.736 113.481 138.428 114.329C135.216 123.117 133.893 135.252 134.563 148.623V148.676C134.608 149.409 134.643 150.151 134.696 150.893C134.696 150.893 126.465 154.302 120.73 152.65C120.73 152.65 116.205 128.513 120.43 116.343C120.43 116.343 120.43 116.334 120.439 116.325C120.492 116.272 120.677 116.016 120.969 115.592C121.039 115.486 121.127 115.362 121.233 115.23C120.43 108.5 124.097 99.4298 125.5 89.0612C125.5 89.0612 138.727 73.4642 151.467 71.0619V71.0531C153.169 70.7352 154.978 70.6733 156.901 70.9559C156.892 70.9559 158.56 79.4787 154.934 89.0612Z" fill="url(#paint52_linear_1385_4)"/>
<path opacity="0.8" d="M138.428 114.33C135.217 123.117 133.893 135.252 134.564 148.624V148.677C134.573 149.56 134.617 150.311 134.696 150.894C134.696 150.894 129.694 137.893 129.288 130.165C128.874 122.429 138.613 113.182 138.613 113.182C138.613 113.182 138.543 113.588 138.428 114.33Z" fill="#483E6D"/>
<path opacity="0.8" d="M134.687 150.892C134.687 150.892 129.509 138.13 129.279 130.164C129.279 130.164 131.926 139.676 134.387 141.61L134.687 150.892Z" fill="#4C3F70"/>
<path opacity="0.8" d="M121.022 152.518C121.022 152.518 118.578 141.752 120.422 132.037C120.422 132.037 122.424 148.491 124.665 153.092C124.674 153.092 122.574 153.251 121.022 152.518Z" fill="#4C3F70"/>
<path opacity="0.7" d="M183.818 149.028C183.209 148.843 163.007 142.528 145.31 142.74C145.31 142.74 145.327 142.74 145.363 142.731C158.26 140.947 176.981 145.672 182.354 148.083C182.371 148.083 182.389 148.092 182.398 148.101C182.874 148.401 183.351 148.71 183.818 149.028Z" fill="url(#paint53_linear_1385_4)"/>
<path d="M118.773 284.968C117.537 293.632 106.977 294.719 106.977 294.719L103.193 294.498L101.516 296.414C97.3877 298.79 89.9771 296.83 89.9771 296.83L89.5978 294.498C89.5978 294.498 89.0155 293.103 89.1302 292.025C89.2537 290.939 90.6829 279.802 90.6829 279.802C90.6829 279.802 96.1085 279.714 97.8024 278.318C98.1905 278 99.805 280.862 100.07 280.429C100.934 278.972 99.8403 273.938 99.8403 273.938C99.8403 273.938 104.56 279.758 107.666 282.169C107.445 282.072 103.757 280.305 103.007 280.535C102.408 280.712 104.225 284.659 106.757 287.362C107.489 288.148 108.292 288.819 109.104 289.27C112.756 291.292 117.767 288.625 118.773 284.968Z" fill="url(#paint54_linear_1385_4)"/>
<path opacity="0.7" d="M116.611 284.527C116.611 284.527 114.653 287.963 110.947 288.634C110.947 288.634 117.334 290.012 116.611 284.527Z" fill="url(#paint55_linear_1385_4)"/>
<path opacity="0.5" d="M91.115 226.387C91.115 226.387 89.6153 259.02 91.812 261.891C91.812 261.891 93.9116 262.129 97.0611 255.02C97.0611 255.02 92.6677 269.725 89.9593 274.873C89.9593 274.873 86.3246 255.364 91.115 226.387Z" fill="url(#paint56_linear_1385_4)"/>
<path fill-rule="evenodd" clip-rule="evenodd" d="M42.3818 289.172L35.0947 231.703H38.7383L44.6315 289.172H42.3818Z" fill="#633640"/>
<path fill-rule="evenodd" clip-rule="evenodd" d="M418.301 294.242L425.588 236.773H421.945L416.052 294.242H418.301Z" fill="#633640"/>
<path fill-rule="evenodd" clip-rule="evenodd" d="M424.839 242.646L421.01 272.85C421.01 272.85 392.047 274.052 348.774 274.952C284.576 276.295 188.882 276.984 109.465 272.109C106.068 271.905 102.707 271.685 99.3813 271.464C92.3589 270.978 85.4953 270.448 78.8081 269.865C64.7456 268.655 51.4859 267.216 39.3731 265.52L35.7031 236.578L35.7737 236.587L35.9943 236.605L36.1707 236.622C36.2942 236.631 36.453 236.64 36.6294 236.658L36.8853 236.675C39.6554 236.923 47.2513 237.558 59.1083 238.389L60.4316 238.486V238.495C68.3891 239.042 78.1641 239.678 89.5799 240.332C94.4674 240.605 99.6636 240.897 105.142 241.179C162.61 244.156 251.872 247.088 358.143 244.756C379.714 244.288 401.989 243.599 424.839 242.646Z" fill="#8AD684"/>
<path d="M407.768 201.33L397.561 175.091L398.223 175.214L364.84 209.968L364.531 210.286L364.328 209.897L348.545 179.674L349.004 179.683L342.679 190.299L342.546 190.52L342.335 190.379L298.841 161.304L298.7 161.207L298.797 161.075L330.116 117.419V117.41H330.125L360.376 89.7753L360.385 89.7929L352.383 88.3887L360.385 89.7664L360.411 89.7753L360.393 89.7929L330.231 117.525L330.239 117.507L299.062 161.26L299.027 161.03L342.608 189.964L342.255 190.043L348.554 179.409L348.792 179.003L349.013 179.427L364.893 209.597L364.381 209.526L397.649 174.667L398.073 174.216L398.302 174.799L408.589 201.012L407.768 201.33Z" fill="#79598A"/>
<path d="M408.174 228.462C417.046 228.462 424.239 221.262 424.239 212.38C424.239 203.497 417.046 196.297 408.174 196.297C399.301 196.297 392.108 203.497 392.108 212.38C392.108 221.262 399.301 228.462 408.174 228.462Z" fill="url(#paint57_radial_1385_4)"/>
<path d="M397.931 185.203C403.588 185.203 408.173 180.612 408.173 174.949C408.173 169.286 403.588 164.695 397.931 164.695C392.274 164.695 387.688 169.286 387.688 174.949C387.688 180.612 392.274 185.203 397.931 185.203Z" fill="url(#paint58_radial_1385_4)"/>
<path d="M364.504 217.59C368.831 217.59 372.338 214.078 372.338 209.747C372.338 205.416 368.831 201.904 364.504 201.904C360.177 201.904 356.67 205.416 356.67 209.747C356.67 214.078 360.177 217.59 364.504 217.59Z" fill="url(#paint59_radial_1385_4)"/>
<path d="M348.774 186.714C352.492 186.714 355.506 183.697 355.506 179.975C355.506 176.253 352.492 173.236 348.774 173.236C345.057 173.236 342.043 176.253 342.043 179.975C342.043 183.697 345.057 186.714 348.774 186.714Z" fill="url(#paint60_radial_1385_4)"/>
<path fill-rule="evenodd" clip-rule="evenodd" d="M347.733 190.486C347.733 193.4 345.377 195.758 342.466 195.758C339.555 195.758 337.199 193.4 337.199 190.486C337.199 187.571 339.555 185.213 342.466 185.213C345.377 185.204 347.733 187.571 347.733 190.486Z" fill="url(#paint61_radial_1385_4)"/>
<path fill-rule="evenodd" clip-rule="evenodd" d="M303.314 161.173C303.314 163.593 301.356 165.562 298.93 165.562C296.512 165.562 294.545 163.601 294.545 161.173C294.545 158.744 296.503 156.783 298.93 156.783C301.356 156.783 303.314 158.744 303.314 161.173Z" fill="url(#paint62_radial_1385_4)"/>
<path fill-rule="evenodd" clip-rule="evenodd" d="M362.025 89.7853C362.025 90.695 361.293 91.428 360.384 91.428C359.475 91.428 358.743 90.695 358.743 89.7853C358.743 88.8756 359.475 88.1426 360.384 88.1426C361.293 88.1426 362.025 88.8756 362.025 89.7853Z" fill="url(#paint63_linear_1385_4)"/>
<path fill-rule="evenodd" clip-rule="evenodd" d="M333.45 117.464C333.45 119.275 331.986 120.741 330.177 120.741C328.369 120.741 326.904 119.275 326.904 117.464C326.904 115.654 328.369 114.188 330.177 114.188C331.986 114.188 333.45 115.654 333.45 117.464Z" fill="url(#paint64_linear_1385_4)"/>
<path d="M409.523 207.416V216.495H406.471V209.73H404.918V207.425H409.523V207.416Z" fill="white"/>
<path d="M400.728 175.735V177.457H395.453V176.097L397.835 173.898C398.285 173.474 398.355 173.218 398.355 172.997C398.355 172.679 398.135 172.476 397.72 172.476C397.323 172.476 396.952 172.697 396.749 173.086L395.073 172.247C395.55 171.346 396.502 170.719 397.923 170.719C399.484 170.719 400.578 171.531 400.578 172.777C400.578 173.421 400.411 174.004 399.449 174.879L398.505 175.735H400.728Z" fill="white"/>
<path d="M366.692 210.604C366.692 211.522 365.96 212.449 364.239 212.449C363.507 212.449 362.696 212.291 362.122 211.964L362.74 210.63C363.198 210.895 363.728 211.019 364.178 211.019C364.583 211.019 364.875 210.877 364.875 210.604C364.875 210.374 364.698 210.233 364.239 210.233H363.525V209.12L364.319 208.316H362.404V206.947H366.41V208.06L365.413 209.076C366.242 209.288 366.692 209.862 366.692 210.604Z" fill="white"/>
<path d="M350.248 181.247H349.719V181.928H348.413V181.247H346.349V180.391L348.042 177.936H349.419L347.919 180.196H348.457V179.587H349.719V180.196H350.248V181.247Z" fill="white"/>
<path d="M344.072 191.085C344.072 191.721 343.587 192.339 342.44 192.339C341.955 192.339 341.416 192.233 341.037 192.021L341.443 191.138C341.752 191.314 342.096 191.394 342.396 191.394C342.669 191.394 342.863 191.297 342.863 191.111C342.863 190.961 342.757 190.855 342.325 190.855H341.293L341.469 188.691H343.834V189.601H342.457L342.431 189.954H342.616C343.675 189.946 344.072 190.449 344.072 191.085Z" fill="white"/>
<path d="M300.112 161.72C300.112 162.374 299.565 162.789 298.877 162.789C298.003 162.789 297.412 162.286 297.412 161.288C297.412 160.219 298.1 159.592 299.106 159.592C299.468 159.592 299.821 159.68 300.05 159.83L299.679 160.554C299.503 160.431 299.318 160.395 299.124 160.395C298.771 160.395 298.533 160.572 298.462 160.917C298.612 160.811 298.815 160.749 299.071 160.749C299.618 160.749 300.112 161.129 300.112 161.72ZM299.115 161.773C299.115 161.579 298.982 161.455 298.797 161.455C298.612 161.455 298.48 161.579 298.48 161.773C298.48 161.968 298.612 162.082 298.797 162.082C298.982 162.082 299.115 161.968 299.115 161.773Z" fill="white"/>
</g>
<defs>
<linearGradient id="paint0_linear_1385_4" x1="195.163" y1="98.0831" x2="195.163" y2="58.9185" gradientUnits="userSpaceOnUse">
<stop offset="0.0171" stop-color="#F0ECF4"/>
<stop offset="1" stop-color="white"/>
</linearGradient>
<linearGradient id="paint1_linear_1385_4" x1="72.464" y1="95.6304" x2="99.0154" y2="95.6304" gradientUnits="userSpaceOnUse">
<stop offset="0.0171" stop-color="#F0ECF4"/>
<stop offset="1" stop-color="white"/>
</linearGradient>
<linearGradient id="paint2_linear_1385_4" x1="274.243" y1="34.9972" x2="274.243" y2="8.99174" gradientUnits="userSpaceOnUse">
<stop offset="0.0171" stop-color="#F0ECF4"/>
<stop offset="1" stop-color="white"/>
</linearGradient>
<linearGradient id="paint3_linear_1385_4" x1="317.802" y1="185.883" x2="317.802" y2="46.0611" gradientUnits="userSpaceOnUse">
<stop offset="0.0171" stop-color="#8C74B1"/>
<stop offset="1" stop-color="#DCD8E9"/>
</linearGradient>
<linearGradient id="paint4_linear_1385_4" x1="314.72" y1="310.238" x2="314.72" y2="82.3564" gradientUnits="userSpaceOnUse">
<stop offset="0.0171" stop-color="#8268AA"/>
<stop offset="1" stop-color="#A9A1CA"/>
</linearGradient>
<linearGradient id="paint5_linear_1385_4" x1="13.682" y1="316.289" x2="447" y2="316.289" gradientUnits="userSpaceOnUse">
<stop stop-color="#948ABC"/>
<stop offset="0.9829" stop-color="#B7A9CE"/>
</linearGradient>
<linearGradient id="paint6_linear_1385_4" x1="447" y1="288.033" x2="13.682" y2="288.033" gradientUnits="userSpaceOnUse">
<stop offset="0.0171" stop-color="#D8CFE4"/>
<stop offset="1" stop-color="#F5F4F9"/>
</linearGradient>
<linearGradient id="paint7_linear_1385_4" x1="62.9056" y1="270.587" x2="397.933" y2="270.587" gradientUnits="userSpaceOnUse">
<stop stop-color="#948ABC"/>
<stop offset="0.9829" stop-color="#B7A9CE"/>
</linearGradient>
<linearGradient id="paint8_linear_1385_4" x1="397.933" y1="255.061" x2="62.9056" y2="255.061" gradientUnits="userSpaceOnUse">
<stop offset="0.0171" stop-color="#D8CFE4"/>
<stop offset="1" stop-color="#F5F4F9"/>
</linearGradient>
<linearGradient id="paint9_linear_1385_4" x1="94.0184" y1="243.438" x2="369.813" y2="243.438" gradientUnits="userSpaceOnUse">
<stop stop-color="#948ABC"/>
<stop offset="0.9829" stop-color="#B7A9CE"/>
</linearGradient>
<linearGradient id="paint10_linear_1385_4" x1="369.813" y1="235.218" x2="94.0184" y2="235.218" gradientUnits="userSpaceOnUse">
<stop offset="0.0171" stop-color="#D8CFE4"/>
<stop offset="1" stop-color="#F5F4F9"/>
</linearGradient>
<linearGradient id="paint11_linear_1385_4" x1="113.079" y1="227.643" x2="348.365" y2="227.643" gradientUnits="userSpaceOnUse">
<stop stop-color="#948ABC"/>
<stop offset="0.9829" stop-color="#B7A9CE"/>
</linearGradient>
<linearGradient id="paint12_linear_1385_4" x1="127.708" y1="215.963" x2="336.64" y2="215.963" gradientUnits="userSpaceOnUse">
<stop stop-color="#948ABC"/>
<stop offset="0.9829" stop-color="#B7A9CE"/>
</linearGradient>
<linearGradient id="paint13_linear_1385_4" x1="336.64" y1="211.412" x2="127.708" y2="211.412" gradientUnits="userSpaceOnUse">
<stop offset="0.0171" stop-color="#D8CFE4"/>
<stop offset="1" stop-color="#F5F4F9"/>
</linearGradient>
<linearGradient id="paint14_linear_1385_4" x1="218.097" y1="305.412" x2="237.087" y2="163.96" gradientUnits="userSpaceOnUse">
<stop stop-color="#948ABC"/>
<stop offset="0.9829" stop-color="#B7A9CE"/>
</linearGradient>
<linearGradient id="paint15_linear_1385_4" x1="216.722" y1="309.199" x2="236.68" y2="160.538" gradientUnits="userSpaceOnUse">
<stop stop-color="#948ABC"/>
<stop offset="0.9829" stop-color="#B7A9CE"/>
</linearGradient>
<linearGradient id="paint16_linear_1385_4" x1="217.446" y1="308.237" x2="237.383" y2="159.73" gradientUnits="userSpaceOnUse">
<stop stop-color="#948ABC"/>
<stop offset="0.9829" stop-color="#B7A9CE"/>
</linearGradient>
<linearGradient id="paint17_linear_1385_4" x1="215.67" y1="306.569" x2="235.46" y2="159.158" gradientUnits="userSpaceOnUse">
<stop stop-color="#948ABC"/>
<stop offset="0.9829" stop-color="#B7A9CE"/>
</linearGradient>
<linearGradient id="paint18_linear_1385_4" x1="216.045" y1="303.012" x2="235.351" y2="159.207" gradientUnits="userSpaceOnUse">
<stop stop-color="#948ABC"/>
<stop offset="0.9829" stop-color="#B7A9CE"/>
</linearGradient>
<linearGradient id="paint19_linear_1385_4" x1="214.867" y1="306.509" x2="234.836" y2="157.761" gradientUnits="userSpaceOnUse">
<stop stop-color="#948ABC"/>
<stop offset="0.9829" stop-color="#B7A9CE"/>
</linearGradient>
<linearGradient id="paint20_linear_1385_4" x1="324.38" y1="202.207" x2="138.113" y2="202.207" gradientUnits="userSpaceOnUse">
<stop offset="0.0171" stop-color="#D8CFE4"/>
<stop offset="1" stop-color="#F5F4F9"/>
</linearGradient>
<linearGradient id="paint21_linear_1385_4" x1="212.436" y1="316.465" x2="233.967" y2="156.083" gradientUnits="userSpaceOnUse">
<stop stop-color="#948ABC"/>
<stop offset="0.9829" stop-color="#B7A9CE"/>
</linearGradient>
<linearGradient id="paint22_linear_1385_4" x1="348.332" y1="220.916" x2="113.079" y2="220.916" gradientUnits="userSpaceOnUse">
<stop offset="0.0171" stop-color="#D8CFE4"/>
<stop offset="1" stop-color="#F5F4F9"/>
</linearGradient>
<linearGradient id="paint23_linear_1385_4" x1="91.1141" y1="206.733" x2="182.821" y2="206.733" gradientUnits="userSpaceOnUse">
<stop offset="0.016" stop-color="#D1A1D6"/>
<stop offset="0.9944" stop-color="#BD89C4"/>
</linearGradient>
<linearGradient id="paint24_linear_1385_4" x1="95.7597" y1="281.764" x2="95.7597" y2="266.729" gradientUnits="userSpaceOnUse">
<stop stop-color="#AEA8C2"/>
<stop offset="0.9829" stop-color="#8C74B1"/>
</linearGradient>
<linearGradient id="paint25_linear_1385_4" x1="90.4531" y1="274.246" x2="101.066" y2="274.246" gradientUnits="userSpaceOnUse">
<stop offset="0.016" stop-color="#D1A1D6"/>
<stop offset="0.9944" stop-color="#BD89C4"/>
</linearGradient>
<linearGradient id="paint26_linear_1385_4" x1="104.188" y1="297.593" x2="104.188" y2="284.97" gradientUnits="userSpaceOnUse">
<stop stop-color="#FFB827"/>
<stop offset="0.998" stop-color="#FF6B22"/>
</linearGradient>
<radialGradient id="paint27_radial_1385_4" cx="0" cy="0" r="1" gradientUnits="userSpaceOnUse" gradientTransform="translate(107.083 184.03) scale(54.486 54.5459)">
<stop stop-color="#4B3272"/>
<stop offset="0.9888" stop-color="#432160"/>
</radialGradient>
<linearGradient id="paint28_linear_1385_4" x1="89.1254" y1="284.527" x2="118.771" y2="284.527" gradientUnits="userSpaceOnUse">
<stop offset="0.00595246" stop-color="#570E33"/>
<stop offset="1" stop-color="#8D4009"/>
</linearGradient>
<linearGradient id="paint29_linear_1385_4" x1="136.732" y1="72.6065" x2="136.732" y2="33.0434" gradientUnits="userSpaceOnUse">
<stop offset="0.0171" stop-color="#FF9F7A"/>
<stop offset="1" stop-color="#FFB06D"/>
</linearGradient>
<linearGradient id="paint30_linear_1385_4" x1="136.093" y1="62.6719" x2="136.093" y2="30.1101" gradientUnits="userSpaceOnUse">
<stop offset="0.00558659" stop-color="#721D3B"/>
<stop offset="1" stop-color="#A63624"/>
</linearGradient>
<linearGradient id="paint31_linear_1385_4" x1="143.646" y1="52.688" x2="145.282" y2="43.42" gradientUnits="userSpaceOnUse">
<stop offset="0.0112" stop-color="#AE3438"/>
<stop offset="0.9944" stop-color="#E06E31"/>
</linearGradient>
<linearGradient id="paint32_linear_1385_4" x1="146.975" y1="46.8352" x2="147.848" y2="41.8879" gradientUnits="userSpaceOnUse">
<stop offset="0.0112" stop-color="#AE3438"/>
<stop offset="0.9944" stop-color="#E06E31"/>
</linearGradient>
<linearGradient id="paint33_linear_1385_4" x1="141.301" y1="36.7571" x2="153.054" y2="36.7571" gradientUnits="userSpaceOnUse">
<stop offset="0.0112" stop-color="#AE3438"/>
<stop offset="0.9944" stop-color="#E06E31"/>
</linearGradient>
<linearGradient id="paint34_linear_1385_4" x1="133.108" y1="32.1047" x2="141.852" y2="32.1047" gradientUnits="userSpaceOnUse">
<stop offset="0.0112" stop-color="#AE3438"/>
<stop offset="0.9944" stop-color="#E06E31"/>
</linearGradient>
<linearGradient id="paint35_linear_1385_4" x1="142.166" y1="44.2899" x2="143.633" y2="35.982" gradientUnits="userSpaceOnUse">
<stop offset="0.0112" stop-color="#AE3438"/>
<stop offset="0.9944" stop-color="#B54F31"/>
</linearGradient>
<linearGradient id="paint36_linear_1385_4" x1="123.939" y1="41.0511" x2="125.158" y2="34.1452" gradientUnits="userSpaceOnUse">
<stop offset="0.00558659" stop-color="#E06E31"/>
<stop offset="0.9888" stop-color="#AE3438"/>
</linearGradient>
<radialGradient id="paint37_radial_1385_4" cx="0" cy="0" r="1" gradientUnits="userSpaceOnUse" gradientTransform="translate(105.436 148.986) scale(7.94645 7.95518)">
<stop stop-color="#AEA8C2"/>
<stop offset="0.9829" stop-color="#8C74B1"/>
</radialGradient>
<radialGradient id="paint38_radial_1385_4" cx="0" cy="0" r="1" gradientUnits="userSpaceOnUse" gradientTransform="translate(107.509 95.527) scale(35.8542 35.8936)">
<stop stop-color="#543C79"/>
<stop offset="0.9888" stop-color="#432160"/>
</radialGradient>
<linearGradient id="paint39_linear_1385_4" x1="108.488" y1="149.091" x2="122.218" y2="71.3108" gradientUnits="userSpaceOnUse">
<stop offset="0.00558659" stop-color="#B060F4"/>
<stop offset="1" stop-color="#FFEADB"/>
</linearGradient>
<linearGradient id="paint40_linear_1385_4" x1="130.507" y1="69.63" x2="130.507" y2="66.5775" gradientUnits="userSpaceOnUse">
<stop offset="0.0171" stop-color="#E1DBEB"/>
<stop offset="0.1737" stop-color="#E7E2F1"/>
<stop offset="0.5619" stop-color="#F0ECFB"/>
<stop offset="1" stop-color="#F3F0FE"/>
</linearGradient>
<linearGradient id="paint41_linear_1385_4" x1="84.998" y1="193.555" x2="148.123" y2="189.416" gradientUnits="userSpaceOnUse">
<stop offset="0.00595246" stop-color="#570E33"/>
<stop offset="1" stop-color="#893100"/>
</linearGradient>
<linearGradient id="paint42_linear_1385_4" x1="97.2744" y1="174.075" x2="146.903" y2="170.821" gradientUnits="userSpaceOnUse">
<stop stop-color="#8D4009"/>
<stop offset="0.994" stop-color="#CC5A33"/>
</linearGradient>
<linearGradient id="paint43_linear_1385_4" x1="126.723" y1="197.863" x2="126.723" y2="190.838" gradientUnits="userSpaceOnUse">
<stop stop-color="#AEA8C2"/>
<stop offset="0.9829" stop-color="#8C74B1"/>
</linearGradient>
<linearGradient id="paint44_linear_1385_4" x1="122.614" y1="207.469" x2="122.614" y2="202.684" gradientUnits="userSpaceOnUse">
<stop stop-color="#AEA8C2"/>
<stop offset="0.9829" stop-color="#8C74B1"/>
</linearGradient>
<linearGradient id="paint45_linear_1385_4" x1="143.376" y1="100.047" x2="143.577" y2="98.9084" gradientUnits="userSpaceOnUse">
<stop offset="0.016" stop-color="#D1A1D6"/>
<stop offset="0.9944" stop-color="#BD89C4"/>
</linearGradient>
<linearGradient id="paint46_linear_1385_4" x1="124.578" y1="80.5491" x2="127.033" y2="66.6422" gradientUnits="userSpaceOnUse">
<stop offset="0.016" stop-color="#D1A1D6"/>
<stop offset="0.9944" stop-color="#BD89C4"/>
</linearGradient>
<linearGradient id="paint47_linear_1385_4" x1="138.63" y1="146.576" x2="183.832" y2="146.576" gradientUnits="userSpaceOnUse">
<stop/>
<stop offset="0.0845" stop-color="#11121C"/>
<stop offset="0.3434" stop-color="#42476B"/>
<stop offset="0.5735" stop-color="#6971AB"/>
<stop offset="0.7663" stop-color="#858FD8"/>
<stop offset="0.9144" stop-color="#97A2F5"/>
<stop offset="1" stop-color="#9DA9FF"/>
</linearGradient>
<linearGradient id="paint48_linear_1385_4" x1="108.625" y1="267.489" x2="108.625" y2="221.013" gradientUnits="userSpaceOnUse">
<stop stop-color="#4AF4FF"/>
<stop offset="0.0856" stop-color="#47EAF5"/>
<stop offset="0.2337" stop-color="#3FCFD8"/>
<stop offset="0.4265" stop-color="#32A3AB"/>
<stop offset="0.6566" stop-color="#1F676B"/>
<stop offset="0.9155" stop-color="#081A1C"/>
<stop offset="1"/>
</linearGradient>
<linearGradient id="paint49_linear_1385_4" x1="127.385" y1="167.304" x2="127.385" y2="151.643" gradientUnits="userSpaceOnUse">
<stop stop-color="#F4867C"/>
<stop offset="0.984" stop-color="#FF9F68"/>
</linearGradient>
<linearGradient id="paint50_linear_1385_4" x1="125.903" y1="167.692" x2="128.607" y2="152.373" gradientUnits="userSpaceOnUse">
<stop offset="0.016" stop-color="#D1A1D6"/>
<stop offset="0.9944" stop-color="#BD89C4"/>
</linearGradient>
<linearGradient id="paint51_linear_1385_4" x1="126.969" y1="153.708" x2="126.969" y2="151.372" gradientUnits="userSpaceOnUse">
<stop offset="0.0171" stop-color="#E1DBEB"/>
<stop offset="0.1737" stop-color="#E7E2F1"/>
<stop offset="0.5619" stop-color="#F0ECFB"/>
<stop offset="1" stop-color="#F3F0FE"/>
</linearGradient>
<linearGradient id="paint52_linear_1385_4" x1="137.949" y1="153.099" x2="137.949" y2="70.7783" gradientUnits="userSpaceOnUse">
<stop stop-color="#644E85"/>
<stop offset="0.9888" stop-color="#4B2B67"/>
</linearGradient>
<linearGradient id="paint53_linear_1385_4" x1="145.311" y1="145.686" x2="183.816" y2="145.686" gradientUnits="userSpaceOnUse">
<stop/>
<stop offset="0.0845" stop-color="#081A1C"/>
<stop offset="0.3434" stop-color="#1F676B"/>
<stop offset="0.5735" stop-color="#32A3AB"/>
<stop offset="0.7663" stop-color="#3FCFD8"/>
<stop offset="0.9144" stop-color="#47EAF5"/>
<stop offset="1" stop-color="#4AF4FF"/>
</linearGradient>
<linearGradient id="paint54_linear_1385_4" x1="89.1254" y1="285.766" x2="118.771" y2="285.766" gradientUnits="userSpaceOnUse">
<stop offset="0.016" stop-color="#D1A1D6"/>
<stop offset="0.9944" stop-color="#BD89C4"/>
</linearGradient>
<linearGradient id="paint55_linear_1385_4" x1="110.945" y1="286.657" x2="116.668" y2="286.657" gradientUnits="userSpaceOnUse">
<stop/>
<stop offset="0.0845" stop-color="#081A1C"/>
<stop offset="0.3434" stop-color="#1F676B"/>
<stop offset="0.5735" stop-color="#32A3AB"/>
<stop offset="0.7663" stop-color="#3FCFD8"/>
<stop offset="0.9144" stop-color="#47EAF5"/>
<stop offset="1" stop-color="#4AF4FF"/>
</linearGradient>
<linearGradient id="paint56_linear_1385_4" x1="92.8476" y1="274.869" x2="92.8476" y2="226.385" gradientUnits="userSpaceOnUse">
<stop stop-color="#FF5179"/>
<stop offset="0.0856" stop-color="#F54E74"/>
<stop offset="0.2337" stop-color="#D84567"/>
<stop offset="0.4265" stop-color="#AB3651"/>
<stop offset="0.6566" stop-color="#6B2233"/>
<stop offset="0.9155" stop-color="#1C090D"/>
<stop offset="1"/>
</linearGradient>
<radialGradient id="paint57_radial_1385_4" cx="0" cy="0" r="1" gradientUnits="userSpaceOnUse" gradientTransform="translate(412.123 206.978) scale(16.0689 16.0866)">
<stop stop-color="#FF5627"/>
<stop offset="0.998" stop-color="#E03347"/>
</radialGradient>
<radialGradient id="paint58_radial_1385_4" cx="0" cy="0" r="1" gradientUnits="userSpaceOnUse" gradientTransform="translate(399.975 170.763) scale(10.2449 10.2561)">
<stop stop-color="#FF5627"/>
<stop offset="0.998" stop-color="#E03347"/>
</radialGradient>
<radialGradient id="paint59_radial_1385_4" cx="0" cy="0" r="1" gradientUnits="userSpaceOnUse" gradientTransform="translate(366.431 206.49) scale(7.83669 7.84531)">
<stop stop-color="#FF5627"/>
<stop offset="0.998" stop-color="#E03347"/>
</radialGradient>
<radialGradient id="paint60_radial_1385_4" cx="0" cy="0" r="1" gradientUnits="userSpaceOnUse" gradientTransform="translate(351.296 176.874) scale(6.73103 6.73842)">
<stop stop-color="#FF5627"/>
<stop offset="0.998" stop-color="#E03347"/>
</radialGradient>
<radialGradient id="paint61_radial_1385_4" cx="0" cy="0" r="1" gradientUnits="userSpaceOnUse" gradientTransform="translate(344.077 188.426) scale(5.26867 5.27445)">
<stop stop-color="#FF5627"/>
<stop offset="0.998" stop-color="#E03347"/>
</radialGradient>
<radialGradient id="paint62_radial_1385_4" cx="0" cy="0" r="1" gradientUnits="userSpaceOnUse" gradientTransform="translate(300.662 159.514) scale(4.38037 4.38518)">
<stop stop-color="#FF5627"/>
<stop offset="0.998" stop-color="#E03347"/>
</radialGradient>
<linearGradient id="paint63_linear_1385_4" x1="360.382" y1="91.4279" x2="360.382" y2="88.1392" gradientUnits="userSpaceOnUse">
<stop offset="0.00198413" stop-color="#E03347"/>
<stop offset="1" stop-color="#FF5627"/>
</linearGradient>
<linearGradient id="paint64_linear_1385_4" x1="330.178" y1="120.745" x2="330.178" y2="114.185" gradientUnits="userSpaceOnUse">
<stop offset="0.00198413" stop-color="#E03347"/>
<stop offset="1" stop-color="#FF5627"/>
</linearGradient>
<clipPath id="clip0_1385_4">
<rect width="447" height="335" fill="white"/>
</clipPath>
</defs>
</svg>
