<svg width="479" height="368" viewBox="0 0 479 368" fill="none" xmlns="http://www.w3.org/2000/svg">
<g clip-path="url(#clip0_92_729)">
<path d="M392.776 78.8317C379.464 78.1624 366.055 77.1508 353.606 72.134C320.712 58.8737 304.647 23.6061 273.889 7.38856C247.952 -6.28685 215.017 0.758376 193.502 19.4972C168.62 41.1672 173.176 80.3102 147.063 99.7806C114.538 124.029 68.8528 99.3344 34.6758 122.794C9.53403 140.055 13.3269 169.641 21.3541 195.135C27.2096 213.718 30.8882 234.024 17.9562 250.49C5.57495 266.256 -4.17729 287.568 1.91721 307.817C10.6407 336.802 42.6199 346.893 69.1957 352.397C151.131 369.367 237.524 368.428 320.837 365.725C352.858 364.687 385.117 361.242 415.855 351.847C441.999 343.852 472.674 330.82 477.496 300.341C483.591 261.784 437.23 235.124 457.482 195.529C471.428 168.261 480.032 135.318 462.491 107.459C445.283 80.1235 419.237 80.165 392.781 78.8369L392.776 78.8317Z" fill="url(#paint0_linear_92_729)"/>
<path d="M13.4463 327.371C27.4538 341.887 49.7587 348.377 69.1852 352.398C151.121 369.367 237.514 368.428 320.826 365.726C352.847 364.688 385.107 361.243 415.844 351.848C432.434 346.779 450.832 339.667 463.307 327.371H13.4463Z" fill="url(#paint1_linear_92_729)"/>
<path d="M183.827 261.017L176.179 265.977L132.707 294.194L83.6395 326.032C83.5979 326.006 83.5564 325.97 83.5096 325.923C82.325 324.886 81.582 323.355 81.582 321.654V200.37C81.582 198.674 82.325 197.138 83.5096 196.106C83.5512 196.054 83.6031 196.012 83.6447 195.986L132.702 227.835L176.169 256.042L183.827 261.012V261.017Z" fill="url(#paint2_linear_92_729)"/>
<path d="M286.072 200.369V321.653C286.072 323.359 285.329 324.885 284.145 325.922C284.103 325.964 284.062 326.005 284.015 326.031L234.947 294.193L191.475 265.976L183.827 261.016L191.486 256.046L234.952 227.839L284.01 195.99C284.062 196.027 284.103 196.058 284.145 196.11C285.329 197.147 286.072 198.678 286.072 200.374V200.369Z" fill="url(#paint3_linear_92_729)"/>
<path d="M284.145 325.927C284.104 325.969 284.062 326.01 284.015 326.036C283.018 326.871 281.735 327.375 280.337 327.375H87.3081C85.9105 327.375 84.6271 326.871 83.6348 326.036C83.5932 326.01 83.5516 325.974 83.5049 325.927L132.697 288.828L169.581 261.011L176.164 256.051L181.433 252.077C182.851 251.013 184.794 251.013 186.207 252.077L191.486 256.051L198.059 261.011L234.948 288.828L284.14 325.927H284.145Z" fill="url(#paint4_linear_92_729)"/>
<path d="M284.145 196.11L234.952 233.204L198.063 261.011L191.48 265.981L191.241 266.163C186.851 269.473 180.798 269.473 176.413 266.163L176.184 265.981L169.591 261.011L132.707 233.204L83.5146 196.11C83.5562 196.058 83.6082 196.017 83.6497 195.991C84.6421 195.145 85.9202 194.652 87.3127 194.652H280.342C281.734 194.652 283.012 195.145 284.015 195.991C284.067 196.027 284.108 196.058 284.15 196.11H284.145Z" fill="url(#paint5_linear_92_729)"/>
<path d="M334.88 183.16H321.626V228.721H334.88V183.16Z" fill="url(#paint6_linear_92_729)"/>
<path d="M378.95 183.16H365.696V228.721H378.95V183.16Z" fill="url(#paint7_linear_92_729)"/>
<path d="M274.393 194.579C341.209 166.876 397.202 181.397 425.955 193.329C430.803 195.342 433.962 200.058 433.957 205.303L433.941 219.907C433.936 225.152 429.675 229.401 424.417 229.396L405.542 229.38C402.455 229.38 399.951 226.885 399.946 223.803L399.925 215.71C399.894 204.167 385.232 198.859 375.926 197.407C360.651 195.02 344.087 195.861 328.708 196.95C318.535 197.671 300.646 202.745 300.605 215.71L300.579 222.739C300.569 226.412 297.581 229.385 293.903 229.385H276.637C271.042 229.39 266.506 224.866 266.506 219.279V206.496C266.506 201.303 269.592 196.571 274.393 194.579Z" fill="url(#paint8_linear_92_729)"/>
<path d="M302.319 219.828H265.456C264.621 219.828 263.944 220.504 263.944 221.338V231.013C263.944 231.847 264.621 232.523 265.456 232.523H302.319C303.154 232.523 303.831 231.847 303.831 231.013V221.338C303.831 220.504 303.154 219.828 302.319 219.828Z" fill="#EA953F"/>
<path d="M435.718 219.828H398.855C398.02 219.828 397.343 220.504 397.343 221.338V231.013C397.343 231.847 398.02 232.523 398.855 232.523H435.718C436.553 232.523 437.23 231.847 437.23 231.013V221.338C437.23 220.504 436.553 219.828 435.718 219.828Z" fill="#EA953F"/>
<path d="M378.956 227.658C378.956 227.658 407.812 239.004 422.069 270.023C424.127 274.495 425.291 279.33 425.607 284.238C426.48 297.612 428.424 327.381 428.424 327.381H274.383L277.209 284.072C277.5 279.657 278.42 275.284 280.176 271.221C293.991 239.305 321.616 227.663 321.616 227.663V218.507C321.616 217.62 322.339 216.898 323.227 216.898H377.381C378.275 216.898 378.997 217.625 378.992 218.512L378.945 227.663L378.956 227.658Z" fill="url(#paint9_linear_92_729)"/>
<path d="M392.288 235.154L392.298 235.17C392.059 235.004 391.815 234.833 391.581 234.672C391.815 234.833 392.049 234.994 392.288 235.154Z" fill="url(#paint10_linear_92_729)"/>
<path d="M428.428 327.38H274.388L275.785 305.996H367.707C388.708 305.996 405.339 288.268 403.972 267.346C403.869 265.706 403.77 264.202 403.682 262.842C403.37 258.033 402.268 253.302 400.268 248.918C397.945 243.813 395.218 239.253 392.298 235.17C401.77 241.681 414.161 252.824 422.074 270.022C424.132 274.494 425.295 279.324 425.612 284.237C426.49 297.617 428.434 327.38 428.434 327.38H428.428Z" fill="url(#paint11_linear_92_729)"/>
<path d="M350.229 298.411C365.313 298.411 377.542 286.201 377.542 271.138C377.542 256.076 365.313 243.865 350.229 243.865C335.144 243.865 322.915 256.076 322.915 271.138C322.915 286.201 335.144 298.411 350.229 298.411Z" fill="url(#paint12_linear_92_729)"/>
<path d="M434.985 314.26H267.83C266.619 314.26 265.638 315.24 265.638 316.449V325.186C265.638 326.395 266.619 327.375 267.83 327.375H434.985C436.196 327.375 437.177 326.395 437.177 325.186V316.449C437.177 315.24 436.196 314.26 434.985 314.26Z" fill="url(#paint13_linear_92_729)"/>
<path d="M350.229 291.771C365.313 291.771 377.542 279.56 377.542 264.498C377.542 249.435 365.313 237.225 350.229 237.225C335.144 237.225 322.915 249.435 322.915 264.498C322.915 279.56 335.144 291.771 350.229 291.771Z" fill="#FFF4D7"/>
<path d="M350.228 279.687C358.63 279.687 365.441 272.886 365.441 264.497C365.441 256.108 358.63 249.307 350.228 249.307C341.827 249.307 335.016 256.108 335.016 264.497C335.016 272.886 341.827 279.687 350.228 279.687Z" fill="#EA953F"/>
<path d="M350.229 245.723C351.727 245.723 352.941 244.51 352.941 243.015C352.941 241.519 351.727 240.307 350.229 240.307C348.731 240.307 347.517 241.519 347.517 243.015C347.517 244.51 348.731 245.723 350.229 245.723Z" fill="#FDB15D"/>
<path d="M365.442 252.016C366.94 252.016 368.154 250.803 368.154 249.308C368.154 247.812 366.94 246.6 365.442 246.6C363.944 246.6 362.729 247.812 362.729 249.308C362.729 250.803 363.944 252.016 365.442 252.016Z" fill="#FDB15D"/>
<path d="M371.743 267.205C373.241 267.205 374.456 265.993 374.456 264.497C374.456 263.002 373.241 261.789 371.743 261.789C370.246 261.789 369.031 263.002 369.031 264.497C369.031 265.993 370.246 267.205 371.743 267.205Z" fill="#FDB15D"/>
<path d="M365.442 282.403C366.94 282.403 368.154 281.19 368.154 279.694C368.154 278.199 366.94 276.986 365.442 276.986C363.944 276.986 362.729 278.199 362.729 279.694C362.729 281.19 363.944 282.403 365.442 282.403Z" fill="#FDB15D"/>
<path d="M350.229 288.69C351.727 288.69 352.941 287.477 352.941 285.982C352.941 284.486 351.727 283.273 350.229 283.273C348.731 283.273 347.517 284.486 347.517 285.982C347.517 287.477 348.731 288.69 350.229 288.69Z" fill="#FDB15D"/>
<path d="M335.01 282.403C336.508 282.403 337.722 281.19 337.722 279.694C337.722 278.199 336.508 276.986 335.01 276.986C333.512 276.986 332.298 278.199 332.298 279.694C332.298 281.19 333.512 282.403 335.01 282.403Z" fill="#FDB15D"/>
<path d="M328.713 267.205C330.211 267.205 331.425 265.993 331.425 264.497C331.425 263.002 330.211 261.789 328.713 261.789C327.215 261.789 326.001 263.002 326.001 264.497C326.001 265.993 327.215 267.205 328.713 267.205Z" fill="#FDB15D"/>
<path d="M335.01 252.016C336.508 252.016 337.722 250.803 337.722 249.308C337.722 247.812 336.508 246.6 335.01 246.6C333.512 246.6 332.298 247.812 332.298 249.308C332.298 250.803 333.512 252.016 335.01 252.016Z" fill="#FDB15D"/>
<path d="M228.318 327.666H238.527C239.073 327.666 239.535 327.262 239.603 326.722L241.094 314.8C241.188 314.048 240.6 313.379 239.837 313.379H227.003C226.245 313.379 225.653 314.043 225.746 314.8L227.237 326.722C227.305 327.262 227.767 327.666 228.313 327.666H228.318Z" fill="url(#paint14_linear_92_729)"/>
<path d="M242.003 302.941V297.862C242.003 296.902 241.223 296.129 240.267 296.129C239.306 296.129 238.532 296.907 238.532 297.862V300.596C238.532 301.218 238.028 301.721 237.405 301.721H236.329V305.187H239.758C241 305.187 242.008 304.181 242.008 302.941H242.003Z" fill="url(#paint15_linear_92_729)"/>
<path d="M225.003 308.617V304.487C225.003 303.709 225.637 303.076 226.416 303.076C227.195 303.076 227.829 303.709 227.829 304.487V306.708C227.829 307.216 228.24 307.626 228.749 307.626H229.622V310.443H226.837C225.829 310.443 225.008 309.623 225.008 308.617H225.003Z" fill="url(#paint16_linear_92_729)"/>
<path d="M236.438 313.379H229.617V294.645C229.617 293.431 230.604 292.446 231.82 292.446H234.23C235.446 292.446 236.433 293.431 236.433 294.645V313.379H236.438Z" fill="url(#paint17_linear_92_729)"/>
<path d="M227.242 326.723L227.117 325.742H239.722L239.597 326.723C239.53 327.262 239.067 327.667 238.522 327.667H228.312C227.767 327.667 227.304 327.262 227.237 326.723H227.242Z" fill="url(#paint18_linear_92_729)"/>
<path d="M290.853 327.666H280.644C280.098 327.666 279.636 327.262 279.568 326.722L278.077 314.8C277.984 314.048 278.571 313.379 279.335 313.379H292.168C292.926 313.379 293.519 314.043 293.425 314.8L291.934 326.722C291.866 327.262 291.404 327.666 290.858 327.666H290.853Z" fill="url(#paint19_linear_92_729)"/>
<path d="M277.162 302.941V297.862C277.162 296.902 277.942 296.129 278.898 296.129C279.859 296.129 280.633 296.907 280.633 297.862V300.596C280.633 301.218 281.137 301.721 281.761 301.721H282.836V305.187H279.407C278.165 305.187 277.157 304.181 277.157 302.941H277.162Z" fill="url(#paint20_linear_92_729)"/>
<path d="M294.168 308.617V304.487C294.168 303.709 293.534 303.076 292.755 303.076C291.975 303.076 291.341 303.709 291.341 304.487V306.708C291.341 307.216 290.931 307.626 290.422 307.626H289.549V310.443H292.334C293.342 310.443 294.163 309.623 294.163 308.617H294.168Z" fill="url(#paint21_linear_92_729)"/>
<path d="M284.935 292.451H287.346C288.561 292.451 289.548 293.437 289.548 294.651V313.385H282.727V294.651C282.727 293.437 283.714 292.451 284.93 292.451H284.935Z" fill="url(#paint22_linear_92_729)"/>
<path d="M291.923 326.723L292.048 325.742H279.443L279.568 326.723C279.636 327.262 280.098 327.667 280.644 327.667H290.853C291.399 327.667 291.861 327.262 291.929 326.723H291.923Z" fill="url(#paint23_linear_92_729)"/>
<path d="M267.362 327.667H252.222C251.412 327.667 250.731 327.066 250.632 326.267L248.419 308.597C248.279 307.481 249.152 306.49 250.279 306.49H269.306C270.433 306.49 271.306 307.476 271.166 308.597L268.952 326.267C268.854 327.066 268.168 327.667 267.362 327.667Z" fill="url(#paint24_linear_92_729)"/>
<path d="M247.069 291.003V283.47C247.069 282.049 248.222 280.902 249.641 280.902C251.064 280.902 252.212 282.054 252.212 283.47V287.522C252.212 288.446 252.961 289.193 253.885 289.193H255.48V294.334H250.399C248.555 294.334 247.063 292.84 247.063 291.003H247.069Z" fill="url(#paint25_linear_92_729)"/>
<path d="M272.272 299.418V293.296C272.272 292.144 271.337 291.205 270.179 291.205C269.025 291.205 268.085 292.139 268.085 293.296V296.59C268.085 297.342 267.477 297.949 266.723 297.949H265.43V302.131H269.56C271.057 302.131 272.272 300.917 272.272 299.423V299.418Z" fill="url(#paint26_linear_92_729)"/>
<path d="M258.587 275.455H262.162C263.965 275.455 265.43 276.918 265.43 278.718V306.489H255.319V278.718C255.319 276.918 256.784 275.455 258.587 275.455Z" fill="url(#paint27_linear_92_729)"/>
<path d="M268.953 326.265L269.135 324.812H250.451L250.633 326.265C250.732 327.064 251.418 327.666 252.223 327.666H267.363C268.174 327.666 268.854 327.064 268.953 326.265Z" fill="url(#paint28_linear_92_729)"/>
<path d="M315.61 19.4766H203.555C197.928 19.4766 193.366 24.0368 193.366 29.6501V258.91C193.366 264.529 197.933 269.079 203.555 269.079H315.61C321.236 269.079 325.793 264.529 325.793 258.91V29.6553C325.793 24.0368 321.236 19.4817 315.61 19.4817V19.4766ZM320.971 258.905C320.971 261.857 318.566 264.259 315.61 264.259H203.555C200.599 264.259 198.188 261.857 198.188 258.905V29.6553C198.188 26.7034 200.599 24.2962 203.555 24.2962H315.61C318.566 24.2962 320.971 26.7034 320.971 29.6553V258.91V258.905Z" fill="url(#paint29_linear_92_729)"/>
<path d="M320.977 27.7624V260.805C320.977 262.714 319.423 264.27 317.506 264.27H201.658C199.741 264.27 198.188 262.719 198.188 260.805V27.7624C198.188 25.8481 199.741 24.2969 201.658 24.2969L317.506 24.2969C319.418 24.2969 320.977 25.8481 320.977 27.7624Z" fill="url(#paint30_linear_92_729)"/>
<path d="M315.609 24.2969H203.555C200.598 24.2969 198.188 26.6989 198.188 29.656V35.7985H320.971V29.656C320.971 26.7041 318.566 24.2969 315.604 24.2969H315.609Z" fill="#FAF1FC"/>
<path d="M207.487 31.5855C208.34 31.5855 209.031 30.8957 209.031 30.0447C209.031 29.1938 208.34 28.5039 207.487 28.5039C206.635 28.5039 205.944 29.1938 205.944 30.0447C205.944 30.8957 206.635 31.5855 207.487 31.5855Z" fill="#FF6382"/>
<path d="M213.182 31.5855C214.034 31.5855 214.725 30.8957 214.725 30.0447C214.725 29.1938 214.034 28.5039 213.182 28.5039C212.33 28.5039 211.639 29.1938 211.639 30.0447C211.639 30.8957 212.33 31.5855 213.182 31.5855Z" fill="#FEC40C"/>
<path d="M218.871 31.5855C219.723 31.5855 220.414 30.8957 220.414 30.0447C220.414 29.1938 219.723 28.5039 218.871 28.5039C218.019 28.5039 217.328 29.1938 217.328 30.0447C217.328 30.8957 218.019 31.5855 218.871 31.5855Z" fill="#10C392"/>
<path d="M259.585 70.4797C267.608 70.4797 274.112 63.9854 274.112 55.9742C274.112 47.9631 267.608 41.4688 259.585 41.4688C251.562 41.4688 245.058 47.9631 245.058 55.9742C245.058 63.9854 251.562 70.4797 259.585 70.4797Z" fill="url(#paint31_linear_92_729)"/>
<path opacity="0.3" d="M259.585 41.4688C258.463 41.4688 257.377 41.6088 256.327 41.8475C256.161 42.7242 256.067 43.6269 256.067 44.5504C256.067 52.5606 262.572 59.0559 270.594 59.0559C271.717 59.0559 272.803 58.9158 273.852 58.6771C274.018 57.8004 274.112 56.8977 274.112 55.9742C274.112 47.9641 267.607 41.4688 259.585 41.4688Z" fill="white"/>
<path d="M267.789 63.2991C265.778 65.5559 262.848 66.967 259.585 66.967C256.322 66.967 253.397 65.5559 251.376 63.2991C253.075 59.6676 256.114 57.25 259.585 57.25C263.056 57.25 266.1 59.6624 267.789 63.2991Z" fill="url(#paint32_linear_92_729)"/>
<path d="M259.585 54.7237C261.527 54.7237 263.102 53.1512 263.102 51.2115C263.102 49.2717 261.527 47.6992 259.585 47.6992C257.642 47.6992 256.067 49.2717 256.067 51.2115C256.067 53.1512 257.642 54.7237 259.585 54.7237Z" fill="white"/>
<path d="M267.124 62.0449C267.56 62.7712 267.425 63.7362 266.781 64.2913C264.853 65.9618 262.339 66.9683 259.585 66.9683C256.831 66.9683 254.317 65.9618 252.384 64.2913C251.74 63.7362 251.599 62.7712 252.041 62.0397C253.807 59.1138 256.53 57.2461 259.585 57.2461C262.64 57.2461 265.363 59.1138 267.124 62.0397V62.0449Z" fill="white"/>
<path d="M305.79 78.957H213.375C212.652 78.957 212.065 79.5424 212.065 80.2644V90.054C212.065 90.7761 212.652 91.3614 213.375 91.3614H305.79C306.513 91.3614 307.099 90.7761 307.099 90.054V80.2644C307.099 79.5424 306.513 78.957 305.79 78.957Z" fill="white"/>
<path d="M305.79 101.488H213.375C212.652 101.488 212.065 102.074 212.065 102.796V112.585C212.065 113.307 212.652 113.893 213.375 113.893H305.79C306.513 113.893 307.099 113.307 307.099 112.585V102.796C307.099 102.074 306.513 101.488 305.79 101.488Z" fill="white"/>
<path d="M305.79 124.025H213.375C212.652 124.025 212.065 124.611 212.065 125.333V135.122C212.065 135.844 212.652 136.43 213.375 136.43H305.79C306.513 136.43 307.099 135.844 307.099 135.122V125.333C307.099 124.611 306.513 124.025 305.79 124.025Z" fill="white"/>
<path d="M305.79 146.557H213.375C212.652 146.557 212.065 147.142 212.065 147.864V201.736C212.065 202.458 212.652 203.043 213.375 203.043H305.79C306.513 203.043 307.099 202.458 307.099 201.736V147.864C307.099 147.142 306.513 146.557 305.79 146.557Z" fill="white"/>
<path d="M252.732 212.488H214.092C212.973 212.488 212.065 213.394 212.065 214.512V225.941C212.065 227.058 212.973 227.964 214.092 227.964H252.732C253.851 227.964 254.758 227.058 254.758 225.941V214.512C254.758 213.394 253.851 212.488 252.732 212.488Z" fill="#D5D7FC"/>
<path d="M305.436 212.488H265.716C264.992 212.488 264.406 213.074 264.406 213.796V226.657C264.406 227.379 264.992 227.964 265.716 227.964H305.436C306.159 227.964 306.746 227.379 306.746 226.657V213.796C306.746 213.074 306.159 212.488 305.436 212.488Z" fill="url(#paint33_linear_92_729)"/>
<path opacity="0.2" d="M304.725 212.488H276.809V219.923C276.809 221.038 277.713 221.946 278.835 221.946H306.751V214.512C306.751 213.396 305.847 212.488 304.725 212.488Z" fill="white"/>
<path d="M178.595 90.1211H143.239C142.295 90.1211 141.529 90.8853 141.529 91.8279V127.132C141.529 128.075 142.295 128.839 143.239 128.839H178.595C179.539 128.839 180.304 128.075 180.304 127.132V91.8279C180.304 90.8853 179.539 90.1211 178.595 90.1211Z" fill="url(#paint34_linear_92_729)"/>
<path opacity="0.2" d="M177.654 90.1211H160.914V109.851C160.914 111.309 162.099 112.497 163.564 112.497H180.304V92.7669C180.304 91.3091 179.12 90.1211 177.654 90.1211Z" fill="white"/>
<path d="M173.976 100.014H147.629C147.175 100.014 146.808 100.381 146.808 100.833V117.803C146.808 118.256 147.175 118.623 147.629 118.623H173.976C174.429 118.623 174.797 118.256 174.797 117.803V100.833C174.797 100.381 174.429 100.014 173.976 100.014Z" fill="url(#paint35_linear_92_729)"/>
<path d="M173.524 100.014H148.086C147.489 100.014 146.995 100.424 146.855 100.973C146.839 101.077 146.824 101.176 146.813 101.285L159.584 110.462C160.317 110.986 161.299 110.986 162.026 110.462L174.797 101.285C174.797 100.584 174.226 100.014 173.524 100.014Z" fill="url(#paint36_linear_92_729)"/>
<path d="M307.271 218.471L306.928 217.745C306.928 217.745 308.31 217.086 310.367 215.747L310.809 216.422C308.699 217.797 307.328 218.445 307.271 218.471ZM314.108 214.067L313.615 213.434C314.664 212.624 315.693 211.758 316.67 210.871L317.21 211.467C316.218 212.37 315.173 213.247 314.108 214.072V214.067ZM320.104 208.624L319.517 208.075C320.431 207.104 321.309 206.093 322.125 205.066L322.754 205.564C321.922 206.606 321.029 207.634 320.099 208.624H320.104ZM325.149 202.3L324.479 201.854C325.216 200.749 325.913 199.603 326.541 198.456L327.248 198.84C326.604 200.012 325.897 201.175 325.149 202.3ZM329.04 195.208L328.303 194.887C328.833 193.683 329.311 192.433 329.737 191.177L330.5 191.432C330.074 192.708 329.581 193.979 329.046 195.203L329.04 195.208ZM331.612 187.546L330.833 187.359C331.139 186.083 331.394 184.77 331.592 183.458L332.386 183.577C332.184 184.91 331.924 186.249 331.612 187.546ZM180.627 179.862L179.837 179.712C179.873 179.53 179.91 179.344 179.951 179.162L180.736 179.333C180.699 179.51 180.663 179.686 180.627 179.862ZM332.823 179.562L332.023 179.51C332.101 178.374 332.137 177.206 332.137 176.044V175.531H332.937V176.044C332.937 177.222 332.901 178.41 332.823 179.562ZM181.889 175.562L181.141 175.266C181.629 174.026 182.222 172.791 182.897 171.593L183.599 171.987C182.939 173.149 182.367 174.348 181.889 175.557V175.562ZM230.884 173.979C229.565 173.85 228.214 173.601 226.873 173.227L227.086 172.454C228.38 172.812 229.684 173.056 230.962 173.18L230.884 173.979ZM234.973 173.979L234.89 173.18C236.21 173.046 237.498 172.771 238.724 172.366L238.979 173.129C237.701 173.554 236.35 173.839 234.973 173.979ZM282.207 172.501L282.082 171.707C283.064 171.551 284.197 170.877 285.272 169.813L285.839 170.384C284.628 171.583 283.371 172.314 282.212 172.501H282.207ZM223.044 171.837C221.839 171.297 220.628 170.654 219.454 169.928L219.875 169.243C221.023 169.954 222.197 170.576 223.371 171.105L223.044 171.837ZM331.955 171.551C331.888 170.695 331.794 169.808 331.68 168.926C331.623 168.475 331.56 168.034 331.488 167.603L332.283 167.474C332.355 167.92 332.418 168.366 332.48 168.828C332.594 169.725 332.688 170.618 332.755 171.489L331.955 171.557V171.551ZM242.699 171.391L242.273 170.711C243.375 170.026 244.403 169.206 245.333 168.273L245.905 168.838C244.933 169.819 243.853 170.675 242.699 171.391ZM278.674 170.291C278.263 169.289 278.05 167.972 278.05 166.374V166.192L278.856 166.203V166.374C278.856 167.868 279.043 169.082 279.417 169.985L278.674 170.291ZM185.781 168.688L185.142 168.2C185.978 167.1 186.887 166.073 187.838 165.149L188.399 165.725C187.475 166.628 186.596 167.624 185.781 168.688ZM216.134 167.593C215.417 167.022 214.7 166.415 214.009 165.777C213.702 165.497 213.39 165.222 213.084 164.963L213.603 164.351C213.92 164.62 214.237 164.895 214.554 165.186C215.235 165.808 215.931 166.405 216.638 166.965L216.139 167.593H216.134ZM288.301 167.09L287.6 166.695C288.229 165.575 288.748 164.366 289.138 163.09L289.907 163.323C289.502 164.651 288.961 165.917 288.301 167.09ZM248.451 165.637L247.77 165.207C248.456 164.133 249.059 162.955 249.557 161.705L250.306 162C249.786 163.297 249.162 164.522 248.451 165.637ZM330.636 163.728C330.272 162.431 329.825 161.176 329.316 160.003L330.054 159.687C330.578 160.895 331.036 162.182 331.41 163.515L330.636 163.733V163.728ZM191.434 163.209L190.976 162.55C192.135 161.751 193.335 161.087 194.556 160.569L194.868 161.305C193.699 161.798 192.545 162.441 191.434 163.209ZM209.878 162.649C208.714 161.943 207.519 161.373 206.335 160.952L206.605 160.195C207.841 160.636 209.083 161.227 210.294 161.964L209.878 162.649ZM279.235 162.281L278.445 162.125C278.71 160.802 279.157 159.5 279.775 158.244L280.497 158.597C279.91 159.79 279.484 161.03 279.235 162.281ZM198.624 160.211L198.495 159.417C199.851 159.199 201.243 159.152 202.604 159.287L202.526 160.086C201.233 159.956 199.913 159.998 198.624 160.211ZM290.697 159.313L289.896 159.24C289.948 158.68 289.974 158.109 289.974 157.544C289.974 156.802 289.928 156.05 289.839 155.318L290.634 155.225C290.728 155.988 290.774 156.771 290.774 157.549C290.774 158.135 290.748 158.732 290.697 159.318V159.313ZM251.506 158.109L250.721 157.933C251.002 156.688 251.204 155.37 251.324 154.027L252.124 154.099C251.999 155.484 251.792 156.833 251.506 158.115V158.109ZM327.482 156.512C326.775 155.391 325.975 154.333 325.107 153.368L325.705 152.833C326.604 153.835 327.43 154.929 328.157 156.086L327.477 156.512H327.482ZM282.622 155.313L281.999 154.81C282.83 153.788 283.792 152.807 284.857 151.894L285.381 152.506C284.353 153.383 283.423 154.333 282.622 155.313ZM288.972 151.495C288.764 150.877 288.525 150.265 288.249 149.658L288.151 149.503C288.151 149.503 288.166 149.492 288.171 149.492C287.927 148.958 287.657 148.434 287.361 147.915L288.062 147.521C288.353 148.034 288.618 148.553 288.868 149.082C289.787 148.548 290.754 148.055 291.751 147.609L292.079 148.341C291.081 148.787 290.115 149.285 289.195 149.824C289.392 150.296 289.574 150.774 289.735 151.251L288.972 151.505V151.495ZM322.229 150.68C321.2 149.876 320.094 149.15 318.925 148.527L319.304 147.822C320.509 148.47 321.657 149.217 322.723 150.053L322.229 150.686V150.68ZM252.555 150.146L251.766 150.006C252.01 148.626 252.368 147.303 252.82 146.068L253.574 146.343C253.137 147.531 252.794 148.813 252.555 150.146ZM315.308 146.945C314.082 146.52 312.799 146.177 311.484 145.928L311.635 145.14C312.986 145.399 314.311 145.747 315.573 146.188L315.308 146.945ZM295.788 146.935L295.549 146.167C296.838 145.767 298.163 145.441 299.498 145.191L299.643 145.98C298.345 146.224 297.046 146.546 295.788 146.935ZM303.587 145.482L303.53 144.683C304.886 144.59 306.247 144.579 307.593 144.657L307.551 145.456C306.237 145.383 304.912 145.394 303.587 145.482ZM285.168 144.626C284.347 143.562 283.459 142.572 282.529 141.684L283.085 141.103C284.041 142.022 284.955 143.044 285.802 144.133L285.168 144.626ZM255.293 142.826L254.613 142.395C255.361 141.218 256.229 140.149 257.2 139.215L257.756 139.796C256.831 140.683 256 141.7 255.293 142.826ZM279.474 139.184C278.372 138.426 277.219 137.778 276.04 137.254L276.367 136.522C277.588 137.067 278.788 137.742 279.926 138.52L279.469 139.179L279.474 139.184ZM260.899 137.482L260.51 136.777C261.705 136.118 262.993 135.615 264.334 135.277L264.526 136.056C263.253 136.372 262.027 136.854 260.894 137.477L260.899 137.482ZM272.309 136.014C271.026 135.729 269.727 135.583 268.454 135.583L268.412 134.779C269.789 134.779 271.145 134.93 272.486 135.231L272.309 136.014Z" fill="#A9AFD3"/>
<path opacity="0.08" d="M24.4824 329.512C24.4824 331.981 74.6101 333.984 136.444 333.984C198.277 333.984 248.405 331.981 248.405 329.512C248.405 328.734 243.438 328.002 234.704 327.369H38.1886C29.4547 328.007 24.4876 328.739 24.4876 329.512H24.4824Z" fill="black"/>
<path d="M103.861 250.125L83.8684 326.419C83.723 326.984 83.2086 327.379 82.6267 327.379C81.811 327.379 81.2031 326.632 81.3693 325.833L97.2628 250.125H103.861Z" fill="url(#paint37_linear_92_729)"/>
<path d="M141.41 327.379C140.828 327.379 140.314 326.984 140.169 326.419L120.176 250.125H126.774L142.668 325.833C142.834 326.632 142.226 327.379 141.41 327.379Z" fill="url(#paint38_linear_92_729)"/>
<path d="M50.0394 250.214L33.6627 328.204C33.5016 328.967 34.0835 329.683 34.8629 329.683C35.424 329.683 35.9072 329.304 36.0527 328.765L56.6378 250.209H50.0394V250.214Z" fill="url(#paint39_linear_92_729)"/>
<path d="M86.5389 250.214L102.916 328.204C103.077 328.967 102.495 329.683 101.715 329.683C101.154 329.683 100.671 329.304 100.526 328.765L79.9404 250.209H86.5389V250.214Z" fill="url(#paint40_linear_92_729)"/>
<path d="M100.333 171.669L97.5797 163.757C96.2964 160.074 92.8205 157.609 88.9186 157.609H62.9974C57.3706 157.609 52.6633 161.884 52.1333 167.477L45.3322 238.998C44.4957 247.791 51.4215 255.392 60.2645 255.392H130.562C132.136 255.392 133.414 254.115 133.414 252.543C133.414 250.972 132.136 249.695 130.562 249.695H118.96L100.333 171.663V171.669Z" fill="url(#paint41_linear_92_729)"/>
<path d="M50.4395 231.692L55.1052 161.78C55.1364 161.468 55.1832 161.162 55.2351 160.861C53.5258 162.589 52.3775 164.887 52.1333 167.476L45.3322 238.997C44.4957 247.79 51.4215 255.391 60.2645 255.391H130.562C132.136 255.391 133.414 254.115 133.414 252.543C133.414 250.971 132.136 249.694 130.562 249.694H67.3098C57.5316 249.694 49.7901 241.435 50.4395 231.692Z" fill="url(#paint42_linear_92_729)"/>
<path d="M167.715 221.219L145.862 325.289C145.634 326.368 146.46 327.38 147.561 327.38C148.351 327.38 149.042 326.845 149.24 326.083L176.725 221.219H167.715Z" fill="url(#paint43_linear_92_729)"/>
<path d="M213.458 221.219L235.31 325.289C235.539 326.368 234.713 327.38 233.611 327.38C232.822 327.38 232.131 326.845 231.933 326.083L204.448 221.219H213.458Z" fill="url(#paint44_linear_92_729)"/>
<path d="M119.791 214.863H148.741V217.437H119.791C119.334 217.437 118.96 217.063 118.96 216.606V215.699C118.96 215.242 119.334 214.868 119.791 214.868V214.863Z" fill="url(#paint45_linear_92_729)"/>
<path d="M160.914 148.148C160.914 148.148 163.772 147.198 165.159 146.067C166.546 144.937 166.307 144.397 166.837 144.324C167.367 144.252 168.178 145.165 167.289 146.763C166.401 148.361 160.914 148.148 160.914 148.148Z" fill="url(#paint46_linear_92_729)"/>
<path d="M174.772 145.554C174.772 145.554 176.533 145.409 176.84 146.166C177.146 146.924 174.642 147.474 173.016 147.941C171.389 148.408 166.365 150.197 165.394 150.893C164.422 151.588 168.043 148.506 169.623 147.505C171.202 146.504 174.772 145.554 174.772 145.554Z" fill="url(#paint47_linear_92_729)"/>
<path d="M168.869 148.755C171.54 147.012 175.395 146.177 175.494 145.57C175.592 144.963 175.333 144.833 174.787 144.833C174.242 144.833 172.834 145.124 172.834 145.124C172.911 144.683 172.543 144.299 171.846 144.33C171.155 144.361 169.462 145.399 167.492 146.441C165.523 147.495 163.388 147.863 161.128 147.904C158.862 147.946 156.722 150.27 156.436 152.719C156.145 155.168 154.368 181.522 154.368 181.522V189.605C154.368 190.689 154.706 191.696 155.283 192.531L159.216 193.351C162.037 193.942 164.635 191.665 164.417 188.801L161.855 154.96C161.814 154.415 162.032 153.876 162.442 153.523C163.767 152.376 166.765 150.146 168.88 148.766L168.869 148.755Z" fill="url(#paint48_linear_92_729)"/>
<path d="M155.282 192.525L123.817 185.967L123.599 185.921L109.155 167.062L121.334 168.297C122.176 168.375 123.012 168.562 123.817 168.826C124.093 168.915 124.358 169.013 124.623 169.122L154.368 181.511V189.594C154.368 190.683 154.706 191.69 155.282 192.525Z" fill="url(#paint49_linear_92_729)"/>
<path d="M123.812 168.827V225.645H77.758L75.6382 183.706L75.3784 178.699C75.1862 174.902 77.7165 171.499 81.4158 170.596L87.9571 168.982L98.0574 166.492L109.15 167.063L121.329 168.298C122.17 168.375 123.007 168.562 123.812 168.827Z" fill="url(#paint50_linear_92_729)"/>
<path d="M79.9398 193.173C79.9398 193.173 84.2885 206.693 83.5144 213.956C82.7402 221.214 84.6107 225.816 99.2364 221.214C111.929 217.224 119.936 218.573 123.812 220.374V211.865L89.3335 208.742L79.9346 193.168L79.9398 193.173Z" fill="url(#paint51_linear_92_729)"/>
<path d="M106.438 174.881C106.698 174.881 106.957 174.85 107.212 174.788C108.054 174.58 108.776 174.041 109.212 173.299L111.924 168.687C112.158 168.287 112.298 167.846 112.345 167.385L109.155 167.063L98.0624 166.492L94.9502 167.26C95.1476 168.064 95.6516 168.775 96.3738 169.221L104.749 174.404C105.264 174.72 105.851 174.886 106.443 174.886L106.438 174.881Z" fill="white"/>
<path d="M166.812 149.165L166.453 148.683C167.71 147.749 172.48 144.979 172.683 144.859L172.984 145.378C172.932 145.409 168.043 148.247 166.812 149.16V149.165Z" fill="#FF9C85"/>
<path d="M88.5858 212.223L75.6382 183.7L75.3784 178.694C75.1862 174.896 77.7165 171.493 81.4158 170.59L87.9571 168.977L99.2316 205.588H96.426C92.4305 205.588 89.1469 208.607 88.726 212.472L88.5806 212.223H88.5858Z" fill="url(#paint52_linear_92_729)"/>
<mask id="mask0_92_729" style="mask-type:luminance" maskUnits="userSpaceOnUse" x="75" y="166" width="81" height="60">
<path d="M154.363 189.594V181.511L124.618 169.122C124.353 169.008 124.088 168.915 123.812 168.827C123.007 168.562 122.17 168.375 121.329 168.298L109.15 167.063L98.0574 166.492L87.9571 168.982L81.4158 170.596C77.7165 171.504 75.1862 174.907 75.3784 178.699L75.6382 183.706L77.758 225.645H123.812V185.968L155.277 192.525C154.7 191.69 154.363 190.689 154.363 189.594Z" fill="white"/>
</mask>
<g mask="url(#mask0_92_729)">
<g opacity="0.4">
<path d="M83.0241 120.928L38.7148 226.695L39.3188 226.948L83.628 121.18L83.0241 120.928Z" fill="white"/>
<path d="M92.651 124.953L48.3418 230.721L48.9457 230.973L93.255 125.206L92.651 124.953Z" fill="white"/>
<path d="M102.281 128.973L57.9717 234.74L58.5756 234.992L102.885 129.225L102.281 128.973Z" fill="white"/>
<path d="M111.909 132.99L67.5996 238.758L68.2036 239.01L112.513 133.243L111.909 132.99Z" fill="white"/>
<path d="M121.542 137.018L77.2324 242.785L77.8364 243.037L122.146 137.27L121.542 137.018Z" fill="white"/>
<path d="M131.172 141.035L86.8623 246.803L87.4663 247.055L131.775 141.288L131.172 141.035Z" fill="white"/>
<path d="M140.795 145.061L96.4854 250.828L97.0893 251.08L141.399 145.313L140.795 145.061Z" fill="white"/>
<path d="M150.426 149.086L106.117 254.854L106.721 255.106L151.03 149.338L150.426 149.086Z" fill="white"/>
<path d="M160.056 153.106L115.747 258.873L116.351 259.125L160.66 153.358L160.056 153.106Z" fill="white"/>
<path d="M169.684 157.129L125.375 262.896L125.979 263.149L170.288 157.381L169.684 157.129Z" fill="white"/>
<path d="M179.312 161.154L135.003 266.922L135.607 267.174L179.916 161.407L179.312 161.154Z" fill="white"/>
<path d="M188.942 165.168L144.633 270.936L145.237 271.188L189.546 165.42L188.942 165.168Z" fill="white"/>
<path d="M83.0241 120.928L38.7148 226.695L39.3188 226.948L83.628 121.18L83.0241 120.928Z" fill="white"/>
<path d="M92.651 124.953L48.3418 230.721L48.9457 230.973L93.255 125.206L92.651 124.953Z" fill="white"/>
<path d="M102.281 128.973L57.9717 234.74L58.5756 234.992L102.885 129.225L102.281 128.973Z" fill="white"/>
<path d="M111.909 132.99L67.5996 238.758L68.2036 239.01L112.513 133.243L111.909 132.99Z" fill="white"/>
<path d="M121.542 137.018L77.2324 242.785L77.8364 243.037L122.146 137.27L121.542 137.018Z" fill="white"/>
<path d="M131.172 141.035L86.8623 246.803L87.4663 247.055L131.775 141.288L131.172 141.035Z" fill="white"/>
<path d="M140.795 145.061L96.4854 250.828L97.0893 251.08L141.399 145.313L140.795 145.061Z" fill="white"/>
<path d="M150.426 149.086L106.117 254.854L106.721 255.106L151.03 149.338L150.426 149.086Z" fill="white"/>
<path d="M160.056 153.106L115.747 258.873L116.351 259.125L160.66 153.358L160.056 153.106Z" fill="white"/>
<path d="M169.684 157.129L125.375 262.896L125.979 263.149L170.288 157.381L169.684 157.129Z" fill="white"/>
<path d="M179.312 161.154L135.003 266.922L135.607 267.174L179.916 161.407L179.312 161.154Z" fill="white"/>
<path d="M188.942 165.168L144.633 270.936L145.237 271.188L189.546 165.42L188.942 165.168Z" fill="white"/>
<path d="M79.4187 130.372L79.166 130.975L185.091 175.218L185.343 174.615L79.4187 130.372Z" fill="white"/>
<path d="M75.3923 139.987L75.1396 140.59L181.064 184.833L181.317 184.23L75.3923 139.987Z" fill="white"/>
<path d="M71.3669 149.6L71.1143 150.203L177.039 194.447L177.292 193.844L71.3669 149.6Z" fill="white"/>
<path d="M67.3376 159.213L67.085 159.816L173.01 204.06L173.262 203.457L67.3376 159.213Z" fill="white"/>
<path d="M63.3103 168.834L63.0576 169.438L168.982 213.681L169.235 213.078L63.3103 168.834Z" fill="white"/>
<path d="M59.281 178.448L59.0283 179.051L164.953 223.294L165.206 222.691L59.281 178.448Z" fill="white"/>
<path d="M55.2507 188.055L54.998 188.658L160.923 232.902L161.175 232.299L55.2507 188.055Z" fill="white"/>
<path d="M51.2233 197.676L50.9707 198.279L156.895 242.523L157.148 241.92L51.2233 197.676Z" fill="white"/>
<path d="M47.194 207.29L46.9414 207.893L152.866 252.136L153.119 251.533L47.194 207.29Z" fill="white"/>
<path d="M43.1696 216.903L42.917 217.506L148.842 261.749L149.094 261.146L43.1696 216.903Z" fill="white"/>
<path d="M79.4187 130.372L79.166 130.975L185.091 175.218L185.343 174.615L79.4187 130.372Z" fill="white"/>
<path d="M75.3923 139.987L75.1396 140.59L181.064 184.833L181.317 184.23L75.3923 139.987Z" fill="white"/>
<path d="M71.3669 149.6L71.1143 150.203L177.039 194.447L177.292 193.844L71.3669 149.6Z" fill="white"/>
<path d="M67.3376 159.213L67.085 159.816L173.01 204.06L173.262 203.457L67.3376 159.213Z" fill="white"/>
<path d="M63.3103 168.834L63.0576 169.438L168.982 213.681L169.235 213.078L63.3103 168.834Z" fill="white"/>
<path d="M59.281 178.448L59.0283 179.051L164.953 223.294L165.206 222.691L59.281 178.448Z" fill="white"/>
<path d="M55.2507 188.055L54.998 188.658L160.923 232.902L161.175 232.299L55.2507 188.055Z" fill="white"/>
<path d="M51.2233 197.676L50.9707 198.279L156.895 242.523L157.148 241.92L51.2233 197.676Z" fill="white"/>
<path d="M47.194 207.29L46.9414 207.893L152.866 252.136L153.119 251.533L47.194 207.29Z" fill="white"/>
<path d="M43.1696 216.903L42.917 217.506L148.842 261.749L149.094 261.146L43.1696 216.903Z" fill="white"/>
</g>
</g>
<path d="M123.812 176.635C123.812 176.635 124.067 182.331 128.592 183.296C133.118 184.261 130.312 186.694 135.326 188.365L123.818 185.968V176.635H123.812Z" fill="url(#paint53_linear_92_729)"/>
<path d="M91.8645 180.328L91.0947 180.564L98.0542 203.167L98.8239 202.931L91.8645 180.328Z" fill="#788CFF"/>
<path d="M131.673 213.697C131.673 213.697 133.746 214.424 134.712 215.088C135.679 215.752 136.053 216.888 136.619 216.971C137.185 217.054 137.637 215.762 136.25 214.17C134.863 212.577 131.678 213.703 131.678 213.703L131.673 213.697Z" fill="url(#paint54_linear_92_729)"/>
<path d="M137.752 211.986C137.752 211.986 141.426 213.397 143.447 213.978C145.468 214.56 146.569 214.84 146.502 215.224C146.434 215.608 145.338 216.038 144.413 215.914C143.488 215.789 137.747 212.863 137.747 212.863V211.992L137.752 211.986Z" fill="url(#paint55_linear_92_729)"/>
<path d="M88.7314 212.474C89.6667 214.248 91.5839 215.296 93.5998 215.083L123.818 211.872L127.782 211.457C129.736 213.734 132.235 213.802 134.365 214.129C136.495 214.45 138.568 216.064 139.623 216.681C140.678 217.309 142.164 216.728 142.164 216.728C142.164 216.728 143.883 217.112 144.616 216.598C145.348 216.074 145.052 215.934 141.857 214.398C138.672 212.873 135.446 210.315 133.637 209.003C131.829 207.695 130.473 206.834 128.728 206.622C128.317 206.575 126.447 206.487 123.823 206.388C115.401 206.061 99.2474 205.584 99.2474 205.584H96.4418C92.4515 205.584 89.1679 208.598 88.7418 212.468L88.7314 212.474Z" fill="url(#paint56_linear_92_729)"/>
<path d="M135.8 212.59L135.59 212.93L142.05 216.91L142.26 216.57L135.8 212.59Z" fill="#FF9C85"/>
<path d="M98.0674 166.492L97.6154 153.724C97.6154 153.724 94.1707 151.748 94.3421 148.692C94.5136 145.641 97.9791 146.456 98.8831 147.898C99.7872 149.34 100.239 151.426 100.239 151.426C100.239 151.426 101.232 150.461 101.335 148.028C101.439 145.595 100.774 144.5 101.637 144.329C102.499 144.158 104.609 146.134 107.253 146.523C109.898 146.912 111.945 146.824 112.937 146.01C113.93 145.195 115.057 144.967 114.984 145.781C114.912 146.596 114.896 153.812 114.704 156.261C114.512 158.71 114.558 163 109.15 162.129V167.062L106.438 171.674L98.0622 166.492H98.0674Z" fill="url(#paint57_linear_92_729)"/>
<path d="M109.15 162.123C109.15 162.123 106.22 161.5 101.918 157.609C101.918 157.609 101.788 164.831 109.15 167.057V162.123Z" fill="url(#paint58_linear_92_729)"/>
<path d="M114.902 149.444C114.933 147.628 114.959 146.124 114.99 145.776C115.063 144.957 113.93 145.185 112.943 145.999C111.956 146.819 109.903 146.907 107.259 146.513C104.609 146.129 102.5 144.152 101.642 144.324C100.78 144.5 101.45 145.59 101.336 148.023C101.232 150.456 100.245 151.416 100.245 151.416C100.245 151.416 99.7874 149.33 98.8886 147.893C97.9793 146.451 94.5138 145.636 94.3476 148.687C94.1709 151.737 97.6208 153.719 97.6208 153.719C97.6208 153.719 98.1768 154.046 98.6911 154.295C99.0704 154.482 99.3042 154.866 99.3042 155.291V157.693C99.3042 158.144 99.0652 158.559 98.6704 158.767C98.4314 158.897 98.13 159.016 97.8183 159.078C97.3039 159.182 96.748 159.109 96.3167 158.611C95.1893 157.345 96.2284 154.938 93.7033 152.1C91.1886 149.257 89.2766 146.466 89.9573 144.085C90.6483 141.693 92.7629 140.282 95.0594 140.77C95.0594 140.77 96.4726 135.416 101.118 134.55C105.773 133.673 109.436 134.581 112.99 134.197C116.543 133.803 120.222 133.009 120.487 136.62C120.726 140.023 116.917 147.535 114.907 149.434L114.902 149.444Z" fill="url(#paint59_linear_92_729)"/>
<path d="M199.897 186.034H163.736C162.073 186.034 160.535 186.932 159.72 188.379L143.358 217.432H181.889C183.505 217.432 184.991 216.56 185.786 215.154L201.067 188.021C201.57 187.129 200.921 186.029 199.903 186.029L199.897 186.034Z" fill="url(#paint60_linear_92_729)"/>
<path d="M176.16 202.811C176.921 201.496 176.703 199.949 175.674 199.356C174.645 198.763 173.195 199.349 172.434 200.664C171.674 201.979 171.892 203.526 172.92 204.119C173.949 204.712 175.4 204.127 176.16 202.811Z" fill="white"/>
<path d="M125.791 295.713L116.413 297.959C114.943 298.312 114.184 299.931 114.849 301.285L127.179 326.368C127.932 327.899 130.192 327.614 130.545 325.943C130.707 325.17 130.769 324.2 130.66 322.986C130.177 317.762 130.4 302.328 130.4 302.328L125.791 295.718V295.713Z" fill="url(#paint61_linear_92_729)"/>
<path d="M114.849 301.285L127.178 326.369C127.755 327.547 129.22 327.645 130.031 326.877L115.909 298.146C114.781 298.707 114.267 300.097 114.849 301.285Z" fill="url(#paint62_linear_92_729)"/>
<path d="M144.138 315.111L142.028 324.506C141.696 325.979 142.818 327.375 144.33 327.375H172.314C174.023 327.375 174.761 325.222 173.415 324.169C172.792 323.681 171.95 323.199 170.802 322.763C165.892 320.895 153.573 314.789 153.573 314.789L144.138 315.111Z" fill="url(#paint63_linear_92_729)"/>
<path d="M123.813 225.645L172.834 233.484C179.572 234.563 182.549 242.573 178.143 247.781L130.847 303.676C130.847 303.676 125.532 301.228 125.143 294.348L157.865 249.701H94.4883V225.645H123.813Z" fill="url(#paint64_linear_92_729)"/>
<path d="M77.763 225.645L78.0332 235.761C78.241 243.522 84.6005 249.701 92.3732 249.701H141.571L143.166 315.52C143.166 315.52 149.224 318.12 154.004 314.478L160.13 241.696C160.457 237.805 157.734 234.319 153.874 233.686L104.78 225.645H77.7578H77.763Z" fill="url(#paint65_linear_92_729)"/>
<path d="M144.325 327.376H172.308C173.618 327.376 174.356 326.11 174.018 325.041H141.966C141.976 326.296 143 327.376 144.325 327.376Z" fill="url(#paint66_linear_92_729)"/>
<path d="M220.628 217.432H56.066C55.3888 217.432 54.8398 217.98 54.8398 218.656V219.989C54.8398 220.665 55.3888 221.214 56.066 221.214H220.628C221.305 221.214 221.854 220.665 221.854 219.989V218.656C221.854 217.98 221.305 217.432 220.628 217.432Z" fill="url(#paint67_linear_92_729)"/>
<path d="M123.728 219.325C123.728 218.282 122.882 217.432 121.832 217.432H56.7305C55.7849 217.432 55.0055 218.127 54.8652 219.03V219.611C55.0055 220.518 55.7849 221.208 56.7305 221.208H121.832C122.876 221.208 123.728 220.363 123.728 219.315V219.325Z" fill="url(#paint68_linear_92_729)"/>
<path d="M63.2307 221.219L40.879 327.67C40.6608 328.708 41.4557 329.688 42.5208 329.688C43.2846 329.688 43.9496 329.175 44.1419 328.438L72.24 221.219H63.2307Z" fill="url(#paint69_linear_92_729)"/>
<path d="M118.617 221.219L140.968 327.67C141.187 328.708 140.392 329.688 139.327 329.688C138.563 329.688 137.898 329.175 137.706 328.438L109.607 221.219H118.617Z" fill="url(#paint70_linear_92_729)"/>
<path d="M429.083 38.6504H359.176C358.309 38.6504 357.606 39.3519 357.606 40.2172V83.5883C357.606 84.4536 358.309 85.1551 359.176 85.1551H429.083C429.95 85.1551 430.652 84.4536 430.652 83.5883V40.2172C430.652 39.3519 429.95 38.6504 429.083 38.6504Z" fill="url(#paint71_linear_92_729)"/>
<path opacity="0.2" d="M392.412 60.3359C391.071 60.3359 389.985 61.4202 389.985 62.7587V85.155H428.22C429.561 85.155 430.647 84.0708 430.647 82.7323V60.3359H392.412Z" fill="white"/>
<path d="M357.929 75.2617C357.819 75.2617 357.716 75.2773 357.606 75.2825V82.7375C357.606 84.076 358.692 85.1603 360.033 85.1603H365.197C365.213 84.9113 365.228 84.6623 365.228 84.4132C365.228 79.3602 361.96 75.2617 357.929 75.2617Z" fill="url(#paint72_linear_92_729)"/>
<path d="M428.517 75.2617C424.485 75.2617 421.217 79.3602 421.217 84.4132C421.217 84.6675 421.232 84.9165 421.248 85.1603H428.221C429.561 85.1603 430.647 84.076 430.647 82.7375V75.6612C429.971 75.4018 429.26 75.2617 428.517 75.2617Z" fill="url(#paint73_linear_92_729)"/>
<path d="M414.956 85.1602L421.258 92.8435C421.601 93.2637 422.277 93.1029 422.396 92.5737L424.043 85.1602H414.956Z" fill="url(#paint74_linear_92_729)"/>
<path d="M378.425 64.0354C379.602 64.0354 380.555 63.083 380.555 61.9083C380.555 60.7336 379.602 59.7812 378.425 59.7812C377.249 59.7812 376.295 60.7336 376.295 61.9083C376.295 63.083 377.249 64.0354 378.425 64.0354Z" fill="white"/>
<path d="M394.126 64.0354C395.303 64.0354 396.257 63.083 396.257 61.9083C396.257 60.7336 395.303 59.7812 394.126 59.7812C392.95 59.7812 391.996 60.7336 391.996 61.9083C391.996 63.083 392.95 64.0354 394.126 64.0354Z" fill="white"/>
<path d="M409.828 64.0354C411.004 64.0354 411.958 63.083 411.958 61.9083C411.958 60.7336 411.004 59.7812 409.828 59.7812C408.651 59.7812 407.697 60.7336 407.697 61.9083C407.697 63.083 408.651 64.0354 409.828 64.0354Z" fill="white"/>
<path d="M365 258.635L378.301 291.184C376.981 292.476 374.42 294.525 370.456 295.776L350.281 261.655C349.356 260.088 349.195 258.194 349.845 256.493L373.578 194.652H400.939L364.995 258.635H365Z" fill="url(#paint75_linear_92_729)"/>
<path d="M410.868 237.427C410.255 244.514 407.724 283.138 406.316 304.896C401.713 305.353 398.736 304.927 397.193 304.559L389.254 194.652H411.943C411.943 194.652 411.985 195.986 413.622 205.962C415.253 215.938 411.725 227.456 410.863 237.427H410.868Z" fill="url(#paint76_linear_92_729)"/>
<path d="M377.855 308.288C377.855 308.288 383.762 307.609 384.282 305.772C384.796 303.936 382.245 300.838 382.245 300.838L378.302 291.184C376.982 292.475 374.415 294.525 370.456 295.775L377.849 308.283L377.855 308.288Z" fill="url(#paint77_linear_92_729)"/>
<path d="M397.192 304.553L398.294 319.8H405.355C405.355 319.8 405.744 313.741 406.316 304.9C401.713 305.352 398.741 304.926 397.192 304.558V304.553Z" fill="url(#paint78_linear_92_729)"/>
<path d="M406.394 316.6L407.376 325.383C407.495 326.447 406.664 327.375 405.594 327.375H382.925C381.673 327.375 380.956 325.923 381.746 324.952C382.192 324.408 382.837 323.827 383.767 323.282C386.931 321.435 397.114 315.692 398.19 315.37C399.265 315.049 400.512 318.571 402.066 318.722C403.619 318.872 404.274 317.586 404.596 316.864C404.804 316.392 405.105 316.107 405.526 315.983C405.947 315.858 406.352 316.175 406.399 316.6H406.394Z" fill="url(#paint79_linear_92_729)"/>
<path d="M382.92 327.375H405.589C406.659 327.375 407.491 326.447 407.371 325.383L407.361 325.311H381.523C381.128 326.244 381.814 327.375 382.915 327.375H382.92Z" fill="url(#paint80_linear_92_729)"/>
<path d="M383.086 300.502L391.046 305.285C392.007 305.861 392.251 307.148 391.57 308.04L377.121 326.909C376.321 327.951 374.648 327.619 374.347 326.343C374.175 325.622 374.103 324.719 374.243 323.594C374.716 319.78 376.42 307.646 376.836 306.546C377.251 305.446 380.992 306.655 382.104 305.457C383.216 304.263 382.566 302.899 382.166 302.167C381.907 301.695 381.855 301.265 382.021 300.834C382.187 300.404 382.707 300.269 383.091 300.502H383.086Z" fill="url(#paint81_linear_92_729)"/>
<path d="M377.116 326.909L391.565 308.04C392.246 307.148 392.002 305.867 391.041 305.286L390.973 305.244L374.503 326.748C375.028 327.672 376.41 327.822 377.116 326.904V326.909Z" fill="url(#paint82_linear_92_729)"/>
<path d="M389.622 199.715L380.509 231.029L390.588 213.084L389.622 199.715Z" fill="#3B375B"/>
<path d="M408.888 138.845C406.306 138.041 407.34 135.525 409.117 133.237C410.894 130.949 410.083 127.691 406.212 125.434C402.336 123.177 402.243 118.664 401.463 114.856C400.689 111.053 396.876 112.36 396.876 112.36C393.732 106.213 385.206 106.903 381.933 110.041C378.66 113.18 378.145 119.369 378.447 125.434C378.748 131.494 378.488 132.443 375.002 133.947C371.516 135.452 372.591 138.85 372.591 138.85C372.591 138.85 381.076 147.405 389.43 148.437C397.79 149.47 412.598 142.751 412.437 141.688C412.276 140.624 411.47 139.654 408.883 138.85L408.888 138.845Z" fill="url(#paint83_linear_92_729)"/>
<path d="M375.905 188.458L373.583 194.647H411.948L408.446 141.263L397.202 139.312L385.871 139.551C385.871 139.551 383.444 141.932 382.478 149.543C381.512 157.154 381.574 173.402 380.088 178.627C378.602 183.851 375.911 188.453 375.911 188.453L375.905 188.458Z" fill="url(#paint84_linear_92_729)"/>
<path d="M385.866 139.556L385.855 139.582L377.667 160.77L377.152 160.23L347.88 129.704C346.675 128.454 346.202 126.669 346.618 124.978L354.785 91.7441L360.771 93.2538L357.217 123.541L376.747 140.765C377.407 141.341 378.306 141.554 379.153 141.325L380.259 141.035L385.86 139.556H385.866Z" fill="url(#paint85_linear_92_729)"/>
<path d="M391.155 145.58C395.93 145.58 399.276 141.829 399.639 141.404C400.019 140.963 400.263 140.434 400.361 139.868L397.197 139.318L385.866 139.557C385.866 139.557 385.019 140.403 384.125 142.649C385.533 144.169 387.913 145.539 391.04 145.58C391.056 145.58 391.139 145.58 391.15 145.58H391.155Z" fill="url(#paint86_linear_92_729)"/>
<path d="M413.397 191.659H395.617C394.635 191.659 393.841 190.866 393.846 189.885C393.872 184.946 393.965 170.809 394.246 161.844C394.594 150.841 397.197 139.318 397.197 139.318L410.716 141.663L411.256 160.298L414.509 190.43C414.582 191.089 414.062 191.665 413.402 191.665L413.397 191.659Z" fill="url(#paint87_linear_92_729)"/>
<path d="M385.855 139.583C385.782 140.024 384.603 147.215 384.561 154.753C384.515 162.535 386.146 165.741 385.211 176.895C384.603 184.168 384.031 188.236 383.709 190.186C383.569 191.042 382.831 191.665 381.964 191.665H374.731C373.916 191.665 373.375 190.83 373.718 190.088C374.482 188.433 375.682 185.346 376.898 180.293C378.924 171.868 378.966 166.062 377.63 161.98C377.454 161.44 377.293 160.854 377.158 160.236C376.243 156.19 376.233 150.753 378.363 147.324C379.828 144.974 380.202 142.587 380.27 141.041L385.871 139.562L385.86 139.588L385.855 139.583Z" fill="url(#paint88_linear_92_729)"/>
<path d="M441.127 129.124C442.125 128.081 442.525 126.602 442.187 125.202L433.993 91.3398L427.878 93.0571L431.536 123.365L410.717 141.658L411.257 160.293L441.127 129.118V129.124Z" fill="url(#paint89_linear_92_729)"/>
<mask id="mask1_92_729" style="mask-type:luminance" maskUnits="userSpaceOnUse" x="373" y="139" width="13" height="53">
<path d="M385.855 139.583C385.782 140.024 384.603 147.215 384.561 154.753C384.515 162.535 386.146 165.741 385.211 176.895C384.603 184.168 384.031 188.236 383.709 190.186C383.569 191.042 382.831 191.665 381.964 191.665H374.731C373.916 191.665 373.375 190.83 373.718 190.088C374.482 188.433 375.682 185.346 376.898 180.293C378.924 171.868 378.966 166.062 377.63 161.98C377.454 161.44 377.293 160.854 377.158 160.236C376.243 156.19 376.233 150.753 378.363 147.324C379.828 144.974 380.202 142.587 380.27 141.041L385.871 139.562L385.86 139.588L385.855 139.583Z" fill="white"/>
</mask>
<g mask="url(#mask1_92_729)">
<g opacity="0.5">
<path d="M384.142 187.334L382.885 187.842L383.393 189.097L384.65 188.589L384.142 187.334Z" fill="white"/>
<path d="M386.15 162.019L384.893 162.527L385.401 163.783L386.658 163.275L386.15 162.019Z" fill="white"/>
<path d="M383.009 169.41L381.752 169.918L382.261 171.173L383.518 170.665L383.009 169.41Z" fill="white"/>
<path d="M379.871 176.81L378.614 177.318L379.123 178.574L380.38 178.066L379.871 176.81Z" fill="white"/>
<path d="M376.731 184.201L375.474 184.709L375.982 185.964L377.239 185.456L376.731 184.201Z" fill="white"/>
<path d="M385.022 144.094L383.765 144.602L384.273 145.857L385.53 145.349L385.022 144.094Z" fill="white"/>
<path d="M381.881 151.49L380.624 151.998L381.133 153.253L382.39 152.745L381.881 151.49Z" fill="white"/>
<path d="M378.742 158.885L377.485 159.393L377.994 160.648L379.251 160.14L378.742 158.885Z" fill="white"/>
<path d="M375.608 166.275L374.351 166.783L374.859 168.038L376.116 167.53L375.608 166.275Z" fill="white"/>
<path d="M377.62 140.957L376.363 141.465L376.872 142.72L378.129 142.212L377.62 140.957Z" fill="white"/>
<path d="M374.48 148.353L373.223 148.861L373.731 150.117L374.988 149.609L374.48 148.353Z" fill="white"/>
</g>
</g>
<mask id="mask2_92_729" style="mask-type:luminance" maskUnits="userSpaceOnUse" x="393" y="139" width="22" height="53">
<path d="M413.397 191.659H395.617C394.635 191.659 393.841 190.866 393.846 189.885C393.872 184.946 393.965 170.809 394.246 161.844C394.594 150.841 397.197 139.318 397.197 139.318L410.716 141.663L411.256 160.298L414.509 190.43C414.582 191.089 414.062 191.665 413.402 191.665L413.397 191.659Z" fill="white"/>
</mask>
<g mask="url(#mask2_92_729)">
<g opacity="0.5">
<path d="M412.636 181.953L411.379 182.461L411.888 183.716L413.145 183.208L412.636 181.953Z" fill="white"/>
<path d="M409.495 189.344L408.238 189.852L408.747 191.107L410.004 190.599L409.495 189.344Z" fill="white"/>
<path d="M414.647 156.627L413.39 157.135L413.898 158.39L415.155 157.882L414.647 156.627Z" fill="white"/>
<path d="M411.508 164.027L410.251 164.535L410.76 165.79L412.017 165.282L411.508 164.027Z" fill="white"/>
<path d="M408.367 171.418L407.11 171.926L407.619 173.181L408.876 172.673L408.367 171.418Z" fill="white"/>
<path d="M405.235 178.818L403.978 179.326L404.486 180.581L405.743 180.073L405.235 178.818Z" fill="white"/>
<path d="M402.09 186.209L400.833 186.717L401.342 187.972L402.599 187.464L402.09 186.209Z" fill="white"/>
<path d="M410.38 146.101L409.123 146.609L409.632 147.865L410.889 147.357L410.38 146.101Z" fill="white"/>
<path d="M407.24 153.5L405.983 154.008L406.492 155.263L407.749 154.755L407.24 153.5Z" fill="white"/>
<path d="M404.102 160.894L402.845 161.402L403.353 162.658L404.61 162.15L404.102 160.894Z" fill="white"/>
<path d="M400.962 168.285L399.705 168.793L400.214 170.048L401.471 169.54L400.962 168.285Z" fill="white"/>
<path d="M397.822 175.68L396.564 176.188L397.073 177.443L398.33 176.935L397.822 175.68Z" fill="white"/>
<path d="M394.684 183.074L393.427 183.582L393.935 184.837L395.192 184.329L394.684 183.074Z" fill="white"/>
<path d="M402.974 142.967L401.717 143.475L402.225 144.73L403.483 144.222L402.974 142.967Z" fill="white"/>
<path d="M399.834 150.363L398.577 150.871L399.086 152.126L400.343 151.618L399.834 150.363Z" fill="white"/>
<path d="M396.696 157.758L395.438 158.266L395.947 159.521L397.204 159.013L396.696 157.758Z" fill="white"/>
<path d="M393.555 165.152L392.298 165.66L392.806 166.915L394.064 166.407L393.555 165.152Z" fill="white"/>
<path d="M395.568 139.832L394.311 140.34L394.819 141.595L396.076 141.087L395.568 139.832Z" fill="white"/>
</g>
</g>
<path d="M433.006 79.371C432.538 78.0947 431.546 75.563 430.647 74.209V78.7692H430.584C430.808 80.9689 430.314 83.6251 428.937 84.5537C428.937 84.5537 428.974 82.3074 427.524 81.083C426.075 79.8587 425.487 80.7769 426.085 81.8093C426.682 82.8417 426.89 84.4033 426.828 85.6121C426.766 86.8209 426.766 91.5211 428.402 93.0879C430.039 94.6547 432.902 91.8635 432.902 91.8635L433.255 80.9429C433.276 80.4086 433.193 79.8794 433.011 79.3762L433.006 79.371Z" fill="url(#paint90_linear_92_729)"/>
<path d="M360.656 81.871C359.201 83.0953 359.243 85.3417 359.243 85.3417C357.835 84.3975 357.346 81.6479 357.606 79.4274V74.8828C356.686 76.2109 355.653 78.8516 355.169 80.1641C354.982 80.6674 354.904 81.1965 354.925 81.7309L355.32 91.8837C355.32 91.8837 358.359 94.7422 359.996 93.1703C361.633 91.6035 361.415 87.614 361.352 86.4052C361.29 85.1964 361.498 83.6297 362.095 82.6025C362.693 81.5701 362.111 80.6518 360.656 81.8762V81.871Z" fill="url(#paint91_linear_92_729)"/>
<path d="M385.861 139.555V134.43C385.861 134.43 383.601 135.172 382.177 133.076C380.754 130.98 380.499 127.691 380.4 125.693C380.302 123.696 380.208 120.599 380.208 120.599C380.208 120.599 382.468 121.263 383.845 120.339C385.222 119.416 385.866 118.082 386.193 118.124C386.521 118.165 385.679 120.36 386.344 120.77C387.009 121.18 389.576 121.283 391.555 120.962C391.555 120.962 392.309 123.027 393.904 123.758C393.904 123.758 394.569 125.455 394.418 126.809C394.418 126.809 395.083 126.788 395.234 125.885C395.384 124.982 395.623 122.254 397.795 121.735C399.967 121.216 400.637 125.325 397.193 126.98V139.317C397.193 139.317 394.543 142.414 391.077 142.367C387.612 142.326 385.996 140.069 385.856 139.55L385.861 139.555Z" fill="url(#paint92_linear_92_729)"/>
<path d="M392.999 130.25C390.588 133.819 385.86 134.431 385.86 134.431V138.463C393.191 137.368 392.999 130.25 392.999 130.25Z" fill="url(#paint93_linear_92_729)"/>
</g>
<defs>
<linearGradient id="paint0_linear_92_729" x1="239.047" y1="-66.8716" x2="239.047" y2="204.769" gradientUnits="userSpaceOnUse">
<stop stop-color="#BCE6E4"/>
<stop offset="1" stop-color="#F0F6F6"/>
</linearGradient>
<linearGradient id="paint1_linear_92_729" x1="238.382" y1="308.451" x2="238.382" y2="364.169" gradientUnits="userSpaceOnUse">
<stop stop-color="#BCE6E4"/>
<stop offset="1" stop-color="#BCE6E4" stop-opacity="0"/>
</linearGradient>
<linearGradient id="paint2_linear_92_729" x1="141.109" y1="261.012" x2="73.7106" y2="261.012" gradientUnits="userSpaceOnUse">
<stop stop-color="#3D7FFE"/>
<stop offset="1" stop-color="#79CFFE"/>
</linearGradient>
<linearGradient id="paint3_linear_92_729" x1="219.594" y1="261.011" x2="292.723" y2="261.011" gradientUnits="userSpaceOnUse">
<stop stop-color="#3D7FFE"/>
<stop offset="1" stop-color="#79CFFE"/>
</linearGradient>
<linearGradient id="paint4_linear_92_729" x1="183.828" y1="236.025" x2="183.828" y2="330.991" gradientUnits="userSpaceOnUse">
<stop stop-color="#3D7FFE"/>
<stop offset="1" stop-color="#79CFFE"/>
</linearGradient>
<linearGradient id="paint5_linear_92_729" x1="276.668" y1="400.276" x2="231.448" y2="300.539" gradientUnits="userSpaceOnUse">
<stop stop-color="#3D7FFE"/>
<stop offset="1" stop-color="#79CFFE"/>
</linearGradient>
<linearGradient id="paint6_linear_92_729" x1="328.256" y1="199.59" x2="328.256" y2="224.358" gradientUnits="userSpaceOnUse">
<stop stop-color="#FDB15D"/>
<stop offset="1" stop-color="#FEE698"/>
</linearGradient>
<linearGradient id="paint7_linear_92_729" x1="372.326" y1="199.59" x2="372.326" y2="224.358" gradientUnits="userSpaceOnUse">
<stop stop-color="#FDB15D"/>
<stop offset="1" stop-color="#FEE698"/>
</linearGradient>
<linearGradient id="paint8_linear_92_729" x1="383.187" y1="256.756" x2="323.555" y2="175.243" gradientUnits="userSpaceOnUse">
<stop stop-color="#FDB15D"/>
<stop offset="1" stop-color="#FEE698"/>
</linearGradient>
<linearGradient id="paint9_linear_92_729" x1="435.739" y1="397.428" x2="322.371" y2="265.924" gradientUnits="userSpaceOnUse">
<stop stop-color="#FDB15D"/>
<stop offset="1" stop-color="#FEE698"/>
</linearGradient>
<linearGradient id="paint10_linear_92_729" x1="392.423" y1="235.481" x2="391.795" y2="234.754" gradientUnits="userSpaceOnUse">
<stop stop-color="#FDB15D"/>
<stop offset="1" stop-color="#FEE698"/>
</linearGradient>
<linearGradient id="paint11_linear_92_729" x1="494.33" y1="249.93" x2="277.413" y2="331.14" gradientUnits="userSpaceOnUse">
<stop stop-color="#FDB15D"/>
<stop offset="1" stop-color="#FDB15D" stop-opacity="0"/>
</linearGradient>
<linearGradient id="paint12_linear_92_729" x1="350.229" y1="265.369" x2="350.229" y2="309.742" gradientUnits="userSpaceOnUse">
<stop stop-color="#FDB15D"/>
<stop offset="1" stop-color="#FDB15D" stop-opacity="0"/>
</linearGradient>
<linearGradient id="paint13_linear_92_729" x1="351.408" y1="320.236" x2="351.408" y2="360.531" gradientUnits="userSpaceOnUse">
<stop stop-color="#FDB15D"/>
<stop offset="1" stop-color="#FEE698"/>
</linearGradient>
<linearGradient id="paint14_linear_92_729" x1="232.734" y1="320.289" x2="234.04" y2="313.031" gradientUnits="userSpaceOnUse">
<stop stop-color="#EEF5FF"/>
<stop offset="1" stop-color="white"/>
</linearGradient>
<linearGradient id="paint15_linear_92_729" x1="232.063" y1="300.653" x2="240.127" y2="300.653" gradientUnits="userSpaceOnUse">
<stop stop-color="#6CCA50"/>
<stop offset="1" stop-color="#C0EA6A"/>
</linearGradient>
<linearGradient id="paint16_linear_92_729" x1="233.196" y1="306.76" x2="225.964" y2="306.76" gradientUnits="userSpaceOnUse">
<stop stop-color="#6CCA50"/>
<stop offset="1" stop-color="#C0EA6A"/>
</linearGradient>
<linearGradient id="paint17_linear_92_729" x1="233.025" y1="311.433" x2="233.025" y2="304.279" gradientUnits="userSpaceOnUse">
<stop stop-color="#6CCA50"/>
<stop offset="1" stop-color="#C0EA6A"/>
</linearGradient>
<linearGradient id="paint18_linear_92_729" x1="233.42" y1="316.985" x2="233.42" y2="329.213" gradientUnits="userSpaceOnUse">
<stop stop-color="#58311F"/>
<stop offset="1" stop-color="#985E3E"/>
</linearGradient>
<linearGradient id="paint19_linear_92_729" x1="286.437" y1="320.289" x2="285.131" y2="313.031" gradientUnits="userSpaceOnUse">
<stop stop-color="#EEF5FF"/>
<stop offset="1" stop-color="white"/>
</linearGradient>
<linearGradient id="paint20_linear_92_729" x1="287.107" y1="300.653" x2="279.043" y2="300.653" gradientUnits="userSpaceOnUse">
<stop stop-color="#6CCA50"/>
<stop offset="1" stop-color="#C0EA6A"/>
</linearGradient>
<linearGradient id="paint21_linear_92_729" x1="285.974" y1="306.76" x2="293.207" y2="306.76" gradientUnits="userSpaceOnUse">
<stop stop-color="#6CCA50"/>
<stop offset="1" stop-color="#C0EA6A"/>
</linearGradient>
<linearGradient id="paint22_linear_92_729" x1="286.14" y1="311.434" x2="286.14" y2="304.28" gradientUnits="userSpaceOnUse">
<stop stop-color="#6CCA50"/>
<stop offset="1" stop-color="#C0EA6A"/>
</linearGradient>
<linearGradient id="paint23_linear_92_729" x1="285.746" y1="316.985" x2="285.746" y2="329.213" gradientUnits="userSpaceOnUse">
<stop stop-color="#58311F"/>
<stop offset="1" stop-color="#985E3E"/>
</linearGradient>
<linearGradient id="paint24_linear_92_729" x1="260.811" y1="316.726" x2="258.878" y2="305.97" gradientUnits="userSpaceOnUse">
<stop stop-color="#EEF5FF"/>
<stop offset="1" stop-color="white"/>
</linearGradient>
<linearGradient id="paint25_linear_92_729" x1="261.809" y1="287.621" x2="249.854" y2="287.621" gradientUnits="userSpaceOnUse">
<stop stop-color="#6CCA50"/>
<stop offset="1" stop-color="#C0EA6A"/>
</linearGradient>
<linearGradient id="paint26_linear_92_729" x1="260.13" y1="296.668" x2="270.849" y2="296.668" gradientUnits="userSpaceOnUse">
<stop stop-color="#6CCA50"/>
<stop offset="1" stop-color="#C0EA6A"/>
</linearGradient>
<linearGradient id="paint27_linear_92_729" x1="260.375" y1="303.6" x2="260.375" y2="292.996" gradientUnits="userSpaceOnUse">
<stop stop-color="#6CCA50"/>
<stop offset="1" stop-color="#C0EA6A"/>
</linearGradient>
<linearGradient id="paint28_linear_92_729" x1="259.793" y1="311.827" x2="259.793" y2="329.954" gradientUnits="userSpaceOnUse">
<stop stop-color="#58311F"/>
<stop offset="1" stop-color="#985E3E"/>
</linearGradient>
<linearGradient id="paint29_linear_92_729" x1="295.736" y1="307.807" x2="269.464" y2="188.613" gradientUnits="userSpaceOnUse">
<stop stop-color="#1D164D"/>
<stop offset="1" stop-color="#4A4975"/>
</linearGradient>
<linearGradient id="paint30_linear_92_729" x1="259.585" y1="-155.865" x2="259.585" y2="447.228" gradientUnits="userSpaceOnUse">
<stop stop-color="#D5D7FC"/>
<stop offset="1" stop-color="#FAF1FC"/>
</linearGradient>
<linearGradient id="paint31_linear_92_729" x1="264.318" y1="48.6333" x2="249.878" y2="71.0958" gradientUnits="userSpaceOnUse">
<stop stop-color="#788CFF"/>
<stop offset="1" stop-color="#BFD6FF"/>
</linearGradient>
<linearGradient id="paint32_linear_92_729" x1="274.45" y1="47.9221" x2="255.644" y2="66.7563" gradientUnits="userSpaceOnUse">
<stop stop-color="#788CFF"/>
<stop offset="1" stop-color="#BFD6FF"/>
</linearGradient>
<linearGradient id="paint33_linear_92_729" x1="303.311" y1="220.229" x2="254.919" y2="220.229" gradientUnits="userSpaceOnUse">
<stop stop-color="#788CFF"/>
<stop offset="1" stop-color="#BFD6FF"/>
</linearGradient>
<linearGradient id="paint34_linear_92_729" x1="175.395" y1="77.7064" x2="156.125" y2="120.119" gradientUnits="userSpaceOnUse">
<stop stop-color="#E3325D"/>
<stop offset="1" stop-color="#FF866F"/>
</linearGradient>
<linearGradient id="paint35_linear_92_729" x1="160.805" y1="107.251" x2="160.805" y2="119.38" gradientUnits="userSpaceOnUse">
<stop stop-color="#D5D7FC"/>
<stop offset="1" stop-color="#FAF1FC"/>
</linearGradient>
<linearGradient id="paint36_linear_92_729" x1="160.805" y1="88.4031" x2="160.805" y2="103.241" gradientUnits="userSpaceOnUse">
<stop stop-color="#D5D7FC"/>
<stop offset="1" stop-color="#FAF1FC"/>
</linearGradient>
<linearGradient id="paint37_linear_92_729" x1="92.5971" y1="257.502" x2="92.5971" y2="323.7" gradientUnits="userSpaceOnUse">
<stop stop-color="#58311F"/>
<stop offset="1" stop-color="#985E3E"/>
</linearGradient>
<linearGradient id="paint38_linear_92_729" x1="131.435" y1="257.502" x2="131.435" y2="323.7" gradientUnits="userSpaceOnUse">
<stop stop-color="#58311F"/>
<stop offset="1" stop-color="#985E3E"/>
</linearGradient>
<linearGradient id="paint39_linear_92_729" x1="45.1347" y1="261.846" x2="45.1347" y2="350.238" gradientUnits="userSpaceOnUse">
<stop stop-color="#AE5F29"/>
<stop offset="1" stop-color="#EEB26B"/>
</linearGradient>
<linearGradient id="paint40_linear_92_729" x1="91.4436" y1="261.846" x2="91.4436" y2="350.238" gradientUnits="userSpaceOnUse">
<stop stop-color="#AE5F29"/>
<stop offset="1" stop-color="#EEB26B"/>
</linearGradient>
<linearGradient id="paint41_linear_92_729" x1="94.4675" y1="281.098" x2="85.1943" y2="219.181" gradientUnits="userSpaceOnUse">
<stop stop-color="#AE5F29"/>
<stop offset="1" stop-color="#EEB26B"/>
</linearGradient>
<linearGradient id="paint42_linear_92_729" x1="120.337" y1="205.607" x2="64.2822" y2="210.785" gradientUnits="userSpaceOnUse">
<stop stop-color="#EEB26B"/>
<stop offset="1" stop-color="#FCD1A2"/>
</linearGradient>
<linearGradient id="paint43_linear_92_729" x1="161.273" y1="220.249" x2="161.273" y2="335.493" gradientUnits="userSpaceOnUse">
<stop stop-color="#58311F"/>
<stop offset="1" stop-color="#985E3E"/>
</linearGradient>
<linearGradient id="paint44_linear_92_729" x1="219.895" y1="220.249" x2="219.895" y2="335.493" gradientUnits="userSpaceOnUse">
<stop stop-color="#58311F"/>
<stop offset="1" stop-color="#985E3E"/>
</linearGradient>
<linearGradient id="paint45_linear_92_729" x1="134.537" y1="216.15" x2="110.766" y2="216.15" gradientUnits="userSpaceOnUse">
<stop stop-color="#D5D7FC"/>
<stop offset="1" stop-color="#FAF1FC"/>
</linearGradient>
<linearGradient id="paint46_linear_92_729" x1="160.914" y1="146.239" x2="167.689" y2="146.239" gradientUnits="userSpaceOnUse">
<stop stop-color="#FF9C85"/>
<stop offset="1" stop-color="#FFC0AC"/>
</linearGradient>
<linearGradient id="paint47_linear_92_729" x1="165.227" y1="148.267" x2="176.86" y2="148.267" gradientUnits="userSpaceOnUse">
<stop stop-color="#FF9C85"/>
<stop offset="1" stop-color="#FFC0AC"/>
</linearGradient>
<linearGradient id="paint48_linear_92_729" x1="160.109" y1="199.877" x2="164.917" y2="158.087" gradientUnits="userSpaceOnUse">
<stop stop-color="#FFC0AC"/>
<stop offset="1" stop-color="#FFD6C7"/>
</linearGradient>
<linearGradient id="paint49_linear_92_729" x1="118.481" y1="231.777" x2="133.253" y2="175.705" gradientUnits="userSpaceOnUse">
<stop stop-color="#788CFF"/>
<stop offset="1" stop-color="#BFD6FF"/>
</linearGradient>
<linearGradient id="paint50_linear_92_729" x1="93.3346" y1="225.152" x2="108.101" y2="169.081" gradientUnits="userSpaceOnUse">
<stop stop-color="#788CFF"/>
<stop offset="1" stop-color="#BFD6FF"/>
</linearGradient>
<linearGradient id="paint51_linear_92_729" x1="101.538" y1="212.228" x2="117.263" y2="237.53" gradientUnits="userSpaceOnUse">
<stop stop-color="#788CFF"/>
<stop offset="1" stop-color="#788CFF" stop-opacity="0"/>
</linearGradient>
<linearGradient id="paint52_linear_92_729" x1="47.2907" y1="186.901" x2="93.4425" y2="191.214" gradientUnits="userSpaceOnUse">
<stop stop-color="#788CFF"/>
<stop offset="1" stop-color="#BFD6FF"/>
</linearGradient>
<linearGradient id="paint53_linear_92_729" x1="122.301" y1="192.359" x2="134.549" y2="175.704" gradientUnits="userSpaceOnUse">
<stop stop-color="#788CFF"/>
<stop offset="1" stop-color="#788CFF" stop-opacity="0"/>
</linearGradient>
<linearGradient id="paint54_linear_92_729" x1="133.424" y1="213.085" x2="137.032" y2="218.548" gradientUnits="userSpaceOnUse">
<stop stop-color="#FF9C85"/>
<stop offset="1" stop-color="#FFC0AC"/>
</linearGradient>
<linearGradient id="paint55_linear_92_729" x1="137.783" y1="214.803" x2="145.233" y2="213.076" gradientUnits="userSpaceOnUse">
<stop stop-color="#FF9C85"/>
<stop offset="1" stop-color="#FFC0AC"/>
</linearGradient>
<linearGradient id="paint56_linear_92_729" x1="78.8078" y1="219.747" x2="117.812" y2="211.6" gradientUnits="userSpaceOnUse">
<stop stop-color="#FFC0AC"/>
<stop offset="1" stop-color="#FFD6C7"/>
</linearGradient>
<linearGradient id="paint57_linear_92_729" x1="100.754" y1="167.426" x2="105.774" y2="148.335" gradientUnits="userSpaceOnUse">
<stop stop-color="#FFC0AC"/>
<stop offset="1" stop-color="#FFD6C7"/>
</linearGradient>
<linearGradient id="paint58_linear_92_729" x1="105.882" y1="161.76" x2="102.533" y2="167.31" gradientUnits="userSpaceOnUse">
<stop stop-color="#FF9C85"/>
<stop offset="1" stop-color="#FF9C85" stop-opacity="0"/>
</linearGradient>
<linearGradient id="paint59_linear_92_729" x1="102.681" y1="145.143" x2="113.349" y2="138.25" gradientUnits="userSpaceOnUse">
<stop stop-color="#1A3356"/>
<stop offset="1" stop-color="#304D89"/>
</linearGradient>
<linearGradient id="paint60_linear_92_729" x1="168.282" y1="218.827" x2="174.981" y2="191.482" gradientUnits="userSpaceOnUse">
<stop stop-color="#D5D7FC"/>
<stop offset="1" stop-color="#FAF1FC"/>
</linearGradient>
<linearGradient id="paint61_linear_92_729" x1="121.469" y1="298.084" x2="128.039" y2="319.624" gradientUnits="userSpaceOnUse">
<stop stop-color="#D5D7FC"/>
<stop offset="1" stop-color="#FAF1FC"/>
</linearGradient>
<linearGradient id="paint62_linear_92_729" x1="130.888" y1="311.91" x2="151.556" y2="309.839" gradientUnits="userSpaceOnUse">
<stop stop-color="#788CFF"/>
<stop offset="1" stop-color="#BFD6FF"/>
</linearGradient>
<linearGradient id="paint63_linear_92_729" x1="150.908" y1="328.926" x2="163.597" y2="316.218" gradientUnits="userSpaceOnUse">
<stop stop-color="#D5D7FC"/>
<stop offset="1" stop-color="#FAF1FC"/>
</linearGradient>
<linearGradient id="paint64_linear_92_729" x1="147.224" y1="244.674" x2="184.652" y2="222.961" gradientUnits="userSpaceOnUse">
<stop stop-color="#1A3356"/>
<stop offset="1" stop-color="#304D89"/>
</linearGradient>
<linearGradient id="paint65_linear_92_729" x1="99.325" y1="293.762" x2="130.26" y2="249.352" gradientUnits="userSpaceOnUse">
<stop stop-color="#1A3356"/>
<stop offset="1" stop-color="#304D89"/>
</linearGradient>
<linearGradient id="paint66_linear_92_729" x1="160.384" y1="320.839" x2="164.505" y2="312.58" gradientUnits="userSpaceOnUse">
<stop stop-color="#788CFF"/>
<stop offset="1" stop-color="#BFD6FF"/>
</linearGradient>
<linearGradient id="paint67_linear_92_729" x1="235.716" y1="293.767" x2="136.225" y2="217.481" gradientUnits="userSpaceOnUse">
<stop stop-color="#AE5F29"/>
<stop offset="1" stop-color="#EEB26B"/>
</linearGradient>
<linearGradient id="paint68_linear_92_729" x1="95.781" y1="219.325" x2="31.6822" y2="219.325" gradientUnits="userSpaceOnUse">
<stop stop-color="#AE5F29"/>
<stop offset="1" stop-color="#EEB26B"/>
</linearGradient>
<linearGradient id="paint69_linear_92_729" x1="56.5439" y1="216.103" x2="56.5439" y2="304.859" gradientUnits="userSpaceOnUse">
<stop stop-color="#AE5F29"/>
<stop offset="1" stop-color="#EEB26B"/>
</linearGradient>
<linearGradient id="paint70_linear_92_729" x1="125.309" y1="216.103" x2="125.309" y2="304.859" gradientUnits="userSpaceOnUse">
<stop stop-color="#AE5F29"/>
<stop offset="1" stop-color="#EEB26B"/>
</linearGradient>
<linearGradient id="paint71_linear_92_729" x1="409.989" y1="95.6814" x2="381.244" y2="34.2908" gradientUnits="userSpaceOnUse">
<stop stop-color="#FC76A6"/>
<stop offset="1" stop-color="#FFC6B4"/>
</linearGradient>
<linearGradient id="paint72_linear_92_729" x1="359.326" y1="83.5209" x2="365.641" y2="73.4531" gradientUnits="userSpaceOnUse">
<stop stop-color="#FC76A6"/>
<stop offset="1" stop-color="#FC76A6" stop-opacity="0"/>
</linearGradient>
<linearGradient id="paint73_linear_92_729" x1="430.081" y1="85.2122" x2="421.439" y2="75.1349" gradientUnits="userSpaceOnUse">
<stop stop-color="#FC76A6"/>
<stop offset="1" stop-color="#FC76A6" stop-opacity="0"/>
</linearGradient>
<linearGradient id="paint74_linear_92_729" x1="438.835" y1="108.936" x2="376.433" y2="31.9761" gradientUnits="userSpaceOnUse">
<stop stop-color="#FC76A6"/>
<stop offset="1" stop-color="#FFC6B4"/>
</linearGradient>
<linearGradient id="paint75_linear_92_729" x1="413.886" y1="273.359" x2="375.817" y2="235.233" gradientUnits="userSpaceOnUse">
<stop stop-color="#3B375B"/>
<stop offset="1" stop-color="#4E4187"/>
</linearGradient>
<linearGradient id="paint76_linear_92_729" x1="421.124" y1="266.132" x2="383.055" y2="228.006" gradientUnits="userSpaceOnUse">
<stop stop-color="#3B375B"/>
<stop offset="1" stop-color="#4E4187"/>
</linearGradient>
<linearGradient id="paint77_linear_92_729" x1="373.449" y1="284.787" x2="379.376" y2="308.137" gradientUnits="userSpaceOnUse">
<stop stop-color="#FFC0AC"/>
<stop offset="1" stop-color="#FFD6C7"/>
</linearGradient>
<linearGradient id="paint78_linear_92_729" x1="401.77" y1="305.212" x2="402.158" y2="316.947" gradientUnits="userSpaceOnUse">
<stop stop-color="#FFC0AC"/>
<stop offset="1" stop-color="#FFD6C7"/>
</linearGradient>
<linearGradient id="paint79_linear_92_729" x1="398.886" y1="331.718" x2="390.469" y2="314.167" gradientUnits="userSpaceOnUse">
<stop stop-color="#FC76A6"/>
<stop offset="1" stop-color="#FFC6B4"/>
</linearGradient>
<linearGradient id="paint80_linear_92_729" x1="402.908" y1="336.21" x2="397.753" y2="329.925" gradientUnits="userSpaceOnUse">
<stop stop-color="#D5D7FC"/>
<stop offset="1" stop-color="#FAF1FC"/>
</linearGradient>
<linearGradient id="paint81_linear_92_729" x1="391.233" y1="310.655" x2="368.33" y2="317.038" gradientUnits="userSpaceOnUse">
<stop stop-color="#FC76A6"/>
<stop offset="1" stop-color="#FFC6B4"/>
</linearGradient>
<linearGradient id="paint82_linear_92_729" x1="400.684" y1="295.522" x2="380.4" y2="320.661" gradientUnits="userSpaceOnUse">
<stop stop-color="#D5D7FC"/>
<stop offset="1" stop-color="#FAF1FC"/>
</linearGradient>
<linearGradient id="paint83_linear_92_729" x1="391.202" y1="131.52" x2="389.14" y2="117.589" gradientUnits="userSpaceOnUse">
<stop stop-color="#3B375B"/>
<stop offset="1" stop-color="#4E4187"/>
</linearGradient>
<linearGradient id="paint84_linear_92_729" x1="395.945" y1="197.864" x2="388.475" y2="152.46" gradientUnits="userSpaceOnUse">
<stop stop-color="#EEF5FF"/>
<stop offset="1" stop-color="white"/>
</linearGradient>
<linearGradient id="paint85_linear_92_729" x1="373.677" y1="209.64" x2="367.755" y2="149.017" gradientUnits="userSpaceOnUse">
<stop stop-color="#EEF5FF"/>
<stop offset="1" stop-color="white"/>
</linearGradient>
<linearGradient id="paint86_linear_92_729" x1="384.125" y1="142.452" x2="400.361" y2="142.452" gradientUnits="userSpaceOnUse">
<stop stop-color="#3B375B"/>
<stop offset="1" stop-color="#4E4187"/>
</linearGradient>
<linearGradient id="paint87_linear_92_729" x1="404.408" y1="188.246" x2="400.637" y2="148.433" gradientUnits="userSpaceOnUse">
<stop stop-color="#FC76A6"/>
<stop offset="1" stop-color="#FFC6B4"/>
</linearGradient>
<linearGradient id="paint88_linear_92_729" x1="382.135" y1="190.332" x2="378.369" y2="150.534" gradientUnits="userSpaceOnUse">
<stop stop-color="#FC76A6"/>
<stop offset="1" stop-color="#FFC6B4"/>
</linearGradient>
<linearGradient id="paint89_linear_92_729" x1="426.506" y1="190.305" x2="426.506" y2="126.893" gradientUnits="userSpaceOnUse">
<stop stop-color="#EEF5FF"/>
<stop offset="1" stop-color="white"/>
</linearGradient>
<linearGradient id="paint90_linear_92_729" x1="431.109" y1="93.119" x2="429.451" y2="79.9618" gradientUnits="userSpaceOnUse">
<stop stop-color="#FFC0AC"/>
<stop offset="1" stop-color="#FFD6C7"/>
</linearGradient>
<linearGradient id="paint91_linear_92_729" x1="357.055" y1="91.5257" x2="358.319" y2="84.345" gradientUnits="userSpaceOnUse">
<stop stop-color="#FFC0AC"/>
<stop offset="1" stop-color="#FFD6C7"/>
</linearGradient>
<linearGradient id="paint92_linear_92_729" x1="389.908" y1="134.502" x2="389.908" y2="123.992" gradientUnits="userSpaceOnUse">
<stop stop-color="#FFC0AC"/>
<stop offset="1" stop-color="#FFD6C7"/>
</linearGradient>
<linearGradient id="paint93_linear_92_729" x1="388.874" y1="131.895" x2="391.107" y2="141.784" gradientUnits="userSpaceOnUse">
<stop stop-color="#FF9C85"/>
<stop offset="1" stop-color="#FF9C85" stop-opacity="0"/>
</linearGradient>
<clipPath id="clip0_92_729">
<rect width="478" height="367" fill="white" transform="translate(0.046875 0.25)"/>
</clipPath>
</defs>
</svg>
