<svg width="413" height="448" viewBox="0 0 413 448" fill="none" xmlns="http://www.w3.org/2000/svg">
<path d="M60.4275 415.795C140.997 458.255 271.637 458.265 352.207 415.795C432.777 373.325 432.777 304.485 352.207 262.015C271.637 219.555 140.997 219.555 60.4275 262.015C-20.1425 304.475 -20.1425 373.325 60.4275 415.795Z" fill="#DAF2FF"/>
<path d="M25.8876 362.665L29.6276 364.805C30.8276 365.495 32.7676 365.495 33.9576 364.805L206.768 265.035C207.968 264.345 207.958 263.225 206.768 262.545L203.058 260.425C201.858 259.735 199.918 259.745 198.728 260.435L25.8776 360.175C24.6876 360.865 24.6876 361.975 25.8876 362.665Z" fill="#E0E0E0"/>
<path d="M336.307 319.934C358.78 319.934 376.997 309.946 376.997 297.624C376.997 285.303 358.78 275.314 336.307 275.314C313.835 275.314 295.617 285.303 295.617 297.624C295.617 309.946 313.835 319.934 336.307 319.934Z" fill="#E0E0E0"/>
<path d="M356.197 275.215C356.137 270.105 359.707 259.485 364.927 252.785C370.147 246.085 378.427 241.135 384.367 243.095C389.907 244.915 389.397 252.155 382.757 257.035C376.127 261.905 366.137 268.055 363.297 276.375L357.247 286.615L356.197 275.215Z" fill="#3FAEFF"/>
<path d="M355.907 282.205C356.067 282.185 356.207 282.065 356.237 281.905C359.447 264.425 373.387 250.085 381.787 246.845C381.977 246.775 382.077 246.555 381.997 246.365C381.927 246.175 381.707 246.075 381.517 246.155C372.947 249.445 358.757 264.025 355.497 281.775C355.457 281.975 355.597 282.175 355.797 282.205C355.837 282.205 355.877 282.205 355.907 282.205Z" fill="white"/>
<path d="M358.648 293.336C359.438 290.456 362.888 285.676 368.508 281.686C374.728 277.276 382.648 275.196 384.438 271.806C386.588 267.726 383.128 263.946 376.698 264.826C370.258 265.706 359.028 274.636 357.378 287.896L358.648 293.336Z" fill="#3FAEFF"/>
<path d="M357.357 290.337C357.497 290.327 357.627 290.227 357.677 290.087C362.847 275.087 374.178 269.707 379.448 268.957C379.648 268.927 379.797 268.737 379.767 268.537C379.737 268.337 379.558 268.187 379.348 268.217C373.518 269.047 362.248 274.537 356.968 289.847C356.898 290.037 357.008 290.257 357.198 290.317C357.258 290.337 357.307 290.347 357.357 290.337Z" fill="white"/>
<path d="M30.5479 360.145L29.7879 359.705C28.5779 359.005 27.5879 357.295 27.5879 355.895V99.645C27.5879 98.245 28.5679 96.535 29.7879 95.835L194.898 0.525C196.108 -0.175 198.078 -0.175 199.298 0.525L200.058 0.965C201.268 1.665 202.258 3.375 202.258 4.775V261.025C202.258 262.425 201.278 264.135 200.058 264.835L34.9379 360.145C33.7279 360.845 31.7579 360.845 30.5479 360.145Z" fill="#8ACEFF"/>
<path opacity="0.4" d="M202.238 4.415C202.088 3.275 201.168 2.865 200.058 3.495L34.9383 98.825C34.3283 99.175 33.7883 99.785 33.3883 100.455L28.2383 97.485C28.6283 96.795 29.1783 96.195 29.7883 95.835L194.898 0.525C196.118 -0.175 198.088 -0.175 199.298 0.525L200.058 0.965C201.168 1.605 202.098 3.085 202.238 4.415Z" fill="white"/>
<path opacity="0.1" d="M34.5679 360.324C33.3579 360.844 31.6479 360.784 30.5479 360.154L29.7779 359.714C28.5679 359.014 27.5879 357.304 27.5879 355.904V99.6541C27.5879 98.9541 27.8279 98.1641 28.2279 97.4941L33.3779 100.464C32.9879 101.154 32.7379 101.934 32.7379 102.624V358.884C32.7379 360.134 33.5279 360.724 34.5679 360.324Z" fill="black"/>
<path d="M52.208 267.474L51.448 267.034C50.238 266.334 49.248 264.624 49.248 263.224V217.164C49.248 215.764 50.228 214.054 51.448 213.354L201.358 126.724C202.568 126.024 204.538 126.024 205.758 126.724L206.518 127.164C207.728 127.864 208.718 129.574 208.718 130.974V177.034C208.718 178.434 207.738 180.144 206.518 180.844L56.608 267.474C55.398 268.174 53.428 268.174 52.208 267.474Z" fill="#EBEBEB"/>
<path d="M208.688 130.624C208.538 129.484 207.618 129.074 206.508 129.704L56.6082 216.334C55.9982 216.684 55.4582 217.294 55.0582 217.964L49.9082 214.994C50.2982 214.304 50.8482 213.704 51.4582 213.344L201.358 126.714C202.578 126.014 204.548 126.014 205.758 126.714L206.518 127.154C207.618 127.814 208.558 129.294 208.688 130.624Z" fill="#FAFAFA"/>
<path d="M56.2378 267.644C55.0278 268.164 53.3178 268.104 52.2178 267.474L51.4478 267.034C50.2378 266.334 49.2578 264.624 49.2578 263.224V217.174C49.2578 216.474 49.4978 215.694 49.8978 215.014L55.0478 217.984C54.6578 218.674 54.4078 219.454 54.4078 220.144V266.214C54.4078 267.454 55.1978 268.044 56.2378 267.644Z" fill="#E0E0E0"/>
<path d="M77.8079 213.245C86.3579 208.305 93.2879 212.145 93.2879 221.825C93.2879 231.505 86.3479 243.265 77.7879 248.105C69.2279 252.945 62.2879 249.095 62.2979 239.525C62.2979 229.945 69.2579 218.185 77.8079 213.245Z" fill="#CCE7FF"/>
<path d="M52.208 329.884L51.448 329.444C50.238 328.744 49.248 327.034 49.248 325.634V279.574C49.248 278.174 50.228 276.464 51.448 275.764L201.358 189.134C202.568 188.434 204.538 188.434 205.758 189.134L206.518 189.574C207.728 190.274 208.718 191.984 208.718 193.384V239.444C208.718 240.844 207.738 242.554 206.518 243.254L56.608 329.884C55.398 330.584 53.428 330.584 52.208 329.884Z" fill="#EBEBEB"/>
<path d="M208.688 193.044C208.538 191.904 207.618 191.494 206.508 192.124L56.6082 278.754C55.9982 279.104 55.4582 279.714 55.0582 280.384L49.9082 277.414C50.2982 276.724 50.8482 276.124 51.4582 275.764L201.358 189.134C202.578 188.434 204.548 188.434 205.758 189.134L206.518 189.574C207.618 190.234 208.558 191.714 208.688 193.044Z" fill="#FAFAFA"/>
<path d="M56.2378 330.064C55.0278 330.584 53.3178 330.524 52.2178 329.894L51.4478 329.454C50.2378 328.754 49.2578 327.044 49.2578 325.644V279.594C49.2578 278.894 49.4978 278.104 49.8978 277.434L55.0478 280.404C54.6578 281.094 54.4078 281.874 54.4078 282.564V328.634C54.4078 329.874 55.1978 330.464 56.2378 330.064Z" fill="#E0E0E0"/>
<path d="M77.8079 275.665C86.3579 270.725 93.2879 274.565 93.2879 284.245C93.2879 293.915 86.3479 305.685 77.7879 310.525C69.2279 315.365 62.2879 311.515 62.2979 301.945C62.2979 292.365 69.2579 280.605 77.8079 275.665Z" fill="#CCE7FF"/>
<path d="M52.208 163.084L51.448 162.644C50.238 161.944 49.248 160.234 49.248 158.834V112.774C49.248 111.374 50.228 109.664 51.448 108.964L201.358 22.3336C202.568 21.6336 204.538 21.6336 205.758 22.3336L206.518 22.7736C207.728 23.4736 208.718 25.1836 208.718 26.5836V72.6436C208.718 74.0436 207.738 75.7536 206.518 76.4536L56.608 163.084C55.398 163.784 53.428 163.784 52.208 163.084Z" fill="#EBEBEB"/>
<path d="M208.688 26.2336C208.538 25.0936 207.618 24.6836 206.508 25.3136L56.6082 111.954C55.9982 112.304 55.4582 112.914 55.0582 113.584L49.9082 110.614C50.2982 109.924 50.8482 109.324 51.4582 108.964L201.358 22.3336C202.578 21.6336 204.548 21.6336 205.758 22.3336L206.518 22.7736C207.618 23.4236 208.558 24.9136 208.688 26.2336Z" fill="#FAFAFA"/>
<path d="M56.2378 163.253C55.0278 163.773 53.3178 163.713 52.2178 163.083L51.4478 162.643C50.2378 161.943 49.2578 160.233 49.2578 158.833V112.783C49.2578 112.083 49.4978 111.293 49.8978 110.623L55.0478 113.593C54.6578 114.283 54.4078 115.063 54.4078 115.753V161.823C54.4078 163.073 55.1978 163.663 56.2378 163.253Z" fill="#E0E0E0"/>
<path d="M77.8079 108.864C86.3579 103.924 93.2879 107.764 93.2879 117.444C93.2879 127.124 86.3479 138.884 77.7879 143.724C69.2279 148.564 62.2879 144.714 62.2979 135.144C62.2979 125.554 69.2579 113.794 77.8079 108.864Z" fill="#CCE7FF"/>
<path d="M62.7481 221.564L61.9881 221.124C60.7781 220.424 59.7881 218.714 59.7881 217.314V171.254C59.7881 169.854 60.7681 168.144 61.9881 167.444L211.898 80.8238C213.108 80.1238 215.078 80.1238 216.298 80.8238L217.058 81.2638C218.268 81.9638 219.258 83.6738 219.258 85.0738V131.134C219.258 132.534 218.278 134.244 217.058 134.944L67.1481 221.564C65.9281 222.264 63.9581 222.264 62.7481 221.564Z" fill="#37474F"/>
<path d="M219.228 84.7141C219.078 83.5741 218.158 83.1641 217.048 83.7941L67.1385 170.434C66.5285 170.784 65.9885 171.394 65.5885 172.064L60.4385 169.094C60.8285 168.404 61.3785 167.804 61.9885 167.444L211.888 80.8141C213.108 80.1141 215.078 80.1141 216.288 80.8141L217.048 81.2541C218.158 81.9041 219.088 83.3941 219.228 84.7141Z" fill="#455A64"/>
<path d="M66.7681 221.734C65.5581 222.254 63.8481 222.194 62.7481 221.564L61.9781 221.124C60.7681 220.424 59.7881 218.714 59.7881 217.314V171.264C59.7881 170.564 60.0281 169.774 60.4281 169.104L65.5781 172.074C65.1881 172.764 64.9381 173.544 64.9381 174.234V220.304C64.9381 221.554 65.7381 222.134 66.7681 221.734Z" fill="#263238"/>
<path d="M88.3381 167.343C96.8881 162.403 103.818 166.243 103.818 175.923C103.818 185.593 96.8781 197.363 88.3181 202.203C79.7581 207.043 72.8181 203.193 72.8281 193.623C72.8381 184.033 79.7881 172.273 88.3381 167.343Z" fill="#F5F5F5"/>
<path d="M88.6478 195.163C87.9178 195.583 87.2278 195.623 86.7478 195.253L79.9478 190.113C79.0378 189.423 79.1578 187.533 80.2078 185.873C81.2578 184.213 82.8478 183.433 83.7478 184.123L88.4878 187.703L101.648 159.413C102.468 157.643 104.038 156.463 105.158 156.763C106.278 157.063 106.518 158.743 105.698 160.503L90.6778 192.803C90.2278 193.773 89.5178 194.623 88.7578 195.093C88.7178 195.123 88.6778 195.143 88.6478 195.163Z" fill="#3FAEFF"/>
<path d="M219.218 153.115L214.868 150.605V150.615C212.978 149.525 210.668 150.605 209.448 151.355L206.738 149.785C203.448 147.795 198.868 151.955 197.848 152.955L196.678 152.275C193.188 150.175 186.848 155.805 186.848 155.805V134.855L189.598 133.515L185.218 130.985C185.218 130.985 185.208 130.985 185.208 130.975L185.178 130.955C184.168 130.395 182.788 130.485 181.268 131.365C178.188 133.145 175.688 137.465 175.688 141.025V189.595C171.678 186.625 167.418 184.795 163.678 185.465C160.308 186.065 157.298 188.935 156.418 190.475C154.568 193.725 157.618 195.765 161.538 200.255C165.428 204.695 168.848 210.055 172.398 213.355C175.938 216.655 178.508 217.515 178.508 217.515V223.845L182.818 226.335L211.288 204.925V198.595C211.288 198.595 215.358 182.375 216.658 175.605C217.908 169.075 219.058 158.675 216.908 153.275L219.218 153.115Z" fill="#3FAEFF"/>
<path d="M187.098 208.944L165.558 196.514L156.128 191.064C154.928 193.994 157.838 196.054 161.528 200.274C165.418 204.714 168.838 210.074 172.388 213.374C175.928 216.674 178.498 217.534 178.498 217.534V223.864L182.808 226.354L189.098 221.624C188.268 216.234 187.098 208.944 187.098 208.944Z" fill="#CCE7FF"/>
<path d="M179.988 143.525L175.678 141.045V191.985L179.988 192.095V143.525Z" fill="#CCE7FF"/>
<path d="M213.768 156.385L217.107 153.925C217.037 153.705 216.967 153.485 216.887 153.275L218.098 153.195L215.417 153.075L210.947 150.615C210.367 150.845 209.838 151.115 209.438 151.365L210.837 152.175L213.768 156.385Z" fill="#8BC8FF"/>
<path d="M201.938 155.654L205.078 153.264L200.758 150.654C199.388 151.514 198.288 152.524 197.848 152.954L200.848 154.694L201.938 155.654Z" fill="#8BC8FF"/>
<path d="M195.398 155.425L191.128 152.925L191.148 152.885V158.305L196.128 156.475L195.398 155.425Z" fill="#8BC8FF"/>
<path d="M182.798 226.345V220.015C182.798 220.015 180.228 219.155 176.688 215.855C173.148 212.555 169.718 207.195 165.828 202.755C161.908 198.275 158.858 196.225 160.708 192.975C161.578 191.435 164.598 188.565 167.968 187.965C171.708 187.295 175.968 189.125 179.978 192.095V143.525C179.978 139.965 182.478 135.645 185.558 133.865C188.638 132.085 191.138 133.525 191.138 137.085V158.295C191.138 158.295 198.828 151.465 201.928 155.655C201.928 155.655 209.478 147.745 212.888 154.425C212.888 154.425 218.428 149.945 220.928 155.145C223.428 160.345 222.228 171.315 220.928 178.095C219.628 184.875 215.558 201.085 215.558 201.085V207.415L182.798 226.345Z" fill="#8ACEFF"/>
<path d="M191.148 167.404C191.148 167.404 191.848 157.724 195.408 155.424C195.408 155.424 195.358 155.434 195.278 155.464C193.018 156.644 191.148 158.304 191.148 158.304V158.124C191.108 158.244 191.148 158.304 191.148 158.304V167.404Z" fill="#CCE7FF"/>
<path d="M201.938 155.655V164.505C201.938 164.505 202.918 155.395 204.958 153.195C203.218 154.315 201.947 155.655 201.938 155.655Z" fill="#CCE7FF"/>
<path d="M212.897 154.435V163.325C212.897 163.325 213.437 154.375 215.367 153.055C213.967 153.575 212.907 154.425 212.897 154.435Z" fill="#CCE7FF"/>
<path d="M181.229 125.265C180.539 125.665 179.979 125.425 179.979 124.735V117.705C179.979 117.015 180.539 116.125 181.229 115.725C181.919 115.325 182.479 115.565 182.479 116.255V123.285C182.479 123.975 181.919 124.865 181.229 125.265Z" fill="#EBEBEB"/>
<path d="M170.728 136.344C170.238 137.194 169.448 137.654 168.958 137.364L164.888 135.014C164.398 134.734 164.398 133.814 164.888 132.964C165.378 132.114 166.168 131.654 166.658 131.944L170.728 134.294C171.218 134.574 171.218 135.494 170.728 136.344Z" fill="#EBEBEB"/>
<path d="M166.378 150.874V151.074C166.378 151.814 165.778 152.764 165.028 153.194L159.468 156.404C158.728 156.834 158.118 156.574 158.118 155.834V155.634C158.118 154.894 158.718 153.944 159.468 153.514L165.028 150.304C165.778 149.874 166.378 150.134 166.378 150.874Z" fill="#EBEBEB"/>
<path d="M196.078 133.935V133.735C196.078 132.995 196.678 132.045 197.428 131.615L202.988 128.405C203.728 127.975 204.338 128.235 204.338 128.975V129.175C204.338 129.915 203.738 130.865 202.988 131.295L197.428 134.505C196.678 134.935 196.078 134.675 196.078 133.935Z" fill="#EBEBEB"/>
<path d="M191.728 124.224C191.238 123.944 191.238 123.024 191.728 122.174L195.798 115.134C196.288 114.284 197.078 113.824 197.568 114.114C198.058 114.394 198.058 115.314 197.568 116.164L193.498 123.204C193.008 124.044 192.218 124.504 191.728 124.224Z" fill="#EBEBEB"/>
<path d="M349.917 289.035V287.895C349.467 289.235 347.387 294.975 344.227 297.855C341.717 300.145 338.297 302.785 337.427 305.345C336.517 307.995 342.187 308.895 344.537 308.475C347.257 307.995 350.787 306.445 352.707 304.085C354.057 302.425 354.917 300.465 355.877 299.155C356.837 297.855 359.057 296.395 359.577 294.885C359.867 294.055 359.527 292.245 359.117 290.705C358.747 289.295 358.347 287.755 357.867 287.885C357.867 288.055 357.867 288.755 357.867 288.755C357.287 289.395 355.687 290.035 353.887 290.095C352.727 290.155 349.907 289.925 349.917 289.035Z" fill="#263238"/>
<path d="M341.957 299.875C342.737 299.185 343.517 298.505 344.227 297.855C346.437 295.845 348.117 292.435 349.077 290.105C349.627 288.775 349.907 287.355 349.907 285.915V281.375H357.867V288.755V288.955L357.827 288.975C357.447 290.625 353.797 295.025 351.717 297.895C350.327 299.815 347.687 302.265 344.527 302.685C341.537 303.085 340.007 302.135 341.957 299.875Z" fill="#FFA8A7"/>
<path d="M318.877 281.185V280.045C318.427 281.375 316.347 287.125 313.187 290.005C310.677 292.295 307.257 294.935 306.387 297.495C305.477 300.145 311.147 301.045 313.497 300.625C316.217 300.145 319.747 298.595 321.667 296.235C323.017 294.575 323.877 292.615 324.837 291.305C325.797 290.005 328.017 288.545 328.537 287.035C328.827 286.205 328.487 284.395 328.077 282.855C327.707 281.445 327.307 279.905 326.827 280.035C326.827 280.205 326.827 280.905 326.827 280.905C326.247 281.545 324.647 282.185 322.847 282.245C321.687 282.305 318.867 282.075 318.877 281.185Z" fill="#263238"/>
<path d="M310.917 292.023C311.697 291.333 312.477 290.653 313.187 290.003C315.397 287.993 317.077 284.583 318.037 282.253C318.587 280.923 318.867 279.503 318.867 278.063V273.523H326.827V280.903V281.103L326.787 281.123C326.407 282.773 322.757 287.173 320.677 290.043C319.287 291.963 316.647 294.413 313.487 294.833C310.497 295.233 308.977 294.293 310.917 292.023Z" fill="#FFA8A7"/>
<path d="M356.287 165.364C362.457 178.834 356.067 226.304 356.067 226.304C356.257 228.494 358.757 232.794 359.687 242.414C360.787 253.784 357.957 282.334 357.957 282.334C357.957 282.334 354.277 284.744 349.917 282.654C349.917 282.654 342.337 239.654 340.907 228.354C339.667 218.484 337.277 196.794 337.277 196.794L330.487 228.304C330.487 228.304 332.227 233.834 332.637 238.044C333.277 244.694 326.837 275.654 326.837 275.654C326.837 275.654 324.087 276.664 318.877 275.894C318.877 275.894 316.597 234.804 315.997 226.794C314.987 213.344 318.557 171.364 321.027 163.404L356.287 165.364Z" fill="#37474F"/>
<path d="M337.267 196.794L335.267 184.284C335.267 184.284 326.797 182.524 322.947 178.914C322.947 178.914 326.977 183.924 332.967 185.574L335.217 195.204L331.287 224.374L337.267 196.794Z" fill="#263238"/>
<path d="M332.237 118.195C332.237 118.195 326.257 117.315 322.117 122.735C318.927 126.895 306.747 142.765 306.747 142.765C306.747 142.765 288.787 133.775 287.897 132.705C287.017 131.635 287.507 129.485 287.757 128.295C287.997 127.105 288.407 124.475 288.667 123.735C289.127 122.445 287.217 122.795 286.087 123.995C284.937 125.235 284.457 127.565 283.897 127.965C283.337 128.375 279.057 123.455 276.987 121.085C274.917 118.715 273.937 117.055 272.547 118.035C271.547 118.745 272.187 120.145 273.677 122.185C275.167 124.215 275.377 124.435 275.597 124.875C275.777 125.235 275.227 125.525 275.007 125.725C274.607 126.085 273.887 126.675 273.837 127.235C273.807 127.545 273.867 127.855 273.777 128.155C273.587 128.835 272.747 129.145 272.507 129.815C272.337 130.295 272.527 130.835 272.427 131.335C272.367 131.655 272.187 131.945 272.127 132.275C272.017 132.905 272.377 133.525 272.797 134.025C274.257 135.755 276.247 136.425 278.157 137.475C279.747 138.355 281.387 138.735 283.217 139.555C285.047 140.365 306.267 155.075 309.627 153.225C312.987 151.375 330.327 131.195 330.327 131.195C335.337 122.895 332.237 118.195 332.237 118.195Z" fill="#FFA8A7"/>
<path d="M345.407 118.554C353.317 119.094 353.867 122.914 355.847 127.094C357.357 130.274 357.367 133.964 356.217 137.284L350.707 153.224C350.707 153.224 353.287 159.464 356.287 165.354C342.457 173.074 325.187 169.014 321.027 163.384C320.847 162.184 321.917 152.844 322.577 146.744C320.137 140.634 319.497 136.764 320.527 132.724C322.437 125.224 329.837 117.924 333.117 118.184L345.407 118.554Z" fill="#F5F5F5"/>
<path d="M337.807 112.004H340.877C349.807 112.004 357.047 104.764 357.047 95.834C357.047 86.854 349.767 79.584 340.797 79.584H337.907C328.927 79.584 321.657 86.864 321.657 95.834C321.637 104.764 328.877 112.004 337.807 112.004Z" fill="#263238"/>
<path d="M365.697 120.523C360.427 120.523 356.147 116.243 356.147 110.973V90.5234C361.417 90.5234 365.697 94.8034 365.697 100.073V120.523Z" fill="#263238"/>
<path d="M357.897 86.8945L355.507 90.7445C356.567 91.4545 357.967 91.1645 358.627 90.1045C359.277 89.0445 358.957 87.6045 357.897 86.8945Z" fill="#263238"/>
<path d="M327.457 86.7441C325.587 87.8441 323.277 92.5541 323.507 102.404C323.697 110.754 326.407 112.824 327.767 113.414C329.127 114.004 331.747 113.644 334.297 113.224V118.234C334.297 118.234 330.777 122.324 330.997 124.624C331.217 126.924 336.087 127.464 339.387 125.224C342.687 122.974 344.797 119.564 344.797 119.564V107.444C344.797 107.444 346.517 109.744 349.337 107.874C352.157 106.004 352.257 101.374 350.627 99.7141C348.997 98.0541 345.467 98.5741 344.807 100.874C344.807 100.874 340.737 101.024 335.327 98.0441C329.897 95.0741 327.817 89.9841 327.457 86.7441Z" fill="#FFA8A7"/>
<path d="M333.767 100.315C333.737 100.915 334.187 101.425 334.757 101.455C335.337 101.485 335.827 101.015 335.857 100.415C335.887 99.8148 335.437 99.3048 334.867 99.2748C334.287 99.2448 333.797 99.7048 333.767 100.315Z" fill="#263238"/>
<path d="M332.547 107.395L330.107 108.175C330.307 108.875 331.017 109.265 331.697 109.055C332.367 108.835 332.747 108.095 332.547 107.395Z" fill="#F28F8F"/>
<path d="M325.148 97.0844L327.278 95.6145C326.888 95.0045 326.098 94.8445 325.508 95.2545C324.928 95.6545 324.768 96.4744 325.148 97.0844Z" fill="#263238"/>
<path d="M325.637 99.5531C325.607 100.153 326.057 100.663 326.627 100.693C327.207 100.723 327.697 100.253 327.727 99.6531C327.757 99.0531 327.307 98.5431 326.737 98.5131C326.167 98.4831 325.667 98.9431 325.637 99.5531Z" fill="#263238"/>
<path d="M330.767 98.9434L330.607 105.273L327.277 104.243L330.767 98.9434Z" fill="#F28F8F"/>
<path d="M334.297 113.234C336.987 112.884 342.507 111.294 343.377 109.104C343.377 109.104 343.087 110.474 341.437 111.894C339.787 113.314 334.297 114.904 334.297 114.904V113.234Z" fill="#F28F8F"/>
<path opacity="0.1" d="M341.867 166.865C346.407 165.785 349.297 161.195 348.097 156.685C348.047 156.515 348.007 156.365 347.957 156.255C347.067 154.115 345.157 154.395 345.157 154.395C346.947 153.205 348.197 151.355 348.617 149.245L350.297 139.255C350.297 139.255 350.667 137.045 349.867 134.405L355.427 127.975C355.427 127.975 355.827 128.255 356.457 128.685C357.327 131.465 357.197 134.505 356.227 137.295L350.717 153.235C350.717 153.235 353.297 159.475 356.297 165.365C346.107 171.055 334.047 170.345 326.747 167.325C332.507 168.225 337.847 167.815 341.867 166.865Z" fill="black"/>
<path d="M370.447 158.244C363.267 128.894 357.957 119.104 349.237 119.214C346.687 122.254 347.397 131.454 351.417 137.034C351.417 137.034 360.387 155.964 361.817 162.694C363.077 168.604 364.497 176.044 364.407 181.124C364.387 182.024 364.017 182.884 363.407 183.544C361.767 185.324 361.767 186.754 360.697 188.714C359.867 190.254 358.957 190.824 359.217 191.174C359.547 191.614 360.607 192.194 361.907 191.374C362.567 190.954 362.997 190.474 363.947 189.414C363.947 189.414 363.687 191.794 362.327 194.864C360.487 199.014 360.937 201.134 366.537 199.654C370.047 198.724 372.257 195.804 372.777 187.354C372.927 184.924 373.157 181.084 372.867 178.014C372.137 170.004 371.597 162.974 370.447 158.244Z" fill="#FFA8A7"/>
<path d="M299.208 242.154C299.978 213.584 297.688 206.744 290.078 201.504L287.128 218.054C287.128 218.054 290.588 237.564 290.218 244.054C289.888 249.764 289.338 256.904 287.988 261.514C287.748 262.334 287.198 263.024 286.478 263.474C284.538 264.684 283.758 265.924 282.298 267.454C281.158 268.654 280.188 268.944 280.338 269.324C280.528 269.814 281.348 270.604 282.748 270.174C283.448 269.964 284.358 269.404 285.498 268.684C285.498 268.684 284.688 271.064 282.688 273.524C279.968 276.854 279.858 278.894 285.338 278.944C288.778 278.974 291.518 276.854 294.098 269.284C294.838 267.104 296.008 263.664 296.508 260.784C297.818 253.314 299.078 246.754 299.208 242.154Z" fill="#B16668"/>
<path d="M283.678 199.344C287.308 198.814 292.238 199.574 295.428 205.284C298.618 210.984 299.398 220.794 299.758 230.544C299.758 230.544 293.428 235.834 285.828 233.234L283.678 199.344Z" fill="#3FAEFF"/>
<path d="M296.098 318.864C294.868 310.104 292.928 304.904 292.928 304.904C292.928 304.904 293.888 292.864 294.348 281.444C294.848 269.114 294.318 253.604 294.558 250.524C294.558 250.524 254.758 242.474 254.048 256.734C253.338 270.994 255.618 307.294 256.088 313.554C256.558 319.814 257.638 325.354 258.938 335.514C260.218 345.534 263.798 369.194 263.798 369.194C268.348 371.654 272.658 369.014 272.658 369.014C272.658 369.014 275.458 340.504 275.168 333.274C274.808 324.444 272.428 317.494 272.428 317.494C272.428 317.494 273.178 305.734 273.848 295.514C274.518 285.284 275.218 280.374 275.378 275.924L276.238 275.504C276.238 275.504 277.108 293.144 277.578 299.414C278.048 305.674 279.048 311.684 280.858 323.314C282.428 333.404 287.108 354.764 287.108 354.764C291.658 357.224 294.368 354.444 294.368 354.444C294.368 354.444 297.328 327.624 296.098 318.864Z" fill="#37474F"/>
<path d="M275.368 275.923C275.368 275.923 285.028 271.163 289.858 266.873C289.858 266.873 285.368 273.193 279.478 276.003C279.478 276.003 277.378 297.923 277.398 297.483L276.188 275.893L275.368 275.923Z" fill="#263238"/>
<path d="M266.768 194.824L269.128 207.794L280.838 206.934L278.378 192.244L266.768 194.824Z" fill="#B16668"/>
<path d="M293.208 205.984C292.048 202.464 287.578 198.624 283.098 199.454C274.878 200.984 268.358 202.614 263.498 204.344C259.398 205.804 255.668 209.344 255.328 222.824C255.328 222.824 253.958 254.234 253.928 260.314C264.218 264.384 274.918 264.264 280.828 262.964C293.138 260.274 294.628 255.164 294.628 255.164C294.628 255.164 294.788 232.574 294.418 222.814C294.108 214.544 293.998 208.404 293.208 205.984Z" fill="#8BC9FF"/>
<path d="M257.738 179.064C257.738 179.064 254.768 183.794 255.128 184.244C255.488 184.694 257.758 185.054 257.758 185.054L257.738 179.064Z" fill="#B16668"/>
<path d="M265.987 165.964C259.797 167.414 258.057 170.194 257.697 180.084C257.317 190.424 258.447 193.644 259.837 195.004C260.777 195.924 265.867 195.974 268.417 195.214C271.607 194.254 278.817 191.514 282.097 186.244C285.957 180.044 286.827 171.734 282.467 168.434C276.327 163.794 268.507 165.374 265.987 165.964Z" fill="#B16668"/>
<path d="M266.908 195.534C269.008 193.844 268.818 192.754 268.818 192.754C267.308 194.164 261.738 195.364 259.828 195.004C260.608 195.764 264.228 195.934 266.908 195.534Z" fill="#9A4A4D"/>
<path d="M257.758 168.534C259.578 171.644 263.518 173.134 263.518 173.134C264.708 174.484 264.048 179.764 266.138 180.604C266.138 180.604 267.038 176.764 270.268 177.174C273.518 177.584 274.048 181.704 272.068 184.254C270.088 186.804 268.158 185.894 268.158 185.894C268.158 185.894 268.378 191.344 270.868 194.384C270.868 194.384 273.638 195.214 278.678 194.024C281.768 193.294 286.088 189.304 287.838 185.144C291.548 176.344 291.648 168.504 286.038 166.284C285.348 162.284 282.148 160.554 278.528 159.814C270.738 158.204 265.708 163.074 259.718 162.644C256.278 162.394 255.638 164.894 257.758 168.534Z" fill="#263238"/>
<path d="M286.158 167.614L289.828 165.334C289.198 164.324 287.868 164.004 286.848 164.634C285.848 165.264 285.528 166.594 286.158 167.614Z" fill="#263238"/>
<path d="M263.818 204.293C263.818 204.293 257.998 205.373 254.958 209.973C251.918 214.573 238.768 231.073 238.768 231.073C238.768 231.073 219.848 221.603 218.918 220.483C217.988 219.363 218.508 217.093 218.768 215.843C219.028 214.593 219.448 211.823 219.728 211.043C220.218 209.683 218.198 210.053 217.018 211.323C215.808 212.623 215.308 215.083 214.708 215.513C214.118 215.943 209.618 210.763 207.428 208.263C205.238 205.763 204.218 204.013 202.758 205.043C201.698 205.783 202.378 207.273 203.948 209.413C205.518 211.553 205.748 211.783 205.968 212.253C206.158 212.633 205.578 212.943 205.348 213.143C204.928 213.523 204.168 214.143 204.118 214.733C204.088 215.053 204.148 215.393 204.058 215.703C203.858 216.413 202.968 216.753 202.728 217.443C202.548 217.943 202.748 218.513 202.648 219.043C202.578 219.383 202.398 219.693 202.338 220.033C202.218 220.703 202.598 221.353 203.038 221.873C204.578 223.703 206.668 224.403 208.688 225.513C210.358 226.443 212.088 226.843 214.018 227.703C215.948 228.563 238.628 245.323 242.168 243.373C245.708 241.423 263.848 220.223 263.848 220.223C269.088 211.473 263.818 204.293 263.818 204.293Z" fill="#B16668"/>
<path d="M265.847 203.613C263.347 203.903 259.837 203.433 254.937 208.703C250.037 213.963 243.907 222.903 243.907 222.903C243.907 222.903 245.607 231.443 254.877 233.233C254.877 233.233 263.457 224.443 265.847 219.593C268.237 214.743 268.797 206.883 265.847 203.613Z" fill="#3FAEFF"/>
</svg>
