<svg width="458" height="467" viewBox="0 0 458 467" fill="none" xmlns="http://www.w3.org/2000/svg">
<circle cx="228.5" cy="228.5" r="227.5" stroke="#DAF2FF" stroke-width="2"/>
<path d="M446.201 235.357C451.638 351.531 362.08 450.102 246.173 455.526C130.266 460.951 31.893 371.174 26.4562 255.001C21.0193 138.827 110.577 40.2558 226.485 34.8314C342.392 29.4071 440.764 119.183 446.201 235.357Z" stroke="#DAF2FF" stroke-width="2"/>
<g clip-path="url(#clip0_1387_159)">
<path d="M62.8501 196.979C62.8501 196.979 47.8701 261.009 89.6001 316.789C131.33 372.569 204.09 394.249 262.56 413.369C321.04 432.489 375.81 410.419 396.36 361.269C416.91 312.119 375.41 285.649 366.25 221.469C357.1 157.279 364.4 138.799 321.72 89.929C279.04 41.059 191.44 42.219 132.22 92.399C73.0001 142.569 62.8501 196.979 62.8501 196.979Z" fill="#9DCAFF"/>
<path opacity="0.7" d="M112.616 256.971C112.616 256.971 97.6362 321.001 139.366 376.781C181.096 432.561 253.856 454.241 312.326 473.361C370.806 492.481 425.576 470.411 446.126 421.261C466.676 372.111 425.176 345.641 416.016 281.461C406.866 217.271 414.166 198.791 371.486 149.921C328.806 101.051 241.206 102.211 181.986 152.391C122.766 202.561 112.616 256.971 112.616 256.971Z" fill="#E0F3FF"/>
<path d="M392.94 245.541C392.94 245.541 392.94 241.361 387.09 235.501C381.24 229.651 377.47 226.301 377.47 226.301C377.47 226.301 374.54 235.921 379.98 241.771C385.42 247.621 392.94 253.061 392.94 253.061V245.541Z" fill="#9DCAFF"/>
<path d="M384.44 271.66C384.44 271.66 384.44 267.48 378.59 261.62C372.74 255.77 368.97 252.42 368.97 252.42C368.97 252.42 366.04 262.04 371.48 267.89C376.92 273.74 384.44 279.18 384.44 279.18V271.66Z" fill="#9DCAFF"/>
<path d="M392.57 252.66C392.57 252.66 393.01 248.5 399.45 243.3C405.89 238.1 409.99 235.17 409.99 235.17C409.99 235.17 411.88 245.04 405.86 250.29C399.84 255.54 391.78 260.15 391.78 260.15L392.57 252.66Z" fill="#9DCAFF"/>
<path d="M382.3 283.511C382.3 283.511 383.18 279.421 390.13 274.921C397.08 270.421 401.46 267.941 401.46 267.941C401.46 267.941 402.31 277.961 395.76 282.541C389.22 287.131 380.72 290.861 380.72 290.861L382.3 283.511Z" fill="#9DCAFF"/>
<path d="M384.23 317.14C384.23 317.14 384.23 312.96 390.08 307.1C395.93 301.25 399.7 297.9 399.7 297.9C399.7 297.9 402.63 307.52 397.19 313.37C391.75 319.22 384.23 324.66 384.23 324.66V317.14Z" fill="#9DCAFF"/>
<path d="M384.14 325.342C384.14 325.342 384.73 321.202 379.77 314.572C374.81 307.942 371.56 304.102 371.56 304.102C371.56 304.102 367.3 313.202 371.84 319.772C376.39 326.342 383.07 332.792 383.07 332.792L384.14 325.342Z" fill="#9DCAFF"/>
<path d="M378.36 349.672C378.36 349.672 378.36 345.492 384.21 339.632C390.06 333.782 393.83 330.432 393.83 330.432C393.83 330.432 396.76 340.052 391.32 345.902C385.88 351.752 378.36 357.192 378.36 357.192V349.672Z" fill="#9DCAFF"/>
<path d="M382.27 371.731C382.27 371.731 381.21 367.681 385.39 360.541C389.57 353.391 392.36 349.201 392.36 349.201C392.36 349.201 397.63 357.761 393.85 364.801C390.07 371.841 384.17 379.011 384.17 379.011L382.27 371.731Z" fill="#9DCAFF"/>
<path d="M393.47 244.471C393.13 248.941 392.62 253.561 391.87 257.451C389.56 269.411 383.77 277.121 381.46 287.921C379.15 298.721 385.79 312.631 384.01 326.511C382.23 340.381 376.83 348.101 378.37 357.351C379.91 366.611 388.01 391.681 388.01 391.681" stroke="#263238" stroke-width="0.5" stroke-miterlimit="10" stroke-linecap="round" stroke-linejoin="round"/>
<path d="M392.51 255.442L398.82 250.602" stroke="#263238" stroke-width="0.5" stroke-miterlimit="10" stroke-linecap="round" stroke-linejoin="round"/>
<path d="M392.81 249.87L390.16 245.17" stroke="#263238" stroke-width="0.5" stroke-miterlimit="10" stroke-linecap="round" stroke-linejoin="round"/>
<path d="M381.8 287.432C381.8 287.432 387.08 283.472 392.51 279.512" stroke="#263238" stroke-width="0.5" stroke-miterlimit="10" stroke-linecap="round" stroke-linejoin="round"/>
<path d="M384.44 279.18C384.44 279.18 380.04 270.55 375.05 264.83" stroke="#263238" stroke-width="0.5" stroke-miterlimit="10" stroke-linecap="round" stroke-linejoin="round"/>
<path d="M384.44 323.081C384.44 323.081 388.55 315.011 395.74 307.971" stroke="#263238" stroke-width="0.5" stroke-miterlimit="10" stroke-linecap="round" stroke-linejoin="round"/>
<path d="M383.41 328.951C383.41 328.951 380.77 322.641 377.69 318.091C374.61 313.541 374.17 312.951 374.17 312.951" stroke="#263238" stroke-width="0.5" stroke-miterlimit="10" stroke-linecap="round" stroke-linejoin="round"/>
<path d="M378.36 357.36C378.36 357.36 380.48 351.99 383.12 347.74C385.76 343.48 389.28 339.67 389.28 339.67" stroke="#263238" stroke-width="0.5" stroke-miterlimit="10" stroke-linecap="round" stroke-linejoin="round"/>
<path d="M384.18 379.011C384.18 379.011 383.56 374.001 385.76 369.751C387.96 365.491 390.46 359.921 391.48 357.721" stroke="#263238" stroke-width="0.5" stroke-miterlimit="10" stroke-linecap="round" stroke-linejoin="round"/>
<path d="M354.6 301.41C354.6 301.41 354.15 298.79 357.18 294.48C360.22 290.17 362.21 287.67 362.21 287.67C362.21 287.67 365.09 293.38 362.32 297.65C359.55 301.91 355.42 306.14 355.42 306.14L354.6 301.41Z" fill="#9DCAFF"/>
<path d="M362.76 316.859C362.76 316.859 362.31 314.239 365.34 309.929C368.38 305.619 370.37 303.119 370.37 303.119C370.37 303.119 373.25 308.829 370.48 313.099C367.71 317.359 363.58 321.589 363.58 321.589L362.76 316.859Z" fill="#9DCAFF"/>
<path d="M355.6 305.83C355.6 305.83 354.87 303.27 350.27 300.71C345.67 298.15 342.78 296.75 342.78 296.75C342.78 296.75 342.66 303.15 347.01 305.78C351.36 308.42 356.91 310.43 356.91 310.43L355.6 305.83Z" fill="#9DCAFF"/>
<path d="M365.39 324.059C365.39 324.059 364.4 321.589 359.55 319.519C354.7 317.449 351.69 316.369 351.69 316.369C351.69 316.369 352.25 322.739 356.85 324.909C361.45 327.079 367.19 328.499 367.19 328.499L365.39 324.059Z" fill="#9DCAFF"/>
<path d="M367.83 345.361C367.83 345.361 367.38 342.741 363.07 339.701C358.76 336.661 356.04 334.971 356.04 334.971C356.04 334.971 355.25 341.321 359.29 344.401C363.33 347.481 368.65 350.071 368.65 350.071L367.83 345.361Z" fill="#9DCAFF"/>
<path d="M368.78 350.501C368.78 350.501 367.96 347.971 370.35 343.271C372.74 338.581 374.36 335.811 374.36 335.811C374.36 335.811 378.02 341.061 375.88 345.671C373.74 350.281 370.25 355.051 370.25 355.051L368.78 350.501Z" fill="#9DCAFF"/>
<path d="M376.13 371.649C376.13 371.649 376.43 369.009 380.56 365.729C384.69 362.449 387.31 360.609 387.31 360.609C387.31 360.609 388.46 366.899 384.6 370.209C380.74 373.519 375.58 376.409 375.58 376.409L376.13 371.649Z" fill="#9DCAFF"/>
<path d="M375.04 365.12C375.04 365.12 374.59 362.5 370.28 359.46C365.97 356.42 363.25 354.73 363.25 354.73C363.25 354.73 362.46 361.08 366.5 364.16C370.54 367.24 375.86 369.83 375.86 369.83L375.04 365.12Z" fill="#9DCAFF"/>
<path d="M374.98 379.38C374.98 379.38 375.21 376.73 371.81 372.7C368.41 368.67 366.21 366.35 366.21 366.35C366.21 366.35 363.84 372.29 366.97 376.3C370.1 380.31 374.58 384.16 374.58 384.16L374.98 379.38Z" fill="#9DCAFF"/>
<path d="M354.15 300.789C354.85 303.559 355.67 306.399 356.57 308.759C359.32 316.009 363.79 320.219 366.41 326.739C369.03 333.259 366.38 342.709 369 351.209C371.62 359.719 375.85 363.969 375.88 369.939C375.92 375.909 373.56 392.509 373.56 392.509" stroke="#263238" stroke-width="0.5" stroke-miterlimit="10" stroke-linecap="round" stroke-linejoin="round"/>
<path d="M355.94 307.571L351.46 305.221" stroke="#263238" stroke-width="0.5" stroke-miterlimit="10" stroke-linecap="round" stroke-linejoin="round"/>
<path d="M355.15 304.111L356.3 300.881" stroke="#263238" stroke-width="0.5" stroke-miterlimit="10" stroke-linecap="round" stroke-linejoin="round"/>
<path d="M366.13 326.47C366.13 326.47 362.39 324.56 358.55 322.66" stroke="#263238" stroke-width="0.5" stroke-miterlimit="10" stroke-linecap="round" stroke-linejoin="round"/>
<path d="M363.58 321.581C363.58 321.581 365.4 315.691 367.91 311.561" stroke="#263238" stroke-width="0.5" stroke-miterlimit="10" stroke-linecap="round" stroke-linejoin="round"/>
<path d="M368.34 349.109C368.34 349.109 364.89 344.499 359.61 340.859" stroke="#263238" stroke-width="0.5" stroke-miterlimit="10" stroke-linecap="round" stroke-linejoin="round"/>
<path d="M369.63 352.68C369.63 352.68 370.6 348.44 372.04 345.25C373.48 342.06 373.69 341.65 373.69 341.65" stroke="#263238" stroke-width="0.5" stroke-miterlimit="10" stroke-linecap="round" stroke-linejoin="round"/>
<path d="M375.67 374.47C375.67 374.47 378.64 370.83 380.49 369.47C382.34 368.11 383.62 366.75 383.62 366.75" stroke="#263238" stroke-width="0.5" stroke-miterlimit="10" stroke-linecap="round" stroke-linejoin="round"/>
<path d="M375.88 369.939C375.88 369.939 373.97 366.809 371.85 364.419C369.73 362.039 367.11 360.029 367.11 360.029" stroke="#263238" stroke-width="0.5" stroke-miterlimit="10" stroke-linecap="round" stroke-linejoin="round"/>
<path d="M374.58 384.15C374.58 384.15 374.42 380.94 372.58 378.51C370.74 376.08 368.57 372.85 367.69 371.59" stroke="#263238" stroke-width="0.5" stroke-miterlimit="10" stroke-linecap="round" stroke-linejoin="round"/>
<path d="M396.85 421.371H364.63C362.95 421.371 361.59 420.011 361.59 418.331V389.631H399.89V418.331C399.89 420.001 398.53 421.371 396.85 421.371Z" fill="#263238"/>
<path d="M399.56 394.621H361.59C359.93 394.621 358.59 393.281 358.59 391.621C358.59 389.961 359.93 388.621 361.59 388.621H399.56C401.22 388.621 402.56 389.961 402.56 391.621C402.56 393.281 401.22 394.621 399.56 394.621Z" fill="#263238"/>
<path d="M326.71 127.67C345.488 127.67 360.71 112.448 360.71 93.6699C360.71 74.8922 345.488 59.6699 326.71 59.6699C307.932 59.6699 292.71 74.8922 292.71 93.6699C292.71 112.448 307.932 127.67 326.71 127.67Z" fill="#263238"/>
<path d="M337.804 120.995C352.897 114.873 360.169 97.6747 354.047 82.5816C347.925 67.4886 330.727 60.2163 315.634 66.3385C300.541 72.4608 293.268 89.6592 299.39 104.752C305.513 119.845 322.711 127.118 337.804 120.995Z" fill="white"/>
<path d="M307.58 99.0999L326.71 93.6699V66.9199" stroke="#263238" stroke-width="2" stroke-miterlimit="10"/>
<path d="M161.74 245.68H124.41L75.54 114.52H112.87L161.74 245.68Z" fill="#263238"/>
<path opacity="0.2" d="M161.74 245.68H124.41L75.54 114.52H112.87L161.74 245.68Z" fill="white"/>
<path d="M102.9 146.55H93.2998C92.0998 146.55 90.7698 145.58 90.3298 144.38L86.6198 134.43C86.1698 133.23 86.7798 132.26 87.9798 132.26H97.5798C98.7798 132.26 100.11 133.23 100.55 134.43L104.26 144.38C104.7 145.58 104.09 146.55 102.9 146.55Z" fill="#263238"/>
<path d="M115.34 121.15H78.01L75.54 114.52H112.87L115.34 121.15Z" fill="#263238"/>
<path d="M90.77 122.23L91.84 125.11" stroke="#263238" stroke-miterlimit="10" stroke-linecap="round" stroke-linejoin="round"/>
<path d="M92.2002 122.23L93.2802 125.11" stroke="#263238" stroke-miterlimit="10" stroke-linecap="round" stroke-linejoin="round"/>
<path d="M93.6401 122.23L94.7101 125.11" stroke="#263238" stroke-miterlimit="10" stroke-linecap="round" stroke-linejoin="round"/>
<path d="M95.0801 122.23L96.1501 125.11" stroke="#263238" stroke-miterlimit="10" stroke-linecap="round" stroke-linejoin="round"/>
<path d="M96.52 122.23L97.59 125.11" stroke="#263238" stroke-miterlimit="10" stroke-linecap="round" stroke-linejoin="round"/>
<path d="M97.96 122.23L99.03 125.11" stroke="#263238" stroke-miterlimit="10" stroke-linecap="round" stroke-linejoin="round"/>
<path d="M99.3999 122.23L100.47 125.11" stroke="#263238" stroke-miterlimit="10" stroke-linecap="round" stroke-linejoin="round"/>
<path d="M100.83 122.23L101.91 125.11" stroke="#263238" stroke-miterlimit="10" stroke-linecap="round" stroke-linejoin="round"/>
<path d="M102.27 122.23L103.34 125.11" stroke="#263238" stroke-miterlimit="10" stroke-linecap="round" stroke-linejoin="round"/>
<path d="M103.71 122.23L104.78 125.11" stroke="#263238" stroke-miterlimit="10" stroke-linecap="round" stroke-linejoin="round"/>
<path d="M99.7899 140.32L90.7499 134.59C90.5399 134.46 90.2999 134.43 90.1499 134.53C89.9999 134.63 89.9699 134.83 90.0599 135.04L94.1999 143.97C94.2999 144.19 94.5199 144.37 94.7599 144.43C94.8099 144.44 94.8599 144.45 94.8999 144.45C95.0699 144.45 95.1999 144.37 95.2499 144.23L96.1999 141.29L99.7999 141.25C100.02 141.25 100.16 141.11 100.16 140.9C100.16 140.69 100.01 140.46 99.7899 140.32Z" fill="white"/>
<path d="M99.6098 140.72L90.5698 134.99L94.7098 143.92L95.7398 140.76L99.6098 140.72Z" fill="#263238"/>
<path d="M116.5 140.72L107.46 134.99L111.6 143.92L112.63 140.76L116.5 140.72Z" fill="white"/>
<path d="M121.13 145.799L120.32 143.959L119.25 145.509L121.13 145.799Z" fill="white"/>
<path d="M142.97 204.41L142.16 202.57L141.09 204.12L142.97 204.41Z" fill="white"/>
<path d="M149.67 222.399L148.86 220.559L147.8 222.109L149.67 222.399Z" fill="white"/>
<path d="M156.55 240.85L155.73 239.01L154.67 240.56L156.55 240.85Z" fill="white"/>
<path d="M118.06 183.639L117.24 181.799L116.18 183.349L118.06 183.639Z" fill="white"/>
<path d="M125.8 204.41L124.98 202.57L123.92 204.12L125.8 204.41Z" fill="white"/>
<path d="M132.5 222.399L131.68 220.559L130.62 222.109L132.5 222.399Z" fill="white"/>
<path d="M139.37 240.85L138.56 239.01L137.49 240.56L139.37 240.85Z" fill="white"/>
<path d="M99.79 165.53L101.36 166.55L105.68 157.53L104.1 156.52L99.79 165.53Z" fill="white"/>
<path d="M101.73 156.709C99.4498 154.919 99.2798 154.569 99.8398 152.549C98.6598 154.169 98.3098 154.199 95.7998 152.879C98.0798 154.669 98.2498 155.019 97.6898 157.039C98.8698 155.419 99.2098 155.399 101.73 156.709Z" fill="white"/>
<path d="M109.27 157.679C107.86 156.579 107.76 156.359 108.1 155.109C107.37 156.109 107.16 156.129 105.6 155.319C107.01 156.419 107.11 156.639 106.77 157.889C107.5 156.889 107.71 156.869 109.27 157.679Z" fill="white"/>
<path d="M108.84 161.918C107.83 161.128 107.76 160.978 108.01 160.078C107.49 160.788 107.34 160.808 106.23 160.228C107.24 161.018 107.31 161.168 107.06 162.068C107.58 161.348 107.73 161.338 108.84 161.918Z" fill="white"/>
<path d="M131.5 201.889L132.47 202.569L136.79 193.559L135.82 192.869L131.5 201.889Z" fill="white"/>
<path d="M127.88 163.21L119.91 158.15L123.56 166.04L124.46 163.25L127.88 163.21Z" fill="white"/>
<path d="M121.88 163.67C118.96 163.67 115.94 161.95 115.15 159.83C114.36 157.71 116.1 155.99 119.02 155.99C121.94 155.99 124.96 157.71 125.75 159.83C126.54 161.95 124.8 163.67 121.88 163.67ZM119.19 156.45C116.52 156.45 114.91 157.97 115.61 159.83C116.3 161.69 119.04 163.21 121.71 163.21C124.38 163.21 125.99 161.69 125.29 159.83C124.6 157.97 121.86 156.45 119.19 156.45Z" fill="white"/>
<path d="M118.37 162.899C117.65 162.899 116.85 162.309 116.58 161.589C116.31 160.869 116.68 160.279 117.4 160.279C118.12 160.279 118.92 160.869 119.19 161.589C119.46 162.319 119.09 162.899 118.37 162.899ZM117.57 160.749C117.1 160.749 116.87 161.129 117.04 161.599C117.21 162.069 117.73 162.449 118.2 162.449C118.67 162.449 118.9 162.069 118.73 161.599C118.55 161.129 118.03 160.749 117.57 160.749Z" fill="white"/>
<path d="M118.49 164.27L118.17 163.84C118.75 163.6 119.06 163.25 119.1 162.8C119.16 162.23 118.76 161.68 118.76 161.68L119.13 161.52C119.15 161.55 119.66 162.25 119.59 163C119.55 163.56 119.17 163.99 118.49 164.27Z" fill="white"/>
<path d="M113.5 177.279L107.93 173.219L106.75 175.099L112.31 179.159L113.5 177.279Z" fill="white"/>
<path d="M104.58 182.528L105.49 183.188L107.53 179.938C107.3 179.698 107.21 179.378 107.35 179.168C107.51 178.918 107.91 178.918 108.25 179.168C108.59 179.418 108.74 179.818 108.59 180.068C108.46 180.278 108.16 180.308 107.86 180.168L105.82 183.418L106.67 184.038L111.7 182.628L112.01 179.658L106.52 175.658L103.99 177.018L104.58 182.528Z" fill="white"/>
<path d="M99.3198 169.799H131.45" stroke="#263238" stroke-miterlimit="10" stroke-linecap="round" stroke-linejoin="round"/>
<path d="M127.26 173.219L126.08 175.099L131.64 179.159L132.83 177.279L127.26 173.219Z" fill="white"/>
<path d="M123.32 177.008L123.91 182.518L124.82 183.178L126.86 179.928C126.63 179.688 126.54 179.368 126.68 179.158C126.84 178.908 127.24 178.908 127.58 179.158C127.92 179.408 128.07 179.808 127.92 180.058C127.79 180.268 127.49 180.298 127.19 180.158L125.15 183.408L126 184.028L131.03 182.618L131.34 179.648L125.85 175.648L123.32 177.008Z" fill="white"/>
<path d="M121.94 178.629C121.99 178.239 122.05 177.819 122.09 177.349C122.17 176.399 121.9 175.559 121.3 174.839C120.35 173.709 118.92 173.339 118.86 173.329C118.71 173.289 118.59 173.369 118.61 173.509C118.62 173.649 118.76 173.789 118.91 173.829C118.92 173.829 120.14 174.139 120.91 175.059C121.39 175.629 121.6 176.329 121.53 177.129C121.49 177.589 121.44 178.009 121.38 178.389C121.11 180.389 120.95 181.589 124.27 183.579C124.33 183.619 124.39 183.629 124.45 183.629C124.53 183.629 124.59 183.589 124.62 183.529C124.67 183.419 124.58 183.249 124.44 183.159C121.56 181.449 121.67 180.619 121.94 178.629Z" fill="white"/>
<path d="M107.72 192L107.91 192.52C107.98 192.7 108.59 194.32 108.91 194.87L109.84 194.64C109.69 194.39 109.39 193.66 109.15 193.04H113.12L116.44 201.95H114.95L115.34 202.99H119.36L118.97 201.95H117.48L114.16 193.04H118.02C118.23 193.6 118.56 194.48 118.72 194.92H119.77C119.52 194.25 118.88 192.52 118.88 192.52L118.69 192H107.72Z" fill="white"/>
<path opacity="0.44" d="M128.6 216.73C129.45 219.02 127.57 220.88 124.4 220.88C121.23 220.88 117.96 219.02 117.11 216.73C116.26 214.44 118.14 212.58 121.31 212.58C124.48 212.58 127.75 214.44 128.6 216.73Z" fill="white"/>
<path d="M128.6 216.73C129.45 219.02 127.57 220.88 124.4 220.88C121.23 220.88 117.96 219.02 117.11 216.73C116.26 214.44 118.14 212.58 121.31 212.58C124.48 212.58 127.75 214.44 128.6 216.73Z" stroke="white" stroke-miterlimit="10"/>
<path d="M140.43 216.85L144.2 210C144.36 209.72 144.76 209.66 145.16 209.86C145.64 210.1 145.95 210.61 145.85 210.99L143.82 218.56L140.43 216.85Z" fill="white"/>
<path d="M139.81 217.419C141.29 217.219 144.19 218.489 144.27 220.409C144.29 220.889 143.97 221.219 143.6 221.439C142.48 222.119 140.91 222.149 139.38 222.169C139.75 221.909 139.9 221.429 139.78 220.909C139.66 220.369 139.29 219.829 139.09 219.289C138.83 218.519 138.97 217.479 139.81 217.419Z" fill="white"/>
<path d="M131.96 232.46C131.52 231.5 130.97 230.91 130.59 230.59L129.45 232.4C129.89 232.77 130.53 233.44 131.03 234.52C131.47 235.48 131.87 236.17 132.16 236.61L133.27 234.83C132.92 234.32 132.44 233.49 131.96 232.46Z" fill="white"/>
<path d="M130.65 234.55C130.21 233.59 129.66 233 129.28 232.68L128.14 234.49C128.58 234.86 129.22 235.53 129.72 236.61C130.16 237.57 130.56 238.26 130.85 238.7L131.96 236.92C131.6 236.41 131.12 235.59 130.65 234.55Z" fill="white"/>
<path d="M132.35 232.419C132.79 233.379 133.19 234.069 133.48 234.509L135.12 231.889L131.45 229.209L130.77 230.289C131.21 230.669 131.85 231.339 132.35 232.419Z" fill="white"/>
<path d="M129.33 236.649C128.89 235.689 128.34 235.099 127.96 234.779L127.01 236.299L127.17 239.759C127.18 239.999 127.5 240.229 127.7 240.139L130.62 238.989C130.27 238.469 129.8 237.659 129.33 236.649ZM128.04 238.959L127.95 237.119L129.62 238.339L128.04 238.959Z" fill="white"/>
<path d="M143.74 234.09L142.49 236.09L148.95 240.8L150.2 238.8L150.59 239.09L153.54 234.38L146.29 229.1L143.34 233.81L143.74 234.09ZM148.52 239.65L143.62 236.08L144.51 234.65L149.41 238.22L148.52 239.65Z" fill="white"/>
<path d="M82.7498 116.27L82.9898 116.91L82.0898 118.01L83.8098 119.11L84.0398 119.75L81.3398 118.01L82.7498 116.27Z" fill="white"/>
<path d="M80.4901 116.27L80.7301 116.91L79.8301 118.01L81.5501 119.11L81.7901 119.75L79.0801 118.01L80.4901 116.27Z" fill="white"/>
<path d="M234.04 193.18H156.83L133.23 127.34H210.44L234.04 193.18Z" fill="#263238"/>
<path d="M228.56 189.59H159.73L138.7 130.93H207.53L228.56 189.59Z" fill="#9DCAFF"/>
<path d="M215.47 153.079L204.09 144.699L195.1 168.039L171.79 161.459L159.73 189.589H228.56L215.47 153.079Z" fill="white"/>
<path d="M168.05 143.5C166.45 139.04 161.54 135.42 157.07 135.42C152.61 135.42 150.29 139.04 151.89 143.5C153.49 147.96 158.4 151.58 162.87 151.58C167.34 151.58 169.65 147.96 168.05 143.5Z" fill="white"/>
<path d="M242.04 181.84H164.83L141.23 116.01H218.44L242.04 181.84Z" fill="#263238"/>
<path d="M236.56 178.25H167.73L146.7 119.6H215.53L236.56 178.25Z" fill="#DAF2FF"/>
<path d="M223.47 141.739L212.09 133.359L203.1 156.709L179.79 150.119L167.73 178.249H236.56L223.47 141.739Z" fill="white"/>
<path d="M176.05 132.17C174.45 127.71 169.54 124.09 165.07 124.09C160.61 124.09 158.29 127.71 159.89 132.17C161.49 136.63 166.4 140.25 170.87 140.25C175.34 140.25 177.65 136.63 176.05 132.17Z" fill="white"/>
<path d="M242.38 105.68L244.24 110.18H243.7C243.31 109.39 242.96 108.82 242.65 108.48C242.16 107.93 241.62 107.53 241.04 107.27C240.46 107.01 239.77 106.88 238.98 106.88H236.28L241.64 121.55C242.07 122.73 242.47 123.47 242.83 123.76C243.33 124.16 243.96 124.35 244.7 124.35H245.37L245.56 124.87H237.42L237.23 124.35H237.91C238.72 124.35 239.21 124.1 239.37 123.61C239.47 123.31 239.32 122.62 238.93 121.54L233.57 106.87H231.26C230.36 106.87 229.75 106.94 229.42 107.07C228.99 107.25 228.7 107.59 228.54 108.1C228.38 108.61 228.42 109.3 228.67 110.17H228.13L226.71 105.67H242.38V105.68Z" fill="black"/>
<path d="M254.07 114.721H259.95" stroke="#263238" stroke-width="0.5" stroke-miterlimit="10"/>
<path d="M259.76 130.29H230.2L219.25 100.35H248.81L259.76 130.29Z" stroke="#263238" stroke-width="0.5" stroke-miterlimit="10"/>
<path d="M225.99 115.829H223.77L222.96 113.609H225.18L225.99 115.829Z" fill="white" stroke="#263238" stroke-width="0.5" stroke-miterlimit="10"/>
<path d="M255.59 115.829H253.37L252.56 113.609H254.78L255.59 115.829Z" fill="white" stroke="#263238" stroke-width="0.5" stroke-miterlimit="10"/>
<path d="M220.79 101.62H218.58L217.77 99.4102H219.98L220.79 101.62Z" fill="white" stroke="#263238" stroke-width="0.5" stroke-miterlimit="10"/>
<path d="M250.39 101.62H248.18L247.37 99.4102H249.58L250.39 101.62Z" fill="white" stroke="#263238" stroke-width="0.5" stroke-miterlimit="10"/>
<path d="M235.6 101.62H233.39L232.58 99.4102H234.79L235.6 101.62Z" fill="white" stroke="#263238" stroke-width="0.5" stroke-miterlimit="10"/>
<path d="M231.62 131.22H229.4L228.59 129H230.81L231.62 131.22Z" fill="white" stroke="#263238" stroke-width="0.5" stroke-miterlimit="10"/>
<path d="M261.21 131.22H259L258.19 129H260.4L261.21 131.22Z" fill="white" stroke="#263238" stroke-width="0.5" stroke-miterlimit="10"/>
<path d="M245.15 130.82L247.3 136.7" stroke="#263238" stroke-width="0.5" stroke-miterlimit="10"/>
<path d="M246.43 131.22H244.21L243.4 129H245.62L246.43 131.22Z" fill="white" stroke="#263238" stroke-width="0.5" stroke-miterlimit="10"/>
<path d="M248.83 137.8H246.62L245.81 135.59H248.02L248.83 137.8Z" fill="#263238"/>
<path d="M228.42 124.67H253.26" stroke="#263238" stroke-width="0.5" stroke-miterlimit="10"/>
<path d="M261.12 114.721C260.88 114.081 260.17 113.551 259.53 113.551C258.89 113.551 258.55 114.071 258.79 114.721C259.03 115.361 259.74 115.891 260.38 115.891C261.02 115.891 261.35 115.371 261.12 114.721Z" fill="#263238"/>
<path opacity="0.2" d="M124.07 273.489L150.86 296.449L125.33 421.369H127.06L155.45 298.749L181.48 320.559L144.74 421.219L147.04 420.829L185.69 322.859L293.23 420.829H358.67L282.13 270.809L124.07 273.489Z" fill="black"/>
<path d="M127.06 421.369H125.33L122.74 271.359H129.65L127.06 421.369Z" fill="#263238" stroke="#263238" stroke-miterlimit="10" stroke-linecap="round" stroke-linejoin="round"/>
<path d="M275.92 421.369H274.19L271.6 271.359H278.51L275.92 421.369Z" fill="#263238" stroke="#263238" stroke-miterlimit="10" stroke-linecap="round" stroke-linejoin="round"/>
<path d="M286.46 269.039H120.1V272.929H286.46V269.039Z" fill="white" stroke="#263238" stroke-miterlimit="10" stroke-linecap="round" stroke-linejoin="round"/>
<path d="M82.5298 349.569L79.5098 355.949C79.5098 355.949 83.2098 359.979 84.8898 359.979C86.5698 359.979 87.2398 358.299 89.2598 357.629C91.2798 356.959 94.6398 350.569 94.6398 350.569C94.6398 350.569 92.6198 347.209 90.6098 346.869C88.5998 346.529 85.5698 345.529 83.8898 345.189C82.1998 344.869 82.5298 349.569 82.5298 349.569Z" fill="white" stroke="#263238" stroke-miterlimit="10" stroke-linecap="round" stroke-linejoin="round"/>
<path d="M82.5298 349.569L84.5498 352.929V355.949C84.5498 355.949 86.5698 356.959 87.2398 355.949C87.9098 354.939 90.9398 351.579 90.9398 351.579L89.5998 348.559" stroke="#263238" stroke-miterlimit="10" stroke-linecap="round" stroke-linejoin="round"/>
<path d="M84.5496 355.959L80.8496 355.289" stroke="#263238" stroke-miterlimit="10" stroke-linecap="round" stroke-linejoin="round"/>
<path d="M140.44 410.03L133.65 411.97C133.65 411.97 133.06 417.41 134.17 418.67C135.28 419.93 136.99 419.33 138.82 420.4C140.66 421.47 147.67 419.78 147.67 419.78C147.67 419.78 148.86 416.05 147.78 414.31C146.7 412.57 145.46 409.64 144.6 408.15C143.75 406.67 140.44 410.03 140.44 410.03Z" fill="white" stroke="#263238" stroke-miterlimit="10" stroke-linecap="round" stroke-linejoin="round"/>
<path d="M140.44 410.029L139.25 413.759L136.98 415.759C136.98 415.759 137.55 417.939 138.76 417.779C139.96 417.619 144.48 417.669 144.48 417.669L145.86 414.659" stroke="#263238" stroke-miterlimit="10" stroke-linecap="round" stroke-linejoin="round"/>
<path d="M136.98 415.759L135.04 412.539" stroke="#263238" stroke-miterlimit="10" stroke-linecap="round" stroke-linejoin="round"/>
<path d="M71.7802 348.23C71.7802 348.23 66.0702 351.93 67.0802 353.94C68.0902 355.95 68.7602 357.3 69.7702 357.97C70.7802 358.64 73.8002 359.65 74.8102 358.98C75.8202 358.31 78.1702 356.63 78.5102 353.94C78.8502 351.25 79.8502 350.92 78.8502 349.57C77.8302 348.23 71.7802 348.23 71.7802 348.23Z" fill="white" stroke="#263238" stroke-miterlimit="10" stroke-linecap="round" stroke-linejoin="round"/>
<path d="M67.0801 353.94L71.1101 356.63L74.4701 356.29L75.8101 352.59C75.8101 352.59 75.8101 350.57 73.7901 350.57C71.7701 350.57 70.7701 351.58 70.7701 351.58L71.4401 353.6" stroke="#263238" stroke-miterlimit="10" stroke-linecap="round" stroke-linejoin="round"/>
<path d="M96.6501 343.529C96.6501 343.529 91.6101 348.229 92.2801 351.589C92.9501 354.949 99.3401 357.639 99.3401 357.639L107.07 353.269L104.72 347.219L99.6801 344.529L96.6501 343.529Z" fill="white" stroke="#263238" stroke-miterlimit="10" stroke-linecap="round" stroke-linejoin="round"/>
<path d="M92.2803 351.589L97.6603 353.609L103.7 351.589L101.35 346.209" stroke="#263238" stroke-miterlimit="10" stroke-linecap="round" stroke-linejoin="round"/>
<path d="M96.6501 343.529L96.3101 350.579L100.34 351.929" stroke="#263238" stroke-miterlimit="10" stroke-linecap="round" stroke-linejoin="round"/>
<path d="M111.77 406.701C111.77 406.701 106.73 411.401 107.4 414.761C108.07 418.121 114.46 420.811 114.46 420.811L122.19 416.441L119.84 410.391L114.8 407.701L111.77 406.701Z" fill="white" stroke="#263238" stroke-miterlimit="10" stroke-linecap="round" stroke-linejoin="round"/>
<path d="M107.4 414.771L112.78 416.781L118.83 414.771L116.47 409.391" stroke="#263238" stroke-miterlimit="10" stroke-linecap="round" stroke-linejoin="round"/>
<path d="M111.77 406.701L111.43 413.761L115.47 415.101" stroke="#263238" stroke-miterlimit="10" stroke-linecap="round" stroke-linejoin="round"/>
<path d="M78.1701 338.49C78.1701 338.49 73.1301 343.19 73.8001 346.55C74.4701 349.91 80.8601 352.6 80.8601 352.6L88.5901 348.23L86.2401 342.18L81.2001 339.49L78.1701 338.49Z" fill="white" stroke="#263238" stroke-miterlimit="10" stroke-linecap="round" stroke-linejoin="round"/>
<path d="M73.8003 346.55L79.1703 348.57L85.2203 346.55L82.8703 341.17" stroke="#263238" stroke-miterlimit="10" stroke-linecap="round" stroke-linejoin="round"/>
<path d="M78.1701 338.49L77.8301 345.54L81.8601 346.89" stroke="#263238" stroke-miterlimit="10" stroke-linecap="round" stroke-linejoin="round"/>
<path d="M106.36 421.37H66.48L60.5 355.26H112.34L106.36 421.37Z" fill="#263238" stroke="#263238" stroke-miterlimit="10" stroke-linecap="round" stroke-linejoin="round"/>
<path d="M79.85 410.4C79.85 410.4 74.14 414.1 75.15 416.11C76.16 418.13 76.83 419.47 77.84 420.14C78.85 420.81 81.87 421.82 82.88 421.15C83.89 420.48 86.24 418.8 86.58 416.11C86.92 413.42 87.92 413.09 86.92 411.74C85.89 410.4 79.85 410.4 79.85 410.4Z" fill="white" stroke="#263238" stroke-miterlimit="10" stroke-linecap="round" stroke-linejoin="round"/>
<path d="M75.1401 416.11L79.1701 418.8L82.5301 418.46L83.8701 414.76C83.8701 414.76 83.8701 412.74 81.8501 412.74C79.8301 412.74 78.8301 413.75 78.8301 413.75L79.5001 415.77" stroke="#263238" stroke-miterlimit="10" stroke-linecap="round" stroke-linejoin="round"/>
<path d="M185.58 223.32C185.58 224.36 184.59 225.21 183.37 225.21C182.15 225.21 181.16 224.36 181.16 223.32C181.16 222.28 182.15 221.43 183.37 221.43C184.59 221.43 185.58 222.28 185.58 223.32Z" fill="#808080" stroke="#263238" stroke-miterlimit="10" stroke-linecap="round" stroke-linejoin="round"/>
<path d="M187.71 229.079C187.71 230.119 186.72 230.969 185.5 230.969C184.28 230.969 183.29 230.119 183.29 229.079C183.29 228.039 184.28 227.189 185.5 227.189C186.72 227.189 187.71 228.039 187.71 229.079Z" fill="#808080" stroke="#263238" stroke-miterlimit="10" stroke-linecap="round" stroke-linejoin="round"/>
<path d="M189.83 234.839C189.83 235.879 188.84 236.729 187.62 236.729C186.4 236.729 185.41 235.879 185.41 234.839C185.41 233.799 186.4 232.949 187.62 232.949C188.84 232.949 189.83 233.799 189.83 234.839Z" fill="#808080" stroke="#263238" stroke-miterlimit="10" stroke-linecap="round" stroke-linejoin="round"/>
<path d="M191.95 240.599C191.95 241.639 190.96 242.489 189.74 242.489C188.52 242.489 187.53 241.639 187.53 240.599C187.53 239.559 188.52 238.709 189.74 238.709C190.96 238.709 191.95 239.559 191.95 240.599Z" fill="#808080" stroke="#263238" stroke-miterlimit="10" stroke-linecap="round" stroke-linejoin="round"/>
<path d="M162 268.671H146.85L144.58 243.561H164.27L162 268.671Z" fill="#263238" stroke="#263238" stroke-miterlimit="10" stroke-linecap="round" stroke-linejoin="round"/>
<path d="M163.53 251.811L146.13 260.681L146.85 268.671H154.96L162.82 259.631L163.53 251.811Z" fill="#9DCAFF" stroke="#263238" stroke-miterlimit="10" stroke-linecap="round" stroke-linejoin="round"/>
<path d="M166.03 240.561H142.83V246.021H166.03V240.561Z" fill="#9DCAFF" stroke="#263238" stroke-miterlimit="10" stroke-linecap="round" stroke-linejoin="round"/>
<path d="M206.82 268.949H179.57C177.66 268.949 176.11 267.399 176.11 265.489C176.11 263.579 177.66 262.029 179.57 262.029H206.82C208.73 262.029 210.28 263.579 210.28 265.489C210.28 267.399 208.73 268.949 206.82 268.949Z" fill="#263238" stroke="#263238" stroke-miterlimit="10" stroke-linecap="round" stroke-linejoin="round"/>
<path d="M279.3 269.04H195.41L175.4 214.58H259.29L279.3 269.04Z" fill="#263238" stroke="#263238" stroke-miterlimit="10" stroke-linecap="round" stroke-linejoin="round"/>
<path d="M273.97 263.381H202.34L185.26 216.871H256.89L273.97 263.381Z" fill="#808080" stroke="#263238" stroke-miterlimit="10" stroke-linecap="round" stroke-linejoin="round"/>
<path d="M288.05 288.49C288.05 288.49 284.43 293.81 281.46 296.5C278.49 299.19 269.41 307.61 261.88 320.36C254.35 333.11 249.12 346.14 244.14 357.42C239.16 368.7 230.18 389.52 225.62 395.86C221.06 402.2 218.06 405.59 218.06 405.59C218.06 405.59 210.61 405.76 201.79 404.98C192.97 404.2 189.32 402.6 189.21 404.9C189.1 407.2 195.17 413.52 199.55 414.61C203.93 415.71 209.51 417.4 210.87 418.7C212.22 420.01 213.92 421.51 216.1 420.55C218.27 419.59 224.92 410.35 232.32 403.97C239.72 397.59 248.53 391.29 256.51 376.44C264.49 361.59 264.9 353.1 270.49 347.53C276.08 341.95 281.99 333.2 289.13 328.59C296.26 323.97 317.58 315.44 324.39 306.55C331.2 297.67 327.65 286.86 321.1 283C314.55 279.14 293.18 277.75 288.05 288.49Z" fill="#263238" stroke="#263238" stroke-miterlimit="10" stroke-linecap="round" stroke-linejoin="round"/>
<path d="M230.9 386.49C228.89 390.53 227.05 393.89 225.63 395.86C221.07 402.2 218.07 405.59 218.07 405.59C218.07 405.59 210.62 405.76 201.8 404.98C192.98 404.2 189.33 402.6 189.22 404.9C189.11 407.2 195.18 413.52 199.56 414.61C203.94 415.71 209.52 417.4 210.88 418.7C212.23 420.01 213.93 421.51 216.11 420.55C218.28 419.59 224.93 410.35 232.33 403.97C235.77 401 239.52 398.04 243.35 394.24C237.3 392.79 233.22 389.18 230.9 386.49Z" fill="white" stroke="#263238" stroke-miterlimit="10" stroke-linecap="round" stroke-linejoin="round"/>
<path d="M216.1 420.551C216.76 420.261 217.85 419.181 219.25 417.661C213.27 416.471 210.18 413.461 207.44 412.691C203.59 411.621 200.33 409.511 200.33 409.511L203.31 405.101C202.81 405.061 202.3 405.021 201.79 404.971C192.97 404.191 189.32 402.591 189.21 404.891C189.1 407.191 195.17 413.511 199.55 414.601C203.93 415.701 209.51 417.391 210.87 418.691C212.23 420.011 213.93 421.511 216.1 420.551Z" fill="#9DCAFF" stroke="#263238" stroke-miterlimit="10" stroke-linecap="round" stroke-linejoin="round"/>
<path d="M226.46 316.65C226.46 316.65 228.05 324.08 231.59 331.16C235.13 338.24 242.92 345.67 248.58 349.92C254.24 354.17 272.47 370.45 281.5 383.37C282.63 384.99 278.31 390.45 273.01 395.23C267.7 400.01 265.4 401.78 268.23 402.66C271.06 403.54 277.79 403.19 284.51 397.53C291.24 391.87 295.66 388.15 297.78 383.55C298.84 381.25 293 378.42 289.46 375.41C285.92 372.4 272.82 352.58 268.75 343.38C264.68 334.18 254.41 321.08 246.8 316.48" fill="#263238"/>
<path d="M226.46 316.65C226.46 316.65 228.05 324.08 231.59 331.16C235.13 338.24 242.92 345.67 248.58 349.92C254.24 354.17 272.47 370.45 281.5 383.37C282.63 384.99 278.31 390.45 273.01 395.23C267.7 400.01 265.4 401.78 268.23 402.66C271.06 403.54 277.79 403.19 284.51 397.53C291.24 391.87 295.66 388.15 297.78 383.55C298.84 381.25 293 378.42 289.46 375.41C285.92 372.4 272.82 352.58 268.75 343.38C264.68 334.18 254.41 321.08 246.8 316.48" stroke="#263238" stroke-miterlimit="10" stroke-linecap="round" stroke-linejoin="round"/>
<path d="M297.79 383.541C298.85 381.241 293.01 378.411 289.47 375.401C286.49 372.871 276.76 358.461 271.32 348.461L259.27 359.111C266.76 366.041 275.9 375.351 281.5 383.371C282.63 384.991 278.31 390.451 273.01 395.231C267.7 400.011 265.4 401.781 268.23 402.661C271.06 403.541 277.79 403.191 284.51 397.531C291.24 391.861 295.66 388.141 297.79 383.541Z" fill="white" stroke="#263238" stroke-miterlimit="10" stroke-linecap="round" stroke-linejoin="round"/>
<path d="M294.15 378.852C293.2 380.272 291.96 382.202 290.53 384.612C287.17 390.272 277.96 397.532 276.73 396.292C276.04 395.602 275.34 394.412 274.87 393.492C274.27 394.072 273.65 394.662 273.02 395.232C267.71 400.012 265.41 401.782 268.24 402.662C271.07 403.542 277.8 403.192 284.52 397.532C291.25 391.872 295.67 388.152 297.79 383.552C298.43 382.152 296.53 380.562 294.15 378.852Z" fill="#9DCAFF" stroke="#263238" stroke-miterlimit="10" stroke-linecap="round" stroke-linejoin="round"/>
<path d="M342.21 395.051H282.04V397.881H342.21V395.051Z" fill="white" stroke="#263238" stroke-miterlimit="10" stroke-linecap="round" stroke-linejoin="round"/>
<path d="M287.52 319.121L276.99 419.781C276.94 420.261 277.32 420.671 277.8 420.671C278.2 420.671 278.54 420.381 278.6 419.981L294.25 319.121H287.52Z" fill="white" stroke="#263238" stroke-miterlimit="10" stroke-linecap="round" stroke-linejoin="round"/>
<path d="M335.66 319.121L346.19 419.781C346.24 420.261 345.86 420.671 345.38 420.671C344.98 420.671 344.64 420.381 344.58 419.981L328.93 319.121H335.66Z" fill="white" stroke="#263238" stroke-miterlimit="10" stroke-linecap="round" stroke-linejoin="round"/>
<path d="M316.55 319.119L317.08 419.859C317.08 420.309 316.72 420.669 316.27 420.669H316.26C315.83 420.669 315.47 420.329 315.45 419.899L309.83 319.109H316.55V319.119Z" fill="white" stroke="#263238" stroke-miterlimit="10" stroke-linecap="round" stroke-linejoin="round"/>
<path d="M339.01 320.19H283.29C280.55 320.19 278.32 317.97 278.32 315.22V308.88C278.32 306.14 280.54 303.91 283.29 303.91H339.01C341.75 303.91 343.98 306.13 343.98 308.88V315.22C343.98 317.96 341.75 320.19 339.01 320.19Z" fill="#9DCAFF"/>
<path opacity="0.2" d="M339.01 303.9H284.56L282.94 307.31C282.94 307.31 333.22 308.18 333.22 311.09C333.22 314 334.09 317.77 324.21 317.77C316.21 317.77 289.36 318.15 279.42 318.3C279.82 318.8 280.3 319.21 280.86 319.53L283.78 320.19H339.01C341.75 320.19 343.98 317.97 343.98 315.22V308.88C343.98 306.13 341.75 303.9 339.01 303.9Z" fill="#DAF2FF"/>
<path d="M339.01 320.19H283.29C280.55 320.19 278.32 317.97 278.32 315.22V308.88C278.32 306.14 280.54 303.91 283.29 303.91H339.01C341.75 303.91 343.98 306.13 343.98 308.88V315.22C343.98 317.96 341.75 320.19 339.01 320.19Z" stroke="#263238" stroke-miterlimit="10" stroke-linecap="round" stroke-linejoin="round"/>
<path d="M227.88 323.021C226.64 318.951 221.51 310.811 246.11 293.821C259.15 284.811 287.35 277.891 287.35 277.891L290 274.881C290 274.881 297.61 282.841 312.48 282.311C327.35 281.781 336.55 275.231 338.32 275.761C340.09 276.291 340.27 280.891 339.56 289.561C338.85 298.231 337.97 302.661 331.07 304.781C324.17 306.901 308.95 307.611 297.98 307.431C287.01 307.251 281.7 306.551 281.7 306.551C281.7 306.551 258.16 321.421 243.47 322.481" fill="#263238"/>
<path d="M227.88 323.021C226.64 318.951 221.51 310.811 246.11 293.821C259.15 284.811 287.35 277.891 287.35 277.891L290 274.881C290 274.881 297.61 282.841 312.48 282.311C327.35 281.781 336.55 275.231 338.32 275.761C340.09 276.291 340.27 280.891 339.56 289.561C338.85 298.231 337.97 302.661 331.07 304.781C324.17 306.901 308.95 307.611 297.98 307.431C287.01 307.251 281.7 306.551 281.7 306.551C281.7 306.551 258.16 321.421 243.47 322.481" stroke="#263238" stroke-miterlimit="10" stroke-linecap="round" stroke-linejoin="round"/>
<path d="M282.39 225.5C281.32 225.84 248.94 232.23 246.11 231.69C243.28 231.16 235.85 224.79 233.19 224.96C230.54 225.14 225.23 226.02 224.7 227.44C224.17 228.86 225.94 233.63 225.94 233.63C225.94 233.63 224.17 236.28 225.06 237.52C225.94 238.76 231.08 235.75 231.08 235.75C231.08 235.75 236.92 240 239.57 239.11C242.22 238.23 245.06 237.16 245.06 237.16C245.06 237.16 286.65 239.64 287.18 239.81C287.71 239.99 292.84 241.05 293.37 233.62C293.89 226.21 288.58 223.56 282.39 225.5Z" fill="white" stroke="#263238" stroke-miterlimit="10" stroke-linecap="round" stroke-linejoin="round"/>
<path d="M225.93 233.639L233.19 227.629" stroke="#263238" stroke-miterlimit="10" stroke-linecap="round" stroke-linejoin="round"/>
<path d="M228.59 230.989L232.48 218.779L234.07 219.129L232.13 227.979L228.59 230.989Z" fill="#263238"/>
<path d="M257.08 238.42C257.08 238.42 214.07 250.28 207.17 249.39C200.27 248.51 198.14 245.5 196.55 245.5C194.96 245.5 190.53 247.62 188.59 247.45C186.64 247.27 184.34 246.74 184.34 247.98C184.34 249.22 186.11 251.17 187.17 251.17C188.23 251.17 192.48 250.99 192.48 250.99C192.48 250.99 184.16 253.47 183.81 255.06C183.46 256.65 184.52 258.07 186.11 258.42C187.7 258.77 188.41 259.48 188.41 259.48C188.41 259.48 189.12 262.13 190.18 263.37C191.24 264.61 194.43 265.14 197.97 264.43C201.51 263.72 207.7 260.54 209.12 259.65C210.54 258.76 253.54 254.87 256.73 254.16C259.92 253.45 263.81 253.45 265.05 251.33C266.29 249.22 257.08 238.42 257.08 238.42Z" fill="white"/>
<path opacity="0.5" d="M206.13 261.1C198.74 261.1 200.38 253.71 197.92 254.94C195.77 256.01 187.38 257.09 185 259.8C185.35 260.67 186.15 261.33 187.17 261.56C188.76 261.91 189.47 262.62 189.47 262.62C189.47 262.62 190.18 265.27 191.24 266.51C192.3 267.75 195.49 268.28 199.03 267.57C202.57 266.86 208.76 263.68 210.18 262.79C211.6 261.91 254.6 258.01 257.79 257.3C260.36 256.73 263.4 256.62 265.12 255.47C265.73 254.85 266.1 254.46 266.1 254.46L261.54 250C261.54 250.02 213.52 261.1 206.13 261.1Z" fill="white"/>
<path d="M257.08 238.42C257.08 238.42 214.07 250.28 207.17 249.39C200.27 248.51 198.14 245.5 196.55 245.5C194.96 245.5 190.53 247.62 188.59 247.45C186.64 247.27 184.34 246.74 184.34 247.98C184.34 249.22 186.11 251.17 187.17 251.17C188.23 251.17 192.48 250.99 192.48 250.99C192.48 250.99 184.16 253.47 183.81 255.06C183.46 256.65 184.52 258.07 186.11 258.42C187.7 258.77 188.41 259.48 188.41 259.48C188.41 259.48 189.12 262.13 190.18 263.37C191.24 264.61 194.43 265.14 197.97 264.43C201.51 263.72 207.7 260.54 209.12 259.65C210.54 258.76 253.54 254.87 256.73 254.16C259.92 253.45 263.81 253.45 265.05 251.33C266.29 249.22 257.08 238.42 257.08 238.42Z" stroke="#263238" stroke-miterlimit="10" stroke-linecap="round" stroke-linejoin="round"/>
<path d="M293.36 195.06C293.36 195.06 289.47 205.68 284.51 212.76C279.55 219.84 277.43 227.27 280.62 235.24C283.81 243.2 290.71 244.97 290.71 244.97C290.71 244.97 288.23 268.33 288.94 274.53C289.65 280.72 299.2 287.98 313.54 288.51C327.88 289.04 340.26 283.91 340.26 278.95C340.26 273.99 330.17 247.62 330.17 242.14C330.17 236.65 331.05 219.49 326.28 204.09C321.5 188.69 304.69 183.73 293.36 195.06Z" fill="#00E0FF"/>
<path opacity="0.2" d="M326.28 204.089C323.71 195.789 317.64 190.539 310.82 189.219C307.53 189.949 298.55 192.059 296.3 192.579C295.29 193.299 294.31 194.119 293.36 195.059C293.36 195.059 289.47 205.679 284.51 212.759C281.19 217.509 279.15 222.409 279.12 227.529C292.18 230.619 312.12 235.639 310.14 236.199C307.27 237.019 294.95 230.449 298.65 234.559C302.34 238.659 322.04 257.539 316.3 255.899C310.55 254.259 297.83 240.709 301.11 247.279C304.39 253.849 313.42 264.519 310.55 264.519C307.68 264.519 292.49 249.329 297.83 258.359C303.17 267.389 327.38 281.749 319.58 283.809C315.08 284.989 305.53 284.679 299.98 285.619C303.74 287.219 308.31 288.309 313.53 288.509C327.87 289.039 340.25 283.909 340.25 278.949C340.25 273.989 330.16 247.619 330.16 242.139C330.17 236.649 331.06 219.479 326.28 204.089Z" fill="black"/>
<path d="M293.36 195.06C293.36 195.06 289.47 205.68 284.51 212.76C279.55 219.84 277.43 227.27 280.62 235.24C283.81 243.2 290.71 244.97 290.71 244.97C290.71 244.97 288.23 268.33 288.94 274.53C289.65 280.72 299.2 287.98 313.54 288.51C327.88 289.04 340.26 283.91 340.26 278.95C340.26 273.99 330.17 247.62 330.17 242.14C330.17 236.65 331.05 219.49 326.28 204.09C321.5 188.69 304.69 183.73 293.36 195.06Z" stroke="#263238" stroke-miterlimit="10" stroke-linecap="round" stroke-linejoin="round"/>
<path d="M295.541 238.01C295.541 238.01 308.541 259.01 327.541 265.01" stroke="#263238" stroke-miterlimit="10" stroke-linecap="round" stroke-linejoin="round"/>
<path d="M294.041 241.51C294.041 241.51 299.041 258.01 312.041 266.01" stroke="#263238" stroke-miterlimit="10" stroke-linecap="round" stroke-linejoin="round"/>
<path d="M296.72 228.289C296.72 228.289 308.47 223.169 313.28 219.859" stroke="#263238" stroke-miterlimit="10" stroke-linecap="round" stroke-linejoin="round"/>
<path d="M291.9 229.49C291.9 229.49 296.12 230.39 306.96 229.49" stroke="#263238" stroke-miterlimit="10" stroke-linecap="round" stroke-linejoin="round"/>
<path d="M292.3 197.719C292.3 197.719 288.94 199.669 284.87 203.909C280.8 208.159 261.15 237.889 261.15 237.889C261.15 237.889 266.99 250.099 268.76 250.459C270.53 250.809 301.32 224.439 304.16 221.259C306.99 218.069 308.76 212.229 307.88 209.759" fill="#CCE7FF"/>
<path opacity="0.2" d="M304.16 221.25C306.99 218.06 308.76 212.22 307.88 209.75L300.89 204.35L298.66 206.66C298.66 206.66 298.5 215.72 290.45 220.61C282.4 225.5 278.96 225.54 277.73 231.69C276.5 237.85 280.6 239.49 275.68 240.31C270.76 241.13 267.47 241.54 267.47 244.82C267.47 245.79 267.58 247.64 267.84 249.69C268.21 250.12 268.53 250.4 268.77 250.45C270.53 250.81 301.33 224.44 304.16 221.25Z" fill="black"/>
<path d="M292.3 197.719C292.3 197.719 288.94 199.669 284.87 203.909C280.8 208.159 261.15 237.889 261.15 237.889C261.15 237.889 266.99 250.099 268.76 250.459C270.53 250.809 301.32 224.439 304.16 221.259C306.99 218.069 308.76 212.229 307.88 209.759" stroke="#263238" stroke-miterlimit="10" stroke-linecap="round" stroke-linejoin="round"/>
<path d="M254.43 239.659C254.43 239.659 259.92 252.759 261.16 254.169C262.4 255.589 268.95 254.699 271.07 253.109C273.19 251.519 272.84 248.329 272.84 248.329C272.84 248.329 264.7 233.989 263.81 233.289C262.93 232.579 262.57 234.169 258.85 235.409C255.14 236.649 253.72 237.179 254.43 239.659Z" fill="white" stroke="#263238" stroke-miterlimit="10" stroke-linecap="round" stroke-linejoin="round"/>
<path d="M263.28 161.61C263.28 161.61 262.93 166.74 263.81 168.34C264.69 169.93 267.17 171.53 267.17 173.65C267.17 175.77 265.4 178.61 265.93 180.2C266.46 181.79 269.29 181.97 269.29 181.97C269.29 181.97 274.6 188.52 276.19 190.82C277.78 193.12 278.49 192.24 280.97 191.53C283.45 190.82 288.76 186.22 291.77 182.68C294.78 179.14 289.82 168.34 283.28 161.09C276.73 153.83 267 154.01 264.87 156.13C262.75 158.25 263.28 161.61 263.28 161.61Z" fill="white"/>
<path d="M277.31 156.65C276.49 160.69 275.67 167.53 278.13 172.18C281.82 179.16 284.7 182.85 282.64 188.6C282.27 189.62 281.9 190.52 281.52 191.32C284.17 190.18 288.96 185.97 291.76 182.67C294.77 179.13 289.81 168.33 283.27 161.08C281.46 159.06 279.39 157.64 277.31 156.65Z" fill="#C6FF00"/>
<path opacity="0.5" d="M277.31 156.65C276.49 160.69 275.67 167.53 278.13 172.18C281.82 179.16 284.7 182.85 282.64 188.6C282.27 189.62 281.9 190.52 281.52 191.32C284.17 190.18 288.96 185.97 291.76 182.67C294.77 179.13 289.81 168.33 283.27 161.08C281.46 159.06 279.39 157.64 277.31 156.65Z" fill="white"/>
<path d="M267.17 169.22C267.17 169.22 267.17 166.57 270.36 168.34" stroke="#263238" stroke-miterlimit="10" stroke-linecap="round" stroke-linejoin="round"/>
<path d="M269.44 171.689L269.86 174.129C269.86 174.129 271.8 174.799 273.23 172.279" stroke="#263238" stroke-miterlimit="10" stroke-linecap="round" stroke-linejoin="round"/>
<path d="M263.28 161.61C263.28 161.61 262.93 166.74 263.81 168.34C264.69 169.93 267.17 171.53 267.17 173.65C267.17 175.77 265.4 178.61 265.93 180.2C266.46 181.79 269.29 181.97 269.29 181.97C269.29 181.97 274.6 188.52 276.19 190.82C277.78 193.12 278.49 192.24 280.97 191.53C283.45 190.82 288.76 186.22 291.77 182.68C294.78 179.14 289.82 168.34 283.28 161.09C276.73 153.83 267 154.01 264.87 156.13C262.75 158.25 263.28 161.61 263.28 161.61Z" stroke="#263238" stroke-miterlimit="10" stroke-linecap="round" stroke-linejoin="round"/>
<path d="M257.79 153.83L257.76 154.54L257.43 163.21L266.99 164.45L269.11 160.73V164.8C269.11 164.8 273.18 164.27 277.78 166.04C282.38 167.81 288.22 180.38 287.87 185.51C287.52 190.64 283.09 191.7 283.62 199.49C284.15 207.28 296.01 215.06 305.03 210.11C314.06 205.15 315.47 198.78 319.19 200.02C322.91 201.26 328.57 208.87 332.11 198.07C335.65 187.27 334.06 180.37 325.74 171.52C317.42 162.67 310.87 163.38 309.81 156.3C308.75 149.22 306.45 139.66 298.84 134.35C291.23 129.04 280.26 128.69 270.88 132.76C261.51 136.84 257.79 149.22 257.79 153.83Z" fill="#263238"/>
<path d="M263.11 157.89C263.05 157.89 262.98 157.88 262.92 157.87C261.9 157.64 261.75 155.87 261.66 151.56C261.63 150.45 261.61 149.29 261.54 148.38C261.53 148.29 261.52 148.21 261.51 148.15C260.67 149.17 258.86 153.4 257.5 157.18L256.56 156.84C260.18 146.76 261.36 146.91 261.74 146.96C262.43 147.05 262.5 147.96 262.53 148.3C262.6 149.25 262.63 150.41 262.65 151.54C262.69 153.32 262.75 156.23 263.13 156.85C263.28 156.74 263.63 156.36 264.25 155.12C265.29 153.04 266.21 152.08 267.17 152.13C268.36 152.18 268.97 153.75 269.42 154.9C269.55 155.24 269.69 155.6 269.79 155.74C270.23 155.86 271.79 154.26 272.62 153.41C272.87 153.16 273.11 152.9 273.35 152.67C273.73 152.29 274.22 151.88 274.77 151.96C275.32 152.04 275.6 152.56 275.89 153.11C276.16 153.62 276.46 154.19 277.01 154.63C277.33 154.88 277.49 154.84 277.56 154.83C278.28 154.66 279.15 152.72 280.16 150.47C280.4 149.95 280.64 149.39 280.91 148.81C281.24 148.09 281.69 147.26 282.43 147.33C283.37 147.4 283.79 148.86 284.43 151.07C284.95 152.87 285.55 154.92 286.42 156.04C286.64 156.32 286.96 156.65 287.24 156.61C288.02 156.49 288.88 154.18 289.4 152.79C289.72 151.94 289.99 151.21 290.26 150.76C290.54 150.29 290.9 150.2 291.11 150.21C291.85 150.23 292.35 151.22 293.05 152.57C293.57 153.59 294.28 154.98 294.87 155.21C294.99 155.26 295.03 155.24 295.06 155.22C295.45 155.02 295.78 153.74 296.06 152.7C296.37 151.5 296.7 150.26 297.28 149.39C297.63 148.86 298.09 148.55 298.64 148.46C299.95 148.25 301.4 149.38 302.38 150.14C302.33 149.63 302.22 148.93 302.13 148.32C301.63 145 301.48 143.38 302.32 142.93C302.71 142.72 303.17 142.84 303.69 143.3C304.38 143.91 305.29 144.92 306.25 145.99C308.08 148.04 310.86 151.15 311.98 150.85C312.29 150.77 312.46 150.29 312.54 149.9L313.52 150.11C313.31 151.07 312.88 151.64 312.24 151.81C310.63 152.23 308.44 149.94 305.51 146.65C304.57 145.6 303.69 144.61 303.04 144.04C302.93 143.95 302.85 143.89 302.8 143.86C302.58 144.49 302.95 146.95 303.13 148.16C303.49 150.51 303.56 151.14 303.1 151.43C302.9 151.56 302.65 151.55 302.43 151.4C302.26 151.29 302.04 151.12 301.8 150.93C301.01 150.32 299.7 149.3 298.82 149.44C298.54 149.48 298.32 149.64 298.13 149.94C297.64 150.67 297.34 151.83 297.05 152.95C296.66 154.43 296.33 155.71 295.54 156.11C295.33 156.22 294.97 156.31 294.53 156.13C293.59 155.75 292.88 154.36 292.19 153.01C291.88 152.4 291.42 151.51 291.15 151.25C291.15 151.25 291.15 151.25 291.15 151.26C290.92 151.64 290.65 152.36 290.37 153.13C289.63 155.12 288.79 157.38 287.42 157.59C286.81 157.68 286.21 157.37 285.66 156.65C284.66 155.37 284.04 153.23 283.49 151.34C283.15 150.16 282.68 148.55 282.35 148.32C282.35 148.36 282.15 148.53 281.84 149.22C281.57 149.8 281.33 150.35 281.09 150.87C279.84 153.66 279.01 155.5 277.81 155.79C277.34 155.9 276.87 155.77 276.4 155.4C275.68 154.83 275.3 154.1 275.02 153.56C274.89 153.32 274.71 152.98 274.62 152.93C274.62 152.94 274.47 152.97 274.07 153.37C273.83 153.6 273.59 153.85 273.35 154.1C271.69 155.8 270.63 156.82 269.72 156.75C269.41 156.72 269.15 156.56 268.97 156.29C268.82 156.06 268.68 155.71 268.51 155.26C268.22 154.52 267.69 153.15 267.15 153.13C266.99 153.1 266.32 153.28 265.17 155.57C264.34 157.19 263.73 157.89 263.11 157.89Z" fill="#575757"/>
<path d="M283 198.07C283 198.07 285.48 188.84 287.95 191.77C290.43 194.7 292.23 195.6 292.45 193.12C292.68 190.64 292.45 187.04 294.93 190.42C297.41 193.8 303.49 197.18 303.94 192C304.39 186.82 305.07 179.84 307.99 183.44C310.92 187.04 313.39 189.75 313.62 187.72C313.85 185.69 315.87 184.12 316.77 186.37C317.67 188.62 318.35 190.87 319.02 185.69C319.7 180.51 316.54 174.88 319.92 176.23C323.3 177.58 324.87 182.08 324.87 179.61C324.87 177.14 320.82 174.21 324.42 175.11C328.02 176.01 328.47 178.26 328.92 176.91C329.37 175.56 326.89 172.41 330.05 172.41" stroke="#575757" stroke-miterlimit="10"/>
<path d="M257.79 153.83L257.76 154.54L257.43 163.21L266.99 164.45L269.11 160.73V164.8C269.11 164.8 273.18 164.27 277.78 166.04C282.38 167.81 288.22 180.38 287.87 185.51C287.52 190.64 283.09 191.7 283.62 199.49C284.15 207.28 296.01 215.06 305.03 210.11C314.06 205.15 315.47 198.78 319.19 200.02C322.91 201.26 328.57 208.87 332.11 198.07C335.65 187.27 334.06 180.37 325.74 171.52C317.42 162.67 310.87 163.38 309.81 156.3C308.75 149.22 306.45 139.66 298.84 134.35C291.23 129.04 280.26 128.69 270.88 132.76C261.51 136.84 257.79 149.22 257.79 153.83Z" stroke="#263238" stroke-miterlimit="10" stroke-linecap="round" stroke-linejoin="round"/>
</g>
<defs>
<clipPath id="clip0_1387_159">
<rect width="350.27" height="367.87" fill="white" transform="translate(60 54)"/>
</clipPath>
</defs>
</svg>
