<svg width="482" height="479" viewBox="0 0 482 479" fill="none" xmlns="http://www.w3.org/2000/svg">
<circle cx="228.5" cy="228.5" r="227.5" stroke="#DAF2FF" stroke-width="2"/>
<path d="M446.201 235.357C451.638 351.531 362.08 450.102 246.173 455.526C130.266 460.951 31.893 371.175 26.4562 255.001C21.0193 138.827 110.577 40.2558 226.485 34.8314C342.392 29.4071 440.764 119.183 446.201 235.357Z" stroke="#DAF2FF" stroke-width="2"/>
<path d="M100.389 195.786C100.399 195.536 100.519 195.426 100.739 195.426L107.449 195.626C108.109 195.646 108.679 195.746 109.139 195.926C109.599 196.106 109.969 196.356 110.249 196.676C110.529 196.996 110.719 197.366 110.839 197.816C110.959 198.266 111.009 198.746 110.989 199.286L110.929 201.126C110.909 201.666 110.829 202.156 110.689 202.586C110.549 203.016 110.329 203.386 110.029 203.686C109.729 203.986 109.349 204.206 108.879 204.366C108.409 204.516 107.839 204.586 107.179 204.566L103.569 204.456L102.819 202.346H102.719L102.659 204.436L100.129 204.356L100.389 195.786ZM102.739 202.116L107.029 202.246C107.509 202.256 107.859 202.166 108.069 201.956C108.279 201.746 108.389 201.376 108.409 200.836L108.459 199.336C108.479 198.776 108.389 198.396 108.189 198.186C107.989 197.976 107.649 197.866 107.169 197.856L103.069 197.736C103.009 197.736 102.969 197.756 102.929 197.786C102.899 197.826 102.879 197.866 102.879 197.916L102.739 202.116Z" fill="#F1F1F4"/>
<path d="M114.629 199.625H114.539L114.459 202.305C114.459 202.415 114.509 202.475 114.629 202.485L122.169 202.715L122.099 205.035L112.209 204.735C111.969 204.725 111.859 204.605 111.859 204.355L112.109 196.145C112.119 195.895 112.239 195.785 112.479 195.785L122.089 196.075C122.339 196.085 122.459 196.205 122.449 196.455L122.379 198.775L120.009 199.575H119.909L119.949 198.385C119.949 198.295 119.909 198.245 119.829 198.245L114.759 198.095C114.689 198.095 114.649 198.115 114.629 198.145C114.609 198.185 114.599 198.225 114.599 198.265L114.569 199.385L118.749 199.515L118.689 201.335L115.189 201.225L114.629 199.625Z" fill="#F1F1F4"/>
<path d="M131.389 199.455H131.289L131.319 198.475C131.319 198.375 131.279 198.325 131.179 198.325L126.459 198.185C126.289 198.185 126.169 198.215 126.099 198.285C126.029 198.355 125.999 198.465 125.989 198.605L125.979 198.825C125.969 198.995 125.999 199.105 126.059 199.155C126.119 199.205 126.229 199.245 126.389 199.275L131.919 200.215C132.269 200.275 132.569 200.365 132.809 200.465C133.049 200.575 133.249 200.715 133.399 200.885C133.549 201.055 133.649 201.265 133.709 201.515C133.769 201.765 133.789 202.055 133.779 202.395L133.759 203.105C133.749 203.475 133.689 203.795 133.589 204.075C133.489 204.355 133.339 204.585 133.129 204.775C132.919 204.965 132.639 205.095 132.309 205.185C131.969 205.275 131.559 205.305 131.069 205.295L123.109 205.055L123.179 202.735L130.319 202.955C130.529 202.965 130.679 202.925 130.749 202.855C130.819 202.775 130.859 202.645 130.869 202.445L130.879 202.195C130.879 202.035 130.859 201.925 130.809 201.865C130.759 201.805 130.659 201.755 130.499 201.735L125.159 200.895C124.799 200.835 124.489 200.755 124.239 200.645C123.989 200.535 123.779 200.405 123.619 200.235C123.459 200.065 123.349 199.865 123.279 199.625C123.209 199.385 123.189 199.105 123.199 198.775L123.219 198.145C123.239 197.495 123.429 197.005 123.779 196.655C124.139 196.305 124.709 196.145 125.519 196.175L133.469 196.415C133.719 196.425 133.849 196.555 133.839 196.815L133.779 198.655L131.389 199.455Z" fill="#F1F1F4"/>
<path d="M134.749 205.417L135.019 196.477L137.549 196.557L137.279 205.497L134.749 205.417Z" fill="#F1F1F4"/>
<path d="M146.679 201.936C146.679 201.806 146.679 201.666 146.669 201.526C146.659 201.386 146.649 201.256 146.639 201.146V201.036L149.149 201.116L149.019 205.506C149.009 205.736 148.909 205.846 148.699 205.846L141.969 205.646C141.309 205.626 140.739 205.526 140.279 205.346C139.819 205.166 139.449 204.916 139.169 204.596C138.889 204.276 138.689 203.906 138.579 203.456C138.459 203.016 138.409 202.526 138.429 201.986L138.489 200.146C138.509 199.606 138.589 199.116 138.729 198.686C138.869 198.256 139.089 197.886 139.389 197.586C139.689 197.286 140.069 197.066 140.539 196.906C141.009 196.756 141.579 196.686 142.239 196.706L148.929 196.906C149.169 196.916 149.279 197.036 149.279 197.286L149.219 199.216L146.849 200.006H146.749L146.779 199.146C146.779 199.066 146.749 199.026 146.669 199.016L142.399 198.886C142.149 198.876 141.949 198.896 141.779 198.936C141.609 198.976 141.469 199.046 141.359 199.156C141.249 199.266 141.169 199.406 141.109 199.596C141.059 199.776 141.019 200.006 141.009 200.276L140.959 201.846C140.939 202.386 141.029 202.766 141.229 202.986C141.429 203.206 141.769 203.326 142.249 203.336L146.489 203.466C146.579 203.466 146.629 203.426 146.629 203.326L146.679 201.936Z" fill="#F1F1F4"/>
<path d="M154.499 197.065C154.689 197.075 154.819 197.105 154.899 197.165C154.979 197.225 155.039 197.315 155.109 197.445L158.309 203.975C158.359 204.075 158.439 204.125 158.539 204.125H158.669C158.799 204.125 158.869 204.065 158.869 203.935L159.069 197.205L161.369 197.275L161.109 205.865C161.099 206.105 160.989 206.215 160.759 206.205L157.119 206.095C156.949 206.095 156.819 206.065 156.739 206.015C156.659 205.965 156.579 205.865 156.509 205.725L153.189 199.205C153.139 199.105 153.069 199.055 152.959 199.055H152.839C152.709 199.055 152.639 199.115 152.639 199.245L152.439 205.965L150.139 205.895L150.399 197.315C150.409 197.065 150.519 196.955 150.749 196.955L154.499 197.065Z" fill="#F1F1F4"/>
<path d="M337.844 368.843C398.382 308.305 398.382 210.152 337.844 149.614C277.305 89.0754 179.153 89.0754 118.615 149.614C58.0761 210.152 58.0761 308.305 118.615 368.843C179.153 429.382 277.305 429.382 337.844 368.843Z" fill="#E0F3FF"/>
<path d="M107.279 185.308C103.469 178.748 96.7292 176.048 96.7292 176.048L94.3792 177.148L99.6692 186.748C98.9592 190.438 96.4292 192.468 96.4292 192.468L96.4192 192.448C96.4192 192.448 93.2392 193.088 89.9492 191.258L85.9792 181.038L83.6292 182.138C83.6292 182.138 81.3792 189.038 83.9592 196.178C83.9592 196.178 84.9592 198.488 85.1392 198.698C86.0692 199.788 88.4992 201.038 93.1992 200.748L109.409 231.658C108.059 233.978 107.829 236.888 109.049 239.488C111.029 243.728 116.069 245.558 120.309 243.578C124.549 241.598 126.379 236.558 124.399 232.318C123.179 229.708 120.799 228.018 118.159 227.568L104.849 195.318C108.019 191.978 108.689 189.348 108.449 187.828C108.409 187.498 107.279 185.308 107.279 185.308ZM120.609 238.618L116.319 240.628L112.439 237.918L112.849 233.198L117.139 231.188L121.019 233.898L120.609 238.618Z" fill="url(#paint0_linear_31_862)"/>
<path d="M108.459 187.817C104.649 181.257 97.9093 178.557 97.9093 178.557L95.5593 179.657L100.849 189.257C100.139 192.947 97.6093 194.977 97.6093 194.977L97.5993 194.957C97.5993 194.957 94.4193 195.597 91.1293 193.767L87.1593 183.547L84.8093 184.647C84.8093 184.647 82.5593 191.547 85.1393 198.687C85.1393 198.687 88.7993 203.597 94.3693 203.257L110.569 234.167C109.219 236.487 108.989 239.397 110.209 241.997C112.189 246.237 117.229 248.067 121.469 246.087C125.709 244.107 127.539 239.067 125.559 234.827C124.339 232.217 121.959 230.527 119.319 230.077L106.009 197.827C109.869 193.777 108.459 187.817 108.459 187.817ZM121.779 241.127L117.489 243.137L113.609 240.427L114.019 235.707L118.309 233.697L122.189 236.407L121.779 241.127Z" fill="url(#paint1_linear_31_862)"/>
<path d="M85.9823 181.043L83.6357 182.139L84.8125 184.658L87.1591 183.562L85.9823 181.043Z" fill="#E5E2FF"/>
<path d="M96.7201 176.043L94.3735 177.139L95.5503 179.658L97.8968 178.562L96.7201 176.043Z" fill="#E5E2FF"/>
<path d="M120.612 238.615L116.317 240.622L117.494 243.141L121.789 241.134L120.612 238.615Z" fill="#E5E2FF"/>
<path d="M97.8491 205.558L110.939 230.708C114.379 230.868 116.219 228.238 116.219 228.238L105.569 201.948C100.779 201.778 97.8491 205.558 97.8491 205.558ZM115.209 228.448C114.829 228.778 114.249 229.218 113.519 229.558C112.939 229.828 112.329 230.008 111.709 230.098L98.5991 205.458C99.2391 204.888 100.339 204.048 101.749 203.388C102.809 202.898 103.889 202.578 104.989 202.428L115.209 228.448Z" fill="url(#paint2_linear_31_862)"/>
<path d="M115.209 228.447L116.219 228.237C116.219 228.237 114.719 230.897 110.939 230.707L111.709 230.097C111.709 230.087 113.569 229.877 115.209 228.447Z" fill="#E5E2FF"/>
<path opacity="0.62" d="M97.8491 205.557L98.5991 205.457C98.5991 205.457 100.839 203.137 104.989 202.437L105.559 201.957C105.559 201.957 103.889 201.667 101.289 202.877C98.6891 204.087 97.8491 205.557 97.8491 205.557Z" fill="url(#paint3_linear_31_862)"/>
<path opacity="0.62" d="M94.3794 203.257C94.3794 203.257 100.669 202.137 106.039 197.827L107.739 201.947C107.739 201.947 105.809 200.037 101.569 201.767C96.6194 203.787 96.8894 207.767 96.8894 207.767L94.3794 203.257Z" fill="url(#paint4_linear_31_862)"/>
<path opacity="0.5" d="M107.739 201.957C106.529 201.087 105.149 201.067 105.149 201.067L117.819 231.667L119.349 230.087L107.739 201.957Z" fill="url(#paint5_linear_31_862)"/>
<path d="M107.739 201.958C107.739 201.958 106.409 206.048 110.229 207.988L107.739 201.958Z" fill="white"/>
<path d="M298.419 399.696L253 412C248.08 384.68 235.059 336.826 235.059 336.826C232.279 335.176 226.849 337.206 226.849 337.206L207.5 413L167 402C164.72 363.44 185.549 317.366 185.549 317.366L185.539 317.356C185.469 317.206 184.799 315.866 184.979 314.966C185.049 314.576 185.769 313.836 186.579 313.106C187.739 312.046 189.119 310.986 189.119 310.986L269.229 310.486C269.229 310.486 270.039 310.896 271.069 311.516H271.079C272.829 312.576 275.199 314.216 275.199 315.416C275.199 317.066 274.549 318.136 274.389 318.376L274.349 318.426C291.519 350.836 298.419 399.696 298.419 399.696Z" fill="url(#paint6_linear_31_862)"/>
<path d="M204.099 399.735L203.609 399.655C209.079 367.455 222.949 340.455 223.089 340.185L223.149 340.115L226.679 337.025L227.009 337.405L223.509 340.465C222.889 341.665 209.459 368.205 204.099 399.735Z" fill="url(#paint7_linear_31_862)"/>
<path d="M257.789 399.736C252.429 368.186 238.629 341.386 238.009 340.196L234.879 337.386L235.209 337.016L238.429 339.926C238.569 340.196 252.809 367.456 258.279 399.656L257.789 399.736Z" fill="url(#paint8_linear_31_862)"/>
<path opacity="0.76" d="M275.189 315.416C275.189 317.066 274.539 318.136 274.379 318.376L274.339 318.426C257.659 322.196 244.969 337.766 244.969 337.766C254.059 355.206 268.5 408 268.5 408L252.5 412C247.58 384.68 235.049 336.826 235.049 336.826C232.269 335.176 226.839 337.206 226.839 337.206L207 413L196 411C199.98 384.82 214.269 341.556 214.269 341.556C202.719 328.106 185.539 317.366 185.539 317.366L185.529 317.356L183.489 316.076L184.969 314.966C192.399 322.096 216.359 331.406 217.099 331.696L186.569 313.106C187.729 312.046 189.109 310.986 189.109 310.986L269.219 310.486C269.219 310.486 270.029 310.896 271.059 311.516L249.179 323.556L275.189 315.416Z" fill="url(#paint9_linear_31_862)"/>
<path opacity="0.76" d="M235.049 336.826L244.399 330.756L242.179 336.826L240.559 355.086L235.049 336.826Z" fill="url(#paint10_linear_31_862)"/>
<path opacity="0.76" d="M226.839 337.207L217.099 331.697L196.249 322.307L222.799 339.857L224.389 346.137L226.839 337.207Z" fill="url(#paint11_linear_31_862)"/>
<path d="M253.639 149.346C253.699 149.776 253.749 150.006 253.749 150.006C253.259 152.046 252.699 153.936 252.089 155.666C250.129 161.296 247.689 165.296 245.859 167.786C244.269 169.936 243.139 170.966 243.139 170.966C228.549 166.386 221.359 152.116 218.599 145.016C218.579 144.986 218.569 144.946 218.559 144.906C218.029 143.566 217.679 142.486 217.459 141.786C217.459 141.786 217.459 141.786 217.459 141.776C217.289 141.216 217.209 140.906 217.209 140.906C217.269 140.786 217.329 140.656 217.389 140.536L217.419 140.486C217.659 139.986 217.899 139.476 218.119 138.986C220.029 134.806 221.299 130.896 222.119 127.816C222.829 125.196 223.209 123.176 223.389 122.106C223.479 121.556 223.519 121.256 223.519 121.256L230.319 124.846L253.749 137.246C253.399 139.396 253.259 141.416 253.249 143.186C253.229 144.436 253.269 145.556 253.339 146.506C253.409 147.666 253.529 148.586 253.619 149.186V149.196C253.619 149.256 253.629 149.296 253.639 149.346Z" fill="#FE9083"/>
<path d="M247.139 172.535C245.789 173.875 244.199 175.075 242.299 176.075C242.259 176.105 242.219 176.125 242.179 176.145C242.179 176.145 242.129 176.115 242.039 176.065L242.029 176.055C241.519 175.745 239.779 174.675 237.439 172.915C231.319 168.305 221.099 158.985 218.179 146.425C218.169 146.405 218.169 146.395 218.159 146.375C217.819 144.885 217.579 143.365 217.459 141.785C217.459 141.785 217.459 141.785 217.459 141.775C217.429 141.365 217.399 140.955 217.389 140.535C217.389 140.535 219.419 145.305 222.939 150.455C227.079 156.515 233.289 163.125 240.709 163.165C247.129 163.205 250.419 158.815 252.089 154.765C252.799 153.045 253.219 151.395 253.439 150.165C253.449 150.155 253.449 150.145 253.449 150.145C253.519 149.785 253.569 149.465 253.619 149.195V149.185C253.639 149.045 253.659 148.925 253.669 148.815C253.729 148.365 253.749 148.105 253.749 148.105C253.749 148.105 256.209 163.465 247.139 172.535Z" fill="url(#paint12_linear_31_862)"/>
<path opacity="0.5" d="M247.139 172.535C245.789 173.875 244.199 175.075 242.299 176.075H242.179L242.039 176.065L242.029 176.055C241.519 175.745 239.779 174.675 237.439 172.915C231.319 168.305 221.099 158.985 218.179 146.425C218.169 146.405 218.169 146.395 218.159 146.375C217.819 144.885 217.579 143.365 217.459 141.785C217.459 141.785 217.459 141.785 217.459 141.775C217.429 141.365 217.399 140.955 217.389 140.535C217.389 140.535 219.419 145.305 222.939 150.455C222.939 150.455 226.979 161.555 235.719 167.055C240.099 169.805 243.419 169.405 245.859 167.785C248.299 166.175 249.879 163.365 250.809 161.245C251.739 159.115 252.039 157.125 252.089 155.665C252.099 155.335 252.099 155.035 252.089 154.765C252.799 153.045 253.219 151.395 253.439 150.165C253.449 150.155 253.449 150.145 253.449 150.145C253.519 149.785 253.569 149.465 253.619 149.195V149.185C253.639 149.045 253.659 148.925 253.669 148.815C253.729 148.365 253.749 148.105 253.749 148.105C253.749 148.105 256.209 163.465 247.139 172.535Z" fill="url(#paint13_linear_31_862)"/>
<path d="M303.299 263.226C303.189 263.276 303.139 263.306 303.139 263.306C302.319 263.406 299.769 262.846 296.429 259.956L296.419 259.946C296.419 259.936 296.409 259.926 296.389 259.916C296.379 259.906 296.369 259.886 296.349 259.876C293.549 257.426 290.189 253.336 286.839 246.636C280.139 233.246 278.219 224.306 277.909 222.746L277.869 222.506L273.959 228.706C271.309 236.676 266.289 269.656 266.379 271.076C266.469 272.496 270.829 279.416 270.739 280.266C270.739 280.266 270.739 280.276 270.729 280.286C270.609 281.146 268.649 283.036 268.089 285.096C267.709 286.466 270.369 290.786 272.239 294.016V294.026C273.209 295.706 273.959 297.086 273.959 297.606C273.959 299.116 269.219 306.506 269.219 306.506V310.486L269.149 310.556L268.929 310.756L268.749 310.906C266.949 312.326 259.319 316.976 235.479 318.256C207.229 319.766 188.409 310.676 188.409 310.676L189.829 306.786C189.829 306.786 188.509 305.656 188.409 305.086C188.319 304.516 189.449 303.186 189.449 303.186C189.449 303.186 186.609 301.676 186.609 299.776C186.609 297.886 192.299 292.016 192.109 286.986C191.919 281.966 187.559 277.516 186.989 274.676C186.419 271.836 194.379 264.826 194.379 264.826C187.559 243.226 186.229 214.236 186.229 214.236L184.909 212.716C184.909 212.716 176.759 231.286 169.369 240.376C168.489 241.456 167.559 242.526 166.599 243.556C164.539 245.786 162.349 247.876 160.239 249.706C155.119 254.166 150.469 257.096 149.289 256.866C147.389 256.486 139.809 241.516 140.159 226.166C140.319 218.866 144.719 210.696 149.289 204.146C149.779 203.446 150.269 202.756 150.769 202.086C154.009 197.676 157.119 194.216 158.609 192.636C159.189 192.016 159.519 191.686 159.519 191.686C159.519 191.686 158.479 188.336 157.769 185.426C157.759 185.356 157.739 185.286 157.719 185.216C157.719 185.186 157.709 185.146 157.699 185.116C157.689 185.066 157.679 185.046 157.679 185.046C157.259 183.256 156.999 181.706 157.239 181.326C157.869 180.316 161.539 179.176 162.169 178.426C162.799 177.666 165.449 164.906 167.469 163.516C169.409 162.186 172.819 161.216 184.189 156.746C184.749 156.526 185.319 156.306 185.919 156.066C198.669 151.016 211.179 144.886 211.179 144.886L215.979 138.986H218.119L217.419 140.486L217.389 140.536C217.729 142.056 218.119 143.516 218.559 144.906C218.569 144.946 218.579 144.986 218.599 145.016C225.199 165.836 242.179 172.546 242.179 172.546C253.979 163.836 253.749 150.006 253.749 150.006V148.106L255.959 148.766L257.469 152.366C257.469 152.366 260.029 156.346 270.169 160.806C271.919 161.576 273.799 162.546 275.739 163.656C285.019 168.926 295.339 177.076 296.129 178.806C296.209 178.986 296.299 179.266 296.399 179.666V179.676C297.489 183.956 299.729 199.986 301.809 205.706C303.109 209.276 305.159 211.246 306.669 212.266C306.679 212.276 306.679 212.276 306.689 212.276C307.809 213.046 308.629 213.286 308.629 213.286C308.789 214.166 308.939 215.036 309.079 215.896C313.429 243.316 305.159 261.926 303.299 263.226Z" fill="url(#paint14_linear_31_862)"/>
<path opacity="0.5" d="M194.469 211.466L186.229 214.236L184.909 212.716C184.909 212.716 176.759 231.286 169.369 240.376C168.489 241.456 167.559 242.526 166.599 243.556C164.539 245.786 162.349 247.876 160.239 249.706L153.959 222.636L150.769 202.086C154.009 197.676 157.119 194.216 158.609 192.636C159.189 192.016 159.519 191.686 159.519 191.686C159.519 191.686 158.479 188.336 157.769 185.426C157.759 185.356 157.739 185.286 157.719 185.216C157.719 185.186 157.709 185.146 157.699 185.116C157.689 185.066 157.679 185.046 157.679 185.046C157.259 183.256 156.999 181.706 157.239 181.326C157.869 180.316 161.539 179.176 162.169 178.426C162.799 177.666 165.449 164.906 167.469 163.516C167.469 163.516 166.149 175.766 173.159 191.306L176.569 196.106L186.549 204.126C186.549 204.126 190.339 209.156 194.469 211.466Z" fill="url(#paint15_linear_31_862)"/>
<path d="M170.629 233.625C168.859 246.755 149.289 256.865 149.289 256.865C144.929 256.865 140.059 249.285 135.639 239.935C131.219 230.585 130.949 203.725 130.719 202.065C130.479 200.405 128.019 197.085 127.869 195.665C127.729 194.245 131.849 191.305 131.849 191.305L131.819 191.235L131.789 191.165C131.359 190.245 128.939 185.055 129.109 184.105C129.299 183.065 133.929 180.795 133.929 180.795L134.219 185.905C134.219 185.905 144.999 183.865 148.649 175.515L149.289 172.955L151.089 174.155V185.145C151.089 185.145 151.459 186.855 152.029 186.855C152.599 186.855 156.799 184.755 157.679 185.045C158.569 185.335 159.439 191.215 160.619 191.965C161.789 192.725 164.919 194.905 165.389 195.945C165.599 196.415 165.619 198.105 165.639 200.095C165.669 202.535 165.689 205.415 166.049 207.035C166.719 209.965 172.399 220.485 170.629 233.625Z" fill="url(#paint16_linear_31_862)"/>
<path d="M349.619 222.376C348.739 223.766 344.319 226.676 343.179 227.816C342.039 228.946 343.179 232.686 343.179 232.686C324.609 252.396 305.249 262.266 303.299 263.226C303.189 263.276 303.139 263.306 303.139 263.306C291.479 255.466 292.479 242.556 296.349 231.676C300.049 221.236 306.389 212.666 306.669 212.296L306.679 212.286C306.679 212.286 306.679 212.286 306.689 212.276C306.899 212.196 310.229 210.816 312.609 210.636C313.399 210.576 314.119 210.886 314.799 211.316C316.219 212.196 317.419 213.586 318.579 213.006C320.289 212.146 324.109 203.116 326.699 202.866C328.509 202.696 331.019 204.536 332.689 205.586C333.419 206.046 333.989 206.356 334.269 206.276C335.219 206.026 338.439 202.166 338.699 202.066C338.949 201.956 340.419 203.036 340.419 203.036L339.389 204.316C340.969 213.416 346.149 219.536 346.149 219.536L349.619 214.456C349.619 214.456 350.509 220.986 349.619 222.376Z" fill="url(#paint17_linear_31_862)"/>
<path d="M253.689 148.956C253.669 149.086 253.649 149.216 253.639 149.346C253.589 149.616 253.529 149.876 253.449 150.146C253.449 150.146 253.449 150.156 253.439 150.166C252.249 154.576 247.439 159.086 241.369 156.916C234.739 154.546 222.119 127.816 222.119 127.816L223.389 122.106L253.339 146.506L253.669 148.816L253.689 148.956Z" fill="#CB4D7A"/>
<path d="M153.959 144.066C153.959 144.066 152.129 133.956 152.949 126.506C153.769 119.056 152.739 110.586 152.739 110.586C152.739 110.586 150.929 109.826 149.599 110.586C148.269 111.346 145.179 119.046 146.569 125.236C147.959 131.426 146.889 146.266 146.889 146.266H144.809L140.259 140.016L138.049 139.386C138.049 139.386 125.319 151.386 125.509 158.526L127.169 164.876L142.839 164.336L153.079 152.656L153.959 144.066Z" fill="#EE8183"/>
<path d="M138.049 139.386C138.049 139.386 138.379 147.346 140.159 154.166C140.159 154.166 139.859 156.956 136.589 157.146L135.779 156.246C135.779 156.246 135.209 159.416 132.319 159.656L129.569 156.906L130.279 159.176C130.279 159.176 129.289 161.596 126.679 161.496C126.679 161.496 122.319 158.086 122.039 153.636L126.349 149.986V147.196L131.469 143.596L131.559 141.556C131.569 141.566 134.569 139.336 138.049 139.386Z" fill="url(#paint18_linear_31_862)"/>
<path opacity="0.6" d="M153.129 124.365C153.129 124.365 152.359 126.315 151.269 127.075C150.179 127.835 147.019 128.415 147.019 128.415L146.879 146.275H144.799L140.249 140.025C140.249 140.025 142.559 143.595 142.699 146.275L140.899 147.155L139.339 141.805L138.599 145.655L139.339 150.445C139.339 150.445 142.039 148.125 146.919 148.035L147.649 149.365C147.649 149.365 138.819 156.675 136.789 160.985C136.789 160.985 141.149 155.445 151.099 149.335L152.049 146.395L153.309 139.385C153.289 139.385 152.099 129.285 153.129 124.365Z" fill="url(#paint19_linear_31_862)"/>
<path d="M160.529 155.495C159.709 157.955 151.119 168.185 150.169 170.405C149.219 172.615 148.649 175.515 148.649 175.515C144.429 184.645 134.219 185.905 134.219 185.905L133.749 177.665C133.749 177.665 128.259 174.505 127.329 172.775L127.319 172.745L127.209 172.455C126.929 170.845 127.169 164.875 127.169 164.875L136.779 160.985C140.949 155.585 151.089 149.335 151.089 149.335L151.559 146.505C144.279 142.925 145.499 132.095 146.729 130.765C147.959 129.445 150.229 129.445 150.229 129.445C150.229 129.445 152.889 138.155 154.589 142.235C156.299 146.305 161.349 153.035 160.529 155.495Z" fill="url(#paint20_linear_31_862)"/>
<path d="M131.569 141.566C131.569 141.566 132.639 151.516 135.789 156.246C135.789 156.246 131.799 151.286 131.479 143.596L131.569 141.566Z" fill="#E28183"/>
<path d="M126.359 147.205C126.359 147.205 127.399 155.215 132.329 159.665C132.329 159.665 127.969 157.485 126.359 150.005V147.205Z" fill="#E28183"/>
<path opacity="0.91" d="M151.509 168.285C151.509 168.285 140.679 178.805 133.759 177.665L134.229 185.905C134.229 185.905 145.599 184.915 149.299 172.955C149.289 172.945 150.619 169.505 151.509 168.285Z" fill="url(#paint21_linear_31_862)"/>
<path d="M380.539 182.586C380.539 182.586 370.589 200.776 358.939 206.366H354.959L345.769 220.296C345.769 220.296 339.829 216.566 339.389 204.316C339.389 204.316 341.469 202.146 341.979 199.696C341.979 199.696 338.699 197.116 337.809 195.226C336.929 193.326 336.609 187.646 335.979 185.306C335.349 182.966 329.979 178.106 328.779 177.476C327.579 176.846 322.149 176.526 322.149 176.526C322.149 176.526 321.389 174.566 322.149 173.626C322.909 172.676 331.369 169.386 335.979 172.546C335.979 172.546 336.299 174.946 336.799 176.216C337.309 177.476 341.349 181.956 341.979 181.956C342.609 181.956 345.329 179.686 346.529 177.916C347.679 176.216 353.789 163.046 355.269 158.596C355.279 158.546 355.289 158.506 355.309 158.466C355.329 158.396 355.359 158.326 355.369 158.266C355.389 158.216 355.399 158.176 355.409 158.136C355.419 158.116 355.429 158.106 355.429 158.086C356.569 154.236 363.199 146.846 366.739 144.826C366.739 144.826 368.249 144.446 369.069 146.336C369.069 146.336 366.229 154.426 363.259 159.226C362.759 160.036 362.219 160.986 361.659 162.006C361.659 162.006 361.659 162.006 361.649 162.006C359.119 166.656 356.269 172.746 355.859 173.636L355.809 173.746L357.389 174.556L361.659 170.506L366.039 166.356L376.089 176.966L375.099 178.226L371.959 182.256L373.549 182.546L377.249 178.456L380.539 182.586Z" fill="url(#paint22_linear_31_862)"/>
<path opacity="0.6" d="M378.219 186.446L375.039 191.116C375.039 191.116 357.589 177.656 353.799 176.516C350.009 175.376 348.619 176.136 348.619 176.136L344.709 181.126C344.709 181.126 351.909 187.506 352.539 196.096C352.539 196.096 350.139 185.236 341.989 181.946C342.619 181.946 345.339 179.676 346.539 177.906C347.689 176.206 353.799 163.036 355.279 158.586C355.079 159.346 354.819 160.826 355.439 161.996C356.299 163.586 361.359 162.086 361.659 161.996C361.669 161.996 361.669 161.996 361.669 161.996L355.869 173.626L355.819 173.736L357.399 174.546L361.669 170.496L359.529 175.466L375.109 178.216L371.969 182.246L373.559 182.536L378.219 186.446Z" fill="url(#paint23_linear_31_862)"/>
<path d="M366.049 166.357C366.049 166.357 369.079 165.917 371.039 169.827L370.599 171.087C370.599 171.087 373.549 171.667 376.409 176.457C376.409 176.457 373.879 181.067 367.629 183.147C367.629 183.147 364.719 182.327 364.219 179.867L364.789 178.287L362.519 179.997C362.519 179.997 359.799 180.817 358.599 176.777L366.049 166.357Z" fill="url(#paint24_linear_31_862)"/>
<path d="M381.459 181.325C381.459 181.325 382.089 178.415 378.999 176.525L372.999 183.155C372.999 183.155 373.179 185.285 375.779 185.745C375.769 185.745 379.879 184.355 381.459 181.325Z" fill="url(#paint25_linear_31_862)"/>
<path opacity="0.91" d="M337.809 195.227C337.809 195.227 344.759 202.987 354.959 206.367L350.559 213.027L341.389 201.377L341.979 199.687C341.979 199.697 338.319 196.937 337.809 195.227Z" fill="url(#paint26_linear_31_862)"/>
<path d="M370.589 171.096C370.589 171.096 367.679 175.896 364.779 178.296L364.209 179.876C364.209 179.876 369.849 176.066 371.919 171.676C371.929 171.666 371.259 171.186 370.589 171.096Z" fill="#E28183"/>
<path opacity="0.5" d="M349.619 222.377C348.739 223.767 344.319 226.677 343.179 227.817C342.039 228.947 343.179 232.687 343.179 232.687C324.609 252.397 305.249 262.267 303.299 263.227C303.189 263.277 303.139 263.307 303.139 263.307C301.619 263.497 294.229 261.417 286.839 246.637C280.139 233.247 278.219 224.307 277.909 222.747L277.869 222.507L279.499 220.297L281.919 193.017L283.619 198.507C290.059 190.737 296.129 178.807 296.129 178.807L296.399 179.667V179.677C297.489 183.957 299.729 199.987 301.809 205.707C303.109 209.277 305.159 211.247 306.669 212.267L306.679 212.287L306.669 212.297C300.739 217.707 297.799 225.487 296.349 231.677C295.019 237.357 294.929 241.707 294.929 241.707C294.929 241.707 296.569 234.007 301.749 224.747C303.629 221.377 306.369 218.367 309.079 215.897C311.119 214.037 313.149 212.477 314.799 211.317C316.219 212.197 317.419 213.587 318.579 213.007C310.779 224.717 310.969 247.897 318.299 243.477C325.619 239.057 327.299 229.677 327.299 229.677C325.569 218.247 326.089 205.357 327.479 202.907C329.169 202.967 333.999 206.357 334.279 206.277C333.839 219.727 340.159 228.707 340.159 228.707L344.329 222.257C338.259 212.027 338.709 202.067 338.709 202.067C338.959 201.957 340.429 203.037 340.429 203.037L339.399 204.317C340.979 213.417 346.159 219.537 346.159 219.537L349.629 214.457C349.619 214.457 350.509 220.987 349.619 222.377Z" fill="url(#paint27_linear_31_862)"/>
<path opacity="0.5" d="M269.219 306.506V310.486L269.149 310.556L268.929 310.756L268.749 310.906C266.949 312.326 259.319 316.976 235.479 318.256C207.229 319.766 188.409 310.676 188.409 310.676L189.829 306.786C189.829 306.786 188.509 305.656 188.409 305.086C188.319 304.516 189.449 303.186 189.449 303.186C189.449 303.186 186.609 301.676 186.609 299.776C186.609 298.066 191.249 293.116 191.999 288.466C192.089 287.966 192.129 287.476 192.109 286.986C191.919 281.986 187.599 277.556 186.999 274.716C186.989 274.686 186.989 274.676 186.989 274.676C186.419 271.836 194.379 264.826 194.379 264.826C187.559 243.226 186.229 214.236 186.229 214.236L184.909 212.716C184.909 212.716 176.759 231.286 169.369 240.376C161.979 249.476 151.179 257.246 149.289 256.866C144.929 256.866 140.059 249.286 135.639 239.936C131.219 230.586 130.949 203.726 130.719 202.066C130.479 200.406 128.019 197.086 127.869 195.666C132.609 203.816 140.159 201.416 140.159 201.416C134.689 201.536 131.849 191.306 131.849 191.306L131.819 191.236L131.789 191.166L129.119 184.116C129.419 184.456 135.669 191.446 141.709 187.136C147.899 182.716 151.089 174.156 151.089 174.156V185.146C151.089 185.146 151.459 186.856 152.029 186.856C151.659 191.916 150.589 198.076 149.289 204.146C146.479 217.276 142.629 229.956 142.629 229.956C142.629 229.956 153.069 224.276 156.739 209.876C158.489 202.986 158.779 196.996 158.609 192.636C158.459 188.906 157.969 186.356 157.769 185.426C157.759 185.356 157.739 185.286 157.719 185.216C157.719 185.186 157.709 185.146 157.699 185.116C157.699 185.096 157.689 185.076 157.689 185.066L158.699 187.206L160.619 191.966C162.849 210.446 158.249 238.296 158.249 238.296C164.949 229.956 166.339 211.516 166.049 207.036C165.919 204.896 165.749 202.256 165.639 200.096C165.489 197.736 165.389 195.946 165.389 195.946L179.099 204.126L176.569 196.106L186.549 204.126C186.549 204.126 195.519 214.926 204.739 216.186C213.959 217.456 247.809 216.696 247.809 216.696C247.809 216.696 218.379 218.586 209.789 221.116C201.199 223.646 199.559 226.546 199.559 226.546C205.769 258.136 240.139 268.786 241.209 269.106C210.029 264.426 195.519 237.916 195.519 237.916C195.519 237.916 195.009 252.826 197.409 258.506C199.809 264.186 213.959 278.086 232.149 280.986C233.679 281.226 235.189 281.376 236.679 281.446C252.019 282.166 264.719 274.326 266.019 273.486C266.089 273.436 266.129 273.416 266.129 273.416C266.129 273.416 266.119 273.436 266.099 273.466C265.609 274.216 259.319 283.056 233.919 284.026C232.379 284.086 230.879 284.076 229.419 284.016C229.409 284.016 229.399 284.016 229.399 284.016C205.859 283.026 193.869 267.346 193.869 267.346C193.869 267.346 185.159 272.026 190.719 278.966C190.779 279.036 190.839 279.116 190.899 279.186C192.539 281.076 196.149 283.386 200.419 285.766C200.539 285.836 200.659 285.906 200.769 285.966C205.929 288.816 211.979 291.756 216.659 294.186C216.689 294.196 216.709 294.206 216.729 294.216C219.589 295.706 221.939 296.986 223.249 297.946C223.259 297.946 223.259 297.956 223.259 297.956C224.579 298.916 224.849 299.536 223.559 299.686C216.989 300.446 192.109 295.016 191.099 296.526C190.089 298.046 192.329 301.956 192.329 301.956C215.169 313.276 264.039 307.696 265.579 307.526C224.679 317.996 191.219 304.736 191.219 304.736L192.329 308.656C192.329 308.656 210.549 314.966 232.019 315.476C253.499 315.976 266.889 310.486 266.889 310.486L269.219 306.506Z" fill="url(#paint28_linear_31_862)"/>
<path opacity="0.5" d="M252.489 216.566C252.489 216.566 268.759 217.446 279.509 220.296L273.969 228.706C273.959 228.706 265.629 221.366 252.489 216.566Z" fill="url(#paint29_linear_31_862)"/>
<path opacity="0.5" d="M267.689 261.406C267.689 261.406 257.539 269.876 247.559 273.786C237.579 277.706 227.979 278.076 227.979 278.076C227.979 278.076 233.719 279.786 247.829 277.506C261.949 275.236 266.779 267.586 266.779 267.586L267.689 261.406Z" fill="url(#paint30_linear_31_862)"/>
<path opacity="0.5" d="M272.239 294.015V294.025C253.459 298.875 229.619 291.915 229.819 291.065C230.019 290.215 236.349 291.445 251.029 288.505C265.259 285.655 270.419 280.595 270.729 280.285C270.609 281.145 268.649 283.035 268.089 285.095C267.709 286.465 270.369 290.785 272.239 294.015Z" fill="url(#paint31_linear_31_862)"/>
<path opacity="0.5" d="M221.229 219.115C205.189 220.745 200.869 225.215 200.869 225.215C196.359 225.785 186.229 214.235 186.229 214.235L184.909 212.715C184.909 212.715 176.759 231.285 169.369 240.375C168.489 241.455 167.559 242.525 166.599 243.555L167.649 241.195C167.649 241.195 169.369 240.375 169.869 231.345C170.379 222.325 166.079 208.865 166.049 207.035C166.019 205.205 165.389 195.945 165.389 195.945L179.099 204.125L176.569 196.105L186.549 204.125C186.549 204.125 190.459 210.005 200.329 214.905C209.639 219.535 220.079 219.165 221.229 219.115Z" fill="url(#paint32_linear_31_862)"/>
<path opacity="0.5" d="M184.909 212.715L194.469 211.465C194.469 211.465 198.289 213.995 205.959 217.115L199.569 226.545C199.569 226.545 202.109 239.985 209.389 247.555C209.389 247.555 190.069 236.825 187.349 227.805L184.909 212.715Z" fill="url(#paint33_linear_31_862)"/>
<path opacity="0.5" d="M129.119 184.116L131.849 191.306C131.849 191.306 134.629 201.006 140.159 201.416C145.689 201.826 151.089 185.146 151.089 185.146V174.156C151.089 174.156 145.209 186.756 138.859 188.176C132.519 189.596 129.119 184.116 129.119 184.116Z" fill="url(#paint34_linear_31_862)"/>
<path opacity="0.5" d="M162.169 178.426C162.169 178.426 167.099 188.276 173.159 191.306C173.159 191.306 165.949 173.806 167.469 163.516C167.469 163.516 164.819 165.166 162.169 178.426Z" fill="url(#paint35_linear_31_862)"/>
<path opacity="0.76" d="M281.919 193.016L283.619 198.506L285.339 243.556C285.339 243.556 280.969 234.986 277.909 222.746L279.499 220.296C279.509 220.296 282.179 203.316 281.919 193.016Z" fill="url(#paint36_linear_31_862)"/>
<path opacity="0.5" d="M334.269 206.275C334.269 206.275 333.309 228.405 342.709 230.315L343.179 232.685C343.179 232.685 331.019 232.235 334.269 206.275Z" fill="url(#paint37_linear_31_862)"/>
<path opacity="0.3" d="M318.579 213.006C318.579 213.006 318.219 213.796 314.799 211.316C314.799 211.316 302.969 219.696 298.409 231.506C298.409 231.506 305.699 220.656 309.579 219.476C313.459 218.306 314.399 222.636 314.399 222.636C314.399 222.636 315.939 216.536 318.579 213.006Z" fill="url(#paint38_linear_31_862)"/>
<path opacity="0.5" d="M127.869 195.666C127.869 195.666 132.419 204.056 140.949 201.426C140.949 201.426 135.839 204.866 130.719 202.066C130.719 202.066 127.549 196.606 127.869 195.666Z" fill="url(#paint39_linear_31_862)"/>
<path opacity="0.5" d="M157.679 185.045C157.679 185.045 163.939 208.445 147.609 226.025C147.609 226.025 158.209 220.585 160.619 207.985C163.029 195.375 157.679 185.045 157.679 185.045Z" fill="url(#paint40_linear_31_862)"/>
<path opacity="0.5" d="M269.819 166.346C269.819 166.346 269.119 176.906 264.049 184.486C258.989 192.066 248.949 197.176 248.949 197.176C248.949 197.176 261.549 192.536 267.329 185.996C273.109 179.466 269.819 166.346 269.819 166.346Z" fill="url(#paint41_linear_31_862)"/>
<path opacity="0.5" d="M205.369 150.445C205.369 150.445 205.369 159.275 208.209 168.275C211.049 177.275 235.719 193.005 235.719 193.005C235.719 193.005 210.289 182.445 205.369 172.945C200.449 163.445 205.369 150.445 205.369 150.445Z" fill="url(#paint42_linear_31_862)"/>
<path d="M205.079 192.505V206.885C205.079 206.885 238.189 206.615 275.319 209.075L276.169 196.125C276.169 196.135 243.889 192.315 205.079 192.505Z" fill="url(#paint43_linear_31_862)"/>
<path d="M211.219 195.786C211.229 195.536 211.349 195.426 211.569 195.426L218.279 195.626C218.939 195.646 219.509 195.746 219.969 195.926C220.429 196.106 220.799 196.356 221.079 196.676C221.359 196.996 221.549 197.366 221.669 197.816C221.789 198.256 221.839 198.746 221.819 199.286L221.759 201.126C221.739 201.666 221.659 202.156 221.519 202.586C221.379 203.016 221.159 203.386 220.859 203.686C220.559 203.986 220.179 204.206 219.709 204.366C219.239 204.516 218.669 204.586 218.009 204.566L214.399 204.456L213.649 202.346H213.549L213.489 204.436L210.959 204.356L211.219 195.786ZM213.559 202.116L217.849 202.246C218.329 202.256 218.679 202.166 218.889 201.956C219.099 201.746 219.209 201.376 219.229 200.836L219.279 199.336C219.299 198.776 219.209 198.396 219.009 198.186C218.809 197.976 218.469 197.866 217.989 197.856L213.889 197.736C213.829 197.736 213.789 197.756 213.749 197.786C213.719 197.826 213.699 197.866 213.699 197.916L213.559 202.116Z" fill="#EBEFFF"/>
<path d="M225.459 199.625H225.369L225.289 202.305C225.289 202.415 225.339 202.475 225.459 202.485L232.999 202.715L232.929 205.035L223.039 204.735C222.799 204.725 222.689 204.605 222.689 204.355L222.939 196.145C222.949 195.895 223.069 195.785 223.309 195.785L232.919 196.075C233.169 196.085 233.289 196.205 233.279 196.455L233.209 198.775L230.839 199.575H230.739L230.779 198.385C230.779 198.295 230.739 198.245 230.659 198.245L225.589 198.095C225.519 198.095 225.479 198.115 225.459 198.145C225.439 198.185 225.429 198.225 225.429 198.265L225.399 199.385L229.579 199.515L229.519 201.335L226.019 201.225L225.459 199.625Z" fill="#EBEFFF"/>
<path d="M242.219 199.455H242.119L242.149 198.475C242.149 198.375 242.109 198.325 242.009 198.325L237.289 198.185C237.119 198.185 236.999 198.215 236.929 198.285C236.859 198.355 236.829 198.465 236.819 198.605L236.809 198.825C236.799 198.995 236.829 199.105 236.889 199.155C236.949 199.205 237.059 199.245 237.219 199.275L242.749 200.215C243.099 200.275 243.399 200.365 243.639 200.465C243.879 200.575 244.079 200.715 244.229 200.885C244.379 201.055 244.479 201.265 244.539 201.515C244.599 201.765 244.619 202.055 244.609 202.395L244.589 203.105C244.579 203.475 244.519 203.795 244.419 204.075C244.319 204.355 244.169 204.585 243.959 204.775C243.749 204.965 243.469 205.095 243.139 205.185C242.799 205.275 242.389 205.305 241.899 205.295L233.939 205.055L234.009 202.735L241.149 202.955C241.359 202.965 241.509 202.925 241.579 202.855C241.649 202.775 241.689 202.645 241.699 202.445L241.709 202.195C241.709 202.035 241.689 201.925 241.639 201.865C241.589 201.805 241.489 201.755 241.329 201.735L235.989 200.895C235.629 200.835 235.319 200.755 235.069 200.645C234.819 200.535 234.609 200.405 234.449 200.235C234.289 200.065 234.179 199.865 234.109 199.625C234.039 199.385 234.019 199.105 234.029 198.775L234.049 198.145C234.069 197.495 234.259 197.005 234.609 196.655C234.969 196.305 235.539 196.145 236.349 196.175L244.299 196.415C244.549 196.425 244.679 196.555 244.669 196.815L244.609 198.655L242.219 199.455Z" fill="#EBEFFF"/>
<path d="M245.579 205.417L245.849 196.477L248.379 196.557L248.109 205.497L245.579 205.417Z" fill="#EBEFFF"/>
<path d="M257.509 201.936C257.509 201.806 257.509 201.666 257.499 201.526C257.489 201.386 257.479 201.256 257.469 201.146V201.036L259.979 201.116L259.849 205.506C259.839 205.736 259.739 205.846 259.529 205.846L252.799 205.646C252.139 205.626 251.569 205.526 251.109 205.346C250.649 205.166 250.279 204.916 249.999 204.596C249.719 204.276 249.519 203.906 249.409 203.456C249.289 203.016 249.239 202.526 249.259 201.986L249.319 200.146C249.339 199.606 249.419 199.116 249.559 198.686C249.699 198.256 249.919 197.886 250.219 197.586C250.519 197.286 250.899 197.066 251.369 196.906C251.839 196.756 252.409 196.686 253.069 196.706L259.759 196.906C259.999 196.916 260.109 197.036 260.109 197.286L260.049 199.216L257.679 200.006H257.579L257.609 199.146C257.609 199.066 257.579 199.026 257.499 199.016L253.229 198.886C252.979 198.876 252.779 198.896 252.609 198.936C252.439 198.976 252.299 199.046 252.189 199.156C252.079 199.266 251.999 199.406 251.939 199.596C251.889 199.776 251.849 200.006 251.839 200.276L251.789 201.846C251.769 202.386 251.859 202.766 252.059 202.986C252.259 203.206 252.599 203.326 253.079 203.336L257.319 203.466C257.409 203.466 257.459 203.426 257.459 203.326L257.509 201.936Z" fill="#EBEFFF"/>
<path d="M265.329 197.065C265.519 197.075 265.649 197.105 265.729 197.165C265.809 197.225 265.869 197.315 265.939 197.445L269.139 203.975C269.189 204.075 269.269 204.125 269.369 204.125H269.499C269.629 204.125 269.699 204.065 269.699 203.935L269.899 197.205L272.199 197.275L271.939 205.865C271.929 206.105 271.819 206.215 271.589 206.205L267.949 206.095C267.779 206.095 267.649 206.065 267.569 206.015C267.479 205.965 267.409 205.865 267.339 205.725L264.019 199.205C263.969 199.105 263.899 199.055 263.789 199.055H263.669C263.539 199.055 263.469 199.115 263.469 199.245L263.269 205.965L260.969 205.895L261.229 197.315C261.239 197.065 261.349 196.955 261.579 196.955L265.329 197.065Z" fill="#EBEFFF"/>
<path opacity="0.5" d="M257.469 152.366C256.689 161.666 253.859 168.146 250.839 172.516C246.679 178.516 242.179 180.566 242.179 180.566C237.679 178.606 233.779 176.166 230.419 173.476C216.159 162.076 211.559 146.276 211.209 144.976C217.229 159.516 226.069 168.326 232.769 173.286C238.169 177.296 242.179 178.806 242.179 178.806V174.156C241.109 173.756 240.069 173.296 239.079 172.796C227.279 166.846 221.079 154.446 218.179 146.426C218.169 146.406 218.169 146.396 218.159 146.376C216.589 142.036 215.979 138.986 215.979 138.986H218.119L217.419 140.486L217.389 140.536C217.729 142.056 218.119 143.516 218.559 144.906C218.569 144.946 218.579 144.986 218.599 145.016C225.199 165.836 242.179 172.546 242.179 172.546C253.979 163.836 253.749 150.006 253.749 150.006V148.106L255.959 148.766L257.469 152.366Z" fill="url(#paint44_linear_31_862)"/>
<path opacity="0.3" d="M327.479 202.896C327.479 202.896 324.269 213.376 327.299 229.666C327.299 229.666 328.819 209.016 329.949 207.216C331.089 205.416 334.269 206.266 334.269 206.266C334.269 206.266 329.259 203.506 327.479 202.896Z" fill="url(#paint45_linear_31_862)"/>
<path opacity="0.5" d="M296.349 259.877C293.549 257.427 290.189 253.337 286.839 246.637C280.139 233.247 278.219 224.307 277.909 222.747L279.499 220.297L281.629 199.697L283.619 198.507C283.619 198.507 290.729 190.657 296.129 178.807C296.209 178.987 296.299 179.267 296.399 179.667V179.677C297.489 183.957 299.729 199.987 301.809 205.707C303.109 209.277 305.159 211.247 306.669 212.267C306.669 212.267 294.359 230.527 293.759 243.557C293.229 255.417 295.869 259.277 296.349 259.877Z" fill="url(#paint46_linear_31_862)"/>
<path opacity="0.5" d="M223.259 297.955C223.259 297.955 201.069 294.315 192.009 288.475C192.009 288.475 191.999 288.475 191.999 288.465C192.089 287.965 192.129 287.475 192.109 286.985C191.919 281.985 187.599 277.555 186.999 274.715C187.099 274.985 187.749 276.485 190.899 279.185C192.889 280.895 195.899 283.095 200.419 285.765C200.539 285.835 200.659 285.905 200.769 285.965C207.169 289.745 212.679 292.305 216.659 294.185C216.689 294.195 216.709 294.205 216.729 294.215C220.309 295.895 222.629 297.005 223.249 297.945C223.259 297.945 223.259 297.955 223.259 297.955Z" fill="url(#paint47_linear_31_862)"/>
<path opacity="0.5" d="M270.729 280.285C270.609 281.145 268.649 283.035 268.089 285.095C268.089 285.095 259.949 293.715 229.819 291.065C230.019 290.215 236.349 291.445 251.029 288.505C265.259 285.655 270.419 280.595 270.729 280.285Z" fill="url(#paint48_linear_31_862)"/>
<path opacity="0.5" d="M275.739 163.656L256.479 169.896L250.839 172.516L250.809 172.526L247.139 172.536L242.179 172.546L239.079 172.796L237.439 172.916L232.769 173.286L230.419 173.476L207.319 165.116L203.189 163.626L184.189 156.746C184.749 156.526 185.319 156.306 185.919 156.066C198.669 151.016 211.179 144.886 211.179 144.886L215.979 138.986H218.119C220.029 134.806 221.299 130.896 222.119 127.816L223.389 122.106C223.479 121.556 223.519 121.256 223.519 121.256L230.319 124.846L253.249 143.186C253.229 144.436 253.269 145.556 253.339 146.506L253.669 148.816C253.729 148.366 253.749 148.106 253.749 148.106L255.959 148.766L257.469 152.366C257.469 152.366 260.029 156.346 270.169 160.806C271.919 161.576 273.799 162.546 275.739 163.656Z" fill="#7A4AC0"/>
<path d="M261.069 146.086C261.069 146.086 252.089 148.106 242.179 143.306C232.269 138.506 223.939 124.356 223.429 120.826C222.929 117.286 227.219 108.066 227.219 100.866C227.219 93.6656 223.689 81.2856 229.619 74.5856C235.559 67.8956 262.839 66.8856 271.689 75.4756C271.689 75.4756 274.429 82.3556 274.429 86.2456C274.429 87.1856 274.259 88.5656 274.009 90.1556C273.929 90.7456 273.819 91.3756 273.719 92.0256C272.929 96.7356 271.839 102.486 272.349 105.006C272.529 105.886 272.809 106.696 273.139 107.466V107.476C274.229 109.996 275.849 112.006 276.139 114.186C276.519 117.036 272.699 137.246 261.069 146.086Z" fill="url(#paint49_linear_31_862)"/>
<path d="M227.149 98.8257C227.149 98.8257 224.699 92.6757 218.539 92.5857C218.539 92.5857 214.939 94.0057 214.369 96.7557C214.369 96.7557 215.699 106.706 217.209 111.346C218.729 115.986 224.279 115.316 224.279 115.316C224.279 115.316 229.129 107.916 227.149 98.8257Z" fill="url(#paint50_linear_31_862)"/>
<path d="M250.819 119.085C250.819 119.085 252.869 118.925 253.749 119.585C254.629 120.245 257.859 123.375 261.929 124.225C265.999 125.075 268.739 121.605 269.599 121.435C270.469 121.255 271.419 122.485 271.419 122.485C271.419 122.485 271.049 121.065 268.919 120.425C268.919 120.425 268.059 123.695 262.159 122.575C256.259 121.455 253.739 118.835 253.739 118.835L253.439 118.295C253.449 118.295 251.789 118.635 250.819 119.085Z" fill="url(#paint51_linear_31_862)"/>
<path opacity="0.6" d="M242.099 88.4958L242.179 87.8658C242.179 87.8658 248.069 77.5258 259.719 77.2458C271.369 76.9658 273.999 84.2658 273.999 84.2658L276.159 80.9858L271.239 70.9958L236.999 70.4258L228.659 77.1558L227.609 93.6258L231.319 115.366L240.339 120.176L242.889 117.916C241.949 110.636 236.539 103.986 236.539 103.986L240.489 101.246C240.489 101.246 250.629 106.156 256.479 104.686C256.479 104.686 260.889 91.8258 260.629 82.3058C260.639 82.2858 245.619 84.5058 242.099 88.4958Z" fill="url(#paint52_linear_31_862)"/>
<path d="M241.579 89.2563C241.579 89.2563 242.149 85.5363 248.429 84.0463C255.429 82.3863 261.119 80.9863 261.119 80.9863C261.119 80.9863 259.879 85.0663 257.549 86.5963C257.549 86.5963 250.139 86.3263 246.399 87.1763C242.649 88.0363 241.579 89.2563 241.579 89.2563Z" fill="#38368E"/>
<path d="M274.009 84.2556C274.009 84.2556 270.459 86.9956 268.039 93.5356C268.039 93.5356 270.359 90.5056 272.489 90.5556C273.949 90.5856 273.719 92.0356 273.719 92.0356C273.719 92.0356 275.169 88.1156 274.009 84.2556Z" fill="#38368E"/>
<path d="M243.929 99.7858C243.929 99.7858 244.309 91.9258 251.979 89.9358C251.979 89.9358 254.729 93.4858 255.009 97.5158C255.019 97.5158 250.939 96.7558 243.929 99.7858Z" fill="url(#paint53_linear_31_862)"/>
<path d="M265.909 102.916C265.909 102.916 266.529 96.6557 270.129 94.3457C270.129 94.3457 272.579 96.1857 272.329 101.426C272.319 101.416 270.169 100.636 265.909 102.916Z" fill="url(#paint54_linear_31_862)"/>
<path d="M243.929 99.7864C243.929 99.7864 246.419 102.846 253.399 103.446C253.399 103.446 254.729 101.426 254.599 97.4564C254.609 97.4664 248.189 96.8564 243.929 99.7864Z" fill="#FFEBED"/>
<path d="M265.909 102.916V103.836C265.909 103.836 266.979 106.076 270.839 106.456C270.839 106.456 272.079 104.526 272.189 101.386C272.179 101.376 269.729 100.766 265.909 102.916Z" fill="#FFEBED"/>
<path d="M251.389 97.3061C251.389 97.3061 249.619 99.4561 249.779 102.856C249.779 102.856 252.099 103.406 253.399 103.456C253.399 103.456 254.929 101.326 254.599 97.4661C254.609 97.4661 252.579 97.0261 251.389 97.3061Z" fill="#7F9EC9"/>
<path d="M269.569 101.486C269.569 101.486 268.569 102.556 268.379 105.846C268.379 105.846 269.749 106.446 270.839 106.446C270.839 106.446 272.239 104.456 272.189 101.376C272.179 101.376 271.199 101.006 269.569 101.486Z" fill="#7F9EC9"/>
<path d="M250.819 103.085C250.819 103.085 250.189 98.8348 252.619 97.2148L254.609 97.4648C254.609 97.4648 255.269 100.825 253.409 103.455C253.399 103.455 251.429 103.225 250.819 103.085Z" fill="#38368E"/>
<path d="M270.449 101.296C270.449 101.296 269.549 103.186 269.129 106.126C269.129 106.126 269.819 106.406 270.839 106.446C270.839 106.446 272.199 104.776 272.189 101.376C272.179 101.376 271.149 101.106 270.449 101.296Z" fill="#38368E"/>
<path d="M243.929 99.7858C243.929 99.7858 248.569 97.0858 256.479 98.6258L255.009 97.5158C255.019 97.5158 249.379 95.7658 243.929 99.7858Z" fill="#131163"/>
<path d="M265.909 102.916C265.909 102.916 269.629 100.936 273.969 101.986L272.179 100.656C272.179 100.656 269.269 100.216 265.909 102.916Z" fill="#131163"/>
<path d="M248.949 99.7856C248.949 99.7856 250.209 99.5056 251.349 100.656C251.349 100.656 249.799 101.116 248.949 99.7856Z" fill="white"/>
<path d="M267.619 103.457C267.619 103.457 269.599 103.077 270.279 103.977C270.279 103.967 269.219 104.697 267.619 103.457Z" fill="white"/>
<path d="M244.399 100.246C244.399 100.246 248.009 103.816 253.789 104.666L253.939 102.566L253.409 103.456C253.399 103.456 247.849 103.126 244.399 100.246Z" fill="#C6659C"/>
<path d="M265.909 103.826C265.909 103.826 266.549 106.136 271.249 107.176L271.099 106.046L270.839 106.446C270.839 106.456 267.499 106.026 265.909 103.826Z" fill="#C6659C"/>
<path d="M256.479 113.056C256.479 113.056 258.229 112.676 261.449 113.056C264.669 113.436 268.289 114.316 270.269 113.056C270.269 113.056 267.639 115.686 265.359 116.086C263.079 116.486 259.609 114.486 259.609 114.486L258.089 114.516C258.109 114.506 256.939 113.936 256.479 113.056Z" fill="#CB5F7D"/>
<path d="M258.329 114.507C258.329 114.507 259.119 113.997 259.779 114.127C260.439 114.257 261.119 115.217 261.119 115.217C261.119 115.217 259.719 114.477 258.329 114.507Z" fill="#9F4A8B"/>
<path d="M270.279 113.057C271.119 112.237 266.759 104.477 264.679 104.187C262.599 103.897 260.639 112.887 260.639 112.887C260.639 112.887 263.539 113.297 266.349 113.667C269.159 114.047 270.279 113.057 270.279 113.057Z" fill="#FFBCAF"/>
<path opacity="0.6" d="M273.389 88.6165C272.209 88.4665 268.039 93.5365 268.039 93.5365C268.039 93.5365 265.389 101.747 265.909 104.177C266.429 106.617 272.869 107.907 272.869 107.907L273.139 107.477V107.467C272.809 106.697 272.529 105.887 272.349 105.007C271.839 102.487 272.929 96.7365 273.719 92.0265C273.719 92.0265 273.979 91.0565 274.009 90.1565C274.039 89.3965 273.929 88.6765 273.389 88.6165Z" fill="url(#paint55_linear_31_862)"/>
<path d="M273.199 121.956C271.869 119.176 272.689 117.726 261.139 116.216C244.789 114.066 243.389 119.056 240.609 118.296C240.509 118.266 240.389 118.226 240.279 118.176C237.269 117.006 230.179 110.036 229.999 100.646C229.809 90.8857 236.349 83.9657 236.349 83.9657C233.979 81.9757 233.029 76.2057 235.589 73.7357C238.149 71.2757 242.509 71.8457 253.209 72.9757C263.919 74.1157 263.919 73.4557 263.919 73.4557C267.319 74.3257 269.269 77.5157 269.819 78.5357C269.929 78.7357 269.979 78.8557 269.979 78.8557L271.309 77.6257C274.909 82.8357 274.249 88.5157 274.249 88.5157C274.249 88.5157 280.119 76.5757 279.449 74.8857C278.229 71.7657 274.839 67.2157 274.629 66.9257L274.619 66.9157C274.619 66.9157 273.669 57.8257 270.829 57.8257C267.989 57.8257 255.859 60.5657 255.859 60.5657C257.189 57.4457 256.999 53.8457 256.999 53.8457C256.999 53.8457 256.979 53.8657 256.949 53.8957C252.989 57.4457 249.119 57.8357 243.639 60.3757C240.879 61.6657 239.579 62.8557 238.509 64.0957L238.139 64.5357L237.749 65.0057C237.369 65.4857 236.979 65.9757 236.509 66.4757C236.489 66.5057 236.459 66.5257 236.449 66.5357C236.429 66.5557 236.419 66.5657 236.419 66.5657C235.979 67.0457 235.459 67.5357 234.829 68.0557C231.229 70.9857 223.309 72.9457 222.359 76.0457C221.409 79.1357 223.559 83.3657 224.699 87.7257C225.829 92.0857 225.309 95.9357 225.309 95.9357C225.309 95.9357 229.079 100.796 227.829 107.906C226.719 114.276 224.289 115.316 224.289 115.316C222.579 118.826 223.389 122.106 223.389 122.106C226.889 136.026 241.369 144.316 241.369 144.316C254.249 149.116 262.719 147.026 262.719 147.026C262.719 147.026 262.719 147.026 262.729 147.016C272.099 140.906 275.309 120.686 275.449 119.746C275.289 119.996 273.549 122.696 273.199 121.956ZM267.419 134.846C265.149 134.466 264.669 128.716 263.919 127.956C263.159 127.206 259.049 127.516 259.049 127.516C259.049 127.516 255.259 131.816 253.749 131.936C252.229 132.066 244.149 128.776 245.899 123.856C247.639 118.926 253.749 118.296 253.749 118.296C253.749 118.296 256.909 120.946 261.639 121.256C266.379 121.566 268.089 120.696 268.649 120.446C269.219 120.186 272.269 121.576 272.189 125.876C272.139 128.866 269.699 135.226 267.419 134.846Z" fill="url(#paint56_linear_31_862)"/>
<path d="M266.829 105.906C266.829 105.906 270.909 110.976 270.519 112.886C270.089 114.976 265.359 116.086 265.359 116.086C265.359 116.086 269.149 114.776 269.929 112.886C269.939 112.886 268.969 109.046 266.829 105.906Z" fill="#D2726C"/>
<path opacity="0.6" d="M274.249 88.516C274.249 88.516 274.909 82.836 271.309 77.626C274.199 72.466 274.619 66.916 274.619 66.916L274.629 66.926C275.609 69.336 276.169 74.026 276.169 74.026L279.449 74.886C280.119 76.576 274.249 88.516 274.249 88.516Z" fill="url(#paint57_linear_31_862)"/>
<path opacity="0.6" d="M269.819 78.5357C269.269 77.5157 267.319 74.3257 263.919 73.4557C263.919 73.4557 263.919 74.1157 253.209 72.9757C242.509 71.8457 238.149 71.2757 235.589 73.7357C233.029 76.2057 233.979 81.9757 236.349 83.9657C236.349 83.9657 229.809 90.8857 229.999 100.646C230.179 110.036 237.269 117.006 240.279 118.176L240.139 119.216C240.139 119.216 240.669 140.716 245.899 142.426C251.119 144.126 261.959 143.246 262.969 144.256C263.929 145.216 262.829 146.866 262.729 147.016C262.719 147.026 262.719 147.026 262.719 147.026C262.719 147.026 254.249 149.116 241.369 144.316C241.369 144.316 226.889 136.026 223.389 122.106C223.389 122.106 222.579 118.826 224.289 115.316C224.289 115.316 226.719 114.276 227.829 107.906C229.079 100.796 225.309 95.9357 225.309 95.9357C225.309 95.9357 225.829 92.0857 224.699 87.7257C223.559 83.3657 221.409 79.1357 222.359 76.0457C228.419 76.9957 232.399 73.8357 232.399 73.8357C232.399 73.8357 233.459 72.3657 238.149 71.6057C242.839 70.8457 261.689 72.7457 261.689 72.7457C261.689 72.7457 259.799 71.1757 255.819 70.1357C252.059 69.1457 239.219 70.2957 237.839 70.4057C239.309 70.1457 253.869 67.6457 255.529 68.1457C257.289 68.6657 263.589 71.5557 263.589 71.5557C263.019 68.6657 257.379 61.7057 257.379 61.7057C257.379 61.7057 249.419 61.8457 244.209 62.9357C239.559 63.9057 237.009 66.0357 236.509 66.4757L237.749 65.0057L238.139 64.5357L238.509 64.0957L240.329 63.7857L249.469 60.0957C252.539 58.4557 256.469 54.3957 256.949 53.8957C256.979 53.8657 256.999 53.8457 256.999 53.8457C256.999 53.8457 257.189 57.4457 255.859 60.5657C263.579 59.6157 266.189 60.0957 266.189 60.0957C269.699 65.0657 269.819 78.5357 269.819 78.5357Z" fill="url(#paint58_linear_31_862)"/>
<path opacity="0.5" d="M241.369 144.315C241.369 144.315 246.099 143.195 253.239 143.485C260.379 143.775 264.489 143.805 262.719 147.025C262.719 147.025 253.749 149.045 241.369 144.315Z" fill="url(#paint59_linear_31_862)"/>
<path d="M266.189 60.0966C266.189 60.0966 270.529 58.4066 272.249 58.6766C272.249 58.6766 271.569 57.7666 270.859 57.5766C270.149 57.3866 255.859 60.5566 255.859 60.5566C255.859 60.5566 264.769 59.5266 266.189 60.0966Z" fill="url(#paint60_linear_31_862)"/>
<path d="M257.379 61.7057C257.379 61.7057 257.039 66.4358 255.529 68.1458L237.839 70.4058L232.649 69.4858C232.649 69.4858 234.659 68.6257 236.869 66.0557C239.079 63.4757 250.609 60.9457 257.379 61.7057Z" fill="url(#paint61_linear_31_862)"/>
<path d="M274.619 66.916C274.619 66.916 276.059 71.566 276.169 74.026L279.449 74.886C279.449 74.886 278.459 71.366 274.619 66.916Z" fill="url(#paint62_linear_31_862)"/>
<path opacity="0.8" d="M226.419 107.176C226.419 107.176 225.179 101.206 222.129 98.2557C219.079 95.3057 215.609 96.2457 215.609 96.2457C215.609 96.2457 216.559 107.316 217.549 110.016C218.539 112.716 220.059 113.426 220.059 113.426C220.059 113.426 217.929 111.556 217.639 107.896C217.359 104.236 217.259 99.0757 218.069 98.4557C218.879 97.8357 222.129 100.246 222.129 100.246C222.129 100.246 221.099 101.506 220.489 104.766C219.869 108.026 222.149 110.396 222.999 110.346C223.849 110.296 222.949 106.576 223.089 105.496C223.229 104.416 225.129 104.666 226.419 107.176Z" fill="url(#paint63_linear_31_862)"/>
<path opacity="0.8" d="M223.379 99.7556C223.379 99.7556 220.049 101.946 220.409 106.426C220.769 110.916 223.329 110.716 223.339 109.776C223.349 108.836 222.849 106.406 223.109 105.036C223.369 103.666 225.579 104.286 225.579 104.286C225.579 104.286 224.129 100.726 223.379 99.7556Z" fill="url(#paint64_linear_31_862)"/>
<path d="M275.449 119.746C275.449 119.746 271.309 138.616 262.719 147.026C262.719 147.026 272.519 143.176 275.449 119.746Z" fill="#34C7FF"/>
<path d="M270.859 57.5857C270.859 57.5857 273.039 59.2857 273.459 65.1757C273.869 71.0757 271.319 77.6257 271.319 77.6257C271.319 77.6257 274.599 72.7257 274.919 67.3557C275.229 61.9857 272.589 58.2657 270.859 57.5857Z" fill="#34C7FF"/>
<path d="M244.429 69.9354C244.429 69.9354 249.479 71.6554 255.019 72.1454C260.559 72.6354 261.699 72.7454 261.699 72.7454C261.699 72.7454 259.469 70.5854 254.729 69.9354C249.979 69.2854 244.429 69.9354 244.429 69.9354Z" fill="url(#paint65_linear_31_862)"/>
<path d="M268.829 120.156C268.829 120.156 271.249 120.156 272.199 123.186C272.959 125.606 273.169 127.686 273.169 127.686L274.029 124.366C274.029 124.366 272.909 120.156 271.749 119.206C270.909 118.526 269.469 117.836 268.789 117.996L268.829 120.156Z" fill="url(#paint66_linear_31_862)"/>
<path d="M262.319 117.127L262.729 120.727C262.729 120.727 265.669 120.967 267.619 120.157L267.969 117.977C267.959 117.977 264.209 117.027 262.319 117.127Z" fill="url(#paint67_linear_31_862)"/>
<path d="M275.739 163.656C275.739 163.656 292.969 176.236 295.199 180.566C297.439 184.896 298.339 198.466 301.359 204.346C301.359 204.346 299.289 194.736 297.839 187.206C296.389 179.676 296.739 179.566 295.929 177.716C295.139 175.866 282.269 166.936 275.739 163.656Z" fill="#34C7FF"/>
<path d="M272.659 233.695C272.659 233.695 264.359 269.235 264.729 271.635C265.109 274.035 270.479 278.935 270.729 280.275C270.729 280.275 266.619 285.775 266.809 286.995C266.999 288.215 274.009 295.915 273.819 298.305C273.769 298.995 269.219 306.495 269.219 306.495C269.219 306.495 274.359 299.125 274.609 297.945C274.859 296.765 268.309 286.915 268.119 285.915C267.619 283.325 271.389 281.415 271.509 279.715C271.639 278.005 266.419 273.845 266.369 271.065C266.339 268.295 272.659 233.695 272.659 233.695Z" fill="#34C7FF"/>
<path d="M274.339 318.426C274.339 318.426 292.289 359.066 298.409 399.696C298.419 399.696 297.389 360.036 274.339 318.426Z" fill="#34C7FF"/>
<path d="M160.529 155.495C160.529 155.495 155.889 154.505 153.959 150.455C152.029 146.405 153.289 140.535 153.289 140.535C153.289 140.535 156.929 147.515 158.739 149.895C160.549 152.275 161.039 154.985 160.529 155.495Z" fill="#FFBCAF"/>
<path opacity="0.6" d="M303.839 134.307L307.059 226.107C307.189 229.747 310.179 232.637 313.819 232.637H471.949C475.619 232.637 478.619 229.707 478.709 226.037L480.919 133.167C481.009 129.347 477.929 126.217 474.109 126.237L310.549 127.307C306.749 127.337 303.709 130.497 303.839 134.307Z" fill="#36D1F7"/>
<path d="M471.949 232.877H313.819C310.019 232.877 306.939 229.907 306.809 226.107L303.589 134.307C303.519 132.397 304.209 130.587 305.539 129.207C306.859 127.827 308.639 127.057 310.559 127.047L474.129 125.977C476.029 125.987 477.839 126.707 479.179 128.077C480.519 129.447 481.239 131.247 481.189 133.157L478.979 226.027C478.869 229.877 475.789 232.877 471.949 232.877ZM474.169 126.487C474.159 126.487 474.139 126.487 474.129 126.487L310.559 127.557C308.779 127.567 307.129 128.277 305.899 129.557C304.669 130.837 304.029 132.517 304.089 134.297L307.309 226.097C307.429 229.627 310.289 232.387 313.819 232.387H471.949C475.459 232.387 478.379 229.537 478.459 226.027L480.669 133.157C480.709 131.377 480.049 129.707 478.799 128.437C477.579 127.177 475.929 126.487 474.169 126.487Z" fill="#744CA2"/>
<path opacity="0.6" d="M304.079 138.987H480.739L481.019 134.147C481.269 129.867 477.849 126.267 473.559 126.297L310.059 127.587C306.649 127.617 303.909 130.427 303.979 133.837L304.079 138.987Z" fill="url(#paint68_linear_31_862)"/>
<path opacity="0.3" d="M312.959 146.387V199.517H367.039V146.107L312.959 146.387Z" fill="url(#paint69_linear_31_862)"/>
<path opacity="0.3" d="M442.819 149.957H419.299V173.477H442.819V149.957Z" fill="url(#paint70_linear_31_862)"/>
<path opacity="0.3" d="M470.569 149.957H447.049V173.477H470.569V149.957Z" fill="url(#paint71_linear_31_862)"/>
<path opacity="0.3" d="M414.599 149.957H391.079V173.477H414.599V149.957Z" fill="url(#paint72_linear_31_862)"/>
<path d="M470.569 187.197H410.419V192.827H470.569V187.197Z" fill="#D1D4FB"/>
<path d="M470.569 195.766H395.369V197.506H470.569V195.766Z" fill="#D1D4FB"/>
<path d="M410.469 176.477H396.079V178.217H410.469V176.477Z" fill="#D1D4FB"/>
<path d="M438.249 176.477H423.859V178.217H438.249V176.477Z" fill="#D1D4FB"/>
<path d="M466.009 176.477H451.619V178.217H466.009V176.477Z" fill="#D1D4FB"/>
<path d="M415.269 198.596H391.079V200.336H415.269V198.596Z" fill="#D1D4FB"/>
<path d="M470.569 201.406H395.369V203.146H470.569V201.406Z" fill="#D1D4FB"/>
<path d="M470.569 204.207H391.079V205.947H470.569V204.207Z" fill="#D1D4FB"/>
<path d="M470.569 207.006H391.079V208.746H470.569V207.006Z" fill="#D1D4FB"/>
<path d="M470.569 218.326H395.369V220.066H470.569V218.326Z" fill="#D1D4FB"/>
<path d="M470.569 221.127H391.079V222.867H470.569V221.127Z" fill="#D1D4FB"/>
<path d="M470.569 223.926H391.079V225.666H470.569V223.926Z" fill="#D1D4FB"/>
<path d="M467.379 209.807H391.079V211.547H467.379V209.807Z" fill="#D1D4FB"/>
<path d="M470.569 212.607H395.369V214.347H470.569V212.607Z" fill="#D1D4FB"/>
<path d="M455.489 215.406H391.079V217.146H455.489V215.406Z" fill="#D1D4FB"/>
<path d="M328.109 188.856C319.629 188.856 312.729 181.956 312.729 173.476C312.729 164.996 319.629 158.096 328.109 158.096C336.589 158.096 343.489 164.996 343.489 173.476C343.489 181.956 336.589 188.856 328.109 188.856ZM328.109 159.096C320.179 159.096 313.729 165.546 313.729 173.476C313.729 181.406 320.179 187.856 328.109 187.856C336.039 187.856 342.489 181.406 342.489 173.476C342.489 165.546 336.039 159.096 328.109 159.096Z" fill="#E0FFFF"/>
<path d="M328.109 181.837C332.726 181.837 336.469 178.094 336.469 173.477C336.469 168.86 332.726 165.117 328.109 165.117C323.492 165.117 319.749 168.86 319.749 173.477C319.749 178.094 323.492 181.837 328.109 181.837Z" fill="white"/>
<path d="M367.039 161.497C358.559 161.497 351.659 154.597 351.659 146.117C351.659 137.637 358.559 130.737 367.039 130.737C375.519 130.737 382.419 137.637 382.419 146.117C382.419 154.597 375.519 161.497 367.039 161.497ZM367.039 131.727C359.109 131.727 352.659 138.177 352.659 146.107C352.659 154.037 359.109 160.487 367.039 160.487C374.969 160.487 381.419 154.037 381.419 146.107C381.419 138.177 374.969 131.727 367.039 131.727Z" fill="#E0FFFF"/>
<path d="M374.785 147.34C375.46 143.047 372.527 139.018 368.234 138.343C363.94 137.668 359.912 140.601 359.237 144.894C358.561 149.187 361.494 153.216 365.788 153.891C370.081 154.566 374.109 151.633 374.785 147.34Z" fill="white"/>
<path d="M310.269 131.777L311.389 130.067L317.469 135.397L316.539 136.697L310.269 131.777Z" fill="white"/>
<path d="M317.629 131.777L316.499 130.067L310.419 135.397L311.359 136.697L317.629 131.777Z" fill="white"/>
<path d="M476.469 131.227H422.029V133.957H476.469V131.227Z" fill="white"/>
<path d="M135.529 91.8166V115.437L163.789 115.677L164.169 91.0566L135.529 91.8166Z" fill="url(#paint73_linear_31_862)"/>
<path d="M164.169 91.0566L166.009 94.1666L165.089 115.657L163.789 115.677L164.169 91.0566Z" fill="url(#paint74_linear_31_862)"/>
<path d="M140.579 99.7859L143.189 96.0059L157.299 107.846L155.129 110.726L140.579 99.7859Z" fill="white"/>
<path d="M157.659 99.7859L155.049 96.0059L140.939 107.846L143.109 110.726L157.659 99.7859Z" fill="white"/>
<path opacity="0.81" d="M201.449 369.877H104.759C100.459 369.877 96.9389 366.437 96.8389 362.137L95.0289 282.827C94.9289 278.387 98.4989 274.727 102.949 274.727H203.619C208.079 274.727 211.659 278.407 211.539 282.867L209.359 362.177C209.249 366.457 205.739 369.877 201.449 369.877Z" fill="url(#paint75_linear_31_862)"/>
<path d="M201.449 370.127H104.759C100.359 370.127 96.689 366.547 96.589 362.147L94.779 282.837C94.729 280.617 95.559 278.527 97.109 276.937C98.659 275.357 100.729 274.477 102.949 274.477H203.619C205.839 274.477 207.919 275.357 209.469 276.947C211.019 278.537 211.839 280.647 211.779 282.867L209.599 362.177C209.499 366.637 205.909 370.127 201.449 370.127ZM102.959 274.977C100.879 274.977 98.929 275.797 97.479 277.287C96.019 278.777 95.249 280.747 95.299 282.827L97.109 362.137C97.199 366.267 100.639 369.627 104.779 369.627H201.469C205.649 369.627 209.019 366.347 209.139 362.167L211.319 282.857C211.379 280.767 210.609 278.797 209.149 277.297C207.689 275.797 205.739 274.977 203.649 274.977H102.959V274.977Z" fill="#473DA2"/>
<path d="M171.959 290.957H121.109V293.137H171.959V290.957Z" fill="white"/>
<path d="M146.529 296.246H121.109V298.426H146.529V296.246Z" fill="white"/>
<path d="M146.529 300.668H121.109V302.848H146.529V300.668Z" fill="white"/>
<path d="M169.609 300.668H149.379V302.848H169.609V300.668Z" fill="white"/>
<path d="M162.099 305.088H121.109V307.268H162.099V305.088Z" fill="white"/>
<path d="M135.699 309.508H121.109V311.688H135.699V309.508Z" fill="white"/>
<path d="M163.929 322.777H138.699V324.957H163.929V322.777Z" fill="white"/>
<path d="M166.839 313.938H121.109V316.117H166.839V313.938Z" fill="white"/>
<path d="M156.289 318.357H121.109V320.537H156.289V318.357Z" fill="white"/>
<path d="M137.659 322.777H121.109V324.957H137.659V322.777Z" fill="white"/>
<path d="M146.529 327.197H121.109V329.377H146.529V327.197Z" fill="white"/>
<path d="M128.399 331.617H121.109V333.797H128.399V331.617Z" fill="white"/>
<path d="M157.859 331.617H131.399V333.797H157.859V331.617Z" fill="white"/>
<path d="M163.929 335.906H138.699V338.086H163.929V335.906Z" fill="white"/>
<path d="M137.659 335.906H121.109V338.086H137.659V335.906Z" fill="white"/>
<path d="M146.529 340.326H121.109V342.506H146.529V340.326Z" fill="white"/>
<path d="M128.399 344.746H121.109V346.926H128.399V344.746Z" fill="white"/>
<path d="M157.859 344.746H131.399V346.926H157.859V344.746Z" fill="white"/>
<path d="M460.899 108.536C460.899 111.006 458.899 113.006 456.429 113.006C453.959 113.006 451.959 111.006 451.959 108.536C451.959 106.066 453.959 104.066 456.429 104.066C458.899 104.066 460.899 106.066 460.899 108.536Z" fill="url(#paint76_linear_31_862)"/>
<path d="M41.9989 212.165C41.9989 215.235 39.5089 217.725 36.4389 217.725C33.3689 217.725 30.8789 215.235 30.8789 212.165C30.8789 209.095 33.3689 206.605 36.4389 206.605C39.5089 206.605 41.9989 209.095 41.9989 212.165Z" fill="url(#paint77_linear_31_862)"/>
<path d="M181.389 142.416C183.134 142.416 184.549 141.001 184.549 139.256C184.549 137.51 183.134 136.096 181.389 136.096C179.644 136.096 178.229 137.51 178.229 139.256C178.229 141.001 179.644 142.416 181.389 142.416Z" fill="url(#paint78_linear_31_862)"/>
<path d="M393.039 281.857C394.784 281.857 396.199 280.442 396.199 278.697C396.199 276.952 394.784 275.537 393.039 275.537C391.294 275.537 389.879 276.952 389.879 278.697C389.879 280.442 391.294 281.857 393.039 281.857Z" fill="url(#paint79_linear_31_862)"/>
<path d="M64.5192 313.027C66.0767 313.027 67.3392 311.764 67.3392 310.207C67.3392 308.649 66.0767 307.387 64.5192 307.387C62.9618 307.387 61.6992 308.649 61.6992 310.207C61.6992 311.764 62.9618 313.027 64.5192 313.027Z" fill="url(#paint80_linear_31_862)"/>
<path opacity="0.73" d="M112.679 282.467H63.8789C59.9489 282.467 56.7289 279.357 56.5989 275.427L55.5189 243.327C55.3789 239.207 58.6789 235.797 62.7989 235.797H113.659C117.769 235.797 121.069 239.197 120.939 243.307L119.959 275.407C119.839 279.337 116.609 282.467 112.679 282.467Z" fill="url(#paint81_linear_31_862)"/>
<path d="M112.679 282.717H63.8791C59.7991 282.717 56.4891 279.517 56.3491 275.437L55.2691 243.337C55.1991 241.277 55.9491 239.327 57.3791 237.847C58.8091 236.367 60.7391 235.547 62.7991 235.547H113.659C115.719 235.547 117.639 236.357 119.069 237.837C120.499 239.317 121.259 241.257 121.189 243.317L120.209 275.417C120.079 279.507 116.769 282.717 112.679 282.717ZM62.7891 236.057C60.8691 236.057 59.0691 236.817 57.7291 238.197C56.3891 239.577 55.6891 241.397 55.7591 243.327L56.8391 275.427C56.9691 279.237 60.0591 282.227 63.8691 282.227H112.669C116.489 282.227 119.579 279.227 119.699 275.407L120.679 243.307C120.739 241.387 120.029 239.577 118.699 238.197C117.359 236.817 115.569 236.057 113.649 236.057H62.7891Z" fill="#953DA2"/>
<path d="M76.8894 247.336L64.8594 261.276L77.1094 271.676V266.316L70.0194 260.176L76.5994 252.736L76.8894 247.336Z" fill="white"/>
<path d="M98.039 247.957L110.069 261.907L97.819 272.307V266.937L104.899 260.807L97.019 252.457L98.039 247.957Z" fill="white"/>
<path d="M79.5093 271.676L89.9893 248.586H94.9193L83.0493 271.676H79.5093Z" fill="white"/>
<path opacity="0.73" d="M441.009 348.516H379.959C375.049 348.516 371.019 344.626 370.849 339.716L369.489 299.566C369.319 294.416 373.439 290.146 378.599 290.146H442.229C447.369 290.146 451.489 294.396 451.339 299.536L450.109 339.686C449.959 344.606 445.929 348.516 441.009 348.516Z" fill="#DAF2FF"/>
<path d="M440.999 348.766H379.949C374.869 348.766 370.769 344.796 370.589 339.726L369.229 299.576C369.139 297.016 370.079 294.596 371.859 292.756C373.639 290.916 376.029 289.906 378.589 289.906H442.219C444.769 289.906 447.159 290.916 448.939 292.746C450.719 294.576 451.659 296.996 451.579 299.546L450.349 339.696C450.209 344.776 446.099 348.766 440.999 348.766ZM378.599 290.386C376.179 290.386 373.909 291.346 372.229 293.086C370.549 294.826 369.659 297.126 369.739 299.546L371.099 339.696C371.259 344.496 375.149 348.256 379.959 348.256H441.009C445.829 348.256 449.719 344.486 449.869 339.666L451.099 299.516C451.169 297.096 450.289 294.806 448.599 293.076C446.919 291.336 444.659 290.386 442.239 290.386H378.599V290.386Z" fill="#DAF2FF"/>
<path d="M437.639 296.605H381.729V329.815H437.639V296.605Z" fill="#D1D4FB"/>
<path d="M404.729 304.846V321.566L419.019 312.446L404.729 304.846Z" fill="white"/>
<path d="M437.639 335.926H381.729V338.966H437.639V335.926Z" fill="#D1D4FB"/>
<path d="M396.199 335.926H381.729V338.966H396.199V335.926Z" fill="white"/>
<path fill-rule="evenodd" clip-rule="evenodd" d="M340.769 286.105L337.849 294.455C339.459 289.845 341.779 286.845 340.769 286.105ZM337.849 294.455L334.929 302.805C335.659 302.585 336.229 299.065 337.849 294.455ZM340.769 286.105L337.849 294.455C339.459 289.845 341.779 286.845 340.769 286.105ZM337.849 294.455L334.929 302.805C335.659 302.585 336.229 299.065 337.849 294.455ZM346.269 301.685L349.099 303.295L352.159 294.945L348.879 294.395C348.939 294.085 348.999 293.775 349.039 293.465C349.279 292.035 349.359 290.635 349.319 289.305L352.749 287.155L351.189 279.795L347.899 282.935C347.439 281.995 346.879 281.175 346.219 280.485C346.039 280.285 345.849 280.105 345.649 279.935L347.659 275.295L342.309 273.555L341.029 278.235C339.829 278.235 338.619 278.535 337.409 279.085L336.819 274.665L330.929 279.125L332.289 283.045C331.229 284.255 330.259 285.655 329.419 287.225L326.579 285.625L323.519 293.975L326.799 294.525C326.449 296.285 326.319 297.995 326.369 299.615L322.939 301.765L324.499 309.125L327.789 305.985C328.379 307.185 329.129 308.205 330.039 308.985L328.029 313.635L333.289 315.685L334.099 312.725L334.649 310.705C335.849 310.705 337.069 310.405 338.279 309.865L338.859 314.285L344.749 309.825L343.389 305.905C344.219 304.955 344.999 303.885 345.709 302.705C345.909 302.355 346.089 302.025 346.269 301.685ZM337.849 294.455C336.229 299.065 337.849 303.825 334.929 302.805C331.999 301.775 330.929 297.205 332.549 292.605C334.169 287.995 337.849 285.095 340.769 286.115C343.699 287.135 339.459 289.845 337.849 294.455ZM340.769 286.105L337.849 294.455C339.459 289.845 341.779 286.845 340.769 286.105ZM337.849 294.455L334.929 302.805C335.659 302.585 336.229 299.065 337.849 294.455Z" fill="url(#paint82_linear_31_862)"/>
<path fill-rule="evenodd" clip-rule="evenodd" d="M349.109 303.295L352.169 294.945L349.049 293.465L348.549 293.225L348.879 288.625L352.339 286.935L351.199 279.795L343.649 277.335L345.039 280.645L347.669 275.285L342.319 273.545L340.119 272.825L334.849 270.775L333.869 274.375L329.279 272.195L323.389 276.655L325.179 281.475L319.669 296.735L316.949 306.645L322.179 307.215L320.479 311.145L325.749 313.195L333.289 315.655L332.079 313.235L331.319 311.785L334.109 312.695L338.869 314.245L344.759 309.785L341.119 305.495L345.719 302.665L349.109 303.295ZM332.539 292.605C334.159 287.995 337.839 285.095 340.759 286.115L337.839 294.465L334.919 302.815C331.999 301.775 330.929 297.205 332.539 292.605Z" fill="url(#paint83_linear_31_862)"/>
<path fill-rule="evenodd" clip-rule="evenodd" d="M341.569 300.835L344.629 292.485L341.349 291.935C341.699 290.175 341.829 288.465 341.789 286.855L345.219 284.705L343.659 277.345L340.369 280.485C339.789 279.285 339.029 278.265 338.119 277.485L340.129 272.845L334.859 270.795L333.499 275.785C332.309 275.795 331.079 276.085 329.879 276.625L329.299 272.205L323.409 276.655L324.769 280.575C323.709 281.785 322.739 283.195 321.899 284.765L319.059 283.165L315.999 291.515L319.279 292.065C318.929 293.825 318.799 295.535 318.839 297.145L315.409 299.295L316.969 306.655L320.259 303.515C320.839 304.715 321.599 305.735 322.509 306.515L320.479 311.155L325.749 313.205L327.109 308.215C328.309 308.205 329.529 307.915 330.729 307.375L331.309 311.795L337.199 307.345L335.839 303.425C336.899 302.215 337.869 300.805 338.709 299.235L341.569 300.835ZM327.379 300.345C324.449 299.315 323.389 294.755 324.999 290.145C326.609 285.535 330.299 282.635 333.229 283.655C336.159 284.685 337.219 289.245 335.609 293.855C333.989 298.465 330.309 301.365 327.379 300.345Z" fill="url(#paint84_linear_31_862)"/>
<path opacity="0.5" fill-rule="evenodd" clip-rule="evenodd" d="M352.749 287.155L345.209 284.695L341.779 286.845L349.329 289.305L352.749 287.155Z" fill="#601734"/>
<path fill-rule="evenodd" clip-rule="evenodd" d="M344.759 309.796L337.209 307.336L335.849 303.416L343.399 305.876L344.759 309.796Z" fill="#B3D9FF"/>
<path opacity="0.5" fill-rule="evenodd" clip-rule="evenodd" d="M338.109 277.486L342.249 278.676L343.649 277.336L346.389 278.236L347.669 275.296L340.119 272.836L338.109 277.486Z" fill="#601734"/>
<path opacity="0.5" fill-rule="evenodd" clip-rule="evenodd" d="M327.119 308.225L331.069 309.865L330.739 307.375C330.739 307.375 328.609 308.495 327.119 308.225Z" fill="#601734"/>
<path opacity="0.5" fill-rule="evenodd" clip-rule="evenodd" d="M327.729 285.595L334.379 289.115C334.379 289.115 335.339 287.825 336.089 287.305C336.089 287.305 334.359 279.965 327.729 285.595Z" fill="#601734"/>
<path d="M30.519 335.996L36.459 342.516L38.789 339.826L33.179 333.656L30.519 335.996Z" fill="#6877FF"/>
<path d="M332.299 115.066L326.319 118.686L323.919 114.146L330.459 110.326L332.299 115.066Z" fill="#4F31E0"/>
<path d="M361.739 344.777L353.169 350.867L350.779 346.317L359.099 341.457L361.739 344.777Z" fill="#4F31E0"/>
<path fill-rule="evenodd" clip-rule="evenodd" d="M350.419 83.9859L348.969 50.3359H393.039L391.229 83.8959L350.419 83.9859Z" fill="url(#paint85_linear_31_862)"/>
<path fill-rule="evenodd" clip-rule="evenodd" d="M348.969 50.3359L347.649 52.3159L348.969 83.9859H350.419L348.969 50.3359Z" fill="url(#paint86_linear_31_862)"/>
<path d="M363.609 57.0564L356.689 56.3164L357.639 79.3764L363.609 78.7864V76.4064L360.149 76.4864L359.749 58.6964L363.609 58.8064V57.0564Z" fill="white"/>
<path d="M377.769 57.0564L384.679 56.3164L383.739 79.3764L377.769 78.7864V76.4064L381.229 76.4864L381.619 58.6964L377.769 58.8064V57.0564Z" fill="white"/>
<path fill-rule="evenodd" clip-rule="evenodd" d="M46.539 157.677L47.519 134.727H17.479L18.719 157.607L46.539 157.677Z" fill="url(#paint87_linear_31_862)"/>
<path fill-rule="evenodd" clip-rule="evenodd" d="M47.5191 134.727L48.4191 136.087L47.5191 157.677H46.5391L47.5191 134.727Z" fill="url(#paint88_linear_31_862)"/>
<path d="M35.9489 139.346C35.9489 139.346 39.2389 139.216 39.8289 139.486C40.4089 139.756 39.6789 145.126 39.6789 145.126L40.9889 146.336L39.7589 147.526C39.7589 147.526 39.8189 152.966 39.0489 153.416C38.2689 153.866 35.6289 153.416 35.6289 153.416V152.056C35.6289 152.056 37.7889 152.196 38.1489 151.906C38.5089 151.616 38.4689 146.866 38.4689 146.866L39.0489 146.226L38.4689 145.536C38.4689 145.536 38.5789 142.146 38.5089 141.216C38.4689 140.596 35.9489 140.566 35.9489 140.566V139.346Z" fill="white"/>
<path d="M28.3989 139.346C28.3989 139.346 25.1089 139.216 24.5189 139.486C23.9289 139.756 24.6689 145.126 24.6689 145.126L23.3589 146.336L24.5889 147.526C24.5889 147.526 24.5289 152.966 25.2989 153.416C26.0689 153.866 28.7189 153.416 28.7189 153.416V152.056C28.7189 152.056 26.5589 152.196 26.1989 151.906C25.8389 151.616 25.8789 146.866 25.8789 146.866L25.2989 146.226L25.8789 145.536C25.8789 145.536 25.7689 142.146 25.8389 141.216C25.8789 140.596 28.3989 140.566 28.3989 140.566V139.346V139.346Z" fill="white"/>
<path d="M300.039 87.0259L292.679 67.7559L311.769 71.7459L300.039 87.0259ZM293.469 68.4359L300.189 86.0159L310.889 72.0759L293.469 68.4359Z" fill="#744CA2"/>
<path d="M358.866 351.107L352.398 359.93L352.801 360.225L359.269 351.402L358.866 351.107Z" fill="#744CA2"/>
<path d="M292.099 278.856L285.149 270.206L285.539 269.896L292.489 278.536L292.099 278.856Z" fill="#744CA2"/>
<path d="M77.7689 339.575L63.8989 329.515L64.1989 329.105L78.0589 339.165L77.7689 339.575Z" fill="#744CA2"/>
<path d="M75.9833 327.387L65.6025 341.014L66.0003 341.317L76.3811 327.69L75.9833 327.387Z" fill="#744CA2"/>
<path d="M46.6427 186.907L46.4102 187.35L55.3861 192.066L55.6186 191.623L46.6427 186.907Z" fill="#744CA2"/>
<path d="M400.229 71.0662L399.859 70.7363L410.229 58.9062L410.609 59.2362L400.229 71.0662Z" fill="#744CA2"/>
<path d="M198.77 99.6757L198.323 99.8984L202.959 109.219L203.407 108.996L198.77 99.6757Z" fill="#744CA2"/>
<path d="M136.871 256.498L124.952 266.469L125.272 266.852L137.192 256.882L136.871 256.498Z" fill="#744CA2"/>
<defs>
<linearGradient id="paint0_linear_31_862" x1="120.316" y1="243.576" x2="90.1816" y2="179.079" gradientUnits="userSpaceOnUse">
<stop stop-color="#DBCCFF"/>
<stop offset="1" stop-color="#D1BBFF"/>
</linearGradient>
<linearGradient id="paint1_linear_31_862" x1="121.488" y1="246.094" x2="91.3537" y2="181.596" gradientUnits="userSpaceOnUse">
<stop stop-color="#B5A6E7"/>
<stop offset="1" stop-color="#7760BF"/>
</linearGradient>
<linearGradient id="paint2_linear_31_862" x1="113.996" y1="230.059" x2="101.294" y2="202.873" gradientUnits="userSpaceOnUse">
<stop stop-color="#B5A6E7"/>
<stop offset="1" stop-color="#7760BF"/>
</linearGradient>
<linearGradient id="paint3_linear_31_862" x1="97.6899" y1="205.219" x2="105.406" y2="201.613" gradientUnits="userSpaceOnUse">
<stop stop-color="#8B8BE0"/>
<stop offset="1" stop-color="#A177B7"/>
</linearGradient>
<linearGradient id="paint4_linear_31_862" x1="102.385" y1="205.207" x2="100.203" y2="200.536" gradientUnits="userSpaceOnUse">
<stop stop-color="white"/>
<stop offset="1" stop-color="#A177B7"/>
</linearGradient>
<linearGradient id="paint5_linear_31_862" x1="119.373" y1="230.927" x2="105.37" y2="200.956" gradientUnits="userSpaceOnUse">
<stop/>
<stop offset="1" stop-color="white"/>
</linearGradient>
<linearGradient id="paint6_linear_31_862" x1="232.482" y1="399.694" x2="232.482" y2="310.484" gradientUnits="userSpaceOnUse">
<stop stop-color="#6456C0"/>
<stop offset="1" stop-color="#5F2C95"/>
</linearGradient>
<linearGradient id="paint7_linear_31_862" x1="203.61" y1="368.374" x2="227.008" y2="368.374" gradientUnits="userSpaceOnUse">
<stop stop-color="#9E8CEF"/>
<stop offset="1" stop-color="#CAAFEE"/>
</linearGradient>
<linearGradient id="paint8_linear_31_862" x1="258.285" y1="368.376" x2="234.886" y2="368.376" gradientUnits="userSpaceOnUse">
<stop stop-color="#9E8CEF"/>
<stop offset="1" stop-color="#CAAFEE"/>
</linearGradient>
<linearGradient id="paint9_linear_31_862" x1="229.343" y1="399.694" x2="229.343" y2="310.484" gradientUnits="userSpaceOnUse">
<stop stop-color="#CCCCFF"/>
<stop offset="1" stop-color="#755CBB"/>
</linearGradient>
<linearGradient id="paint10_linear_31_862" x1="239.728" y1="355.088" x2="239.728" y2="330.756" gradientUnits="userSpaceOnUse">
<stop stop-color="#CCCCFF"/>
<stop offset="1" stop-color="#755CBB"/>
</linearGradient>
<linearGradient id="paint11_linear_31_862" x1="211.546" y1="346.142" x2="211.546" y2="322.303" gradientUnits="userSpaceOnUse">
<stop stop-color="#CCCCFF"/>
<stop offset="1" stop-color="#755CBB"/>
</linearGradient>
<linearGradient id="paint12_linear_31_862" x1="235.725" y1="176.142" x2="235.725" y2="140.532" gradientUnits="userSpaceOnUse">
<stop stop-color="#D5CDF8"/>
<stop offset="1" stop-color="#F3EDFB"/>
</linearGradient>
<linearGradient id="paint13_linear_31_862" x1="217.393" y1="158.302" x2="254.057" y2="158.302" gradientUnits="userSpaceOnUse">
<stop stop-color="#CCCCFF"/>
<stop offset="1" stop-color="#755CBB"/>
</linearGradient>
<linearGradient id="paint14_linear_31_862" x1="225.241" y1="318.423" x2="225.241" y2="138.984" gradientUnits="userSpaceOnUse">
<stop stop-color="#3FAEFF"/>
<stop offset="1" stop-color="#C6EBF0"/>
</linearGradient>
<linearGradient id="paint15_linear_31_862" x1="150.773" y1="206.608" x2="194.473" y2="206.608" gradientUnits="userSpaceOnUse">
<stop stop-color="#CCCCFF"/>
<stop offset="1" stop-color="#755CBB"/>
</linearGradient>
<linearGradient id="paint16_linear_31_862" x1="149.421" y1="256.862" x2="149.421" y2="172.952" gradientUnits="userSpaceOnUse">
<stop stop-color="#9E8CEF"/>
<stop offset="1" stop-color="#DAC7F3"/>
</linearGradient>
<linearGradient id="paint17_linear_31_862" x1="293.712" y1="232.68" x2="350.018" y2="232.68" gradientUnits="userSpaceOnUse">
<stop stop-color="#A999F1"/>
<stop offset="1" stop-color="#DAC7F3"/>
</linearGradient>
<linearGradient id="paint18_linear_31_862" x1="131.106" y1="161.512" x2="131.106" y2="139.387" gradientUnits="userSpaceOnUse">
<stop offset="0.016" stop-color="#FFC2A9"/>
<stop offset="1" stop-color="#FF9595"/>
</linearGradient>
<linearGradient id="paint19_linear_31_862" x1="145.038" y1="160.987" x2="145.038" y2="124.364" gradientUnits="userSpaceOnUse">
<stop stop-color="#FFEADB"/>
<stop offset="0.9944" stop-color="#C27CB6"/>
</linearGradient>
<linearGradient id="paint20_linear_31_862" x1="143.849" y1="185.903" x2="143.849" y2="129.443" gradientUnits="userSpaceOnUse">
<stop offset="0.016" stop-color="#FFC2A9"/>
<stop offset="1" stop-color="#FF9595"/>
</linearGradient>
<linearGradient id="paint21_linear_31_862" x1="133.753" y1="177.092" x2="151.505" y2="177.092" gradientUnits="userSpaceOnUse">
<stop offset="0.016" stop-color="#D1A1D6"/>
<stop offset="0.9944" stop-color="#BD89C4"/>
</linearGradient>
<linearGradient id="paint22_linear_31_862" x1="351.179" y1="220.293" x2="351.179" y2="144.792" gradientUnits="userSpaceOnUse">
<stop offset="0.016" stop-color="#FFC2A9"/>
<stop offset="1" stop-color="#FF9595"/>
</linearGradient>
<linearGradient id="paint23_linear_31_862" x1="360.099" y1="196.103" x2="360.099" y2="158.593" gradientUnits="userSpaceOnUse">
<stop stop-color="#FFEADB"/>
<stop offset="0.9944" stop-color="#C27CB6"/>
</linearGradient>
<linearGradient id="paint24_linear_31_862" x1="367.498" y1="183.157" x2="367.498" y2="166.342" gradientUnits="userSpaceOnUse">
<stop stop-color="#FFB0B0"/>
<stop offset="0.984" stop-color="#FFC2A9"/>
</linearGradient>
<linearGradient id="paint25_linear_31_862" x1="377.251" y1="185.745" x2="377.251" y2="176.524" gradientUnits="userSpaceOnUse">
<stop stop-color="#FFB0B0"/>
<stop offset="0.984" stop-color="#FFC2A9"/>
</linearGradient>
<linearGradient id="paint26_linear_31_862" x1="337.813" y1="204.125" x2="354.963" y2="204.125" gradientUnits="userSpaceOnUse">
<stop offset="0.016" stop-color="#D1A1D6"/>
<stop offset="0.9944" stop-color="#BD89C4"/>
</linearGradient>
<linearGradient id="paint27_linear_31_862" x1="313.945" y1="263.315" x2="313.945" y2="178.804" gradientUnits="userSpaceOnUse">
<stop stop-color="#CCCCFF"/>
<stop offset="1" stop-color="#755CBB"/>
</linearGradient>
<linearGradient id="paint28_linear_31_862" x1="127.873" y1="246.288" x2="269.223" y2="246.288" gradientUnits="userSpaceOnUse">
<stop stop-color="#CCCCFF"/>
<stop offset="1" stop-color="#755CBB"/>
</linearGradient>
<linearGradient id="paint29_linear_31_862" x1="252.488" y1="222.635" x2="279.506" y2="222.635" gradientUnits="userSpaceOnUse">
<stop stop-color="#CCEDFF"/>
<stop offset="1" stop-color="#755CBB"/>
</linearGradient>
<linearGradient id="paint30_linear_31_862" x1="227.983" y1="270.052" x2="267.689" y2="270.052" gradientUnits="userSpaceOnUse">
<stop stop-color="#CCEDFF"/>
<stop offset="1" stop-color="#755CBB"/>
</linearGradient>
<linearGradient id="paint31_linear_31_862" x1="229.821" y1="288.004" x2="272.243" y2="288.004" gradientUnits="userSpaceOnUse">
<stop stop-color="#CCEDFF"/>
<stop offset="1" stop-color="#755CBB"/>
</linearGradient>
<linearGradient id="paint32_linear_31_862" x1="193.313" y1="243.553" x2="193.313" y2="195.943" gradientUnits="userSpaceOnUse">
<stop stop-color="#CCEDFF"/>
<stop offset="1" stop-color="#755CBB"/>
</linearGradient>
<linearGradient id="paint33_linear_31_862" x1="197.146" y1="247.554" x2="197.146" y2="211.464" gradientUnits="userSpaceOnUse">
<stop stop-color="#CCEDFF"/>
<stop offset="1" stop-color="#755CBB"/>
</linearGradient>
<linearGradient id="paint34_linear_31_862" x1="140.108" y1="201.421" x2="140.108" y2="174.154" gradientUnits="userSpaceOnUse">
<stop stop-color="#CCEDFF"/>
<stop offset="1" stop-color="#755CBB"/>
</linearGradient>
<linearGradient id="paint35_linear_31_862" x1="162.172" y1="177.408" x2="173.161" y2="177.408" gradientUnits="userSpaceOnUse">
<stop stop-color="#CCEDFF"/>
<stop offset="1" stop-color="#755CBB"/>
</linearGradient>
<linearGradient id="paint36_linear_31_862" x1="281.63" y1="243.553" x2="281.63" y2="193.013" gradientUnits="userSpaceOnUse">
<stop stop-color="#CCCCFF"/>
<stop offset="1" stop-color="#755CBB"/>
</linearGradient>
<linearGradient id="paint37_linear_31_862" x1="338.45" y1="232.683" x2="338.45" y2="206.273" gradientUnits="userSpaceOnUse">
<stop stop-color="#CCCCFF"/>
<stop offset="1" stop-color="#755CBB"/>
</linearGradient>
<linearGradient id="paint38_linear_31_862" x1="308.498" y1="231.504" x2="308.498" y2="211.314" gradientUnits="userSpaceOnUse">
<stop stop-color="#CCCCFF"/>
<stop offset="1" stop-color="#755CBB"/>
</linearGradient>
<linearGradient id="paint39_linear_31_862" x1="134.4" y1="203.161" x2="134.4" y2="195.663" gradientUnits="userSpaceOnUse">
<stop stop-color="#CCEDFF"/>
<stop offset="1" stop-color="#755CBB"/>
</linearGradient>
<linearGradient id="paint40_linear_31_862" x1="154.429" y1="226.019" x2="154.429" y2="185.042" gradientUnits="userSpaceOnUse">
<stop stop-color="#CCCCFF"/>
<stop offset="1" stop-color="#755CBB"/>
</linearGradient>
<linearGradient id="paint41_linear_31_862" x1="259.852" y1="197.177" x2="259.852" y2="166.341" gradientUnits="userSpaceOnUse">
<stop stop-color="#CCEDFF"/>
<stop offset="1" stop-color="#755CBB"/>
</linearGradient>
<linearGradient id="paint42_linear_31_862" x1="219.454" y1="193.008" x2="219.454" y2="150.449" gradientUnits="userSpaceOnUse">
<stop stop-color="#CCEDFF"/>
<stop offset="1" stop-color="#755CBB"/>
</linearGradient>
<linearGradient id="paint43_linear_31_862" x1="205.084" y1="200.792" x2="276.168" y2="200.792" gradientUnits="userSpaceOnUse">
<stop stop-color="#8642A0"/>
<stop offset="1" stop-color="#6456C0"/>
</linearGradient>
<linearGradient id="paint44_linear_31_862" x1="211.212" y1="159.774" x2="257.472" y2="159.774" gradientUnits="userSpaceOnUse">
<stop stop-color="#CCCCFF"/>
<stop offset="1" stop-color="#755CBB"/>
</linearGradient>
<linearGradient id="paint45_linear_31_862" x1="330.134" y1="229.673" x2="330.134" y2="202.901" gradientUnits="userSpaceOnUse">
<stop stop-color="#CCCCFF"/>
<stop offset="1" stop-color="#755CBB"/>
</linearGradient>
<linearGradient id="paint46_linear_31_862" x1="292.293" y1="259.874" x2="292.293" y2="178.804" gradientUnits="userSpaceOnUse">
<stop stop-color="#CCCCFF"/>
<stop offset="1" stop-color="#755CBB"/>
</linearGradient>
<linearGradient id="paint47_linear_31_862" x1="205.133" y1="297.952" x2="205.133" y2="274.712" gradientUnits="userSpaceOnUse">
<stop stop-color="#CCCCFF"/>
<stop offset="1" stop-color="#755CBB"/>
</linearGradient>
<linearGradient id="paint48_linear_31_862" x1="250.277" y1="291.569" x2="250.277" y2="280.282" gradientUnits="userSpaceOnUse">
<stop stop-color="#CCCCFF"/>
<stop offset="1" stop-color="#755CBB"/>
</linearGradient>
<linearGradient id="paint49_linear_31_862" x1="249.78" y1="146.505" x2="249.78" y2="69.2978" gradientUnits="userSpaceOnUse">
<stop offset="0.016" stop-color="#FFC2A9"/>
<stop offset="1" stop-color="#FF9595"/>
</linearGradient>
<linearGradient id="paint50_linear_31_862" x1="220.998" y1="115.35" x2="220.998" y2="92.5877" gradientUnits="userSpaceOnUse">
<stop offset="0.016" stop-color="#FFC2A9"/>
<stop offset="1" stop-color="#FF9595"/>
</linearGradient>
<linearGradient id="paint51_linear_31_862" x1="260.511" y1="123.957" x2="261.466" y2="118.988" gradientUnits="userSpaceOnUse">
<stop stop-color="#E1616A"/>
<stop offset="1" stop-color="#FF8883"/>
</linearGradient>
<linearGradient id="paint52_linear_31_862" x1="251.896" y1="120.156" x2="251.896" y2="70.4194" gradientUnits="userSpaceOnUse">
<stop stop-color="#FFEADB"/>
<stop offset="0.9944" stop-color="#C27CB6"/>
</linearGradient>
<linearGradient id="paint53_linear_31_862" x1="249.472" y1="99.7878" x2="249.472" y2="89.9352" gradientUnits="userSpaceOnUse">
<stop stop-color="#CF6074"/>
<stop offset="1" stop-color="#F37270"/>
</linearGradient>
<linearGradient id="paint54_linear_31_862" x1="269.124" y1="102.914" x2="269.124" y2="94.3404" gradientUnits="userSpaceOnUse">
<stop stop-color="#CF6074"/>
<stop offset="1" stop-color="#FF817F"/>
</linearGradient>
<linearGradient id="paint55_linear_31_862" x1="269.931" y1="107.904" x2="269.931" y2="88.6105" gradientUnits="userSpaceOnUse">
<stop stop-color="#FFEADB"/>
<stop offset="0.9944" stop-color="#C27CB6"/>
</linearGradient>
<linearGradient id="paint56_linear_31_862" x1="250.816" y1="147.476" x2="250.816" y2="53.843" gradientUnits="userSpaceOnUse">
<stop stop-color="#2E33A0"/>
<stop offset="1" stop-color="#0665A5"/>
</linearGradient>
<linearGradient id="paint57_linear_31_862" x1="275.409" y1="88.5133" x2="275.409" y2="66.9133" gradientUnits="userSpaceOnUse">
<stop stop-color="#FFEADB"/>
<stop offset="0.9944" stop-color="#8860C7"/>
</linearGradient>
<linearGradient id="paint58_linear_31_862" x1="245.975" y1="147.476" x2="245.975" y2="53.843" gradientUnits="userSpaceOnUse">
<stop stop-color="#CCC2DB"/>
<stop offset="0.9944" stop-color="#8860C7"/>
</linearGradient>
<linearGradient id="paint59_linear_31_862" x1="252.253" y1="147.453" x2="252.253" y2="143.431" gradientUnits="userSpaceOnUse">
<stop stop-color="#776D7E"/>
<stop offset="1" stop-color="#9D68C2"/>
</linearGradient>
<linearGradient id="paint60_linear_31_862" x1="264.056" y1="60.5639" x2="264.056" y2="57.5752" gradientUnits="userSpaceOnUse">
<stop stop-color="#1F77D1"/>
<stop offset="1" stop-color="#0686C9"/>
</linearGradient>
<linearGradient id="paint61_linear_31_862" x1="245.016" y1="70.4031" x2="245.016" y2="61.5664" gradientUnits="userSpaceOnUse">
<stop stop-color="#1F77D1"/>
<stop offset="1" stop-color="#0686C9"/>
</linearGradient>
<linearGradient id="paint62_linear_31_862" x1="277.038" y1="74.8833" x2="277.038" y2="66.9133" gradientUnits="userSpaceOnUse">
<stop stop-color="#1F77D1"/>
<stop offset="1" stop-color="#0686C9"/>
</linearGradient>
<linearGradient id="paint63_linear_31_862" x1="224.313" y1="109.955" x2="214.118" y2="97.4642" gradientUnits="userSpaceOnUse">
<stop stop-color="#FFEADB"/>
<stop offset="0.9944" stop-color="#B060F4"/>
</linearGradient>
<linearGradient id="paint64_linear_31_862" x1="225.38" y1="108.346" x2="220.364" y2="102.2" gradientUnits="userSpaceOnUse">
<stop stop-color="#FFEADB"/>
<stop offset="0.9944" stop-color="#B060F4"/>
</linearGradient>
<linearGradient id="paint65_linear_31_862" x1="244.426" y1="71.1931" x2="261.693" y2="71.1931" gradientUnits="userSpaceOnUse">
<stop stop-color="#1F77D1"/>
<stop offset="1" stop-color="#0686C9"/>
</linearGradient>
<linearGradient id="paint66_linear_31_862" x1="268.78" y1="122.832" x2="274.017" y2="122.832" gradientUnits="userSpaceOnUse">
<stop stop-color="#1F77D1"/>
<stop offset="1" stop-color="#0686C9"/>
</linearGradient>
<linearGradient id="paint67_linear_31_862" x1="262.314" y1="118.938" x2="267.963" y2="118.938" gradientUnits="userSpaceOnUse">
<stop stop-color="#1F77D1"/>
<stop offset="1" stop-color="#0686C9"/>
</linearGradient>
<linearGradient id="paint68_linear_31_862" x1="303.978" y1="132.641" x2="481.037" y2="132.641" gradientUnits="userSpaceOnUse">
<stop stop-color="#9D68C2"/>
<stop offset="1" stop-color="#AEC2FF"/>
</linearGradient>
<linearGradient id="paint69_linear_31_862" x1="339.996" y1="199.514" x2="339.996" y2="146.112" gradientUnits="userSpaceOnUse">
<stop stop-color="#CCEDFF"/>
<stop offset="1" stop-color="#9D68C2"/>
</linearGradient>
<linearGradient id="paint70_linear_31_862" x1="431.055" y1="173.478" x2="431.055" y2="149.955" gradientUnits="userSpaceOnUse">
<stop stop-color="#CCEDFF"/>
<stop offset="1" stop-color="#9D68C2"/>
</linearGradient>
<linearGradient id="paint71_linear_31_862" x1="458.809" y1="173.478" x2="458.809" y2="149.955" gradientUnits="userSpaceOnUse">
<stop stop-color="#CCEDFF"/>
<stop offset="1" stop-color="#9D68C2"/>
</linearGradient>
<linearGradient id="paint72_linear_31_862" x1="402.838" y1="173.478" x2="402.838" y2="149.955" gradientUnits="userSpaceOnUse">
<stop stop-color="#CCEDFF"/>
<stop offset="1" stop-color="#9D68C2"/>
</linearGradient>
<linearGradient id="paint73_linear_31_862" x1="149.85" y1="115.681" x2="149.85" y2="91.0593" gradientUnits="userSpaceOnUse">
<stop stop-color="#D93DE3"/>
<stop offset="1" stop-color="#FF6DBA"/>
</linearGradient>
<linearGradient id="paint74_linear_31_862" x1="164.9" y1="115.681" x2="164.9" y2="91.0593" gradientUnits="userSpaceOnUse">
<stop stop-color="#A242EA"/>
<stop offset="1" stop-color="#FE117E"/>
</linearGradient>
<linearGradient id="paint75_linear_31_862" x1="145.578" y1="375.064" x2="158.893" y2="269.05" gradientUnits="userSpaceOnUse">
<stop stop-color="#067EFF"/>
<stop offset="1" stop-color="#3E37A0"/>
</linearGradient>
<linearGradient id="paint76_linear_31_862" x1="456.431" y1="113.002" x2="456.431" y2="104.065" gradientUnits="userSpaceOnUse">
<stop stop-color="#459FFF"/>
<stop offset="1" stop-color="#A96DFF"/>
</linearGradient>
<linearGradient id="paint77_linear_31_862" x1="36.4381" y1="217.731" x2="36.4381" y2="206.608" gradientUnits="userSpaceOnUse">
<stop stop-color="#459FFF"/>
<stop offset="1" stop-color="#A96DFF"/>
</linearGradient>
<linearGradient id="paint78_linear_31_862" x1="181.386" y1="142.419" x2="181.386" y2="136.099" gradientUnits="userSpaceOnUse">
<stop stop-color="#B31A8F"/>
<stop offset="1" stop-color="#FE117E"/>
</linearGradient>
<linearGradient id="paint79_linear_31_862" x1="393.042" y1="281.858" x2="393.042" y2="275.538" gradientUnits="userSpaceOnUse">
<stop stop-color="#8642A0"/>
<stop offset="1" stop-color="#6456C0"/>
</linearGradient>
<linearGradient id="paint80_linear_31_862" x1="64.521" y1="313.027" x2="64.521" y2="307.377" gradientUnits="userSpaceOnUse">
<stop stop-color="#8642A0"/>
<stop offset="1" stop-color="#6456C0"/>
</linearGradient>
<linearGradient id="paint81_linear_31_862" x1="88.2255" y1="282.466" x2="88.2255" y2="235.803" gradientUnits="userSpaceOnUse">
<stop stop-color="#D906E3"/>
<stop offset="1" stop-color="#FF6DF9"/>
</linearGradient>
<linearGradient id="paint82_linear_31_862" x1="334.675" y1="315.871" x2="340.972" y2="273.356" gradientUnits="userSpaceOnUse">
<stop stop-color="#1852A0"/>
<stop offset="1" stop-color="#067ED3"/>
</linearGradient>
<linearGradient id="paint83_linear_31_862" x1="329.977" y1="314.774" x2="341.351" y2="272.535" gradientUnits="userSpaceOnUse">
<stop stop-color="#1852A0"/>
<stop offset="1" stop-color="#067ED3"/>
</linearGradient>
<linearGradient id="paint84_linear_31_862" x1="324.636" y1="313.032" x2="331.35" y2="270.235" gradientUnits="userSpaceOnUse">
<stop stop-color="#188DC1"/>
<stop offset="1" stop-color="#06BFE7"/>
</linearGradient>
<linearGradient id="paint85_linear_31_862" x1="364.533" y1="87.7907" x2="375.865" y2="45.7074" gradientUnits="userSpaceOnUse">
<stop stop-color="#188DC1"/>
<stop offset="1" stop-color="#06BFE7"/>
</linearGradient>
<linearGradient id="paint86_linear_31_862" x1="345.056" y1="82.9358" x2="353.506" y2="51.5536" gradientUnits="userSpaceOnUse">
<stop stop-color="#1852A0"/>
<stop offset="1" stop-color="#067ED3"/>
</linearGradient>
<linearGradient id="paint87_linear_31_862" x1="36.914" y1="160.265" x2="29.1891" y2="131.576" gradientUnits="userSpaceOnUse">
<stop stop-color="#188DC1"/>
<stop offset="1" stop-color="#06BFE7"/>
</linearGradient>
<linearGradient id="paint88_linear_31_862" x1="50.1925" y1="156.955" x2="44.4318" y2="135.561" gradientUnits="userSpaceOnUse">
<stop stop-color="#1852A0"/>
<stop offset="1" stop-color="#067ED3"/>
</linearGradient>
</defs>
</svg>
