<svg width="64" height="74" viewBox="0 0 64 74" fill="none" xmlns="http://www.w3.org/2000/svg">
<path fill-rule="evenodd" clip-rule="evenodd" d="M-6.88536e-06 18.5L32 2.79753e-06L64 18.5L64 55.5L32 74L-3.65071e-06 55.5L-6.88536e-06 18.5Z" fill="#DAF2FF"/>
<g clip-path="url(#clip0_31_782)">
<mask id="path-2-outside-1_31_782" maskUnits="userSpaceOnUse" x="15" y="21.9993" width="34" height="30" fill="black">
<rect fill="white" x="15" y="21.9993" width="34" height="30"/>
<path d="M20.1757 28.6438C20.4144 28.6537 20.6169 28.669 20.8194 28.669C25.2749 28.6701 29.7305 28.6778 34.1873 28.6548C34.5135 28.6526 34.9159 28.5067 35.1496 28.306C36.9831 26.7377 38.7816 25.1375 40.5963 23.5505C41.4374 22.8157 42.1735 22.8168 43.0159 23.5461C43.4158 23.8927 43.8195 24.2371 44.207 24.5946C44.8681 25.2044 44.8756 25.8734 44.2007 26.4799C43.4221 27.1808 42.616 27.8596 41.6811 28.669C42.8922 28.669 43.9008 28.6669 44.9093 28.6701C45.6855 28.6723 45.768 28.7447 45.768 29.4313C45.7705 31.8617 45.7692 34.2921 45.7692 36.7214C45.7692 36.9188 45.7692 37.1151 45.7692 37.488C46.2579 37.0614 46.6103 36.717 47.009 36.422C47.1902 36.2882 47.5202 36.1412 47.6814 36.2026C47.8489 36.2673 47.9776 36.5766 47.9789 36.7795C47.9951 41.2926 47.9851 45.8058 48.0001 50.3189C48.0014 50.8278 47.7576 51 47.2177 50.9989C42.096 50.9934 36.9731 50.9989 31.8514 50.9857C31.6139 50.9846 31.2102 50.8683 31.1765 50.7444C31.124 50.5525 31.259 50.2531 31.429 50.0951C32.1826 49.3965 32.9787 48.733 33.7136 47.9159C33.4786 47.9159 33.2437 47.9159 33.0087 47.9159C28.6356 47.9159 24.2638 47.9203 19.8908 47.9137C17.7923 47.9104 16.4338 46.965 16.0564 45.2651C16.0126 45.0698 16.0026 44.8669 16.0026 44.6673C16.0001 38.9675 15.9989 33.2677 16.0014 27.5668C16.0026 25.7747 17.2912 24.4696 19.2971 24.2173C19.9495 24.1351 20.1395 24.2678 20.1445 24.8403C20.152 25.9184 20.1457 26.9965 20.1482 28.0746C20.1482 28.2523 20.1645 28.43 20.1757 28.6438ZM30.7866 37.0493C34.0073 34.223 37.2168 31.4054 40.3413 28.6647C39.6464 28.0527 38.9365 27.4264 38.2091 26.7848C36.2469 28.51 34.231 30.2824 32.2151 32.0536C32.0826 32.1699 31.9626 32.3256 31.8014 32.3783C31.6389 32.4309 31.3615 32.4408 31.2615 32.3552C31.1502 32.2609 31.1202 32.0218 31.1677 31.8727C31.2127 31.7323 31.3977 31.6215 31.5314 31.5063C32.2513 30.8845 32.9737 30.2659 33.7861 29.5695C29.1406 29.5695 24.6625 29.5695 20.147 29.5695C20.147 29.8173 20.147 30.0159 20.147 30.2155C20.147 32.5 20.147 34.7845 20.1457 37.0701C20.1457 37.2347 20.1782 37.4167 20.1095 37.5571C20.047 37.6832 19.8583 37.851 19.7358 37.8445C19.5721 37.8346 19.3521 37.7041 19.2796 37.5725C19.1959 37.4233 19.2396 37.2149 19.2396 37.0329C19.2384 33.2491 19.2384 29.4653 19.2384 25.6815C19.2384 25.4918 19.2384 25.302 19.2384 25.1013C17.7598 25.3174 16.9475 26.2463 16.945 27.6962C16.9362 32.5395 16.9412 37.3838 16.9437 42.2271C16.9437 42.3587 16.9812 42.4903 16.9937 42.5671C17.7411 42.2402 18.456 41.9265 19.2384 41.5844C19.2384 40.9011 19.2384 40.1345 19.2384 39.3678C19.2384 39.0695 19.2109 38.7339 19.7033 38.7416C20.2007 38.7493 20.142 39.1002 20.1445 39.3876C20.1495 40.1367 20.147 40.8868 20.147 41.6359C20.1457 42.43 20.1457 42.43 19.2571 42.5638C17.8336 42.7787 16.8712 43.8239 16.9812 45.0369C17.0887 46.2247 18.1923 47.0791 19.6683 47.0813C24.5838 47.0879 29.4993 47.0879 34.4147 47.0714C34.6659 47.0703 34.9646 46.9376 35.1584 46.7862C35.687 46.3739 36.1495 45.8957 36.6869 45.4943C36.8381 45.3813 37.1581 45.4416 37.4005 45.423C37.3818 45.6369 37.3918 45.8573 37.3305 46.0613C37.298 46.1688 37.1368 46.2455 37.0343 46.3355C35.7383 47.4728 34.441 48.609 33.1474 49.7486C33.0262 49.8549 32.9225 49.9767 32.7825 50.1204C37.573 50.1204 42.291 50.1204 47.0103 50.1204C47.0103 49.47 47.0103 48.8558 47.0103 48.2109C46.7878 48.2011 46.6066 48.1857 46.4241 48.1879C46.0904 48.1901 45.7605 48.166 45.7505 47.7887C45.7405 47.3971 46.0929 47.3609 46.4129 47.3927C46.9578 47.4476 47.0628 47.2337 47.069 46.7983C47.0765 46.3114 46.994 46.0229 46.3354 46.1074C46.0192 46.1479 45.6917 46.0383 45.7705 45.7049C45.808 45.5491 46.1054 45.4011 46.3204 45.332C46.5166 45.2694 46.7591 45.3188 47.0128 45.3188C47.0128 44.8746 47.0128 44.5006 47.0128 44.0937C46.7303 44.0784 46.4641 44.1124 46.2441 44.0389C46.0504 43.9742 45.9092 43.791 45.7442 43.6605C45.9229 43.5223 46.0792 43.3293 46.2879 43.2613C46.5003 43.1922 46.7641 43.2459 47.0015 43.2459C47.0015 42.7941 47.0015 42.4212 47.0015 42.0066C46.7253 42.0066 46.4716 42.0625 46.2791 41.9913C46.0704 41.9134 45.9204 41.7171 45.7442 41.5723C45.9304 41.4374 46.0942 41.2499 46.3079 41.1808C46.5191 41.1128 46.7791 41.1665 46.979 41.1665C46.979 39.9458 46.979 38.8184 46.979 37.6043C44.3307 39.9294 41.7686 42.1777 39.2065 44.4271C39.089 44.5302 38.989 44.6904 38.849 44.7255C38.6253 44.7814 38.3754 44.7551 38.1367 44.7638C38.1442 44.5686 38.1117 44.3624 38.1754 44.1815C38.2179 44.0575 38.3929 43.9676 38.5103 43.8645C40.4988 42.1196 42.4947 40.3812 44.4632 38.6199C44.6794 38.4257 44.8394 38.0923 44.8431 37.8214C44.8718 35.2441 44.8606 32.6667 44.8581 30.0893C44.8581 29.9128 44.8406 29.7373 44.8281 29.5212C43.6308 29.5212 42.4885 29.5377 41.3462 29.5135C40.9137 29.5048 40.615 29.6232 40.3113 29.8919C37.3618 32.4989 34.401 35.0971 31.4277 37.6832C31.1602 37.9157 30.7978 38.089 30.4454 38.2195C29.7767 38.4674 29.0831 38.6648 28.3994 38.8831C31.3027 38.9708 34.176 38.9719 37.0493 38.9697C37.413 38.9697 37.8367 38.9522 37.8417 39.3799C37.8479 39.8131 37.4118 39.7945 37.0556 39.8054C36.9718 39.8076 36.8893 39.8065 36.8056 39.8065C32.8687 39.8065 28.9318 39.8065 24.995 39.8065C24.8487 39.8065 24.675 39.8493 24.5638 39.7956C24.3388 39.6859 24.1476 39.5236 23.9426 39.3821C24.1463 39.245 24.3326 39.0213 24.555 38.9895C25 38.9269 25.4649 38.9708 25.9423 38.9708C26.4235 37.7808 26.8872 36.6139 27.3708 35.4535C27.4683 35.221 27.6008 34.9786 27.7908 34.801C28.3882 34.2405 29.0218 33.7108 29.638 33.1657C29.8917 32.942 30.1716 32.7544 30.4866 33.044C30.7928 33.3258 30.5216 33.543 30.2954 33.7382C29.7367 34.2186 29.1743 34.6946 28.6294 35.1574C29.3955 35.8275 30.0854 36.4329 30.7866 37.0493ZM40.5513 24.61C41.3686 25.3284 42.0648 25.9414 42.8359 26.6192C43.0234 26.4295 43.2409 26.1827 43.4896 25.9645C43.8208 25.6738 43.832 25.4051 43.4971 25.1167C43.0809 24.758 42.6734 24.3939 42.2598 24.0331C42.0035 23.8094 41.7323 23.7545 41.4336 23.9739C41.1149 24.2064 40.7937 24.4345 40.5513 24.61ZM39.8801 25.4665C39.6602 25.6618 39.3915 25.8998 39.184 26.084C39.8314 26.6554 40.5388 27.2795 41.1987 27.8618C41.4249 27.6754 41.6911 27.4539 41.9498 27.2389C41.2537 26.6434 40.5588 26.0478 39.8801 25.4665ZM29.7905 37.5198C29.2568 37.0372 28.7156 36.5492 28.1157 36.0074C28.087 36.5284 27.3621 36.9374 28.0395 37.4902C28.6481 37.9892 28.6981 38.0101 29.7905 37.5198Z"/>
</mask>
<path d="M20.1757 28.6438C20.4144 28.6537 20.6169 28.669 20.8194 28.669C25.2749 28.6701 29.7305 28.6778 34.1873 28.6548C34.5135 28.6526 34.9159 28.5067 35.1496 28.306C36.9831 26.7377 38.7816 25.1375 40.5963 23.5505C41.4374 22.8157 42.1735 22.8168 43.0159 23.5461C43.4158 23.8927 43.8195 24.2371 44.207 24.5946C44.8681 25.2044 44.8756 25.8734 44.2007 26.4799C43.4221 27.1808 42.616 27.8596 41.6811 28.669C42.8922 28.669 43.9008 28.6669 44.9093 28.6701C45.6855 28.6723 45.768 28.7447 45.768 29.4313C45.7705 31.8617 45.7692 34.2921 45.7692 36.7214C45.7692 36.9188 45.7692 37.1151 45.7692 37.488C46.2579 37.0614 46.6103 36.717 47.009 36.422C47.1902 36.2882 47.5202 36.1412 47.6814 36.2026C47.8489 36.2673 47.9776 36.5766 47.9789 36.7795C47.9951 41.2926 47.9851 45.8058 48.0001 50.3189C48.0014 50.8278 47.7576 51 47.2177 50.9989C42.096 50.9934 36.9731 50.9989 31.8514 50.9857C31.6139 50.9846 31.2102 50.8683 31.1765 50.7444C31.124 50.5525 31.259 50.2531 31.429 50.0951C32.1826 49.3965 32.9787 48.733 33.7136 47.9159C33.4786 47.9159 33.2437 47.9159 33.0087 47.9159C28.6356 47.9159 24.2638 47.9203 19.8908 47.9137C17.7923 47.9104 16.4338 46.965 16.0564 45.2651C16.0126 45.0698 16.0026 44.8669 16.0026 44.6673C16.0001 38.9675 15.9989 33.2677 16.0014 27.5668C16.0026 25.7747 17.2912 24.4696 19.2971 24.2173C19.9495 24.1351 20.1395 24.2678 20.1445 24.8403C20.152 25.9184 20.1457 26.9965 20.1482 28.0746C20.1482 28.2523 20.1645 28.43 20.1757 28.6438ZM30.7866 37.0493C34.0073 34.223 37.2168 31.4054 40.3413 28.6647C39.6464 28.0527 38.9365 27.4264 38.2091 26.7848C36.2469 28.51 34.231 30.2824 32.2151 32.0536C32.0826 32.1699 31.9626 32.3256 31.8014 32.3783C31.6389 32.4309 31.3615 32.4408 31.2615 32.3552C31.1502 32.2609 31.1202 32.0218 31.1677 31.8727C31.2127 31.7323 31.3977 31.6215 31.5314 31.5063C32.2513 30.8845 32.9737 30.2659 33.7861 29.5695C29.1406 29.5695 24.6625 29.5695 20.147 29.5695C20.147 29.8173 20.147 30.0159 20.147 30.2155C20.147 32.5 20.147 34.7845 20.1457 37.0701C20.1457 37.2347 20.1782 37.4167 20.1095 37.5571C20.047 37.6832 19.8583 37.851 19.7358 37.8445C19.5721 37.8346 19.3521 37.7041 19.2796 37.5725C19.1959 37.4233 19.2396 37.2149 19.2396 37.0329C19.2384 33.2491 19.2384 29.4653 19.2384 25.6815C19.2384 25.4918 19.2384 25.302 19.2384 25.1013C17.7598 25.3174 16.9475 26.2463 16.945 27.6962C16.9362 32.5395 16.9412 37.3838 16.9437 42.2271C16.9437 42.3587 16.9812 42.4903 16.9937 42.5671C17.7411 42.2402 18.456 41.9265 19.2384 41.5844C19.2384 40.9011 19.2384 40.1345 19.2384 39.3678C19.2384 39.0695 19.2109 38.7339 19.7033 38.7416C20.2007 38.7493 20.142 39.1002 20.1445 39.3876C20.1495 40.1367 20.147 40.8868 20.147 41.6359C20.1457 42.43 20.1457 42.43 19.2571 42.5638C17.8336 42.7787 16.8712 43.8239 16.9812 45.0369C17.0887 46.2247 18.1923 47.0791 19.6683 47.0813C24.5838 47.0879 29.4993 47.0879 34.4147 47.0714C34.6659 47.0703 34.9646 46.9376 35.1584 46.7862C35.687 46.3739 36.1495 45.8957 36.6869 45.4943C36.8381 45.3813 37.1581 45.4416 37.4005 45.423C37.3818 45.6369 37.3918 45.8573 37.3305 46.0613C37.298 46.1688 37.1368 46.2455 37.0343 46.3355C35.7383 47.4728 34.441 48.609 33.1474 49.7486C33.0262 49.8549 32.9225 49.9767 32.7825 50.1204C37.573 50.1204 42.291 50.1204 47.0103 50.1204C47.0103 49.47 47.0103 48.8558 47.0103 48.2109C46.7878 48.2011 46.6066 48.1857 46.4241 48.1879C46.0904 48.1901 45.7605 48.166 45.7505 47.7887C45.7405 47.3971 46.0929 47.3609 46.4129 47.3927C46.9578 47.4476 47.0628 47.2337 47.069 46.7983C47.0765 46.3114 46.994 46.0229 46.3354 46.1074C46.0192 46.1479 45.6917 46.0383 45.7705 45.7049C45.808 45.5491 46.1054 45.4011 46.3204 45.332C46.5166 45.2694 46.7591 45.3188 47.0128 45.3188C47.0128 44.8746 47.0128 44.5006 47.0128 44.0937C46.7303 44.0784 46.4641 44.1124 46.2441 44.0389C46.0504 43.9742 45.9092 43.791 45.7442 43.6605C45.9229 43.5223 46.0792 43.3293 46.2879 43.2613C46.5003 43.1922 46.7641 43.2459 47.0015 43.2459C47.0015 42.7941 47.0015 42.4212 47.0015 42.0066C46.7253 42.0066 46.4716 42.0625 46.2791 41.9913C46.0704 41.9134 45.9204 41.7171 45.7442 41.5723C45.9304 41.4374 46.0942 41.2499 46.3079 41.1808C46.5191 41.1128 46.7791 41.1665 46.979 41.1665C46.979 39.9458 46.979 38.8184 46.979 37.6043C44.3307 39.9294 41.7686 42.1777 39.2065 44.4271C39.089 44.5302 38.989 44.6904 38.849 44.7255C38.6253 44.7814 38.3754 44.7551 38.1367 44.7638C38.1442 44.5686 38.1117 44.3624 38.1754 44.1815C38.2179 44.0575 38.3929 43.9676 38.5103 43.8645C40.4988 42.1196 42.4947 40.3812 44.4632 38.6199C44.6794 38.4257 44.8394 38.0923 44.8431 37.8214C44.8718 35.2441 44.8606 32.6667 44.8581 30.0893C44.8581 29.9128 44.8406 29.7373 44.8281 29.5212C43.6308 29.5212 42.4885 29.5377 41.3462 29.5135C40.9137 29.5048 40.615 29.6232 40.3113 29.8919C37.3618 32.4989 34.401 35.0971 31.4277 37.6832C31.1602 37.9157 30.7978 38.089 30.4454 38.2195C29.7767 38.4674 29.0831 38.6648 28.3994 38.8831C31.3027 38.9708 34.176 38.9719 37.0493 38.9697C37.413 38.9697 37.8367 38.9522 37.8417 39.3799C37.8479 39.8131 37.4118 39.7945 37.0556 39.8054C36.9718 39.8076 36.8893 39.8065 36.8056 39.8065C32.8687 39.8065 28.9318 39.8065 24.995 39.8065C24.8487 39.8065 24.675 39.8493 24.5638 39.7956C24.3388 39.6859 24.1476 39.5236 23.9426 39.3821C24.1463 39.245 24.3326 39.0213 24.555 38.9895C25 38.9269 25.4649 38.9708 25.9423 38.9708C26.4235 37.7808 26.8872 36.6139 27.3708 35.4535C27.4683 35.221 27.6008 34.9786 27.7908 34.801C28.3882 34.2405 29.0218 33.7108 29.638 33.1657C29.8917 32.942 30.1716 32.7544 30.4866 33.044C30.7928 33.3258 30.5216 33.543 30.2954 33.7382C29.7367 34.2186 29.1743 34.6946 28.6294 35.1574C29.3955 35.8275 30.0854 36.4329 30.7866 37.0493ZM40.5513 24.61C41.3686 25.3284 42.0648 25.9414 42.8359 26.6192C43.0234 26.4295 43.2409 26.1827 43.4896 25.9645C43.8208 25.6738 43.832 25.4051 43.4971 25.1167C43.0809 24.758 42.6734 24.3939 42.2598 24.0331C42.0035 23.8094 41.7323 23.7545 41.4336 23.9739C41.1149 24.2064 40.7937 24.4345 40.5513 24.61ZM39.8801 25.4665C39.6602 25.6618 39.3915 25.8998 39.184 26.084C39.8314 26.6554 40.5388 27.2795 41.1987 27.8618C41.4249 27.6754 41.6911 27.4539 41.9498 27.2389C41.2537 26.6434 40.5588 26.0478 39.8801 25.4665ZM29.7905 37.5198C29.2568 37.0372 28.7156 36.5492 28.1157 36.0074C28.087 36.5284 27.3621 36.9374 28.0395 37.4902C28.6481 37.9892 28.6981 38.0101 29.7905 37.5198Z" fill="#3D3D63"/>
<path d="M20.1757 28.6438C20.4144 28.6537 20.6169 28.669 20.8194 28.669C25.2749 28.6701 29.7305 28.6778 34.1873 28.6548C34.5135 28.6526 34.9159 28.5067 35.1496 28.306C36.9831 26.7377 38.7816 25.1375 40.5963 23.5505C41.4374 22.8157 42.1735 22.8168 43.0159 23.5461C43.4158 23.8927 43.8195 24.2371 44.207 24.5946C44.8681 25.2044 44.8756 25.8734 44.2007 26.4799C43.4221 27.1808 42.616 27.8596 41.6811 28.669C42.8922 28.669 43.9008 28.6669 44.9093 28.6701C45.6855 28.6723 45.768 28.7447 45.768 29.4313C45.7705 31.8617 45.7692 34.2921 45.7692 36.7214C45.7692 36.9188 45.7692 37.1151 45.7692 37.488C46.2579 37.0614 46.6103 36.717 47.009 36.422C47.1902 36.2882 47.5202 36.1412 47.6814 36.2026C47.8489 36.2673 47.9776 36.5766 47.9789 36.7795C47.9951 41.2926 47.9851 45.8058 48.0001 50.3189C48.0014 50.8278 47.7576 51 47.2177 50.9989C42.096 50.9934 36.9731 50.9989 31.8514 50.9857C31.6139 50.9846 31.2102 50.8683 31.1765 50.7444C31.124 50.5525 31.259 50.2531 31.429 50.0951C32.1826 49.3965 32.9787 48.733 33.7136 47.9159C33.4786 47.9159 33.2437 47.9159 33.0087 47.9159C28.6356 47.9159 24.2638 47.9203 19.8908 47.9137C17.7923 47.9104 16.4338 46.965 16.0564 45.2651C16.0126 45.0698 16.0026 44.8669 16.0026 44.6673C16.0001 38.9675 15.9989 33.2677 16.0014 27.5668C16.0026 25.7747 17.2912 24.4696 19.2971 24.2173C19.9495 24.1351 20.1395 24.2678 20.1445 24.8403C20.152 25.9184 20.1457 26.9965 20.1482 28.0746C20.1482 28.2523 20.1645 28.43 20.1757 28.6438ZM30.7866 37.0493C34.0073 34.223 37.2168 31.4054 40.3413 28.6647C39.6464 28.0527 38.9365 27.4264 38.2091 26.7848C36.2469 28.51 34.231 30.2824 32.2151 32.0536C32.0826 32.1699 31.9626 32.3256 31.8014 32.3783C31.6389 32.4309 31.3615 32.4408 31.2615 32.3552C31.1502 32.2609 31.1202 32.0218 31.1677 31.8727C31.2127 31.7323 31.3977 31.6215 31.5314 31.5063C32.2513 30.8845 32.9737 30.2659 33.7861 29.5695C29.1406 29.5695 24.6625 29.5695 20.147 29.5695C20.147 29.8173 20.147 30.0159 20.147 30.2155C20.147 32.5 20.147 34.7845 20.1457 37.0701C20.1457 37.2347 20.1782 37.4167 20.1095 37.5571C20.047 37.6832 19.8583 37.851 19.7358 37.8445C19.5721 37.8346 19.3521 37.7041 19.2796 37.5725C19.1959 37.4233 19.2396 37.2149 19.2396 37.0329C19.2384 33.2491 19.2384 29.4653 19.2384 25.6815C19.2384 25.4918 19.2384 25.302 19.2384 25.1013C17.7598 25.3174 16.9475 26.2463 16.945 27.6962C16.9362 32.5395 16.9412 37.3838 16.9437 42.2271C16.9437 42.3587 16.9812 42.4903 16.9937 42.5671C17.7411 42.2402 18.456 41.9265 19.2384 41.5844C19.2384 40.9011 19.2384 40.1345 19.2384 39.3678C19.2384 39.0695 19.2109 38.7339 19.7033 38.7416C20.2007 38.7493 20.142 39.1002 20.1445 39.3876C20.1495 40.1367 20.147 40.8868 20.147 41.6359C20.1457 42.43 20.1457 42.43 19.2571 42.5638C17.8336 42.7787 16.8712 43.8239 16.9812 45.0369C17.0887 46.2247 18.1923 47.0791 19.6683 47.0813C24.5838 47.0879 29.4993 47.0879 34.4147 47.0714C34.6659 47.0703 34.9646 46.9376 35.1584 46.7862C35.687 46.3739 36.1495 45.8957 36.6869 45.4943C36.8381 45.3813 37.1581 45.4416 37.4005 45.423C37.3818 45.6369 37.3918 45.8573 37.3305 46.0613C37.298 46.1688 37.1368 46.2455 37.0343 46.3355C35.7383 47.4728 34.441 48.609 33.1474 49.7486C33.0262 49.8549 32.9225 49.9767 32.7825 50.1204C37.573 50.1204 42.291 50.1204 47.0103 50.1204C47.0103 49.47 47.0103 48.8558 47.0103 48.2109C46.7878 48.2011 46.6066 48.1857 46.4241 48.1879C46.0904 48.1901 45.7605 48.166 45.7505 47.7887C45.7405 47.3971 46.0929 47.3609 46.4129 47.3927C46.9578 47.4476 47.0628 47.2337 47.069 46.7983C47.0765 46.3114 46.994 46.0229 46.3354 46.1074C46.0192 46.1479 45.6917 46.0383 45.7705 45.7049C45.808 45.5491 46.1054 45.4011 46.3204 45.332C46.5166 45.2694 46.7591 45.3188 47.0128 45.3188C47.0128 44.8746 47.0128 44.5006 47.0128 44.0937C46.7303 44.0784 46.4641 44.1124 46.2441 44.0389C46.0504 43.9742 45.9092 43.791 45.7442 43.6605C45.9229 43.5223 46.0792 43.3293 46.2879 43.2613C46.5003 43.1922 46.7641 43.2459 47.0015 43.2459C47.0015 42.7941 47.0015 42.4212 47.0015 42.0066C46.7253 42.0066 46.4716 42.0625 46.2791 41.9913C46.0704 41.9134 45.9204 41.7171 45.7442 41.5723C45.9304 41.4374 46.0942 41.2499 46.3079 41.1808C46.5191 41.1128 46.7791 41.1665 46.979 41.1665C46.979 39.9458 46.979 38.8184 46.979 37.6043C44.3307 39.9294 41.7686 42.1777 39.2065 44.4271C39.089 44.5302 38.989 44.6904 38.849 44.7255C38.6253 44.7814 38.3754 44.7551 38.1367 44.7638C38.1442 44.5686 38.1117 44.3624 38.1754 44.1815C38.2179 44.0575 38.3929 43.9676 38.5103 43.8645C40.4988 42.1196 42.4947 40.3812 44.4632 38.6199C44.6794 38.4257 44.8394 38.0923 44.8431 37.8214C44.8718 35.2441 44.8606 32.6667 44.8581 30.0893C44.8581 29.9128 44.8406 29.7373 44.8281 29.5212C43.6308 29.5212 42.4885 29.5377 41.3462 29.5135C40.9137 29.5048 40.615 29.6232 40.3113 29.8919C37.3618 32.4989 34.401 35.0971 31.4277 37.6832C31.1602 37.9157 30.7978 38.089 30.4454 38.2195C29.7767 38.4674 29.0831 38.6648 28.3994 38.8831C31.3027 38.9708 34.176 38.9719 37.0493 38.9697C37.413 38.9697 37.8367 38.9522 37.8417 39.3799C37.8479 39.8131 37.4118 39.7945 37.0556 39.8054C36.9718 39.8076 36.8893 39.8065 36.8056 39.8065C32.8687 39.8065 28.9318 39.8065 24.995 39.8065C24.8487 39.8065 24.675 39.8493 24.5638 39.7956C24.3388 39.6859 24.1476 39.5236 23.9426 39.3821C24.1463 39.245 24.3326 39.0213 24.555 38.9895C25 38.9269 25.4649 38.9708 25.9423 38.9708C26.4235 37.7808 26.8872 36.6139 27.3708 35.4535C27.4683 35.221 27.6008 34.9786 27.7908 34.801C28.3882 34.2405 29.0218 33.7108 29.638 33.1657C29.8917 32.942 30.1716 32.7544 30.4866 33.044C30.7928 33.3258 30.5216 33.543 30.2954 33.7382C29.7367 34.2186 29.1743 34.6946 28.6294 35.1574C29.3955 35.8275 30.0854 36.4329 30.7866 37.0493ZM40.5513 24.61C41.3686 25.3284 42.0648 25.9414 42.8359 26.6192C43.0234 26.4295 43.2409 26.1827 43.4896 25.9645C43.8208 25.6738 43.832 25.4051 43.4971 25.1167C43.0809 24.758 42.6734 24.3939 42.2598 24.0331C42.0035 23.8094 41.7323 23.7545 41.4336 23.9739C41.1149 24.2064 40.7937 24.4345 40.5513 24.61ZM39.8801 25.4665C39.6602 25.6618 39.3915 25.8998 39.184 26.084C39.8314 26.6554 40.5388 27.2795 41.1987 27.8618C41.4249 27.6754 41.6911 27.4539 41.9498 27.2389C41.2537 26.6434 40.5588 26.0478 39.8801 25.4665ZM29.7905 37.5198C29.2568 37.0372 28.7156 36.5492 28.1157 36.0074C28.087 36.5284 27.3621 36.9374 28.0395 37.4902C28.6481 37.9892 28.6981 38.0101 29.7905 37.5198Z" stroke="#3D3D63" stroke-width="0.4" mask="url(#path-2-outside-1_31_782)"/>
<path d="M40.966 48.0157C40.1962 48.0157 39.425 48.0354 38.6577 48.0025C38.4502 47.9938 38.1677 47.8665 38.0753 47.7185C38.0065 47.6099 38.1352 47.3302 38.2715 47.2096C39.8912 45.7652 41.5235 44.3317 43.1707 42.9114C43.3069 42.7941 43.6294 42.6932 43.7556 42.7557C43.9243 42.8391 44.0743 43.0891 44.0781 43.269C44.1043 44.6564 44.0906 46.0438 44.0931 47.4311C44.0943 47.8424 43.8718 48.0256 43.4019 48.019C42.5883 48.008 41.7772 48.0157 40.966 48.0157ZM43.097 44.3657C42.0459 45.2881 40.9623 46.2401 39.9375 47.1405C40.8986 47.1405 41.9846 47.1405 43.097 47.1405C43.097 46.1578 43.097 45.2157 43.097 44.3657Z" fill="#3D3D63"/>
</g>
<defs>
<clipPath id="clip0_31_782">
<rect width="32" height="28" fill="white" transform="translate(16 23)"/>
</clipPath>
</defs>
</svg>
