<svg width="64" height="74" viewBox="0 0 64 74" fill="none" xmlns="http://www.w3.org/2000/svg">
<path fill-rule="evenodd" clip-rule="evenodd" d="M-6.88536e-06 18.5L32 2.79753e-06L64 18.5L64 55.5L32 74L-3.65071e-06 55.5L-6.88536e-06 18.5Z" fill="#DAF2FF"/>
<g clip-path="url(#clip0_31_3308)">
<path d="M41.9366 36.9993C41.9366 40.451 41.9376 43.9037 41.9366 47.3555C41.9366 48.4363 41.3733 48.9998 40.2944 48.9998C35.0773 49.0007 29.8602 49.0007 24.6431 48.9998C23.5643 48.9998 23.0009 48.4354 23.0009 47.3555C23 40.452 23 33.5476 23 26.6431C23.0009 25.5622 23.5624 25.0007 24.6431 25.0007C29.8602 24.9998 35.0773 24.9998 40.2935 25.0007C41.3733 25.0007 41.9357 25.5632 41.9357 26.6441C41.9376 30.0958 41.9366 33.5476 41.9366 36.9993ZM41.0021 37.0471C41.0021 33.6094 41.0021 30.1718 41.0021 26.735C41.0021 26.0685 40.8709 25.9354 40.2157 25.9354C35.0436 25.9344 29.8724 25.9344 24.7003 25.9354C24.0789 25.9354 23.9354 26.0807 23.9354 26.7097C23.9345 33.5691 23.9345 40.4285 23.9354 47.288C23.9354 47.9189 24.0779 48.0651 24.6984 48.0651C29.8705 48.0661 35.0417 48.0661 40.2138 48.0651C40.8709 48.0651 41.0021 47.9311 41.0021 47.2664C41.0021 43.8597 41.0021 40.4538 41.0021 37.0471Z" fill="#3D3D63"/>
<path d="M27.5205 36.4021C27.9001 35.9896 28.2216 35.6333 28.5506 35.2846C28.7727 35.0484 29.0305 34.8965 29.3154 35.1758C29.6004 35.4543 29.4579 35.7158 29.2226 35.9418C28.8758 36.2736 28.5197 36.597 28.1025 36.9833C28.5178 37.3808 28.8655 37.7089 29.2086 38.0426C29.4382 38.2657 29.6069 38.5207 29.3295 38.8085C29.0314 39.1179 28.7662 38.9435 28.5318 38.696C28.2113 38.3585 27.8945 38.0164 27.4586 37.5495C27.0902 37.9761 26.7828 38.3435 26.4622 38.6988C26.2326 38.9529 25.9598 39.116 25.6655 38.8048C25.39 38.5142 25.5624 38.261 25.7939 38.0398C26.1314 37.7173 26.4735 37.3995 26.8634 37.032C26.4801 36.6477 26.1454 36.3092 25.8071 35.9727C25.568 35.7346 25.375 35.4749 25.6843 35.174C25.9926 34.873 26.2513 35.0765 26.4829 35.3155C26.8044 35.6511 27.124 35.9877 27.5205 36.4021Z" fill="#3D3D63"/>
<path d="M28.118 43.3792C28.522 43.7636 28.8716 44.0926 29.2156 44.4264C29.4471 44.6514 29.6027 44.9082 29.3234 45.1923C29.045 45.4763 28.7844 45.3357 28.5585 45.0985C28.2277 44.7498 27.9043 44.3945 27.5162 43.9755C27.1188 44.3917 26.7898 44.7395 26.4571 45.0835C26.234 45.3142 25.98 45.4829 25.6913 45.2073C25.381 44.9111 25.5535 44.6439 25.8009 44.4095C26.1393 44.0898 26.4842 43.7748 26.9576 43.3361C26.5264 42.9649 26.1581 42.6593 25.8019 42.3396C25.5488 42.1118 25.3801 41.8399 25.6903 41.5437C25.979 41.2681 26.233 41.4349 26.4552 41.6674C26.7786 42.0049 27.0972 42.3462 27.4666 42.7371C27.848 42.3574 28.1864 42.0227 28.5229 41.6852C28.76 41.4471 29.0187 41.2521 29.3215 41.5596C29.6243 41.868 29.4209 42.1268 29.1828 42.3583C28.85 42.6818 28.5135 43.0005 28.118 43.3792Z" fill="#3D3D63"/>
<path d="M35.4176 32.5918C34.3425 32.5918 33.2665 32.5871 32.1914 32.5946C31.8399 32.5974 31.5371 32.5149 31.5456 32.108C31.5531 31.7331 31.8436 31.6534 32.1764 31.6543C34.3735 31.6599 36.5715 31.659 38.7685 31.6543C39.105 31.6534 39.3862 31.7415 39.3919 32.1165C39.3975 32.4905 39.1238 32.5955 38.7835 32.5936C37.6616 32.588 36.5396 32.5918 35.4176 32.5918Z" fill="#3D3D63"/>
<path d="M35.471 38.9687C34.38 38.9687 33.2889 38.964 32.1979 38.9715C31.8483 38.9744 31.539 38.8994 31.5455 38.4925C31.5521 38.0838 31.8726 38.0303 32.2157 38.0313C34.3818 38.0369 36.548 38.0369 38.7141 38.0313C39.0562 38.0303 39.3824 38.08 39.389 38.4869C39.3965 38.9284 39.0534 38.9734 38.6954 38.9715C37.6221 38.964 36.5461 38.9687 35.471 38.9687Z" fill="#3D3D63"/>
<path d="M35.4664 44.4072C36.5574 44.4072 37.6484 44.4119 38.7395 44.4044C39.0891 44.4016 39.3984 44.4766 39.3909 44.8834C39.3834 45.2912 39.0638 45.3446 38.7198 45.3446C36.5537 45.339 34.3875 45.339 32.2214 45.3446C31.8793 45.3456 31.5531 45.295 31.5465 44.8881C31.539 44.4466 31.883 44.4025 32.2401 44.4053C33.3162 44.4119 34.3913 44.4072 35.4664 44.4072Z" fill="#3D3D63"/>
<path d="M26.9444 31.5133C27.5227 30.9302 28.041 30.4127 28.5528 29.8886C28.7881 29.6477 29.0515 29.5258 29.3214 29.7874C29.6045 30.0611 29.4517 30.3189 29.2164 30.5514C28.6175 31.1448 28.027 31.7457 27.4271 32.3363C27.0644 32.6945 26.8966 32.6888 26.5235 32.3251C26.2554 32.0635 25.9939 31.7954 25.7287 31.532C25.5122 31.3164 25.4306 31.0689 25.6649 30.8355C25.9068 30.5936 26.1748 30.6452 26.3998 30.887C26.5816 31.0811 26.7485 31.2864 26.9444 31.5133Z" fill="#3D3D63"/>
<path d="M33.4998 29.5919C33.0321 29.5919 32.5653 29.591 32.0976 29.5929C31.7686 29.5938 31.5361 29.4532 31.5436 29.1091C31.5511 28.7932 31.7742 28.6573 32.0826 28.6582C33.064 28.6591 34.0453 28.6582 35.0276 28.6591C35.3351 28.6591 35.5507 28.7932 35.5553 29.1185C35.56 29.4438 35.352 29.5891 35.0426 29.591C34.528 29.5947 34.0144 29.591 33.4998 29.5919Z" fill="#3D3D63"/>
<path d="M33.599 35.0332C34.0668 35.0332 34.5335 35.0342 35.0013 35.0332C35.3274 35.0323 35.5608 35.1598 35.5552 35.5132C35.5496 35.8385 35.3303 35.9679 35.0228 35.9679C34.0415 35.9679 33.0601 35.9679 32.0778 35.9679C31.7675 35.9679 31.5473 35.8263 31.5435 35.5113C31.5398 35.1663 31.775 35.0313 32.1031 35.0332C32.6017 35.0351 33.1004 35.0332 33.599 35.0332Z" fill="#3D3D63"/>
<path d="M33.5468 42.3419C33.064 42.3419 32.5804 42.341 32.0977 42.3429C31.7687 42.3438 31.5362 42.2022 31.5447 41.8591C31.5522 41.5432 31.7752 41.4073 32.0846 41.4082C33.0659 41.4091 34.0473 41.4082 35.0296 41.4091C35.337 41.4091 35.5526 41.5432 35.5564 41.8685C35.5611 42.1938 35.352 42.3382 35.0427 42.341C34.5431 42.3447 34.0445 42.341 33.5468 42.3419Z" fill="#3D3D63"/>
<path d="M38.0973 29.5897C37.817 29.5897 37.5218 29.644 37.2622 29.5709C37.0803 29.5194 36.9482 29.2925 36.7944 29.1434C36.951 28.9822 37.0953 28.6991 37.2678 28.6803C37.8217 28.6203 38.3888 28.625 38.9437 28.6794C39.1087 28.6953 39.3899 28.9794 39.3702 29.0994C39.3392 29.2822 39.119 29.5109 38.9315 29.57C38.6766 29.6506 38.3776 29.5897 38.0973 29.5897Z" fill="#3D3D63"/>
<path d="M38.087 35.9657C37.8227 35.9657 37.5396 36.0239 37.2997 35.947C37.1047 35.8842 36.9613 35.6601 36.7954 35.5073C36.9557 35.3489 37.1029 35.0742 37.2791 35.0545C37.8171 34.9945 38.3692 34.9955 38.9081 35.0536C39.0872 35.0733 39.3459 35.318 39.3787 35.4951C39.4349 35.7951 39.1912 35.9601 38.8809 35.9657C38.6157 35.9695 38.3514 35.9657 38.087 35.9657Z" fill="#3D3D63"/>
<path d="M38.1254 41.4086C38.3897 41.4086 38.6738 41.3486 38.9128 41.4273C39.104 41.4902 39.2408 41.7198 39.4021 41.8754C39.2408 42.0311 39.0909 42.3001 38.9146 42.3198C38.3766 42.3789 37.8236 42.3789 37.2856 42.3198C37.1075 42.3001 36.9575 42.0301 36.7944 41.8736C36.9585 41.7189 37.0981 41.4864 37.2912 41.4273C37.548 41.3505 37.8461 41.4086 38.1254 41.4086Z" fill="#3D3D63"/>
</g>
<defs>
<clipPath id="clip0_31_3308">
<rect width="19" height="24" fill="white" transform="translate(23 25)"/>
</clipPath>
</defs>
</svg>
