<svg width="64" height="74" viewBox="0 0 64 74" fill="none" xmlns="http://www.w3.org/2000/svg">
<path fill-rule="evenodd" clip-rule="evenodd" d="M-6.88536e-06 18.5L32 2.79753e-06L64 18.5L64 55.5L32 74L-3.65071e-06 55.5L-6.88536e-06 18.5Z" fill="#DAF2FF"/>
<g clip-path="url(#clip0_31_7194)">
<path d="M18.9845 25.3471H18.9845C22.3515 25.3431 25.72 25.3405 29.0873 25.3524C29.2818 25.353 29.4168 25.3354 29.5243 25.2768C29.6288 25.2198 29.7217 25.1159 29.8113 24.9112L29.8114 24.9111C30.2116 23.9994 31.0144 23.4955 31.8313 23.0914L18.9845 25.3471ZM18.9845 25.3471C18.0035 25.3484 17.2294 25.6291 16.7009 26.1779C16.173 26.726 15.904 27.5273 15.9027 28.5416C15.9 30.4197 15.9005 32.2985 15.901 34.1769M18.9845 25.3471L15.901 34.1769M45.7501 25.211L45.7501 25.2111C45.765 25.2513 45.8092 25.2996 45.8834 25.3488C45.9544 25.3959 46.0397 25.435 46.1145 25.4621C47.335 25.8936 48.0848 26.858 48.0887 28.2074C48.1053 33.7301 48.1116 39.253 48.0862 44.7746C48.0783 46.4487 46.8719 47.6004 45.2411 47.6058L45.241 47.6058C42.043 47.615 38.8447 47.619 35.6462 47.5979C35.4218 47.5967 35.255 47.6269 35.1432 47.6999C35.0392 47.7678 34.967 47.8834 34.9561 48.0975C34.9143 48.933 34.9016 49.7728 34.9383 50.6067L34.9383 50.6068C34.9471 50.8121 35.0135 50.9537 35.1168 51.0377C35.2202 51.1218 35.379 51.1631 35.6039 51.129L35.6039 51.129C35.8779 51.0876 36.188 51.0694 36.4649 51.1445L36.4652 51.1446C36.5829 51.177 36.6786 51.2593 36.7575 51.3381C36.7882 51.3687 36.8187 51.4014 36.8479 51.4326C36.8568 51.4422 36.8657 51.4516 36.8743 51.4608C36.9122 51.501 36.9481 51.538 36.9842 51.57L37.078 51.653L36.9762 51.7261C36.9296 51.7595 36.8883 51.7942 36.844 51.8314C36.8142 51.8564 36.7832 51.8826 36.7483 51.9102C36.6683 51.9734 36.5761 52.037 36.4693 52.0683M45.7501 25.211L27.541 51.1444C27.4229 51.1758 27.3261 51.2572 27.2462 51.3352C27.2154 51.3653 27.1846 51.3974 27.1553 51.428C27.146 51.4377 27.1369 51.4472 27.128 51.4564C27.0897 51.4961 27.0535 51.5325 27.0172 51.5638L26.9228 51.6452L27.0227 51.7197C27.0675 51.7532 27.1074 51.786 27.1492 51.8204C27.1807 51.8463 27.2133 51.8731 27.25 51.9018C27.3291 51.9637 27.4163 52.025 27.5148 52.0669L27.515 52.067C27.6002 52.1032 27.6923 52.1049 27.7714 52.1009C27.8029 52.0994 27.8351 52.0967 27.8654 52.0942C27.8735 52.0935 27.8816 52.0928 27.8894 52.0922C27.9274 52.0891 27.9622 52.0868 27.9951 52.0868H28.0103H28.0256H28.0409H28.0561H28.0714H28.0866H28.1019H28.1172H28.1324H28.1477H28.1629H28.1782H28.1935H28.2087H28.224H28.2393H28.2545H28.2698H28.285H28.3003H28.3156H28.3308H28.3461H28.3613H28.3766H28.3919H28.4071H28.4224H28.4376H28.4529H28.4682H28.4834H28.4987H28.5139H28.5292H28.5445H28.5597H28.575H28.5903H28.6055H28.6208H28.636H28.6513H28.6666H28.6818H28.6971H28.7123H28.7276H28.7429H28.7581H28.7734H28.7886H28.8039H28.8192H28.8344H28.8497H28.865H28.8802H28.8955H28.9107H28.926H28.9413H28.9565H28.9718H28.987H29.0023H29.0176H29.0328H29.0481H29.0634H29.0786H29.0939H29.1091H29.1244H29.1397H29.1549H29.1702H29.1855H29.2007H29.216H29.2312H29.2465H29.2618H29.277H29.2923H29.3075H29.3228H29.3381H29.3533H29.3686H29.3839H29.3991H29.4144H29.4296H29.4449H29.4602H29.4754H29.4907H29.506H29.5212H29.5365H29.5517H29.567H29.5823H29.5975H29.6128H29.6281H29.6433H29.6586H29.6738H29.6891H29.7044H29.7196H29.7349H29.7502H29.7654H29.7807H29.7959H29.8112H29.8265H29.8417H29.857H29.8723H29.8875H29.9028H29.918H29.9333H29.9486H29.9638H29.9791H29.9944H30.0096H30.0249H30.0402H30.0554H30.0707H30.0859H30.1012H30.1165H30.1317H30.147H30.1623H30.1775H30.1928H30.208H30.2233H30.2386H30.2538H30.2691H30.2844H30.2996H30.3149H30.3301H30.3454H30.3607H30.3759H30.3912H30.4065H30.4217H30.437H30.4523H30.4675H30.4828H30.498H30.5133H30.5286H30.5438H30.5591H30.5744H30.5896H30.6049H30.6202H30.6354H30.6507H30.6659H30.6812H30.6965H30.7117H30.727H30.7423H30.7575H30.7728H30.788H30.8033H30.8186H30.8338H30.8491H30.8644H30.8796H30.8949H30.9102H30.9254H30.9407H30.9559H30.9712H30.9865H31.0017H31.017H31.0323H31.0475H31.0628H31.0781H31.0933H31.1086H31.1238H31.1391H31.1544H31.1696H31.1849H31.2002H31.2154H31.2307H31.246H31.2612H31.2765H31.2917H31.307H31.3223H31.3375H31.3528H31.3681H31.3833H31.3986H31.4139H31.4291H31.4444H31.4597H31.4749H31.4902H31.5054H31.5207H31.536H31.5512H31.5665H31.5818H31.597H31.6123H31.6276H31.6428H31.6581H31.6733H31.6886H31.7039H31.7191H31.7344H31.7497H31.7649H31.7802H31.7955H31.8107H31.826H31.8412H31.8565H31.8718H31.887H31.9023H31.9176H31.9328H31.9481H31.9634H31.9786H31.9939H32.0091H32.0244H32.0397H32.0549H32.0702H32.0855H32.1007H32.116H32.1313H32.1465H32.1618H32.177H32.1923H32.2076H32.2228H32.2381H32.2534H32.2686H32.2839H32.2992H32.3144H32.3297H32.3449H32.3602H32.3755H32.3907H32.406H32.4213H32.4365H32.4518H32.4671H32.4823H32.4976H32.5128H32.5281H32.5434H32.5586H32.5739H32.5892H32.6044H32.6197H32.635H32.6502H32.6655H32.6807H32.696H32.7113H32.7265H32.7418H32.7571H32.7723H32.7876H32.8029H32.8181H32.8334H32.8486H32.8639H32.8792H32.8944H32.9097H32.925H32.9402H32.9555H32.9708H32.986H33.0013H33.0165H33.0318H33.0471H33.0623H33.0776H33.0929H33.1081H33.1234H33.1387H33.1539H33.1692H33.1844H33.1997H33.215H33.2302H33.2455H33.2608H33.276H33.2913H33.3066H33.3218H33.3371H33.3523H33.3676H33.3829H33.3981H33.4134H33.4287H33.4439H33.4592H33.4744H33.4897H33.505H33.5202H33.5355H33.5508H33.566H33.5813H33.5966H33.6118H33.6271H33.6423H33.6576H33.6729H33.6881H33.7034H33.7187H33.7339H33.7492H33.7644H33.7797H33.795H33.8102H33.8255H33.8408H33.856H33.8713H33.8866H33.9018H33.9171H33.9323H33.9476H33.9629H33.9781H33.9934H34.0087H34.0239H34.0392H34.0544H34.0697H34.085H34.1002H34.1155H34.1308H34.146H34.1613H34.1765H34.1918H34.2071H34.2223H34.2376H34.2529H34.2681H34.2834H34.2986H34.3139H34.3292H34.3444H34.3597H34.375H34.3902H34.4055H34.4207H34.436H34.4513H34.4665H34.4818H34.4971H34.5123H34.5276H34.5428H34.5581H34.5734H34.5886H34.6039H34.6191H34.6344H34.6497H34.6649H34.6802H34.6955H34.7107H34.726H34.7412H34.7565H34.7718H34.787H34.8023H34.8176H34.8328H34.8481H34.8633H34.8786H34.8939H34.9091H34.9244H34.9396H34.9549H34.9702H34.9854H35.0007H35.016H35.0312H35.0465H35.0617H35.077H35.0923H35.1075H35.1228H35.138H35.1533H35.1686H35.1838H35.1991H35.2143H35.2296H35.2449H35.2601H35.2754H35.2907H35.3059H35.3212H35.3364H35.3517H35.367H35.3822H35.3975H35.4127H35.428H35.4433H35.4585H35.4738H35.489H35.5043H35.5196H35.5348H35.5501H35.5653H35.5806H35.5959H35.6111H35.6264H35.6417H35.6569H35.6722H35.6874H35.7027H35.718H35.7332H35.7485H35.7637H35.779H35.7943H35.8095C35.8718 52.0868 35.9299 52.0903 35.9911 52.0941C36.0344 52.0968 36.0792 52.0995 36.1282 52.1012C36.2382 52.1049 36.3559 52.1018 36.4693 52.0683M45.7501 25.211C45.3099 24.0267 44.3593 23.4321 43.3506 22.9844L45.7501 25.211ZM36.4693 52.0683L36.4413 51.9726L36.4696 52.0682C36.4695 52.0682 36.4694 52.0683 36.4693 52.0683ZM29.6424 26.2099C28.6025 26.2099 27.5673 26.2086 26.5357 26.2073C23.8502 26.2039 21.1883 26.2005 18.527 26.2204C17.4632 26.2283 16.7475 27.1122 16.7463 28.2866M29.6424 26.2099L29.5427 26.2176C29.5451 26.2493 29.5478 26.28 29.5505 26.3099M29.6424 26.2099C29.6477 26.2787 29.6541 26.3447 29.6603 26.4088C29.6733 26.5435 29.6856 26.67 29.6856 26.7965C29.6863 27.4367 29.6891 28.0769 29.6919 28.7172C29.6996 30.4435 29.7072 32.1701 29.6729 33.896C29.6513 34.9784 30.072 35.7426 30.8829 36.3423C32.248 37.3524 33.8203 37.7562 35.4473 37.9719C37.955 38.3046 40.4311 38.1652 42.8257 37.2564M29.6424 26.2099V26.3099C29.6117 26.3099 29.5811 26.3099 29.5505 26.3099M29.5505 26.3099C28.5412 26.3098 27.5365 26.3086 26.5352 26.3073C23.8498 26.3039 21.1885 26.3005 18.5278 26.3204H18.5278C17.5332 26.3278 16.8475 27.1516 16.8463 28.2867M29.5505 26.3099C29.554 26.3494 29.5577 26.3874 29.5613 26.4245C29.5741 26.5562 29.5856 26.6748 29.5856 26.7965V26.7966C29.5863 27.4375 29.5891 28.0783 29.5919 28.7188C29.5996 30.4447 29.6072 32.1695 29.5729 33.894C29.5506 35.0108 29.988 35.8049 30.8234 36.4227M16.8463 28.2867C16.8463 28.2867 16.8463 28.2867 16.8463 28.2867L16.7463 28.2866M16.8463 28.2867L16.7463 28.2866M16.8463 28.2867C16.8425 33.7435 16.8425 39.2003 16.8463 44.657C16.8469 45.2855 17.0303 45.7773 17.3552 46.1116C17.6796 46.4455 18.1565 46.6338 18.7673 46.6338H18.7673C27.5782 46.6378 36.3878 46.6378 45.1987 46.6338H45.1988C45.831 46.6338 46.3153 46.4471 46.6422 46.1109C46.9694 45.7743 47.1516 45.2747 47.1528 44.624C47.1555 43.0121 47.155 41.3995 47.1545 39.7871C47.1543 39.1421 47.1541 38.4971 47.1541 37.8522C47.1541 36.9794 47.1543 36.1067 47.1546 35.234C47.1554 32.9069 47.1561 30.5801 47.1515 28.254M16.7463 28.2866C16.7425 33.7435 16.7425 39.2003 16.7463 44.6571C16.7475 45.9526 17.5038 46.7338 18.7673 46.7338C27.5782 46.7378 36.3878 46.7378 45.1988 46.7338C46.5029 46.7338 47.2502 45.9618 47.2528 44.6242C47.2555 43.0122 47.255 41.3994 47.2545 39.787C47.2543 39.142 47.2541 38.497 47.2541 37.8522C47.2541 36.9795 47.2543 36.1068 47.2546 35.2341C47.2554 32.907 47.2561 30.58 47.2515 28.2538M47.2515 28.2538L47.1515 28.254M47.2515 28.2538C47.2491 27.2399 46.7603 26.5672 45.8288 26.3365C45.8288 26.3709 45.8288 26.4053 45.8288 26.4397M47.2515 28.2538L47.1515 28.254C47.1515 28.254 47.1515 28.254 47.1515 28.254M47.1515 28.254C47.1503 27.7457 47.023 27.3356 46.784 27.0291C46.5659 26.7494 46.2483 26.5481 45.8288 26.4397M45.8288 26.4397C45.8284 27.1393 45.825 27.8347 45.8216 28.5271C45.8129 30.2941 45.8044 32.0412 45.8466 33.7871C45.8615 34.4117 45.7438 34.9452 45.4985 35.4028C45.2534 35.8603 44.884 36.2359 44.4045 36.5496L44.4044 36.5497C43.9206 36.8657 43.4006 37.1456 42.8612 37.3499M45.8288 26.4397C45.7961 26.4312 45.7627 26.4233 45.7288 26.416C45.7285 27.1225 45.725 27.8252 45.7216 28.525C45.7129 30.2926 45.7044 32.042 45.7466 33.7895C45.7758 35.01 45.2865 35.8531 44.3497 36.4659C43.8705 36.779 43.357 37.0552 42.8257 37.2564M42.8612 37.3499C40.4475 38.2659 37.9542 38.4054 35.4341 38.071C33.8003 37.8544 32.2084 37.4475 30.8234 36.4227M42.8612 37.3499C42.8612 37.3499 42.8611 37.3499 42.8611 37.3499L42.8257 37.2564M42.8612 37.3499L42.8257 37.2564M30.8234 36.4227L30.8822 36.3433L30.8235 36.4227C30.8234 36.4227 30.8234 36.4227 30.8234 36.4227ZM15.901 34.1769C15.9012 34.9282 15.9014 35.6794 15.9014 36.4304M15.901 34.1769L15.9014 36.4304M15.9014 36.4304C15.9014 37.0988 15.9012 37.7672 15.901 38.4356C15.9002 40.441 15.8995 42.4466 15.9053 44.4522M15.9014 36.4304L15.9053 44.4522M28.8908 51.0379C28.9945 50.9534 29.0608 50.8115 29.0683 50.6074C29.1 49.7528 29.0747 48.8933 29.0315 48.0344C29.022 47.8476 28.9577 47.748 28.8671 47.6894C28.7686 47.6258 28.6213 47.5986 28.4238 47.5993C25.8413 47.6133 23.2596 47.6114 20.6777 47.6095C20.104 47.6091 19.5303 47.6087 18.9566 47.6085C17.9965 47.6078 17.2308 47.3258 16.705 46.7816C16.1798 46.238 15.9072 45.4463 15.9053 44.4522M28.8908 51.0379L15.9053 44.4521C15.9053 44.4521 15.9053 44.4521 15.9053 44.4522M28.8908 51.0379C28.7869 51.1226 28.6274 51.1644 28.4028 51.1303L28.8908 51.0379ZM40.9842 28.4517L40.9842 28.4517C40.1967 28.6135 39.3981 28.6969 38.7893 28.7604C38.5738 28.7829 38.3821 28.8029 38.223 28.8231C35.7936 28.7742 33.9038 28.5724 32.1655 27.6743L32.1655 27.6743C31.7118 27.4402 31.2781 27.1128 30.9165 26.7412C30.6299 26.4466 30.4884 26.1211 30.4872 25.8094C30.4861 25.499 30.624 25.1884 30.9229 24.9205L30.923 24.9205C31.4823 24.4188 32.1243 23.9486 32.8019 23.7038L32.8019 23.7038C36.0617 22.5228 39.3576 22.5293 42.619 23.7012L42.6191 23.7012C43.2796 23.9385 43.9117 24.3844 44.4546 24.8706L44.4547 24.8706C44.7761 25.1578 44.9197 25.4829 44.9151 25.8085C44.9105 26.1362 44.7555 26.4801 44.449 26.8011L44.4489 26.8011C43.506 27.7897 42.268 28.1884 40.9842 28.4517ZM30.4689 33.5355L30.4689 33.5354C30.5083 33.1557 30.4974 32.7656 30.4871 32.3977C30.4843 32.2965 30.4816 32.197 30.4799 32.0999C35.2811 34.6749 40.0572 34.6885 44.8659 32.1319C44.8681 32.3159 44.8734 32.5032 44.8788 32.6929C44.8961 33.3078 44.9142 33.9475 44.829 34.5781C44.8045 34.7561 44.7024 34.9476 44.5567 35.134C44.4122 35.319 44.2313 35.4906 44.0617 35.6281C42.9354 36.5392 41.5748 36.8794 40.172 37.0931L40.1869 37.1913L40.1719 37.0931C37.7267 37.4659 35.3151 37.3542 32.9672 36.51C32.6176 36.3834 32.2765 36.2175 31.9396 36.0419L31.8955 36.1265L31.9396 36.0419C31.4344 35.7786 31.0358 35.4595 30.7792 35.0558C30.5237 34.6539 30.4035 34.1599 30.4689 33.5355ZM30.4692 29.4707L30.4692 29.4707C30.4979 29.0573 30.4912 28.6388 30.484 28.1867C30.4816 28.0401 30.4792 27.8899 30.478 27.7352C32.2075 29.1074 35.0112 29.7557 37.7574 29.7525C40.5235 29.7493 43.2674 29.085 44.829 27.7961C45.1302 28.7433 45.1325 29.579 44.8551 30.2776C44.5645 31.0095 43.9611 31.6056 43.0385 32.0255L43.0385 32.0255C41.0409 32.9352 38.9147 33.2019 36.7648 32.9942L36.7647 32.9942C35.6625 32.8886 34.5744 32.6184 33.4818 32.3471C33.2227 32.2828 32.9634 32.2184 32.7035 32.1561C32.3762 32.0776 32.0691 31.8882 31.7541 31.6939C31.7024 31.662 31.6505 31.63 31.5983 31.5983L31.5982 31.5983C31.2023 31.3586 30.9044 31.0696 30.7133 30.7219C30.5225 30.3748 30.4347 29.9627 30.4692 29.4707ZM34.118 47.6321C33.731 48.7797 33.7066 49.9172 34.1023 51.0832H34.1016H34.0927H34.0839H34.075H34.0662H34.0573H34.0485H34.0396H34.0308H34.0219H34.0131H34.0042H33.9954H33.9865H33.9777H33.9688H33.96H33.9512H33.9423H33.9335H33.9247H33.9158H33.907H33.8982H33.8893H33.8805H33.8717H33.8628H33.854H33.8452H33.8364H33.8276H33.8187H33.8099H33.8011H33.7923H33.7835H33.7747H33.7658H33.757H33.7482H33.7394H33.7306H33.7218H33.713H33.7042H33.6954H33.6866H33.6778H33.669H33.6602H33.6514H33.6426H33.6338H33.625H33.6162H33.6074H33.5986H33.5898H33.5811H33.5723H33.5635H33.5547H33.5459H33.5371H33.5284H33.5196H33.5108H33.502H33.4932H33.4845H33.4757H33.4669H33.4581H33.4494H33.4406H33.4318H33.4231H33.4143H33.4055H33.3968H33.388H33.3792H33.3705H33.3617H33.3529H33.3442H33.3354H33.3267H33.3179H33.3091H33.3004H33.2916H33.2829H33.2741H33.2654H33.2566H33.2479H33.2391H33.2304H33.2216H33.2129H33.2041H33.1954H33.1866H33.1779H33.1692H33.1604H33.1517H33.1429H33.1342H33.1254H33.1167H33.108H33.0992H33.0905H33.0818H33.073H33.0643H33.0556H33.0468H33.0381H33.0294H33.0206H33.0119H33.0032H32.9945H32.9857H32.977H32.9683H32.9595H32.9508H32.9421H32.9334H32.9247H32.9159H32.9072H32.8985H32.8898H32.8811H32.8723H32.8636H32.8549H32.8462H32.8375H32.8288H32.82H32.8113H32.8026H32.7939H32.7852H32.7765H32.7678H32.7591H32.7503H32.7416H32.7329H32.7242H32.7155H32.7068H32.6981H32.6894H32.6807H32.672H32.6633H32.6546H32.6459H32.6372H32.6285H32.6198H32.611H32.6023H32.5936H32.5849H32.5762H32.5675H32.5588H32.5501H32.5414H32.5328H32.5241H32.5154H32.5067H32.498H32.4893H32.4806H32.4719H32.4632H32.4545H32.4458H32.4371H32.4284H32.4197H32.411H32.4023H32.3936H32.3849H32.3762H32.3676H32.3589H32.3502H32.3415H32.3328H32.3241H32.3154H32.3067H32.298H32.2893H32.2807H32.272H32.2633H32.2546H32.2459H32.2372H32.2285H32.2198H32.2112H32.2025H32.1938H32.1851H32.1764H32.1677H32.159H32.1504H32.1417H32.133H32.1243H32.1156H32.1069H32.0982H32.0896H32.0809H32.0722H32.0635H32.0548H32.0461H32.0374H32.0288H32.0201H32.0114H32.0027H31.994H31.9853H31.9767H31.968H31.9593H31.9506H31.9419H31.9332H31.9246H31.9159H31.9072H31.8985H31.8898H31.8811H31.8725H31.8638H31.8551H31.8464H31.8377H31.829H31.8204H31.8117H31.803H31.7943H31.7856H31.7769H31.7683H31.7596H31.7509H31.7422H31.7335H31.7248H31.7161H31.7075H31.6988H31.6901H31.6814H31.6727H31.664H31.6553H31.6467H31.638H31.6293H31.6206H31.6119H31.6032H31.5945H31.5858H31.5772H31.5685H31.5598H31.5511H31.5424H31.5337H31.525H31.5163H31.5077H31.499H31.4903H31.4816H31.4729H31.4642H31.4555H31.4468H31.4381H31.4294H31.4207H31.412H31.4034H31.3947H31.386H31.3773H31.3686H31.3599H31.3512H31.3425H31.3338H31.3251H31.3164H31.3077H31.299H31.2903H31.2816H31.2729H31.2642H31.2555H31.2468H31.2381H31.2294H31.2207H31.212H31.2033H31.1946H31.1859H31.1772H31.1685H31.1598H31.1511H31.1424H31.1337H31.125H31.1163H31.1075H31.0988H31.0901H31.0814H31.0727H31.064H31.0553H31.0466H31.0379H31.0292H31.0204H31.0117H31.003H30.9943H30.9856H30.9769H30.9681H30.9594H30.9507H30.942H30.9333H30.9246H30.9158H30.9071H30.8984H30.8897H30.8809H30.8722H30.8635H30.8548H30.846H30.8373H30.8286H30.8199H30.8111H30.8024H30.7937H30.7849H30.7762H30.7675H30.7587H30.75H30.7413H30.7325H30.7238H30.7151H30.7063H30.6976H30.6889H30.6801H30.6714H30.6626H30.6539H30.6451H30.6364H30.6277H30.6189H30.6102H30.6014H30.5927H30.5839H30.5752H30.5664H30.5577H30.5489H30.5402H30.5314H30.5226H30.5139H30.5051H30.4964H30.4876H30.4789H30.4701H30.4613H30.4526H30.4438H30.435H30.4263H30.4175H30.4087H30.4H30.3912H30.3824H30.3737H30.3649H30.3561H30.3473H30.3386H30.3298H30.321H30.3122H30.3034H30.2947H30.2859H30.2771H30.2683H30.2595H30.2507H30.242H30.2332H30.2244H30.2156H30.2068H30.198H30.1892H30.1804H30.1716H30.1628H30.154H30.1452H30.1364H30.1276H30.1188H30.11H30.1012H30.0924H30.0836H30.0748H30.066H30.0572H30.0483H30.0395H30.0307H30.0219H30.0131H30.0043H29.9954H29.9866H29.9778H29.969H29.9601H29.9513H29.9425H29.9337H29.9248H29.916H29.9072H29.9034C30.2671 49.9265 30.2898 48.7889 29.8742 47.6321H29.8744H29.8834H29.8924H29.9014H29.9104H29.9194H29.9284H29.9373H29.9463H29.9553H29.9643H29.9733H29.9823H29.9913H30.0002H30.0092H30.0182H30.0272H30.0361H30.0451H30.0541H30.0631H30.072H30.081H30.0899H30.0989H30.1079H30.1168H30.1258H30.1347H30.1437H30.1526H30.1616H30.1705H30.1795H30.1884H30.1974H30.2063H30.2152H30.2242H30.2331H30.2421H30.251H30.2599H30.2689H30.2778H30.2867H30.2956H30.3046H30.3135H30.3224H30.3313H30.3402H30.3492H30.3581H30.367H30.3759H30.3848H30.3937H30.4026H30.4115H30.4204H30.4293H30.4383H30.4472H30.4561H30.465H30.4738H30.4827H30.4916H30.5005H30.5094H30.5183H30.5272H30.5361H30.545H30.5539H30.5627H30.5716H30.5805H30.5894H30.5983H30.6071H30.616H30.6249H30.6338H30.6426H30.6515H30.6604H30.6693H30.6781H30.687H30.6959H30.7047H30.7136H30.7224H30.7313H30.7402H30.749H30.7579H30.7667H30.7756H30.7844H30.7933H30.8022H30.811H30.8199H30.8287H30.8375H30.8464H30.8552H30.8641H30.8729H30.8818H30.8906H30.8994H30.9083H30.9171H30.926H30.9348H30.9436H30.9525H30.9613H30.9701H30.979H30.9878H30.9966H31.0055H31.0143H31.0231H31.0319H31.0408H31.0496H31.0584H31.0672H31.076H31.0849H31.0937H31.1025H31.1113H31.1201H31.129H31.1378H31.1466H31.1554H31.1642H31.173H31.1818H31.1906H31.1994H31.2083H31.2171H31.2259H31.2347H31.2435H31.2523H31.2611H31.2699H31.2787H31.2875H31.2963H31.3051H31.3139H31.3227H31.3315H31.3403H31.3491H31.3579H31.3667H31.3755H31.3843H31.3931H31.4019H31.4107H31.4194H31.4282H31.437H31.4458H31.4546H31.4634H31.4722H31.481H31.4898H31.4986H31.5073H31.5161H31.5249H31.5337H31.5425H31.5513H31.56H31.5688H31.5776H31.5864H31.5952H31.604H31.6127H31.6215H31.6303H31.6391H31.6479H31.6566H31.6654H31.6742H31.683H31.6917H31.7005H31.7093H31.7181H31.7268H31.7356H31.7444H31.7532H31.7619H31.7707H31.7795H31.7883H31.797H31.8058H31.8146H31.8234H31.8321H31.8409H31.8497H31.8584H31.8672H31.876H31.8847H31.8935H31.9023H31.9111H31.9198H31.9286H31.9374H31.9461H31.9549H31.9637H31.9724H31.9812H31.99H31.9987H32.0075H32.0163H32.025H32.0338H32.0426H32.0513H32.0601H32.0689H32.0776H32.0864H32.0952H32.1039H32.1127H32.1215H32.1302H32.139H32.1478H32.1565H32.1653H32.1741H32.1828H32.1916H32.2004H32.2091H32.2179H32.2267H32.2354H32.2442H32.253H32.2617H32.2705H32.2793H32.288H32.2968H32.3056H32.3143H32.3231H32.3319H32.3406H32.3494H32.3582H32.367H32.3757H32.3845H32.3933H32.402H32.4108H32.4196H32.4283H32.4371H32.4459H32.4546H32.4634H32.4722H32.481H32.4897H32.4985H32.5073H32.516H32.5248H32.5336H32.5424H32.5511H32.5599H32.5687H32.5775H32.5862H32.595H32.6038H32.6126H32.6213H32.6301H32.6389H32.6477H32.6564H32.6652H32.674H32.6828H32.6916H32.7003H32.7091H32.7179H32.7267H32.7355H32.7442H32.753H32.7618H32.7706H32.7794H32.7882H32.7969H32.8057H32.8145H32.8233H32.8321H32.8409H32.8497H32.8585H32.8672H32.876H32.8848H32.8936H32.9024H32.9112H32.92H32.9288H32.9376H32.9464H32.9552H32.964H32.9728H32.9816H32.9904H32.9992H33.008H33.0168H33.0256H33.0344H33.0432H33.052H33.0608H33.0696H33.0784H33.0872H33.096H33.1048H33.1136H33.1224H33.1312H33.14H33.1488H33.1577H33.1665H33.1753H33.1841H33.1929H33.2017H33.2105H33.2194H33.2282H33.237H33.2458H33.2546H33.2635H33.2723H33.2811H33.2899H33.2988H33.3076H33.3164H33.3252H33.3341H33.3429H33.3517H33.3606H33.3694H33.3782H33.3871H33.3959H33.4047H33.4136H33.4224H33.4313H33.4401H33.4489H33.4578H33.4666H33.4755H33.4843H33.4932H33.502H33.5109H33.5197H33.5286H33.5374H33.5463H33.5551H33.564H33.5728H33.5817H33.5906H33.5994H33.6083H33.6171H33.626H33.6349H33.6437H33.6526H33.6615H33.6703H33.6792H33.6881H33.697H33.7058H33.7147H33.7236H33.7325H33.7414H33.7502H33.7591H33.768H33.7769H33.7858H33.7947H33.8036H33.8124H33.8213H33.8302H33.8391H33.848H33.8569H33.8658H33.8747H33.8836H33.8925H33.9014H33.9103H33.9192H33.9281H33.9371H33.946H33.9549H33.9638H33.9727H33.9816H33.9905H33.9995H34.0084H34.0173H34.0262H34.0352H34.0441H34.053H34.062H34.0709H34.0798H34.0888H34.0977H34.1066H34.1156H34.118Z" fill="#3D3D63" stroke="#3D3D63" stroke-width="0.2"/>
<path d="M25.3375 43.4313L25.2379 43.4224C25.2445 43.3486 25.295 43.2871 25.3406 43.244C25.3903 43.1971 25.4548 43.153 25.5229 43.1154C25.6564 43.0418 25.826 42.981 25.9597 42.9802M25.3375 43.4313L25.9597 42.9802M25.3375 43.4313C25.3502 43.2893 25.7404 43.0815 25.9603 43.0802C29.1952 43.0578 32.4312 43.0565 35.6673 43.0828C35.8165 43.0837 35.9644 43.2051 36.1127 43.3269C36.1519 43.3591 36.1912 43.3913 36.2304 43.4213L25.3375 43.4313ZM25.3375 43.4313L25.2379 43.422C25.2265 43.5439 25.2431 43.6462 25.2914 43.7277C25.3404 43.8104 25.4145 43.8591 25.4934 43.8874C25.5704 43.9152 25.6558 43.9249 25.7359 43.9285C25.7939 43.9311 25.8548 43.9306 25.9109 43.9302C25.9315 43.93 25.9515 43.9298 25.9705 43.9298H25.98H25.9896H25.9991H26.0087H26.0182H26.0277H26.0373H26.0468H26.0564H26.0659H26.0754H26.085H26.0945H26.1041H26.1136H26.1231H26.1327H26.1422H26.1518H26.1613H26.1708H26.1804H26.1899H26.1995H26.209H26.2185H26.2281H26.2376H26.2472H26.2567H26.2662H26.2758H26.2853H26.2949H26.3044H26.3139H26.3235H26.333H26.3426H26.3521H26.3616H26.3712H26.3807H26.3903H26.3998H26.4093H26.4189H26.4284H26.438H26.4475H26.4571H26.4666H26.4761H26.4857H26.4952H26.5048H26.5143H26.5238H26.5334H26.5429H26.5525H26.562H26.5715H26.5811H26.5906H26.6002H26.6097H26.6192H26.6288H26.6383H26.6479H26.6574H26.6669H26.6765H26.686H26.6956H26.7051H26.7146H26.7242H26.7337H26.7433H26.7528H26.7623H26.7719H26.7814H26.791H26.8005H26.81H26.8196H26.8291H26.8387H26.8482H26.8577H26.8673H26.8768H26.8864H26.8959H26.9054H26.915H26.9245H26.9341H26.9436H26.9531H26.9627H26.9722H26.9818H26.9913H27.0008H27.0104H27.0199H27.0295H27.039H27.0486H27.0581H27.0676H27.0772H27.0867H27.0963H27.1058H27.1153H27.1249H27.1344H27.144H27.1535H27.163H27.1726H27.1821H27.1917H27.2012H27.2107H27.2203H27.2298H27.2394H27.2489H27.2584H27.268H27.2775H27.2871H27.2966H27.3061H27.3157H27.3252H27.3348H27.3443H27.3538H27.3634H27.3729H27.3825H27.392H27.4015H27.4111H27.4206H27.4302H27.4397H27.4492H27.4588H27.4683H27.4779H27.4874H27.4969H27.5065H27.516H27.5256H27.5351H27.5446H27.5542H27.5637H27.5733H27.5828H27.5924H27.6019H27.6114H27.621H27.6305H27.6401H27.6496H27.6591H27.6687H27.6782H27.6878H27.6973H27.7068H27.7164H27.7259H27.7355H27.745H27.7545H27.7641H27.7736H27.7832H27.7927H27.8022H27.8118H27.8213H27.8309H27.8404H27.8499H27.8595H27.869H27.8786H27.8881H27.8976H27.9072H27.9167H27.9263H27.9358H27.9453H27.9549H27.9644H27.974H27.9835H27.993H28.0026H28.0121H28.0217H28.0312H28.0407H28.0503H28.0598H28.0694H28.0789H28.0884H28.098H28.1075H28.1171H28.1266H28.1361H28.1457H28.1552H28.1648H28.1743H28.1839H28.1934H28.2029H28.2125H28.222H28.2316H28.2411H28.2506H28.2602H28.2697H28.2793H28.2888H28.2983H28.3079H28.3174H28.327H28.3365H28.346H28.3556H28.3651H28.3747H28.3842H28.3937H28.4033H28.4128H28.4224H28.4319H28.4414H28.451H28.4605H28.4701H28.4796H28.4891H28.4987H28.5082H28.5178H28.5273H28.5368H28.5464H28.5559H28.5655H28.575H28.5845H28.5941H28.6036H28.6132H28.6227H28.6322H28.6418H28.6513H28.6609H28.6704H28.6799H28.6895H28.699H28.7086H28.7181H28.7277H28.7372H28.7467H28.7563H28.7658H28.7754H28.7849H28.7944H28.804H28.8135H28.8231H28.8326H28.8421H28.8517H28.8612H28.8708H28.8803H28.8898H28.8994H28.9089H28.9185H28.928H28.9375H28.9471H28.9566H28.9662H28.9757H28.9852H28.9948H29.0043H29.0139H29.0234H29.0329H29.0425H29.052H29.0616H29.0711H29.0806H29.0902H29.0997H29.1093H29.1188H29.1283H29.1379H29.1474H29.157H29.1665H29.176H29.1856H29.1951H29.2047H29.2142H29.2237H29.2333H29.2428H29.2524H29.2619H29.2714H29.281H29.2905H29.3001H29.3096H29.3192H29.3287H29.3382H29.3478H29.3573H29.3669H29.3764H29.3859H29.3955H29.405H29.4146H29.4241H29.4336H29.4432H29.4527H29.4623H29.4718H29.4813H29.4909H29.5004H29.51H29.5195H29.529H29.5386H29.5481H29.5577H29.5672H29.5767H29.5863H29.5958H29.6054H29.6149H29.6244H29.634H29.6435H29.6531H29.6626H29.6721H29.6817H29.6912H29.7008H29.7103H29.7198H29.7294H29.7389H29.7485H29.758H29.7675H29.7771H29.7866H29.7962H29.8057H29.8152H29.8248H29.8343H29.8439H29.8534H29.863H29.8725H29.882H29.8916H29.9011H29.9107H29.9202H29.9297H29.9393H29.9488H29.9584H29.9679H29.9774H29.987H29.9965H30.0061H30.0156H30.0251H30.0347H30.0442H30.0538H30.0633H30.0728H30.0824H30.0919H30.1015H30.111H30.1205H30.1301H30.1396H30.1492H30.1587H30.1682H30.1778H30.1873H30.1969H30.2064H30.2159H30.2255H30.235H30.2446H30.2541H30.2636H30.2732H30.2827H30.2923H30.3018H30.3113H30.3209H30.3304H30.34H30.3495H30.359H30.3686H30.3781H30.3877H30.3972H30.4067H30.4163H30.4258H30.4354H30.4449H30.4545H30.464H30.4735H30.4831H30.4926H30.5022H30.5117H30.5212H30.5308H30.5403H30.5499H30.5594H30.5689H30.5785H30.588H30.5976H30.6071H30.6166H30.6262H30.6357H30.6453H30.6548H30.6643H30.6739H30.6834H30.693H30.7025H30.712H30.7216H30.7311H30.7407H30.7502H30.7597H30.7693H30.7788H30.7884H30.7979H30.8074H30.817H30.8265H30.8361H30.8456H30.8551C31.2376 43.9298 31.6201 43.9306 32.0027 43.9313C33.2276 43.9337 34.4535 43.9361 35.6806 43.914L35.6806 43.914C35.8182 43.9115 35.9456 43.8441 36.0541 43.7756C36.0948 43.7499 36.136 43.7219 36.1755 43.6951C36.1894 43.6856 36.2031 43.6763 36.2165 43.6673C36.2693 43.6317 36.3192 43.5995 36.3679 43.5734L36.5177 43.4931L36.3748 43.4012C36.3251 43.3692 36.2741 43.3294 36.2202 43.2856C36.2062 43.2742 36.1919 43.2625 36.1775 43.2506C36.1374 43.2178 36.0957 43.1836 36.0546 43.1522C35.9459 43.0693 35.8137 42.9838 35.6682 42.9828L25.3375 43.4313ZM25.9597 42.9802C25.9597 42.9802 25.9597 42.9802 25.9597 42.9802L25.9603 43.0801L25.9596 42.9802C25.9596 42.9802 25.9597 42.9802 25.9597 42.9802Z" fill="#3D3D63" stroke="#3D3D63" stroke-width="0.2"/>
<path d="M37.7703 41.168H37.7703C38.6257 41.1719 39.482 41.1714 40.3376 41.1709C40.6226 41.1708 40.9076 41.1706 41.1924 41.1706C41.4908 41.1706 41.7895 41.172 42.0884 41.1735C42.9305 41.1776 43.774 41.1816 44.6162 41.1534L44.6163 41.1534C44.761 41.1484 44.8942 41.0735 45.008 40.9971C45.051 40.9683 45.0945 40.937 45.1363 40.9068C45.1507 40.8965 45.1649 40.8862 45.1788 40.8763C45.2344 40.8365 45.2871 40.8003 45.3387 40.7707L45.4898 40.6841L45.3389 40.5972C45.29 40.5691 45.2399 40.5342 45.1868 40.4957C45.1732 40.4858 45.1592 40.4756 45.145 40.4652C45.1055 40.4362 45.0642 40.406 45.0236 40.3783C44.9152 40.3046 44.7861 40.2305 44.6458 40.2288L44.6457 40.2288C42.3431 40.2025 40.0405 40.2025 37.7378 40.2288L37.7377 40.2288C37.6054 40.2304 37.4381 40.2948 37.3073 40.3712C37.2403 40.4102 37.1771 40.4558 37.1285 40.5039C37.0837 40.5483 37.035 40.6106 37.0292 40.6839L37.1289 40.6918L37.0292 40.6837C37.0189 40.8102 37.0375 40.9148 37.0897 40.9959C37.1428 41.0785 37.2215 41.1226 37.3021 41.1457C37.3809 41.1682 37.4672 41.1726 37.5459 41.1724C37.5843 41.1724 37.6229 41.1712 37.6593 41.1701L37.6633 41.17C37.7014 41.1688 37.7369 41.1678 37.7703 41.168ZM45.1943 40.7435C45.1551 40.77 45.1158 40.7983 45.0766 40.8266C44.9231 40.9373 44.7694 41.0481 44.6128 41.0535C43.7728 41.0816 42.932 41.0776 42.0906 41.0735C41.7913 41.072 41.4919 41.0706 41.1924 41.0706C40.9075 41.0706 40.6224 41.0708 40.3373 41.0709C39.4818 41.0714 38.6259 41.0719 37.7707 41.068C37.7342 41.0678 37.6959 41.069 37.6568 41.0701C37.3926 41.0781 37.0968 41.0871 37.1289 40.6918C37.1403 40.5485 37.5242 40.3314 37.739 40.3288L45.1943 40.7435Z" fill="#3D3D63" stroke="#3D3D63" stroke-width="0.2"/>
<path d="M21.1808 37.23C20.6391 36.8083 20.1155 36.3622 19.5917 35.916C19.3656 35.7234 19.1395 35.5307 18.9119 35.34M21.1808 37.23L21.2011 32.6491C20.5702 33.1482 19.958 33.6717 19.3457 34.1954C19.1932 34.3259 19.0406 34.4563 18.8878 34.5864C18.584 34.8455 18.6183 35.0941 18.9119 35.34M21.1808 37.23C21.2814 37.3081 21.4459 37.298 21.6106 37.2878C21.6503 37.2854 21.6901 37.283 21.7289 37.2818C21.7322 37.2927 21.7356 37.3036 21.7392 37.3143L21.8341 37.2826L21.84 37.1828C21.8285 37.1821 21.8169 37.1816 21.8053 37.1813C21.7969 37.1476 21.7893 37.113 21.7816 37.0785C21.7479 36.9268 21.7143 36.7753 21.6231 36.6908L21.1808 37.23ZM18.9119 35.34L18.8477 35.4167C18.8477 35.4167 18.8477 35.4167 18.8477 35.4167M18.9119 35.34L18.8477 35.4167M18.8477 35.4167C18.6928 35.287 18.5857 35.1401 18.576 34.974C18.5661 34.8042 18.6595 34.6497 18.8229 34.5103L18.823 34.5103C18.9754 34.3805 19.1277 34.2503 19.28 34.12C19.8925 33.5962 20.5065 33.0711 21.139 32.5707L21.1391 32.5706C21.238 32.4925 21.3705 32.4814 21.4806 32.4804C21.523 32.48 21.5673 32.4813 21.6093 32.4825C21.6238 32.4829 21.6379 32.4833 21.6516 32.4837C21.7072 32.485 21.7578 32.4852 21.8036 32.4811L21.9511 32.468L21.9082 32.6097C21.8932 32.6591 21.8815 32.7142 21.8698 32.774C21.8669 32.7887 21.864 32.8039 21.8611 32.8194C21.8525 32.8646 21.8435 32.9119 21.8333 32.9571C21.8066 33.0749 21.7659 33.2089 21.6713 33.298L21.6711 33.2981C21.2199 33.7212 20.7458 34.121 20.2526 34.5369C20.0917 34.6727 19.9287 34.8101 19.7638 34.9507C19.9261 35.0889 20.0857 35.2238 20.2428 35.3566C20.7495 35.7846 21.2302 36.1907 21.691 36.6174L21.691 36.6174C21.7809 36.7007 21.8223 36.8243 21.8502 36.9326C21.8608 36.9738 21.8704 37.017 21.8795 37.0583C21.8827 37.0727 21.8859 37.0868 21.889 37.1005C21.9014 37.1553 21.9137 37.2056 21.9289 37.2509L21.9759 37.3912L21.8281 37.3824C21.779 37.3795 21.7246 37.3814 21.6651 37.3848C21.6499 37.3856 21.6343 37.3866 21.6184 37.3876C21.5738 37.3903 21.527 37.3932 21.4822 37.3942C21.3651 37.397 21.2237 37.3899 21.1194 37.309L21.1193 37.3089C20.5759 36.8858 20.0496 36.4374 19.5249 35.9905C19.2993 35.7982 19.0739 35.6063 18.8477 35.4167Z" fill="#3D3D63" stroke="#3D3D63" stroke-width="0.2"/>
<path d="M27.4388 34.5639C27.5918 34.6918 27.7457 34.8205 27.9002 34.9509C27.7417 35.0847 27.5842 35.2165 27.4278 35.3472C26.9372 35.7575 26.4587 36.1576 26.0018 36.5806C25.9057 36.6689 25.8604 36.8004 25.8295 36.9179C25.8176 36.9631 25.8068 37.0104 25.7966 37.0556C25.7932 37.0707 25.7898 37.0854 25.7865 37.0999C25.7728 37.1593 25.759 37.2143 25.7423 37.2639L25.6926 37.4109L25.847 37.3954C25.8968 37.3904 25.9515 37.3899 26.0112 37.3906C26.0261 37.3907 26.0416 37.391 26.0573 37.3912C26.1022 37.3919 26.1493 37.3927 26.1945 37.3918C26.3131 37.3893 26.4524 37.3757 26.5567 37.2947L26.5568 37.2946C27.013 36.9397 27.4562 36.5613 27.8973 36.1845C28.1743 35.948 28.4505 35.7121 28.7287 35.4831L28.7287 35.4831C28.9418 35.3076 29.0663 35.1259 29.0554 34.9254C29.0447 34.7288 28.9052 34.5557 28.7026 34.3918L28.7026 34.3917C28.4062 34.1521 28.112 33.9012 27.8167 33.6494C27.4083 33.3011 26.9978 32.951 26.5768 32.6266L26.5767 32.6265C26.4677 32.5428 26.3235 32.5276 26.1986 32.5243C26.1514 32.523 26.1022 32.5235 26.0552 32.524C26.0384 32.5242 26.022 32.5243 26.006 32.5244C25.9432 32.5247 25.8853 32.5239 25.8323 32.5182L25.6698 32.501L25.7284 32.6535C25.7476 32.7034 25.7639 32.7583 25.7803 32.8172C25.7844 32.8321 25.7886 32.8473 25.7928 32.8628C25.8049 32.9072 25.8176 32.9534 25.8313 32.9977C25.8675 33.1152 25.9179 33.2439 26.0145 33.333C26.472 33.7555 26.9506 34.1556 27.4388 34.5639Z" fill="#3D3D63" stroke="#3D3D63" stroke-width="0.2"/>
<path d="M18.6626 40.7344L18.7917 40.6451C18.8367 40.614 18.8829 40.5753 18.9321 40.5323C18.945 40.521 18.9582 40.5094 18.9716 40.4975C19.008 40.4654 19.046 40.4319 19.0834 40.4012C19.1822 40.32 19.3057 40.2329 19.4441 40.2302L19.4443 40.2302C21.239 40.1986 23.0348 40.2012 24.8291 40.2275M18.6626 40.7344L24.8196 41.1508C24.9549 41.1445 25.075 41.0631 25.1726 40.9857C25.2094 40.9565 25.2468 40.9247 25.2825 40.8943C25.2954 40.8832 25.3082 40.8724 25.3206 40.8619C25.3687 40.8213 25.4138 40.7848 25.4579 40.7551L25.5857 40.6693L25.4553 40.5874C25.4126 40.5605 25.3684 40.5271 25.3212 40.4897C25.3093 40.4803 25.2971 40.4706 25.2848 40.4607C25.2493 40.4324 25.2121 40.4027 25.1754 40.3756C25.0793 40.3044 24.9605 40.2294 24.8291 40.2275M18.6626 40.7344L18.7982 40.8137M18.6626 40.7344L18.7982 40.8137M24.8291 40.2275L24.8277 40.3275L24.829 40.2275C24.8291 40.2275 24.8291 40.2275 24.8291 40.2275ZM18.7982 40.8137C18.8425 40.8396 18.8878 40.8714 18.936 40.9065M18.7982 40.8137L18.936 40.9065M18.936 40.9065C18.948 40.9152 18.9603 40.9242 18.9727 40.9334M18.936 40.9065L18.9727 40.9334M18.9727 40.9334C19.009 40.9601 19.0469 40.988 19.0844 41.0136M18.9727 40.9334L19.0844 41.0136M19.0844 41.0136C19.1832 41.0812 19.3015 41.1495 19.4317 41.1547L19.0844 41.0136Z" fill="#3D3D63" stroke="#3D3D63" stroke-width="0.2"/>
<path d="M22.717 37.4287L22.7289 37.3826C22.8205 37.0283 22.9107 36.6796 22.9997 36.3353C23.2847 35.2334 23.558 34.1763 23.8321 33.1201C23.8478 33.0591 23.8615 32.9965 23.8753 32.9321C23.877 32.9241 23.8787 32.916 23.8804 32.9079C23.8925 32.8516 23.9048 32.7939 23.9185 32.7369C23.9496 32.6067 23.9891 32.4734 24.0542 32.3511L22.717 37.4287ZM22.717 37.4287L22.7451 37.4669M22.717 37.4287L22.7451 37.4669M22.7451 37.4669C22.757 37.4831 22.7718 37.5085 22.792 37.5443C22.7938 37.5477 22.7958 37.5511 22.7977 37.5546C22.8154 37.586 22.8358 37.6225 22.8578 37.6572C22.8821 37.6955 22.9112 37.7364 22.945 37.77C22.978 37.8029 23.0238 37.8372 23.0825 37.847L23.0825 37.847L23.0843 37.8472C23.1379 37.8552 23.195 37.8457 23.2456 37.8306C23.2977 37.815 23.3508 37.7911 23.3995 37.7626C23.4481 37.7342 23.4949 37.6997 23.5332 37.6615C23.5701 37.6246 23.6061 37.5773 23.6212 37.5223L23.6212 37.5222C24.0689 35.8892 24.4923 34.2496 24.8954 32.6035M22.7451 37.4669L24.6097 31.9895M24.6097 31.9895L24.6589 32.0811C24.6764 32.1136 24.6999 32.1491 24.7273 32.1887C24.7337 32.198 24.7404 32.2076 24.7473 32.2174C24.7683 32.2476 24.7907 32.2797 24.8107 32.3107C24.8372 32.352 24.8635 32.3975 24.8808 32.4437C24.8979 32.4893 24.9099 32.5455 24.8954 32.6035M24.6097 31.9895L24.5201 32.0422M24.6097 31.9895L24.5201 32.0422M24.8954 32.6035C24.8954 32.6036 24.8954 32.6037 24.8954 32.6037L24.7984 32.5795L24.8955 32.6033C24.8955 32.6034 24.8955 32.6035 24.8954 32.6035ZM24.5201 32.0422C24.488 32.0612 24.4511 32.0789 24.4099 32.0978M24.5201 32.0422L24.4099 32.0978M24.4099 32.0978C24.4009 32.1019 24.3916 32.1061 24.3821 32.1104M24.4099 32.0978L24.3821 32.1104M24.3821 32.1104C24.3498 32.1251 24.3153 32.1408 24.2827 32.1571M24.3821 32.1104L24.2827 32.1571M24.2827 32.1571C24.2014 32.1979 24.1051 32.2553 24.0542 32.3511L24.2827 32.1571Z" fill="#3D3D63" stroke="#3D3D63" stroke-width="0.2"/>
<path d="M19.3735 42.9855C19.3052 42.9871 19.2438 43.0128 19.1913 43.045C19.1387 43.0773 19.0892 43.1198 19.0438 43.1628C19.0105 43.1944 18.9767 43.2289 18.9445 43.2617C18.9331 43.2734 18.9219 43.2849 18.911 43.2959C18.8678 43.3396 18.8276 43.3786 18.7885 43.4099L18.6812 43.496L18.7962 43.5715C18.8353 43.5972 18.8753 43.6285 18.9183 43.6632C18.9282 43.6712 18.9383 43.6795 18.9486 43.6879C18.9816 43.7148 19.0164 43.7432 19.0508 43.7692C19.1389 43.8359 19.2473 43.9059 19.3695 43.9139L19.3696 43.9139C19.8296 43.9437 20.294 43.9386 20.7537 43.9336C20.927 43.9318 21.0996 43.9299 21.2712 43.9299C21.4494 43.9299 21.6288 43.9317 21.8088 43.9335C22.2823 43.9382 22.7604 43.943 23.2357 43.9152L23.2365 43.9152C23.3581 43.9071 23.4651 43.8361 23.5514 43.7694C23.5841 43.7442 23.6172 43.7167 23.6487 43.6905C23.6599 43.6813 23.6708 43.6722 23.6814 43.6635C23.7235 43.6289 23.7627 43.5979 23.8009 43.5727L23.9143 43.498L23.8093 43.4119C23.7711 43.3806 23.7317 43.3416 23.6893 43.2979C23.6788 43.287 23.668 43.2758 23.657 43.2643C23.6251 43.2312 23.5917 43.1965 23.5588 43.1646C23.5141 43.1215 23.4654 43.0788 23.4135 43.0463C23.3617 43.0138 23.3008 42.9876 23.2328 42.9855L23.2325 42.9855C21.9471 42.9513 20.6591 42.9499 19.3735 42.9855ZM19.3735 42.9855C19.3736 42.9855 19.3737 42.9855 19.3738 42.9855L19.376 43.0855L19.3733 42.9855C19.3733 42.9855 19.3734 42.9855 19.3735 42.9855Z" fill="#3D3D63" stroke="#3D3D63" stroke-width="0.2"/>
<path d="M23.8194 29.9632L23.8196 29.9632C24.2617 29.9976 24.7099 29.9914 25.1524 29.9853C25.3232 29.9829 25.4931 29.9806 25.6615 29.9806C25.8359 29.9806 26.0115 29.9825 26.1877 29.9844C26.6458 29.9895 27.1084 29.9946 27.5667 29.9659L27.5672 29.9659C27.6897 29.9576 27.796 29.8816 27.8802 29.8119C27.9124 29.7852 27.9451 29.7561 27.9762 29.7284C27.987 29.7188 27.9975 29.7094 28.0079 29.7003C28.0492 29.6638 28.0877 29.6311 28.1254 29.6044L28.2338 29.5277L28.13 29.4447C28.0914 29.4139 28.0518 29.3758 28.0092 29.3332C27.9989 29.3228 27.9883 29.3122 27.9775 29.3013C27.9453 29.2688 27.9115 29.2346 27.878 29.2034C27.8331 29.1614 27.7842 29.1199 27.7321 29.0883C27.68 29.0567 27.6193 29.0316 27.552 29.0296L27.5517 29.0296C26.3056 28.9954 25.0581 28.9941 23.8119 29.0283L23.8119 29.0283C23.6797 29.032 23.563 29.1148 23.4705 29.191C23.4352 29.22 23.3994 29.2518 23.3653 29.282C23.3529 29.293 23.3408 29.3037 23.329 29.3141C23.283 29.3544 23.2401 29.3906 23.1982 29.4197L23.0774 29.5039L23.2002 29.5852C23.2433 29.6138 23.2872 29.6484 23.3339 29.6867C23.3454 29.6962 23.3573 29.7059 23.3693 29.7159C23.4044 29.7449 23.4411 29.7753 23.4775 29.8033C23.5731 29.8769 23.6887 29.9528 23.8194 29.9632Z" fill="#3D3D63" stroke="#3D3D63" stroke-width="0.2"/>
<path d="M20.2851 29.9807L20.2847 29.9807C20.1912 29.9807 20.1012 29.9846 20.0089 29.9885C19.9438 29.9913 19.8776 29.9942 19.8081 29.9958C19.6463 29.9995 19.4798 29.9954 19.3162 29.9615C19.1978 29.937 19.0995 29.857 19.0198 29.7818C18.9893 29.7531 18.9587 29.7223 18.9296 29.6929C18.9198 29.683 18.9102 29.6733 18.9008 29.6639C18.8623 29.6253 18.8261 29.5903 18.7901 29.5608L18.6969 29.4843L18.7893 29.4069C18.8215 29.3798 18.8547 29.3463 18.8907 29.3084C18.8996 29.2991 18.9088 29.2894 18.9181 29.2795C18.9452 29.2507 18.9738 29.2203 19.0021 29.1924C19.0736 29.122 19.1715 29.037 19.2898 29.0299L20.2851 29.9807ZM20.2851 29.9807C20.3796 29.9803 20.4712 29.984 20.5654 29.9879C20.629 29.9905 20.6936 29.9932 20.7611 29.9946C20.9231 29.9981 21.0902 29.994 21.2544 29.9602L21.2549 29.9601C21.3727 29.9352 21.469 29.8528 21.5463 29.7763C21.5767 29.7461 21.6071 29.7137 21.636 29.6828C21.6447 29.6736 21.6533 29.6644 21.6617 29.6555C21.699 29.616 21.7341 29.5801 21.769 29.5496L21.8584 29.4715M20.2851 29.9807L21.8584 29.4715M21.8584 29.4715L21.7662 29.3966M21.8584 29.4715L21.7662 29.3966M21.7662 29.3966C21.7341 29.3706 21.701 29.3381 21.665 29.3013C21.6559 29.292 21.6464 29.2822 21.6368 29.2722C21.61 29.2445 21.5816 29.2152 21.5537 29.1884C21.482 29.1196 21.3843 29.0369 21.2669 29.0299L21.7662 29.3966ZM21.2669 29.0299C20.6096 28.9902 19.9472 28.9902 19.2899 29.0299H21.2669Z" fill="#3D3D63" stroke="#3D3D63" stroke-width="0.2"/>
<path d="M33.2811 41.1524L33.2811 41.1524L33.2817 41.1525C33.5254 41.1864 33.7793 41.1796 34.0231 41.173C34.119 41.1705 34.2133 41.1679 34.3047 41.1679C34.3954 41.1679 34.4889 41.1705 34.5839 41.1732C34.828 41.18 35.0825 41.1871 35.3272 41.1511L35.3273 41.1511C35.4342 41.1353 35.5198 41.0596 35.5836 40.9953C35.6087 40.9699 35.6341 40.9423 35.6579 40.9164C35.6657 40.908 35.6732 40.8998 35.6805 40.8919C35.7117 40.8583 35.7404 40.8285 35.7686 40.804L35.8422 40.7397L35.7797 40.6646C35.756 40.6361 35.7312 40.6001 35.7039 40.5587C35.6974 40.5488 35.6907 40.5385 35.6838 40.528C35.6633 40.4964 35.6414 40.463 35.6198 40.4324C35.591 40.3916 35.5583 40.3494 35.5219 40.3163C35.4866 40.2843 35.4365 40.2502 35.3734 40.2473C34.6571 40.213 33.9356 40.213 33.219 40.2513L33.219 40.2513L33.2187 40.2513C33.1549 40.2549 33.1049 40.2903 33.0701 40.3232C33.0341 40.3571 33.0018 40.4003 32.9734 40.442C32.9524 40.4728 32.9312 40.5065 32.9111 40.5384C32.904 40.5497 32.897 40.5607 32.8903 40.5713C32.8633 40.6137 32.8386 40.6508 32.8148 40.6802L32.7523 40.7575L32.8293 40.8205C32.8586 40.8445 32.8885 40.8732 32.9209 40.9055C32.928 40.9126 32.9352 40.9198 32.9426 40.9272C32.9679 40.9526 32.9948 40.9796 33.0216 41.0045C33.0884 41.0666 33.1755 41.1371 33.2811 41.1524Z" fill="#3D3D63" stroke="#3D3D63" stroke-width="0.2"/>
<path d="M26.645 40.7479L26.7266 40.665C26.7562 40.6349 26.7867 40.5974 26.8199 40.5549C26.8282 40.5442 26.8368 40.5331 26.8455 40.5217C26.8702 40.4897 26.8963 40.456 26.922 40.4251C26.9569 40.3831 26.996 40.3404 27.0387 40.3072C27.081 40.2743 27.1349 40.2444 27.1986 40.2408M26.645 40.7479L29.2289 41.1538C29.229 41.1538 29.2291 41.1538 29.2292 41.1538M26.645 40.7479L26.7392 40.8161C26.7732 40.8408 26.8077 40.8701 26.8447 40.9028C26.8536 40.9106 26.8626 40.9187 26.8719 40.9269C26.9001 40.952 26.9299 40.9784 26.9594 41.003C27.0366 41.067 27.1314 41.1349 27.2428 41.1534M26.645 40.7479L27.2428 41.1534M27.1986 40.2408C27.1988 40.2407 27.1989 40.2407 27.1991 40.2407L27.2046 40.3406L27.1983 40.2408C27.1984 40.2408 27.1985 40.2408 27.1986 40.2408ZM27.1986 40.2408C27.874 40.1984 28.5556 40.1997 29.232 40.2434L29.2322 40.2434C29.2959 40.2477 29.349 40.2788 29.39 40.3121C29.4315 40.3458 29.4693 40.3889 29.503 40.4311C29.5276 40.462 29.5526 40.4958 29.5762 40.5278C29.5848 40.5393 29.5932 40.5506 29.6013 40.5615C29.6332 40.6042 29.6625 40.6416 29.6909 40.6716L29.7645 40.7492L29.6821 40.8174C29.6528 40.8416 29.623 40.8708 29.5906 40.9036C29.5834 40.9109 29.5761 40.9183 29.5686 40.9259C29.5434 40.9517 29.5166 40.979 29.4898 41.0043C29.4234 41.067 29.3358 41.1391 29.2292 41.1538M29.2292 41.1538C28.985 41.1886 28.731 41.1814 28.4876 41.1746C28.3913 41.1719 28.2966 41.1692 28.2049 41.1692C28.1121 41.1692 28.0224 41.1723 27.9309 41.1754C27.8656 41.1777 27.7994 41.18 27.7305 41.1812C27.5699 41.184 27.4055 41.1805 27.2428 41.1534M29.2292 41.1538L27.2428 41.1534" fill="#3D3D63" stroke="#3D3D63" stroke-width="0.2"/>
<path d="M38.6832 43C38.6253 43.0038 38.5722 43.0333 38.5314 43.0632C38.4883 43.0948 38.447 43.1359 38.4114 43.1796C38.3756 43.2234 38.3434 43.2724 38.3197 43.3216C38.2968 43.3689 38.2779 43.4247 38.2784 43.4795L38.2784 43.4796C38.279 43.5359 38.3034 43.5885 38.3298 43.6299C38.3574 43.6733 38.3942 43.7152 38.434 43.7522C38.5106 43.8235 38.6151 43.8915 38.7122 43.9096L38.7123 43.9096C38.8645 43.9378 39.0184 43.9416 39.1681 43.9389C39.234 43.9377 39.2966 43.9354 39.3582 43.9332C39.4418 43.9301 39.5235 43.9271 39.6088 43.9271C39.6953 43.9271 39.7787 43.9301 39.8641 43.9332C39.9241 43.9353 39.9851 43.9375 40.0488 43.9387C40.1979 43.9416 40.3511 43.9384 40.5027 43.9125L40.5032 43.9124C40.6083 43.8938 40.6944 43.8248 40.7616 43.7628C40.7875 43.739 40.8135 43.7132 40.838 43.6889C40.8462 43.6808 40.8543 43.6729 40.8621 43.6652C40.8944 43.6335 40.9243 43.6052 40.9538 43.5816L41.0359 43.5159L40.9661 43.4372C40.9384 43.406 40.91 43.3671 40.8791 43.3231C40.8715 43.3122 40.8637 43.301 40.8558 43.2896C40.8326 43.2562 40.8082 43.221 40.784 43.1887C40.7514 43.1453 40.7147 43.101 40.6741 43.0662C40.6341 43.0319 40.5813 42.9992 40.5169 42.9948C39.9079 42.9523 39.2919 42.959 38.6832 43ZM38.6832 43C38.6832 43 38.6831 43 38.6831 43L38.6898 43.0998L38.6832 43C38.6832 43 38.6832 43 38.6832 43ZM40.4858 43.8139C40.2856 43.8482 40.0785 43.8408 39.8711 43.8333C39.7836 43.8302 39.696 43.8271 39.6088 43.8271C39.5232 43.8271 39.437 43.8302 39.3508 43.8334C39.1415 43.841 38.9322 43.8486 38.7305 43.8113C38.5894 43.785 38.3797 43.5956 38.3784 43.4786L40.4858 43.8139Z" fill="#3D3D63" stroke="#3D3D63" stroke-width="0.2"/>
<path d="M43.1773 43.9103L43.177 43.9102C43.0669 43.8851 42.9776 43.8091 42.9064 43.739C42.8789 43.712 42.8514 43.683 42.8252 43.6555C42.8167 43.6465 42.8084 43.6377 42.8002 43.6292C42.766 43.5934 42.7339 43.561 42.7019 43.5334L42.6164 43.4598L42.6996 43.3838C42.7305 43.3556 42.7623 43.3208 42.7968 43.2813C42.8051 43.2719 42.8135 43.2621 42.8222 43.2522C42.8484 43.2219 42.8762 43.1899 42.9037 43.1606C42.9405 43.1213 42.9813 43.0817 43.0256 43.0507C43.0698 43.0198 43.1233 42.9933 43.1849 42.9884M43.1773 43.9103L42.8373 43.3862C42.8578 43.3636 42.8783 43.3401 42.8987 43.3165C42.9942 43.2065 43.09 43.0962 43.1929 43.088C43.7394 43.0433 44.2949 43.0368 44.8402 43.088M43.1773 43.9103C43.3209 43.9426 43.4675 43.9463 43.6086 43.9428C43.6699 43.9413 43.7277 43.9385 43.7842 43.9359C43.8639 43.9321 43.941 43.9285 44.0216 43.9285C44.1025 43.9285 44.1801 43.932 44.2601 43.9355C44.3162 43.938 44.3736 43.9405 44.4341 43.942C44.5747 43.9453 44.7204 43.9419 44.8633 43.9119L44.8636 43.9119C44.9745 43.8882 45.0694 43.8218 45.1491 43.7573C45.184 43.729 45.2149 43.7022 45.2443 43.6767C45.2888 43.6381 45.3299 43.6025 45.3764 43.5691L45.4787 43.4957L45.384 43.4127C45.3488 43.3818 45.3128 43.3438 45.274 43.3014C45.2645 43.291 45.2548 43.2802 45.2449 43.2692C45.2157 43.237 45.185 43.203 45.1546 43.1718C45.0774 43.0926 44.9745 43.0002 44.8495 42.9885M43.1773 43.9103L44.8402 43.088M43.1849 42.9884C43.1849 42.9884 43.185 42.9884 43.185 42.9884L43.1929 43.088L43.1847 42.9884C43.1848 42.9884 43.1848 42.9884 43.1849 42.9884ZM43.1849 42.9884C43.7359 42.9433 44.2973 42.9365 44.8495 42.9885M44.8495 42.9885C44.8495 42.9885 44.8495 42.9885 44.8495 42.9885L44.8402 43.088M44.8495 42.9885L44.8402 43.088" fill="#3D3D63" stroke="#3D3D63" stroke-width="0.2"/>
</g>
<defs>
<clipPath id="clip0_31_7194">
<rect width="32" height="30" fill="white" transform="translate(16 22)"/>
</clipPath>
</defs>
</svg>
