<svg width="64" height="74" viewBox="0 0 64 74" fill="none" xmlns="http://www.w3.org/2000/svg">
<path fill-rule="evenodd" clip-rule="evenodd" d="M-6.88536e-06 18.5L32 2.79753e-06L64 18.5L64 55.5L32 74L-3.65071e-06 55.5L-6.88536e-06 18.5Z" fill="#DAF2FF"/>
<g clip-path="url(#clip0_31_3248)">
<path d="M28.6028 34.3075C27.3555 34.3075 26.2123 34.3075 25.0115 34.3075C24.9651 35.398 24.681 36.4307 23.6939 37.024C23.123 37.3674 22.4017 37.6324 21.7436 37.6434C20.0239 37.6736 18.9693 36.4967 18.5882 34.3144C18.4364 34.3048 18.2761 34.2842 18.1158 34.2842C17.1343 34.2814 16.1542 34.2828 15.1066 34.2828C15.0869 34.5451 15.0574 34.7621 15.0574 34.9805C15.0546 38.6432 15.0532 42.3073 15.056 45.9701C15.0574 47.1539 15.3991 47.4863 16.5915 47.4876C17.8331 47.489 19.0762 47.4945 20.3178 47.4849C20.7003 47.4821 21.0729 47.5179 21.0912 47.9711C21.1094 48.427 20.7424 48.5067 20.3572 48.5053C18.951 48.5025 17.5435 48.53 16.1387 48.4902C14.8381 48.4531 14.0056 47.5934 14.0042 46.3326C13.9986 37.9538 13.9986 29.5736 14.0042 21.1947C14.0042 19.8172 14.8873 19.0056 16.3904 19.0042C21.7113 18.9973 27.0307 19.0015 32.3515 19.0015C35.4689 19.0015 38.5864 18.9987 41.7024 19.0028C43.4305 19.0056 44.2292 19.7925 44.2306 21.4804C44.232 22.6944 44.2292 23.9071 44.232 25.1211C44.2334 25.5098 44.2081 25.9081 43.6892 25.9081C43.1563 25.9067 43.1591 25.4796 43.1577 25.1088C43.1507 23.8041 43.1662 22.498 43.1479 21.1933C43.1366 20.4119 42.7246 20.0178 41.9203 20.0164C37.9592 20.0095 33.9981 20.0136 30.037 20.015C29.9245 20.015 29.8135 20.0356 29.6222 20.0548C29.6222 21.2634 29.6236 22.4472 29.6222 23.6297C29.6208 24.521 29.5843 24.5553 28.6689 24.5622C27.3218 24.5746 26.4921 25.0964 26.2306 26.0949C25.8903 27.3927 26.8254 28.6122 28.2006 28.6658C29.6236 28.7207 29.6236 28.7207 29.6236 30.1202C29.6236 31.1227 29.6236 32.1253 29.6236 33.1718C30.847 33.1718 32.007 33.1718 33.2233 33.1718C33.2627 32.117 33.5496 31.1076 34.4945 30.5116C35.0569 30.1572 35.7741 29.884 36.4336 29.8565C38.1772 29.7837 39.2163 30.9208 39.6466 33.1855C40.7799 33.1855 41.9189 33.1855 43.1563 33.1855C43.1563 32.1404 43.1563 31.1186 43.1563 30.0982C43.1563 29.4115 43.1535 28.7248 43.1591 28.0382C43.1619 27.6632 43.2801 27.2759 43.7188 27.346C43.9213 27.3789 44.2053 27.7772 44.2095 28.0148C44.2503 29.8688 44.2292 31.7229 44.2334 33.5783C44.2348 34.0754 43.9719 34.2814 43.4924 34.2814C42.0623 34.2814 40.6337 34.2828 39.2037 34.2801C38.7115 34.2801 38.4753 34.0301 38.4823 33.5522C38.4865 33.3009 38.4879 33.0482 38.4781 32.7968C38.4359 31.7943 37.6386 30.962 36.636 30.8659C35.5983 30.7656 34.6168 31.4441 34.3918 32.4384C34.3314 32.7048 34.3103 32.9822 34.3019 33.2555C34.2723 34.243 34.2372 34.2828 33.1924 34.2828C32.0267 34.2842 30.8624 34.2828 29.6616 34.2828C29.6616 35.4735 29.6616 36.5859 29.6616 37.6956C32.3431 38.3823 33.1938 39.2104 33.1277 41.0617C33.0701 42.6836 31.9986 43.6052 29.6236 44.0172C29.6236 45.1845 29.625 46.3684 29.6236 47.5522C29.6222 48.4325 29.5589 48.5012 28.6801 48.5039C26.9463 48.5094 25.2112 48.5053 23.4774 48.5053C23.3832 48.5053 23.2665 48.5383 23.2004 48.4957C22.9768 48.3515 22.6323 48.2114 22.5873 48.015C22.4973 47.6126 22.832 47.4863 23.2102 47.4863C24.7331 47.489 26.2573 47.4876 27.7802 47.4863C28.0305 47.4863 28.2808 47.4863 28.6042 47.4863C28.6042 46.2228 28.6014 45.0389 28.6056 43.8537C28.6084 42.9693 28.6421 42.9391 29.5688 42.9322C30.9201 42.9212 31.7413 42.4062 32.0084 41.4037C32.3515 40.1086 31.4193 38.8877 30.0427 38.8286C28.6056 38.7682 28.6056 38.7682 28.6056 37.3234C28.6028 36.3442 28.6028 35.3636 28.6028 34.3075ZM15.0546 33.2185C16.3933 33.2185 17.6082 33.2363 18.8231 33.2116C19.4783 33.1979 19.7919 33.4451 19.7469 34.0988C19.7328 34.3034 19.7413 34.5108 19.7539 34.7168C19.8299 35.9075 20.9098 36.7823 22.1092 36.6285C23.1835 36.4912 23.8795 35.6163 23.9105 34.3652C23.9386 33.2459 23.9653 33.2198 25.1155 33.2198C26.2545 33.2198 27.3949 33.2198 28.5676 33.2198C28.5676 32.0195 28.5676 30.9085 28.5676 29.8043C26.0281 29.1822 25.0663 28.3595 25.138 26.6895C25.1662 26.044 25.4179 25.345 25.7666 24.7888C26.374 23.8192 27.4343 23.55 28.555 23.5322C28.555 22.3346 28.555 21.203 28.555 20.015C28.254 20.015 28.0009 20.015 27.7478 20.015C24.0469 20.015 20.3459 20.015 16.6449 20.015C15.3893 20.015 15.0574 20.3309 15.056 21.5463C15.0518 25.1816 15.0546 28.8196 15.0546 32.4576C15.0546 32.6815 15.0546 32.9053 15.0546 33.2185Z" fill="#3D3D63"/>
<path d="M39.0029 38.7089C39.1435 36.6131 40.357 35.3236 42.1498 35.3208C43.6037 35.3181 45.2531 36.2313 45.3811 38.7089C46.5327 38.7089 47.6942 38.7089 48.8543 38.7089C49.9595 38.7103 49.9989 38.7487 49.9989 39.8323C49.9989 43.7697 50.0003 47.7071 49.9989 51.6445C49.9975 53.158 49.1749 53.9834 47.6253 53.9875C43.5011 53.9971 39.3769 53.9806 35.2527 53.9998C34.5777 54.0026 34.3457 53.7691 34.3654 53.114C34.4048 51.8107 34.3935 50.5046 34.3696 49.1999C34.3598 48.6465 34.5566 48.3938 35.143 48.4213C35.4903 48.4377 35.8489 48.4171 36.1878 48.3457C37.2255 48.126 37.9229 47.2347 37.8512 46.2651C37.7753 45.2255 36.9077 44.3918 35.8348 44.3259C34.3767 44.2353 34.3767 44.2353 34.3767 42.7685C34.3767 41.6932 34.402 40.6165 34.3682 39.5411C34.3485 38.8998 34.6368 38.6924 35.2513 38.7034C36.4887 38.724 37.7261 38.7089 39.0029 38.7089ZM35.4397 52.9794C35.7308 52.9794 35.9825 52.9794 36.2328 52.9794C39.9337 52.9794 43.6347 52.9794 47.337 52.9794C48.6307 52.9794 48.9457 52.6732 48.9471 51.3973C48.9485 47.7813 48.9485 44.1666 48.9457 40.5505C48.9457 40.3088 48.9218 40.0671 48.9049 39.7732C47.7645 39.7732 46.6916 39.7732 45.6173 39.7732C44.2843 39.7732 44.2787 39.7691 44.2562 38.4988C44.2337 37.2476 43.39 36.3659 42.2046 36.3563C41.0164 36.3467 40.1587 37.1982 40.0926 38.4562C40.0237 39.7732 40.0237 39.7732 38.6373 39.7732C38.0045 39.7732 37.3717 39.7732 36.7404 39.7732C36.3073 39.7732 35.8742 39.7732 35.4453 39.7732C35.4453 40.9996 35.4453 42.1079 35.4453 43.2052C37.8878 43.7258 38.889 44.65 38.8932 46.3544C38.8974 48.082 37.9173 48.9885 35.4397 49.5199C35.4397 50.6433 35.4397 51.775 35.4397 52.9794Z" fill="#3D3D63"/>
</g>
<defs>
<clipPath id="clip0_31_3248">
<rect width="36" height="35" fill="white" transform="translate(14 19)"/>
</clipPath>
</defs>
</svg>
