<svg width="74" height="75" viewBox="0 0 74 75" fill="none" xmlns="http://www.w3.org/2000/svg">
<circle cx="37.2445" cy="37.2445" r="36.4945" stroke="#CDCDCD" stroke-width="0.5" stroke-dasharray="3 3"/>
<g filter="url(#filter0_d_31_2115)">
<circle cx="37.5329" cy="37.5329" r="28.5329" fill="#DAF2FF"/>
</g>
<g clip-path="url(#clip0_31_2115)">
<path d="M36.0856 41.0011C35.3997 41.7053 34.7238 42.382 34.0728 43.0813C33.9654 43.1974 33.9079 43.4109 33.9166 43.5745C33.9591 44.3611 33.7692 45.0753 33.2132 45.636C30.9418 47.9272 28.6754 50.2247 26.3627 52.4748C25.3057 53.5024 23.6752 53.4162 22.6432 52.3936C21.6149 51.3747 21.5162 49.7303 22.5407 48.6752C24.7897 46.3614 27.0886 44.0964 29.38 41.8252C29.941 41.2708 30.6532 41.0797 31.4403 41.1109C31.6215 41.1184 31.8526 41.046 31.9826 40.9249C32.6672 40.2881 33.3269 39.6251 34.0366 38.9308C31.8301 35.823 31.2129 32.4641 32.3349 28.8568C33.137 26.2759 34.74 24.2694 37.0427 22.8559C41.7392 19.9716 47.6002 20.9405 51.2585 25.1784C54.6757 29.1365 54.6744 35.1787 51.251 39.2967C47.8938 43.3348 41.4644 44.8431 36.0856 41.0011ZM42.7925 42.201C48.2937 42.2047 52.824 37.6809 52.8003 32.2082C52.7766 26.7404 48.2774 22.2466 42.8162 22.2353C37.3588 22.2241 32.8409 26.7254 32.8284 32.1857C32.8159 37.7047 37.2863 42.1972 42.7925 42.201ZM29.3725 43.361C27.341 45.365 25.2982 47.3416 23.3154 49.3769C23.0292 49.6716 22.9093 50.2434 22.9181 50.683C22.9318 51.3535 23.3703 51.8305 24.015 52.054C24.7447 52.3062 25.3582 52.0689 25.8829 51.5445C27.5734 49.8564 29.2588 48.162 30.958 46.4826C31.2204 46.2228 31.5478 46.0293 31.8264 45.8195C30.9093 44.9018 30.1472 44.1376 29.3725 43.361ZM30.2746 42.4832C31.0355 43.2399 31.8026 44.004 32.561 44.7582C33.0358 44.0989 32.9846 43.2311 32.3799 42.6368C31.7702 42.0374 30.8906 41.9987 30.2746 42.4832ZM32.8334 41.5842C33.0408 41.8102 33.2195 42.0062 33.3682 42.1673C34.0104 41.5217 34.6288 40.8987 35.201 40.323C35.0636 40.1258 34.9024 39.8935 34.765 39.6962C34.0703 40.3755 33.4644 40.9673 32.8334 41.5842Z" fill="#3D3D63"/>
<path d="M51.5954 32.2633C51.5729 37.1067 47.651 41.0299 42.817 41.0462C38.0055 41.0624 33.9799 37.0418 33.9849 32.2246C33.9899 27.3749 37.963 23.4279 42.8257 23.4429C47.7084 23.4554 51.6179 27.3886 51.5954 32.2633ZM42.8032 39.9786C47.1012 39.9811 50.5833 36.5036 50.5783 32.2146C50.5733 27.9655 47.09 24.4718 42.842 24.4581C38.5477 24.4431 35.0669 27.9055 35.0519 32.2071C35.0369 36.5161 38.489 39.9773 42.8032 39.9786Z" fill="#3D3D63"/>
<path d="M49.4016 32.1507C49.3542 33.7914 48.9106 35.0837 48.046 36.2337C47.8199 36.5347 47.5513 36.7332 47.2077 36.4959C46.8491 36.2487 46.9678 35.9291 47.1989 35.6344C49.153 33.1321 48.5508 29.4349 46.0107 27.6918C45.7384 27.5058 45.4373 27.2673 45.7059 26.874C45.9857 26.4632 46.3081 26.628 46.6155 26.8527C48.4771 28.215 49.3679 30.0705 49.4016 32.1507Z" fill="#3D3D63"/>
<path d="M43.3981 26.7257C43.1545 26.6932 42.8821 26.7169 42.6759 26.6121C42.5148 26.5296 42.3361 26.2799 42.3461 26.1176C42.3573 25.9565 42.586 25.6918 42.7359 25.6806C43.1607 25.6469 43.6055 25.6693 44.0166 25.773C44.1852 25.8154 44.4014 26.1363 44.3839 26.3074C44.3664 26.4672 44.0853 26.637 43.8866 26.7282C43.7554 26.7881 43.5643 26.7182 43.4006 26.7057C43.4006 26.7119 43.3994 26.7182 43.3981 26.7257Z" fill="#3D3D63"/>
</g>
<defs>
<filter id="filter0_d_31_2115" x="4" y="7" width="67.0659" height="67.0659" filterUnits="userSpaceOnUse" color-interpolation-filters="sRGB">
<feFlood flood-opacity="0" result="BackgroundImageFix"/>
<feColorMatrix in="SourceAlpha" type="matrix" values="0 0 0 0 0 0 0 0 0 0 0 0 0 0 0 0 0 0 127 0" result="hardAlpha"/>
<feMorphology radius="1" operator="dilate" in="SourceAlpha" result="effect1_dropShadow_31_2115"/>
<feOffset dy="3"/>
<feGaussianBlur stdDeviation="2"/>
<feComposite in2="hardAlpha" operator="out"/>
<feColorMatrix type="matrix" values="0 0 0 0 0 0 0 0 0 0 0 0 0 0 0 0 0 0 0.07 0"/>
<feBlend mode="normal" in2="BackgroundImageFix" result="effect1_dropShadow_31_2115"/>
<feBlend mode="normal" in="SourceGraphic" in2="effect1_dropShadow_31_2115" result="shape"/>
</filter>
<clipPath id="clip0_31_2115">
<rect width="32" height="32" fill="white" transform="translate(21.8193 21.2051)"/>
</clipPath>
</defs>
</svg>
