<svg width="74" height="75" viewBox="0 0 74 75" fill="none" xmlns="http://www.w3.org/2000/svg">
<circle cx="37.2445" cy="37.2445" r="36.4945" stroke="#CDCDCD" stroke-width="0.5" stroke-dasharray="3 3"/>
<g filter="url(#filter0_d_31_7198)">
<circle cx="37.5329" cy="37.5329" r="28.5329" fill="#DAF2FF"/>
</g>
<g clip-path="url(#clip0_31_7198)">
<path d="M45.6806 45.572C44.4286 45.572 43.1925 45.5746 41.9564 45.572C40.4959 45.568 39.7524 44.8388 39.7365 43.3778C39.7258 42.4268 39.7351 41.4745 39.7338 40.5235C39.7338 40.0387 39.7537 39.5114 40.3884 39.4968C41.0336 39.4809 41.0628 40.0028 41.0628 40.4916C41.0615 41.4426 41.0562 42.3949 41.0655 43.3459C41.0735 44.0804 41.2394 44.2411 41.9697 44.2438C43.0982 44.2491 44.2268 44.2597 45.354 44.2305C45.5425 44.2252 45.8546 44.0711 45.8944 43.9263C46.5184 41.6671 49.1499 40.2047 51.2623 40.7878C51.3207 40.8037 51.3911 40.7812 51.5292 40.7705C51.5398 40.5607 51.5597 40.3482 51.5597 40.1357C51.5624 37.1485 51.5624 34.1614 51.5597 31.1743C51.5584 30.2246 51.4734 30.1396 50.5507 30.1383C47.6974 30.137 44.8442 30.1357 41.9909 30.1383C41.1863 30.1396 41.0708 30.2539 41.0642 31.0574C41.0562 32.0536 41.0628 33.0484 41.0615 34.0445C41.0602 34.4948 40.9912 34.9318 40.4229 34.9411C39.8161 34.9504 39.7378 34.4908 39.7365 34.0167C39.7325 32.9767 39.7205 31.9367 39.7391 30.8967C39.7643 29.5207 40.4747 28.8154 41.8396 28.8128C44.803 28.8048 47.7678 28.8061 50.7312 28.8114C52.1758 28.8141 52.8795 29.5114 52.8848 30.9724C52.8954 34.269 52.8768 37.5669 52.906 40.8635C52.9087 41.1902 53.068 41.6007 53.2977 41.8265C54.8325 43.3313 55.2534 45.3807 54.3506 47.2203C53.4477 49.0585 51.5557 50.0161 49.4526 49.696C47.5713 49.4105 46.0816 47.8299 45.7616 45.7818C45.7536 45.742 45.7311 45.7021 45.6806 45.572ZM53.4862 45.2426C53.4915 43.5053 52.0258 42.0151 50.2957 41.9991C48.5445 41.9819 47.0375 43.4947 47.0535 45.2559C47.0681 47.0131 48.5299 48.4648 50.2732 48.4568C52.0218 48.4502 53.4809 46.9905 53.4862 45.2426Z" fill="#3D3D63"/>
<path d="M36.6893 34.6715C36.3706 35.1895 36.1383 35.6796 35.8037 36.0847C35.3337 36.6545 35.2912 38.0133 35.7971 38.5419C36.6468 39.4318 36.7331 40.0985 36.1317 41.1611C35.979 41.4294 35.8303 41.7004 35.6709 41.966C35.1345 42.8625 34.4614 43.1494 33.4377 42.9223C32.5402 42.7231 31.4156 43.3726 31.1527 44.2399C30.858 45.2134 30.218 45.6969 29.205 45.7075C28.8731 45.7115 28.5411 45.7102 28.2105 45.7075C27.0979 45.7022 26.4965 45.252 26.1752 44.1867C25.9388 43.4018 24.7744 42.7257 23.9778 42.9103C22.8917 43.1627 22.2 42.8705 21.6397 41.9182C21.4936 41.6711 21.3569 41.4188 21.2148 41.1691C20.6081 40.1012 20.6904 39.4238 21.5308 38.5525C22.0433 38.0212 22.042 36.6399 21.5295 36.0967C20.693 35.2121 20.6094 34.5307 21.2095 33.4722C21.3728 33.184 21.5361 32.8957 21.7101 32.6142C22.2372 31.7575 22.9276 31.4772 23.9074 31.7189C24.7757 31.9328 25.9269 31.2687 26.1964 30.3987C26.5084 29.3906 27.078 28.9629 28.1375 28.9483C28.4694 28.943 28.8014 28.9443 29.132 28.9483C30.3176 28.959 30.846 29.3654 31.1793 30.5196C31.3771 31.2036 32.6066 31.9195 33.2996 31.7548C34.5225 31.4653 35.1332 31.7203 35.7625 32.836C36.0799 33.4004 36.3481 33.9928 36.6893 34.6715ZM33.9316 41.7468C34.1162 41.6207 34.3419 41.529 34.4747 41.3617C34.6659 41.1239 34.7681 40.8171 34.9473 40.5674C35.2607 40.1291 35.2275 39.7692 34.8053 39.4212C34.2529 38.9656 34.0232 38.3785 34.1202 37.656C34.1587 37.3744 34.0551 37.0649 34.1281 36.7993C34.2622 36.3105 34.3671 35.7434 34.6884 35.3954C35.1611 34.8814 35.3005 34.4696 34.8571 33.9078C34.7349 33.7537 34.6459 33.5718 34.5557 33.3951C34.3525 32.9953 34.0591 32.8652 33.6289 33.0352C32.9106 33.3208 32.2547 33.2145 31.6493 32.7191C31.4475 32.5544 31.2019 32.4309 30.9589 32.3312C30.4238 32.1108 30.0773 31.7296 29.9883 31.1664C29.8781 30.4758 29.5396 30.149 28.82 30.2712C28.6261 30.3044 28.4216 30.2898 28.2238 30.2739C27.7724 30.238 27.5201 30.424 27.4431 30.8822C27.3117 31.6658 26.8735 32.1998 26.1114 32.4667C25.9481 32.5238 25.7914 32.6248 25.6573 32.735C25.0984 33.1972 24.477 33.338 23.8052 33.0618C23.2462 32.8306 22.9276 33.0418 22.6979 33.5359C22.6142 33.7152 22.5253 33.8998 22.4031 34.0526C22.0354 34.5108 22.119 34.8947 22.5518 35.2466C23.0962 35.6889 23.2847 36.2627 23.2117 36.9547C23.1745 37.304 23.2701 37.6746 23.1958 38.0119C23.1055 38.4237 22.9993 38.9058 22.7258 39.1901C21.8893 40.0587 22.0964 40.0016 22.5678 40.8702C22.6302 40.9871 22.7125 41.0934 22.7682 41.2129C22.9541 41.6153 23.2223 41.7229 23.6751 41.6167C25.2869 41.2368 26.9638 42.225 27.4524 43.8255C27.5772 44.2359 27.7963 44.4125 28.2145 44.386C28.4562 44.3714 28.7044 44.3554 28.9434 44.3886C29.5555 44.4763 29.7985 44.1681 29.9684 43.6223" fill="#3D3D63"/>
<path d="M44.9183 24.5174C44.8784 24.2119 44.7736 23.9555 44.836 23.7523C44.9209 23.4774 45.0789 23.1214 45.3046 23.0192C45.6751 22.8505 45.9951 23.0882 46.0867 23.5C46.2699 24.3168 46.4398 25.1376 46.5952 25.9598C46.6948 26.4858 46.3973 26.7487 45.918 26.8298C45.136 26.9626 44.3513 27.0848 43.5653 27.199C43.1325 27.2614 42.8112 27.0874 42.7395 26.6412C42.6731 26.2241 42.8962 25.9757 43.3157 25.904C43.576 25.8589 43.8349 25.8017 44.2053 25.726C43.9915 25.5773 43.8481 25.4604 43.6915 25.3687C38.9648 22.6127 32.8919 23.0112 28.5609 26.3622C28.5091 26.4034 28.4587 26.4472 28.4082 26.4897C28.0325 26.8005 27.6169 26.9905 27.2597 26.523C26.9278 26.0886 27.2 25.7526 27.5638 25.4631C29.1756 24.1813 30.9733 23.2675 32.9609 22.7402C36.9507 21.6817 40.7426 22.2076 44.3421 24.2052C44.512 24.2982 44.6819 24.3899 44.9183 24.5174Z" fill="#3D3D63"/>
<path d="M29.1079 50.0545C29.1583 50.4038 29.2752 50.6827 29.2114 50.9111C29.1344 51.1874 28.9432 51.5766 28.7308 51.6297C28.525 51.6802 28.0656 51.4132 28.0032 51.2007C27.7549 50.3586 27.5983 49.4873 27.4456 48.6187C27.3672 48.1751 27.6129 47.9121 28.059 47.839C28.8423 47.7115 29.6244 47.5734 30.409 47.4539C30.8459 47.3874 31.2335 47.4871 31.3026 47.9971C31.369 48.4912 31.0676 48.713 30.6042 48.7714C30.3931 48.798 30.1873 48.8631 29.8726 48.9335C31.5548 49.9482 33.2689 50.526 35.1038 50.7597C38.4815 51.1901 41.5897 50.4476 44.4363 48.5921C44.8479 48.3238 45.2289 48.2641 45.5157 48.7249C45.7972 49.1765 45.5117 49.478 45.1546 49.7105C42.223 51.6151 39.0206 52.4439 35.5287 52.1411C33.253 51.9471 31.1433 51.2379 29.1079 50.0545Z" fill="#3D3D63"/>
<path d="M46.3791 32.8172C47.1969 32.8172 48.0148 32.8225 48.834 32.8145C49.2695 32.8105 49.6001 32.9726 49.6173 33.4295C49.6373 33.9183 49.3027 34.1374 48.8446 34.1401C47.1863 34.148 45.528 34.1454 43.8697 34.1414C43.4116 34.1401 43.0784 33.9488 43.0943 33.4428C43.1089 32.9752 43.4196 32.8105 43.8591 32.8145C44.6995 32.8225 45.5399 32.8172 46.3791 32.8172Z" fill="#3D3D63"/>
<path d="M46.403 36.5258C47.2208 36.5258 48.0387 36.5284 48.8566 36.5244C49.2947 36.5218 49.6094 36.6945 49.62 37.1567C49.6306 37.6162 49.312 37.8394 48.8898 37.8433C47.1876 37.858 45.4855 37.858 43.7847 37.842C43.3545 37.838 43.0651 37.5936 43.0943 37.1288C43.1222 36.6998 43.4037 36.5258 43.8166 36.5271C44.6783 36.5284 45.54 36.5271 46.403 36.5258Z" fill="#3D3D63"/>
<path d="M44.6491 40.3785C44.9571 40.3785 45.2957 40.2975 45.5626 40.4024C45.7989 40.4954 46.0724 40.7796 46.1043 41.0107C46.1295 41.1927 45.8294 41.5832 45.6449 41.6031C44.9532 41.6735 44.2442 41.6775 43.5537 41.5978C43.3772 41.5778 43.1289 41.1568 43.1329 40.923C43.1355 40.7371 43.4449 40.4648 43.6679 40.3971C43.9706 40.3054 44.3198 40.3745 44.6504 40.3745C44.6478 40.3758 44.6478 40.3772 44.6491 40.3785Z" fill="#3D3D63"/>
<path d="M40.2252 37.9784C40.0712 37.7341 39.8229 37.5043 39.7857 37.2426C39.7273 36.8296 40.046 36.5427 40.4297 36.6343C40.6687 36.6914 40.9926 37.0314 41.0006 37.2546C41.0099 37.4976 40.6979 37.7526 40.5253 38.0023C40.4244 37.9944 40.3248 37.9864 40.2252 37.9784Z" fill="#3D3D63"/>
<path d="M49.7992 45.4817C50.2254 45.0169 50.6025 44.5865 51.0008 44.1774C51.2995 43.8706 51.6646 43.7856 51.9913 44.1084C52.3126 44.4271 52.2515 44.7857 51.9435 45.0979C51.3871 45.6624 50.8242 46.2215 50.2639 46.782C49.9214 47.1247 49.5682 47.126 49.2203 46.7993C48.9627 46.5589 48.7185 46.3052 48.4715 46.0542C48.1741 45.7527 48.048 45.406 48.3693 45.0647C48.7078 44.7034 49.0716 44.7831 49.4035 45.1138C49.4952 45.2068 49.5947 45.2931 49.7992 45.4817Z" fill="#3D3D63"/>
<path d="M25.0649 37.328C25.0623 35.3038 26.6436 33.714 28.6617 33.71C30.6812 33.706 32.2691 35.2892 32.2731 37.312C32.2771 39.3336 30.6918 40.9287 28.6763 40.9314C26.6609 40.934 25.0663 39.3429 25.0649 37.328ZM30.944 37.3267C30.9467 36.0476 29.9788 35.0581 28.7082 35.0382C27.4084 35.0182 26.3927 36.0157 26.3913 37.3147C26.39 38.5831 27.3738 39.5899 28.6298 39.6045C29.9337 39.6204 30.9427 38.627 30.944 37.3267Z" fill="#3D3D63"/>
</g>
<defs>
<filter id="filter0_d_31_7198" x="4" y="7" width="67.0659" height="67.0659" filterUnits="userSpaceOnUse" color-interpolation-filters="sRGB">
<feFlood flood-opacity="0" result="BackgroundImageFix"/>
<feColorMatrix in="SourceAlpha" type="matrix" values="0 0 0 0 0 0 0 0 0 0 0 0 0 0 0 0 0 0 127 0" result="hardAlpha"/>
<feMorphology radius="1" operator="dilate" in="SourceAlpha" result="effect1_dropShadow_31_7198"/>
<feOffset dy="3"/>
<feGaussianBlur stdDeviation="2"/>
<feComposite in2="hardAlpha" operator="out"/>
<feColorMatrix type="matrix" values="0 0 0 0 0 0 0 0 0 0 0 0 0 0 0 0 0 0 0.07 0"/>
<feBlend mode="normal" in2="BackgroundImageFix" result="effect1_dropShadow_31_7198"/>
<feBlend mode="normal" in="SourceGraphic" in2="effect1_dropShadow_31_7198" result="shape"/>
</filter>
<clipPath id="clip0_31_7198">
<rect width="34" height="30" fill="white" transform="translate(20.8193 22.2051)"/>
</clipPath>
</defs>
</svg>
