<svg width="64" height="74" viewBox="0 0 64 74" fill="none" xmlns="http://www.w3.org/2000/svg">
<path fill-rule="evenodd" clip-rule="evenodd" d="M-6.88536e-06 18.5L32 2.79753e-06L64 18.5L64 55.5L32 74L-3.65071e-06 55.5L-6.88536e-06 18.5Z" fill="#DAF2FF"/>
<g clip-path="url(#clip0_31_768)">
<path d="M17.0048 47.9714L16.9048 47.9715C16.8988 40.3171 16.8976 32.6627 16.906 25.0072L17.0048 47.9714ZM17.0048 47.9714L16.9048 47.9715C16.9054 48.6649 17.0977 49.2027 17.4908 49.5657C17.8826 49.9274 18.4571 50.1001 19.19 50.1001C22.0243 50.1008 24.8591 50.1006 27.6937 50.1003C29.1109 50.1002 30.5281 50.1001 31.9452 50.1001C32.8029 50.1001 33.6607 50.1001 34.5185 50.1002C37.9526 50.1003 41.3867 50.1005 44.8208 50.0978C45.5476 50.0978 46.1204 49.9181 46.5118 49.5521C46.9044 49.1851 47.0988 48.6456 47.0988 47.9601C47.1 40.325 47.1 32.6887 47.0988 25.0536C47.0988 24.3612 46.9098 23.818 46.5222 23.4489C46.1355 23.0807 45.5672 22.9012 44.841 22.9012C36.2787 22.8989 27.7153 22.8989 19.1519 22.9012L19.1518 22.9012M17.0048 47.9714L19.1518 22.9012M19.1518 22.9012C18.4355 22.9018 17.871 23.0757 17.4851 23.4347M19.1518 22.9012L17.4851 23.4347M19.3462 23.6184C19.3394 23.6184 19.3326 23.6184 19.3257 23.6184C19.1344 23.6183 18.9401 23.6183 18.7525 23.6477C18.1206 23.7493 17.701 24.1509 17.6879 24.7568C17.6695 25.6252 17.6734 26.4935 17.6773 27.3816C17.679 27.7606 17.6807 28.1432 17.6807 28.531H46.293L45.84 23.9219C45.505 23.7335 45.0675 23.6297 44.6729 23.6297M19.3462 23.6184V23.7184L19.3462 23.7184L19.3462 23.6184ZM19.3462 23.6184C20.2348 23.6183 21.1233 23.6181 22.0119 23.618C29.5654 23.6168 37.1196 23.6155 44.6729 23.6297M44.6729 23.6297L44.6727 23.7297H44.6729V23.6297ZM17.4851 23.4347C17.0979 23.795 16.9066 24.3265 16.906 25.0072L17.4851 23.4347ZM46.1931 28.431H46.1812H46.1253H46.0695H46.0136H45.9577H45.9018H45.8459H45.79H45.7341H45.6782H45.6223H45.5664H45.5106H45.4547H45.3988H45.3429H45.287H45.2311H45.1753H45.1194H45.0635H45.0076H44.9517H44.8959H44.84H44.7841H44.7282H44.6724H44.6165H44.5606H44.5047H44.4489H44.393H44.3371H44.2813H44.2254H44.1695H44.1137H44.0578H44.0019H43.9461H43.8902H43.8343H43.7785H43.7226H43.6667H43.6109H43.555H43.4992H43.4433H43.3874H43.3316H43.2757H43.2199H43.164H43.1082H43.0523H42.9964H42.9406H42.8847H42.8289H42.773H42.7172H42.6613H42.6055H42.5496H42.4938H42.4379H42.3821H42.3262H42.2704H42.2145H42.1587H42.1029H42.047H41.9912H41.9353H41.8795H41.8236H41.7678H41.7119H41.6561H41.6003H41.5444H41.4886H41.4327H41.3769H41.3211H41.2652H41.2094H41.1536H41.0977H41.0419H40.986H40.9302H40.8744H40.8185H40.7627H40.7069H40.651H40.5952H40.5394H40.4835H40.4277H40.3719H40.316H40.2602H40.2044H40.1485H40.0927H40.0369H39.9811H39.9252H39.8694H39.8136H39.7577H39.7019H39.6461H39.5903H39.5344H39.4786H39.4228H39.367H39.3111H39.2553H39.1995H39.1437H39.0878H39.032H38.9762H38.9204H38.8645H38.8087H38.7529H38.6971H38.6412H38.5854H38.5296H38.4738H38.4179H38.3621H38.3063H38.2505H38.1947H38.1388H38.083H38.0272H37.9714H37.9156H37.8597H37.8039H37.7481H37.6923H37.6365H37.5806H37.5248H37.469H37.4132H37.3574H37.3015H37.2457H37.1899H37.1341H37.0783H37.0224H36.9666H36.9108H36.855H36.7992H36.7434H36.6875H36.6317H36.5759H36.5201H36.4643H36.4084H36.3526H36.2968H36.241H36.1852H36.1294H36.0735H36.0177H35.9619H35.9061H35.8503H35.7944H35.7386H35.6828H35.627H35.5712H35.5154H35.4595H35.4037H35.3479H35.2921H35.2363H35.1804H35.1246H35.0688H35.013H34.9572H34.9014H34.8455H34.7897H34.7339H34.6781H34.6223H34.5664H34.5106H34.4548H34.399H34.3432H34.2873H34.2315H34.1757H34.1199H34.0641H34.0082H33.9524H33.8966H33.8408H33.7849H33.7291H33.6733H33.6175H33.5617H33.5058H33.45H33.3942H33.3384H33.2825H33.2267H33.1709H33.1151H33.0592H33.0034H32.9476H32.8918H32.8359H32.7801H32.7243H32.6685H32.6126H32.5568H32.501H32.4451H32.3893H32.3335H32.2777H32.2218H32.166H32.1102H32.0543H31.9985H31.9427H31.8868H31.831H31.7752H31.7193H31.6635H31.6077H31.5518H31.496H31.4402H31.3843H31.3285H31.2727H31.2168H31.161H31.1052H31.0493H30.9935H30.9377H30.8818H30.826H30.7701H30.7143H30.6585H30.6026H30.5468H30.4909H30.4351H30.3792H30.3234H30.2676H30.2117H30.1559H30.1H30.0442H29.9883H29.9325H29.8766H29.8208H29.7649H29.7091H29.6532H29.5974H29.5415H29.4857H29.4298H29.374H29.3181H29.2623H29.2064H29.1506H29.0947H29.0388H28.983H28.9271H28.8713H28.8154H28.7596H28.7037H28.6478H28.592H28.5361H28.4803H28.4244H28.3685H28.3127H28.2568H28.2009H28.1451H28.0892H28.0333H27.9775H27.9216H27.8657H27.8098H27.754H27.6981H27.6422H27.5864H27.5305H27.4746H27.4187H27.3629H27.307H27.2511H27.1952H27.1393H27.0835H27.0276H26.9717H26.9158H26.8599H26.804H26.7482H26.6923H26.6364H26.5805H26.5246H26.4687H26.4128H26.3569H26.3011H26.2452H26.1893H26.1334H26.0775H26.0216H25.9657H25.9098H46.1931ZM17.7772 29.8511V29.85V29.8489V29.8478V29.8467V29.8457V29.8446V29.8435V29.8424V29.8414V29.8403V29.8392V29.8381V29.837V29.836V29.8349V29.8338V29.8327V29.8317V29.8306V29.8295V29.8284V29.8273V29.8263V29.8252V29.8241V29.823V29.8219V29.8209V29.8198V29.8187V29.8176V29.8166V29.8155V29.8144V29.8133V29.8122V29.8112V29.8101V29.809V29.8079V29.8068V29.8058V29.8047V29.8036V29.8025V29.8014V29.8003V29.7993V29.7982V29.7971V29.796V29.7949V29.7939V29.7928V29.7917V29.7906V29.7895V29.7884V29.7874V29.7863V29.7852V29.7841V29.783V29.782V29.7809V29.7798V29.7787V29.7776V29.7765V29.7754V29.7744V29.7733V29.7722V29.7711V29.77V29.7689V29.7679V29.7668V29.7657V29.7646V29.7635V29.7624V29.7613V29.7602V29.7592V29.7581V29.757V29.7559V29.7548V29.7537V29.7526V29.7515V29.7505V29.7494V29.7483V29.7472V29.7461V29.745V29.7439V29.7428V29.7417V29.7407V29.7396V29.7385V29.7374V29.7363V29.7352V29.7341V29.733V29.7319V29.7308V29.7297V29.7286V29.7275V29.7265V29.7254V29.7243V29.7232V29.7221V29.721V29.7199V29.7188V29.7177V29.7166V29.7155V29.7144V29.7133V29.7122V29.7111V29.71V29.7089V29.7078V29.7067V29.7056V29.7045V29.7034V29.7023V29.7012V29.7001V29.699V29.6979V29.6968V29.6957V29.6946V29.6935V29.6924V29.6913V29.6902V29.6891V29.688V29.6869V29.6858V29.6847V29.6836V29.6825V29.6814V29.6803V29.6791V29.678V29.6769V29.6758V29.6747V29.6736V29.6725V29.6714V29.6703V29.6692V29.6681V29.667V29.6658V29.6647V29.6636V29.6625V29.6614V29.6603V29.6592V29.6581V29.6569V29.6558V29.6547V29.6536V29.6525V29.6514V29.6502V29.6491V29.648V29.6469V29.6458V29.6447V29.6435V29.6424V29.6413V29.6402V29.6391V29.6379V29.6368V29.6357V29.6346V29.6335V29.6323V29.6312V29.6301V29.629V29.6278V29.6267V29.6256V29.6245V29.6233V29.6222V29.6211V29.6199V29.6188V29.6177V29.6166V29.6154V29.6143V29.6132V29.612V29.6109V29.6098V29.6086V29.6075V29.6064V29.6052V29.6041V29.603V29.6018V29.6007V29.5996V29.5984V29.5973V29.5962V29.595V29.5939V29.5927V29.5916V29.5905V29.5893V29.5882V29.587V29.5859V29.5848V29.5836V29.5825V29.5813V29.5802V29.579V29.5779V29.5767V29.5756V29.5744V29.5733V29.5722V29.571V29.5699V29.5687V29.5676V29.5664V29.5653V29.5641V29.5629V29.5618V29.5606V29.5595V29.5583V29.5572V29.556V29.5549V29.5537V29.5525V29.5514V29.5502V29.5491V29.5479V29.5467V29.5456V29.5444V29.5433V29.5421V29.5409V29.5398V29.5386V29.5374V29.5363V29.5351V29.5339V29.5328V29.5316V29.5304V29.5293V29.5281V29.5269V29.5258V29.5246V29.5234V29.5222V29.5211V29.5199V29.5187V29.5175V29.5164V29.5152V29.514V29.5128V29.5116V29.5105V29.5093V29.5081V29.5069V29.5057V29.5046V29.5034V29.5022V29.501V29.4998V29.4986V29.4974V29.4963V29.4951V29.4939V29.4927V29.4915V29.4903V29.4891V29.4879V29.4867V29.4855V29.4843V29.4832V29.482V29.4808V29.4796V29.4784V29.4772V29.476V29.4748V29.4736V29.4724V29.4712V29.47V29.4688V29.4676V29.4664V29.4651V29.4639V29.4627V29.4615V29.4603V29.4591V29.4579V29.4567V29.4555V29.4543V29.4531V29.4518V29.4506V29.4494V29.4482V29.447V29.4458V29.4445V29.4433V29.4421V29.4409V29.4397V29.4384V29.4372V29.436V29.4348V29.4335V29.4323V29.4311V29.4299V29.4286V29.4274V29.4262V29.4249V29.4237V29.4225V29.4213V29.42V29.4188V29.4175V29.4163V29.4151V29.4138V29.4126V29.4114V29.4101V29.4089V29.4076V29.4064V29.4052V29.4039V29.4027V29.4014V29.4002V29.3989V29.3977V29.3964V29.3952V29.3939V29.3927V29.3914V29.3902V29.3889V29.3877V29.3864V29.3852V29.3839V29.3826V29.3814V29.3801V29.3789V29.3776V29.3763V29.3751V29.3738V29.3725V29.3713V29.37V29.3687V29.3675V29.3662V29.3649V29.3637V29.3624V29.3611V29.3598V29.3586V29.3573V29.356V29.3547V29.3535V29.3522V29.3509V29.3508C27.2866 29.3508 36.7096 29.3508 46.199 29.3497V29.3498V29.3511V29.3524V29.3537V29.3549V29.3562V29.3575V29.3588V29.36V29.3613V29.3626V29.3639V29.3651V29.3664V29.3677V29.369V29.3702V29.3715V29.3728V29.3741V29.3753V29.3766V29.3779V29.3791V29.3804V29.3817V29.3829V29.3842V29.3855V29.3867V29.388V29.3893V29.3905V29.3918V29.3931V29.3943V29.3956V29.3969V29.3981V29.3994V29.4006V29.4019V29.4032V29.4044V29.4057V29.4069V29.4082V29.4095V29.4107V29.412V29.4132V29.4145V29.4157V29.417V29.4182V29.4195V29.4208V29.422V29.4233V29.4245V29.4258V29.427V29.4283V29.4295V29.4308V29.432V29.4333V29.4345V29.4358V29.437V29.4383V29.4395V29.4408V29.442V29.4433V29.4445V29.4457V29.447V29.4482V29.4495V29.4507V29.452V29.4532V29.4545V29.4557V29.4569V29.4582V29.4594V29.4607V29.4619V29.4631V29.4644V29.4656V29.4669V29.4681V29.4693V29.4706V29.4718V29.4731V29.4743V29.4755V29.4768V29.478V29.4792V29.4805V29.4817V29.4829V29.4842V29.4854V29.4866V29.4879V29.4891V29.4903V29.4916V29.4928V29.494V29.4953V29.4965V29.4977V29.4989V29.5002V29.5014V29.5026V29.5039V29.5051V29.5063V29.5075V29.5088V29.51V29.5112V29.5124V29.5137V29.5149V29.5161V29.5173V29.5186V29.5198V29.521V29.5222V29.5235V29.5247V29.5259V29.5271V29.5283V29.5296V29.5308V29.532V29.5332V29.5344V29.5357V29.5369V29.5381V29.5393V29.5405V29.5418V29.543V29.5442V29.5454V29.5466V29.5478V29.549V29.5503V29.5515V29.5527V29.5539V29.5551V29.5563V29.5575V29.5588V29.56V29.5612V29.5624V29.5636V29.5648V29.566V29.5672V29.5685V29.5697V29.5709V29.5721V29.5733V29.5745V29.5757V29.5769V29.5781V29.5793V29.5806V29.5818V29.583V29.5842V29.5854V29.5866V29.5878V29.589V29.5902V29.5914V29.5926V29.5938V29.595V29.5962V29.5974V29.5986V29.5998V29.601V29.6022V29.6035V29.6047V29.6059V29.6071V29.6083V29.6095V29.6107V29.6119V29.6131V29.6143V29.6155V29.6167V29.6179V29.6191V29.6203V29.6215V29.6227V29.6239V29.6251V29.6263V29.6275V29.6287V29.6299V29.6311V29.6322V29.6334V29.6346V29.6358V29.637V29.6382V29.6394V29.6406V29.6418V29.643V29.6442V29.6454V29.6466V29.6478V29.649V29.6502V29.6514V29.6526V29.6538V29.655V29.6561V29.6573V29.6585V29.6597V29.6609V29.6621V29.6633V29.6645V29.6657V29.6669V29.6681V29.6693V29.6705V29.6716V29.6728V29.674V29.6752V29.6764V29.6776V29.6788V29.68V29.6812V29.6823V29.6835V29.6847V29.6859V29.6871V29.6883V29.6895V29.6907V29.6919V29.693V29.6942V29.6954V29.6966V29.6978V29.699V29.7002V29.7013V29.7025V29.7037V29.7049V29.7061V29.7073V29.7085V29.7096V29.7108V29.712V29.7132V29.7144V29.7156V29.7168V29.7179V29.7191V29.7203V29.7215V29.7227V29.7239V29.725V29.7262V29.7274V29.7286V29.7298V29.731V29.7321V29.7333V29.7345V29.7357V29.7369V29.7381V29.7392V29.7404V29.7416V29.7428V29.744V29.7451V29.7463V29.7475V29.7487V29.7499V29.751V29.7522V29.7534V29.7546V29.7558V29.757V29.7581V29.7593V29.7605V29.7617V29.7629V29.764V29.7652V29.7664V29.7676V29.7687V29.7699V29.7711V29.7723V29.7735V29.7746V29.7758V29.777V29.7782V29.7794V29.7805V29.7817V29.7829V29.7841V29.7853V29.7864V29.7876V29.7888V29.79V29.7911V29.7923V29.7935V29.7947V29.7959V29.797V29.7982V29.7994V29.8006V29.8017V29.8029V29.8041V29.8053V29.8065V29.8076V29.8088V29.81V29.8112V29.8123V29.8135V29.8147V29.8159V29.817V29.8182V29.8194V29.8206V29.8218V29.8229V29.8241V29.8253V29.8265V29.8276V29.8288V29.83V29.8312V29.8323V29.8335V29.8347V29.8359V29.8371V29.8382V29.8394V29.8406V29.8418V29.8429V29.8441V29.8453V29.8465V29.8476V29.8488V29.85V29.8512V29.8523V29.8535V29.8547V29.8559V29.8571V29.8582V29.8594V29.8606V29.8618V29.8629V29.8641V29.8653V29.8665V29.8676V29.8688V29.87V29.8712V29.8724V29.8735V29.8747V29.8759C46.199 31.8756 46.1991 33.8753 46.1993 35.8749C46.1995 39.8739 46.1998 43.8727 46.199 47.8721C46.199 48.4277 46.1036 48.764 45.8921 48.9667C45.6793 49.1707 45.3243 49.2637 44.7384 49.2637C36.2549 49.266 27.7725 49.2649 19.2902 49.2637C18.6898 49.2637 18.3209 49.1675 18.0985 48.9579C17.8778 48.7501 17.7772 48.4075 17.7772 47.8473V47.8121V47.777V47.7418V47.7067V47.6715V47.6364V47.6012V47.5661V47.5309V47.4958V47.4606V47.4255V47.3903V47.3552V47.32V47.2849V47.2497V47.2146V47.1794V47.1443V47.1091V47.074V47.0388V47.0037V46.9685V46.9334V46.8982V46.8631V46.8279V46.7928V46.7576V46.7225V46.6873V46.6522V46.617V46.5819V46.5467V46.5116V46.4764V46.4413V46.4061V46.371V46.3358V46.3007V46.2655V46.2304V46.1952V46.1601V46.1249V46.0898V46.0546V46.0195V45.9843V45.9492V45.914V45.8789V45.8437V45.8086V45.7734V45.7383V45.7031V45.668V45.6328V45.5977V45.5625V45.5274V45.4922V45.4571V45.4219V45.3868V45.3516V45.3165V45.2813V45.2462V45.211V45.1759V45.1407V45.1056V45.0704V45.0353V45.0001V44.965V44.9298V44.8947V44.8595V44.8244V44.7892V44.7541V44.7189V44.6838V44.6486V44.6135V44.5783V44.5432V44.508V44.4729V44.4377V44.4026V44.3674V44.3323V44.2972V44.262V44.2269V44.1917V44.1566V44.1214V44.0863V44.0511V44.016V43.9808V43.9457V43.9105V43.8754V43.8402V43.8051V43.7699V43.7348V43.6996V43.6645V43.6293V43.5942V43.559V43.5239V43.4887V43.4536V43.4184V43.3833V43.3481V43.313V43.2778V43.2427V43.2075V43.1724V43.1372V43.1021V43.0669V43.0318V42.9966V42.9615V42.9263V42.8912V42.8561V42.8209V42.7858V42.7506V42.7155V42.6803V42.6452V42.61V42.5749V42.5397V42.5046V42.4694V42.4343V42.3991V42.364V42.3288V42.2937V42.2585V42.2234V42.1882V42.1531V42.1179V42.0828V42.0476V42.0125V41.9773V41.9422V41.907V41.8719V41.8368V41.8016V41.7665V41.7313V41.6962V41.661V41.6259V41.5907V41.5556V41.5204V41.4853V41.4501V41.415V41.3798V41.3447V41.3095V41.2744V41.2392V41.2041V41.1689V41.1338V41.0986V41.0635V41.0283V40.9932V40.958V40.9229V40.8878V40.8526V40.8175V40.7823V40.7472V40.712V40.6769V40.6417V40.6066V40.5714V40.5363V40.5011V40.466V40.4308V40.3957V40.3605V40.3254V40.2902V40.2551V40.2199V40.1848V40.1496V40.1145V40.0794V40.0442V40.0091V39.9739V39.9388V39.9036V39.8685V39.8333V39.7982V39.763V39.7279V39.6927V39.6576V39.6224V39.5873V39.5521V39.517V39.4818V39.4467V39.4115V39.3764V39.3412V39.3061V39.271V39.2358V39.2007V39.1655V39.1304V39.0952V39.0601V39.0249V38.9898V38.9546V38.9195V38.8843V38.8492V38.814V38.7789V38.7437V38.7086V38.6734V38.6383V38.6031V38.568V38.5328V38.4977V38.4626V38.4274V38.3923V38.3571V38.322V38.2868V38.2517V38.2165V38.1814V38.1462V38.1111V38.0759V38.0408V38.0056V37.9705V37.9353V37.9002V37.865V37.8299V37.7947V37.7596V37.7244V37.6893V37.6542V37.619V37.5839V37.5487V37.5136V37.4784V37.4433V37.4081V37.373V37.3378V37.3027V37.2675V37.2324V37.1972V37.1621V37.1269V37.0918V37.0566V37.0215V36.9863V36.9512V36.916V36.8809V36.8458V36.8106V36.7755V36.7403V36.7052V36.67V36.6349V36.5997V36.5646V36.5294V36.4943V36.4591V36.424V36.3888V36.3537V36.3185V36.2834V36.2482V36.2131V36.1779V36.1428V36.1076V36.0725V36.0373V36.0022V35.967V35.9319V35.8968V35.8616V35.8265V35.7913V35.7562V35.721V35.6859V35.6507V35.6156V35.5804V35.5453V35.5101V35.475V35.4398V35.4047V35.3695V35.3344V35.2992V35.2641V35.2289V35.1938V35.1586V35.1235V35.0883V35.0532V35.018V34.9829V34.9477V34.9126V34.8775V34.8423V34.8072V34.772V34.7369V34.7017V34.6666V34.6314V34.5963V34.5611V34.526V34.4908V34.4557V34.4205V34.3854V34.3502V34.3151V34.2799V34.2448V34.2096V34.1745V34.1393V34.1042V34.069V34.0339V33.9987V33.9636V33.9284V33.8933V33.8581V33.823V33.7878V33.7527V33.7175V33.6824V33.6472V33.6121V33.577V33.5418V33.5067V33.4715V33.4364V33.4012V33.3661V33.3309V33.2958V33.2606V33.2255V33.1903V33.1552V33.12V33.0849V33.0497V33.0146V32.9794V32.9443V32.9091V32.874V32.8388V32.8037V32.7685V32.7334V32.6982V32.6631V32.6279V32.5928V32.5576V32.5225V32.4873V32.4522V32.417V32.3819V32.3467V32.3116V32.2764V32.2413V32.2061V32.171V32.1358V32.1007V32.0655V32.0304V31.9952V31.9601V31.9249V31.8898V31.8546V31.8195V31.7843V31.7492V31.714V31.6789V31.6437V31.6086V31.5734V31.5383V31.5031V31.468V31.4328V31.3977V31.3625V31.3274V31.2922V31.2571V31.2219V31.1868V31.1516V31.1165V31.0813V31.0462V31.011V30.9759V30.9407V30.9056V30.8704V30.8353V30.8001V30.765V30.7298V30.6947V30.6595V30.6244V30.5892V30.5541V30.5189V30.4838V30.4486V30.4135V30.3783V30.3432V30.308V30.2729V30.2377V30.2026V30.1674V30.1323V30.0971V30.062V30.0268V29.9917V29.9565V29.9214V29.8862V29.8511Z" fill="#3D3D63" stroke="#3D3D63" stroke-width="0.2"/>
<path d="M39.4977 36.5655C39.4977 37.7378 39.4774 38.8266 39.5072 39.9143C39.5192 40.3814 39.357 40.5484 38.8611 40.5326C37.9514 40.5044 37.0394 40.5247 36.0368 40.5247C36.0368 41.0121 36.0416 41.4544 36.0356 41.8978C36.0237 42.7452 35.5337 43.2337 34.6396 43.2461C33.4879 43.2631 32.3351 43.2608 31.1823 43.2473C30.3155 43.2371 29.8172 42.7858 29.7576 41.97C29.7302 41.5977 29.7528 41.2209 29.7528 40.8C28.2304 40.8 26.7533 40.8 25.2249 40.8C25.2249 41.222 25.2249 41.6598 25.2249 42.172C25.6768 42.172 26.1286 42.1585 26.5792 42.1754C27.4495 42.2081 27.9336 42.6685 27.9431 43.4921C27.9574 44.5832 27.9574 45.6742 27.9431 46.7642C27.9324 47.616 27.4352 48.0809 26.5316 48.0899C25.3799 48.1012 24.2271 48.1023 23.0742 48.0888C22.2123 48.0786 21.714 47.6059 21.702 46.7833C21.6865 45.6742 21.6854 44.564 21.7032 43.4549C21.7163 42.6707 22.2099 42.2115 23.0468 42.1776C23.4987 42.1596 23.9517 42.1743 24.4727 42.1743C24.4727 41.6474 24.4941 41.1825 24.4667 40.7188C24.4405 40.2697 24.6491 40.1208 25.0998 40.1253C26.4112 40.1388 27.7225 40.1298 29.0339 40.1298C29.2485 40.1298 29.4619 40.1298 29.7481 40.1298C29.7481 39.639 29.7397 39.2114 29.7493 38.7838C29.7731 37.8055 30.2667 37.3407 31.2979 37.3339C32.3911 37.326 33.4832 37.3237 34.5764 37.335C35.5456 37.3452 36.0249 37.8179 36.0332 38.7397C36.0368 39.111 36.0332 39.4822 36.0332 39.8703C36.9822 39.8703 37.8644 39.8703 38.7848 39.8703C38.7848 38.7657 38.7848 37.7028 38.7848 36.6219C38.0099 36.4189 37.1217 36.8341 36.4445 36.2169C35.7531 35.5862 36.1608 34.7501 35.9879 33.9784C33.3437 33.9784 30.6935 33.9784 27.9455 33.9784C27.9455 34.3834 27.9526 34.7885 27.9443 35.1924C27.9264 36.0815 27.434 36.5576 26.5137 36.5633C25.3811 36.57 24.2485 36.57 23.116 36.5633C22.2254 36.5576 21.7116 36.0838 21.6997 35.2364C21.6842 34.1453 21.6854 33.0543 21.6997 31.9644C21.7104 31.1486 22.1896 30.6533 23.0564 30.6285C24.2271 30.5935 25.4014 30.5946 26.5721 30.6273C27.4638 30.6522 27.9276 31.152 27.9443 32.0084C27.9514 32.4168 27.9455 32.8252 27.9455 33.2596C30.6565 33.2596 33.2936 33.2596 36.032 33.2596C36.032 32.8659 36.0297 32.4631 36.032 32.0591C36.038 31.1825 36.5196 30.6522 37.4197 30.6262C38.5905 30.5935 39.7648 30.5935 40.9355 30.6273C41.7807 30.6522 42.2922 31.1554 42.3136 31.9644C42.3422 33.0543 42.3434 34.1465 42.3124 35.2364C42.2886 36.095 41.7366 36.5565 40.8163 36.5644C40.4061 36.5678 39.9925 36.5655 39.4977 36.5655ZM24.8256 35.9089C25.3811 35.9089 25.9367 35.8998 26.4922 35.9111C27.012 35.9224 27.2838 35.6742 27.2922 35.2071C27.3101 34.1374 27.3077 33.0667 27.2934 31.9971C27.2874 31.5356 27.0359 31.2592 26.5173 31.2592C25.3871 31.2592 24.2557 31.2592 23.1255 31.2592C22.6427 31.2592 22.3673 31.5074 22.3577 31.9441C22.3351 33.0329 22.3363 34.1228 22.3542 35.2116C22.3613 35.681 22.6427 35.9224 23.1589 35.9111C23.7144 35.8998 24.27 35.9089 24.8256 35.9089ZM35.3418 40.2855C35.3418 39.7597 35.3322 39.2339 35.3441 38.7082C35.3561 38.1846 35.064 37.9454 34.5454 37.9409C33.4545 37.9308 32.3637 37.9274 31.2729 37.942C30.6768 37.9499 30.4371 38.1812 30.4324 38.7318C30.4216 39.7642 30.4348 40.7977 30.4264 41.8301C30.4228 42.339 30.6815 42.6132 31.2085 42.6199C32.3387 42.6324 33.47 42.6346 34.6002 42.6188C35.0962 42.612 35.3561 42.3548 35.3441 41.8629C35.3322 41.3371 35.3418 40.8113 35.3418 40.2855ZM24.8136 47.4535C25.3692 47.4535 25.9247 47.4535 26.4791 47.4535C27.0144 47.4535 27.2922 47.1918 27.2957 46.6931C27.3041 45.6415 27.3065 44.5911 27.2946 43.5395C27.2886 43.0419 27.0001 42.7824 26.4684 42.7824C25.3775 42.7813 24.2867 42.7734 23.197 42.7858C22.6117 42.7926 22.3601 43.0239 22.3518 43.5779C22.3351 44.6102 22.3434 45.6426 22.3482 46.675C22.3506 47.2076 22.6486 47.4592 23.2066 47.4558C23.7431 47.4513 24.2783 47.4535 24.8136 47.4535ZM41.6377 33.5835C41.6377 33.0769 41.6448 32.5703 41.6353 32.0637C41.6246 31.4984 41.3968 31.2671 40.8163 31.2614C39.7254 31.2513 38.6358 31.2524 37.5449 31.2614C36.9512 31.2659 36.7307 31.4781 36.7259 32.0512C36.7163 33.0836 36.7307 34.116 36.7199 35.1473C36.7152 35.6573 36.9417 35.9156 37.4984 35.9111C38.6083 35.9032 39.7194 35.9156 40.8294 35.9055C41.4159 35.8998 41.6269 35.681 41.6353 35.1033C41.6436 34.5967 41.6377 34.0901 41.6377 33.5835Z" fill="#3D3D63"/>
<path d="M36.3908 26.4154C35.3393 26.4154 34.2866 26.4289 33.2363 26.403C33.0491 26.3985 32.8667 26.2281 32.6831 26.1345C32.8679 26.0182 33.0515 25.8039 33.2375 25.8016C35.3607 25.7779 37.484 25.7779 39.6073 25.8005C39.8052 25.8027 40.0007 26.0036 40.1974 26.1119C40.0007 26.2134 39.8064 26.3973 39.6061 26.403C38.5343 26.4312 37.4626 26.4154 36.3908 26.4154Z" fill="#3D3D63"/>
<path d="M31.0238 26.1559C30.9987 26.9153 30.2989 27.546 29.5085 27.5223C28.7133 27.4975 28.0421 26.8363 28.0529 26.0894C28.0648 25.3075 28.7682 24.6858 29.6087 24.7117C30.4181 24.7365 31.05 25.3808 31.0238 26.1559ZM30.3275 26.0849C30.3168 25.6606 29.9842 25.3582 29.5312 25.3639C29.0793 25.3684 28.7539 25.6798 28.7551 26.1063C28.7551 26.5531 29.1151 26.8803 29.5836 26.8589C30.0283 26.8385 30.3383 26.517 30.3275 26.0849Z" fill="#3D3D63"/>
<path d="M21.1188 24.7117C21.9426 24.7162 22.5733 25.321 22.5733 26.1051C22.5733 26.8712 21.9164 27.511 21.12 27.5211C20.3165 27.5313 19.5916 26.8374 19.6143 26.0781C19.6369 25.3086 20.2986 24.7072 21.1188 24.7117ZM21.1117 26.8588C21.5468 26.8566 21.9033 26.5237 21.908 26.1153C21.9128 25.7023 21.5707 25.374 21.126 25.365C20.6503 25.3548 20.2855 25.6922 20.2998 26.1288C20.3129 26.5328 20.6789 26.8611 21.1117 26.8588Z" fill="#3D3D63"/>
<path d="M23.8584 26.0949C23.8632 25.3118 24.4998 24.7104 25.3236 24.7104C26.1426 24.7104 26.8043 25.3209 26.8174 26.0892C26.8305 26.8519 26.1021 27.5379 25.2986 27.521C24.4986 27.5041 23.8537 26.8666 23.8584 26.0949ZM26.1331 26.1016C26.1295 25.6853 25.7886 25.3694 25.3367 25.3649C24.8873 25.3603 24.5392 25.6718 24.5272 26.0881C24.5153 26.5191 24.892 26.8723 25.351 26.8598C25.7802 26.8474 26.1355 26.5022 26.1331 26.1016Z" fill="#3D3D63"/>
<path d="M43.5438 25.6289C43.8192 25.8004 44.0934 25.9719 44.3688 26.1423C44.0994 26.2732 43.8299 26.403 43.5581 26.535C43.4234 26.7595 43.2601 27.0325 43.0956 27.3056C42.9287 27.0528 42.7606 26.8012 42.5698 26.5135C42.3743 26.412 42.0941 26.2676 41.814 26.122C42.081 25.9629 42.3469 25.8038 42.6127 25.6447C42.7534 25.427 42.9179 25.172 43.0836 24.917C43.2458 25.1686 43.4079 25.4202 43.5438 25.6289Z" fill="#3D3D63"/>
</g>
<defs>
<clipPath id="clip0_31_768">
<rect width="30" height="27" fill="white" transform="translate(17 23)"/>
</clipPath>
</defs>
</svg>
