<svg width="64" height="74" viewBox="0 0 64 74" fill="none" xmlns="http://www.w3.org/2000/svg">
<path fill-rule="evenodd" clip-rule="evenodd" d="M-6.88536e-06 18.5L32 2.79753e-06L64 18.5L64 55.5L32 74L-3.65071e-06 55.5L-6.88536e-06 18.5Z" fill="#DAF2FF"/>
<path d="M21.3702 42.943V42.848L20.7802 42.8222C20.7799 42.8222 20.7797 42.8222 20.7794 42.8222C17.2226 42.7297 14.4813 40.1277 14.3002 36.6825C14.1251 33.3473 16.5976 30.4581 20.0449 29.984L20.045 29.984L20.0507 29.9832C20.3634 29.9401 20.6055 29.9068 20.7909 29.8624C20.9779 29.8176 21.1221 29.7585 21.2289 29.6542C21.3366 29.5492 21.3945 29.4099 21.4348 29.2314C21.4744 29.0554 21.4997 28.8272 21.5321 28.5344L21.5328 28.528L21.5328 28.528C22.2263 22.2436 28.6541 17.9193 34.7326 19.6472L34.7598 19.5518L34.7326 19.6472C39.0161 20.8647 41.915 24.2472 42.4576 28.6583C42.4915 28.935 42.5187 29.1509 42.5578 29.317C42.5971 29.4836 42.6513 29.6144 42.749 29.7112C42.8472 29.8084 42.9769 29.8592 43.1405 29.8928C43.303 29.9262 43.5131 29.9451 43.7811 29.9683L43.7812 29.9683C46.8512 30.2326 49.231 32.5496 49.667 35.7088L49.667 35.7088C50.0564 38.5216 48.2052 41.4831 45.3841 42.4283L45.3841 42.4283C44.9673 42.5682 44.5309 42.6562 44.0808 42.7314C43.9193 42.7584 43.7551 42.7838 43.5896 42.8095C43.2968 42.8549 42.9995 42.901 42.7042 42.9575L42.623 42.9731V43.0557V43.0574V43.0591V43.0608V43.0625V43.0642V43.0659V43.0676V43.0694V43.0711V43.0728V43.0745V43.0762V43.0779V43.0796V43.0813V43.0831V43.0848V43.0865V43.0882V43.0899V43.0917V43.0934V43.0951V43.0968V43.0986V43.1003V43.102V43.1038V43.1055V43.1072V43.109V43.1107V43.1125V43.1142V43.1159V43.1177V43.1194V43.1212V43.1229V43.1247V43.1264V43.1282V43.1299V43.1317V43.1335V43.1352V43.137V43.1387V43.1405V43.1423V43.144V43.1458V43.1476V43.1493V43.1511V43.1529V43.1546V43.1564V43.1582V43.16V43.1618V43.1635V43.1653V43.1671V43.1689V43.1707V43.1724V43.1742V43.176V43.1778V43.1796V43.1814V43.1832V43.185V43.1868V43.1886V43.1904V43.1922V43.194V43.1958V43.1976V43.1994V43.2012V43.203V43.2048V43.2066V43.2084V43.2102V43.212V43.2139V43.2157V43.2175V43.2193V43.2211V43.2229V43.2248V43.2266V43.2284V43.2302V43.2321V43.2339V43.2357V43.2375V43.2394V43.2412V43.243V43.2449V43.2467V43.2485V43.2504V43.2522V43.2541V43.2559V43.2577V43.2596V43.2614V43.2633V43.2651V43.267V43.2688V43.2707V43.2725V43.2744V43.2762V43.2781V43.2799V43.2818V43.2836V43.2855V43.2873V43.2892V43.2911V43.2929V43.2948V43.2967V43.2985V43.3004V43.3023V43.3041V43.306V43.3079V43.3097V43.3116V43.3135V43.3154V43.3172V43.3191V43.321V43.3229V43.3247V43.3266V43.3285V43.3304V43.3323V43.3342V43.336V43.3379V43.3398V43.3417V43.3436V43.3455V43.3474V43.3493V43.3512V43.3531V43.3549V43.3568V43.3587V43.3606V43.3625V43.3644V43.3663V43.3682V43.3701V43.372V43.3739V43.3759V43.3778V43.3797V43.3816V43.3835V43.3854V43.3873V43.3892V43.3911V43.393V43.395V43.3969V43.3988V43.4007V43.4026V43.4045V43.4065V43.4084V43.4103V43.4122V43.4142V43.4161V43.418V43.4199V43.4219V43.4238V43.4257V43.4276V43.4296V43.4315V43.4334V43.4354V43.4373V43.4392V43.4412V43.4431V43.445V43.447V43.4489V43.4509V43.4528V43.4547V43.4567V43.4586V43.4606V43.4625V43.4645V43.4664V43.4683V43.4703V43.4722V43.4742V43.4761V43.4781V43.48V43.482V43.4839V43.4859V43.4878V43.4898V43.4918V43.4937V43.4957V43.4976V43.4996V43.5015V43.5035V43.5055V43.5074V43.5094V43.5113V43.5133V43.5153V43.5172V43.5192V43.5212V43.5231V43.5251V43.5271V43.529V43.531V43.533V43.535V43.5369V43.5389V43.5409V43.5428V43.5448V43.5468V43.5488V43.5507V43.5527V43.5547V43.5567V43.5587V43.5606V43.5626V43.5646V43.5666V43.5686V43.5705V43.5725V43.5745V43.5765V43.5785V43.5805V43.5824V43.5844V43.5864V43.5884V43.5904V43.5924V43.5944V43.5964V43.5984V43.6003V43.6023V43.6043V43.6063V43.6083V43.6103V43.6123V43.6143V43.6163V43.6183V43.6203V43.6223V43.6243V43.6263V43.6283V43.6303V43.6323V43.6343V43.6363V43.6383V43.6403V43.6423V43.6443V43.6463V43.6483V43.6503V43.6523V43.6543V43.6563V43.6583V43.6603V43.6623V43.6644V43.6664V43.6684V43.6704V43.6724V43.6744V43.6764V43.6784V43.6804V43.6824V43.6845V43.6865V43.6885V43.6905V43.6925V43.6945V43.6965V43.6986V43.7006V43.7026V43.7046V43.7066V43.7086V43.7107V43.7127V43.7147V43.7167V43.7187V43.7208V43.7228V43.7248V43.7268V43.7288V43.7309V43.7329V43.7349V43.7369V43.739V43.741V43.743V43.745V43.7471V43.7491V43.7511V43.7531V43.7552V43.7572V43.7592V43.7612V43.7633V43.7653V43.7673V43.7693V43.7714V43.7734V43.7754V43.7775V43.7795V43.7815V43.7836V43.7856V43.7876V43.7896V43.7917V43.7937V43.7957V43.7978V43.7998V43.8018V43.8039V43.8059V43.8079V43.81V43.812V43.814V43.8161V43.8181V43.8202V43.8222V43.8242V43.8263V43.8283V43.8303V43.8324V43.8344V43.8364V43.8385V43.8405V43.8426V43.8446V43.8466V43.8487V43.8507V43.8527V43.8548V43.8568V43.8589V43.8609V43.8629V43.865V43.867V43.8691V43.8711V43.8731V43.8752V43.8772V43.8793V43.8813V43.8834V43.8854V43.8874V43.8895V43.8915V43.8936V43.8956V43.8976V43.8997V43.9017V43.9038V43.9058V43.9079V43.9099V43.9119V43.914V43.916V43.9181V43.9201V43.9222V43.9242V43.9262V43.9283V43.9303V43.9324V43.9344V43.9365V43.9385V43.9406V43.9426V43.9446V43.9467V43.9487V43.9508V43.9528V43.9549V43.9569V43.959V43.961V43.963V43.9651V43.9671V43.9692V43.9712V43.9733V43.9753V43.9774V43.9794V43.9814V43.9835V43.9855V43.9876V43.9896V43.9917V43.9937V43.9958V43.9978V43.9998V44.0019V44.0039V44.006V44.008V44.0101V44.0121V44.0142V44.0162V44.0182V44.0203V44.0223V44.0244V44.0264V44.0285V44.0305V44.0326V44.0346V44.0366V44.0387V44.0407V44.0428V44.0448V44.0469V44.1372L42.7129 44.1463C48.1345 44.6969 52.4397 39.2095 50.6888 33.9897C49.6917 31.0118 47.5782 29.2334 44.4705 28.6812L44.4702 28.6811C44.4304 28.6742 44.394 28.6685 44.3592 28.6632C44.3108 28.6557 44.2655 28.6487 44.2181 28.6392C44.141 28.6238 44.0758 28.6046 44.0207 28.5747C43.9198 28.52 43.8315 28.4182 43.7968 28.168L43.7968 28.1679C43.0471 22.7854 38.9161 18.7441 33.4633 18.0038L33.4633 18.0038C27.1467 17.1479 21.0944 21.6823 20.2083 27.9853L20.2083 27.9853C20.1682 28.2703 20.0917 28.4211 19.9855 28.513C19.8761 28.6077 19.7188 28.6551 19.4782 28.6943L19.4781 28.6943C14.7895 29.4607 11.9114 34.026 13.214 38.6038L13.2973 38.5801L13.214 38.6038C14.2027 42.0778 17.8832 44.6166 21.2845 44.1251L21.3702 44.1127V44.0261V44.0241V44.0222V44.0203V44.0183V44.0164V44.0144V44.0125V44.0106V44.0086V44.0067V44.0047V44.0028V44.0009V43.9989V43.997V43.995V43.9931V43.9912V43.9892V43.9873V43.9853V43.9834V43.9815V43.9795V43.9776V43.9756V43.9737V43.9717V43.9698V43.9678V43.9659V43.964V43.962V43.9601V43.9581V43.9562V43.9542V43.9523V43.9503V43.9484V43.9464V43.9445V43.9426V43.9406V43.9387V43.9367V43.9348V43.9328V43.9309V43.9289V43.927V43.925V43.9231V43.9211V43.9192V43.9172V43.9153V43.9133V43.9114V43.9094V43.9074V43.9055V43.9035V43.9016V43.8996V43.8977V43.8957V43.8938V43.8918V43.8899V43.8879V43.8859V43.884V43.882V43.8801V43.8781V43.8762V43.8742V43.8722V43.8703V43.8683V43.8664V43.8644V43.8624V43.8605V43.8585V43.8565V43.8546V43.8526V43.8507V43.8487V43.8467V43.8448V43.8428V43.8408V43.8389V43.8369V43.8349V43.833V43.831V43.829V43.8271V43.8251V43.8231V43.8211V43.8192V43.8172V43.8152V43.8133V43.8113V43.8093V43.8073V43.8054V43.8034V43.8014V43.7994V43.7975V43.7955V43.7935V43.7915V43.7896V43.7876V43.7856V43.7836V43.7816V43.7796V43.7777V43.7757V43.7737V43.7717V43.7697V43.7677V43.7658V43.7638V43.7618V43.7598V43.7578V43.7558V43.7538V43.7519V43.7499V43.7479V43.7459V43.7439V43.7419V43.7399V43.7379V43.7359V43.7339V43.7319V43.7299V43.7279V43.7259V43.7239V43.7219V43.7199V43.7179V43.7159V43.7139V43.7119V43.7099V43.7079V43.7059V43.7039V43.7019V43.6999V43.6979V43.6959V43.6939V43.6919V43.6899V43.6879V43.6859V43.6838V43.6818V43.6798V43.6778V43.6758V43.6738V43.6718V43.6697V43.6677V43.6657V43.6637V43.6617V43.6597V43.6576V43.6556V43.6536V43.6516V43.6495V43.6475V43.6455V43.6435V43.6414V43.6394V43.6374V43.6354V43.6333V43.6313V43.6293V43.6272V43.6252V43.6232V43.6211V43.6191V43.6171V43.615V43.613V43.611V43.6089V43.6069V43.6048V43.6028V43.6007V43.5987V43.5967V43.5946V43.5926V43.5905V43.5885V43.5864V43.5844V43.5823V43.5803V43.5782V43.5762V43.5741V43.5721V43.57V43.568V43.5659V43.5638V43.5618V43.5597V43.5577V43.5556V43.5535V43.5515V43.5494V43.5473V43.5453V43.5432V43.5411V43.5391V43.537V43.5349V43.5329V43.5308V43.5287V43.5266V43.5246V43.5225V43.5204V43.5183V43.5162V43.5142V43.5121V43.51V43.5079V43.5058V43.5037V43.5017V43.4996V43.4975V43.4954V43.4933V43.4912V43.4891V43.487V43.4849V43.4828V43.4807V43.4786V43.4765V43.4745V43.4723V43.4702V43.4681V43.466V43.4639V43.4618V43.4597V43.4576V43.4555V43.4534V43.4513V43.4492V43.4471V43.4449V43.4428V43.4407V43.4386V43.4365V43.4344V43.4322V43.4301V43.428V43.4259V43.4237V43.4216V43.4195V43.4174V43.4152V43.4131V43.411V43.4088V43.4067V43.4046V43.4024V43.4003V43.3982V43.396V43.3939V43.3917V43.3896V43.3874V43.3853V43.3832V43.381V43.3789V43.3767V43.3746V43.3724V43.3703V43.3681V43.3659V43.3638V43.3616V43.3595V43.3573V43.3551V43.353V43.3508V43.3486V43.3465V43.3443V43.3421V43.34V43.3378V43.3356V43.3334V43.3313V43.3291V43.3269V43.3247V43.3226V43.3204V43.3182V43.316V43.3138V43.3116V43.3094V43.3073V43.3051V43.3029V43.3007V43.2985V43.2963V43.2941V43.2919V43.2897V43.2875V43.2853V43.2831V43.2809V43.2787V43.2765V43.2743V43.272V43.2698V43.2676V43.2654V43.2632V43.261V43.2588V43.2565V43.2543V43.2521V43.2499V43.2476V43.2454V43.2432V43.241V43.2387V43.2365V43.2343V43.232V43.2298V43.2275V43.2253V43.2231V43.2208V43.2186V43.2163V43.2141V43.2118V43.2096V43.2073V43.2051V43.2028V43.2006V43.1983V43.1961V43.1938V43.1915V43.1893V43.187V43.1847V43.1825V43.1802V43.1779V43.1757V43.1734V43.1711V43.1689V43.1666V43.1643V43.162V43.1597V43.1574V43.1552V43.1529V43.1506V43.1483V43.146V43.1437V43.1414V43.1391V43.1368V43.1345V43.1322V43.1299V43.1276V43.1253V43.123V43.1207V43.1184V43.1161V43.1138V43.1115V43.1092V43.1068V43.1045V43.1022V43.0999V43.0976V43.0952V43.0929V43.0906V43.0882V43.0859V43.0836V43.0812V43.0789V43.0766V43.0742V43.0719V43.0695V43.0672V43.0649V43.0625V43.0602V43.0578V43.0555V43.0531V43.0507V43.0484V43.046V43.0437V43.0413V43.0389V43.0366V43.0342V43.0318V43.0295V43.0271V43.0247V43.0224V43.02V43.0176V43.0152V43.0128V43.0104V43.0081V43.0057V43.0033V43.0009V42.9985V42.9961V42.9937V42.9913V42.9889V42.9865V42.9841V42.9817V42.9793V42.9769V42.9745V42.9721V42.9697V42.9672V42.9648V42.9624V42.96V42.9576V42.9551V42.9527V42.9503V42.9478V42.9454V42.943ZM33.4499 18.1029C38.8594 18.8374 42.9544 22.8448 43.6978 28.1817L20.3073 27.9992C21.1856 21.7513 27.1872 17.2542 33.4499 18.1029ZM45.4159 42.5231C48.2809 41.5631 50.1622 38.5572 49.7661 35.6951L44.453 28.7796C47.5257 29.3256 49.6088 31.0793 50.594 34.0215C52.3225 39.1744 48.0702 44.5899 42.723 44.0469V43.0557C43.0169 42.9995 43.3107 42.954 43.602 42.9088C44.2254 42.8121 44.8375 42.7172 45.4159 42.5231Z" fill="#3D3D63" stroke="#3D3D63" stroke-width="0.2"/>
<path d="M18.3532 50.0544L18.3514 49.9545C18.139 49.9581 17.9864 49.9407 17.863 49.8784C17.7429 49.8177 17.6369 49.7073 17.5353 49.495L17.5353 49.4948C17.0332 48.4488 15.8682 47.9549 14.8117 48.2291C13.6789 48.522 12.8982 49.5087 12.9044 50.647C12.9106 51.7916 13.689 52.7507 14.8375 53.0416L14.8375 53.0416C15.8937 53.3084 17.0366 52.8071 17.547 51.7523C17.6427 51.5554 17.7414 51.4523 17.8526 51.3953C17.9667 51.3368 18.1079 51.3192 18.3057 51.3221L18.3058 51.3221C19.6911 51.3414 21.0762 51.3399 22.4611 51.3251H22.4611C23.4512 51.3142 24.2063 50.7019 24.3496 49.788L24.3497 49.788C24.3823 49.5793 24.3781 49.3607 24.3742 49.1535C24.3729 49.0869 24.3716 49.0215 24.3716 48.958V48.9475V48.9369V48.9264V48.9158V48.9053V48.8948V48.8842V48.8737V48.8632V48.8526V48.8421V48.8316V48.821V48.8105V48.7999V48.7894V48.7789V48.7683V48.7578V48.7473V48.7367V48.7262V48.7157V48.7051V48.6946V48.6841V48.6735V48.663V48.6524V48.6419V48.6314V48.6208V48.6103V48.5998V48.5892V48.5787V48.5682V48.5576V48.5471V48.5365V48.526V48.5155V48.5049V48.4944V48.4839V48.4733V48.4628V48.4523V48.4417V48.4312V48.4206V48.4101V48.3996V48.389V48.3785V48.368V48.3574V48.3469V48.3364V48.3258V48.3153V48.3047V48.2942V48.2837V48.2731V48.2626V48.2521V48.2415V48.231V48.2204V48.2099V48.1994V48.1888V48.1783V48.1678V48.1572V48.1467V48.1362V48.1256V48.1151V48.1045V48.094V48.0835V48.0729V48.0624V48.0518V48.0413V48.0308V48.0202V48.0097V47.9992V47.9886V47.9781V47.9675V47.957V47.9465V47.9359V47.9254V47.9148V47.9043V47.8938V47.8832V47.8727V47.8622V47.8516V47.8411V47.8305V47.82V47.8095V47.7989V47.7884V47.7778V47.7673V47.7568V47.7462V47.7357V47.7251V47.7146V47.704V47.6935V47.683V47.6724V47.6619V47.6513V47.6408V47.6303V47.6197V47.6092V47.5986V47.5881V47.5775V47.567V47.5565V47.5459V47.5354V47.5248V47.5143V47.5037V47.4932V47.4827V47.4721V47.4616V47.451V47.4405V47.4299V47.4194V47.4089V47.3983V47.3878V47.3772V47.3667V47.3561V47.3456V47.335V47.3245V47.3139V47.3034V47.2929V47.2823V47.2718V47.2612V47.2507V47.2401V47.2296V47.219V47.2085V47.1979V47.1874V47.1768V47.1663V47.1557V47.1452V47.1346V47.1241V47.1135V47.103V47.0924V47.0819V47.0714V47.0608V47.0503V47.0397V47.0292V47.0186V47.008V46.9975V46.9869V46.9764V46.9658V46.9553V46.9447V46.9342V46.9236V46.9131V46.9025V46.892V46.8814V46.8709V46.8603V46.8498V46.8392V46.8287V46.8181V46.8076V46.797V46.7864V46.7759V46.7653V46.7548V46.7442V46.7337V46.7231V46.7126V46.702V46.6914V46.6809V46.6703V46.6598V46.6492V46.6387V46.6281V46.6175V46.607V46.5964V46.5859V46.5753V46.5647V46.5542V46.5436V46.5331V46.5225V46.5119V46.5014V46.4908V46.4803V46.4697V46.4591V46.4486V46.438V46.4274V46.4169V46.4063V46.3958V46.3852V46.3746V46.3641V46.3535V46.3429V46.3324V46.3218V46.3112V46.3007V46.2901V46.2795V46.269V46.2584V46.2478V46.2373V46.2267V46.2161V46.2056V46.195V46.1844V46.1739V46.1633V46.1527V46.1422V46.1316V46.121V46.1104V46.0999V46.0893V46.0787V46.0682V46.0576V46.047V46.0364V46.0259V46.0153V46.0047V45.9941V45.9836V45.973V45.9624V45.9518V45.9413V45.9307V45.9201V45.9095V45.899V45.8884V45.8778V45.8672V45.8567V45.8461V45.8355V45.8249V45.8143V45.8038V45.7932V45.7826V45.772V45.7614V45.7509V45.7403V45.7297V45.7191V45.7085V45.6979V45.6874V45.6768V45.6662V45.6556V45.645V45.6344V45.6239V45.6133V45.6027V45.5921V45.5815V45.5709V45.5603V45.5497V45.5392V45.5286V45.518V45.5074V45.4968V45.4862V45.4756V45.465V45.4544V45.4439V45.4333V45.4227V45.4121V45.4015V45.3909V45.3803V45.3697V45.3591V45.3485V45.3379V45.3273V45.3167V45.3061V45.2955V45.2849V45.2743V45.2637V45.2531V45.2425V45.2319V45.2213V45.2107V45.2002V45.1895V45.1789V45.1683V45.1577V45.1471V45.1365V45.1259V45.1153V45.1047V45.0941V45.0835V45.0729V45.0623V45.0517V45.0411V45.0305V45.0199V45.0093V44.9987V44.9881V44.9775V44.9669V44.9562V44.9456V44.935V44.9244V44.9138V44.9032V44.8926V44.882V44.8714V44.8607V44.8501V44.8395V44.8289V44.8183V44.8077V44.7971V44.7864V44.7758V44.7652V44.7546V44.744V44.7333V44.7227V44.7121V44.7015V44.6909V44.6803V44.6696V44.659V44.6484V44.6378V44.6271V44.6165V44.6059V44.5953V44.5846V44.574V44.5634V44.5528V44.5421V44.5315V44.5209V44.5103V44.4996V44.489V44.4784V44.4677V44.4571V44.4465V44.4359V44.4252V44.4146V44.404V44.3933V44.3827V44.3721V44.3614V44.3508V44.3402V44.3295V44.3189V44.3082V44.2976V44.287V44.2763V44.2657V44.255V44.2444V44.2338V44.2231V44.2125V44.2018V44.1912V44.1806V44.1699V44.1593V44.1486V44.138V44.1273V44.1167V44.106V44.0954V44.0848V44.0741V44.0635V44.0528V44.0422V44.0315V44.0209V44.0102V43.9996V43.9889V43.9782V43.9676V43.9569V43.9463V43.9356V43.925V43.9143V43.9037V43.893V43.8823V43.8717V43.861V43.8504V43.8397V43.8291V43.8184V43.8077V43.7971V43.7864V43.7757V43.7651V43.7544V43.7438V43.7331V43.7224V43.7118V43.7011V43.6904V43.6798V43.6691V43.6584V43.6477V43.6371V43.6264V43.6157V43.6051V43.5944V43.5837V43.573V43.5624V43.5517V43.541V43.441H24.2716H24.2692H24.2667H24.2642H24.2617H24.2593H24.2568H24.2543H24.2519H24.2494H24.2469H24.2445H24.242H24.2396H24.2371H24.2347H24.2322H24.2298H24.2273H24.2249H24.2225H24.22H24.2176H24.2151H24.2127H24.2103H24.2079H24.2054H24.203H24.2006H24.1982H24.1957H24.1933H24.1909H24.1885H24.1861H24.1836H24.1812H24.1788H24.1764H24.174H24.1716H24.1692H24.1668H24.1644H24.162H24.1596H24.1572H24.1548H24.1524H24.15H24.1477H24.1453H24.1429H24.1405H24.1381H24.1357H24.1334H24.131H24.1286H24.1262H24.1239H24.1215H24.1191H24.1168H24.1144H24.112H24.1097H24.1073H24.1049H24.1026H24.1002H24.0979H24.0955H24.0932H24.0908H24.0885H24.0861H24.0838H24.0814H24.0791H24.0767H24.0744H24.072H24.0697H24.0674H24.065H24.0627H24.0603H24.058H24.0557H24.0534H24.051H24.0487H24.0464H24.044H24.0417H24.0394H24.0371H24.0347H24.0324H24.0301H24.0278H24.0255H24.0232H24.0208H24.0185H24.0162H24.0139H24.0116H24.0093H24.007H24.0047H24.0024H24.0001H23.9978H23.9955H23.9932H23.9909H23.9886H23.9863H23.984H23.9817H23.9794H23.9771H23.9748H23.9725H23.9702H23.9679H23.9656H23.9634H23.9611H23.9588H23.9565H23.9542H23.9519H23.9497H23.9474H23.9451H23.9428H23.9405H23.9383H23.936H23.9337H23.9314H23.9292H23.9269H23.9246H23.9223H23.9201H23.9178H23.9155H23.9133H23.911H23.9087H23.9065H23.9042H23.9019H23.8997H23.8974H23.8952H23.8929H23.8906H23.8884H23.8861H23.8839H23.8816H23.8794H23.8771H23.8748H23.8726H23.8703H23.8681H23.8658H23.8636H23.8613H23.8591H23.8568H23.8546H23.8523H23.8501H23.8478H23.8456H23.8433H23.8411H23.8388H23.8366H23.8344H23.8321H23.8299H23.8276H23.8254H23.8231H23.8209H23.8187H23.8164H23.8142H23.8119H23.8097H23.8075H23.8052H23.803H23.8008H23.7985H23.7963H23.794H23.7918H23.7896H23.7873H23.7851H23.7829H23.7806H23.7784H23.7762H23.7739H23.7717H23.7695H23.7672H23.765H23.7628H23.7606H23.7583H23.7561H23.7539H23.7516H23.7494H23.7472H23.7449H23.7427H23.7405H23.7383H23.736H23.7338H23.7316H23.7294H23.7271H23.7249H23.7227H23.7204H23.7182H23.716H23.7138H23.7115H23.7093H23.7071H23.7049H23.7026H23.7004H23.6982H23.696H23.6937H23.6915H23.6893H23.6871H23.6848H23.6826H23.6804H23.6781H23.6759H23.6737H23.6715H23.6692H23.667H23.6648H23.6626H23.6603H23.6581H23.6559H23.6537H23.6514H23.6492H23.647H23.6448H23.6425H23.6403H23.6381H23.6359H23.6336H23.6314H23.6292H23.6269H23.6247H23.6225H23.6203H23.618H23.6158H23.6136H23.6113H23.6091H23.6069H23.6047H23.6024H23.6002H23.598H23.5957H23.5935H23.5913H23.589H23.5868H23.5846H23.5823H23.5801H23.5779H23.5756H23.5734H23.5712H23.5689H23.5667H23.5645H23.5622H23.56H23.5578H23.5555H23.5533H23.551H23.5488H23.5466H23.5443H23.5421H23.5398H23.5376H23.5354H23.5331H23.5309H23.5286H23.5264H23.5241H23.5219H23.5197H23.5174H23.5152H23.5129H23.5107H23.5084H23.5062H23.5039H23.5017H23.4994H23.4972H23.4949H23.4927H23.4904H23.4882H23.4859H23.4837H23.4814H23.4791H23.4769H23.4746H23.4724H23.4701H23.4678H23.4656H23.4633H23.4611H23.4588H23.4565H23.4543H23.452H23.4497H23.4475H23.4452H23.4429H23.4407H23.4384H23.4361H23.4339H23.4316H23.4293H23.427H23.4248H23.4225H23.4202H23.4179H23.4157H23.4134H23.4111H23.4088H23.4065H23.4042H23.402H23.3997H23.3974H23.3951H23.3928H23.3905H23.3882H23.3859H23.3837H23.3814H23.3791H23.3768H23.3745H23.3722H23.3699H23.3676H23.3653H23.363H23.3607H23.3584H23.3561H23.3538H23.3515H23.3491H23.3468H23.3445H23.3422H23.3399H23.3376H23.3353H23.333H23.3306H23.3283H23.326H23.3237H23.3214H23.319H23.3167H23.3144H23.3121H23.3097H23.3074H23.3051H23.3027H23.3004H23.2981H23.2957H23.2934H23.2911H23.2887H23.2864H23.284H23.2817H23.2793H23.277H23.2746H23.2723H23.2699H23.2676H23.2652H23.2629H23.2605H23.2582H23.2558H23.2535H23.2511H23.2487H23.2464H23.244H23.2416H23.2393H23.2369H23.2345H23.2321H23.2298H23.2274H23.225H23.2226H23.2202H23.2179H23.2155H23.2131H23.2107H23.2083H23.2059H23.2035H23.2011H23.1987H23.1963H23.1939H23.1915H23.1891H23.1867H23.1843H23.1819H23.1795H23.1771H23.1747H23.1723H23.1699H23.1674H23.165H23.1626H23.1602H23.1578H23.1553H23.1529H23.1505H23.148H23.1456H23.1432H23.1407H23.1383H23.1358H23.1334H23.131H23.1285H23.1261H23.1236H23.1212H23.1187H23.1163H23.1138H23.1113H23.1089H23.1064H23.104H23.1015H23.099H23.0965H23.0941H23.0916H23.0891H22.9891V43.541C22.9891 44.0695 22.9875 44.5919 22.986 45.1099C22.9818 46.4636 22.9778 47.7872 23.0025 49.1112C23.0082 49.4618 22.9404 49.6671 22.8147 49.7867C22.6879 49.9073 22.4776 49.9647 22.1377 49.956C20.8759 49.9218 19.6131 49.9307 18.3513 49.9545L18.3532 50.0544ZM18.3532 50.0544C19.6143 50.0307 20.8754 50.0218 22.1351 50.0559L13.0044 50.6464C12.9985 49.5559 13.7463 48.6078 14.8368 48.3259C15.8487 48.0633 16.9644 48.5366 17.4451 49.5381C17.6603 49.9877 17.9214 50.0619 18.3532 50.0544ZM15.3699 51.72C15.37 51.72 15.3701 51.72 15.3702 51.72L15.3694 51.82C16.0045 51.823 16.5445 51.2963 16.5579 50.6583C16.5727 49.9892 16.0134 49.4328 15.3457 49.4506L15.3699 51.72ZM15.3699 51.72C15.9501 51.7228 16.4457 51.2398 16.4579 50.6562L16.4579 50.6561C16.4715 50.0441 15.9589 49.5343 15.3484 49.5505L15.3483 49.5505C14.7676 49.5655 14.2831 50.0668 14.2884 50.6439C14.2952 51.2183 14.7954 51.7158 15.3699 51.72Z" fill="#3D3D63" stroke="#3D3D63" stroke-width="0.2"/>
<path d="M39.7111 45.2076H39.6111L46.4338 51.6282C47.0554 52.6949 48.0911 53.2142 49.1549 52.9294C50.2602 52.6341 50.9917 51.7009 50.9783 50.6059L51.0783 50.6048C51.0783 50.6048 51.0783 50.6047 51.0783 50.6047C51.0659 49.4665 50.2669 48.4893 49.1339 48.2149L49.1338 48.2149C48.0493 47.9531 46.9731 48.5171 46.3595 49.5611C46.3096 49.6459 46.21 49.736 46.0885 49.8068C45.9673 49.8774 45.8381 49.9206 45.7374 49.9244C44.7969 49.956 43.8551 49.9514 42.9114 49.9468C42.6189 49.9454 42.3262 49.9439 42.0332 49.9436H42.0331C41.7595 49.9436 41.5592 49.9404 41.4093 49.9201C41.2593 49.8998 41.1771 49.8643 41.1257 49.8138C41.0746 49.7634 41.0388 49.683 41.0182 49.5358C40.9975 49.3885 40.994 49.1914 40.9936 48.9219C40.9936 48.9218 40.9936 48.9218 40.9936 48.9218L40.9936 48.9149V48.9078V48.9008V48.8937V48.8867V48.8797V48.8726V48.8656V48.8585V48.8515V48.8444V48.8374V48.8304V48.8233V48.8163V48.8092V48.8022V48.7952V48.7881V48.7811V48.774V48.767V48.7599V48.7529V48.7459V48.7388V48.7318V48.7247V48.7177V48.7106V48.7036V48.6966V48.6895V48.6825V48.6754V48.6684V48.6614V48.6543V48.6473V48.6402V48.6332V48.6261V48.6191V48.6121V48.605V48.598V48.5909V48.5839V48.5768V48.5698V48.5628V48.5557V48.5487V48.5416V48.5346V48.5276V48.5205V48.5135V48.5064V48.4994V48.4923V48.4853V48.4783V48.4712V48.4642V48.4571V48.4501V48.443V48.436V48.429V48.4219V48.4149V48.4078V48.4008V48.3937V48.3867V48.3797V48.3726V48.3656V48.3585V48.3515V48.3444V48.3374V48.3304V48.3233V48.3163V48.3092V48.3022V48.2951V48.2881V48.2811V48.274V48.267V48.2599V48.2529V48.2458V48.2388V48.2317V48.2247V48.2177V48.2106V48.2036V48.1965V48.1895V48.1824V48.1754V48.1684V48.1613V48.1543V48.1472V48.1402V48.1331V48.1261V48.119V48.112V48.105V48.0979V48.0909V48.0838V48.0768V48.0697V48.0627V48.0556V48.0486V48.0416V48.0345V48.0275V48.0204V48.0134V48.0063V47.9993V47.9922V47.9852V47.9781V47.9711V47.9641V47.957V47.95V47.9429V47.9359V47.9288V47.9218V47.9147V47.9077V47.9006V47.8936V47.8866V47.8795V47.8725V47.8654V47.8584V47.8513V47.8443V47.8372V47.8302V47.8231V47.8161V47.809V47.802V47.7949V47.7879V47.7809V47.7738V47.7668V47.7597V47.7527V47.7456V47.7386V47.7315V47.7245V47.7174V47.7104V47.7033V47.6963V47.6892V47.6822V47.6751V47.6681V47.661V47.654V47.647V47.6399V47.6329V47.6258V47.6188V47.6117V47.6047V47.5976V47.5906V47.5835V47.5765V47.5694V47.5624V47.5553V47.5483V47.5412V47.5342V47.5271V47.5201V47.513V47.506V47.4989V47.4919V47.4848V47.4778V47.4707V47.4637V47.4566V47.4496V47.4425V47.4355V47.4284V47.4214V47.4143V47.4073V47.4002V47.3932V47.3861V47.3791V47.372V47.365V47.3579V47.3509V47.3438V47.3368V47.3297V47.3226V47.3156V47.3085V47.3015V47.2944V47.2874V47.2803V47.2733V47.2662V47.2592V47.2521V47.2451V47.238V47.231V47.2239V47.2169V47.2098V47.2027V47.1957V47.1886V47.1816V47.1745V47.1675V47.1604V47.1534V47.1463V47.1393V47.1322V47.1252V47.1181V47.111V47.104V47.0969V47.0899V47.0828V47.0758V47.0687V47.0617V47.0546V47.0475V47.0405V47.0334V47.0264V47.0193V47.0123V47.0052V46.9982V46.9911V46.984V46.977V46.9699V46.9629V46.9558V46.9488V46.9417V46.9346V46.9276V46.9205V46.9135V46.9064V46.8993V46.8923V46.8852V46.8782V46.8711V46.8641V46.857V46.8499V46.8429V46.8358V46.8288V46.8217V46.8146V46.8076V46.8005V46.7935V46.7864V46.7793V46.7723V46.7652V46.7582V46.7511V46.744V46.737V46.7299V46.7229V46.7158V46.7087V46.7017V46.6946V46.6876V46.6805V46.6734V46.6664V46.6593V46.6522V46.6452V46.6381V46.6311V46.624V46.6169V46.6099V46.6028V46.5957V46.5887V46.5816V46.5745V46.5675V46.5604V46.5534V46.5463V46.5392V46.5322V46.5251V46.518V46.511V46.5039V46.4968V46.4898V46.4827V46.4756V46.4686V46.4615V46.4544V46.4474V46.4403V46.4332V46.4262V46.4191V46.412V46.405V46.3979V46.3908V46.3838V46.3767V46.3696V46.3626V46.3555V46.3484V46.3414V46.3343V46.3272V46.3202V46.3131V46.306V46.299V46.2919V46.2848V46.2777V46.2707V46.2636V46.2565V46.2495V46.2424V46.2353V46.2283V46.2212V46.2141V46.207V46.2V46.1929V46.1858V46.1788V46.1717V46.1646V46.1575V46.1505V46.1434V46.1363V46.1292V46.1222V46.1151V46.108V46.101V46.0939V46.0868V46.0797V46.0727V46.0656V46.0585V46.0514V46.0444V46.0373V46.0302V46.0231V46.0161V46.009V46.0019V45.9948V45.9878V45.9807V45.9736V45.9665V45.9594V45.9524V45.9453V45.9382V45.9311V45.9241V45.917V45.9099V45.9028V45.8957V45.8887V45.8816V45.8745V45.8674V45.8604V45.8533V45.8462V45.8391V45.832V45.825V45.8179V45.8108V45.8037V45.7966V45.7896V45.7825V45.7754V45.7683V45.7612V45.7541V45.7471V45.74V45.7329V45.7258V45.7187V45.7117V45.7046V45.6975V45.6904V45.6833V45.6762V45.6692V45.6621V45.655V45.6479V45.6408V45.6337V45.6266V45.6196V45.6125V45.6054V45.5983V45.5912V45.5841V45.577V45.57V45.5629V45.5558V45.5487V45.5416V45.5345V45.5274V45.5203V45.5133V45.5062V45.4991V45.492V45.4849V45.4778V45.4707V45.4636V45.4565V45.4495V45.4424V45.4353V45.4282V45.4211V45.414V45.4069V45.3998V45.3927V45.3856V45.3785V45.3715V45.3644V45.3573V45.3502V45.3431V45.336V45.3289V45.3218V45.3147V45.3076V45.2076H40.8936H40.8911H40.8886H40.8861H40.8836H40.8811H40.8786H40.8761H40.8736H40.8711H40.8686H40.8661H40.8636H40.8611H40.8586H40.8561H40.8536H40.8511H40.8487H40.8462H40.8437H40.8412H40.8388H40.8363H40.8338H40.8314H40.8289H40.8265H40.824H40.8215H40.8191H40.8166H40.8142H40.8118H40.8093H40.8069H40.8044H40.802H40.7996H40.7971H40.7947H40.7923H40.7898H40.7874H40.785H40.7826H40.7802H40.7778H40.7753H40.7729H40.7705H40.7681H40.7657H40.7633H40.7609H40.7585H40.7561H40.7537H40.7513H40.7489H40.7465H40.7442H40.7418H40.7394H40.737H40.7346H40.7322H40.7299H40.7275H40.7251H40.7228H40.7204H40.718H40.7157H40.7133H40.7109H40.7086H40.7062H40.7039H40.7015H40.6991H40.6968H40.6944H40.6921H40.6898H40.6874H40.6851H40.6827H40.6804H40.6781H40.6757H40.6734H40.671H40.6687H40.6664H40.6641H40.6617H40.6594H40.6571H40.6548H40.6524H40.6501H40.6478H40.6455H40.6432H40.6409H40.6386H40.6362H40.6339H40.6316H40.6293H40.627H40.6247H40.6224H40.6201H40.6178H40.6155H40.6132H40.6109H40.6086H40.6064H40.6041H40.6018H40.5995H40.5972H40.5949H40.5926H40.5903H40.5881H40.5858H40.5835H40.5812H40.579H40.5767H40.5744H40.5721H40.5699H40.5676H40.5653H40.5631H40.5608H40.5585H40.5563H40.554H40.5517H40.5495H40.5472H40.545H40.5427H40.5404H40.5382H40.5359H40.5337H40.5314H40.5292H40.5269H40.5247H40.5224H40.5202H40.5179H40.5157H40.5134H40.5112H40.5089H40.5067H40.5045H40.5022H40.5H40.4977H40.4955H40.4933H40.491H40.4888H40.4866H40.4843H40.4821H40.4799H40.4776H40.4754H40.4732H40.4709H40.4687H40.4665H40.4643H40.462H40.4598H40.4576H40.4554H40.4531H40.4509H40.4487H40.4465H40.4442H40.442H40.4398H40.4376H40.4354H40.4331H40.4309H40.4287H40.4265H40.4243H40.4221H40.4199H40.4176H40.4154H40.4132H40.411H40.4088H40.4066H40.4044H40.4022H40.3999H40.3977H40.3955H40.3933H40.3911H40.3889H40.3867H40.3845H40.3823H40.3801H40.3779H40.3756H40.3734H40.3712H40.369H40.3668H40.3646H40.3624H40.3602H40.358H40.3558H40.3536H40.3514H40.3492H40.347H40.3448H40.3426H40.3404H40.3382H40.336H40.3338H40.3316H40.3294H40.3272H40.325H40.3228H40.3206H40.3184H40.3162H40.314H40.3118H40.3095H40.3073H40.3051H40.3029H40.3007H40.2985H40.2963H40.2941H40.2919H40.2897H40.2875H40.2853H40.2831H40.2809H40.2787H40.2765H40.2743H40.2721H40.2699H40.2677H40.2655H40.2633H40.2611H40.2589H40.2567H40.2545H40.2523H40.2501H40.2479H40.2457H40.2435H40.2413H40.239H40.2368H40.2346H40.2324H40.2302H40.228H40.2258H40.2236H40.2214H40.2192H40.217H40.2148H40.2125H40.2103H40.2081H40.2059H40.2037H40.2015H40.1993H40.1971H40.1948H40.1926H40.1904H40.1882H40.186H40.1838H40.1816H40.1793H40.1771H40.1749H40.1727H40.1705H40.1682H40.166H40.1638H40.1616H40.1593H40.1571H40.1549H40.1527H40.1504H40.1482H40.146H40.1438H40.1415H40.1393H40.1371H40.1348H40.1326H40.1304H40.1281H40.1259H40.1237H40.1214H40.1192H40.117H40.1147H40.1125H40.1103H40.108H40.1058H40.1035H40.1013H40.099H40.0968H40.0945H40.0923H40.0901H40.0878H40.0856H40.0833H40.081H40.0788H40.0765H40.0743H40.072H40.0698H40.0675H40.0653H40.063H40.0607H40.0585H40.0562H40.0539H40.0517H40.0494H40.0471H40.0449H40.0426H40.0403H40.0381H40.0358H40.0335H40.0312H40.0289H40.0267H40.0244H40.0221H40.0198H40.0175H40.0153H40.013H40.0107H40.0084H40.0061H40.0038H40.0015H39.9992H39.9969H39.9946H39.9923H39.99H39.9877H39.9854H39.9831H39.9808H39.9785H39.9762H39.9739H39.9716H39.9693H39.9669H39.9646H39.9623H39.96H39.9577H39.9554H39.953H39.9507H39.9484H39.946H39.9437H39.9414H39.9391H39.9367H39.9344H39.932H39.9297H39.9274H39.925H39.9227H39.9203H39.918H39.9156H39.9133H39.9109H39.9086H39.9062H39.9039H39.9015H39.8991H39.8968H39.8944H39.892H39.8897H39.8873H39.8849H39.8825H39.8802H39.8778H39.8754H39.873H39.8706H39.8683H39.8659H39.8635H39.8611H39.8587H39.8563H39.8539H39.8515H39.8491H39.8467H39.8443H39.8419H39.8395H39.8371H39.8346H39.8322H39.8298H39.8274H39.825H39.8225H39.8201H39.8177H39.8153H39.8128H39.8104H39.808H39.8055H39.8031H39.8006H39.7982H39.7957H39.7933H39.7908H39.7884H39.7859H39.7835H39.781H39.7785H39.7761H39.7736H39.7711H39.7687H39.7662H39.7637H39.7612H39.7588H39.7563H39.7538H39.7513H39.7488H39.7463H39.7438H39.7413H39.7388H39.7363H39.7338H39.7313H39.7288H39.7263H39.7238H39.7212H39.7187H39.7162H39.7137H39.7111ZM43.1289 51.3254C44.0146 51.3232 44.8986 51.3211 45.7842 51.3439L41.6334 51.3246C41.6334 51.3246 41.6334 51.3246 41.6334 51.3246C42.1328 51.3278 42.6311 51.3266 43.1289 51.3254ZM49.6929 50.6552L49.6929 50.6555C49.6793 51.2316 49.1721 51.7236 48.5993 51.7196C47.9901 51.7141 47.4908 51.182 47.5247 50.5744L47.5247 50.5744C47.5573 49.9874 48.0635 49.5255 48.6465 49.5485C49.2292 49.5716 49.7078 50.0787 49.6929 50.6552Z" fill="#3D3D63" stroke="#3D3D63" stroke-width="0.2"/>
<path d="M29.6887 54.1493L29.5921 54.1749C29.894 55.3147 30.87 56.0836 32.0101 56.0743C33.15 56.065 34.1166 55.2778 34.4015 54.138C34.6652 53.0862 34.1579 51.9375 33.1092 51.4302C32.914 51.3358 32.8104 51.2386 32.7522 51.1281C32.6926 51.015 32.6731 50.8741 32.6745 50.6752L32.6745 50.6751C32.6857 48.8398 32.6843 47.0052 32.6829 45.1706C32.6824 44.5591 32.682 43.9476 32.682 43.3361V43.3343V43.3325V43.3306V43.3288V43.3269V43.3251V43.3232V43.3214V43.3195V43.3177V43.3159V43.314V43.3122V43.3103V43.3085V43.3066V43.3048V43.303V43.3011V43.2993V43.2974V43.2956V43.2937V43.2919V43.2901V43.2882V43.2864V43.2845V43.2827V43.2808V43.279V43.2772V43.2753V43.2735V43.2716V43.2698V43.2679V43.2661V43.2642V43.2624V43.2606V43.2587V43.2569V43.255V43.2532V43.2513V43.2495V43.2476V43.2458V43.244V43.2421V43.2403V43.2384V43.2366V43.2347V43.2329V43.231V43.2292V43.2273V43.2255V43.2237V43.2218V43.22V43.2181V43.2163V43.2144V43.2126V43.2107V43.2089V43.207V43.2052V43.2033V43.2015V43.1997V43.1978V43.196V43.1941V43.1923V43.1904V43.1886V43.1867V43.1849V43.183V43.1812V43.1793V43.1775V43.1756V43.1738V43.1719V43.1701V43.1682V43.1664V43.1645V43.1627V43.1608V43.159V43.1571V43.1553V43.1534V43.1516V43.1497V43.1479V43.146V43.1442V43.1423V43.1405V43.1386V43.1368V43.1349V43.1331V43.1312V43.1294V43.1275V43.1257V43.1238V43.122V43.1201V43.1183V43.1164V43.1146V43.1127V43.1108V43.109V43.1071V43.1053V43.1034V43.1016V43.0997V43.0979V43.096V43.0942V43.0923V43.0904V43.0886V43.0867V43.0849V43.083V43.0812V43.0793V43.0774V43.0756V43.0737V43.0719V43.07V43.0682V43.0663V43.0644V43.0626V43.0607V43.0589V43.057V43.0551V43.0533V43.0514V43.0496V43.0477V43.0458V43.044V43.0421V43.0403V43.0384V43.0365V43.0347V43.0328V43.0309V43.0291V43.0272V43.0254V43.0235V43.0216V43.0198V43.0179V43.016V43.0142V43.0123V43.0104V43.0086V43.0067V43.0048V43.003V43.0011V42.9992V42.9974V42.9955V42.9936V42.9918V42.9899V42.988V42.9862V42.9843V42.9824V42.9806V42.9787V42.9768V42.9749V42.9731V42.9712V42.9693V42.9675V42.9656V42.9637V42.9618V42.96V42.9581V42.9562V42.9543V42.9525V42.9506V42.9487V42.9468V42.945V42.9431V42.9412V42.9393V42.9375V42.9356V42.9337V42.9318V42.93V42.9281V42.9262V42.9243V42.9224V42.9206V42.9187V42.9168V42.9149V42.913V42.9112V42.9093V42.9074V42.9055V42.9036V42.9018V42.8999V42.898V42.8961V42.8942V42.8923V42.8904V42.8886V42.8867V42.8848V42.8829V42.881V42.8791V42.8772V42.8754V42.8735V42.8716V42.8697V42.8678V42.8659V42.864V42.8621V42.8602V42.8583V42.8565V42.8546V42.8527V42.8508V42.8489V42.847V42.8451V42.8432V42.8413V42.8394V42.8375V42.8356V42.8337V42.8318V42.8299V42.828V42.8261V42.8242V42.8223V42.8204V42.8185V42.8166V42.8147V42.8128V42.8109V42.809V42.8071V42.8052V42.8033V42.8014V42.7995V42.7976V42.7957V42.7938V42.7919V42.79V42.7881V42.7862V42.7843V42.7824V42.7805V42.7786V42.7767V42.7748V42.7728V42.7709V42.769V42.7671V42.7652V42.7633V42.7614V42.7595V42.7576V42.7556V42.7537V42.7518V42.7499V42.748V42.7461V42.7441V42.7422V42.7403V42.7384V42.7365V42.7346V42.7326V42.7307V42.7288V42.7269V42.725V42.723V42.7211V42.7192V42.7173V42.7154V42.7134V42.7115V42.7096V42.7077V42.7057V42.7038V42.7019V42.6999V42.698V42.6961V42.6942V42.6922V42.6903V42.6884V42.6864V42.6845V42.6826V42.6806V42.6787V42.6768V42.6748V42.6729V42.671V42.669V42.6671V42.6652V42.6632V42.6613V42.6594V42.6574V42.6555V42.6535V42.6516V42.6497V42.6477V42.6458V42.6438V42.6419V42.64V42.638V42.6361V42.6341V42.6322V42.6302V42.6283V42.6263V42.6244V42.6224V42.6205V42.6185V42.6166V42.6146V42.6127V42.6107V42.6088V42.6068V42.6049V42.6029V42.601V42.599V42.5971V42.5951V42.5932V42.5912V42.5892V42.5873V42.5853V42.5834V42.5814V42.5794V42.5775V42.5755V42.5736V42.5716V42.5696V42.5677V42.5657V42.5637V42.5618V42.5598V42.5578V42.5559V42.5539V42.5519V42.55V42.548V42.546V42.544V42.5421V42.5401V42.5381V42.5362V42.5342V42.5322V42.5302V42.5283V42.5263V42.5243V42.5223V42.5203V42.5184V42.5164V42.5144V42.5124V42.5104V42.5085V42.5065V42.5045V42.5025V42.5005V42.4985V42.4965V42.4946V42.4926V42.4906V42.4886V42.4866V42.4846V42.4826V42.4806V42.4786V42.4766V42.4746V42.4727V42.4707V42.4687V42.4667V42.4647V42.4627V42.4607V42.4587V42.4567V42.4547V42.4527V42.4507V42.4487V42.4467V42.4447V42.4427V42.4407V42.4386V42.4366V42.4346V42.4326V42.4306V42.4286V42.4266V42.4246V42.4226V42.4206V42.4185V42.4165V42.4145V42.4125V42.4105V42.4085V42.4065V42.4044V42.4024V42.4004V42.3984V42.3964V42.3943V42.3923V42.3903V42.3883V42.3862V42.3842V42.3822V42.3802V42.3781V42.3761V42.3741V42.3721V42.37V42.368V42.366V42.3639V42.3619V42.3599V42.2599H32.582H32.5795H32.5771H32.5747H32.5723H32.5699H32.5675H32.5651H32.5627H32.5603H32.558H32.5556H32.5532H32.5508H32.5484H32.546H32.5436H32.5413H32.5389H32.5365H32.5341H32.5318H32.5294H32.527H32.5246H32.5223H32.5199H32.5175H32.5152H32.5128H32.5105H32.5081H32.5057H32.5034H32.501H32.4987H32.4963H32.494H32.4916H32.4893H32.4869H32.4846H32.4822H32.4799H32.4776H32.4752H32.4729H32.4705H32.4682H32.4659H32.4635H32.4612H32.4589H32.4566H32.4542H32.4519H32.4496H32.4473H32.4449H32.4426H32.4403H32.438H32.4357H32.4333H32.431H32.4287H32.4264H32.4241H32.4218H32.4195H32.4172H32.4149H32.4126H32.4103H32.408H32.4057H32.4034H32.4011H32.3988H32.3965H32.3942H32.3919H32.3896H32.3873H32.385H32.3827H32.3804H32.3781H32.3758H32.3736H32.3713H32.369H32.3667H32.3644H32.3621H32.3599H32.3576H32.3553H32.353H32.3508H32.3485H32.3462H32.3439H32.3417H32.3394H32.3371H32.3349H32.3326H32.3303H32.3281H32.3258H32.3235H32.3213H32.319H32.3167H32.3145H32.3122H32.31H32.3077H32.3054H32.3032H32.3009H32.2987H32.2964H32.2942H32.2919H32.2896H32.2874H32.2851H32.2829H32.2806H32.2784H32.2761H32.2739H32.2716H32.2694H32.2672H32.2649H32.2627H32.2604H32.2582H32.2559H32.2537H32.2515H32.2492H32.247H32.2447H32.2425H32.2403H32.238H32.2358H32.2335H32.2313H32.2291H32.2268H32.2246H32.2224H32.2201H32.2179H32.2157H32.2134H32.2112H32.209H32.2067H32.2045H32.2023H32.2001H32.1978H32.1956H32.1934H32.1911H32.1889H32.1867H32.1845H32.1822H32.18H32.1778H32.1756H32.1733H32.1711H32.1689H32.1667H32.1644H32.1622H32.16H32.1578H32.1555H32.1533H32.1511H32.1489H32.1466H32.1444H32.1422H32.14H32.1378H32.1355H32.1333H32.1311H32.1289H32.1267H32.1244H32.1222H32.12H32.1178H32.1156H32.1133H32.1111H32.1089H32.1067H32.1045H32.1023H32.1H32.0978H32.0956H32.0934H32.0912H32.0889H32.0867H32.0845H32.0823H32.0801H32.0779H32.0756H32.0734H32.0712H32.069H32.0668H32.0645H32.0623H32.0601H32.0579H32.0557H32.0535H32.0512H32.049H32.0468H32.0446H32.0424H32.0401H32.0379H32.0357H32.0335H32.0313H32.029H32.0268H32.0246H32.0224H32.0202H32.0179H32.0157H32.0135H32.0113H32.009H32.0068H32.0046H32.0024H32.0002H31.9979H31.9957H31.9935H31.9913H31.989H31.9868H31.9846H31.9824H31.9801H31.9779H31.9757H31.9735H31.9712H31.969H31.9668H31.9645H31.9623H31.9601H31.9579H31.9556H31.9534H31.9512H31.9489H31.9467H31.9445H31.9422H31.94H31.9378H31.9355H31.9333H31.9311H31.9288H31.9266H31.9243H31.9221H31.9199H31.9176H31.9154H31.9131H31.9109H31.9087H31.9064H31.9042H31.9019H31.8997H31.8974H31.8952H31.893H31.8907H31.8885H31.8862H31.884H31.8817H31.8795H31.8772H31.875H31.8727H31.8705H31.8682H31.866H31.8637H31.8614H31.8592H31.8569H31.8547H31.8524H31.8501H31.8479H31.8456H31.8434H31.8411H31.8388H31.8366H31.8343H31.832H31.8298H31.8275H31.8252H31.823H31.8207H31.8184H31.8161H31.8139H31.8116H31.8093H31.807H31.8048H31.8025H31.8002H31.7979H31.7956H31.7934H31.7911H31.7888H31.7865H31.7842H31.7819H31.7796H31.7774H31.7751H31.7728H31.7705H31.7682H31.7659H31.7636H31.7613H31.759H31.7567H31.7544H31.7521H31.7498H31.7475H31.7452H31.7429H31.7406H31.7383H31.7359H31.7336H31.7313H31.729H31.7267H31.7244H31.7221H31.7197H31.7174H31.7151H31.7128H31.7104H31.7081H31.7058H31.7035H31.7011H31.6988H31.6965H31.6941H31.6918H31.6895H31.6871H31.6848H31.6824H31.6801H31.6778H31.6754H31.6731H31.6707H31.6684H31.666H31.6637H31.6613H31.659H31.6566H31.6543H31.6519H31.6495H31.6472H31.6448H31.6424H31.6401H31.6377H31.6353H31.633H31.6306H31.6282H31.6258H31.6235H31.6211H31.6187H31.6163H31.6139H31.6116H31.6092H31.6068H31.6044H31.602H31.5996H31.5972H31.5948H31.5924H31.59H31.5876H31.5852H31.5828H31.5804H31.578H31.5756H31.5732H31.5707H31.5683H31.5659H31.5635H31.5611H31.5586H31.5562H31.5538H31.5514H31.5489H31.5465H31.5441H31.5416H31.5392H31.5367H31.5343H31.5319H31.5294H31.527H31.5245H31.5221H31.5196H31.5172H31.5147H31.5122H31.5098H31.5073H31.5049H31.5024H31.4999H31.4974H31.495H31.4925H31.49H31.4875H31.4851H31.4826H31.4801H31.4776H31.4751H31.4726H31.4701H31.4676H31.4651H31.4626H31.4601H31.4576H31.4551H31.4526H31.4501H31.4476H31.4451H31.4426H31.4401H31.4375H31.435H31.4325H31.43H31.4274H31.4249H31.4224H31.4198H31.4173H31.4147H31.4122H31.4097H31.4071H31.4046H31.402H31.3994H31.2994V42.3599V42.3618V42.3637V42.3656V42.3676V42.3695V42.3714V42.3733V42.3753V42.3772V42.3791V42.381V42.3829V42.3848V42.3867V42.3887V42.3906V42.3925V42.3944V42.3963V42.3982V42.4001V42.402V42.4039V42.4058V42.4077V42.4096V42.4115V42.4134V42.4152V42.4171V42.419V42.4209V42.4228V42.4247V42.4266V42.4284V42.4303V42.4322V42.4341V42.436V42.4378V42.4397V42.4416V42.4434V42.4453V42.4472V42.449V42.4509V42.4528V42.4546V42.4565V42.4584V42.4602V42.4621V42.4639V42.4658V42.4676V42.4695V42.4713V42.4732V42.475V42.4769V42.4787V42.4806V42.4824V42.4843V42.4861V42.488V42.4898V42.4916V42.4935V42.4953V42.4971V42.499V42.5008V42.5026V42.5045V42.5063V42.5081V42.5099V42.5118V42.5136V42.5154V42.5172V42.519V42.5209V42.5227V42.5245V42.5263V42.5281V42.5299V42.5318V42.5336V42.5354V42.5372V42.539V42.5408V42.5426V42.5444V42.5462V42.548V42.5498V42.5516V42.5534V42.5552V42.557V42.5588V42.5606V42.5624V42.5642V42.566V42.5677V42.5695V42.5713V42.5731V42.5749V42.5767V42.5785V42.5802V42.582V42.5838V42.5856V42.5873V42.5891V42.5909V42.5927V42.5944V42.5962V42.598V42.5998V42.6015V42.6033V42.6051V42.6068V42.6086V42.6103V42.6121V42.6139V42.6156V42.6174V42.6191V42.6209V42.6227V42.6244V42.6262V42.6279V42.6297V42.6314V42.6332V42.6349V42.6367V42.6384V42.6402V42.6419V42.6436V42.6454V42.6471V42.6489V42.6506V42.6523V42.6541V42.6558V42.6576V42.6593V42.661V42.6628V42.6645V42.6662V42.668V42.6697V42.6714V42.6731V42.6749V42.6766V42.6783V42.68V42.6818V42.6835V42.6852V42.6869V42.6886V42.6904V42.6921V42.6938V42.6955V42.6972V42.6989V42.7007V42.7024V42.7041V42.7058V42.7075V42.7092V42.7109V42.7126V42.7143V42.716V42.7177V42.7194V42.7211V42.7228V42.7245V42.7262V42.7279V42.7296V42.7313V42.733V42.7347V42.7364V42.7381V42.7398V42.7415V42.7432V42.7449V42.7466V42.7483V42.7499V42.7516V42.7533V42.755V42.7567V42.7584V42.7601V42.7617V42.7634V42.7651V42.7668V42.7685V42.7701V42.7718V42.7735V42.7752V42.7768V42.7785V42.7802V42.7819V42.7835V42.7852V42.7869V42.7885V42.7902V42.7919V42.7936V42.7952V42.7969V42.7986V42.8002V42.8019V42.8035V42.8052V42.8069V42.8085V42.8102V42.8119V42.8135V42.8152V42.8168V42.8185V42.8201V42.8218V42.8235V42.8251V42.8268V42.8284V42.8301V42.8317V42.8334V42.835V42.8367V42.8383V42.84V42.8416V42.8433V42.8449V42.8466V42.8482V42.8498V42.8515V42.8531V42.8548V42.8564V42.8581V42.8597V42.8613V42.863V42.8646V42.8663V42.8679V42.8695V42.8712V42.8728V42.8744V42.8761V42.8777V42.8793V42.881V42.8826V42.8842V42.8859V42.8875V42.8891V42.8908V42.8924V42.894V42.8956V42.8973V42.8989V42.9005V42.9022V42.9038V42.9054V42.907V42.9087V42.9103V42.9119V42.9135V42.9151V42.9168V42.9184V42.92V42.9216V42.9232V42.9249V42.9265V42.9281V42.9297V42.9313V42.9329V42.9346V42.9362V42.9378V42.9394V42.941V42.9426V42.9442V42.9459V42.9475V42.9491V42.9507V42.9523V42.9539V42.9555V42.9571V42.9587V42.9603V42.9619V42.9636V42.9652V42.9668V42.9684V42.97V42.9716V42.9732V42.9748V42.9764V42.978V42.9796V42.9812V42.9828V42.9844V42.986V42.9876V42.9892V42.9908V42.9924V42.994V42.9956V42.9972V42.9988V43.0004V43.002V43.0036V43.0052V43.0068V43.0084V43.01V43.0116V43.0132V43.0148V43.0164V43.0179V43.0195V43.0211V43.0227V43.0243V43.0259V43.0275V43.0291V43.0307V43.0323V43.0339V43.0355V43.037V43.0386V43.0402V43.0418V43.0434V43.045V43.0466V43.0482V43.0498V43.0513V43.0529V43.0545V43.0561V43.0577V43.0593V43.0609V43.0624V43.064V43.0656V43.0672V43.0688V43.0704V43.072V43.0735V43.0751V43.0767V43.0783V43.0799V43.0815V43.083V43.0846V43.0862V43.0878V43.0894V43.0909V43.0925V43.0941V43.0957V43.0973V43.0988V43.1004V43.102V43.1036V43.1052V43.1067V43.1083V43.1099V43.1115V43.1131V43.1146V43.1162V43.1178V43.1194V43.1209V43.1225V43.1241V43.1257V43.1273V43.1288V43.1304V43.132V43.1336V43.1351V43.1367V43.1383V43.1399V43.1414V43.143V43.1446V43.1462V43.1477V43.1493V43.1509V43.1525V43.154V43.1556V43.1572V43.1588V43.1603V43.1619V43.1635V43.1651V43.1666V43.1682V43.1698V43.1714V43.1729V43.1745V43.1761V43.1777V43.1792V43.1808V43.1824V43.184V43.1855V43.1871V43.1887V43.1902V43.1918V43.1934V43.195V43.1965V43.1981V43.1997V43.2013V43.2028V43.2044V43.206V43.2076V43.2091V43.2107V43.2123V43.2138V43.2154V43.217V43.2186V43.2201V43.2217V43.2233V43.2249C31.2994 43.812 31.2991 44.3991 31.2988 44.9863C31.2977 46.8947 31.2967 48.8035 31.3069 50.7121L31.4065 50.7116L31.3069 50.712C31.3076 50.8969 31.2879 51.0263 31.2323 51.1298C31.178 51.231 31.0822 51.3203 30.9029 51.4082C29.8212 51.9375 29.305 53.095 29.5921 54.175L29.6887 54.1493ZM29.6887 54.1493C29.4143 53.1167 29.9068 52.0069 30.9469 51.498L32.5745 50.6745C32.5716 51.081 32.6517 51.3199 33.0656 51.5202C34.0716 52.0069 34.5568 53.1078 34.3045 54.1137C34.03 55.2116 33.1012 55.9654 32.0092 55.9743C30.9172 55.9832 29.9795 55.2473 29.6887 54.1493ZM30.9074 53.5922L30.9074 53.5921C30.9115 53.0075 31.3954 52.5233 31.982 52.5178C32.567 52.5124 33.0606 52.9885 33.077 53.5719C33.0932 54.1752 32.5699 54.7008 31.9687 54.6859L31.9686 54.6859C31.3911 54.6723 30.9034 54.1696 30.9074 53.5922Z" fill="#3D3D63" stroke="#3D3D63" stroke-width="0.2"/>
<path d="M31.3069 36.2596C31.2948 37.4417 31.2965 38.6232 31.2983 39.8187C31.2989 40.243 31.2995 40.669 31.2995 41.0975V41.1975H31.3995H31.4018H31.4042H31.4066H31.409H31.4113H31.4137H31.4161H31.4184H31.4208H31.4231H31.4255H31.4278H31.4302H31.4326H31.4349H31.4373H31.4396H31.4419H31.4443H31.4466H31.449H31.4513H31.4537H31.456H31.4583H31.4607H31.463H31.4653H31.4677H31.47H31.4723H31.4747H31.477H31.4793H31.4816H31.484H31.4863H31.4886H31.4909H31.4932H31.4956H31.4979H31.5002H31.5025H31.5048H31.5071H31.5094H31.5117H31.514H31.5164H31.5187H31.521H31.5233H31.5256H31.5279H31.5302H31.5325H31.5348H31.537H31.5393H31.5416H31.5439H31.5462H31.5485H31.5508H31.5531H31.5554H31.5577H31.5599H31.5622H31.5645H31.5668H31.5691H31.5713H31.5736H31.5759H31.5782H31.5805H31.5827H31.585H31.5873H31.5895H31.5918H31.5941H31.5964H31.5986H31.6009H31.6032H31.6054H31.6077H31.61H31.6122H31.6145H31.6167H31.619H31.6213H31.6235H31.6258H31.628H31.6303H31.6325H31.6348H31.6371H31.6393H31.6416H31.6438H31.6461H31.6483H31.6506H31.6528H31.6551H31.6573H31.6596H31.6618H31.664H31.6663H31.6685H31.6708H31.673H31.6753H31.6775H31.6797H31.682H31.6842H31.6865H31.6887H31.6909H31.6932H31.6954H31.6977H31.6999H31.7021H31.7044H31.7066H31.7088H31.7111H31.7133H31.7155H31.7178H31.72H31.7222H31.7244H31.7267H31.7289H31.7311H31.7334H31.7356H31.7378H31.74H31.7423H31.7445H31.7467H31.7489H31.7512H31.7534H31.7556H31.7578H31.7601H31.7623H31.7645H31.7667H31.769H31.7712H31.7734H31.7756H31.7778H31.7801H31.7823H31.7845H31.7867H31.7889H31.7912H31.7934H31.7956H31.7978H31.8H31.8023H31.8045H31.8067H31.8089H31.8111H31.8133H31.8156H31.8178H31.82H31.8222H31.8244H31.8267H31.8289H31.8311H31.8333H31.8355H31.8377H31.8399H31.8422H31.8444H31.8466H31.8488H31.851H31.8532H31.8555H31.8577H31.8599H31.8621H31.8643H31.8665H31.8688H31.871H31.8732H31.8754H31.8776H31.8798H31.8821H31.8843H31.8865H31.8887H31.8909H31.8931H31.8954H31.8976H31.8998H31.902H31.9042H31.9064H31.9087H31.9109H31.9131H31.9153H31.9175H31.9198H31.922H31.9242H31.9264H31.9286H31.9309H31.9331H31.9353H31.9375H31.9397H31.942H31.9442H31.9464H31.9486H31.9509H31.9531H31.9553H31.9575H31.9598H31.962H31.9642H31.9664H31.9687H31.9709H31.9731H31.9753H31.9776H31.9798H31.982H31.9842H31.9865H31.9887H31.9909H31.9932H31.9954H31.9976H31.9999H32.0021H32.0043H32.0066H32.0088H32.011H32.0133H32.0155H32.0177H32.02H32.0222H32.0244H32.0267H32.0289H32.0312H32.0334H32.0356H32.0379H32.0401H32.0424H32.0446H32.0469H32.0491H32.0514H32.0536H32.0558H32.0581H32.0603H32.0626H32.0648H32.0671H32.0693H32.0716H32.0738H32.0761H32.0784H32.0806H32.0829H32.0851H32.0874H32.0896H32.0919H32.0942H32.0964H32.0987H32.1009H32.1032H32.1055H32.1077H32.11H32.1123H32.1145H32.1168H32.1191H32.1213H32.1236H32.1259H32.1282H32.1304H32.1327H32.135H32.1373H32.1395H32.1418H32.1441H32.1464H32.1487H32.1509H32.1532H32.1555H32.1578H32.1601H32.1624H32.1647H32.167H32.1692H32.1715H32.1738H32.1761H32.1784H32.1807H32.183H32.1853H32.1876H32.1899H32.1922H32.1945H32.1968H32.1991H32.2014H32.2037H32.2061H32.2084H32.2107H32.213H32.2153H32.2176H32.2199H32.2223H32.2246H32.2269H32.2292H32.2315H32.2339H32.2362H32.2385H32.2409H32.2432H32.2455H32.2478H32.2502H32.2525H32.2549H32.2572H32.2595H32.2619H32.2642H32.2666H32.2689H32.2712H32.2736H32.2759H32.2783H32.2806H32.283H32.2854H32.2877H32.2901H32.2924H32.2948H32.2972H32.2995H32.3019H32.3042H32.3066H32.309H32.3114H32.3137H32.3161H32.3185H32.3209H32.3232H32.3256H32.328H32.3304H32.3328H32.3352H32.3375H32.3399H32.3423H32.3447H32.3471H32.3495H32.3519H32.3543H32.3567H32.3591H32.3615H32.3639H32.3664H32.3688H32.3712H32.3736H32.376H32.3784H32.3808H32.3833H32.3857H32.3881H32.3905H32.393H32.3954H32.3978H32.4003H32.4027H32.4051H32.4076H32.41H32.4125H32.4149H32.4174H32.4198H32.4223H32.4247H32.4272H32.4296H32.4321H32.4345H32.437H32.4395H32.4419H32.4444H32.4469H32.4494H32.4518H32.4543H32.4568H32.4593H32.4617H32.4642H32.4667H32.4692H32.4717H32.4742H32.4767H32.4792H32.4817H32.4842H32.4867H32.4892H32.4917H32.4942H32.4967H32.4992H32.5018H32.5043H32.5068H32.5093H32.5118H32.5144H32.5169H32.5194H32.522H32.5245H32.527H32.5296H32.5321H32.5347H32.5372H32.5398H32.5423H32.5449H32.5474H32.55H32.5525H32.5551H32.5577H32.5602H32.5628H32.5654H32.568H32.5705H32.5731H32.5757H32.5783H32.5809H32.5835H32.6835V41.0975V41.0868V41.0761V41.0654V41.0547V41.0441V41.0334V41.0227V41.012V41.0013V40.9907V40.98V40.9693V40.9587V40.948V40.9373V40.9267V40.916V40.9053V40.8947V40.884V40.8733V40.8627V40.852V40.8414V40.8307V40.8201V40.8094V40.7988V40.7881V40.7775V40.7668V40.7562V40.7455V40.7349V40.7242V40.7136V40.7029V40.6923V40.6817V40.671V40.6604V40.6497V40.6391V40.6285V40.6178V40.6072V40.5966V40.5859V40.5753V40.5647V40.5541V40.5434V40.5328V40.5222V40.5116V40.5009V40.4903V40.4797V40.4691V40.4585V40.4479V40.4372V40.4266V40.416V40.4054V40.3948V40.3842V40.3736V40.363V40.3524V40.3418V40.3311V40.3205V40.3099V40.2993V40.2887V40.2781V40.2675V40.2569V40.2464V40.2358V40.2252V40.2146V40.204V40.1934V40.1828V40.1722V40.1616V40.151V40.1404V40.1299V40.1193V40.1087V40.0981V40.0875V40.077V40.0664V40.0558V40.0452V40.0346V40.0241V40.0135V40.0029V39.9924V39.9818V39.9712V39.9606V39.9501V39.9395V39.9289V39.9184V39.9078V39.8973V39.8867V39.8761V39.8656V39.855V39.8445V39.8339V39.8233V39.8128V39.8022V39.7917V39.7811V39.7389V38.3958V38.3541V38.3436V38.3332V38.3227V38.3123V38.3019V38.2914V38.281V38.2706V38.2601V38.2497V38.2393V38.2288V38.2184V38.208V38.1975V38.1871V38.1767V38.1662V38.1558V38.1454V38.135V38.1245V38.1141V38.1037V38.0933V38.0828V38.0724V38.062V38.0516V38.0412V38.0307V38.0203V38.0099V37.9995V37.9891V37.9786V37.9682V37.9578V37.9474V37.937V37.9266V37.9162V37.9057V37.8953V37.8849V37.8745V37.8641V37.8537V37.8433V37.8329V37.8225V37.8121V37.8016V37.7912V37.7808V37.7704V37.76V37.7496V37.7392V37.7288V37.7184V37.708V37.6976V37.6872V37.6768V37.6664V37.656V37.6456V37.6352V37.6248V37.6144V37.604V37.5936V37.5832V37.5728V37.5624V37.5521V37.5417V37.5313V37.5209V37.5105V37.5001V37.4897V37.4793V37.4689V37.4585V37.4481V37.4378V37.4274V37.417V37.4066V37.3962V37.3858V37.3754V37.3651V37.3547V37.3443V37.3339V37.3235V37.3132V37.3028V37.2924V37.282V37.2716V37.2613V37.2509V37.2405V37.2301V37.2197V37.2094V37.199V37.1886V37.1782V37.1679V37.1575V37.1471V37.1367V37.1264V37.116V37.1056V37.0953V37.0849V37.0745V37.0641V37.0538V37.0434V37.033V37.0227V37.0123V37.0019V36.9916V36.9812V36.9708V36.9605V36.9501V36.9397V36.9294V36.919V36.9086V36.8983V36.8879V36.8776V36.8672V36.8568V36.8465V36.8361V36.8258V36.8154V36.805V36.7947V36.7843V36.774V36.7636V36.7532V36.7429V36.7325V36.7222V36.7118V36.7015V36.6911V36.6808V36.6704V36.66V36.6497V36.6393V36.629V36.6186V36.6083V36.5979V36.5876V36.5772V36.5669V36.5565V36.5462V36.5358V36.5255V36.5151V36.5048V36.4944V36.4841V36.4737V36.4634V36.453V36.4427V36.4324V36.422V36.4117V36.4013V36.391V36.3806V36.3703V36.3599V36.3496V36.3393V36.3289V36.3186V36.3082V36.2979V36.2875V36.2772V36.2669V36.2565V36.2462V36.2358V36.2255V36.2152V36.2048V36.1945V36.1841V36.1738V36.1635V36.1531V36.1428V36.1325V36.1221V36.1118V36.1014V36.0911V36.0808V36.0704V36.0601V36.0498V36.0394V36.0291V36.0188V36.0084V35.9981V35.9878V35.9774V35.9671V35.9568V35.9464V35.9361V35.9258V35.9154V35.9051V35.8948V35.8844V35.8741V35.8638V35.8534V35.8431V35.8328V35.8225V35.8121V35.8063C32.7166 35.7926 32.7485 35.7797 32.7792 35.7673C32.8665 35.732 32.9444 35.7006 33.0159 35.6643L33.0162 35.6642C34.0855 35.118 34.6613 34.0054 34.4154 32.9253C34.1503 31.7598 33.1466 30.9422 31.9807 30.9469L31.9805 30.9469C30.8393 30.9531 29.8725 31.7326 29.5829 32.8724L29.5829 32.8725C29.3096 33.9504 29.8375 35.0919 30.9283 35.6249L30.9285 35.625C31.0972 35.707 31.1868 35.7872 31.2375 35.8777C31.289 35.9698 31.3083 36.0866 31.3069 36.2596ZM31.3069 36.2596C31.3069 36.2596 31.3069 36.2596 31.3069 36.2596L31.4069 36.2606M31.3069 36.2596C31.3069 36.2597 31.3069 36.2597 31.3069 36.2598L31.4069 36.2606M31.4069 36.2606C31.4099 35.903 31.3297 35.7087 30.9722 35.5351L32.9707 35.5751C32.9026 35.6097 32.8316 35.6383 32.7476 35.6722C32.6981 35.6921 32.644 35.7139 32.5835 35.7398V40.9975V41.0975H32.4835H31.4995H31.3995C31.3995 40.6687 31.3989 40.2424 31.3983 39.818C31.3965 38.6227 31.3948 37.4421 31.4069 36.2606ZM33.0755 33.4111L33.0755 33.4114C33.0809 33.9929 32.6009 34.4884 32.0156 34.5033C31.4081 34.5182 30.891 34.0011 30.906 33.3936L30.8061 33.3911L30.906 33.3937C30.9209 32.8114 31.4194 32.3284 31.9994 32.3338C32.5815 32.3393 33.0714 32.8293 33.0755 33.4111Z" fill="#3D3D63" stroke="#3D3D63" stroke-width="0.2"/>
<path d="M40.983 44.1867H40.883H40.8805H40.878H40.8755H40.873H40.8704H40.8679H40.8654H40.8629H40.8604H40.8579H40.8554H40.853H40.8505H40.848H40.8455H40.843H40.8405H40.838H40.8356H40.8331H40.8306H40.8282H40.8257H40.8232H40.8208H40.8183H40.8158H40.8134H40.8109H40.8085H40.806H40.8036H40.8012H40.7987H40.7963H40.7938H40.7914H40.789H40.7865H40.7841H40.7817H40.7793H40.7768H40.7744H40.772H40.7696H40.7672H40.7648H40.7624H40.7599H40.7575H40.7551H40.7527H40.7503H40.7479H40.7456H40.7432H40.7408H40.7384H40.736H40.7336H40.7312H40.7288H40.7265H40.7241H40.7217H40.7193H40.717H40.7146H40.7122H40.7099H40.7075H40.7051H40.7028H40.7004H40.6981H40.6957H40.6934H40.691H40.6887H40.6863H40.684H40.6816H40.6793H40.6769H40.6746H40.6723H40.6699H40.6676H40.6653H40.6629H40.6606H40.6583H40.6559H40.6536H40.6513H40.649H40.6467H40.6443H40.642H40.6397H40.6374H40.6351H40.6328H40.6305H40.6282H40.6259H40.6236H40.6213H40.619H40.6167H40.6144H40.6121H40.6098H40.6075H40.6052H40.6029H40.6006H40.5983H40.596H40.5938H40.5915H40.5892H40.5869H40.5846H40.5824H40.5801H40.5778H40.5755H40.5733H40.571H40.5687H40.5664H40.5642H40.5619H40.5596H40.5574H40.5551H40.5529H40.5506H40.5483H40.5461H40.5438H40.5416H40.5393H40.5371H40.5348H40.5326H40.5303H40.5281H40.5258H40.5236H40.5213H40.5191H40.5168H40.5146H40.5124H40.5101H40.5079H40.5056H40.5034H40.5012H40.4989H40.4967H40.4945H40.4922H40.49H40.4878H40.4855H40.4833H40.4811H40.4789H40.4766H40.4744H40.4722H40.47H40.4677H40.4655H40.4633H40.4611H40.4588H40.4566H40.4544H40.4522H40.45H40.4478H40.4456H40.4433H40.4411H40.4389H40.4367H40.4345H40.4323H40.4301H40.4279H40.4257H40.4234H40.4212H40.419H40.4168H40.4146H40.4124H40.4102H40.408H40.4058H40.4036H40.4014H40.3992H40.397H40.3948H40.3926H40.3904H40.3882H40.386H40.3838H40.3816H40.3794H40.3772H40.375H40.3728H40.3706H40.3684H40.3662H40.364H40.3619H40.3597H40.3575H40.3553H40.3531H40.3509H40.3487H40.3465H40.3443H40.3421H40.3399H40.3378H40.3356H40.3334H40.3312H40.329H40.3268H40.3246H40.3224H40.3202H40.3181H40.3159H40.3137H40.3115H40.3093H40.3071H40.3049H40.3027H40.3006H40.2984H40.2962H40.294H40.2918H40.2896H40.2874H40.2853H40.2831H40.2809H40.2787H40.2765H40.2743H40.2721H40.2699H40.2678H40.2656H40.2634H40.2612H40.259H40.2568H40.2546H40.2525H40.2503H40.2481H40.2459H40.2437H40.2415H40.2393H40.2371H40.235H40.2328H40.2306H40.2284H40.2262H40.224H40.2218H40.2196H40.2174H40.2153H40.2131H40.2109H40.2087H40.2065H40.2043H40.2021H40.1999H40.1977H40.1955H40.1933H40.1911H40.1889H40.1868H40.1846H40.1824H40.1802H40.178H40.1758H40.1736H40.1714H40.1692H40.167H40.1648H40.1626H40.1604H40.1582H40.156H40.1538H40.1516H40.1494H40.1472H40.145H40.1428H40.1406H40.1384H40.1361H40.1339H40.1317H40.1295H40.1273H40.1251H40.1229H40.1207H40.1185H40.1163H40.114H40.1118H40.1096H40.1074H40.1052H40.103H40.1008H40.0985H40.0963H40.0941H40.0919H40.0897H40.0874H40.0852H40.083H40.0808H40.0785H40.0763H40.0741H40.0719H40.0696H40.0674H40.0652H40.0629H40.0607H40.0585H40.0562H40.054H40.0518H40.0495H40.0473H40.045H40.0428H40.0406H40.0383H40.0361H40.0338H40.0316H40.0293H40.0271H40.0248H40.0226H40.0203H40.0181H40.0158H40.0136H40.0113H40.009H40.0068H40.0045H40.0023H40H39.9977H39.9955H39.9932H39.9909H39.9887H39.9864H39.9841H39.9819H39.9796H39.9773H39.975H39.9728H39.9705H39.9682H39.9659H39.9636H39.9613H39.9591H39.9568H39.9545H39.9522H39.9499H39.9476H39.9453H39.943H39.9407H39.9384H39.9361H39.9338H39.9315H39.9292H39.9269H39.9246H39.9223H39.92H39.9177H39.9154H39.913H39.9107H39.9084H39.9061H39.9038H39.9014H39.8991H39.8968H39.8945H39.8921H39.8898H39.8875H39.8851H39.8828H39.8805H39.8781H39.8758H39.8734H39.8711H39.8687H39.8664H39.864H39.8617H39.8593H39.857H39.8546H39.8522H39.8499H39.8475H39.8452H39.8428H39.8404H39.8381H39.8357H39.8333H39.8309H39.8285H39.8262H39.8238H39.8214H39.819H39.8166H39.8142H39.8118H39.8094H39.807H39.8046H39.8022H39.7998H39.7974H39.795H39.7926H39.7902H39.7878H39.7854H39.783H39.7805H39.7781H39.7757H39.7733H39.7709H39.7684H39.766H39.7636H39.7611H39.7587H39.7562H39.7538H39.7513H39.7489H39.7464H39.744H39.7415H39.7391H39.7366H39.7342H39.7317H39.7292H39.7268H39.7243H39.7218H39.7193H39.7169H39.7144H39.7119H39.7094H39.6094V44.0867V44.082V44.0774V44.0728V44.0681V44.0635V44.0588V44.0542V44.0495V44.0449V44.0403V44.0356V44.031V44.0263V44.0217V44.0171V44.0124V44.0078V44.0032V43.9985V43.9939V43.9892V43.9846V43.98V43.9753V43.9707V43.9661V43.9614V43.9568V43.9521V43.9475V43.9429V43.9382V43.9336V43.929V43.9243V43.9197V43.9151V43.9104V43.9058V43.9012V43.8965V43.8919V43.8873V43.8826V43.878V43.8734V43.8687V43.8641V43.8595V43.8548V43.8502V43.8456V43.841V43.8363V43.8317V43.8271V43.8224V43.8178V43.8132V43.8085V43.8039V43.7993V43.7947V43.79V43.7854V43.7808V43.7762V43.7715V43.7669V43.7623V43.7576V43.753V43.7484V43.7438V43.7391V43.7345V43.7299V43.7253V43.7206V43.716V43.7114V43.7068V43.7021V43.6975V43.6929V43.6883V43.6836V43.679V43.6744V43.6698V43.6652V43.6605V43.6559V43.6513V43.6467V43.642V43.6374V43.6328V43.6282V43.6236V43.6189V43.6143V43.6097V43.6051V43.6005V43.5958V43.5912V43.5866V43.582V43.5774V43.5728V43.5681V43.5635V43.5589V43.5543V43.5497V43.545V43.5404V43.5358V43.5312V43.5266V43.522V43.5173V43.5127V43.5081V43.5035V43.4989V43.4943V43.4896V43.485V43.4804V43.4758V43.4712V43.4666V43.462V43.4573V43.4527V43.4481V43.4435V43.4389V43.4343V43.4297V43.4251V43.4204V43.4158V43.4112V43.4066V43.402V43.3974V43.3928V43.3882V43.3836V43.3789V43.3743V43.3697V43.3651V43.3605V43.3559V43.3513V43.3467V43.3421V43.3375V43.3328V43.3282V43.3236V43.319V43.3144V43.3098V43.3052V43.3006V43.296V43.2914V43.2868V43.2822V43.2775V43.2729V43.2683V43.2637V43.2591V43.2545V43.2499V43.2453V43.2407V43.2361V43.2315V43.2269V43.2223V43.2177V43.2131V43.2085V43.2039V43.1993V43.1947V43.1901V43.1854V43.1808V43.1762V43.1716V43.167V43.1624V43.1578V43.1532V43.1486V43.144V43.1394V43.1348V43.1302V43.1256V43.121V43.1164V43.1118V43.1072V43.1026V43.098V43.0934V43.0888V43.0842V43.0796V43.075V43.0704V43.0658V43.0612V43.0566V43.052V43.0474V43.0428V43.0382V43.0336V43.029V43.0244V43.0198V43.0152V43.0106V43.006V43.0014V42.9968V42.9922V42.9876V42.983V42.9784V42.9738V42.9692V42.9647V42.9601V42.9555V42.9509V42.9463V42.9417V42.9371V42.9325V42.9279V42.9233V42.9187V42.9141V42.9095V42.9049V42.9003V42.8957V42.8911V42.8865V42.8819V42.8773V42.8728V42.8682V42.8636V42.859V42.8544V42.8498V42.8452V42.8406V42.836V42.8314V42.8268V42.8222V42.8176V42.813V42.8085V42.8039V42.7993V42.7947V42.7901V42.7855V42.7809V42.7763V42.7717V42.7671V42.7625V42.758V42.7534V42.7488V42.7442V42.7396V42.735V42.7304V42.7258V42.7212V42.7166V42.7121V42.7075V42.7029V42.6983V42.6937V42.6891V42.6845V42.6799V42.6753V42.6708V42.6662V42.6616V42.657V42.6524V42.6478V42.6432V42.6386V42.6341V42.6295V42.6249V42.6203V42.6157V42.6111V42.6065V42.6019V42.5974V42.5928V42.5882V42.5836V42.579V42.5744V42.5698V42.5653V42.5607V42.5561V42.5515V42.5469V42.5423V42.5377V42.5332V42.5286V42.524V42.5194V42.5148V42.5102V42.5057V42.5011V42.4965V42.4919V42.4873V42.4827V42.4782V42.4736V42.469V42.4644V42.4598V42.4552V42.4507V42.4461V42.4415V42.4369V42.4323V42.4277V42.4232V42.4186V42.414V42.4094V42.4048V42.4002V42.3957V42.3911V42.3865V42.3819V42.3773V42.3728V42.3682V42.3636V42.359V42.3544V42.3498V42.3453V42.3407V42.3361V42.3315V42.3269V42.3224V42.3178V42.3132V42.3086V42.304V42.2995V42.2949V42.2903V42.2857V42.2811V42.2766V42.272V42.2674V42.2628V42.2582V42.2537V42.2491V42.2445V42.2399V42.2354V42.2308V42.2262V42.2216V42.217V42.2125V42.2079V42.2033V42.1987V42.1941V42.1896V42.185V42.1804V42.1758V42.1713V42.1667V42.1621V42.1575V42.1529V42.1484V42.1438V42.1392V42.1346V42.1301V42.1255V42.1209V42.1163V42.1117V42.1072V42.1026V42.098V42.0934V42.0889V42.0843V42.0797V42.0751V42.0706V42.066V42.0614V42.0568V42.0523V42.0477V42.0431V42.0385V42.0339V42.0294V42.0248V42.0202V42.0156V42.0111V42.0065V42.0019V41.9973V41.9928V41.9882V41.9836V41.979V41.9745V41.9699V41.9653V41.9607V41.9562V41.9516V41.947V41.9424V41.9379V41.9333V41.9287V41.9241V41.9196V41.915V41.9104V41.9058V41.9013V41.8967V41.8921V41.8875V41.883V41.8784V41.8738V41.8692V41.8647V41.8601V41.8555V41.851V41.8464V41.8418V41.8372V41.8327V41.8281V41.8235V41.8189V41.8144V41.8098V41.8052V41.8006V41.7961V41.7915V41.7869V41.7824V41.7778V41.7732V41.7686V41.7641V41.7595V41.7549V41.7503V41.7458V41.7412V41.7366V41.732V41.7274V41.7228V41.7182V41.7135V41.7089V41.7043V41.6997V41.695V41.6904V41.6858V41.6812V41.6765V41.6719V41.6673V41.6627V41.658V41.6534V41.6488V41.6442V41.6395V41.6349V41.6303V41.6257V41.6211V41.6164V41.6118V41.6072V41.6026V41.5979V41.5933V41.5887V41.5841V41.5794V41.5748V41.5702V41.5656V41.5609V41.5563V41.5517V41.5471V41.5424V41.5378V41.5332V41.5286V41.5239V41.5193V41.5147V41.5101V41.5054V41.5008V41.4962V41.4916V41.4869V41.4823V41.4777V41.4731V41.4684V41.4638V41.4592V41.4546V41.45V41.4453V41.4407V41.4361V41.4315V41.4268V41.4222V41.4176V41.413V41.4083V41.4037V41.3991V41.3945V41.3899V41.3852V41.3806V41.376V41.3714V41.3667V41.3621V41.3575V41.3529V41.3482V41.3436V41.339V41.3344V41.3298V41.3251V41.3205V41.3159V41.3113V41.3066V41.302V41.2974V41.2928V41.2882V41.2835V41.2789V41.2743V41.2697V41.2651V41.2604V41.2558V41.2512V41.2466V41.2419V41.2373V41.2327V41.2281V41.2235V41.2188V41.2142V41.2096V41.205V41.2004V41.1957V41.1911V41.1865V41.1819V41.1773V41.1726V41.168V41.1634V41.1588V41.1542V41.1495V41.1449V41.1403V41.1357V41.1311V41.1265V41.1218V41.1172V41.1126V41.108V41.1034V41.0987V41.0941V41.0895V41.0849V41.0803V41.0757V41.071V41.0664V41.0618V41.0572V41.0526V41.0479V41.0433V41.0387V41.0341V41.0295V41.0249V41.0202V41.0156V41.011V41.0064V41.0018V40.9972V40.9926V40.9879V40.9833V40.9787V40.9741V40.9695V40.9649V40.9602V40.9556V40.951V40.9464V40.9418V40.9372V40.9326V40.9279V40.9233V40.9187V40.9141V40.9095V40.9049V40.9003V40.8957V40.891V40.8864V40.8818V40.8772V40.8726V40.868V40.8634V40.8588V40.8541V40.8495V40.8449V40.8403V40.8357V40.8311V40.8265V40.8219V40.8172V40.8126V40.808V40.8034V40.7988V40.7942V40.7896V40.785V40.7804V40.7758V40.7712V40.7665V40.7619V40.7573V40.7527V40.7481V40.7435V40.7389V40.7343V40.7297V40.7251V40.7205V40.7159V40.7112V40.7066V40.702V40.6974V40.6928V40.6882V40.6836V40.679V40.6744V40.6698V40.6652V40.6606V40.656V40.6514V40.6468V40.6422V40.6376V40.6329V40.6283V40.6237V40.6191V40.6145V40.6099V40.6053V40.6007V40.5961V40.5915V40.5869V40.5823V40.5777V40.5731V40.5685V40.5639V40.5593V40.5547V40.5501V40.5455V40.5409V40.5363V40.5317V40.5271V40.5225V40.5179V40.5133V40.5087V40.5041V40.4995V40.4949V40.4903V40.4857V40.4811V40.4765V40.4719V40.4673V40.4627V40.4581V40.4535V40.4489V40.4443V40.4397V40.4351V40.4305V40.4259V40.4213V40.4167V40.4122V40.4076V40.403V40.3984V40.3938V40.3892V40.3846V40.38V40.3754V40.3708V40.3662V40.3616V40.357V40.3524V40.3478V40.3433V40.3387V40.3341V40.3295V40.3249V40.3203V40.3157V40.3111V40.3065V40.3019V40.2973V40.2928V40.2882V40.2836V40.279V40.2744V40.2698V40.2652V40.2606V40.256V40.2515V40.2469V40.2423V40.2377V40.2331V40.2285V40.2239V40.2194V40.2148V40.2102V40.2056V40.201V40.1964V40.1918V40.1873V40.1827V40.1781V40.1735V40.1689V40.1643V40.1598V40.1552V40.1506V40.146V40.1414V40.1368V40.1323V40.1277V40.1231V40.1185V40.1139V40.1094V40.1048V40.1002V40.0956V40.091V40.0865V40.0819V40.0773V40.0727V40.0682V40.0636V40.059V40.0544V40.0499V40.0453V40.0407V40.0361V40.0315V40.027V40.0224V40.0178V40.0132V40.0087V40.0041V39.9995V39.995V39.9904V39.9858V39.9812V39.9767V39.9721V39.9675V39.9629V39.9584V39.9538V39.9492V39.9447V39.9401V39.9355V39.931V39.9264V39.9218V39.9173V39.9127V39.9081V39.9035V39.899V39.8944V39.8898V39.8853V39.8807V39.8761V39.8716V39.867V39.8625V39.8579V39.8533V39.8488V39.8442V39.8396V39.8351V39.8305V39.8259V39.8214V39.8168V39.8123V39.8077V39.8031V39.7986V39.794V39.7895V39.7849V39.7803V39.7758V39.7712V39.7667V39.7621V39.7575V39.753V39.7484V39.7439V39.7393V39.7348V39.7302V39.7256V39.7211V39.7165V39.712V39.7074V39.7029V39.6983V39.6938V39.6892V39.6847V39.6801V39.6756V39.671V39.6664V39.6619V39.6573V39.6528V39.6482V39.6437V39.6391V39.6346V39.63V39.6255V39.621V39.6164V39.6119V39.6073V39.6028V39.5982V39.5937V39.5891V39.5846V39.58V39.5755V39.5709V39.5664V39.5619V39.5573V39.5528V39.5482V39.5437V39.5391V39.5346V39.5301V39.5255V39.521V39.5164V39.5119V39.5074V39.5028V39.4983V39.4937V39.4892V39.4847V39.4801V39.4756V39.471V39.4665V39.462V39.4574V39.4529V39.4484V39.4438V39.4393V39.4366C38.8667 38.9817 38.358 38.522 38.0771 38.0213C37.7875 37.5051 37.7457 36.9554 37.9219 36.3452L40.983 44.1867ZM40.983 44.1867V44.0867M40.983 44.1867V44.0867M40.983 44.0867C40.983 42.4762 40.983 40.9236 40.9844 39.3989L40.983 44.0867ZM40.3819 34.5089L40.382 34.5089C41.5187 34.5476 42.4712 35.3607 42.7255 36.504L40.3819 34.5089ZM40.3819 34.5089C39.233 34.4702 38.25 35.2069 37.9219 36.3452L40.3819 34.5089ZM39.2144 36.9433L39.2144 36.9432C39.2348 36.3596 39.7371 35.8835 40.3172 35.8943C40.8994 35.9065 41.3853 36.4037 41.3839 36.9825C41.3826 37.5628 40.894 38.0571 40.3119 38.0652C39.7043 38.0734 39.1927 37.5508 39.2144 36.9433Z" fill="#3D3D63" stroke="#3D3D63" stroke-width="0.2"/>
<path d="M21.7092 35.5007L21.7092 35.5007C22.2857 34.7263 23.3371 34.3401 24.2448 34.5763L21.7092 35.5007ZM21.7092 35.5007C21.1982 36.1871 21.0809 36.9626 21.3272 37.6711C21.5673 38.3621 22.1486 38.9774 23.0203 39.3843C23.0203 40.3663 23.0202 41.3247 23.0188 42.2903L23.0186 42.3904H23.1188H23.1211H23.1235H23.1258H23.1282H23.1305H23.1329H23.1352H23.1376H23.1399H23.1423H23.1446H23.1469H23.1493H23.1516H23.1539H23.1563H23.1586H23.1609H23.1633H23.1656H23.1679H23.1703H23.1726H23.1749H23.1772H23.1795H23.1819H23.1842H23.1865H23.1888H23.1911H23.1934H23.1957H23.1981H23.2004H23.2027H23.205H23.2073H23.2096H23.2119H23.2142H23.2165H23.2188H23.2211H23.2234H23.2257H23.228H23.2303H23.2325H23.2348H23.2371H23.2394H23.2417H23.244H23.2463H23.2486H23.2508H23.2531H23.2554H23.2577H23.2599H23.2622H23.2645H23.2668H23.269H23.2713H23.2736H23.2759H23.2781H23.2804H23.2827H23.2849H23.2872H23.2895H23.2917H23.294H23.2962H23.2985H23.3008H23.303H23.3053H23.3075H23.3098H23.312H23.3143H23.3165H23.3188H23.321H23.3233H23.3255H23.3278H23.33H23.3323H23.3345H23.3368H23.339H23.3412H23.3435H23.3457H23.348H23.3502H23.3524H23.3547H23.3569H23.3591H23.3614H23.3636H23.3658H23.3681H23.3703H23.3725H23.3748H23.377H23.3792H23.3814H23.3837H23.3859H23.3881H23.3903H23.3926H23.3948H23.397H23.3992H23.4014H23.4037H23.4059H23.4081H23.4103H23.4125H23.4148H23.417H23.4192H23.4214H23.4236H23.4258H23.428H23.4302H23.4325H23.4347H23.4369H23.4391H23.4413H23.4435H23.4457H23.4479H23.4501H23.4523H23.4545H23.4567H23.4589H23.4611H23.4633H23.4655H23.4677H23.4699H23.4721H23.4743H23.4765H23.4787H23.4809H23.4831H23.4853H23.4875H23.4897H23.4919H23.4941H23.4963H23.4985H23.5007H23.5029H23.5051H23.5073H23.5095H23.5117H23.5139H23.5161H23.5183H23.5204H23.5226H23.5248H23.527H23.5292H23.5314H23.5336H23.5358H23.538H23.5402H23.5423H23.5445H23.5467H23.5489H23.5511H23.5533H23.5555H23.5576H23.5598H23.562H23.5642H23.5664H23.5686H23.5708H23.5729H23.5751H23.5773H23.5795H23.5817H23.5839H23.586H23.5882H23.5904H23.5926H23.5948H23.597H23.5991H23.6013H23.6035H23.6057H23.6079H23.61H23.6122H23.6144H23.6166H23.6188H23.6209H23.6231H23.6253H23.6275H23.6297H23.6319H23.634H23.6362H23.6384H23.6406H23.6428H23.6449H23.6471H23.6493H23.6515H23.6537H23.6558H23.658H23.6602H23.6624H23.6646H23.6667H23.6689H23.6711H23.6733H23.6755H23.6776H23.6798H23.682H23.6842H23.6864H23.6886H23.6907H23.6929H23.6951H23.6973H23.6995H23.7017H23.7038H23.706H23.7082H23.7104H23.7126H23.7148H23.7169H23.7191H23.7213H23.7235H23.7257H23.7279H23.73H23.7322H23.7344H23.7366H23.7388H23.741H23.7432H23.7454H23.7475H23.7497H23.7519H23.7541H23.7563H23.7585H23.7607H23.7629H23.7651H23.7672H23.7694H23.7716H23.7738H23.776H23.7782H23.7804H23.7826H23.7848H23.787H23.7892H23.7914H23.7936H23.7958H23.7979H23.8001H23.8023H23.8045H23.8067H23.8089H23.8111H23.8133H23.8155H23.8177H23.8199H23.8221H23.8243H23.8265H23.8287H23.8309H23.8332H23.8354H23.8376H23.8398H23.842H23.8442H23.8464H23.8486H23.8508H23.853H23.8552H23.8574H23.8596H23.8619H23.8641H23.8663H23.8685H23.8707H23.8729H23.8751H23.8774H23.8796H23.8818H23.884H23.8862H23.8885H23.8907H23.8929H23.8951H23.8973H23.8996H23.9018H23.904H23.9062H23.9085H23.9107H23.9129H23.9151H23.9174H23.9196H23.9218H23.9241H23.9263H23.9285H23.9308H23.933H23.9352H23.9375H23.9397H23.942H23.9442H23.9464H23.9487H23.9509H23.9532H23.9554H23.9576H23.9599H23.9621H23.9644H23.9666H23.9689H23.9711H23.9734H23.9756H23.9779H23.9801H23.9824H23.9847H23.9869H23.9892H23.9914H23.9937H23.9959H23.9982H24.0005H24.0027H24.005H24.0073H24.0095H24.0118H24.0141H24.0163H24.0186H24.0209H24.0232H24.0254H24.0277H24.03H24.0323H24.0345H24.0368H24.0391H24.0414H24.0437H24.046H24.0482H24.0505H24.0528H24.0551H24.0574H24.0597H24.062H24.0643H24.0666H24.0689H24.0712H24.0735H24.0758H24.0781H24.0804H24.0827H24.085H24.0873H24.0896H24.0919H24.0942H24.0965H24.0988H24.1012H24.1035H24.1058H24.1081H24.1104H24.1127H24.1151H24.1174H24.1197H24.122H24.1244H24.1267H24.129H24.1314H24.1337H24.136H24.1384H24.1407H24.143H24.1454H24.1477H24.1501H24.1524H24.1548H24.1571H24.1594H24.1618H24.1642H24.1665H24.1689H24.1712H24.1736H24.1759H24.1783H24.1807H24.183H24.1854H24.1878H24.1901H24.1925H24.1949H24.1972H24.1996H24.202H24.2044H24.2067H24.2091H24.2115H24.2139H24.2163H24.2187H24.2211H24.2234H24.2258H24.2282H24.2306H24.233H24.2354H24.2378H24.2402H24.2426H24.245H24.2474H24.2498H24.2523H24.2547H24.2571H24.2595H24.2619H24.2643H24.2668H24.2692H24.2716H24.3716V42.2904C24.3716 42.0594 24.3738 41.8299 24.376 41.6018C24.3812 41.0551 24.3863 40.5157 24.3611 39.9786L24.3611 39.9785M21.7092 35.5007L24.3611 39.9785M24.3611 39.9785C24.3503 39.7519 24.3748 39.5909 24.4461 39.4627C24.5169 39.3356 24.6419 39.2266 24.8622 39.121C25.7853 38.6804 26.2659 37.6493 26.1393 36.6766M24.3611 39.9785L26.1393 36.6766M26.1393 36.6766C26.0077 35.661 25.2662 34.8413 24.2448 34.5763L26.1393 36.6766ZM24.7681 37.0114L24.7681 37.0114C24.7505 37.5935 24.2509 38.0725 23.6705 38.0658C23.09 38.0575 22.5999 37.5618 22.5986 36.983C22.5972 36.3783 23.1313 35.8677 23.7328 35.8962L23.7328 35.8962C24.315 35.9233 24.7857 36.4311 24.7681 37.0114Z" fill="#3D3D63" stroke="#3D3D63" stroke-width="0.2"/>
<path d="M35.4346 41.0729H35.5346H35.5372H35.5399H35.5426H35.5453H35.548H35.5506H35.5533H35.556H35.5586H35.5613H35.5639H35.5666H35.5693H35.5719H35.5745H35.5772H35.5798H35.5825H35.5851H35.5877H35.5904H35.593H35.5956H35.5982H35.6009H35.6035H35.6061H35.6087H35.6113H35.6139H35.6165H35.6191H35.6217H35.6243H35.6269H35.6295H35.6321H35.6347H35.6373H35.6399H35.6425H35.645H35.6476H35.6502H35.6528H35.6553H35.6579H35.6605H35.663H35.6656H35.6681H35.6707H35.6732H35.6758H35.6783H35.6809H35.6834H35.686H35.6885H35.691H35.6936H35.6961H35.6986H35.7012H35.7037H35.7062H35.7087H35.7112H35.7138H35.7163H35.7188H35.7213H35.7238H35.7263H35.7288H35.7313H35.7338H35.7363H35.7388H35.7413H35.7438H35.7463H35.7487H35.7512H35.7537H35.7562H35.7587H35.7611H35.7636H35.7661H35.7686H35.771H35.7735H35.7759H35.7784H35.7809H35.7833H35.7858H35.7882H35.7907H35.7931H35.7956H35.798H35.8005H35.8029H35.8053H35.8078H35.8102H35.8127H35.8151H35.8175H35.8199H35.8224H35.8248H35.8272H35.8296H35.8321H35.8345H35.8369H35.8393H35.8417H35.8441H35.8465H35.849H35.8514H35.8538H35.8562H35.8586H35.861H35.8634H35.8658H35.8681H35.8705H35.8729H35.8753H35.8777H35.8801H35.8825H35.8849H35.8872H35.8896H35.892H35.8944H35.8967H35.8991H35.9015H35.9039H35.9062H35.9086H35.911H35.9133H35.9157H35.918H35.9204H35.9228H35.9251H35.9275H35.9298H35.9322H35.9345H35.9369H35.9392H35.9416H35.9439H35.9463H35.9486H35.9509H35.9533H35.9556H35.9579H35.9603H35.9626H35.9649H35.9673H35.9696H35.9719H35.9743H35.9766H35.9789H35.9812H35.9836H35.9859H35.9882H35.9905H35.9928H35.9951H35.9975H35.9998H36.0021H36.0044H36.0067H36.009H36.0113H36.0136H36.0159H36.0182H36.0205H36.0228H36.0251H36.0274H36.0297H36.032H36.0343H36.0366H36.0389H36.0412H36.0435H36.0458H36.0481H36.0504H36.0527H36.055H36.0572H36.0595H36.0618H36.0641H36.0664H36.0687H36.0709H36.0732H36.0755H36.0778H36.0801H36.0823H36.0846H36.0869H36.0892H36.0914H36.0937H36.096H36.0982H36.1005H36.1028H36.105H36.1073H36.1096H36.1118H36.1141H36.1164H36.1186H36.1209H36.1232H36.1254H36.1277H36.1299H36.1322H36.1345H36.1367H36.139H36.1412H36.1435H36.1457H36.148H36.1502H36.1525H36.1547H36.157H36.1592H36.1615H36.1637H36.166H36.1682H36.1705H36.1727H36.175H36.1772H36.1795H36.1817H36.184H36.1862H36.1885H36.1907H36.1929H36.1952H36.1974H36.1997H36.2019H36.2041H36.2064H36.2086H36.2109H36.2131H36.2153H36.2176H36.2198H36.2221H36.2243H36.2265H36.2288H36.231H36.2332H36.2355H36.2377H36.2399H36.2422H36.2444H36.2466H36.2489H36.2511H36.2533H36.2556H36.2578H36.26H36.2623H36.2645H36.2667H36.269H36.2712H36.2734H36.2757H36.2779H36.2801H36.2824H36.2846H36.2868H36.289H36.2913H36.2935H36.2957H36.298H36.3002H36.3024H36.3047H36.3069H36.3091H36.3113H36.3136H36.3158H36.318H36.3203H36.3225H36.3247H36.327H36.3292H36.3314H36.3336H36.3359H36.3381H36.3403H36.3426H36.3448H36.347H36.3493H36.3515H36.3537H36.3559H36.3582H36.3604H36.3626H36.3649H36.3671H36.3693H36.3716H36.3738H36.376H36.3783H36.3805H36.3827H36.385H36.3872H36.3894H36.3917H36.3939H36.3961H36.3984H36.4006H36.4028H36.4051H36.4073H36.4096H36.4118H36.414H36.4163H36.4185H36.4207H36.423H36.4252H36.4275H36.4297H36.4319H36.4342H36.4364H36.4387H36.4409H36.4432H36.4454H36.4476H36.4499H36.4521H36.4544H36.4566H36.4589H36.4611H36.4634H36.4656H36.4679H36.4701H36.4724H36.4746H36.4769H36.4791H36.4814H36.4836H36.4859H36.4881H36.4904H36.4926H36.4949H36.4972H36.4994H36.5017H36.5039H36.5062H36.5085H36.5107H36.513H36.5152H36.5175H36.5198H36.522H36.5243H36.5266H36.5288H36.5311H36.5334H36.5356H36.5379H36.5402H36.5425H36.5447H36.547H36.5493H36.5516H36.5538H36.5561H36.5584H36.5607H36.5629H36.5652H36.5675H36.5698H36.5721H36.5744H36.5767H36.5789H36.5812H36.5835H36.5858H36.5881H36.5904H36.5927H36.595H36.5973H36.5996H36.6019H36.6042H36.6065H36.6088H36.6111H36.6134H36.6157H36.618H36.6203H36.6226H36.6249H36.6272H36.6295H36.6318H36.6341H36.6365H36.6388H36.6411H36.6434H36.6457H36.6481H36.6504H36.6527H36.655H36.6574H36.6597H36.662H36.6643H36.6667H36.669H36.6713H36.6737H36.676H36.6783H36.6807H36.683H36.6854H36.6877H36.6901H36.6924H36.6947H36.6971H36.6994H36.7018H36.7041H36.7065H36.7089H36.7112H36.7136H36.7159H36.7183H36.7207H36.723H36.7254H36.7278H36.7301H36.7325H36.7349H36.8349V41.1729V41.186V41.1991V41.2122V41.2253V41.2384V41.2515V41.2646V41.2777V41.2908V41.3039V41.317V41.3301V41.3432V41.3563V41.3694V41.3825V41.3956V41.4087V41.4218V41.4349V41.448V41.4611V41.4742V41.4873V41.5004V41.5135V41.5266V41.5397V41.5527V41.5658V41.5789V41.592V41.6051V41.6182V41.6313V41.6444V41.6574V41.6705V41.6836V41.6967V41.7098V41.7229V41.736V41.749V41.7621V41.7752V41.7883V41.8014V41.8145V41.8275V41.8406V41.8537V41.8668V41.8799V41.8929V41.906V41.9191V41.9322V41.9452V41.9583V41.9714V41.9845V41.9976V42.0106V42.0237V42.0368V42.0499V42.0629V42.076V42.0891V42.1022V42.1152V42.1283V42.1414V42.1544V42.1675V42.1806V42.1937V42.2067V42.2198V42.2329V42.246V42.259V42.2721V42.2852V42.2982V42.3113V42.3244V42.3375V42.3505V42.3636V42.3767V42.3897V42.4028V42.4159V42.429V42.442V42.4551V42.4682V42.4812V42.4943V42.5074V42.5205V42.5335V42.5466V42.5597V42.5727V42.5858V42.5989V42.612V42.625V42.6381V42.6512V42.6642V42.6773V42.6904V42.7035V42.7165V42.7296V42.7427V42.7558V42.7688V42.7819V42.795V42.8081V42.8211V42.8342V42.8473V42.8603V42.8734V42.8865V42.8996V42.9126V42.9257V42.9388V42.9519V42.965V42.978V42.9911V43.0042V43.0173V43.0303V43.0434V43.0565V43.0696V43.0827V43.0957V43.1088V43.1219V43.135V43.1481V43.1611V43.1742V43.1873V43.2004V43.2135V43.2266V43.2396V43.2527V43.2658V43.2789V43.292V43.3051V43.3182V43.3313V43.3443V43.3574V43.3705V43.3836V43.3967V43.4098V43.4229V43.436V43.4491V43.4622V43.4753V43.4884V43.5015V43.5145V43.5276V43.5407V43.5538V43.5669V43.58V43.5931V43.6062V43.6193V43.6324V43.6455V43.6586V43.6718V43.6849V43.698V43.7111V43.7242V43.7373V43.7504V43.7635V43.7766V43.7897V43.8028V43.816V43.8291V43.8422V43.8553V43.8684V43.8815V43.8946V43.9078V43.9209V43.934V43.9471V43.9602V43.9734V43.9865V43.9996V44.0127V44.0259V44.039V44.0521V44.0653V44.0784V44.0915V44.1047V44.1178V44.1309V44.1441V44.1572V44.1703V44.1835V44.1966V44.2097V44.2229V44.236V44.2492V44.2623V44.2755V44.2886V44.3018V44.3149V44.3281V44.3412V44.3544V44.3675V44.3807V44.3938V44.407V44.4201V44.4333V44.4465V44.4596V44.4728V44.486V44.4991V44.5123V44.5255V44.5386V44.5518V44.565V44.5781V44.5913V44.6045V44.6177V44.6308V44.644V44.6572V44.6704V44.6836V44.6968V44.7099V44.7231V44.7363V44.7495V44.7627V44.7759V44.7891V44.8023V44.8155V44.8287V44.8419V44.8551V44.8683V44.8815V44.8947V44.9079V44.9211V44.9343V44.9475V44.9607V44.974V44.9872V45.0004V45.0136V45.0268V45.04V45.0533V45.0665V45.0797V45.0929V45.1062V45.1194V45.1326V45.1459V45.1591V45.1724V45.1856V45.1988V45.2121V45.2253V45.2386V45.2518V45.2651V45.2783V45.2916V45.3048V45.3181V45.3313V45.3446V45.3579V45.3711V45.3844V45.3977V45.4109V45.4242V45.4375V45.4507V45.464V45.4773V45.4906V45.5039V45.5171V45.5304V45.5437V45.557V45.5703V45.5836V45.5969V45.6102V45.6235V45.6368V45.6501V45.6634V45.6767V45.69V45.7033V45.7166V45.7299V45.7432V45.7565V45.7699V45.7832V45.7965V45.8098V45.8232V45.8365V45.8498V45.8632V45.8765V45.8898V45.9032V45.9165V45.9298V45.9432V45.9565V45.9699V45.9832V45.9966V46.01V46.0233V46.0367V46.05V46.0634V46.0768V46.0901V46.1035V46.1169V46.1302V46.1436V46.157V46.1704V46.1838V46.1972V46.2105V46.2239V46.2373V46.2507V46.2641V46.2775V46.2909V46.3043V46.3177V46.3311V46.3446V46.358V46.3714V46.3848V46.3982V46.4116V46.4251V46.4385V46.4519V46.4654V46.4788V46.4922V46.5057V46.5191V46.5326V46.546V46.5595V46.5729V46.5864V46.5998V46.6133V46.6267V46.6402V46.6537V46.6671V46.6806V46.6941V46.7076V46.721V46.7345V46.748V46.7615V46.775V46.7885V46.802V46.8155V46.829V46.8425V46.856V46.8695V46.883V46.8965V46.91V46.9235V46.9371V46.9506V46.9641V46.9776V46.9912V47.0047V47.0182V47.0318V47.0453V47.0589V47.0724V47.086V47.0995V47.1131V47.1266V47.1402V47.1538V47.1673V47.1809V47.1945V47.208V47.2216V47.2352V47.2488V47.2624V47.276V47.2896V47.3032V47.3168V47.3304V47.344V47.3576V47.3712V47.3848V47.3984V47.412V47.4257V47.4393V47.4529V47.4665V47.4802V47.4938V47.5074V47.5211V47.5347V47.5484V47.562V47.5757V47.5893V47.603V47.6167V47.6303V47.644V47.6577V47.6714V47.685V47.6987V47.7124V47.7261V47.7398V47.7426C36.9021 47.6853 36.9652 47.6316 37.0264 47.5795C37.1819 47.4472 37.3254 47.325 37.4948 47.18L37.5754 47.111L37.6395 47.1956C37.8622 47.4895 38.067 47.7611 38.3622 48.1528L38.4159 48.224L38.3513 48.2854C38.2169 48.4134 38.0787 48.5487 37.9364 48.6878C37.5231 49.0921 37.0762 49.5292 36.5927 49.9171L36.5924 49.9174C36.5329 49.9648 36.4541 49.9924 36.3754 50.0078C36.295 50.0235 36.2059 50.0282 36.1182 50.0236C35.9481 50.0146 35.7589 49.9692 35.6442 49.8771C35.6441 49.8771 35.6441 49.8771 35.644 49.877L35.7067 49.7991C35.2691 49.4486 34.8665 49.054 34.4445 48.6404C34.2999 48.4988 34.1532 48.3549 34.0019 48.2098L35.4346 41.0729ZM35.4346 41.0729V41.1729V41.1861V41.1993V41.2126V41.2258V41.239V41.2523V41.2655V41.2787V41.292V41.3052V41.3184V41.3316V41.3449V41.3581V41.3713V41.3845V41.3978V41.411V41.4242V41.4374V41.4506V41.4638V41.4771V41.4903V41.5035V41.5167V41.5299V41.5431V41.5563V41.5695V41.5827V41.5959V41.6091V41.6223V41.6355V41.6487V41.6619V41.6751V41.6883V41.7015V41.7147V41.7279V41.7411V41.7543V41.7675V41.7807V41.7938V41.807V41.8202V41.8334V41.8466V41.8598V41.8729V41.8861V41.8993V41.9125V41.9257V41.9388V41.952V41.9652V41.9784V41.9915V42.0047V42.0179V42.0311V42.0442V42.0574V42.0706V42.0837V42.0969V42.1101V42.1232V42.1364V42.1496V42.1627V42.1759V42.1891V42.2022V42.2154V42.2285V42.2417V42.2549V42.268V42.2812V42.2943V42.3075V42.3206V42.3338V42.3469V42.3601V42.3732V42.3864V42.3995V42.4127V42.4258V42.439V42.4521V42.4653V42.4784V42.4916V42.5047V42.5179V42.531V42.5442V42.5573V42.5705V42.5836V42.5967V42.6099V42.623V42.6362V42.6493V42.6624V42.6756V42.6887V42.7019V42.715V42.7281V42.7413V42.7544V42.7675V42.7807V42.7938V42.8069V42.8201V42.8332V42.8463V42.8595V44.5395V44.5527V44.5658V44.579V44.5921V44.6052V44.6184V44.6315V44.6447V44.6578V44.671V44.6841V44.6972V44.7104V44.7235V44.7367V44.7498V44.763V44.7761V44.7893V44.8024V44.8156V44.8287V44.8419V44.855V44.8682V44.8813V44.8945V44.9076V44.9208V44.9339V44.9471V44.9603V44.9734V44.9866V44.9997V45.0129V45.0261V45.0392V45.0524V45.0655V45.0787V45.0919V45.105V45.1182V45.1314V45.1445V45.1577V45.1709V45.184V45.1972V45.2104V45.2236V45.2367V45.2499V45.2631V45.2763V45.2894V45.3026V45.3158V45.329V45.3422V45.3553V45.3685V45.3817V45.3949V45.4081V45.4213V45.4344V45.4476V45.4608V45.474V45.4872V45.5004V45.5136V45.5268V45.54V45.5532V45.5664V45.5796V45.5928V45.606V45.6192V45.6324V45.6456V45.6588V45.672V45.6852V45.6984V45.7116V45.7248V45.738V45.7512V45.7645V45.7777V45.7909V45.8041V45.8173V45.8305V45.8438V45.857V45.8702V45.8834V45.8967V45.9099V45.9231V45.9363V45.9496V45.9628V45.976V45.9893V46.0025V46.0157V46.029V46.0422V46.0555V46.0687V46.0819V46.0952V46.1084V46.1217V46.1349V46.1482V46.1614V46.1747V46.2277V47.7233V41.0729Z" fill="#3D3D63" stroke="#3D3D63" stroke-width="0.2"/>
<path d="M28.45 47.7284H28.55V47.6284V47.6152V47.602V47.5887V47.5755V47.5623V47.5491V47.5359V47.5227V47.5095V47.4963V47.4831V47.4699V47.4567V47.4435V47.4303V47.4171V47.4039V47.3907V47.3775V47.3643V47.3511V47.3379V47.3248V47.3116V47.2984V47.2852V47.272V47.2588V47.2456V47.2325V47.2193V47.2061V47.1929V47.1797V47.1666V47.1534V47.1402V47.127V47.1139V47.1007V47.0875V47.0743V47.0612V47.048V47.0348V47.0217V47.0085V46.9953V46.9822V46.969V46.9559V46.9427V46.9295V46.9164V46.9032V46.8901V46.8769V46.8637V46.8506V46.8374V46.8243V46.8111V46.798V46.7848V46.7717V46.7585V46.7454V46.7322V46.7191V46.7059V46.6928V46.6796V46.6665V46.6533V46.6402V46.627V46.6139V46.6008V46.5876V46.5745V46.5613V46.5482V46.535V46.5219V46.5088V46.4956V46.4825V46.4694V46.4562V46.4431V46.43V46.4168V46.4037V46.3906V46.3774V46.3643V46.3512V46.338V46.3249V46.3118V46.2986V46.2855V46.2724V46.2593V46.2461V46.233V46.2199V46.2067V46.1936V46.1805V46.1674V46.1542V46.1411V46.128V46.1149V46.1018V46.0886V46.0755V46.0624V46.0493V46.0361V46.023V46.0099V45.9968V45.9837V45.9706V45.9574V45.9443V45.9312V45.9181V45.905V45.8918V45.8787V45.8656V45.8525V45.8394V45.8263V45.8131V45.8V45.7869V45.7738V45.7607V45.7476V45.7345V45.7213V45.7082V45.6951V45.682V45.6689V45.6558V45.6427V45.6296V45.6164V45.6033V45.5902V45.5771V45.564V45.5509V45.5378V45.5247V45.5116V45.4984V45.4853V45.4722V45.4591V45.446V45.4329V45.4198V45.4067V45.3936V45.3804V45.3673V45.3542V45.3411V45.328V45.3149V45.3018V45.2887V45.2756V45.2624V45.2493V45.2362V45.2231V45.21V45.1969V45.1838V45.1707V45.1576V45.1444V45.1313V45.1182V45.1051V45.092V45.0789V45.0658V45.0527V45.0395V45.0264V45.0133V45.0002V44.9871V44.974V44.9609V44.9478V44.9346V44.9215V44.9084V44.8953V44.8822V44.8691V44.856V44.8428V44.8297V44.8166V44.8035V44.7904V44.7773V44.7641V44.751V44.7379V44.7248V44.7117V44.6985V44.6854V44.6723V44.6592V44.6461V44.6329V44.6198V44.6067V44.5936V44.5805V44.5673V44.5542V44.5411V44.528V44.5148V44.5017V44.4886V44.4755V44.4623V44.4492V44.4361V44.423V44.4098V44.3967V44.3836V44.3704V44.3573V44.3442V44.3311V44.3179V44.3048V44.2917V44.2785V44.2654V44.2523V44.2391V44.226V44.2129V44.1997V44.1866V44.1734V44.1603V44.1472V44.134V44.1209V44.1077V44.0946V44.0815V44.0683V44.0552V44.042V44.0289V44.0157V44.0026V43.9895V43.9763V43.9632V43.95V43.9369V43.9237V43.9106V43.8974V43.8843V43.8711V43.8579V43.8448V43.8316V43.8185V43.8053V43.7922V43.779V43.7658V43.7527V43.7395V43.7264V43.7132V43.7V43.6869V43.6737V43.6605V43.6474V43.6342V43.621V43.6079V43.5947V43.5815V43.5683V43.5552V43.542V43.5288V43.5157V43.5025V43.4893V43.4761V43.4629V43.4498V43.4366V43.4234V43.4102V43.397V43.3838V43.3706V43.3575V43.3443V43.3311V43.3179V43.3047V43.2915V43.2783V43.2651V43.2519V43.2387V43.2255V43.2123V43.1991V43.1859V43.1727V43.1595V43.1463V43.1331V43.1199V43.1067V43.0935V43.0803V43.067V43.0538V43.0406V43.0274V43.0142V43.001V42.9877V42.9745V42.9613V42.9481V42.9349V42.9216V42.9084V42.8952V42.8819V42.8687V42.8555V42.8422V42.829V42.8158V42.8025V42.7893V42.7761V42.7628V42.7496V42.7363V42.7231V42.7098V42.6966V42.6833V42.6701V42.6568V42.6436V42.6303V42.6171V42.6038V42.5906V42.5773V42.564V42.5508V42.5375V42.5242V42.511V42.4977V42.4844V42.4712V42.4579V42.4446V42.4313V42.4181V42.4048V42.3915V42.3782V42.3649V42.3516V42.3384V42.3251V42.3118V42.2985V42.2852V42.2719V42.2586V42.2453V42.232V42.2187V42.2054V42.1921V42.1788V42.1655V42.1522V42.1388V42.1255V42.1122V42.0989V42.0856V42.0723V42.0589V42.0456V42.0323V42.019V42.0056V41.9923V41.979V41.9656V41.9523V41.939V41.9256V41.9123V41.8989V41.8856V41.8723V41.8589V41.8456V41.8322V41.8189V41.8055V41.7921V41.7788V41.7654V41.7521V41.7387V41.7253V41.712V41.6986V41.6852V41.6718V41.6585V41.6451V41.6317V41.6183V41.6049V41.5916V41.5782V41.5648V41.5514V41.538V41.5246V41.5112V41.4978V41.4844V41.471V41.4576V41.4442V41.4308V41.4174V41.404V41.3905V41.3771V41.3637V41.3503V41.3369V41.3234V41.31V41.2966V41.2831V41.2697V41.2563V41.2428V41.2294V41.216V41.2025V41.1891V41.1756V41.1622V41.1487V41.1353V41.1218V41.1083V41.0949V41.0814V41.0765C28.6112 41.1265 28.6681 41.1731 28.7213 41.2166C28.8692 41.3375 28.9878 41.4344 29.0842 41.513L29.1468 41.5639L29.2098 41.5136C29.5126 41.2716 29.7768 41.0593 30.1641 40.7478L30.254 40.6754L30.1696 40.5967C29.9886 40.4281 29.8136 40.2604 29.6413 40.0954C29.1954 39.6684 28.7683 39.2594 28.3071 38.8983C28.2471 38.851 28.1692 38.8208 28.0898 38.8023C28.0092 38.7834 27.9202 38.7751 27.8324 38.7761C27.6625 38.778 27.4734 38.8157 27.3567 38.9049C26.8763 39.2718 26.4314 39.6891 26.0606 40.0369C25.9332 40.1563 25.8146 40.2676 25.7063 40.3658L25.6443 40.422L25.6887 40.4929C25.879 40.797 26.0262 41.0316 26.1588 41.2429C26.232 41.3594 26.3007 41.4689 26.3697 41.579L26.432 41.6784L26.5203 41.6012C26.5912 41.5392 26.6566 41.4821 26.7196 41.427C26.8599 41.3044 26.9885 41.1921 27.1393 41.0598V41.0719V41.0856V41.0992V41.1129V41.1266V41.1402V41.1539V41.1675V41.1812V41.1948V41.2085V41.2221V41.2358V41.2494V41.263V41.2767V41.2903V41.3039V41.3176V41.3312V41.3448V41.3584V41.372V41.3856V41.3992V41.4128V41.4264V41.44V41.4536V41.4672V41.4808V41.4944V41.508V41.5216V41.5351V41.5487V41.5623V41.5758V41.5894V41.603V41.6165V41.6301V41.6437V41.6572V41.6708V41.6843V41.6978V41.7114V41.7249V41.7385V41.752V41.7655V41.7791V41.7926V41.8061V41.8196V41.8332V41.8467V41.8602V41.8737V41.8872V41.9007V41.9142V41.9277V41.9412V41.9547V41.9682V41.9817V41.9952V42.0087V42.0221V42.0356V42.0491V42.0626V42.0761V42.0895V42.103V42.1165V42.1299V42.1434V42.1568V42.1703V42.1838V42.1972V42.2107V42.2241V42.2375V42.251V42.2644V42.2779V42.2913V42.3047V42.3182V42.3316V42.345V42.3584V42.3719V42.3853V42.3987V42.4121V42.4255V42.4389V42.4523V42.4657V42.4792V42.4926V42.506V42.5193V42.5327V42.5461V42.5595V42.5729V42.5863V42.5997V42.6131V42.6264V42.6398V42.6532V42.6666V42.6799V42.6933V42.7067V42.72V42.7334V42.7468V42.7601V42.7735V42.7868V42.8002V42.8135V42.8269V42.8402V42.8536V42.8669V42.8803V42.8936V42.9069V42.9203V42.9336V42.9469V42.9603V42.9736V42.9869V43.0002V43.0136V43.0269V43.0402V43.0535V43.0668V43.0801V43.0934V43.1068V43.1201V43.1334V43.1467V43.16V43.1733V43.1866V43.1999V43.2131V43.2264V43.2397V43.253V43.2663V43.2796V43.2929V43.3062V43.3194V43.3327V43.346V43.3593V43.3725V43.3858V43.3991V43.4123V43.4256V43.4389V43.4521V43.4654V43.4787V43.4919V43.5052V43.5184V43.5317V43.5449V43.5582V43.5714V43.5847V43.5979V43.6112V43.6244V43.6376V43.6509V43.6641V43.6773V43.6906V43.7038V43.717V43.7303V43.7435V43.7567V43.77V43.7832V43.7964V43.8096V43.8228V43.8361V43.8493V43.8625V43.8757V43.8889V43.9021V43.9153V43.9286V43.9418V43.955V43.9682V43.9814V43.9946V44.0078V44.021V44.0342V44.0474V44.0606V44.0738V44.0869V44.1001V44.1133V44.1265V44.1397V44.1529V44.1661V44.1793V44.1924V44.2056V44.2188V44.232V44.2452V44.2583V44.2715V44.2847V44.2979V44.311V44.3242V44.3374V44.3505V44.3637V44.3769V44.39V44.4032V44.4164V44.4295V44.4427V44.4559V44.469V44.4822V44.4953V44.5085V44.5216V44.5348V44.5479V44.5611V44.5743V44.5874V44.6006V44.6137V44.6268V44.64V44.6531V44.6663V44.6794V44.6926V44.7057V44.7189V44.732V44.7451V44.7583V44.7714V44.7845V44.7977V44.8108V44.8239V44.8371V44.8502V44.8633V44.8765V44.8896V44.9027V44.9159V44.929V44.9421V44.9552V44.9684V44.9815V44.9946V45.0077V45.0209V45.034V45.0471V45.0602V45.0733V45.0865V45.0996V45.1127V45.1258V45.1389V45.152V45.1652V45.1783V45.1914V45.2045V45.2176V45.2307V45.2438V45.2569V45.2701V45.2832V45.2963V45.3094V45.3225V45.3356V45.3487V45.3618V45.3749V45.388V45.4011V45.4142V45.4273V45.4404V45.4535V45.4666V45.4798V45.4929V45.506V45.5191V45.5322V45.5453V45.5584V45.5715V45.5846V45.5977V45.6107V45.6238V45.6369V45.65V45.6631V45.6762V45.6893V45.7024V45.7155V45.7286V45.7417V45.7548V45.7679V45.781V45.7941V45.8072V45.8203V45.8334V45.8465V45.8596V45.8726V45.8857V45.8988V45.9119V45.925V45.9381V45.9512V45.9643V45.9774V45.9905V46.0036V46.0167V46.0297V46.0428V46.0559V46.069V46.0821V46.0952V46.1083V46.1214V46.1345V46.1476V46.1606V46.1737V46.1868V46.1999V46.213V46.2261V46.2392V46.2523V46.2654V46.2785V46.2915V46.3046V46.3177V46.3308V46.3439V46.357V46.3701V46.3832V46.3963V46.4094V46.4225V46.4355V46.4486V46.4617V46.4748V46.4879V46.501V46.5141V46.5272V46.5403V46.5534V46.5665V46.5796V46.5926V46.6057V46.6188V46.6319V46.645V46.6581V46.6712V46.6843V46.6974V46.7105V46.7236V46.7367V46.7498V46.7629V46.776V46.7891V46.8022V46.8153V46.8284V46.8415V46.8546V46.8677V46.8808V46.8939V46.907V46.9201V46.9332V46.9463V46.9594V46.9725V46.9856V46.9987V47.0118V47.0249V47.038V47.0511V47.0642V47.0773V47.0904V47.1035V47.1166V47.1298V47.1429V47.156V47.1691V47.1822V47.1953V47.2084V47.2215V47.2346V47.2478V47.2609V47.274V47.2871V47.3002V47.3133V47.3265V47.3396V47.3527V47.3658V47.3789V47.3921V47.4052V47.4183V47.4314V47.4446V47.4577V47.4708V47.4839V47.4971V47.5102V47.5233V47.5365V47.5496V47.5627V47.5758V47.589V47.6021V47.6152V47.6284V47.7284H27.2393H27.2417H27.2441H27.2465H27.249H27.2514H27.2537H27.2561H27.2585H27.2609H27.2633H27.2657H27.2681H27.2705H27.2729H27.2753H27.2776H27.28H27.2824H27.2848H27.2872H27.2895H27.2919H27.2943H27.2967H27.299H27.3014H27.3038H27.3061H27.3085H27.3109H27.3132H27.3156H27.3179H27.3203H27.3226H27.325H27.3273H27.3297H27.332H27.3344H27.3367H27.3391H27.3414H27.3438H27.3461H27.3485H27.3508H27.3531H27.3555H27.3578H27.3601H27.3625H27.3648H27.3671H27.3695H27.3718H27.3741H27.3764H27.3788H27.3811H27.3834H27.3857H27.388H27.3904H27.3927H27.395H27.3973H27.3996H27.4019H27.4043H27.4066H27.4089H27.4112H27.4135H27.4158H27.4181H27.4204H27.4227H27.425H27.4273H27.4296H27.4319H27.4342H27.4365H27.4388H27.4411H27.4434H27.4457H27.448H27.4503H27.4526H27.4549H27.4571H27.4594H27.4617H27.464H27.4663H27.4686H27.4709H27.4731H27.4754H27.4777H27.48H27.4823H27.4846H27.4868H27.4891H27.4914H27.4937H27.4959H27.4982H27.5005H27.5028H27.505H27.5073H27.5096H27.5118H27.5141H27.5164H27.5187H27.5209H27.5232H27.5255H27.5277H27.53H27.5323H27.5345H27.5368H27.5391H27.5413H27.5436H27.5458H27.5481H27.5504H27.5526H27.5549H27.5571H27.5594H27.5617H27.5639H27.5662H27.5684H27.5707H27.573H27.5752H27.5775H27.5797H27.582H27.5842H27.5865H27.5887H27.591H27.5932H27.5955H27.5977H27.6H27.6023H27.6045H27.6068H27.609H27.6113H27.6135H27.6158H27.618H27.6203H27.6225H27.6248H27.627H27.6293H27.6315H27.6338H27.636H27.6383H27.6405H27.6427H27.645H27.6472H27.6495H27.6517H27.654H27.6562H27.6585H27.6607H27.663H27.6652H27.6675H27.6697H27.672H27.6742H27.6765H27.6787H27.681H27.6832H27.6854H27.6877H27.6899H27.6922H27.6944H27.6967H27.6989H27.7012H27.7034H27.7057H27.7079H27.7102H27.7124H27.7147H27.7169H27.7192H27.7214H27.7237H27.7259H27.7282H27.7304H27.7327H27.7349H27.7372H27.7394H27.7417H27.7439H27.7462H27.7484H27.7507H27.7529H27.7552H27.7574H27.7597H27.7619H27.7642H27.7664H27.7687H27.771H27.7732H27.7755H27.7777H27.78H27.7822H27.7845H27.7867H27.789H27.7913H27.7935H27.7958H27.798H27.8003H27.8026H27.8048H27.8071H27.8094H27.8116H27.8139H27.8161H27.8184H27.8207H27.8229H27.8252H27.8275H27.8297H27.832H27.8343H27.8365H27.8388H27.8411H27.8434H27.8456H27.8479H27.8502H27.8525H27.8547H27.857H27.8593H27.8616H27.8638H27.8661H27.8684H27.8707H27.873H27.8752H27.8775H27.8798H27.8821H27.8844H27.8867H27.8889H27.8912H27.8935H27.8958H27.8981H27.9004H27.9027H27.905H27.9073H27.9096H27.9119H27.9142H27.9165H27.9187H27.921H27.9233H27.9256H27.928H27.9303H27.9326H27.9349H27.9372H27.9395H27.9418H27.9441H27.9464H27.9487H27.951H27.9533H27.9557H27.958H27.9603H27.9626H27.9649H27.9672H27.9696H27.9719H27.9742H27.9765H27.9789H27.9812H27.9835H27.9859H27.9882H27.9905H27.9928H27.9952H27.9975H27.9999H28.0022H28.0045H28.0069H28.0092H28.0116H28.0139H28.0163H28.0186H28.021H28.0233H28.0257H28.028H28.0304H28.0327H28.0351H28.0374H28.0398H28.0422H28.0445H28.0469H28.0492H28.0516H28.054H28.0564H28.0587H28.0611H28.0635H28.0658H28.0682H28.0706H28.073H28.0754H28.0778H28.0801H28.0825H28.0849H28.0873H28.0897H28.0921H28.0945H28.0969H28.0993H28.1017H28.1041H28.1065H28.1089H28.1113H28.1137H28.1161H28.1185H28.1209H28.1234H28.1258H28.1282H28.1306H28.133H28.1355H28.1379H28.1403H28.1427H28.1452H28.1476H28.15H28.1525H28.1549H28.1574H28.1598H28.1622H28.1647H28.1671H28.1696H28.172H28.1745H28.177H28.1794H28.1819H28.1843H28.1868H28.1893H28.1917H28.1942H28.1967H28.1991H28.2016H28.2041H28.2066H28.2091H28.2115H28.214H28.2165H28.219H28.2215H28.224H28.2265H28.229H28.2315H28.234H28.2365H28.239H28.2415H28.244H28.2465H28.2491H28.2516H28.2541H28.2566H28.2591H28.2617H28.2642H28.2667H28.2693H28.2718H28.2743H28.2769H28.2794H28.282H28.2845H28.2871H28.2896H28.2922H28.2947H28.2973H28.2998H28.3024H28.305H28.3075H28.3101H28.3127H28.3153H28.3178H28.3204H28.323H28.3256H28.3282H28.3308H28.3333H28.3359H28.3385H28.3411H28.3437H28.3464H28.349H28.3516H28.3542H28.3568H28.3594H28.362H28.3647H28.3673H28.3699H28.3725H28.3752H28.3778H28.3805H28.3831H28.3857H28.3884H28.391H28.3937H28.3963H28.399H28.4017H28.4043H28.407H28.4097H28.4123H28.415H28.4177H28.4204H28.423H28.4257H28.4284H28.4311H28.4338H28.4365H28.4392H28.4419H28.4446H28.4473H28.45Z" fill="#3D3D63" stroke="#3D3D63" stroke-width="0.2"/>
</svg>
