<svg width="64" height="74" viewBox="0 0 64 74" fill="none" xmlns="http://www.w3.org/2000/svg">
<path fill-rule="evenodd" clip-rule="evenodd" d="M-6.88536e-06 18.5L32 2.79753e-06L64 18.5L64 55.5L32 74L-3.65071e-06 55.5L-6.88536e-06 18.5Z" fill="#DAF2FF"/>
<g clip-path="url(#clip0_31_3258)">
<path d="M38.9366 36.9995C38.9366 40.4513 38.9376 43.904 38.9366 47.3557C38.9366 48.4366 38.3733 49 37.2944 49C32.0773 49.0009 26.8602 49.0009 21.6431 49C20.5643 49 20.0009 48.4357 20.0009 47.3557C20 40.4522 20 33.5478 20 26.6434C20.0009 25.5625 20.5624 25.0009 21.6431 25.0009C26.8602 25 32.0773 25 37.2935 25.0009C38.3733 25.0009 38.9357 25.5634 38.9357 26.6443C38.9376 30.0961 38.9366 33.5478 38.9366 36.9995ZM38.0021 37.0474C38.0021 33.6097 38.0021 30.172 38.0021 26.7353C38.0021 26.0687 37.8709 25.9356 37.2157 25.9356C32.0436 25.9347 26.8724 25.9347 21.7003 25.9356C21.0789 25.9356 20.9354 26.0809 20.9354 26.7099C20.9345 33.5694 20.9345 40.4288 20.9354 47.2882C20.9354 47.9191 21.0779 48.0654 21.6984 48.0654C26.8705 48.0663 32.0417 48.0663 37.2138 48.0654C37.8709 48.0654 38.0021 47.9313 38.0021 47.2666C38.0021 43.8599 38.0021 40.4541 38.0021 37.0474Z" fill="#3D3D63"/>
<path d="M41.3748 45.147C41.9588 45.147 42.4734 45.147 43.0264 45.147C43.0264 40.3885 43.0264 35.6336 43.0264 30.8432C42.5071 30.8432 41.971 30.8432 41.3748 30.8432C41.3748 31.0073 41.3748 31.1732 41.3748 31.3391C41.3748 32.855 41.372 34.3699 41.3776 35.8858C41.3786 36.2355 41.3636 36.5983 40.9212 36.6086C40.4788 36.6199 40.4375 36.2702 40.4385 35.9121C40.4441 33.74 40.4385 31.5688 40.4422 29.3967C40.4441 28.3242 41.2249 27.5218 42.2428 27.5321C43.2373 27.5415 43.9993 28.3402 44.0003 29.3929C44.0031 34.7205 44.0021 40.0491 43.9974 45.3767C43.9974 45.5586 43.9768 45.7564 43.9056 45.9204C43.5138 46.8204 43.1154 47.7175 42.688 48.6006C42.6065 48.7684 42.3853 48.9672 42.2259 48.9691C42.0675 48.9709 41.8379 48.7759 41.7582 48.61C41.3252 47.7129 40.9221 46.7998 40.5237 45.8857C40.4581 45.7357 40.445 45.5539 40.4441 45.387C40.4385 43.7933 40.4441 42.1996 40.4375 40.6059C40.4366 40.2647 40.4788 39.9347 40.8874 39.9225C41.3298 39.9094 41.3795 40.2516 41.3776 40.6125C41.3711 42.1087 41.3748 43.6058 41.3748 45.147ZM41.403 29.8448C41.9532 29.8448 42.4893 29.8448 43.0376 29.8448C43.0976 29.362 43.122 28.912 42.6777 28.6102C42.3787 28.4077 42.0572 28.4077 41.7591 28.612C41.3158 28.9158 41.342 29.3639 41.403 29.8448ZM42.2194 47.3866C42.4368 46.901 42.6055 46.526 42.7892 46.1154C42.3937 46.1154 42.0469 46.1154 41.6495 46.1154C41.8322 46.5223 42.001 46.8982 42.2194 47.3866Z" fill="#3D3D63"/>
<path d="M41.4393 38.3908C41.2509 38.4995 41.0522 38.7057 40.8769 38.687C40.7195 38.6711 40.4926 38.4236 40.4645 38.2511C40.4195 37.9661 40.6557 37.7711 40.9388 37.8302C41.1234 37.8695 41.2762 38.0589 41.4431 38.1808C41.4412 38.252 41.4403 38.3214 41.4393 38.3908Z" fill="#3D3D63"/>
<path d="M24.521 36.4023C24.9006 35.9898 25.2221 35.6336 25.5511 35.2848C25.7732 35.0486 26.031 34.8967 26.3159 35.1761C26.6009 35.4545 26.4584 35.7161 26.2231 35.942C25.8763 36.2739 25.5201 36.5973 25.103 36.9835C25.5183 37.381 25.866 37.7091 26.2091 38.0429C26.4387 38.266 26.6074 38.521 26.33 38.8088C26.0319 39.1181 25.7667 38.9438 25.5323 38.6963C25.2118 38.3588 24.895 38.0166 24.4591 37.5497C24.0907 37.9763 23.7833 38.3438 23.4627 38.6991C23.2331 38.9531 22.9603 39.1163 22.666 38.805C22.3904 38.5144 22.5629 38.2613 22.7944 38.04C23.1319 37.7176 23.474 37.3998 23.8639 37.0323C23.4805 36.6479 23.1459 36.3095 22.8075 35.9729C22.5685 35.7348 22.3754 35.4751 22.6848 35.1742C22.9931 34.8733 23.2518 35.0767 23.4834 35.3158C23.8049 35.6514 24.1245 35.9879 24.521 36.4023Z" fill="#3D3D63"/>
<path d="M25.118 43.379C25.522 43.7634 25.8716 44.0924 26.2156 44.4261C26.4471 44.6511 26.6027 44.908 26.3234 45.192C26.045 45.4761 25.7844 45.3355 25.5585 45.0983C25.2277 44.7496 24.9043 44.3943 24.5162 43.9752C24.1188 44.3915 23.7898 44.7393 23.4571 45.0833C23.234 45.3139 22.98 45.4827 22.6913 45.207C22.381 44.9108 22.5535 44.6436 22.8009 44.4093C23.1393 44.0896 23.4842 43.7746 23.9576 43.3359C23.5264 42.9646 23.1581 42.659 22.8019 42.3393C22.5488 42.1115 22.3801 41.8397 22.6903 41.5434C22.979 41.2678 23.233 41.4347 23.4552 41.6672C23.7786 42.0047 24.0972 42.3459 24.4666 42.7368C24.848 42.3572 25.1864 42.0225 25.5229 41.685C25.76 41.4469 26.0187 41.2519 26.3215 41.5594C26.6243 41.8678 26.4209 42.1265 26.1828 42.3581C25.85 42.6815 25.5135 43.0003 25.118 43.379Z" fill="#3D3D63"/>
<path d="M32.4172 32.5915C31.342 32.5915 30.266 32.5868 29.1909 32.5943C28.8394 32.5971 28.5367 32.5147 28.5451 32.1078C28.5526 31.7328 28.8432 31.6531 29.1759 31.6541C31.373 31.6597 33.571 31.6587 35.7681 31.6541C36.1046 31.6531 36.3858 31.7412 36.3914 32.1162C36.397 32.4903 36.1233 32.5953 35.7831 32.5934C34.6611 32.5878 33.5391 32.5915 32.4172 32.5915Z" fill="#3D3D63"/>
<path d="M32.4715 38.9682C31.3804 38.9682 30.2894 38.9636 29.1984 38.9711C28.8488 38.9739 28.5394 38.8989 28.546 38.492C28.5526 38.0833 28.8731 38.0298 29.2162 38.0308C31.3823 38.0364 33.5485 38.0364 35.7146 38.0308C36.0567 38.0298 36.3829 38.0795 36.3895 38.4864C36.397 38.9279 36.0539 38.9729 35.6959 38.9711C34.6226 38.9636 33.5466 38.9682 32.4715 38.9682Z" fill="#3D3D63"/>
<path d="M32.4659 44.4082C33.5569 44.4082 34.648 44.4128 35.739 44.4053C36.0886 44.4025 36.3979 44.4775 36.3904 44.8844C36.3829 45.2922 36.0633 45.3456 35.7193 45.3456C33.5532 45.34 31.387 45.34 29.2209 45.3456C28.8788 45.3466 28.5526 45.2959 28.546 44.8891C28.5385 44.4475 28.8825 44.4035 29.2396 44.4063C30.3157 44.4128 31.3908 44.4082 32.4659 44.4082Z" fill="#3D3D63"/>
<path d="M23.9444 31.5145C24.5227 30.9314 25.041 30.4139 25.5528 29.8899C25.7881 29.6489 26.0515 29.5271 26.3214 29.7886C26.6045 30.0623 26.4517 30.3201 26.2164 30.5526C25.6175 31.1461 25.027 31.747 24.4271 32.3376C24.0644 32.6957 23.8966 32.6901 23.5235 32.3263C23.2554 32.0648 22.9939 31.7967 22.7287 31.5332C22.5122 31.3176 22.4306 31.0701 22.6649 30.8367C22.9068 30.5948 23.1748 30.6464 23.3998 30.8883C23.5816 31.0823 23.7485 31.2876 23.9444 31.5145Z" fill="#3D3D63"/>
<path d="M30.5003 29.5917C30.0326 29.5917 29.5658 29.5907 29.0981 29.5926C28.7691 29.5936 28.5366 29.4529 28.5441 29.1089C28.5516 28.793 28.7747 28.657 29.0831 28.658C30.0644 28.6589 31.0458 28.658 32.0281 28.6589C32.3356 28.6589 32.5512 28.793 32.5558 29.1183C32.5605 29.4436 32.3524 29.5889 32.0431 29.5907C31.5285 29.5945 31.0149 29.5907 30.5003 29.5917Z" fill="#3D3D63"/>
<path d="M30.5995 35.0327C31.0672 35.0327 31.534 35.0337 32.0018 35.0327C32.3279 35.0318 32.5613 35.1593 32.5557 35.5127C32.5501 35.838 32.3308 35.9674 32.0233 35.9674C31.0419 35.9674 30.0606 35.9674 29.0783 35.9674C28.768 35.9674 28.5477 35.8258 28.544 35.5108C28.5402 35.1659 28.7755 35.0309 29.1036 35.0327C29.6022 35.0346 30.1009 35.0327 30.5995 35.0327Z" fill="#3D3D63"/>
<path d="M30.5463 42.3431C30.0636 42.3431 29.5799 42.3422 29.0972 42.3441C28.7682 42.345 28.5357 42.2035 28.5442 41.8603C28.5517 41.5444 28.7747 41.4085 29.0841 41.4094C30.0654 41.4104 31.0468 41.4094 32.0291 41.4104C32.3366 41.4104 32.5521 41.5444 32.5559 41.8697C32.5606 42.195 32.3515 42.3394 32.0422 42.3422C31.5426 42.346 31.044 42.3422 30.5463 42.3431Z" fill="#3D3D63"/>
<path d="M35.0978 29.5899C34.8175 29.5899 34.5223 29.6443 34.2626 29.5712C34.0808 29.5196 33.9486 29.2927 33.7949 29.1437C33.9515 28.9824 34.0958 28.6993 34.2683 28.6806C34.8222 28.6206 35.3893 28.6253 35.9442 28.6796C36.1092 28.6956 36.3904 28.9796 36.3707 29.0996C36.3397 29.2824 36.1195 29.5112 35.932 29.5702C35.6771 29.6509 35.3781 29.5899 35.0978 29.5899Z" fill="#3D3D63"/>
<path d="M35.0875 35.9665C34.8232 35.9665 34.5401 36.0246 34.3002 35.9477C34.1052 35.8849 33.9618 35.6609 33.7959 35.5081C33.9562 35.3496 34.1033 35.0749 34.2796 35.0553C34.8176 34.9953 35.3697 34.9962 35.9086 35.0543C36.0876 35.074 36.3463 35.3187 36.3791 35.4959C36.4354 35.7959 36.1917 35.9609 35.8814 35.9665C35.6162 35.9702 35.3518 35.9665 35.0875 35.9665Z" fill="#3D3D63"/>
<path d="M35.1259 41.4093C35.3902 41.4093 35.6742 41.3493 35.9133 41.4281C36.1045 41.4909 36.2413 41.7206 36.4025 41.8762C36.2413 42.0318 36.0913 42.3008 35.9151 42.3205C35.3771 42.3796 34.8241 42.3796 34.2861 42.3205C34.108 42.3008 33.958 42.0309 33.7949 41.8743C33.959 41.7196 34.0986 41.4871 34.2917 41.4281C34.5485 41.3512 34.8466 41.4093 35.1259 41.4093Z" fill="#3D3D63"/>
</g>
<defs>
<clipPath id="clip0_31_3258">
<rect width="24" height="24" fill="white" transform="translate(20 25)"/>
</clipPath>
</defs>
</svg>
