<svg width="64" height="74" viewBox="0 0 64 74" fill="none" xmlns="http://www.w3.org/2000/svg">
<path fill-rule="evenodd" clip-rule="evenodd" d="M-6.88536e-06 18.5L32 2.79753e-06L64 18.5L64 55.5L32 74L-3.65071e-06 55.5L-6.88536e-06 18.5Z" fill="#DAF2FF"/>
<path d="M36.844 47.3993C36.844 47.0132 36.844 46.7198 36.844 46.3402C36.017 46.4483 35.9232 45.8962 35.8487 45.2708C35.7537 44.469 35.1206 44.2322 34.4952 44.7303C33.6605 45.3969 33.6605 45.3969 32.8874 44.6235C32.7963 44.5321 32.7064 44.442 32.6152 44.3506C31.7291 43.464 31.7291 43.4627 32.3828 42.4267C32.7089 41.9094 32.4123 41.284 31.8139 41.2273C30.6401 41.1154 30.6273 41.1012 30.6273 39.9083C30.6273 39.7577 30.6273 39.6084 30.6273 39.4579C30.6273 38.3228 30.6273 38.3228 31.7381 38.1169C32.4752 37.9805 32.7076 37.3628 32.2453 36.7734C31.5673 35.9112 31.5673 35.9112 32.3198 35.1558C32.4251 35.049 32.5317 34.9434 32.6383 34.8379C33.5064 33.968 33.5064 33.968 34.5081 34.6294C35.0615 34.9949 35.6767 34.6912 35.737 34.0233C35.8398 32.8921 35.8487 32.8831 36.9531 32.8818C37.1239 32.8818 37.296 32.8818 37.4668 32.8818C38.6431 32.8818 38.6431 32.8818 38.8345 34.0336C38.9411 34.6745 39.5806 34.9396 40.0942 34.5509C40.2483 34.4351 40.3922 34.3077 40.5424 34.1867C40.8596 33.9307 41.1511 33.9332 41.4426 34.2434C41.7958 34.6166 42.1554 34.9859 42.5355 35.3308C42.8938 35.6551 42.904 35.9755 42.6151 36.3384C42.5226 36.4555 42.4417 36.5829 42.357 36.7052C41.9332 37.3203 42.2157 37.9432 42.9464 38.0075C44.0148 38.1002 44.0367 38.1234 44.0367 39.2044C44.0367 39.3549 44.0354 39.5042 44.0367 39.6548C44.0482 41.0691 44.0277 40.9249 42.845 41.1154C42.244 41.2119 42.0025 41.8759 42.3749 42.3714C42.4777 42.5078 42.5856 42.6429 42.6998 42.7703C43.0106 43.1191 43.0196 43.4369 42.6562 43.7677C42.2928 44.0997 41.946 44.451 41.6147 44.8152C41.295 45.1652 40.9778 45.2039 40.6118 44.9014C40.4641 44.7792 40.3036 44.6698 40.143 44.5643C39.6384 44.2322 39.0104 44.5385 38.9539 45.1421C38.8524 46.2282 38.8524 46.2282 37.8097 46.3904C37.8097 47.1561 37.8097 47.9398 37.8097 48.7235C37.8097 49.5175 37.8212 50.3103 37.8046 51.1043C37.7827 52.1351 37.0828 52.8969 36.0555 52.9651C35.3094 53.014 34.5582 52.9909 33.8095 52.9921C30.0006 52.9934 26.1917 52.9947 22.3829 52.9921C20.6877 52.9909 20.0084 52.3127 20.0033 50.6204C20.0007 49.8264 19.9968 49.0337 20.0046 48.2396C20.011 47.4829 20.0996 47.398 20.8598 47.398C25.931 47.3967 31.0035 47.3967 36.0748 47.3967C36.3046 47.3993 36.5384 47.3993 36.844 47.3993ZM31.661 40.266C32.4829 40.2326 32.9902 40.4501 33.3818 41.3123C33.7915 42.217 33.3716 42.6996 32.9465 43.3366C33.2175 43.6004 33.4576 43.8346 33.7247 44.0946C34.3219 43.6364 34.7572 43.1706 35.6972 43.5875C36.5859 43.9826 36.749 44.5553 36.8273 45.3235C37.2292 45.3235 37.5657 45.3235 37.9432 45.3235C38.064 44.6093 38.055 43.9787 38.9834 43.5862C39.9068 43.195 40.4102 43.5502 40.9842 43.9633C41.2847 43.6995 41.5377 43.4756 41.8215 43.2259C41.3553 42.6288 40.9264 42.1848 41.3155 41.2467C41.6969 40.3278 42.3017 40.212 43.0337 40.0923C43.0337 39.6972 43.0337 39.3626 43.0337 38.9688C42.2542 38.9495 41.7149 38.808 41.3039 37.9368C40.8635 37.0025 41.3335 36.5135 41.6815 35.9472C41.4169 35.6281 41.2038 35.3694 40.9572 35.0721C40.3472 35.6988 39.8387 35.9344 38.95 35.6088C38.0177 35.2665 37.9574 34.6333 37.8379 33.9088C37.4476 33.9088 37.1111 33.9088 36.6783 33.9088C36.7271 34.7092 36.5281 35.2266 35.6741 35.6319C34.7469 36.0733 34.2525 35.6294 33.6772 35.2381C33.3793 35.4955 33.1237 35.7169 32.8309 35.9704C33.3921 36.5778 33.726 37.0655 33.3574 37.9702C32.9979 38.853 32.4534 39.0396 31.6623 39.086C31.661 39.4746 31.661 39.8079 31.661 40.266ZM20.9728 48.34C20.9728 49.2666 20.9638 50.1005 20.9754 50.9331C20.9857 51.6679 21.3465 52.0347 22.0888 52.0347C26.6412 52.0411 31.1949 52.0411 35.7473 52.0347C36.4767 52.0334 36.8427 51.6641 36.8671 50.9241C36.8877 50.3038 36.8273 49.6784 36.8851 49.062C36.9429 48.4365 36.6847 48.3259 36.1223 48.3284C31.313 48.3477 26.5038 48.34 21.6945 48.34C21.4839 48.34 21.2746 48.34 20.9728 48.34Z" fill="#3D3D63"/>
<path d="M36.8697 26.6147C31.516 26.6147 26.2816 26.6147 20.9728 26.6147C20.9728 26.8978 20.9728 27.1474 20.9728 27.3984C20.9728 33.2731 20.9728 39.1477 20.9716 45.0237C20.9716 45.2373 21.0191 45.4805 20.9343 45.6569C20.8598 45.8126 20.6415 45.9696 20.4707 45.9876C20.341 46.0017 20.1253 45.8254 20.0636 45.6839C19.9827 45.4998 20.002 45.2656 20.002 45.052C20.0007 38.1465 19.9994 31.2423 20.002 24.3382C20.0033 22.6909 20.6967 22.0024 22.3533 22.0024C26.7388 21.9999 31.1256 21.9986 35.511 22.0024C37.1304 22.0037 37.8059 22.6884 37.8071 24.3098C37.8084 25.8104 37.8059 27.3122 37.8059 28.8127C37.8059 29.1666 37.8238 29.5475 37.3179 29.5385C36.853 29.5295 36.8697 29.1679 36.8684 28.8397C36.8684 28.1139 36.8697 27.3907 36.8697 26.6147ZM36.8684 25.616C36.8684 25.136 36.8697 24.7319 36.8684 24.3291C36.8633 23.27 36.5512 22.9586 35.4841 22.9586C32.167 22.9573 28.8513 22.9586 25.5342 22.9586C24.3785 22.9586 23.2227 22.9612 22.0682 22.9573C21.5019 22.956 21.0743 23.207 21.0024 23.7668C20.9253 24.369 20.9844 24.988 20.9844 25.6173C26.3009 25.616 31.5352 25.616 36.8684 25.616Z" fill="#3D3D63"/>
<path d="M26.8027 35.3837C26.899 35.1263 26.9491 34.986 27.0044 34.8483C27.8596 32.6902 28.7136 30.5308 29.5714 28.374C29.6343 28.217 29.687 28.0226 29.8077 27.9326C29.9374 27.836 30.175 27.7665 30.3073 27.8219C30.4434 27.8785 30.5615 28.0934 30.5898 28.2556C30.6155 28.4048 30.5243 28.5824 30.4626 28.7394C29.6022 30.9194 28.7393 33.0969 27.875 35.2756C27.8352 35.3747 27.8172 35.5149 27.7428 35.5613C27.563 35.6745 27.337 35.8367 27.1649 35.8019C27.0095 35.7697 26.9003 35.5046 26.8027 35.3837Z" fill="#3D3D63"/>
<path d="M24.1578 31.8335C24.7575 32.3984 25.2686 32.8785 25.7772 33.361C26.0263 33.5978 26.2549 33.9157 25.8992 34.1563C25.7309 34.2709 25.2802 34.1795 25.0978 34.0199C24.4904 33.4859 23.9523 32.872 23.3745 32.3019C23.0303 31.9635 23.0213 31.6572 23.3693 31.3162C23.9639 30.7319 24.5225 30.1103 25.1441 29.5595C25.3097 29.4128 25.7348 29.3369 25.8915 29.445C26.2356 29.6818 26.0533 30.0061 25.8016 30.2519C25.2956 30.7435 24.7858 31.2287 24.1578 31.8335Z" fill="#3D3D63"/>
<path d="M33.7169 31.8525C33.0594 31.2258 32.5483 30.7394 32.0385 30.2529C31.7829 30.0097 31.5839 29.697 31.9357 29.4525C32.0924 29.3431 32.5188 29.4126 32.6818 29.5593C33.3175 30.1294 33.8967 30.7638 34.4977 31.3712C34.7918 31.6685 34.8072 31.9529 34.499 32.2579C33.8903 32.8589 33.3137 33.4946 32.6754 34.0621C32.5098 34.2088 32.1643 34.1535 31.9023 34.1921C31.9383 33.9321 31.8818 33.5847 32.0282 33.4264C32.5175 32.8949 33.0825 32.4316 33.7169 31.8525Z" fill="#3D3D63"/>
<path d="M39.8809 39.6259C39.8732 41.0737 38.7496 42.174 37.2972 42.1572C35.8923 42.1405 34.7789 41.0196 34.7725 39.6143C34.7661 38.209 35.9437 37.0225 37.3434 37.0264C38.7611 37.029 39.8887 38.1846 39.8809 39.6259ZM37.8083 41.0955C38.679 40.7236 39.0783 40.021 38.905 39.29C38.7123 38.4806 38.0304 37.9619 37.2227 38.0121C36.4946 38.0572 35.8499 38.6607 35.7497 39.3904C35.6457 40.1497 36.0631 40.8021 36.8734 41.0621C36.8734 40.6014 36.8683 40.1587 36.8747 39.7173C36.8811 39.3441 36.7771 38.837 37.3267 38.8229C37.8789 38.8087 37.8057 39.3068 37.807 39.6877C37.8096 40.1355 37.8083 40.5821 37.8083 41.0955Z" fill="#3D3D63"/>
<path d="M28.8732 49.8745C29.5538 49.8745 30.2357 49.8733 30.9163 49.8745C31.2746 49.8758 31.6149 50.0109 31.5494 50.397C31.5173 50.5849 31.1513 50.8436 30.9305 50.8513C29.5911 50.8938 28.2478 50.8963 26.9084 50.8487C26.6824 50.841 26.4667 50.5257 26.2471 50.352C26.4628 50.1924 26.667 49.9183 26.8943 49.8964C27.5492 49.8334 28.2131 49.8745 28.8732 49.8745Z" fill="#3D3D63"/>
<path d="M30.1905 24.7623C29.786 24.7623 29.3699 24.8176 28.9796 24.7404C28.7754 24.7005 28.6148 24.4302 28.4351 24.2642C28.6148 24.1188 28.7882 23.8601 28.9757 23.8499C29.7616 23.8035 30.554 23.8022 31.3386 23.8524C31.5184 23.864 31.6827 24.142 31.8535 24.2977C31.6827 24.4521 31.5299 24.7043 31.3373 24.7404C30.9675 24.8124 30.5745 24.7623 30.1905 24.7623Z" fill="#3D3D63"/>
</svg>
