<svg width="64" height="74" viewBox="0 0 64 74" fill="none" xmlns="http://www.w3.org/2000/svg">
<path fill-rule="evenodd" clip-rule="evenodd" d="M-6.88536e-06 18.5L32 2.79753e-06L64 18.5L64 55.5L32 74L-3.65071e-06 55.5L-6.88536e-06 18.5Z" fill="#DAF2FF"/>
<g clip-path="url(#clip0_31_2044)">
<path d="M44.6379 39.7148C45.0475 39.7148 45.353 39.7077 45.657 39.7162C46.5691 39.7417 46.9802 40.1423 46.9902 41.0893C47.0087 42.8121 46.9959 44.5349 46.9959 46.2576C46.9959 46.8706 47.0045 47.4849 46.993 48.0979C46.9731 49.1624 46.5877 49.5375 45.5186 49.5488C45.2602 49.5517 45.0019 49.5488 44.6364 49.5488C44.6364 50.4435 44.6065 51.2843 44.6464 52.1209C44.6764 52.7792 44.3852 52.9986 43.7615 52.9986C36.2435 52.9915 28.7269 52.9901 21.2089 52.9986C20.5637 52.9986 20.3168 52.7367 20.3468 52.0983C20.3839 51.2801 20.3554 50.4591 20.3554 49.546C19.9357 49.546 19.586 49.5573 19.2377 49.5432C18.5069 49.5163 18.033 49.1426 18.0244 48.4277C17.9916 45.9037 17.993 43.3783 18.0216 40.8543C18.0302 40.1352 18.4912 39.753 19.2149 39.7176C19.5646 39.7006 19.9171 39.7148 20.3554 39.7148C20.3554 39.3581 20.3554 39.0835 20.3554 38.8088C20.3554 32.886 20.3554 26.9633 20.3554 21.0405C20.3554 20.0821 20.4339 20.0014 21.4173 20.0014C26.6986 19.9986 31.9799 19.9915 37.2612 20.0198C37.6366 20.0213 38.0976 20.2138 38.3717 20.4714C40.3172 22.3117 42.2156 24.2 44.1497 26.0516C44.5037 26.3914 44.6507 26.7297 44.6479 27.2209C44.6293 31.0911 44.6364 34.9613 44.6364 38.8315C44.6379 39.0891 44.6379 39.3453 44.6379 39.7148ZM21.5344 39.6582C28.8796 39.6582 36.1664 39.6582 43.456 39.6582C43.456 35.553 43.456 31.503 43.456 27.3851C43.1591 27.3851 42.9022 27.3851 42.6467 27.3851C41.1479 27.3851 39.6492 27.3879 38.1504 27.3837C37.2541 27.3809 37.1028 27.2308 37.0956 26.3659C37.0913 25.8704 37.0942 25.375 37.0942 24.8795C37.0942 23.6593 37.0942 22.4376 37.0942 21.1764C31.8657 21.1764 26.7186 21.1764 21.5344 21.1764C21.5344 27.3455 21.5344 33.4735 21.5344 39.6582ZM19.2234 40.8798C19.2234 43.442 19.2234 45.915 19.2234 48.3597C28.136 48.3597 36.9657 48.3597 45.8026 48.3597C45.8026 45.8386 45.8026 43.3755 45.8026 40.8798C36.9143 40.8798 28.0789 40.8798 19.2234 40.8798ZM43.4689 49.6026C36.1093 49.6026 28.8268 49.6026 21.5458 49.6026C21.5458 50.3755 21.5458 51.0946 21.5458 51.8081C28.8768 51.8081 36.1593 51.8081 43.4689 51.8081C43.4689 51.0522 43.4689 50.3529 43.4689 49.6026ZM42.247 26.196C40.9767 24.888 39.6406 23.5121 38.2803 22.1106C38.2803 23.4611 38.2803 24.8045 38.2803 26.196C39.7006 26.196 41.0823 26.196 42.247 26.196Z" fill="#3D3D63"/>
<path d="M26.3333 33.7311C26.9799 34.2691 27.5851 34.7603 28.1746 35.2685C28.4829 35.5346 28.7055 35.8913 28.3587 36.2381C27.9747 36.6217 27.6379 36.3514 27.3381 36.0343C26.7358 35.4015 26.1348 34.7673 25.5111 34.1544C25.0914 33.741 25.0657 33.3673 25.4882 32.9441C26.1391 32.2929 26.7472 31.595 27.4323 30.9835C27.6307 30.8065 28.0347 30.8575 28.3459 30.8037C28.3116 31.1123 28.3858 31.5087 28.2217 31.7139C27.7092 32.3524 27.1083 32.9186 26.3333 33.7311Z" fill="#3D3D63"/>
<path d="M38.6842 33.7414C37.862 32.885 37.2697 32.3343 36.7715 31.7114C36.6074 31.5048 36.683 31.1098 36.6488 30.7998C36.9585 30.855 37.3639 30.8055 37.5623 30.9824C38.2489 31.5939 38.8583 32.2904 39.5078 32.943C39.9289 33.3663 39.8989 33.7442 39.4821 34.1561C38.8441 34.7861 38.2246 35.4372 37.6037 36.0856C37.3111 36.3913 36.94 36.6079 36.6516 36.2215C36.5203 36.0445 36.6088 35.5151 36.7901 35.3339C37.3553 34.7719 38.0105 34.2963 38.6842 33.7414Z" fill="#3D3D63"/>
<path d="M31.6646 36.959C31.0622 36.8585 30.8296 36.6023 30.9866 36.145C31.6203 34.2991 32.2555 32.4532 32.9421 30.6257C33.022 30.4119 33.4231 30.3185 33.6758 30.1685C33.78 30.4417 34.0326 30.7644 33.9627 30.9824C33.376 32.7944 32.7365 34.5893 32.0899 36.3814C32.0057 36.6122 31.7873 36.7948 31.6646 36.959Z" fill="#3D3D63"/>
<path d="M28.6528 44.8112C27.4681 46.3853 27.4681 46.3853 26.2192 44.7772C26.2192 45.4751 26.2077 46.0442 26.2234 46.6132C26.2349 47.0252 26.0821 47.3946 25.6625 47.321C25.4327 47.2814 25.1172 46.8638 25.1058 46.6048C25.0487 45.3336 25.0558 44.0567 25.1001 42.7841C25.1087 42.5406 25.3427 42.1584 25.5412 42.1089C25.7338 42.0607 26.0907 42.3042 26.2406 42.5137C26.6645 43.1083 27.0185 43.7509 27.4481 44.4545C27.8549 43.7878 28.2018 43.1507 28.6214 42.5675C28.7856 42.3396 29.1182 42.2306 29.3751 42.0664C29.515 42.334 29.7648 42.5972 29.7747 42.869C29.8176 44.0949 29.7862 45.3222 29.7976 46.5495C29.8019 46.9714 29.7234 47.3578 29.2252 47.3437C28.7485 47.3295 28.6428 46.9459 28.65 46.5255C28.6614 46.0116 28.6528 45.4964 28.6528 44.8112Z" fill="#3D3D63"/>
<path d="M37.598 41.7974C38.0975 41.9149 38.6328 41.9545 39.0867 42.1668C39.739 42.4712 40.0331 43.254 39.8646 43.9066C39.6719 44.6554 39.1324 45.1056 38.3445 45.1735C37.2654 45.267 37.2654 45.2669 37.2425 46.3513C37.2411 46.398 37.2597 46.4575 37.2383 46.4914C37.0727 46.7377 36.8985 46.9784 36.7272 47.2205C36.5189 46.9812 36.1435 46.7491 36.132 46.4999C36.0707 45.2061 36.0949 43.908 36.1021 42.6113C36.1049 42.1272 36.3604 41.8752 36.8629 41.8894C37.0998 41.8965 37.3382 41.8908 37.5751 41.8908C37.5822 41.8582 37.5908 41.8285 37.598 41.7974ZM37.2854 44.1387C37.7906 44.0255 38.2288 43.9476 38.6471 43.8103C38.707 43.7905 38.7256 43.3531 38.6742 43.3333C38.2531 43.1676 37.8106 43.0558 37.2854 42.9015C37.2854 43.3772 37.2854 43.6489 37.2854 44.1387Z" fill="#3D3D63"/>
<path d="M32.9205 45.3842C33.3844 44.3778 33.7869 43.5129 34.1809 42.6437C34.3436 42.2827 34.5249 41.9062 35.0045 42.1029C35.5183 42.3139 35.3927 42.7201 35.2129 43.1151C34.6562 44.3339 34.1209 45.564 33.5371 46.7701C33.4215 47.0107 33.1275 47.3193 32.9177 47.3179C32.705 47.3165 32.4152 47.0065 32.2996 46.7659C31.7172 45.5584 31.1848 44.3282 30.6282 43.1094C30.4455 42.7088 30.3384 42.3039 30.8465 42.1001C31.329 41.9076 31.5031 42.2983 31.6659 42.655C32.0584 43.5213 32.4595 44.3849 32.9205 45.3842Z" fill="#3D3D63"/>
</g>
<defs>
<clipPath id="clip0_31_2044">
<rect width="29" height="33" fill="white" transform="translate(18 20)"/>
</clipPath>
</defs>
</svg>
