<svg width="64" height="74" viewBox="0 0 64 74" fill="none" xmlns="http://www.w3.org/2000/svg">
<path fill-rule="evenodd" clip-rule="evenodd" d="M-6.88536e-06 18.5L32 2.79753e-06L64 18.5L64 55.5L32 74L-3.65071e-06 55.5L-6.88536e-06 18.5Z" fill="#DAF2FF"/>
<g clip-path="url(#clip0_31_3296)">
<path d="M47 40.4908C47 40.8719 47 41.1418 47 41.4541C37.0042 41.4541 27.0209 41.4541 17 41.4541C17 41.158 17 40.8606 17 40.5158C18.3058 40.5158 19.5929 40.5158 20.9688 40.5158C20.9688 39.9598 20.9688 39.4489 20.9688 38.9366C20.9688 38.0408 20.9838 37.145 20.9638 36.2492C20.9513 35.7232 21.1528 35.4871 21.6962 35.4958C22.8643 35.5146 24.0336 35.5171 25.2017 35.4946C25.7651 35.4833 25.993 35.6995 25.9817 36.2667C25.9592 37.4536 25.9742 38.6418 25.9742 39.8287C25.9742 40.0311 25.9742 40.2347 25.9742 40.4696C27.1511 40.4696 28.2691 40.4696 29.4848 40.4696C29.4848 40.2572 29.4848 40.0386 29.4848 39.8199C29.4848 37.5073 29.4835 35.196 29.4848 32.8834C29.4848 32.0688 29.5549 32.0026 30.39 32.0013C31.4541 32.0001 32.5183 32.0001 33.5825 32.0013C34.4188 32.0026 34.4889 32.0688 34.4889 32.8821C34.4902 35.1735 34.4889 37.4648 34.4889 39.7562C34.4889 39.9811 34.4889 40.206 34.4889 40.4658C35.6583 40.4658 36.7776 40.4658 37.9995 40.4658C37.9995 40.2647 37.9995 40.0473 37.9995 39.8299C37.9995 36.3517 37.9995 32.8721 37.9995 29.3939C37.9995 28.5755 38.0746 28.5031 38.8947 28.5018C40.0002 28.5006 41.1069 28.5218 42.2124 28.4931C42.8159 28.4781 43.0162 28.723 43.0137 29.3089C42.9974 32.7872 43.0062 36.2667 43.0062 39.745C43.0062 39.9711 43.0062 40.196 43.0062 40.4908C44.3483 40.4908 45.6504 40.4908 47 40.4908ZM39.0399 29.5288C39.0399 33.2032 39.0399 36.8327 39.0399 40.4546C40.049 40.4546 41.0155 40.4546 41.977 40.4546C41.977 36.7902 41.977 33.1745 41.977 29.5288C40.9955 29.5288 40.044 29.5288 39.0399 29.5288ZM30.5277 33.0271C30.5277 35.5421 30.5277 38.0058 30.5277 40.4521C31.5393 40.4521 32.5058 40.4521 33.4586 40.4521C33.4586 37.9521 33.4586 35.5033 33.4586 33.0271C32.4733 33.0271 31.523 33.0271 30.5277 33.0271ZM21.9929 40.4708C23.0158 40.4708 23.966 40.4708 24.9376 40.4708C24.9376 39.1415 24.9376 37.8434 24.9376 36.5428C23.9335 36.5428 22.9669 36.5428 21.9929 36.5428C21.9929 37.8684 21.9929 39.1502 21.9929 40.4708Z" fill="#3D3D63"/>
<path d="M23.4318 42.521C23.8275 42.521 24.1117 42.521 24.3934 42.521C24.6525 43.5505 24.5161 43.9028 23.7361 44.5162C23.5908 44.6312 23.5007 44.9335 23.5308 45.1272C23.5783 45.4258 23.7711 45.6982 23.8675 45.993C24.0716 46.6127 24.317 47.1387 25.1283 46.7851C25.1458 46.7776 25.1696 46.7826 25.1909 46.7839C26.1549 46.8001 27.7637 48.6154 27.5997 49.565C27.5183 50.0322 27.6335 50.2734 28.078 50.3983C28.277 50.4545 28.4698 50.5382 28.6539 50.6344C29.2586 50.9518 29.7356 51.1154 30.2426 50.3521C30.7096 49.6487 33.2624 49.6512 33.7056 50.3608C34.2064 51.1629 34.6872 50.9455 35.2881 50.6507C35.511 50.5407 35.7463 50.4495 35.983 50.3746C36.3561 50.2571 36.4662 50.0185 36.3611 49.6562C36.1808 49.039 36.4174 48.5692 36.8694 48.1582C37.1774 47.8783 37.4578 47.5685 37.7508 47.2724C38.1276 46.8913 38.5633 46.6927 39.1042 46.8538C39.5223 46.9775 39.7815 46.8538 39.9042 46.4215C39.9718 46.1842 40.0757 45.9518 40.1921 45.7331C40.4989 45.1559 40.6403 44.7062 39.8892 44.2626C39.2857 43.9066 39.4021 43.1819 39.5248 42.541C39.8391 42.541 40.1433 42.541 40.5114 42.541C40.3223 43.1744 40.5239 43.5605 41.0598 43.914C41.5405 44.2314 41.6332 44.8099 41.4078 45.3771C41.1937 45.9168 40.9796 46.4578 40.7493 46.9913C40.43 47.7259 39.9455 48.0282 39.1617 47.8683C38.7423 47.7821 38.4932 47.8983 38.2428 48.1944C38.0688 48.4006 37.8735 48.5992 37.6544 48.7516C37.3001 48.999 37.1999 49.2576 37.3301 49.7012C37.5091 50.3109 37.1411 50.923 36.5038 51.2129C35.9742 51.454 35.4321 51.6677 34.8887 51.8763C34.1801 52.1474 33.618 51.9875 33.2136 51.3466C33.0032 51.0142 32.7741 50.8906 32.3935 50.9518C32.1494 50.9918 31.889 50.9968 31.6461 50.958C31.2279 50.8906 30.955 50.9855 30.7196 51.3803C30.3803 51.9513 29.7731 52.1249 29.1434 51.8963C28.5775 51.6914 28.0166 51.4665 27.4645 51.2254C26.7671 50.9205 26.4704 50.4333 26.6131 49.6762C26.6958 49.2351 26.5631 48.969 26.245 48.7142C26.051 48.558 25.8745 48.3756 25.7167 48.1832C25.4876 47.9046 25.2572 47.7859 24.8591 47.8658C24.0378 48.0307 23.5558 47.7371 23.2253 46.97C22.9949 46.4365 22.7808 45.8956 22.5667 45.3558C22.3489 44.8099 22.4453 44.2539 22.896 43.9428C23.4143 43.5805 23.6196 43.1894 23.4318 42.521Z" fill="#3D3D63"/>
<path d="M19.5779 33.7579C19.4464 33.4381 19.3362 33.1744 19.1973 32.8371C26.9157 29.7449 34.6142 26.6614 42.4741 23.5118C41.8231 23.3031 41.3411 23.1495 40.8203 22.982C40.9116 22.6447 40.9893 22.3524 41.0844 21.9988C42.1273 22.3211 43.1352 22.6235 44.1368 22.9496C44.4986 23.0682 44.62 23.3519 44.4335 23.6942C43.9364 24.6012 43.4206 25.4995 42.881 26.4553C42.5705 26.2766 42.3089 26.1255 42.0222 25.9605C42.2813 25.482 42.5255 25.0335 42.8535 24.4288C35.0186 27.5697 27.3339 30.6495 19.5779 33.7579Z" fill="#3D3D63"/>
<path d="M26.46 42.5286C26.8456 42.5286 27.1298 42.5286 27.4528 42.5286C27.5392 43.9616 28.0863 45.1548 29.2143 46.0418C30.0995 46.7377 31.1148 47.0476 32.2404 47.0001C34.5265 46.9026 36.2705 45.1048 36.5234 42.5473C36.8176 42.5473 37.1181 42.5473 37.4949 42.5473C37.4361 44.4126 36.6912 45.9231 35.165 46.9801C33.3108 48.2632 31.3177 48.3831 29.332 47.3049C27.4828 46.3004 26.5927 44.6675 26.46 42.5286Z" fill="#3D3D63"/>
</g>
<defs>
<clipPath id="clip0_31_3296">
<rect width="30" height="30" fill="white" transform="translate(17 22)"/>
</clipPath>
</defs>
</svg>
