<svg width="74" height="75" viewBox="0 0 74 75" fill="none" xmlns="http://www.w3.org/2000/svg">
<circle cx="37.2445" cy="37.2445" r="36.4945" stroke="#CDCDCD" stroke-width="0.5" stroke-dasharray="3 3"/>
<g filter="url(#filter0_d_31_3892)">
<circle cx="37.5329" cy="37.5329" r="28.5329" fill="#DAF2FF"/>
</g>
<g clip-path="url(#clip0_31_3892)">
<path d="M44.5868 34.5885C44.197 34.9899 43.8128 35.3967 43.4153 35.7904C42.999 36.2027 42.5616 36.2662 42.2549 35.9763C41.926 35.6646 41.9725 35.2666 42.4021 34.8389C43.1949 34.0493 43.9911 33.263 44.7905 32.481C45.2699 32.0118 45.5966 32.0009 46.066 32.4547C46.8832 33.2466 47.6915 34.046 48.4954 34.8499C48.8818 35.2348 48.9228 35.6636 48.6249 35.9534C48.3127 36.2563 47.9163 36.2169 47.5154 35.8254C47.088 35.4076 46.6717 34.98 46.1303 34.4354C46.1303 35.1638 46.1336 35.7204 46.1292 36.276C46.1081 39.2048 43.7475 41.5978 40.79 41.6896C40.3039 41.705 39.9507 41.4392 39.9263 41.04C39.9009 40.6211 40.1965 40.3379 40.6992 40.3018C43.1462 40.1246 44.693 38.5147 44.7263 36.1054C44.7329 35.6231 44.7274 35.1408 44.7274 34.6574C44.6798 34.6333 44.6333 34.6104 44.5868 34.5885Z" fill="#3D3D63"/>
<path d="M48.1302 27.8988C48.1258 29.3687 46.8967 30.5728 45.4119 30.5608C43.9747 30.5498 42.7434 29.3238 42.7335 27.8944C42.7235 26.4497 43.9791 25.204 45.4451 25.2051C46.9255 25.2062 48.1346 26.419 48.1302 27.8988ZM45.413 29.1696C46.1416 29.1816 46.7118 28.6457 46.7362 27.9283C46.7594 27.2185 46.2047 26.6312 45.4916 26.6115C44.732 26.5908 44.1419 27.1409 44.1375 27.8758C44.1319 28.5867 44.6955 29.1576 45.413 29.1696Z" fill="#3D3D63"/>
<path d="M32.1906 50.5506C32.1818 52.0249 30.9571 53.2202 29.4701 53.2049C28.0196 53.1907 26.8216 51.9822 26.8193 50.5309C26.8171 49.0577 28.0362 47.8449 29.5166 47.8482C30.9959 47.8525 32.1995 49.0687 32.1906 50.5506ZM29.5155 51.8039C30.2297 51.8007 30.811 51.232 30.8187 50.5287C30.8265 49.8321 30.243 49.2546 29.5244 49.248C28.7759 49.2415 28.1802 49.8255 28.1968 50.5495C28.2134 51.2593 28.7891 51.8072 29.5155 51.8039Z" fill="#3D3D63"/>
<path d="M33.7835 34.6554C33.2952 34.1939 32.8479 33.786 32.4193 33.3605C32.0119 32.9581 31.9753 32.5731 32.2832 32.2592C32.571 31.9661 33.0261 32.0055 33.4004 32.3773C33.8278 32.8006 34.2386 33.2391 34.7125 33.7291C35.1908 33.2446 35.6071 32.8137 36.0356 32.3948C36.421 32.0164 36.8561 31.965 37.1551 32.2417C37.4861 32.549 37.4474 32.9614 37.02 33.3759C36.5893 33.7947 36.1397 34.1972 35.6348 34.6653C36.0334 35.0262 36.3678 35.3116 36.6823 35.6179C37.4297 36.3452 37.5437 36.6929 37.1783 37.0593C36.8107 37.4279 36.3944 37.2988 35.668 36.5683C35.3724 36.2708 35.1 35.9514 34.7103 35.5238C34.2341 36.0444 33.8411 36.4972 33.4214 36.9259C33.0427 37.312 32.5943 37.3612 32.302 37.0867C31.9698 36.7761 32.0119 36.3703 32.4382 35.946C32.8545 35.5347 33.283 35.1345 33.7835 34.6554Z" fill="#3D3D63"/>
<path d="M38.1159 49.3136C38.6208 49.7959 39.0715 50.2257 39.521 50.6555C39.8443 50.965 39.9274 51.3095 39.6295 51.6715C39.3704 51.9865 38.9087 51.981 38.5555 51.6464C38.1037 51.2177 37.6786 50.7627 37.1847 50.2607C36.7629 50.6752 36.3809 51.0591 35.9889 51.4331C35.8306 51.5829 35.6556 51.8148 35.4784 51.8235C35.2038 51.8378 34.8451 51.7721 34.6591 51.5982C34.3922 51.3489 34.4708 50.9847 34.7399 50.7211C35.2105 50.2618 35.6944 49.8145 36.2491 49.2906C35.7519 48.8313 35.2991 48.4321 34.8683 48.0099C34.4288 47.579 34.3967 47.1908 34.741 46.8747C35.0654 46.5761 35.4353 46.6221 35.8494 47.0311C36.2668 47.4434 36.671 47.8678 37.1382 48.3446C37.6088 47.8809 38.0428 47.4467 38.4835 47.0191C38.8921 46.6221 39.2785 46.5794 39.593 46.8846C39.913 47.1952 39.8831 47.5768 39.4823 47.9837C39.056 48.4157 38.6153 48.8291 38.1159 49.3136Z" fill="#3D3D63"/>
<path d="M45.4429 46.6539C44.9623 47.1516 44.5526 47.5923 44.123 48.0134C43.7255 48.4027 43.3103 48.4399 43.0036 48.1435C42.6991 47.8482 42.7345 47.4304 43.1265 47.0466C43.5572 46.6255 44.0068 46.223 44.556 45.7112C44.0311 45.2366 43.5639 44.8352 43.1221 44.4076C42.729 44.0281 42.6902 43.5939 43.0169 43.3183C43.3978 42.9967 43.7654 43.0941 44.0887 43.4254C44.5106 43.8564 44.9269 44.2938 45.4041 44.7882C45.878 44.3212 46.2999 43.9023 46.7273 43.4867C47.1425 43.0831 47.5843 43.023 47.8855 43.3226C48.2032 43.6387 48.1512 44.0379 47.7216 44.4655C47.3064 44.8778 46.8823 45.2825 46.3707 45.779C46.8546 46.2198 47.3252 46.6255 47.7681 47.0586C48.1733 47.4556 48.2066 47.8734 47.8666 48.149C47.4857 48.4574 47.1215 48.3754 46.7948 48.0374C46.373 47.6065 45.95 47.1745 45.4429 46.6539Z" fill="#3D3D63"/>
<path d="M35.7718 41.0172C35.7629 41.3803 35.4053 41.7368 35.052 41.6887C34.6723 41.6362 34.4132 41.4207 34.3932 41.0139C34.3755 40.6552 34.7232 40.3096 35.0808 40.3096C35.4418 40.3085 35.7806 40.6563 35.7718 41.0172Z" fill="#3D3D63"/>
<path d="M37.1584 40.9845C37.1684 40.6225 37.5205 40.2922 37.877 40.3097C38.2424 40.3272 38.5646 40.6805 38.5281 41.0458C38.4882 41.4472 38.2358 41.6648 37.8427 41.691C37.4884 41.714 37.1485 41.3411 37.1584 40.9845Z" fill="#3D3D63"/>
<path d="M29.5418 46.4198C29.1011 46.4078 28.811 46.0895 28.8376 45.6925C28.8664 45.2726 29.1255 45.0768 29.5263 45.068C29.9194 45.0593 30.2106 45.3896 30.1807 45.7833C30.1486 46.2022 29.8795 46.3772 29.5418 46.4198Z" fill="#3D3D63"/>
<path d="M33.0584 41.4383C33.0385 41.8321 32.7207 42.1066 32.3155 42.0672C31.8969 42.0267 31.6777 41.7807 31.7032 41.3738C31.7286 40.9768 31.9567 40.7362 32.3808 40.7373C32.7861 40.7384 33.0784 41.0479 33.0584 41.4383Z" fill="#3D3D63"/>
<path d="M30.3815 42.4849C30.7004 42.5067 30.9329 42.7167 30.9573 43.1268C30.9817 43.526 30.6916 43.8268 30.2885 43.8169C29.8744 43.8071 29.6408 43.5917 29.6175 43.1793C29.5943 42.7802 29.881 42.4903 30.3815 42.4849Z" fill="#3D3D63"/>
</g>
<defs>
<filter id="filter0_d_31_3892" x="4" y="7" width="67.0654" height="67.0659" filterUnits="userSpaceOnUse" color-interpolation-filters="sRGB">
<feFlood flood-opacity="0" result="BackgroundImageFix"/>
<feColorMatrix in="SourceAlpha" type="matrix" values="0 0 0 0 0 0 0 0 0 0 0 0 0 0 0 0 0 0 127 0" result="hardAlpha"/>
<feMorphology radius="1" operator="dilate" in="SourceAlpha" result="effect1_dropShadow_31_3892"/>
<feOffset dy="3"/>
<feGaussianBlur stdDeviation="2"/>
<feComposite in2="hardAlpha" operator="out"/>
<feColorMatrix type="matrix" values="0 0 0 0 0 0 0 0 0 0 0 0 0 0 0 0 0 0 0.07 0"/>
<feBlend mode="normal" in2="BackgroundImageFix" result="effect1_dropShadow_31_3892"/>
<feBlend mode="normal" in="SourceGraphic" in2="effect1_dropShadow_31_3892" result="shape"/>
</filter>
<clipPath id="clip0_31_3892">
<rect width="22" height="28" fill="white" transform="translate(26.8193 25.2051)"/>
</clipPath>
</defs>
</svg>
