<svg width="74" height="75" viewBox="0 0 74 75" fill="none" xmlns="http://www.w3.org/2000/svg">
<circle cx="37.2445" cy="37.2445" r="36.4945" stroke="#CDCDCD" stroke-width="0.5" stroke-dasharray="3 3"/>
<g filter="url(#filter0_d_31_7199)">
<circle cx="37.5329" cy="37.5329" r="28.5329" fill="#DAF2FF"/>
</g>
<g clip-path="url(#clip0_31_7199)">
<path d="M44.5863 32.5885C44.1965 32.9899 43.8123 33.3967 43.4148 33.7904C42.9985 34.2027 42.5611 34.2662 42.2544 33.9763C41.9255 33.6646 41.972 33.2666 42.4017 32.8389C43.1944 32.0493 43.9906 31.263 44.79 30.481C45.2694 30.0118 45.5961 30.0009 46.0656 30.4547C46.8827 31.2466 47.691 32.046 48.4949 32.8499C48.8813 33.2348 48.9223 33.6636 48.6244 33.9534C48.3122 34.2563 47.9158 34.2169 47.5149 33.8254C47.0875 33.4076 46.6712 32.98 46.1298 32.4354C46.1298 33.1638 46.1331 33.7204 46.1287 34.276C46.1076 37.2048 43.747 39.5978 40.7895 39.6896C40.3034 39.705 39.9502 39.4392 39.9258 39.04C39.9004 38.6211 40.196 38.3379 40.6987 38.3018C43.1457 38.1246 44.6926 36.5147 44.7258 34.1054C44.7324 33.6231 44.7269 33.1408 44.7269 32.6574C44.6793 32.6333 44.6328 32.6104 44.5863 32.5885Z" fill="#3D3D63"/>
<path d="M48.1307 25.8988C48.1263 27.3687 46.8972 28.5728 45.4124 28.5608C43.9752 28.5498 42.7439 27.3238 42.7339 25.8944C42.724 24.4497 43.9796 23.204 45.4456 23.2051C46.926 23.2062 48.1351 24.419 48.1307 25.8988ZM45.4135 27.1696C46.1421 27.1816 46.7123 26.6457 46.7367 25.9283C46.7599 25.2185 46.2052 24.6312 45.4921 24.6115C44.7325 24.5908 44.1424 25.1409 44.1379 25.8758C44.1324 26.5867 44.696 27.1576 45.4135 27.1696Z" fill="#3D3D63"/>
<path d="M32.1906 48.5506C32.1818 50.0249 30.9571 51.2202 29.4701 51.2049C28.0196 51.1907 26.8216 49.9822 26.8193 48.5309C26.8171 47.0577 28.0362 45.8449 29.5166 45.8482C30.9959 45.8525 32.1995 47.0687 32.1906 48.5506ZM29.5155 49.8039C30.2297 49.8007 30.811 49.232 30.8187 48.5287C30.8265 47.8321 30.243 47.2546 29.5244 47.248C28.7759 47.2415 28.1802 47.8255 28.1968 48.5495C28.2134 49.2593 28.7891 49.8072 29.5155 49.8039Z" fill="#3D3D63"/>
<path d="M33.784 32.6554C33.2957 32.1939 32.8483 31.786 32.4198 31.3605C32.0124 30.9581 31.9758 30.5731 32.2836 30.2592C32.5715 29.9661 33.0266 30.0055 33.4009 30.3773C33.8283 30.8006 34.239 31.2391 34.713 31.7291C35.1913 31.2446 35.6076 30.8137 36.0361 30.3948C36.4214 30.0164 36.8566 29.965 37.1556 30.2417C37.4866 30.549 37.4479 30.9614 37.0205 31.3759C36.5897 31.7947 36.1402 32.1972 35.6353 32.6653C36.0339 33.0262 36.3683 33.3116 36.6828 33.6179C37.4302 34.3452 37.5442 34.6929 37.1788 35.0593C36.8112 35.4279 36.3949 35.2988 35.6685 34.5683C35.3729 34.2708 35.1005 33.9514 34.7107 33.5238C34.2346 34.0444 33.8415 34.4972 33.4219 34.9259C33.0432 35.312 32.5948 35.3612 32.3025 35.0867C31.9703 34.7761 32.0124 34.3703 32.4387 33.946C32.855 33.5347 33.2835 33.1345 33.784 32.6554Z" fill="#3D3D63"/>
<path d="M38.1154 47.3136C38.6203 47.7959 39.071 48.2257 39.5205 48.6555C39.8439 48.965 39.9269 49.3095 39.629 49.6715C39.3699 49.9865 38.9082 49.981 38.555 49.6464C38.1033 49.2177 37.6781 48.7627 37.1842 48.2607C36.7624 48.6752 36.3804 49.0591 35.9884 49.4331C35.8301 49.5829 35.6551 49.8148 35.478 49.8235C35.2034 49.8378 34.8446 49.7721 34.6586 49.5982C34.3917 49.3489 34.4704 48.9847 34.7394 48.7211C35.21 48.2618 35.6939 47.8145 36.2486 47.2906C35.7514 46.8313 35.2986 46.4321 34.8679 46.0099C34.4283 45.579 34.3962 45.1908 34.7405 44.8747C35.065 44.5761 35.4348 44.6221 35.8489 45.0311C36.2663 45.4434 36.6705 45.8678 37.1377 46.3446C37.6083 45.8809 38.0424 45.4467 38.483 45.0191C38.8916 44.6221 39.278 44.5794 39.5925 44.8846C39.9125 45.1952 39.8826 45.5768 39.4818 45.9837C39.0555 46.4157 38.6148 46.8291 38.1154 47.3136Z" fill="#3D3D63"/>
<path d="M45.4433 44.6539C44.9628 45.1516 44.5531 45.5923 44.1235 46.0134C43.726 46.4027 43.3108 46.4399 43.0041 46.1435C42.6996 45.8482 42.735 45.4304 43.127 45.0466C43.5577 44.6255 44.0072 44.223 44.5564 43.7112C44.0316 43.2366 43.5643 42.8352 43.1225 42.4076C42.7295 42.0281 42.6907 41.5939 43.0174 41.3183C43.3983 40.9967 43.7659 41.0941 44.0892 41.4254C44.511 41.8564 44.9274 42.2938 45.4046 42.7882C45.8785 42.3212 46.3004 41.9023 46.7278 41.4867C47.143 41.0831 47.5848 41.023 47.8859 41.3226C48.2037 41.6387 48.1517 42.0379 47.7221 42.4655C47.3069 42.8778 46.8828 43.2825 46.3712 43.779C46.8551 44.2198 47.3257 44.6255 47.7686 45.0586C48.1738 45.4556 48.2071 45.8734 47.8671 46.149C47.4862 46.4574 47.1219 46.3754 46.7953 46.0374C46.3734 45.6065 45.9505 45.1745 45.4433 44.6539Z" fill="#3D3D63"/>
<path d="M35.7713 39.0172C35.7624 39.3803 35.4048 39.7368 35.0516 39.6887C34.6718 39.6362 34.4127 39.4207 34.3927 39.0139C34.375 38.6552 34.7227 38.3096 35.0803 38.3096C35.4413 38.3085 35.7801 38.6563 35.7713 39.0172Z" fill="#3D3D63"/>
<path d="M37.1589 38.9845C37.1689 38.6225 37.521 38.2922 37.8775 38.3097C38.2429 38.3272 38.5651 38.6805 38.5286 39.0458C38.4887 39.4472 38.2363 39.6648 37.8432 39.691C37.4889 39.714 37.1489 39.3411 37.1589 38.9845Z" fill="#3D3D63"/>
<path d="M29.5418 44.4198C29.1011 44.4078 28.811 44.0895 28.8376 43.6925C28.8664 43.2726 29.1255 43.0768 29.5263 43.068C29.9194 43.0593 30.2106 43.3896 30.1807 43.7833C30.1486 44.2022 29.8795 44.3772 29.5418 44.4198Z" fill="#3D3D63"/>
<path d="M33.0589 39.4383C33.039 39.8321 32.7212 40.1066 32.316 40.0672C31.8974 40.0267 31.6782 39.7807 31.7037 39.3738C31.7291 38.9768 31.9572 38.7362 32.3813 38.7373C32.7865 38.7384 33.0789 39.0479 33.0589 39.4383Z" fill="#3D3D63"/>
<path d="M30.3815 40.4849C30.7004 40.5067 30.9329 40.7167 30.9573 41.1268C30.9817 41.526 30.6916 41.8268 30.2885 41.8169C29.8744 41.8071 29.6408 41.5917 29.6175 41.1793C29.5943 40.7802 29.881 40.4903 30.3815 40.4849Z" fill="#3D3D63"/>
</g>
<defs>
<filter id="filter0_d_31_7199" x="4" y="7" width="67.0659" height="67.0659" filterUnits="userSpaceOnUse" color-interpolation-filters="sRGB">
<feFlood flood-opacity="0" result="BackgroundImageFix"/>
<feColorMatrix in="SourceAlpha" type="matrix" values="0 0 0 0 0 0 0 0 0 0 0 0 0 0 0 0 0 0 127 0" result="hardAlpha"/>
<feMorphology radius="1" operator="dilate" in="SourceAlpha" result="effect1_dropShadow_31_7199"/>
<feOffset dy="3"/>
<feGaussianBlur stdDeviation="2"/>
<feComposite in2="hardAlpha" operator="out"/>
<feColorMatrix type="matrix" values="0 0 0 0 0 0 0 0 0 0 0 0 0 0 0 0 0 0 0.07 0"/>
<feBlend mode="normal" in2="BackgroundImageFix" result="effect1_dropShadow_31_7199"/>
<feBlend mode="normal" in="SourceGraphic" in2="effect1_dropShadow_31_7199" result="shape"/>
</filter>
<clipPath id="clip0_31_7199">
<rect width="22" height="28" fill="white" transform="translate(26.8193 23.2051)"/>
</clipPath>
</defs>
</svg>
