<svg width="64" height="74" viewBox="0 0 64 74" fill="none" xmlns="http://www.w3.org/2000/svg">
<path fill-rule="evenodd" clip-rule="evenodd" d="M-6.88536e-06 18.5L32 2.79753e-06L64 18.5L64 55.5L32 74L-3.65071e-06 55.5L-6.88536e-06 18.5Z" fill="#DAF2FF"/>
<path fill-rule="evenodd" clip-rule="evenodd" d="M47.414 28.585L41.414 22.585C41.039 22.21 40.529 22 40 22H19C17.346 22 16 23.345 16 25V49C16 50.654 17.346 52 19 52H45C46.654 52 48 50.654 48 49V30C48 29.469 47.789 28.96 47.414 28.585ZM46 49C46 49.553 45.553 50 45 50H19C18.447 50 18 49.553 18 49V25C18 24.447 18.447 24 19 24H39V28H38.998C38.998 29.657 40.342 31 41.998 31H42.998H46V49ZM42.998 30H41.998C40.896 30 39.998 29.103 39.998 28H40V24L46 30H42.998Z" fill="#3D3D63"/>
<path fill-rule="evenodd" clip-rule="evenodd" d="M31.5 29H36.5C36.775 29 37 28.776 37 28.5C37 28.224 36.775 28 36.5 28H31.5C31.224 28 31 28.223 31 28.5C31 28.777 31.224 29 31.5 29Z" fill="#3D3D63"/>
<path fill-rule="evenodd" clip-rule="evenodd" d="M31.5 32H36.5C36.775 32 37 31.776 37 31.5C37 31.224 36.775 31 36.5 31H31.5C31.224 31 31 31.224 31 31.5C31 31.776 31.224 32 31.5 32Z" fill="#3D3D63"/>
<path fill-rule="evenodd" clip-rule="evenodd" d="M31 34.5C31 34.776 31.224 35 31.5 35H43.5C43.775 35 44 34.776 44 34.5C44 34.224 43.775 34 43.5 34H31.5C31.224 34 31 34.223 31 34.5Z" fill="#3D3D63"/>
<path fill-rule="evenodd" clip-rule="evenodd" d="M43.5 40H20.5C20.224 40 20 40.223 20 40.5C20 40.775 20.224 41 20.5 41H43.5C43.775 41 44 40.775 44 40.5C44 40.223 43.775 40 43.5 40Z" fill="#3D3D63"/>
<path fill-rule="evenodd" clip-rule="evenodd" d="M43.5 43H20.5C20.224 43 20 43.223 20 43.5C20 43.775 20.224 44 20.5 44H43.5C43.775 44 44 43.775 44 43.5C44 43.223 43.775 43 43.5 43Z" fill="#3D3D63"/>
<path fill-rule="evenodd" clip-rule="evenodd" d="M43.5 46H20.5C20.224 46 20 46.223 20 46.5C20 46.775 20.224 47 20.5 47H43.5C43.775 47 44 46.775 44 46.5C44 46.223 43.775 46 43.5 46Z" fill="#3D3D63"/>
<path fill-rule="evenodd" clip-rule="evenodd" d="M43.5 37H20.5C20.224 37 20 37.223 20 37.5C20 37.777 20.224 38 20.5 38H43.5C43.775 38 44 37.776 44 37.5C44 37.224 43.775 37 43.5 37Z" fill="#3D3D63"/>
<path fill-rule="evenodd" clip-rule="evenodd" d="M21 35H28C28.553 35 29 34.553 29 34V28C29 27.447 28.553 27 28 27H21C20.447 27 20 27.447 20 28V34C20 34.552 20.447 35 21 35ZM22 29H27V33H22V29Z" fill="#3D3D63"/>
</svg>
