<svg width="64" height="74" viewBox="0 0 64 74" fill="none" xmlns="http://www.w3.org/2000/svg">
<path fill-rule="evenodd" clip-rule="evenodd" d="M-6.88536e-06 18.5L32 2.79753e-06L64 18.5L64 55.5L32 74L-3.65071e-06 55.5L-6.88536e-06 18.5Z" fill="#DAF2FF"/>
<g clip-path="url(#clip0_31_3281)">
<path d="M31.4339 44.6868C31.1772 44.9267 31.0659 45.025 30.9605 45.1293C29.8489 46.226 29.2924 46.1619 28.4094 44.8343C28.0398 44.2786 27.6658 43.7258 27.2503 43.1104C25.9799 43.5827 24.7006 44.0163 23.4599 44.5363C22.7965 44.8135 22.473 45.408 22.4745 46.1515C22.4745 47.3926 22.4745 48.6338 22.4686 49.875C22.4671 50.097 22.5027 50.3503 22.4107 50.5321C22.3142 50.7228 22.0604 50.988 21.9165 50.9657C21.7072 50.9329 21.3659 50.6662 21.3689 50.5052C21.4119 48.5638 21.0379 46.5925 21.7206 44.4901C21.4713 44.4901 21.1388 44.3843 20.9667 44.5065C18.9572 45.9369 18.5535 45.9339 16.6228 44.3069C16.0172 44.6123 15.3791 44.9222 14.7543 45.2545C14.223 45.5361 14.1236 46.0457 14.1221 46.588C14.1191 47.7547 14.1236 48.9214 14.1176 50.088C14.1161 50.4903 14.1221 50.9761 13.5804 50.9806C12.9957 50.9865 13.006 50.4948 13.0075 50.0553C13.0135 48.9139 13.0357 47.7711 13.0016 46.6298C12.9675 45.4229 13.4839 44.5929 14.5599 44.0863C14.9324 43.9105 15.293 43.7109 15.6165 43.544C15.0214 43.0299 14.4263 42.5576 13.8876 42.0272C13.7243 41.8662 13.6294 41.5355 13.6531 41.2986C13.8104 39.7788 14.079 38.2664 14.1785 36.7436C14.3239 34.528 15.8718 32.521 17.8991 32.0919C20.5645 31.5287 23.1305 33.2883 23.5297 36.027C23.7122 37.2741 23.733 38.545 23.8324 39.8056C23.8502 40.0261 23.8874 40.2481 23.9378 40.4642C24.2554 41.8573 24.1144 42.2089 22.899 43.0001C22.6719 43.1476 22.4389 43.2817 22.2029 43.5872C22.4151 43.5872 22.6452 43.6423 22.8351 43.5768C23.5341 43.3354 24.199 42.9763 24.9114 42.8064C26.1046 42.5204 26.9164 41.7634 27.6495 40.8575C28.0012 40.4224 27.9552 38.8326 27.5575 38.4318C26.1164 36.982 25.5006 35.2134 25.4724 33.19C25.4649 32.6342 25.3269 32.0755 25.2097 31.5272C24.6576 28.9376 24.527 26.4344 26.6596 24.405C27.6124 23.4991 28.7774 23.0282 30.0819 23.0148C32.8023 22.9865 35.5226 23.0089 38.2414 23.0014C38.7163 22.9999 39.117 23.0998 39.1096 23.663C39.0799 26.0172 39.2001 28.3937 38.9152 30.7181C38.7549 32.0278 38.5872 33.3479 38.4225 34.6636C38.237 36.1462 37.5602 37.3843 36.508 38.4288C35.9856 38.9473 36.0791 40.3882 36.4798 41.008C37.3999 42.4324 38.93 42.7126 40.334 43.2177C41.1235 43.5023 42.2069 42.8318 42.1179 42.1866C42.0882 41.9705 41.9472 41.7292 41.7839 41.5772C40.7792 40.6355 40.3755 39.4584 40.3399 38.1115C40.331 37.7732 40.331 37.3858 40.1737 37.1087C39.0502 35.1136 40.3191 32.0725 43.3051 31.9682C45.0089 31.9086 46.717 31.9563 48.4237 31.9533C48.9254 31.9518 49.2429 32.1574 49.2133 32.7013C49.1287 34.2673 49.5086 35.8794 48.679 37.3739C48.5291 37.6436 48.627 38.0563 48.6241 38.402C48.6152 39.6864 48.1388 40.7458 47.2097 41.6398C46.9886 41.8528 46.8699 42.276 46.8847 42.5949C46.8922 42.7602 47.275 42.9629 47.5214 43.0493C48.1017 43.2534 48.7087 43.3816 49.2934 43.5723C50.3872 43.9299 50.9853 44.7524 50.9942 45.9146C51.0046 47.3047 50.9927 48.6949 51.0001 50.0851C51.0031 50.5038 50.9942 50.9657 50.4703 50.982C49.8737 51.0014 49.89 50.4859 49.8885 50.0597C49.8826 48.7932 49.893 47.5267 49.8841 46.2617C49.8767 45.1368 49.6436 44.8358 48.5662 44.5155C48.3065 44.438 48.0126 44.4231 47.7871 44.2905C46.6369 43.614 45.9067 44.2473 45.2671 45.0966C45.1231 45.2888 45.0697 45.5897 45.0652 45.843C45.046 47.2585 45.0519 48.6725 45.0578 50.088C45.0593 50.5082 45.0385 50.9657 44.5191 50.9835C43.9314 51.0029 43.924 50.4993 43.9225 50.0687C43.9166 48.6293 43.9225 47.1885 43.918 45.7492C43.9151 44.8641 43.0736 44.5944 42.6239 44.0402C42.5364 43.9329 42.2039 44.0253 41.7765 44.0253C42.8317 45.1576 42.6877 46.3943 42.6848 47.6027C42.6833 48.4714 42.7308 49.3445 42.6581 50.2072C42.6343 50.4859 42.3004 50.7377 42.1089 51.0014C41.9264 50.7496 41.5984 50.5038 41.5865 50.2445C41.5302 49.0063 41.5643 47.7637 41.5569 46.5225C41.5494 45.2172 41.22 44.7509 40.0119 44.3054C38.9508 43.915 37.8882 43.5276 36.7633 43.1149C36.3344 43.76 35.9144 44.3963 35.4899 45.0295C34.7642 46.1112 34.1008 46.1708 33.1629 45.2351C33.0234 45.0951 32.9165 44.9222 32.6717 44.6049C32.6256 44.9997 32.5871 45.1755 32.5871 45.3499C32.5826 46.9382 32.5841 48.528 32.5841 50.1164C32.5841 50.538 32.5411 50.982 32.0142 50.9865C31.4829 50.991 31.4369 50.5395 31.4369 50.1238C31.4339 48.61 31.4354 47.0946 31.4354 45.5808C31.4339 45.3379 31.4339 45.0995 31.4339 44.6868ZM38.0247 24.1651C35.2154 24.1651 32.5307 24.1383 29.8474 24.177C28.6453 24.1949 27.6911 24.8013 26.9401 25.7341C25.7425 27.2181 25.8656 28.9674 26.1907 30.6332C26.4192 31.7998 26.6166 32.9427 26.673 34.1317C26.8273 37.3501 30.1131 39.7519 33.2297 38.9846C35.6576 38.3871 37.2664 36.4233 37.3747 33.932C37.4044 33.2407 37.2901 32.4957 37.5127 31.8714C38.4106 29.3458 37.7576 26.7681 38.0247 24.1651ZM48.075 33.1483C46.2674 33.1483 44.5147 33.047 42.7798 33.1811C41.4426 33.2854 40.5136 34.9348 41.033 36.1506C41.3847 36.9746 41.4797 37.7911 41.5168 38.6628C41.5851 40.2481 42.9356 41.4967 44.4805 41.4982C46.1917 41.4997 47.3938 40.266 47.4991 38.4199C47.5288 37.9058 47.462 37.3247 47.6758 36.8926C48.2768 35.6813 48.0394 34.4371 48.075 33.1483ZM22.4997 37.7345C22.4997 37.2204 22.5279 36.8718 22.4953 36.5306C22.2578 34.1064 19.9679 32.5389 17.7803 33.2913C16.179 33.8426 14.9235 36.0135 15.2574 37.666C15.2752 37.7539 15.3153 37.882 15.3776 37.9073C15.9327 38.1219 15.9059 38.6121 15.9787 39.0785C16.1835 40.4031 17.4138 41.455 18.7732 41.4952C20.2513 41.5399 21.4935 40.643 21.7992 39.2915C21.8393 39.1172 21.8393 38.8877 21.7577 38.7387C21.1863 37.6913 20.2246 37.2011 19.1338 36.845C18.2701 36.5634 17.6631 36.8003 17.1615 37.5035C17.1095 37.578 16.9982 37.654 16.9151 37.6525C16.7311 37.6481 16.4981 37.6525 16.3808 37.5468C16.2621 37.441 16.1894 37.1906 16.2206 37.0267C16.3482 36.3562 17.6275 35.4935 18.3027 35.577C19.913 35.7766 21.3466 36.3369 22.4997 37.7345ZM28.9703 39.4897C29.0253 41.3507 30.7661 41.4222 31.6135 42.3311C31.9266 42.6664 32.2502 42.5263 32.5099 42.2507C33.3246 41.382 35.0239 41.3328 35.0299 39.5284C33.0011 40.4642 31.0718 40.4999 28.9703 39.4897ZM31.0911 43.3264C30.2244 42.7334 29.3963 42.1672 28.5266 41.5727C28.3292 41.7858 28.1556 41.9735 27.9745 42.1702C28.5637 43.0553 29.1217 43.8912 29.7109 44.7777C30.1725 44.2905 30.6088 43.8316 31.0911 43.3264ZM35.4929 41.5682C34.6054 42.1791 33.7699 42.7543 32.9492 43.319C33.427 43.8211 33.8604 44.2771 34.322 44.7628C34.9126 43.8688 35.4766 43.015 36.0465 42.1553C35.852 41.9482 35.7022 41.7903 35.4929 41.5682ZM20.0822 42.5889C19.2793 42.5889 18.5298 42.5889 17.7477 42.5889C17.6483 43.167 17.4553 43.7571 18.1618 44.1728C18.6278 44.4469 19.0537 44.505 19.5479 44.2547C20.3048 43.8718 20.2662 43.2609 20.0822 42.5889ZM43.265 42.5889C43.2695 43.4442 44.0739 43.684 44.5236 44.3396C44.8857 43.6393 45.8073 43.4635 45.6886 42.5889C44.8426 42.5889 44.0961 42.5889 43.265 42.5889ZM15.1387 40.2809C14.7009 41.5951 15.0437 42.1285 16.6984 42.3341C16.1939 41.6696 15.6893 41.005 15.1387 40.2809ZM21.2605 42.5338C23.0206 41.8752 23.1765 41.6115 22.614 40.187C22.4537 41.1809 21.2976 41.4356 21.2605 42.5338Z" fill="#3D3D63"/>
<path d="M48.6208 48.6112C48.6208 49.1819 48.6743 49.76 48.5956 50.3187C48.5615 50.5646 48.2587 50.7732 48.0791 50.9996C47.8892 50.7821 47.5463 50.5735 47.5345 50.347C47.4796 49.2087 47.484 48.0658 47.536 46.9275C47.5449 46.7219 47.8758 46.5326 48.0584 46.3345C48.2454 46.5475 48.56 46.7412 48.5956 46.9781C48.6757 47.5116 48.6193 48.0658 48.6208 48.6112Z" fill="#3D3D63"/>
<path d="M15.387 48.9658C15.3885 48.5218 15.3276 48.0674 15.4122 47.6412C15.4553 47.4222 15.7328 47.1614 15.9524 47.1033C16.0771 47.0706 16.4437 47.4028 16.4526 47.5846C16.5045 48.5412 16.5104 49.5052 16.4526 50.4603C16.4407 50.651 16.0875 50.8194 15.8916 50.9997C15.7224 50.7896 15.4463 50.5989 15.4078 50.3664C15.3321 49.9105 15.387 49.4337 15.387 48.9658Z" fill="#3D3D63"/>
<path d="M39.1186 49.2998C39.1186 49.647 39.1899 50.015 39.0949 50.3339C39.0207 50.5872 38.7432 50.7794 38.5547 50.9984C38.3692 50.8018 38.0427 50.6185 38.0249 50.4084C37.9581 49.647 37.9566 48.8722 38.0204 48.1093C38.0382 47.9037 38.3736 47.7249 38.5621 47.5327C38.7476 47.7503 39.0281 47.9425 39.0949 48.1913C39.1884 48.5385 39.1201 48.9288 39.1186 49.2998Z" fill="#3D3D63"/>
<path d="M26.029 49.2834C26.029 49.6544 26.0958 50.0433 26.0052 50.392C25.9459 50.6244 25.6639 50.7987 25.4799 50.9984C25.284 50.7853 24.9426 50.5872 24.9204 50.3562C24.8491 49.6201 24.8551 48.8692 24.9204 48.1316C24.9397 47.9186 25.2602 47.7338 25.4413 47.5356C25.6357 47.7219 25.9429 47.8798 25.9978 48.1004C26.0898 48.4729 26.023 48.8856 26.023 49.2819C26.0275 49.2834 26.0275 49.2834 26.029 49.2834Z" fill="#3D3D63"/>
<path d="M28.4182 29.3532C28.4182 29.8583 28.4865 30.2442 28.3959 30.5884C28.3277 30.8462 28.0516 31.0473 27.8691 31.2738C27.6717 31.0637 27.36 30.8805 27.3022 30.6361C27.2087 30.2383 27.173 29.7585 27.3126 29.3905C27.4624 28.9986 27.7993 28.4577 28.1332 28.3922C30.582 27.9198 33.0337 27.8409 35.3756 28.9226C35.7926 29.1148 36.1844 29.4069 36.5124 29.7302C36.6474 29.8643 36.6905 30.3351 36.5866 30.4186C36.4085 30.5616 35.9826 30.651 35.8386 30.5363C33.5991 28.7706 31.0376 29.2638 28.4182 29.3532Z" fill="#3D3D63"/>
<path d="M42.9465 34.8228C44.1426 35.0671 45.183 35.2385 46.1936 35.5171C46.4459 35.5871 46.8036 36.0446 46.7635 36.2576C46.6656 36.7821 46.2218 36.6242 45.8137 36.5422C44.904 36.3589 43.9838 36.2263 43.0652 36.1086C42.6318 36.052 42.1228 36.0356 42.2163 35.4679C42.2593 35.2102 42.709 35.0194 42.9465 34.8228Z" fill="#3D3D63"/>
</g>
<defs>
<clipPath id="clip0_31_3281">
<rect width="38" height="28" fill="white" transform="translate(13 23)"/>
</clipPath>
</defs>
</svg>
