<svg width="74" height="75" viewBox="0 0 74 75" fill="none" xmlns="http://www.w3.org/2000/svg">
<circle cx="37.2445" cy="37.2445" r="36.4945" stroke="#CDCDCD" stroke-width="0.5" stroke-dasharray="3 3"/>
<g filter="url(#filter0_d_31_3909)">
<circle cx="37.5329" cy="37.5329" r="28.5329" fill="#DAF2FF"/>
</g>
<path d="M33.8203 28.7721C33.8203 28.028 33.8173 27.281 33.8213 26.534C33.8263 25.6859 34.3044 25.2089 35.1574 25.2079C38.3565 25.2049 41.5547 25.1999 44.7528 25.2199C44.9998 25.2219 45.3058 25.3519 45.4838 25.5259C46.8439 26.851 48.1869 28.194 49.511 29.5551C49.683 29.7321 49.805 30.0421 49.806 30.2901C49.822 36.1374 49.819 41.9856 49.818 47.8329C49.818 48.7439 49.349 49.2039 48.4259 49.2039C44.0278 49.2049 39.6296 49.2049 35.2314 49.2039C34.2794 49.2039 33.8233 48.7489 33.8213 47.7999C33.8193 47.0848 33.8213 46.3708 33.8213 45.6058C31.1592 45.3868 28.9911 44.2687 27.4151 42.1136C26.265 40.5426 25.749 38.7605 25.827 36.8164C25.976 33.0632 28.9221 29.1311 33.8203 28.7721ZM34.6174 36.8074C35.1694 36.8074 35.6654 36.8074 36.1614 36.8074C38.0935 36.8074 40.0266 36.8064 41.9587 36.8084C42.5427 36.8094 42.6197 36.8914 42.6147 37.4784C42.6137 37.5784 42.6127 37.6784 42.6057 37.7784C42.3597 41.3596 39.8206 44.4157 36.3254 45.3148C35.7704 45.4578 35.1984 45.5348 34.6154 45.6458C34.6154 46.3348 34.6144 46.9998 34.6154 47.6649C34.6164 48.3539 34.6694 48.4089 35.3554 48.4089C39.6536 48.4099 43.9518 48.4099 48.2499 48.4089C48.965 48.4089 49.018 48.3559 49.018 47.6419C49.018 42.0776 49.018 36.5134 49.018 30.9492C49.018 30.7741 49.018 30.6001 49.018 30.4051C47.9909 30.4051 47.0429 30.4061 46.0939 30.4051C45.0418 30.4041 44.6188 29.9771 44.6178 28.9171C44.6168 27.957 44.6178 26.998 44.6178 26.007C41.3907 26.007 38.2285 26.0049 35.0654 26.009C34.7274 26.009 34.6104 26.225 34.6134 26.538C34.6184 27.104 34.6144 27.671 34.6144 28.237C34.6174 31.0672 34.6174 33.8983 34.6174 36.8074ZM29.1611 42.8197C31.2502 44.8567 34.6494 45.3638 37.4005 44.1107C40.3106 42.7856 41.7797 39.8515 41.7647 37.6424C41.7197 37.6304 41.6727 37.6084 41.6257 37.6084C39.2936 37.6064 36.9625 37.6004 34.6304 37.6154C34.4614 37.6164 34.2594 37.7394 34.1304 37.8654C33.2133 38.7625 32.3123 39.6745 31.4052 40.5816C30.6642 41.3206 29.9222 42.0596 29.1611 42.8197ZM28.5421 42.2716C28.6511 42.1886 28.7081 42.1536 28.7531 42.1086C30.3792 40.4846 32.0083 38.8635 33.6203 37.2254C33.7483 37.0954 33.8113 36.8474 33.8123 36.6534C33.8253 34.4553 33.8213 32.2562 33.8193 30.0581C33.8193 29.9151 33.8013 29.7731 33.7893 29.5901C30.6432 29.9581 28.3541 31.4772 27.1791 34.3953C26.035 37.2364 26.6 39.8615 28.5421 42.2716ZM45.4188 26.653C45.4188 27.516 45.3998 28.329 45.4358 29.1391C45.4428 29.2971 45.6568 29.5731 45.7858 29.5791C46.6359 29.6191 47.4889 29.6001 48.3649 29.6001C47.3699 28.6031 46.4219 27.655 45.4188 26.653Z" fill="#3D3D63"/>
<path d="M35.4203 31.5884C35.4203 30.3393 35.4333 29.0903 35.4133 27.8422C35.4053 27.3642 35.5903 27.2002 36.0624 27.2012C39.9665 27.2132 43.6827 30.5133 44.1197 34.3795C44.1607 34.7425 44.1907 35.1075 44.2147 35.4715C44.2377 35.8165 44.0817 36.0045 43.7197 36.0035C41.1226 36.0025 38.5255 36.0015 35.9274 36.0045C35.5323 36.0045 35.4143 35.7935 35.4163 35.4335C35.4253 34.1525 35.4203 32.8704 35.4203 31.5884ZM43.3717 35.1825C43.2717 31.2653 39.8105 28.0872 36.2524 28.0632C36.2524 30.4353 36.2524 32.8074 36.2524 35.1825C38.6495 35.1825 41.0106 35.1825 43.3717 35.1825Z" fill="#3D3D63"/>
<path d="M44.6226 40.4077C46.5957 40.4077 48.2168 42.0258 48.2178 43.9969C48.2188 45.9769 46.6107 47.599 44.6406 47.604C42.6386 47.61 41.0175 45.9909 41.0215 43.9899C41.0245 42.0178 42.6436 40.4077 44.6226 40.4077ZM47.4198 44.0349C47.4348 42.5018 46.1877 41.2227 44.6606 41.2047C43.1226 41.1867 41.8385 42.4278 41.8175 43.9509C41.7955 45.5119 43.0536 46.802 44.6006 46.807C46.1357 46.812 47.4058 45.5629 47.4198 44.0349Z" fill="#3D3D63"/>
<path d="M48.199 32.0464C48.199 32.2894 48.199 32.5164 48.199 32.7734C47.1499 32.7734 46.1139 32.7734 45.0488 32.7734C45.0488 32.5384 45.0488 32.3124 45.0488 32.0464C46.0719 32.0464 47.1069 32.0464 48.199 32.0464Z" fill="#3D3D63"/>
<path d="M45.043 35.1702C45.043 34.9091 45.043 34.6831 45.043 34.4321C46.101 34.4321 47.1381 34.4321 48.1961 34.4321C48.1961 34.6831 48.1961 34.9101 48.1961 35.1702C47.1571 35.1702 46.121 35.1702 45.043 35.1702Z" fill="#3D3D63"/>
<path d="M48.1961 36.8403C48.1961 37.1003 48.1961 37.3274 48.1961 37.5784C47.1381 37.5784 46.102 37.5784 45.043 37.5784C45.043 37.3264 45.043 37.1003 45.043 36.8403C46.082 36.8403 47.1181 36.8403 48.1961 36.8403Z" fill="#3D3D63"/>
<path d="M43.8729 44.6736C44.5509 43.9466 45.2139 43.2356 45.921 42.4775C46.134 42.7215 46.284 42.8926 46.446 43.0776C45.6519 43.8876 44.8609 44.7086 44.0449 45.5037C43.9629 45.5837 43.6699 45.5697 43.5669 45.4857C43.1348 45.1306 42.7378 44.7326 42.2998 44.3236C42.5538 44.1046 42.7268 43.9566 42.9298 43.7816C43.2058 44.0416 43.5019 44.3216 43.8729 44.6736Z" fill="#3D3D63"/>
<defs>
<filter id="filter0_d_31_3909" x="4" y="7" width="67.0654" height="67.0659" filterUnits="userSpaceOnUse" color-interpolation-filters="sRGB">
<feFlood flood-opacity="0" result="BackgroundImageFix"/>
<feColorMatrix in="SourceAlpha" type="matrix" values="0 0 0 0 0 0 0 0 0 0 0 0 0 0 0 0 0 0 127 0" result="hardAlpha"/>
<feMorphology radius="1" operator="dilate" in="SourceAlpha" result="effect1_dropShadow_31_3909"/>
<feOffset dy="3"/>
<feGaussianBlur stdDeviation="2"/>
<feComposite in2="hardAlpha" operator="out"/>
<feColorMatrix type="matrix" values="0 0 0 0 0 0 0 0 0 0 0 0 0 0 0 0 0 0 0.07 0"/>
<feBlend mode="normal" in2="BackgroundImageFix" result="effect1_dropShadow_31_3909"/>
<feBlend mode="normal" in="SourceGraphic" in2="effect1_dropShadow_31_3909" result="shape"/>
</filter>
</defs>
</svg>
