<svg width="75" height="75" viewBox="0 0 75 75" fill="none" xmlns="http://www.w3.org/2000/svg">
<circle cx="37.7127" cy="37.3265" r="36.4945" stroke="#CDCDCD" stroke-width="0.5" stroke-dasharray="3 3"/>
<g filter="url(#filter0_d_31_7195)">
<circle cx="37.7136" cy="37.3278" r="28.5329" fill="#DAF2FF"/>
</g>
<path d="M37.2988 45.4258C36.8635 45.4258 36.4531 45.4258 36.0436 45.4258C34.5201 45.4258 32.9966 45.4307 31.4731 45.4248C29.4895 45.4168 28.1399 44.0841 28.118 42.0975C28.1021 40.5909 28.1041 39.0833 28.121 37.5767C28.125 37.197 28.0624 37.0162 27.6261 36.9148C26.041 36.5461 24.9746 35.0892 25.0005 33.4375C25.0253 31.8494 26.196 30.469 27.8259 30.1082C27.9034 30.0913 27.9819 30.0804 28.0823 30.0635C28.1051 29.7306 28.1131 29.4195 28.1498 29.1104C28.3516 27.3991 29.6515 26.2453 31.3668 26.2095C31.659 26.2035 31.9462 26.0515 32.2384 25.976C32.6955 25.8577 33.1497 25.7096 33.6148 25.649C33.894 25.6122 34.0809 25.5705 34.2568 25.3121C35.4573 23.555 37.9686 23.565 39.1622 25.328C39.3252 25.5675 39.4862 25.6559 39.7595 25.6391C40.3379 25.6033 40.8656 25.7484 41.3486 26.0883C41.4937 26.1906 41.7173 26.2135 41.9061 26.2155C44.1511 26.2403 45.6716 28.058 45.2622 30.2613C45.2383 30.3914 45.0396 30.4898 44.9223 30.6031C44.8021 30.4769 44.6013 30.3646 44.5765 30.2215C44.5109 29.8329 44.5546 29.4274 44.494 29.0379C44.3032 27.8185 43.3909 27.0363 42.0959 26.9827C42.1079 27.1119 42.1079 27.2371 42.1327 27.3583C42.398 28.6423 41.4857 29.8886 40.1739 29.9114C37.8732 29.9512 35.5706 29.9502 33.2689 29.9144C31.9084 29.8935 31.0199 28.6632 31.2853 27.2848C31.3032 27.1934 31.3241 27.1029 31.3439 27.0065C29.7668 26.939 28.7252 28.2418 28.9071 30.0545C29.8324 30.2185 30.6403 30.62 31.2366 31.3872C32.8148 33.4176 31.7653 36.3881 29.2569 36.9436C28.9429 37.0132 28.8624 37.1265 28.8654 37.4276C28.8783 39.0177 28.8664 40.6068 28.8733 42.1969C28.8793 43.5892 29.9079 44.6744 31.2982 44.6953C33.2689 44.7251 35.2397 44.7082 37.2104 44.6953C37.3396 44.6943 37.5433 44.589 37.584 44.4826C38.5083 42.0886 41.9886 41.4128 43.7248 43.8675C43.7417 43.8913 43.7804 43.8983 43.8321 43.9251C44.3906 43.4073 44.5546 42.7365 44.5546 42.0071C44.5576 38.7285 44.5556 35.4489 44.5566 32.1704C44.5566 32.0213 44.5168 31.8513 44.5755 31.7291C44.6411 31.593 44.7981 31.4111 44.9134 31.4121C45.0346 31.4131 45.1867 31.59 45.2622 31.7251C45.3188 31.8265 45.2781 31.9835 45.2781 32.1167C45.2781 35.3953 45.2662 38.6748 45.2861 41.9534C45.292 42.9482 45.0257 43.8009 44.333 44.5283C44.2286 44.6387 44.1998 44.8881 44.2336 45.0531C44.6182 46.9175 43.537 48.7053 41.7103 49.1923C39.5389 49.7727 37.3773 48.1557 37.3227 45.9117C37.3207 45.7656 37.3088 45.6215 37.2988 45.4258ZM36.635 29.2038C37.7272 29.2038 38.8203 29.2088 39.9125 29.2019C40.8139 29.1959 41.4271 28.6125 41.4231 27.7827C41.4191 26.9608 40.8358 26.4182 39.9414 26.4043C39.7267 26.4013 39.4961 26.451 39.2994 26.3904C39.0887 26.3248 38.8283 26.2025 38.7319 26.0266C38.2827 25.2137 37.6188 24.7476 36.6986 24.7526C35.7823 24.7575 35.1144 25.2157 34.6742 26.0386C34.5818 26.2125 34.3114 26.3238 34.0998 26.3914C33.9199 26.449 33.7062 26.4023 33.5074 26.4043C32.6061 26.4152 31.9651 26.9936 31.9661 27.7956C31.967 28.6026 32.611 29.1979 33.5055 29.2028C34.549 29.2088 35.5915 29.2038 36.635 29.2038ZM28.4808 36.2768C30.0023 36.2807 31.2426 35.0633 31.2525 33.5567C31.2624 32.059 30.0122 30.7999 28.5116 30.7949C26.9881 30.79 25.7627 32.0014 25.7518 33.5259C25.7399 35.0514 26.9513 36.2718 28.4808 36.2768ZM38.0809 45.8412C38.0949 47.3577 39.3431 48.594 40.8427 48.5781C42.3414 48.5622 43.5876 47.2961 43.5777 45.8004C43.5678 44.2948 42.3116 43.0635 40.802 43.0764C39.2735 43.0903 38.067 44.3167 38.0809 45.8412Z" fill="#3D3D63"/>
<path d="M38.1365 40.0463C38.0978 41.056 37.5124 42.0975 36.3248 42.7395C35.1422 43.3795 33.9486 43.3249 32.7909 42.6282C32.7203 42.5855 32.6179 42.5537 32.5901 42.4901C32.5136 42.3152 32.3754 42.0856 32.4331 41.9514C32.5464 41.6861 32.8008 41.7328 33.0174 41.8868C33.7499 42.4056 34.5479 42.5636 35.4165 42.3201C36.8814 41.9107 37.7341 40.3415 37.2918 38.8786C36.8565 37.4405 35.3052 36.6157 33.8622 37.0529C32.4102 37.4932 31.5903 39.0266 32.0326 40.4746C32.0515 40.5382 32.0912 40.6038 32.0833 40.6644C32.0564 40.8821 32.0813 41.2299 31.963 41.2905C31.6211 41.4674 31.48 41.1643 31.3757 40.8871C30.8937 39.607 31.2485 38.0845 32.2472 37.1474C33.2888 36.1704 34.7765 35.9101 36.0694 36.4775C37.3445 37.041 38.1485 38.2932 38.1365 40.0463Z" fill="#3D3D63"/>
<path d="M34.6244 40.9484C34.9643 40.9484 35.2336 40.9017 35.4761 40.9643C35.645 41.008 35.7742 41.2008 35.9213 41.327C35.7762 41.4562 35.6411 41.6788 35.484 41.6957C35.009 41.7454 34.525 41.7325 34.045 41.7116C33.5282 41.6888 33.3762 41.3707 33.6723 40.9474C33.9943 40.4862 34.3352 40.039 34.6622 39.5809C34.7675 39.4338 34.854 39.2728 34.9464 39.1168C35.0975 38.8614 35.0696 38.6199 34.8102 38.4748C34.536 38.3207 34.2815 38.4032 34.1573 38.7014C34.044 38.9737 33.8711 39.1506 33.5948 39.0045C33.2877 38.8405 33.3951 38.5523 33.5143 38.3078C33.7846 37.7503 34.4574 37.5048 35.0319 37.7443C35.658 38.0047 35.9531 38.6606 35.6679 39.3006C35.488 39.7031 35.2098 40.0629 34.9722 40.4385C34.8788 40.5886 34.7745 40.7307 34.6244 40.9484Z" fill="#3D3D63"/>
<path d="M36.6767 32.9781C35.7664 32.9781 34.8551 32.9761 33.9448 32.9791C33.6735 32.9801 33.418 32.9383 33.4151 32.6074C33.4121 32.2784 33.6685 32.2168 33.9378 32.2168C35.7426 32.2158 37.5473 32.2148 39.3531 32.2178C39.6283 32.2178 39.9553 32.2516 39.8857 32.6153C39.8569 32.7644 39.5478 32.9542 39.36 32.9612C38.4656 32.9989 37.5712 32.9781 36.6767 32.9781Z" fill="#3D3D63"/>
<path d="M41.2571 38.356C41.9667 38.356 42.6763 38.357 43.3859 38.355C43.6572 38.354 43.9066 38.4106 43.9037 38.7396C43.9007 39.0695 43.6453 39.1222 43.3779 39.1222C41.9429 39.1232 40.5068 39.1361 39.0718 39.1053C38.8909 39.1013 38.716 38.8628 38.5381 38.7336C38.718 38.6074 38.8929 38.3838 39.0797 38.3729C39.8042 38.3311 40.5317 38.356 41.2571 38.356Z" fill="#3D3D63"/>
<path d="M35.686 34.8658C35.0907 34.8658 34.4935 34.8926 33.9011 34.8489C33.7292 34.836 33.5722 34.6203 33.4072 34.4981C33.5642 34.3659 33.7193 34.1234 33.8803 34.1194C35.0868 34.0867 36.2952 34.0867 37.5017 34.1185C37.6717 34.1224 37.8346 34.351 38.0016 34.4762C37.8257 34.6064 37.6567 34.833 37.4709 34.8479C36.8796 34.8966 36.2813 34.8658 35.686 34.8658Z" fill="#3D3D63"/>
<path d="M47.909 44.5094C48.5858 44.5094 49.2635 44.4855 49.9373 44.5263C50.1093 44.5362 50.2693 44.7499 50.4352 44.8691C50.2742 44.9924 50.1152 45.219 49.9522 45.2229C48.5828 45.2518 47.2133 45.2398 45.8438 45.2388C45.5984 45.2388 45.3589 45.2041 45.3609 44.8821C45.3638 44.5382 45.6093 44.5064 45.8796 44.5084C46.5554 44.5124 47.2322 44.5094 47.909 44.5094Z" fill="#3D3D63"/>
<path d="M40.2703 40.243C40.6837 40.243 41.1021 40.2062 41.5086 40.2609C41.6825 40.2837 41.8306 40.4974 41.9906 40.6246C41.8296 40.7518 41.6735 40.9824 41.5076 40.9903C40.6827 41.0281 39.8529 41.0291 39.028 40.9903C38.8591 40.9824 38.7011 40.7498 38.5381 40.6206C38.7021 40.4954 38.8541 40.2847 39.032 40.2609C39.4385 40.2052 39.8569 40.243 40.2703 40.243Z" fill="#3D3D63"/>
<path d="M46.9018 47.1206C46.5222 47.1206 46.1376 47.1574 45.7649 47.1037C45.6148 47.0818 45.4916 46.8652 45.3564 46.738C45.4906 46.6247 45.6208 46.42 45.7589 46.414C46.5331 46.3822 47.3103 46.3822 48.0854 46.414C48.2276 46.42 48.3617 46.6207 48.4999 46.732C48.3627 46.8612 48.2385 47.0818 48.0864 47.1027C47.6988 47.1554 47.2983 47.1196 46.9018 47.1206Z" fill="#3D3D63"/>
<path d="M38.1259 26.9619C38.1299 27.7708 37.4899 28.4158 36.6909 28.4088C35.9256 28.4019 35.2727 27.75 35.2638 26.9837C35.2548 26.2076 35.9386 25.5258 36.7187 25.5338C37.4959 25.5417 38.1229 26.1787 38.1259 26.9619ZM36.7157 26.304C36.3162 26.299 36.0181 26.5822 36.03 26.9758C36.0419 27.3832 36.2665 27.6138 36.671 27.6426C37.0566 27.6704 37.3835 27.3703 37.3985 26.9957C37.4134 26.6279 37.0973 26.3089 36.7157 26.304Z" fill="#3D3D63"/>
<path d="M28.2087 32.3258C28.0298 32.305 27.8778 32.3268 27.7804 32.2642C27.6711 32.1937 27.5488 32.0456 27.5498 31.9323C27.5508 31.819 27.686 31.6232 27.7814 31.6103C28.0894 31.5705 28.4124 31.5616 28.7146 31.6222C28.8229 31.6441 28.9551 31.8945 28.958 32.0426C28.9799 33.0513 28.9869 34.062 28.9521 35.0707C28.9461 35.2367 28.7146 35.3947 28.5873 35.5567C28.4611 35.3917 28.2355 35.2327 28.2266 35.0618C28.1858 34.3363 28.2087 33.6069 28.2077 32.8784C28.2087 32.6985 28.2087 32.5206 28.2087 32.3258Z" fill="#3D3D63"/>
<path d="M41.7689 45.8254C41.8563 46.0679 41.9666 46.2766 42.0064 46.4982C42.1266 47.171 41.6913 47.7832 41.0473 47.8845C40.3885 47.9879 39.7594 47.5675 39.6719 46.9086C39.6491 46.7347 39.8279 46.5349 39.9144 46.3471C40.0734 46.4713 40.2434 46.5846 40.3885 46.7238C40.5087 46.84 40.6021 47.1014 40.7005 47.0974C40.8923 47.0905 41.0782 46.9434 41.267 46.854C41.1646 46.6592 41.0861 46.4455 40.9529 46.2746C40.8287 46.1146 40.6459 46.0013 40.4888 45.8671C40.6468 45.7359 40.8168 45.6167 40.9589 45.4706C41.0871 45.3384 41.272 45.1764 41.271 45.0293C41.27 44.8872 41.0831 44.6626 40.941 44.6298C40.7959 44.597 40.6051 44.7481 40.4411 44.8306C40.4083 44.8465 40.4163 44.9429 40.3835 44.9598C40.2135 45.0452 40.0357 45.1178 39.8607 45.1943C39.8101 45.0065 39.6829 44.7998 39.7236 44.6358C39.8776 44.0206 40.6121 43.6847 41.2302 43.9063C41.901 44.1468 42.2151 44.8584 41.9378 45.5163C41.8861 45.6346 41.8126 45.7459 41.7689 45.8254Z" fill="#3D3D63"/>
<defs>
<filter id="filter0_d_31_7195" x="4.18066" y="6.79492" width="67.0659" height="67.0659" filterUnits="userSpaceOnUse" color-interpolation-filters="sRGB">
<feFlood flood-opacity="0" result="BackgroundImageFix"/>
<feColorMatrix in="SourceAlpha" type="matrix" values="0 0 0 0 0 0 0 0 0 0 0 0 0 0 0 0 0 0 127 0" result="hardAlpha"/>
<feMorphology radius="1" operator="dilate" in="SourceAlpha" result="effect1_dropShadow_31_7195"/>
<feOffset dy="3"/>
<feGaussianBlur stdDeviation="2"/>
<feComposite in2="hardAlpha" operator="out"/>
<feColorMatrix type="matrix" values="0 0 0 0 0 0 0 0 0 0 0 0 0 0 0 0 0 0 0.07 0"/>
<feBlend mode="normal" in2="BackgroundImageFix" result="effect1_dropShadow_31_7195"/>
<feBlend mode="normal" in="SourceGraphic" in2="effect1_dropShadow_31_7195" result="shape"/>
</filter>
</defs>
</svg>
