<svg width="64" height="74" viewBox="0 0 64 74" fill="none" xmlns="http://www.w3.org/2000/svg">
<path fill-rule="evenodd" clip-rule="evenodd" d="M-6.88536e-06 18.5L32 2.79753e-06L64 18.5L64 55.5L32 74L-3.65071e-06 55.5L-6.88536e-06 18.5Z" fill="#DAF2FF"/>
<g clip-path="url(#clip0_31_3329)">
<path d="M26.7496 26.6009C26.9596 26.252 27.0918 25.9434 27.2999 25.6995C28.275 24.5636 30.0705 24.8535 30.6386 26.2482C30.7577 26.54 30.8918 26.6225 31.1796 26.6066C31.5537 26.585 31.9297 26.5897 32.3038 26.6066C32.4697 26.6141 32.6957 26.6244 32.7866 26.7276C33.0726 27.053 33.4289 26.9902 33.7805 26.9921C34.4208 26.9949 35.0621 26.9911 35.7025 26.993C36.9766 26.9958 37.6095 27.6224 37.6114 28.8858C37.6133 30.215 37.6123 31.5431 37.6123 32.8722C37.6123 33.0401 37.6123 33.209 37.6123 33.314C38.6896 33.5204 39.7312 33.6423 40.7232 33.9331C41.6579 34.207 42.544 34.6488 43.4421 35.0399C43.8144 35.2012 44.0328 35.5145 43.9963 35.9357C43.6615 39.7495 42.8037 43.3907 40.4269 46.5114C39.7303 47.4259 38.8677 48.1659 37.8833 48.77C37.4164 49.0561 36.9888 49.0974 36.5388 48.7719C36.1347 48.4802 35.6884 48.2316 35.3321 47.8902C34.9402 47.5141 34.5268 47.4052 33.9961 47.4081C29.9495 47.4278 25.902 47.4193 21.8555 47.4184C20.6254 47.4184 20 46.8003 20 45.5837C20 40.0027 20 34.4227 20 28.8418C20 27.6318 20.6319 26.9996 21.848 26.9939C22.4574 26.9911 23.0668 26.9958 23.6762 26.993C24.0888 26.9911 24.5079 27.0634 24.8529 26.7088C24.9494 26.6094 25.1735 26.6103 25.3404 26.6066C25.8242 26.5934 26.308 26.6009 26.7496 26.6009ZM22.4405 29.4102C22.4405 34.6319 22.4405 39.7945 22.4405 44.9778C25.933 44.9778 29.3935 44.9778 32.8541 44.9778C32.8569 44.9327 32.871 44.8971 32.8598 44.8736C32.7998 44.747 32.7341 44.6232 32.6704 44.4985C31.3118 41.8665 30.6799 39.0394 30.408 36.1139C30.3583 35.5811 30.5711 35.2303 31.0427 34.9799C32.2353 34.3458 33.4861 33.8815 34.8137 33.6451C35.1034 33.5935 35.2028 33.5007 35.199 33.2015C35.1821 32.0459 35.1934 30.8894 35.1906 29.7328C35.1906 29.6306 35.1634 29.5284 35.1465 29.4102C34.5258 29.4102 33.9333 29.4045 33.3407 29.4149C33.2273 29.4167 33.1148 29.4805 33.0023 29.5171C32.7182 29.609 32.435 29.7797 32.15 29.7825C30.1361 29.806 28.1213 29.8041 26.1064 29.7891C25.5495 29.7844 24.9354 29.9711 24.4835 29.4374C24.4535 29.4027 24.3653 29.4111 24.3035 29.4111C23.6959 29.4102 23.0893 29.4102 22.4405 29.4102ZM31.2181 36.2386C31.5143 39.0404 32.0844 41.6311 33.3248 44.0351C34.1611 45.6559 35.2571 47.0526 36.8379 48.0262C37.0995 48.1875 37.2954 48.196 37.5589 48.0309C38.4683 47.4587 39.254 46.7534 39.8953 45.8942C42.0227 43.0446 42.8083 39.7382 43.1702 36.2837C43.2096 35.9094 43.0868 35.7284 42.7577 35.5661C39.0862 33.7549 35.4165 33.7446 31.7319 35.5211C31.354 35.7021 31.0793 35.8982 31.2181 36.2386ZM24.3803 27.8137C23.5337 27.8137 22.7096 27.8137 21.8855 27.8137C21.0351 27.8147 20.8044 28.0407 20.8044 28.8971C20.8035 34.4312 20.8035 39.9643 20.8044 45.4983C20.8044 46.3904 21.0191 46.6042 21.9108 46.6052C25.7698 46.6061 29.6298 46.6061 33.4889 46.6042C33.637 46.6042 33.7851 46.5892 33.9642 46.5798C33.7195 46.063 33.442 45.7976 32.8251 45.8051C29.4348 45.8445 26.0436 45.8248 22.6533 45.8229C21.878 45.8229 21.5967 45.5481 21.5967 44.7902C21.5957 39.741 21.5957 34.6919 21.5967 29.6428C21.5967 28.8774 21.8705 28.6044 22.644 28.5979C23.2168 28.5932 23.7897 28.5969 24.3822 28.5969C24.3803 28.3118 24.3803 28.0857 24.3803 27.8137ZM25.2298 28.9843C27.6272 28.9843 29.9898 28.9843 32.3628 28.9843C32.3628 28.4572 32.3628 27.9638 32.3628 27.416C31.8294 27.416 31.3184 27.3973 30.8093 27.4217C30.3255 27.4451 30.0217 27.3494 29.9505 26.7726C29.8773 26.1704 29.3851 25.8177 28.8029 25.8168C28.2141 25.8158 27.6815 26.206 27.6262 26.8063C27.5756 27.3541 27.2868 27.432 26.8452 27.4188C26.308 27.4038 25.7698 27.4151 25.2298 27.4151C25.2298 27.9882 25.2298 28.4806 25.2298 28.9843ZM36.0119 33.4022C36.3138 33.4022 36.5388 33.4022 36.7854 33.4022C36.7854 31.7495 36.7948 30.1409 36.7788 28.5322C36.7751 28.1205 36.5032 27.8409 36.1019 27.8278C35.154 27.7968 34.2052 27.8175 33.2488 27.8175C33.2488 28.0989 33.2488 28.3362 33.2488 28.596C33.8011 28.596 34.3167 28.5951 34.8315 28.596C35.7747 28.5979 36.0119 28.8389 36.0128 29.7985C36.0128 30.9982 36.0119 32.1978 36.0119 33.4022Z" fill="#3D3D63"/>
<path d="M30.8053 32.2183C31.6782 32.2183 32.5501 32.2202 33.423 32.2174C33.7099 32.2164 33.9771 32.2483 33.9743 32.6188C33.9715 32.9631 33.7165 32.9968 33.4483 32.9968C31.6725 32.9959 29.8958 32.995 28.1201 32.9978C27.8369 32.9978 27.6007 32.9162 27.6091 32.5963C27.6175 32.2774 27.8613 32.2146 28.1416 32.2174C29.0295 32.223 29.9174 32.2183 30.8053 32.2183Z" fill="#3D3D63"/>
<path d="M24.4602 32.8113C24.854 32.407 25.2347 32.0168 25.6153 31.6247C25.8085 31.4259 26.0335 31.3058 26.2623 31.5328C26.4854 31.7542 26.3935 31.9802 26.1891 32.1819C25.7119 32.6528 25.2544 33.1452 24.7565 33.5945C24.629 33.7099 24.2934 33.7943 24.209 33.7183C23.9718 33.5063 23.7139 33.224 23.6558 32.9313C23.5949 32.6303 23.9774 32.5524 24.4602 32.8113Z" fill="#3D3D63"/>
<path d="M24.4703 36.022C24.8509 35.6243 25.2269 35.2312 25.6019 34.8373C25.81 34.6197 26.0529 34.5118 26.2826 34.7641C26.4973 34.9996 26.3576 35.2172 26.1616 35.4095C25.6957 35.8681 25.2503 36.3474 24.7647 36.7845C24.6343 36.9018 24.3043 36.9993 24.2199 36.9271C23.978 36.7189 23.7174 36.4412 23.6489 36.1477C23.5786 35.8437 23.963 35.7546 24.4703 36.022Z" fill="#3D3D63"/>
<path d="M24.475 39.2179C24.8379 38.8371 25.2035 38.4544 25.5682 38.0699C25.7679 37.8588 26.0033 37.7078 26.2555 37.9404C26.5171 38.1824 26.3614 38.4141 26.1533 38.6195C25.6864 39.0801 25.2392 39.5622 24.7507 39.9993C24.6232 40.1137 24.2847 40.1925 24.2003 40.1156C23.9659 39.9017 23.6378 39.5753 23.6668 39.3324C23.7268 38.8287 24.1281 39.0519 24.475 39.2179Z" fill="#3D3D63"/>
<path d="M24.4668 42.4069C24.8521 42.0111 25.2225 41.6303 25.5928 41.2504C25.7981 41.0393 26.0316 40.9061 26.2763 41.1632C26.5032 41.4023 26.3588 41.6181 26.1666 41.8094C25.7016 42.2718 25.2534 42.7521 24.7659 43.1892C24.6346 43.3064 24.2961 43.3983 24.2108 43.3233C23.9727 43.1132 23.7195 42.8299 23.6558 42.5354C23.5902 42.2399 23.9436 42.1668 24.4668 42.4069Z" fill="#3D3D63"/>
<path d="M29.2284 41.8028C29.5706 41.8028 29.9129 41.8009 30.2551 41.8028C30.526 41.8046 30.767 41.8675 30.7792 42.1967C30.7914 42.5269 30.5598 42.6188 30.286 42.6216C29.5547 42.6282 28.8225 42.6479 28.094 42.6057C27.9224 42.5954 27.6533 42.3806 27.6242 42.223C27.5689 41.9275 27.8268 41.8056 28.109 41.8037C28.4821 41.8 28.8553 41.8028 29.2284 41.8028Z" fill="#3D3D63"/>
<path d="M28.8526 38.6088C29.087 38.6088 29.3373 38.5581 29.5511 38.6247C29.7227 38.6782 29.8511 38.8733 29.9983 39.0055C29.8689 39.1406 29.7489 39.3807 29.6102 39.392C29.0673 39.4361 28.5169 39.4342 27.9741 39.3873C27.84 39.3751 27.6262 39.1247 27.6309 38.9905C27.6356 38.8592 27.8569 38.6622 28.0135 38.6275C28.2816 38.5675 28.5723 38.6106 28.8535 38.6106C28.8526 38.6097 28.8526 38.6088 28.8526 38.6088Z" fill="#3D3D63"/>
<path d="M28.5837 35.417C28.7862 35.417 29.0056 35.3682 29.1846 35.432C29.3393 35.4873 29.5428 35.6646 29.5503 35.7987C29.5578 35.9235 29.3496 36.1561 29.2118 36.1758C28.8302 36.2302 28.4318 36.2368 28.0511 36.1842C27.887 36.1617 27.7501 35.946 27.6011 35.8184C27.7576 35.6843 27.8955 35.5098 28.0755 35.4292C28.218 35.3654 28.4121 35.416 28.5827 35.416C28.5837 35.416 28.5837 35.417 28.5837 35.417Z" fill="#3D3D63"/>
<path d="M37.1595 35.0229C38.7928 35.0079 40.2694 35.339 41.6917 35.9468C42.138 36.1372 42.3649 36.4355 42.3087 36.9223C41.9702 39.8863 41.2361 42.7171 39.4041 45.1456C38.9381 45.7627 38.3671 46.3077 37.7999 46.8386C37.3676 47.2438 37.0564 47.2251 36.597 46.8489C35.0481 45.5798 34.0364 43.9346 33.3014 42.0971C32.661 40.4951 32.3113 38.8217 32.105 37.1165C32.0169 36.3914 32.1594 36.1701 32.8279 35.8943C34.2427 35.3118 35.7081 34.9892 37.1595 35.0229ZM37.2092 46.318C37.4258 46.1248 37.6208 45.9682 37.7952 45.7918C40.201 43.3587 41.1029 40.2906 41.4695 37.0049C41.4827 36.8857 41.3195 36.6766 41.192 36.624C38.5293 35.5275 35.861 35.5332 33.1908 36.6128C32.962 36.7047 32.8907 36.8107 32.9189 37.0602C33.1861 39.4539 33.7871 41.7426 35.0434 43.823C35.6116 44.7638 36.3026 45.6024 37.2092 46.318Z" fill="#3D3D63"/>
<path d="M36.2855 41.2934C37.0328 40.2991 37.6694 39.453 38.3051 38.606C38.3613 38.531 38.4035 38.4081 38.4738 38.3894C38.6613 38.3397 38.8601 38.335 39.0542 38.3115C39.0729 38.4926 39.1761 38.7355 39.0964 38.8462C38.3238 39.922 37.5325 40.9848 36.7112 42.0231C36.624 42.1328 36.2546 42.1535 36.1168 42.0625C35.8233 41.8693 35.5627 41.5991 35.3573 41.3112C35.2645 41.1808 35.3348 40.9341 35.3311 40.7409C35.5261 40.7503 35.7502 40.7034 35.9068 40.7859C36.0549 40.8638 36.1327 41.0767 36.2855 41.2934Z" fill="#3D3D63"/>
</g>
<defs>
<clipPath id="clip0_31_3329">
<rect width="24" height="24" fill="white" transform="translate(20 25)"/>
</clipPath>
</defs>
</svg>
