<svg width="64" height="74" viewBox="0 0 64 74" fill="none" xmlns="http://www.w3.org/2000/svg">
<path fill-rule="evenodd" clip-rule="evenodd" d="M-6.88536e-06 18.5L32 2.79753e-06L64 18.5L64 55.5L32 74L-3.65071e-06 55.5L-6.88536e-06 18.5Z" fill="#DAF2FF"/>
<g clip-path="url(#clip0_31_2012)">
<path d="M19 36.9477C19 33.2746 18.9989 29.6025 19 25.9295C19 24.6997 19.6894 24 20.9058 24C28.3026 24 35.6984 24 43.0942 24.001C44.2882 24.001 44.9979 24.7007 44.9979 25.8807C44.9989 33.2939 44.9989 40.7061 44.9979 48.1193C44.9979 49.28 44.2902 49.998 43.1429 49.998C35.7136 50 28.2833 50 20.854 49.998C19.7077 49.998 19.001 49.278 19.001 48.1173C18.9989 44.3944 19 40.6716 19 36.9477ZM44.1288 28.3748C36.0233 28.3748 27.9766 28.3748 19.8701 28.3748C19.8701 28.6002 19.8701 28.7983 19.8701 28.9963C19.8701 35.2762 19.8701 41.5561 19.8701 47.8349C19.8701 48.9266 20.0752 49.1287 21.183 49.1287C28.394 49.1287 35.6039 49.1287 42.8149 49.1287C43.9227 49.1287 44.1288 48.9256 44.1288 47.836C44.1288 41.5561 44.1288 35.2762 44.1288 28.9973C44.1288 28.7993 44.1288 28.6013 44.1288 28.3748ZM44.1288 27.4314C44.1288 26.9886 44.1288 26.5997 44.1288 26.2118C44.1278 25.0663 43.9369 24.8713 42.8139 24.8713C35.607 24.8713 28.4 24.8713 21.1931 24.8723C20.99 24.8723 20.7849 24.8683 20.5859 24.8987C20.191 24.9597 19.9229 25.2003 19.9006 25.5974C19.8671 26.1976 19.8925 26.8028 19.8925 27.4314C27.9746 27.4314 36.0192 27.4314 44.1288 27.4314Z" fill="#3D3D63"/>
<path d="M41.5001 25.7293C41.0959 25.7293 40.6857 25.6877 40.2908 25.7486C40.1172 25.775 39.975 26.0096 39.8186 26.1487C39.9648 26.3 40.106 26.5732 40.2593 26.5813C41.098 26.625 41.9417 26.626 42.7814 26.5844C42.949 26.5762 43.1053 26.3183 43.2657 26.1761C43.0972 26.0269 42.9449 25.7781 42.7581 25.7486C42.3489 25.6836 41.9204 25.7293 41.5001 25.7293ZM23.6624 25.6257C23.2177 25.7029 22.9131 25.7872 22.9172 26.1822C22.9212 26.5509 23.2299 26.6169 23.5406 26.6098C23.8574 26.6026 24.2219 26.5702 24.1569 26.1528C24.1264 25.9558 23.835 25.7994 23.6624 25.6257ZM25.8505 25.6278C25.423 25.7222 25.1002 25.7354 25.091 26.1629C25.0829 26.561 25.3875 26.6016 25.6881 26.6067C26.0048 26.6118 26.3683 26.5793 26.3257 26.17C26.3044 25.9751 26.017 25.8075 25.8505 25.6278ZM21.2825 26.7072C21.7018 26.6037 22.0328 26.5468 22.0196 26.1426C22.0074 25.777 21.7038 25.7232 21.387 25.7242C21.053 25.7263 20.7088 25.7821 20.7606 26.1782C20.787 26.3742 21.0997 26.5326 21.2825 26.7072Z" fill="white"/>
<path d="M31.5029 35.6183C31.5029 36.7334 31.6014 37.8585 31.4816 38.9604C31.2511 41.0838 29.3433 42.6527 27.1877 42.6233C24.9966 42.5938 23.1039 40.9782 22.9679 38.8202C22.8389 36.7638 22.8867 34.6952 22.907 32.6328C22.9151 31.8396 23.5253 31.3441 24.2746 31.3827C24.9884 31.4192 25.492 31.9645 25.4951 32.7343C25.5012 34.5277 25.4951 36.3211 25.4981 38.1145C25.4992 39.2234 26.2282 40.0338 27.2181 40.0378C28.1908 40.0419 28.9544 39.2041 28.9564 38.1205C28.9595 36.3272 28.9523 34.5338 28.9605 32.7404C28.9635 32.1199 29.3199 31.6101 29.8327 31.4385C30.3617 31.2618 30.9861 31.4162 31.2795 31.8833C31.4491 32.1534 31.5537 32.5058 31.5669 32.8267C31.6044 33.7559 31.5801 34.6871 31.5801 35.6183C31.5537 35.6183 31.5283 35.6183 31.5029 35.6183ZM30.6876 35.7402C30.6876 35.5371 30.6876 35.334 30.6876 35.1309C30.6866 34.3185 30.7089 33.5051 30.6663 32.6957C30.6581 32.5353 30.3972 32.388 30.253 32.2347C30.119 32.3809 29.9565 32.5109 29.8611 32.6795C29.8022 32.783 29.8459 32.9445 29.8459 33.0796C29.8459 34.7541 29.8611 36.4297 29.8408 38.1043C29.8174 40.0551 28.1055 41.3529 26.3784 40.7527C25.2788 40.3699 24.6402 39.4275 24.63 38.1114C24.6168 36.3688 24.6249 34.6262 24.627 32.8836C24.627 32.5769 24.5914 32.257 24.2158 32.2458C23.8035 32.2337 23.766 32.5576 23.767 32.8897C23.772 34.7166 23.7609 36.5445 23.7731 38.3714C23.7852 40.2358 25.355 41.7713 27.2283 41.7723C29.1107 41.7733 30.6622 40.2551 30.6845 38.3795C30.6957 37.5001 30.6866 36.6196 30.6876 35.7402Z" fill="#3D3D63"/>
<path d="M35.4343 40.0429C35.4343 37.9966 35.4343 36.0072 35.4343 33.9569C34.8962 33.9569 34.3773 33.961 33.8585 33.9559C33.0391 33.9488 32.4502 33.4258 32.4248 32.6896C32.3994 31.9716 32.9893 31.3826 33.8006 31.3765C35.7633 31.3623 37.7259 31.3613 39.6896 31.3765C40.5456 31.3826 41.1304 31.9615 41.0999 32.7109C41.0695 33.4583 40.5029 33.9508 39.6622 33.9559C39.1576 33.959 38.6529 33.9569 38.1148 33.9569C38.1148 35.9859 38.1148 37.9753 38.1148 40.0429C38.6215 40.0429 39.1393 40.0398 39.6571 40.0439C40.4988 40.05 41.107 40.6004 41.102 41.3447C41.0969 42.083 40.5313 42.6192 39.6937 42.6243C37.7483 42.6365 35.8019 42.6375 33.8554 42.6233C33.0036 42.6172 32.4045 42.0404 32.4238 41.3031C32.4441 40.5476 33.031 40.0479 33.9032 40.0439C34.3946 40.0408 34.884 40.0429 35.4343 40.0429ZM36.7502 41.7723C37.6975 41.7723 38.6458 41.7692 39.5932 41.7743C39.9059 41.7753 40.2085 41.7306 40.2146 41.3498C40.2206 40.9751 39.9211 40.8959 39.6104 40.8918C39.12 40.8857 38.6286 40.8989 38.1382 40.8857C37.5249 40.8695 37.1959 40.5537 37.1929 39.9393C37.1827 37.9763 37.1817 36.0133 37.1939 34.0493C37.198 33.438 37.531 33.1293 38.1514 33.1141C38.6418 33.1019 39.1332 33.1141 39.6236 33.109C39.9333 33.1049 40.2328 33.0348 40.2156 32.649C40.2003 32.3088 39.9333 32.2275 39.6328 32.2275C37.7198 32.2285 35.8079 32.2296 33.895 32.2275C33.5955 32.2275 33.3335 32.2945 33.3224 32.649C33.3102 33.0064 33.5793 33.0988 33.8696 33.1069C34.3773 33.1201 34.885 33.1039 35.3927 33.1161C35.9836 33.1313 36.3319 33.4319 36.3369 34.0128C36.3542 36.0093 36.3542 38.0068 36.3359 40.0043C36.3308 40.5618 35.9846 40.8685 35.4302 40.8867C34.9398 40.902 34.4484 40.8878 33.958 40.8938C33.6615 40.8969 33.3366 40.9131 33.3244 41.3082C33.3122 41.7245 33.626 41.7773 33.958 41.7763C34.8891 41.7712 35.8191 41.7723 36.7502 41.7723Z" fill="#3D3D63"/>
<path d="M31.9975 43.5019C34.7207 43.5019 37.4449 43.4988 40.168 43.5039C40.8503 43.5049 41.3022 43.8492 41.4839 44.4737C41.6352 44.9937 41.4301 45.5999 40.9356 45.8751C40.6828 46.0163 40.3619 46.1006 40.0716 46.1016C34.6922 46.1148 29.3129 46.1148 23.9336 46.1077C23.0533 46.1067 22.4421 45.5319 22.4593 44.7753C22.4776 43.9975 23.0655 43.5029 23.9793 43.5019C26.6517 43.5019 29.3251 43.5019 31.9975 43.5019ZM31.9488 45.2303C34.5887 45.2303 37.2276 45.2303 39.8675 45.2303C40.0025 45.2303 40.168 45.275 40.2665 45.213C40.4168 45.1186 40.6107 44.9551 40.6178 44.8129C40.6249 44.6789 40.4361 44.495 40.2899 44.4057C40.1761 44.3366 39.9934 44.3742 39.8421 44.3742C34.6141 44.3732 29.385 44.3732 24.157 44.3742C24.0047 44.3742 23.823 44.3366 23.7092 44.4057C23.563 44.495 23.3752 44.6789 23.3813 44.8129C23.3884 44.9551 23.5823 45.1196 23.7326 45.213C23.8311 45.275 23.9966 45.2303 24.1316 45.2303C26.738 45.2303 29.3434 45.2303 31.9488 45.2303Z" fill="#3D3D63"/>
<path d="M41.5002 25.7295C41.9206 25.7295 42.3491 25.6838 42.7593 25.7498C42.9461 25.7793 43.0984 26.0281 43.2669 26.1774C43.1055 26.3195 42.9501 26.5775 42.7826 26.5856C41.9429 26.6272 41.0992 26.6262 40.2605 26.5825C40.1062 26.5744 39.966 26.3012 39.8198 26.1499C39.9762 26.0098 40.1183 25.7762 40.292 25.7498C40.6859 25.6889 41.0961 25.7295 41.5002 25.7295Z" fill="#3D3D63"/>
<path d="M23.6623 25.6257C23.8349 25.8004 24.1263 25.9558 24.1568 26.1518C24.2218 26.5691 23.8572 26.6016 23.5405 26.6087C23.2308 26.6159 22.9211 26.5498 22.917 26.1812C22.913 25.7862 23.2176 25.7019 23.6623 25.6257Z" fill="#3D3D63"/>
<path d="M25.8505 25.6279C26.017 25.8077 26.3053 25.9752 26.3256 26.1702C26.3683 26.5805 26.0048 26.612 25.688 26.6069C25.3875 26.6018 25.0829 26.5612 25.091 26.1631C25.1001 25.7356 25.423 25.7224 25.8505 25.6279Z" fill="#3D3D63"/>
<path d="M21.2825 26.7074C21.0997 26.5317 20.787 26.3743 20.7606 26.1783C20.7088 25.7823 21.053 25.7254 21.387 25.7244C21.7028 25.7234 22.0074 25.7772 22.0196 26.1428C22.0328 26.5469 21.7028 26.6048 21.2825 26.7074Z" fill="#3D3D63"/>
</g>
<defs>
<clipPath id="clip0_31_2012">
<rect width="26" height="26" fill="white" transform="translate(19 24)"/>
</clipPath>
</defs>
</svg>
