<svg width="64" height="74" viewBox="0 0 64 74" fill="none" xmlns="http://www.w3.org/2000/svg">
<path fill-rule="evenodd" clip-rule="evenodd" d="M-6.88536e-06 18.5L32 2.79753e-06L64 18.5L64 55.5L32 74L-3.65071e-06 55.5L-6.88536e-06 18.5Z" fill="#DAF2FF"/>
<path d="M43.2461 44.4712C43.3559 42.6759 43.3559 42.6759 45.676 42.3241C45.676 41.6158 45.6865 40.8956 45.6699 40.1754C45.6639 39.8927 44.4129 38.7996 44.1227 38.7996C42.2703 38.7966 40.4163 38.7981 38.5097 38.7981C38.3202 39.8311 37.6151 40.0446 36.6843 40.013C35.3326 39.9664 33.9793 40.0085 32.626 39.998C31.7013 39.9919 31.2517 39.5393 31.2457 38.6116C31.2367 37.1336 31.2367 35.6555 31.2457 34.1774C31.2517 33.2482 31.6983 32.8031 32.623 32.7896C33.2997 32.7791 33.9763 32.7806 34.6514 32.7731C34.695 32.7731 34.7386 32.7355 34.8138 32.7024C34.892 32.0739 34.9281 31.5401 34.256 31.0589C33.3974 30.444 33.447 29.2215 34.2094 28.4862C34.9702 27.7525 36.1475 27.772 36.7835 28.6366C37.1369 29.1148 37.5083 29.1959 38.0301 29.1884C39.7517 29.1659 41.4748 29.1794 43.186 29.1794C43.5348 26.8578 43.5348 26.8578 45.676 26.742C45.676 26.0128 45.8669 25.1978 45.6188 24.5543C45.4008 23.9904 44.7166 23.2702 44.1859 23.2251C42.3229 23.0627 40.4388 23.1619 38.4556 23.1619C38.4556 23.9167 38.4616 24.6325 38.4541 25.3467C38.445 26.321 38.006 26.7631 37.0316 26.7676C35.5792 26.7751 34.1252 26.7751 32.6727 26.7676C31.6938 26.7631 31.2502 26.324 31.2457 25.3527C31.2382 23.9002 31.2397 22.4462 31.2457 20.9937C31.2502 20.0103 31.6848 19.5668 32.6531 19.5593C33.8801 19.5517 35.1115 19.5096 36.3355 19.5743C37.0918 19.6149 37.6256 19.4119 38 18.7488C38.1443 18.4932 38.3639 18.2812 38.5909 18C38.9067 18.2406 39.1984 18.4631 39.5637 18.7428C38.5909 19.6014 38.1654 20.6223 38.5653 21.9605C40.4599 21.9605 42.4056 21.9696 44.3513 21.9425C44.5061 21.941 44.6791 21.6959 44.8084 21.535C45.288 20.9366 45.894 20.6313 46.6533 20.8027C47.4006 20.9712 47.8893 21.4719 48.0472 22.2207C48.2005 22.9484 47.9419 23.5874 47.3284 23.9889C46.9555 24.2325 46.8518 24.4926 46.8713 24.9001C46.8984 25.4955 46.8788 26.0925 46.8788 26.7781C47.6517 26.7781 48.3704 26.7721 49.0877 26.7796C50.0214 26.7902 50.4785 27.2307 50.4845 28.1494C50.4951 29.6275 50.4936 31.1055 50.4845 32.5836C50.48 33.5204 50.0349 33.9805 49.1207 33.988C47.6171 33.9985 46.1135 34 44.6114 33.988C43.7363 33.9805 43.2897 33.5189 43.2762 32.6332C43.2657 31.9115 43.2747 31.1897 43.2747 30.3868C41.2688 30.3868 39.3202 30.3207 37.3805 30.4364C36.9399 30.462 36.4437 31.0559 36.1505 31.5025C35.9536 31.8017 36.0663 32.3054 36.0438 32.6753C37.5173 33.2527 37.8782 31.9987 38.5909 31.2379C38.8991 31.4709 39.1908 31.692 39.4735 31.9055C39.451 31.9882 39.4525 32.0483 39.4239 32.0739C38.4902 32.9234 38.3308 33.997 38.445 35.1909C38.5187 35.9562 38.4586 36.7351 38.4586 37.6027C39.9276 37.6027 41.3455 37.6027 42.7649 37.6027C43.0912 37.6027 43.4175 37.5846 43.7423 37.6072C44.2355 37.6418 44.5903 37.5516 44.9256 37.0839C45.5542 36.2073 46.727 36.1652 47.4968 36.8855C48.2532 37.5937 48.3629 38.7996 47.548 39.3995C46.8758 39.8942 46.8413 40.446 46.8758 41.1257C46.8969 41.5211 46.8788 41.9196 46.8788 42.4128C47.6186 42.4128 48.3103 42.4098 49.002 42.4143C50.0665 42.4203 50.483 42.8428 50.486 43.9254C50.489 45.3538 50.492 46.7823 50.4845 48.2092C50.48 49.1806 50.0349 49.6196 49.0561 49.6241C47.6532 49.6316 46.2503 49.6271 44.8475 49.6256C43.7694 49.6241 43.422 49.3354 43.0431 48.1791C42.8206 48.5671 42.5108 48.931 42.3921 49.349C42.0402 50.5804 41.3711 51.5894 40.1772 52.0224C36.9414 53.1967 33.7282 54.5109 30.3992 55.3364C23.8329 56.9633 17.1012 52.1231 16.2787 45.3899C16.0802 43.7675 16.5524 42.2519 17.5462 40.9512C17.9086 40.4776 17.9597 39.998 18.0289 39.4461C18.2123 37.9756 17.7312 37.0178 16.4907 36.081C13.4579 33.788 12.446 29.9117 13.703 26.4518C14.963 22.9815 18.1928 20.7621 21.9894 20.7591C23.0675 20.7591 24.1441 20.7426 25.2207 20.7637C26.7409 20.7937 27.8626 21.5155 28.4971 22.8792C29.1211 24.2235 28.8941 25.5001 27.9889 26.6804C27.7964 26.9315 27.6761 27.2848 27.64 27.6051C27.4897 28.9328 27.7709 30.1568 28.458 31.3326C29.1437 32.5039 28.9557 33.0136 27.8701 33.8662C27.7288 33.9775 27.6385 34.2361 27.637 34.427C27.6355 36.3577 26.7664 37.7155 25.0057 38.5034C24.938 38.5334 24.8598 38.553 24.8012 38.5966C24.4464 38.8657 24.5561 41.2264 24.9486 41.4324C28.3633 43.2367 30.5541 46.0245 31.6322 49.785C33.2275 49.2181 34.8018 48.6708 36.361 48.0874C36.5039 48.0348 36.6121 47.7551 36.6407 47.5657C36.6933 47.2213 36.6257 46.8575 36.6918 46.5191C37.0076 44.8877 38.8616 44.0698 40.2479 45.002C40.7591 45.3448 41.0809 45.2787 41.5651 45.017C42.0507 44.7569 42.6221 44.6652 43.2461 44.4712ZM19.4107 43.6878C20.7309 44.1224 21.7323 45.0125 22.3278 46.2485C22.5879 46.7883 22.8164 47.3446 23.0856 47.8799C24.4644 50.627 27.7483 51.633 30.4608 50.1248C30.3766 49.8467 30.2669 49.567 30.2097 49.2768C30.0518 48.4558 29.5842 48.0153 28.7572 47.8047C27.7197 47.5416 26.7304 47.0875 25.6929 46.8184C24.9756 46.6334 24.5426 46.3011 24.4403 45.5538C24.3531 44.9073 23.9787 44.5494 23.3096 44.5043C22.0766 44.4216 21.4707 43.8171 21.3489 42.5225C21.2346 41.2956 21.1158 41.3046 19.8588 41.2219C19.6348 41.2069 19.4002 41.1708 19.1852 41.2159C18.9867 41.258 18.7491 41.3497 18.6319 41.5001C17.7462 42.6278 17.2876 43.9254 17.4741 45.3508C18.262 51.3413 24.3757 55.613 30.2248 54.1666C32.4937 53.6057 34.677 52.6975 36.8993 51.9427C37.2873 51.8104 37.6692 51.6585 38.1097 51.4931C37.6932 50.6631 37.3188 49.9143 36.9459 49.17C34.6439 49.994 32.4381 50.7939 30.2233 51.5728C26.7063 52.8118 23.3412 51.4029 21.8105 48.0077C21.194 46.6394 20.5881 45.3087 19.0183 44.7674C19.1656 44.366 19.2829 44.0412 19.4107 43.6878ZM19.9626 27.7239C19.2559 28.366 19.1987 29.3358 19.1792 30.3628C18.2048 30.4349 16.8696 30.0771 16.8456 31.5521C16.82 33.0903 18.2033 32.7114 19.2198 32.8242C19.2198 35.236 19.2198 37.5997 19.2198 39.8792C20.6708 40.1438 22.03 40.3904 23.3953 40.6385C23.3953 40.0551 23.3953 39.4597 23.3953 38.8702C21.4436 38.4492 20.5625 37.8884 19.9851 36.6855C20.2843 36.487 20.5881 36.2855 20.8858 36.087C22.2075 37.7245 23.8103 38.0583 25.141 36.9847C24.3276 36.1758 23.8614 35.2345 24.084 33.9699C24.8674 33.9699 25.6297 33.9699 26.395 33.9699C26.4236 33.5294 26.4462 33.167 26.4687 32.8167C27.8265 32.746 27.8671 32.7144 27.2551 31.6002C26.6762 30.5447 26.2898 29.4651 26.4236 28.2427C26.4386 28.1103 26.3845 27.972 26.3755 27.9073C24.2298 27.9299 22.1413 28.181 19.9626 27.7239ZM21.8015 24.9046C21.5925 24.9918 21.4587 25.061 21.3188 25.1016C20.8046 25.2489 20.3204 25.464 20.4407 26.106C20.5565 26.727 21.0692 26.7856 21.6105 26.7781C22.7879 26.7616 23.9667 26.7841 25.144 26.7691C26.5484 26.7526 27.6175 25.7211 27.631 24.3904C27.6461 23.0296 26.565 21.9741 25.1215 21.959C24.0689 21.9485 23.0164 21.9545 21.9639 21.9575C17.1267 21.9681 13.6594 26.1045 14.5601 30.8484C14.9555 32.9309 16.1268 34.5158 17.9748 35.7307C17.9748 35.0977 17.9748 34.5804 17.9748 34.0587C17.7207 33.988 17.4816 33.9308 17.25 33.8542C16.3599 33.5595 15.8246 32.9204 15.6457 32.0288C15.4652 31.1266 15.6818 30.0786 16.4892 29.8004C17.868 29.3253 18.2981 28.2427 18.8454 27.154C18.9115 27.0217 19.0423 26.924 19.113 26.7932C19.1792 26.6714 19.2423 26.5285 19.2453 26.3932C19.2934 24.7497 19.7746 24.1784 21.4271 23.8701C21.5399 24.1844 21.6571 24.5077 21.8015 24.9046ZM44.5031 32.734C46.124 32.734 47.6848 32.734 49.2245 32.734C49.2245 31.1191 49.2245 29.5583 49.2245 28.0111C47.6216 28.0111 46.0789 28.0111 44.5031 28.0111C44.5031 29.5944 44.5031 31.1371 44.5031 32.734ZM44.5227 43.6427C44.5227 45.2636 44.5227 46.8244 44.5227 48.3641C46.1376 48.3641 47.6983 48.3641 49.244 48.3641C49.244 46.7612 49.244 45.217 49.244 43.6427C47.6622 43.6427 46.1195 43.6427 44.5227 43.6427ZM36.3896 20.7937C34.9927 20.7937 33.7492 20.7937 32.4862 20.7937C32.4862 22.3936 32.4862 23.9543 32.4862 25.5166C34.0936 25.5166 35.6543 25.5166 37.1865 25.5166C37.1865 24.2701 37.1865 23.0762 37.1865 21.75C36.3731 22.786 35.6528 23.7017 35.0273 24.5001C34.4514 23.9558 33.8981 23.4326 33.3914 22.9544C33.5869 22.7063 33.7989 22.4387 34.0259 22.1515C34.3236 22.4146 34.5447 22.6086 34.8033 22.8356C35.3175 22.1725 35.8182 21.5305 36.3896 20.7937ZM32.4817 34.0211C32.4817 35.6525 32.4817 37.1952 32.4817 38.753C34.0846 38.753 35.6453 38.753 37.1895 38.753C37.1895 37.505 37.1895 36.3066 37.1895 34.9759C36.3776 36.0104 35.6558 36.9306 35.0168 37.7425C34.4424 37.2057 33.8846 36.6825 33.3959 36.2269C33.5929 35.9577 33.7959 35.6781 34.0154 35.3773C34.3161 35.6405 34.5371 35.8344 34.8033 36.0675C35.319 35.3999 35.8242 34.7443 36.3821 34.0211C34.9988 34.0211 33.7583 34.0211 32.4817 34.0211ZM39.2555 51.0962C40.2719 50.7819 41.0283 50.1609 41.1275 49.1941C41.2358 48.1431 41.8643 47.6439 42.598 47.1296C42.7815 47.0018 42.995 46.8755 43.1003 46.6936C43.195 46.5297 43.2446 46.2395 43.1604 46.0996C43.0732 45.9553 42.7935 45.8515 42.6056 45.8636C42.4011 45.8756 42.1996 46.0305 42.0056 46.1402C41.0809 46.6605 40.1577 47.1868 39.1969 47.7326C38.9803 47.3461 38.8029 47.0319 38.627 46.7176C38.9924 46.4816 39.2976 46.2846 39.6329 46.0666C38.648 45.6049 37.9624 46.0305 37.8406 47.0063C37.6421 48.6197 38.7232 49.7414 39.2555 51.0962ZM28.9377 46.6139C27.2641 44.1585 25.2027 42.6218 22.5533 41.7572C22.5924 43.0713 22.5819 43.133 23.7171 43.3375C24.729 43.5194 25.3996 43.9329 25.541 45.0215C25.5681 45.229 25.75 45.5177 25.9289 45.5854C26.8521 45.9388 27.7964 46.232 28.9377 46.6139ZM46.2308 23.416C46.533 23.0386 46.8578 22.8071 46.8322 22.6236C46.7977 22.3831 46.5195 22.0778 46.2834 22.0056C46.1451 21.9635 45.7346 22.3124 45.7196 22.5063C45.7015 22.7379 45.9752 22.992 46.2308 23.416ZM36.3069 29.7929C35.9145 29.5012 35.6709 29.1869 35.4919 29.22C35.2529 29.2651 34.9582 29.5523 34.895 29.7899C34.8589 29.9282 35.2213 30.3252 35.4153 30.3327C35.6483 30.3432 35.8934 30.062 36.3069 29.7929ZM46.2729 37.338C45.9977 37.7485 45.712 37.9891 45.7196 38.2207C45.7241 38.4161 46.115 38.786 46.2518 38.7515C46.4909 38.6913 46.7826 38.4026 46.8322 38.165C46.8698 37.9876 46.5586 37.738 46.2729 37.338ZM25.2448 35.224C25.5696 35.5908 25.774 35.8224 26.0462 36.1291C26.1725 35.7743 26.2597 35.5262 26.3665 35.224C26.0056 35.224 25.7169 35.224 25.2448 35.224Z" fill="#3D3D63"/>
<path d="M46.246 54.4055C45.8611 54.4055 45.5227 54.4055 45.1333 54.4055C45.1333 54.0371 45.1333 53.6808 45.1333 53.2793C45.4957 53.2793 45.852 53.2793 46.246 53.2793C46.246 53.6447 46.246 53.983 46.246 54.4055Z" fill="#3D3D63"/>
<path d="M48.6548 53.2764C48.6548 53.6493 48.6548 53.9891 48.6548 54.3815C48.2985 54.3815 47.9421 54.3815 47.5361 54.3815C47.5361 54.0312 47.5361 53.6748 47.5361 53.2764C47.8895 53.2764 48.2278 53.2764 48.6548 53.2764Z" fill="#3D3D63"/>
<path d="M51.0351 54.4086C50.6637 54.4086 50.3239 54.4086 49.9404 54.4086C49.9404 54.0267 49.9404 53.6704 49.9404 53.2749C50.2983 53.2749 50.6381 53.2749 51.0351 53.2749C51.0351 53.6162 51.0351 53.9726 51.0351 54.4086Z" fill="#3D3D63"/>
<path d="M23.4703 29.1938C23.8718 29.1938 24.1936 29.1938 24.5168 29.1938C24.4732 29.2375 24.4311 29.2826 24.3875 29.3262C24.6807 29.675 24.9739 30.0238 25.2656 30.3712C25.5213 30.0389 25.7754 29.7081 26.031 29.3758C25.9814 29.3232 25.9317 29.2705 25.8806 29.2179C26.243 29.2179 26.6039 29.2179 26.9873 29.2179C27.1482 30.1126 26.9181 30.8268 26.1573 31.3094C25.5573 31.6899 24.9183 31.6914 24.3154 31.314C23.5485 30.8373 23.3305 30.1156 23.4703 29.1938Z" fill="#3D3D63"/>
</svg>
