<svg width="64" height="74" viewBox="0 0 64 74" fill="none" xmlns="http://www.w3.org/2000/svg">
<path fill-rule="evenodd" clip-rule="evenodd" d="M-6.88536e-06 18.5L32 2.79753e-06L64 18.5L64 55.5L32 74L-3.65071e-06 55.5L-6.88536e-06 18.5Z" fill="#DAF2FF"/>
<g clip-path="url(#clip0_31_1997)">
<path d="M33.433 49C28.8573 49 24.2816 49.0013 19.706 49C17.9638 49 17 48.0361 17 46.2949C17 39.4303 17 32.5658 17 25.7013C17.0013 23.9613 17.9651 23 19.7111 23C28.905 23 38.0989 23 47.2927 23C49.0362 23 49.9987 23.9626 49.9987 25.7051C50 32.5697 50 39.4342 49.9987 46.2974C49.9987 48.0361 49.0323 48.9987 47.2889 48.9987C42.6707 49.0013 38.0525 49 33.433 49ZM18.0205 28.7771C18.3259 28.7771 18.5991 28.7771 18.8736 28.7771C27.4863 28.7771 36.099 28.7758 44.7117 28.7822C45.1086 28.7822 45.7091 28.6188 45.6859 29.2725C45.6653 29.8555 45.097 29.7075 44.7143 29.7075C36.1016 29.7127 27.4889 29.7114 18.8761 29.7114C18.603 29.7114 18.3298 29.7114 17.9651 29.7114C17.9651 30.0344 17.9651 30.2841 17.9651 30.535C17.9651 35.7034 17.9651 40.873 17.9651 46.0413C17.9651 47.5934 18.4045 48.0374 19.9444 48.0374C28.9862 48.0387 38.0293 48.0387 47.0711 48.0374C48.5787 48.0374 49.0323 47.5857 49.0323 46.0877C49.0336 41.0905 49.0323 36.0933 49.0323 31.0961C49.0323 29.7513 49.0323 29.7513 47.718 29.7114C47.6535 29.7088 47.5672 29.7345 47.5285 29.7024C47.3546 29.5582 47.1935 29.3974 47.0273 29.2429C47.1935 29.0885 47.3378 28.8453 47.5298 28.8015C47.8571 28.7269 48.2141 28.759 48.5555 28.7835C48.9292 28.8105 49.0439 28.6497 49.0374 28.297C49.022 27.5249 49.0336 26.7527 49.0336 25.9805C49.0323 24.3938 48.6032 23.9652 47.008 23.9652C38.0087 23.9652 29.0094 23.9639 20.0101 23.9665C19.7098 23.9665 19.4057 23.9665 19.1119 24.0193C18.5269 24.1222 18.0734 24.4877 18.0412 25.0642C17.9742 26.2727 18.0205 27.4901 18.0205 28.7771Z" fill="#3D3D63"/>
<path d="M22.5148 37.4279C22.5148 36.2053 22.5071 34.9814 22.5174 33.7588C22.5251 32.7911 23.1346 32.1347 23.9773 32.1566C24.811 32.1785 25.3728 32.8129 25.3831 33.7524C25.3883 34.2028 25.4308 34.661 25.3638 35.1011C25.3303 35.3199 25.0894 35.5065 24.9425 35.7086C24.7775 35.5026 24.5108 35.3135 24.4708 35.0857C24.3935 34.6481 24.4953 34.1797 24.4232 33.7408C24.3884 33.5285 24.1268 33.3522 23.9683 33.1604C23.7956 33.3599 23.4774 33.5581 23.4748 33.7588C23.4426 36.204 23.3756 38.6544 23.4825 41.0944C23.592 43.6194 26.548 45.2731 29.0774 44.331C30.835 43.676 31.7164 42.4277 31.7203 40.5706C31.7241 38.3391 31.728 36.1075 31.71 33.8772C31.7087 33.6495 31.6211 33.3342 31.4587 33.2145C31.1237 32.9674 30.7887 33.2724 30.7874 33.8168C30.7809 36.0264 30.7861 38.2361 30.7848 40.4458C30.7835 42.0699 30.0426 43.048 28.4744 43.4971C27.1124 43.8883 25.5159 43.3259 24.8033 42.1522C24.6126 41.8369 24.4889 41.4354 24.4747 41.0674C24.4296 39.9323 24.4528 38.7933 24.4502 37.657C24.4489 37.3365 24.4863 37.0264 24.9077 37.0277C25.3625 37.0289 25.3896 37.3584 25.3883 37.7046C25.3844 38.6054 25.387 39.5063 25.387 40.4084C25.3883 41.7481 26.2658 42.6747 27.5376 42.6786C28.9099 42.6825 29.7874 41.7906 29.7887 40.3879C29.79 38.2001 29.7784 36.011 29.7939 33.8232C29.8029 32.6045 30.8041 31.8066 31.7718 32.3059C32.17 32.5118 32.6532 33.042 32.6622 33.4358C32.7266 36.1139 32.8104 38.8049 32.6158 41.4715C32.4638 43.5679 30.6392 45.1289 28.437 45.5021C25.8187 45.9449 23.0844 44.2705 22.6269 41.7945C22.4156 40.6504 22.5419 39.4445 22.5174 38.2657C22.5097 37.9851 22.5148 37.7059 22.5148 37.4279Z" fill="#3D3D63"/>
<path d="M39.0884 41.012C38.171 42.3105 37.3089 43.5357 36.4404 44.7583C35.8464 45.5935 35.0037 45.7956 34.2821 45.2885C33.5734 44.7905 33.4897 43.9218 34.0798 43.0801C35.0514 41.6928 36.0165 40.3003 37.0151 38.9336C37.2651 38.5913 37.2445 38.3635 37.0087 38.0392C36.1892 36.9118 35.3929 35.769 34.5965 34.6249C34.0167 33.7923 34.121 32.912 34.8413 32.4217C35.5552 31.9352 36.3631 32.127 36.9507 32.9429C37.6504 33.9158 38.3346 34.8991 39.0884 35.9672C39.8165 34.9415 40.4981 33.9725 41.1914 33.0098C41.3396 32.8039 41.498 32.5864 41.6991 32.4397C42.2686 32.0228 43.0276 32.0923 43.5301 32.5684C44.0301 33.0433 44.128 33.8348 43.7066 34.4499C42.8832 35.6532 42.0328 36.8372 41.1939 38.0302C41.096 38.1705 41.0007 38.312 40.877 38.4922C41.1282 38.8551 41.4285 39.1962 41.6102 39.5925C41.7094 39.8074 41.6063 40.115 41.5947 40.3814C41.3434 40.3042 40.98 40.3068 40.8602 40.1369C39.5227 38.2515 39.542 38.7277 40.7494 36.9736C41.4182 36.002 42.1101 35.0471 42.7918 34.0857C42.9902 33.8065 43.1616 33.5053 42.7995 33.2492C42.449 33.0021 42.2029 33.2312 42.0019 33.5169C41.2983 34.5156 40.6012 35.5207 39.8886 36.5129C39.3449 37.2696 38.8178 37.2567 38.2715 36.4884C37.5757 35.5104 36.8824 34.5297 36.1969 33.5439C35.9791 33.2312 35.7253 32.9867 35.3568 33.2659C35.0076 33.5311 35.2099 33.8309 35.4057 34.1063C36.2613 35.3135 37.0989 36.5335 37.9713 37.7278C38.354 38.2528 38.3746 38.7007 37.9816 39.2386C36.97 40.6234 35.9972 42.0364 35.0102 43.4392C34.9367 43.5447 34.8091 43.6464 34.8014 43.7571C34.7847 44.0003 34.8285 44.2487 34.8465 44.4945C35.0849 44.4366 35.4225 44.4584 35.5449 44.3079C36.0577 43.6773 36.5075 42.9952 36.9778 42.3298C37.4223 41.6992 37.8566 41.0609 38.3089 40.4355C38.7972 39.7611 39.3771 39.7611 39.8577 40.4355C40.6785 41.5873 41.489 42.7481 42.3034 43.9051C42.4026 44.0453 42.4748 44.2397 42.6114 44.3092C42.8253 44.4185 43.0817 44.4417 43.3201 44.5022C43.3445 44.2577 43.4721 43.9565 43.3742 43.7802C43.083 43.259 42.7054 42.7854 42.3562 42.2977C42.1526 42.0133 41.9993 41.7083 42.3717 41.4689C42.7248 41.2424 42.9696 41.474 43.168 41.7623C43.5095 42.2565 43.8651 42.7404 44.195 43.241C44.6782 43.9746 44.5429 44.8149 43.8819 45.2885C43.2183 45.7647 42.3691 45.6308 41.8434 44.9102C40.9246 43.6425 40.0368 42.3556 39.0884 41.012Z" fill="#3D3D63"/>
<path d="M39.7237 24.9149C41.9117 24.9149 44.0996 24.9124 46.2876 24.9162C47.2824 24.9175 47.9189 25.4683 47.9331 26.3241C47.9473 27.1748 47.3017 27.7745 46.3301 27.7758C41.9117 27.781 37.4919 27.781 33.0734 27.7758C32.3248 27.7745 31.7669 27.3846 31.589 26.781C31.4061 26.1581 31.6212 25.4748 32.1882 25.1569C32.4691 24.9999 32.8325 24.9278 33.1598 24.9252C35.3478 24.9059 37.5357 24.9149 39.7237 24.9149ZM39.7585 25.848C37.6788 25.848 35.5977 25.848 33.518 25.848C33.3685 25.848 33.1881 25.7965 33.0747 25.8621C32.8595 25.9844 32.683 26.1749 32.4897 26.337C32.6766 26.5056 32.8531 26.6883 33.0567 26.8338C33.1276 26.8852 33.2654 26.8453 33.3724 26.8453C37.5976 26.8453 41.8215 26.8453 46.0467 26.8453C46.1755 26.8453 46.3366 26.8891 46.4255 26.8286C46.6149 26.6999 46.8907 26.5198 46.8958 26.3525C46.901 26.1916 46.633 25.9818 46.441 25.8686C46.3121 25.7926 46.1059 25.848 45.9346 25.848C43.8767 25.848 41.8176 25.848 39.7585 25.848Z" fill="#3D3D63"/>
<path d="M28.6382 27.7732C27.8458 27.7681 27.2079 27.1465 27.195 26.3653C27.1809 25.5648 27.8419 24.9124 28.6627 24.9175C29.4603 24.9227 30.0917 25.5378 30.1059 26.3254C30.1201 27.131 29.4655 27.7784 28.6382 27.7732ZM28.5983 25.6575C28.414 25.9998 28.2117 26.2096 28.2298 26.3962C28.2452 26.5519 28.5197 26.6832 28.6782 26.8248C28.8238 26.6459 29.0609 26.4786 29.0854 26.2855C29.1034 26.1401 28.847 25.9612 28.5983 25.6575Z" fill="#3D3D63"/>
<path d="M20.3954 27.7732C19.6003 27.7681 18.9638 27.1478 18.9509 26.364C18.9367 25.5623 19.5978 24.9124 20.4212 24.9175C21.2201 24.9227 21.8527 25.5391 21.8656 26.3267C21.8798 27.131 21.2213 27.7784 20.3954 27.7732ZM21.0732 26.355C20.7639 26.1195 20.5642 25.8621 20.4353 25.8943C20.2485 25.9406 20.0217 26.1787 19.9869 26.3666C19.9637 26.4914 20.2459 26.7952 20.3954 26.7964C20.5771 26.7977 20.7639 26.5699 21.0732 26.355Z" fill="#3D3D63"/>
<path d="M26.0252 26.328C26.0329 27.1336 25.4273 27.7603 24.6258 27.7732C23.8063 27.7861 23.1852 27.2005 23.1646 26.3949C23.144 25.5455 23.7483 24.9188 24.591 24.9175C25.3989 24.9175 26.0174 25.5249 26.0252 26.328ZM25.2804 26.3138C24.9363 26.1002 24.7379 25.8827 24.5524 25.893C24.3964 25.902 24.1168 26.2057 24.1413 26.328C24.18 26.5171 24.4196 26.7745 24.5962 26.7938C24.7611 26.8119 24.9557 26.5558 25.2804 26.3138Z" fill="#3D3D63"/>
</g>
<defs>
<clipPath id="clip0_31_1997">
<rect width="33" height="26" fill="white" transform="translate(17 23)"/>
</clipPath>
</defs>
</svg>
