<svg width="64" height="74" viewBox="0 0 64 74" fill="none" xmlns="http://www.w3.org/2000/svg">
<path fill-rule="evenodd" clip-rule="evenodd" d="M-6.88536e-06 18.5L32 2.79753e-06L64 18.5L64 55.5L32 74L-3.65071e-06 55.5L-6.88536e-06 18.5Z" fill="#DAF2FF"/>
<path d="M29.7265 44.8645C29.3969 44.8645 29.1479 44.8645 28.8989 44.8645C25.5148 44.8645 22.1321 44.8659 18.7479 44.8631C16.994 44.8617 16.0078 43.8672 16.0078 42.1007C16.0078 36.4466 16.0078 30.7925 16.0092 25.137C16.0092 23.3844 16.9968 22.376 18.7605 22.3746C27.5901 22.3676 36.4197 22.3676 45.2493 22.3746C47.0171 22.376 47.9991 23.3802 47.9991 25.1384C48.0005 30.7925 48.0005 36.448 47.9991 42.1021C47.9991 43.8672 47.0116 44.8617 45.2576 44.8631C41.8735 44.8659 38.4908 44.8645 35.1066 44.8645C34.8577 44.8645 34.6087 44.8645 34.286 44.8645C34.286 45.8089 34.2554 46.6866 34.311 47.5587C34.3222 47.7326 34.6351 47.9677 34.8521 48.0358C36.7479 48.627 38.6535 49.1833 40.5563 49.755C41.4687 50.029 41.427 50.1208 40.9207 50.9067C40.1042 52.1738 39.1389 52.5661 37.7675 51.8317C37.449 51.6606 37.0484 51.6536 36.709 51.5117C34.6921 50.6661 32.5724 50.5242 30.4429 50.7106C29.447 50.7982 28.4747 51.1765 27.4983 51.4492C26.6303 51.6912 25.7819 52.0055 24.9056 52.203C24.6399 52.2628 24.2407 52.1224 24.0265 51.9332C23.6148 51.5674 23.2977 51.0973 22.9318 50.6786C22.5577 50.2502 22.6564 50.0095 23.1947 49.8496C25.142 49.2696 27.0768 48.645 29.0311 48.0901C29.5763 47.9357 29.7808 47.7103 29.7404 47.1401C29.6862 46.4084 29.7265 45.6685 29.7265 44.8645ZM32.0382 23.1424C27.6109 23.1424 23.1836 23.1396 18.7563 23.1438C17.3695 23.1452 16.7269 23.792 16.7269 25.194C16.7227 30.8036 16.7241 36.4132 16.7269 42.0228C16.7283 43.4736 17.3987 44.1384 18.8606 44.1398C27.6221 44.1426 36.3849 44.1426 45.1463 44.1398C46.6082 44.1398 47.28 43.4736 47.2814 42.0242C47.2842 36.4383 47.2842 30.8509 47.2814 25.2649C47.2814 23.7725 46.6597 23.1452 45.1825 23.1452C40.8011 23.141 36.4197 23.1424 32.0382 23.1424ZM33.489 49.8788C33.489 48.161 33.489 46.5322 33.489 44.9201C32.4555 44.9201 31.4749 44.9201 30.5166 44.9201C30.5166 46.6073 30.5166 48.2389 30.5166 49.8788C31.532 49.8788 32.4973 49.8788 33.489 49.8788ZM34.3444 48.6617C34.2039 49.9915 34.2053 49.9887 35.2902 50.3128C36.3251 50.6216 37.3585 50.9387 38.3934 51.2475C39.5117 51.5827 39.6258 51.5312 40.1891 50.424C38.2515 49.8399 36.3237 49.2584 34.3444 48.6617ZM23.7928 50.4338C24.4827 51.5855 24.4939 51.591 25.6511 51.2433C26.6901 50.9317 27.7278 50.6104 28.7668 50.3002C29.8587 49.9748 29.8907 49.9219 29.618 48.6784C27.6763 49.264 25.7415 49.8468 23.7928 50.4338Z" fill="#3D3D63"/>
<path d="M32.0384 23.1419C36.4199 23.1419 40.8013 23.1406 45.1813 23.1433C46.6599 23.1447 47.2802 23.7706 47.2802 25.2631C47.283 30.8491 47.283 36.4364 47.2802 42.0224C47.2788 43.4731 46.607 44.138 45.1451 44.138C36.3837 44.1408 27.6209 44.1408 18.8594 44.138C17.3975 44.138 16.7271 43.4731 16.7257 42.021C16.7229 36.4114 16.7229 30.8018 16.7257 25.1922C16.7271 23.7915 17.3697 23.1447 18.7565 23.1433C23.1838 23.1406 27.6111 23.1419 32.0384 23.1419ZM32.0384 24.1379C27.6584 24.1379 23.2784 24.1379 18.897 24.1379C17.908 24.1379 17.7592 24.2783 17.7592 25.2562C17.7564 30.8421 17.755 36.4267 17.7592 42.0127C17.7592 42.9515 17.9136 43.099 18.8622 43.099C27.6222 43.1018 36.3837 43.1018 45.1438 43.099C46.0938 43.099 46.2468 42.9515 46.2468 42.0127C46.2509 36.4267 46.2509 30.8421 46.2468 25.2562C46.2468 24.2783 46.0965 24.1379 45.1076 24.1379C40.7526 24.1379 36.3948 24.1379 32.0384 24.1379Z" fill="white"/>
<path d="M33.489 49.8793C32.4959 49.8793 31.532 49.8793 30.5166 49.8793C30.5166 48.2394 30.5166 46.6078 30.5166 44.9207C31.4736 44.9207 32.4556 44.9207 33.489 44.9207C33.489 46.5313 33.489 48.1615 33.489 49.8793Z" fill="white"/>
<path d="M34.3445 48.6614C36.3252 49.2581 38.2531 49.8395 40.1892 50.4237C39.6245 51.5309 39.5118 51.5823 38.3935 51.2471C37.3587 50.9369 36.3252 50.6212 35.2904 50.3124C34.2055 49.9883 34.2041 49.9911 34.3445 48.6614Z" fill="white"/>
<path d="M23.793 50.4341C25.743 49.8472 27.6778 49.2644 29.6182 48.6802C29.8908 49.9237 29.8588 49.9765 28.7669 50.302C27.7265 50.6122 26.6903 50.9321 25.6512 51.245C24.4926 51.5914 24.4829 51.5844 23.793 50.4341Z" fill="white"/>
<path d="M32.0384 24.1382C36.3962 24.1382 40.7526 24.1382 45.1103 24.1382C46.0993 24.1382 46.2481 24.2787 46.2495 25.2565C46.2523 30.8425 46.2537 36.427 46.2495 42.013C46.2495 42.9533 46.0965 43.0993 45.1465 43.0993C36.3864 43.1021 27.625 43.1021 18.8649 43.0993C17.9149 43.0993 17.7619 42.9519 17.7619 42.013C17.7577 36.427 17.7577 30.8425 17.7619 25.2565C17.7619 24.2773 17.9121 24.1382 18.8997 24.1382C23.2769 24.1382 27.6584 24.1382 32.0384 24.1382ZM45.4692 24.9018C36.4532 24.9018 27.5012 24.9018 18.5381 24.9018C18.5381 30.734 18.5381 36.516 18.5381 42.3329C27.5276 42.3329 36.4796 42.3329 45.4692 42.3329C45.4692 36.516 45.4692 30.734 45.4692 24.9018Z" fill="#3D3D63"/>
<path d="M35.3196 32.7698C35.3168 32.7698 35.3154 32.7698 35.3127 32.7698C35.3127 32.1676 35.3405 31.5639 35.2932 30.9658C35.2807 30.8059 35.0373 30.6654 34.8982 30.5151C34.7827 30.6626 34.5699 30.8086 34.5671 30.9575C34.549 32.1592 34.5004 33.3693 34.6019 34.5641C34.7132 35.8869 35.8607 36.8369 37.0944 36.7813C38.3685 36.7242 39.4117 35.7409 39.4813 34.425C39.5411 33.2942 39.5049 32.1578 39.4882 31.0228C39.4855 30.8629 39.3811 30.6751 39.2657 30.5583C39.2073 30.4998 38.936 30.5318 38.9013 30.5986C38.8081 30.7697 38.7552 30.9825 38.7524 31.18C38.7344 32.2441 38.7705 33.3109 38.7204 34.3736C38.6731 35.3862 37.9067 36.0608 36.9484 36.0218C36.0165 35.9843 35.3502 35.286 35.3224 34.2985C35.3071 33.788 35.3196 33.2789 35.3196 32.7698ZM24.9099 32.7879C24.9099 32.2566 24.9475 31.7197 24.8932 31.1939C24.8682 30.9575 24.6568 30.7419 24.5288 30.5165C24.4175 30.7321 24.2186 30.9449 24.2117 31.1647C24.1769 32.1815 24.2159 33.1996 24.1894 34.2164C24.1602 35.2985 23.398 36.0469 22.4035 36.0204C21.4173 35.9926 20.7455 35.2624 20.7385 34.1886C20.7302 33.1482 20.7552 32.1064 20.7191 31.0673C20.7121 30.8796 20.4854 30.7001 20.3616 30.5165C20.2461 30.7043 20.0347 30.8893 20.0292 31.0799C19.9986 32.1884 19.993 33.2998 20.025 34.4097C20.0625 35.7562 21.2031 36.8258 22.505 36.7841C23.8459 36.7409 24.8849 35.6783 24.9085 34.3166C24.9169 33.8061 24.9099 33.297 24.9099 32.7879ZM27.8253 32.9034C27.351 32.1328 26.9643 31.4554 26.5206 30.8184C26.4163 30.6695 26.1214 30.6529 25.9142 30.575C25.9114 30.778 25.8335 31.0242 25.9183 31.1786C26.2967 31.8657 26.7028 32.5403 27.1382 33.1941C27.351 33.514 27.3357 33.7574 27.1326 34.0676C26.7265 34.6851 26.3328 35.3138 25.9837 35.9634C25.8794 36.1568 25.9406 36.4391 25.9267 36.6811C26.152 36.5629 26.4552 36.4989 26.5874 36.3139C27.02 35.7089 27.3899 35.0579 27.8281 34.3541C28.2523 35.0468 28.5875 35.6546 28.9853 36.2152C29.1397 36.4322 29.5459 36.7354 29.6558 36.6742C30.1342 36.4071 29.7323 36.0858 29.5807 35.816C29.2635 35.2526 28.9436 34.6865 28.5681 34.1622C28.2787 33.7588 28.3163 33.4458 28.5861 33.0592C28.9547 32.5292 29.2983 31.9756 29.5918 31.4012C29.7128 31.1633 29.6752 30.8448 29.71 30.5624C29.468 30.7085 29.1495 30.8003 28.9979 31.0117C28.5945 31.5709 28.2634 32.1829 27.8253 32.9034ZM42.6345 31.2245C42.9642 31.2245 43.2284 31.269 43.4663 31.2106C43.6527 31.1647 43.8071 30.9895 43.9754 30.8712C43.7987 30.7419 43.6276 30.5096 43.4454 30.4998C42.6595 30.4581 41.8695 30.4581 41.085 30.4985C40.8861 30.5082 40.6956 30.7182 40.5022 30.8365C40.7095 30.9672 40.9028 31.1438 41.1281 31.2134C41.3354 31.2774 41.5774 31.2273 41.8417 31.2273C41.8417 32.8436 41.8417 34.4056 41.8417 36.0135C41.5162 36.0274 41.2102 36.0024 40.9265 36.0691C40.7651 36.1081 40.6399 36.2986 40.4994 36.421C40.6455 36.5434 40.7874 36.7646 40.9362 36.7701C41.8153 36.8021 42.6971 36.8021 43.5748 36.7674C43.7125 36.7618 43.8404 36.5267 43.974 36.3974C43.8307 36.2819 43.7027 36.1025 43.5428 36.0649C43.2604 35.9996 42.9572 36.0204 42.6331 36.0037C42.6345 34.4 42.6345 32.8575 42.6345 31.2245ZM33.5977 29.0547C33.5281 28.9684 33.4141 28.7292 33.3264 28.7375C33.1609 28.7556 32.9856 28.8933 32.8632 29.0255C32.7798 29.1159 32.777 29.2828 32.7408 29.4163C32.0023 32.1773 31.2539 34.9355 30.5404 37.7035C30.4736 37.9594 30.6294 38.2737 30.6809 38.5603C30.8659 38.3419 31.0536 38.1235 31.2359 37.9024C31.2637 37.869 31.2706 37.8175 31.2832 37.773C32.0064 35.0551 32.7297 32.3387 33.453 29.6208C33.4947 29.465 33.5337 29.3092 33.5977 29.0547Z" fill="white"/>
<path d="M35.3196 32.7707C35.3196 33.2798 35.3071 33.7889 35.3224 34.298C35.3516 35.2855 36.0165 35.9838 36.9484 36.0213C37.9053 36.0603 38.6717 35.3871 38.7204 34.3731C38.7705 33.3104 38.7343 32.2436 38.7524 31.1795C38.7552 30.982 38.808 30.7692 38.9012 30.5981C38.9374 30.5313 39.2086 30.4993 39.2657 30.5578C39.3825 30.6732 39.4868 30.8624 39.4882 31.0223C39.5049 32.1559 39.5411 33.2923 39.4813 34.4245C39.4117 35.7418 38.3685 36.7237 37.0944 36.7808C35.8607 36.8364 34.7132 35.8864 34.6019 34.5636C34.5017 33.3688 34.5504 32.1601 34.5671 30.957C34.5699 30.8081 34.7827 30.6621 34.8981 30.5146C35.0358 30.6649 35.2793 30.8054 35.2932 30.9653C35.3405 31.5634 35.3126 32.1671 35.3126 32.7693C35.3154 32.7707 35.3168 32.7707 35.3196 32.7707Z" fill="#3D3D63"/>
<path d="M24.9099 32.7888C24.9099 33.2979 24.9168 33.807 24.9085 34.3147C24.8848 35.6764 23.8458 36.7404 22.505 36.7822C21.2031 36.8239 20.0625 35.7543 20.0249 34.4079C19.993 33.2979 19.9985 32.1879 20.0291 31.078C20.0347 30.8874 20.2447 30.7024 20.3615 30.5146C20.4867 30.6983 20.7135 30.8791 20.719 31.0655C20.7538 32.1073 20.7288 33.1477 20.7371 34.1895C20.7454 35.2647 21.4159 35.9949 22.402 36.0213C23.3966 36.0491 24.1588 35.3008 24.188 34.2173C24.2144 33.2005 24.1755 32.181 24.2102 31.1656C24.2172 30.9458 24.4175 30.733 24.5274 30.5174C24.654 30.7428 24.8668 30.9584 24.8918 31.1948C24.9488 31.7206 24.9099 32.2561 24.9099 32.7888Z" fill="#3D3D63"/>
<path d="M27.8249 32.9037C28.2631 32.1832 28.5941 31.5712 28.9975 31.012C29.1491 30.8006 29.4676 30.7088 29.7096 30.5627C29.6749 30.8451 29.7124 31.1636 29.5914 31.4015C29.2979 31.9759 28.9544 32.5295 28.5858 33.0595C28.3159 33.4461 28.2784 33.7605 28.5677 34.1625C28.9432 34.6868 29.2645 35.253 29.5817 35.8163C29.7333 36.0861 30.1353 36.4074 29.6568 36.6745C29.5469 36.7357 29.1407 36.4325 28.9864 36.2155C28.5872 35.6535 28.2519 35.0471 27.8291 34.3544C27.391 35.0582 27.021 35.7078 26.5884 36.3142C26.4563 36.4992 26.153 36.5618 25.9277 36.6814C25.9416 36.4394 25.8804 36.1584 25.9847 35.9637C26.3339 35.3128 26.7275 34.6855 27.1336 34.0679C27.3367 33.7591 27.3534 33.5143 27.1392 33.1944C26.7038 32.5406 26.2977 31.8674 25.9194 31.1789C25.8345 31.0231 25.9124 30.7783 25.9152 30.5753C26.1224 30.6532 26.4173 30.6685 26.5216 30.8187C26.9639 31.4557 27.3506 32.1331 27.8249 32.9037Z" fill="#3D3D63"/>
<path d="M42.6342 31.2246C42.6342 32.859 42.6342 34.4001 42.6342 36.0038C42.9583 36.0205 43.2615 35.9983 43.5438 36.065C43.7052 36.1026 43.8332 36.282 43.975 36.3975C43.8415 36.5268 43.7135 36.7619 43.5758 36.7675C42.6968 36.8022 41.8163 36.8036 40.9372 36.7702C40.787 36.7647 40.6451 36.5435 40.5005 36.4211C40.641 36.2987 40.7662 36.1068 40.9275 36.0692C41.2113 36.0011 41.5173 36.0275 41.8427 36.0136C41.8427 34.4043 41.8427 32.8437 41.8427 31.2274C41.5785 31.2274 41.335 31.2775 41.1292 31.2135C40.9039 31.1426 40.7105 30.9659 40.5033 30.8365C40.698 30.7183 40.8872 30.5097 41.0861 30.4986C41.8719 30.4596 42.662 30.4582 43.4465 30.4999C43.6287 30.5097 43.7998 30.742 43.9764 30.8713C43.8081 30.9895 43.6537 31.1648 43.4673 31.2107C43.2267 31.2691 42.9624 31.2246 42.6342 31.2246Z" fill="#3D3D63"/>
<path d="M33.5975 29.0554C33.5322 29.3085 33.4946 29.4657 33.4529 29.6215C32.7296 32.3394 32.0063 35.0558 31.283 37.7737C31.2705 37.8182 31.2636 37.8697 31.2358 37.9031C31.0535 38.1242 30.8658 38.3426 30.6808 38.561C30.6293 38.2744 30.4735 37.9615 30.5403 37.7042C31.2538 34.9362 32.0022 32.178 32.7407 29.417C32.7769 29.2835 32.7797 29.1166 32.8631 29.0262C32.9855 28.894 33.1608 28.7563 33.3263 28.7383C33.4153 28.7299 33.5294 28.9691 33.5975 29.0554Z" fill="#3D3D63"/>
</svg>
