<svg width="64" height="74" viewBox="0 0 64 74" fill="none" xmlns="http://www.w3.org/2000/svg">
<path fill-rule="evenodd" clip-rule="evenodd" d="M-6.88536e-06 18.5L32 2.79753e-06L64 18.5L64 55.5L32 74L-3.65071e-06 55.5L-6.88536e-06 18.5Z" fill="#DAF2FF"/>
<g clip-path="url(#clip0_31_2095)">
<path d="M28.4519 50.7881C28.4519 49.6953 28.4519 48.6729 28.4519 47.5464C28.2058 47.5464 27.9597 47.5464 27.7121 47.5464C24.3847 47.5464 21.0573 47.5478 17.7312 47.545C15.4951 47.5436 14.0015 46.0402 14.0015 43.7914C14.0001 36.785 14.0001 29.7785 14.0015 22.7734C14.0015 20.4867 15.4909 19.0015 17.7847 19.0015C27.2734 19.0001 36.7635 19.0001 46.2522 19.0015C48.4967 19.0015 49.9973 20.4993 49.9987 22.7396C50.0001 29.7686 50.0015 36.7976 49.9987 43.828C49.9973 46.029 48.4925 47.5436 46.3028 47.545C42.7433 47.5492 39.1824 47.5464 35.5681 47.5464C35.5681 48.6139 35.5681 49.6518 35.5681 50.7121C36.1025 50.7853 36.6678 50.7937 37.1924 50.947C38.6367 51.3717 39.4426 52.4026 39.7112 53.854C39.8575 54.6457 39.5424 54.9973 38.7324 54.9973C34.2334 55.0015 29.7345 55.0015 25.2355 54.9973C24.462 54.9959 24.192 54.6668 24.2891 53.8905C24.5028 52.179 25.9331 50.864 27.6657 50.7895C27.9175 50.7782 28.1678 50.7881 28.4519 50.7881ZM38.3302 40.5174C38.3302 40.1898 38.3302 39.9366 38.3302 39.6849C38.3302 34.7162 38.3302 29.7475 38.3302 24.7789C38.3302 23.824 38.5144 23.6425 39.4806 23.6411C41.0515 23.6397 42.621 23.6397 44.1919 23.6411C45.1918 23.6425 45.3577 23.8113 45.3577 24.8351C45.3591 29.8038 45.3577 34.7725 45.3577 39.7411C45.3577 39.9887 45.3577 40.2348 45.3577 40.4837C46.4814 40.4837 47.5038 40.4837 48.5966 40.4837C48.5966 40.2235 48.5966 39.9957 48.5966 39.7679C48.5966 34.1663 48.5966 28.5648 48.5966 22.9647C48.5966 21.1856 47.8104 20.4023 46.0258 20.4023C36.6749 20.4009 27.324 20.4009 17.9731 20.4023C16.1898 20.4023 15.4037 21.1856 15.4037 22.9661C15.4023 28.5676 15.4037 34.1691 15.4037 39.7693C15.4037 39.9971 15.4037 40.2235 15.4037 40.4724C16.5147 40.4724 17.554 40.4724 18.6425 40.4724C18.6425 40.1757 18.6425 39.9211 18.6425 39.668C18.6425 36.5979 18.6327 33.5278 18.6552 30.4578C18.658 30.0555 18.755 29.6196 18.928 29.2567C19.7029 27.6338 20.5046 26.0221 21.3413 24.4301C21.5073 24.1151 21.8631 23.71 22.143 23.7016C22.413 23.6932 22.7941 24.0926 22.9572 24.402C23.8053 26.0151 24.6125 27.6493 25.4001 29.2919C25.5646 29.6336 25.656 30.0443 25.6589 30.4254C25.6785 33.5194 25.6701 36.612 25.6701 39.706C25.6701 39.9563 25.6701 40.2066 25.6701 40.4696C26.881 40.4696 28.0131 40.4696 29.0608 40.4696C29.3013 37.9255 29.5418 35.4377 29.7598 32.9456C29.7767 32.7459 29.6895 32.4899 29.5615 32.331C28.4266 30.9134 28.2888 29.5633 29.1776 27.9797C29.9004 26.6957 30.643 25.4216 31.3898 24.1516C31.8257 23.4119 32.4009 23.3964 32.8285 24.1221C33.6118 25.4525 34.3952 26.7843 35.1363 28.1373C35.9829 29.6843 35.7453 31.1666 34.5428 32.4548C34.3783 32.6306 34.2559 32.94 34.2742 33.1762C34.3952 34.7612 34.5696 36.342 34.7046 37.9269C34.7777 38.7792 34.8058 39.6371 34.855 40.5132C35.1771 40.5132 35.4345 40.5132 35.6904 40.5132C36.5342 40.5174 37.3766 40.5174 38.3302 40.5174ZM15.4023 41.9491C15.4023 42.5426 15.4023 43.0559 15.4023 43.5707C15.4051 45.3567 16.1856 46.1429 17.9619 46.1429C25.0837 46.1443 32.2055 46.1429 39.3273 46.1429C41.6703 46.1429 44.0133 46.1499 46.3549 46.1401C47.4729 46.1359 48.3449 45.541 48.5052 44.5073C48.6346 43.6733 48.5319 42.8042 48.5319 41.9491C37.4892 41.9491 26.4858 41.9491 15.4023 41.9491ZM43.9106 37.685C43.9106 36.7568 43.9106 35.8357 43.9106 34.9089C43.3241 34.8667 42.5886 35.0073 42.583 34.1959C42.5774 33.352 43.3607 33.525 43.9176 33.4589C43.9176 32.7501 43.9176 32.0821 43.9176 31.3845C43.341 31.3578 42.6069 31.4942 42.583 30.7025C42.5577 29.8446 43.3368 30.0049 43.919 29.9444C43.919 29.2539 43.919 28.5859 43.919 27.8715C43.3593 27.8433 42.6238 27.9755 42.583 27.2077C42.5352 26.3076 43.3691 26.5031 43.9036 26.4299C43.9036 25.9349 43.9036 25.506 43.9036 25.0798C42.5 25.0798 41.1499 25.0798 39.7773 25.0798C39.7773 30.2327 39.7773 35.3505 39.7773 40.4668C41.1893 40.4668 42.5577 40.4668 43.9247 40.4668C43.9247 40.0013 43.9247 39.585 43.9247 39.1336C43.3551 39.0703 42.5731 39.2362 42.583 38.3924C42.5914 37.5838 43.3284 37.7286 43.9106 37.685ZM32.1183 25.6944C31.439 26.8772 30.8061 27.9165 30.2366 28.9895C29.7584 29.8924 30.027 30.9134 30.8371 31.5674C31.5614 32.1524 32.5697 32.1848 33.3137 31.6447C34.1364 31.0484 34.4894 29.9824 34.0394 29.0964C33.4726 27.9755 32.8074 26.9039 32.1183 25.6944ZM25.829 53.5403C29.9792 53.5403 34.0534 53.5403 38.1755 53.5403C37.755 52.6164 37.0771 52.1944 36.1545 52.1916C33.3896 52.1804 30.6261 52.1818 27.8612 52.1902C26.9344 52.193 26.258 52.615 25.829 53.5403ZM21.4046 40.4865C21.4046 37.1858 21.4046 33.9455 21.4046 30.7011C20.9419 30.7011 20.5285 30.7011 20.0812 30.7011C20.0812 33.9737 20.0812 37.2153 20.0812 40.4865C20.5313 40.4865 20.9447 40.4865 21.4046 40.4865ZM24.2272 40.4823C24.2272 37.2055 24.2272 33.9652 24.2272 30.7165C23.7561 30.7165 23.3271 30.7165 22.9094 30.7165C22.9094 34.006 22.9094 37.2477 22.9094 40.4823C23.3749 40.4823 23.7884 40.4823 24.2272 40.4823ZM34.052 50.7684C34.052 49.7094 34.052 48.6546 34.052 47.5928C32.6611 47.5928 31.2955 47.5928 29.9426 47.5928C29.9426 48.68 29.9426 49.7179 29.9426 50.7684C31.3293 50.7684 32.6611 50.7684 34.052 50.7684ZM32.9058 33.3956C32.2434 33.3956 31.7175 33.3956 31.1113 33.3956C30.9636 34.8062 30.8174 36.2112 30.6669 37.6527C31.6049 37.6527 32.4291 37.6527 33.3376 37.6527C33.1913 36.207 33.0507 34.8189 32.9058 33.3956ZM23.8179 29.2469C23.2484 28.1119 22.728 27.0755 22.15 25.9236C21.5551 27.1205 21.0418 28.1541 20.5003 29.2469C21.6367 29.2469 22.6605 29.2469 23.8179 29.2469ZM30.6303 40.4738C31.5614 40.4738 32.4586 40.4738 33.3432 40.4738C33.3432 39.9999 33.3432 39.571 33.3432 39.1603C32.4052 39.1603 31.5276 39.1603 30.6303 39.1603C30.6303 39.6244 30.6303 40.0365 30.6303 40.4738Z" fill="#3D3D63"/>
<path d="M31.3584 44.7322C30.6806 44.7322 30.0027 44.7308 29.3248 44.7322C28.8635 44.7336 28.5204 44.5269 28.5077 44.0572C28.4937 43.5438 28.8495 43.3301 29.3403 43.3301C30.6496 43.3301 31.9589 43.3315 33.2683 43.3301C33.7295 43.3301 34.0727 43.5354 34.0854 44.0051C34.0994 44.5185 33.7436 44.7336 33.2528 44.7322C32.6213 44.7322 31.9899 44.7322 31.3584 44.7322Z" fill="#3D3D63"/>
<path d="M37.212 44.1078C36.7226 44.3919 36.4202 44.7084 36.1572 44.6788C35.9237 44.6535 35.5272 44.1852 35.5736 44.0122C35.6467 43.7436 36.0166 43.4173 36.2922 43.385C36.5088 43.3597 36.7718 43.7422 37.212 44.1078Z" fill="#3D3D63"/>
</g>
<defs>
<clipPath id="clip0_31_2095">
<rect width="36" height="36" fill="white" transform="translate(14 19)"/>
</clipPath>
</defs>
</svg>
