<svg width="64" height="74" viewBox="0 0 64 74" fill="none" xmlns="http://www.w3.org/2000/svg">
<path fill-rule="evenodd" clip-rule="evenodd" d="M-6.88536e-06 18.5L32 2.79753e-06L64 18.5L64 55.5L32 74L-3.65071e-06 55.5L-6.88536e-06 18.5Z" fill="#DAF2FF"/>
<g clip-path="url(#clip0_31_2059)">
<path d="M33.2303 31.3268C33.2303 31.9959 33.1998 32.5714 33.2396 33.1429C33.2728 33.6247 33.5623 33.9152 34.0668 33.9192C34.9073 33.9245 35.7491 33.9379 36.5896 33.9085C36.7688 33.9018 36.9932 33.7626 37.1074 33.6127C37.5177 33.0747 38.0488 32.8686 38.6835 33.0051C39.3062 33.1376 39.6859 33.5819 39.7988 34.1962C39.913 34.8199 39.6514 35.3111 39.1548 35.7059C38.9928 35.8344 38.8508 36.082 38.8362 36.2854C38.7937 36.8623 38.8428 37.4458 38.8149 38.024C38.7937 38.4589 38.9981 38.5473 39.3739 38.5419C40.4361 38.5272 41.4983 38.5272 42.5605 38.5406C43.9149 38.5566 44.5761 39.2405 44.5894 40.6191C44.596 41.2642 44.5907 41.9079 44.5907 42.6681C45.2585 42.6681 45.8892 42.6654 46.5199 42.6681C48.2287 42.6748 49.0002 43.447 49.0002 45.1481C49.0002 47.3337 49.0028 49.5206 48.9988 51.7061C48.9962 53.1556 48.1717 53.9921 46.7403 53.9948C44.9478 53.9988 43.1554 54.0001 41.3629 53.9948C40.0139 53.9907 39.1761 53.1462 39.1721 51.7811C39.1654 49.4831 39.1654 47.1865 39.1721 44.8885C39.1761 43.5528 39.9621 42.7297 41.3045 42.6748C42.0294 42.6454 42.757 42.6695 43.5564 42.6695C43.5564 41.7968 43.6028 40.9751 43.5391 40.1627C43.4993 39.6554 43.0717 39.5323 42.6017 39.5336C39.9024 39.5417 37.2017 39.5377 34.5023 39.5377C34.1266 39.5377 33.7495 39.5363 33.3737 39.539C32.8971 39.543 32.5957 39.812 32.5691 40.259C32.5227 41.0313 32.5558 41.8075 32.5558 42.6668C33.2954 42.6668 33.9752 42.6587 34.6537 42.6681C36.1886 42.6882 36.9786 43.4778 36.9879 45.0357C37.0012 47.244 37.0025 49.4523 36.9866 51.6606C36.976 53.2038 36.166 53.9934 34.6364 53.9948C32.8878 53.9961 31.1405 53.9988 29.3918 53.9934C28.0043 53.9894 27.1505 53.1676 27.1372 51.757C27.1147 49.4818 27.116 47.2065 27.1359 44.9313C27.1492 43.522 27.979 42.7043 29.3785 42.6695C30.0836 42.6521 30.7899 42.6668 31.5892 42.6668C31.5892 41.9253 31.5866 41.2414 31.5892 40.5562C31.5972 39.195 32.2199 38.5526 33.5809 38.5392C34.9737 38.5259 36.3665 38.5366 37.8443 38.5366C37.8443 37.6746 37.8576 36.8569 37.8364 36.0392C37.8297 35.7969 36.7011 34.9136 36.4502 34.9123C35.6761 34.9082 34.9007 34.9283 34.1266 34.9042C32.9077 34.8681 32.273 34.1922 32.2651 32.9582C32.2611 32.4483 32.2651 31.9397 32.2651 31.3789C31.9185 31.3789 31.6224 31.3789 31.2281 31.3789C31.2281 31.8661 31.2294 32.3493 31.2281 32.8311C31.2214 34.2819 30.6173 34.9015 29.1634 34.9082C26.6845 34.9176 24.2069 34.9096 21.7279 34.9123C20.5887 34.9136 20.4413 35.0662 20.44 36.2279C20.44 36.782 20.44 37.3347 20.44 37.9825C21.1477 37.9825 21.8023 37.9771 22.4569 37.9838C24.0768 37.9985 24.8389 38.7775 24.8402 40.4197C24.8415 42.628 24.8442 44.8363 24.8389 47.0446C24.8362 48.4914 24.013 49.3051 22.5644 49.3105C22.0997 49.3118 21.6257 49.3627 21.1743 49.2864C20.9618 49.2502 20.7905 48.9652 20.6007 48.7925C20.7852 48.6399 20.9565 48.383 21.1583 48.3562C21.6589 48.2906 22.1741 48.3482 22.6826 48.3227C23.4182 48.2853 23.851 47.9252 23.8643 47.2306C23.8975 45.6058 23.8749 43.9784 23.8749 42.2934C21.2606 42.2934 18.686 42.2934 16.0398 42.2934C16.0226 42.4553 15.988 42.6454 15.9867 42.8354C15.9814 44.1965 15.9774 45.5563 15.9867 46.9174C15.9933 47.948 16.3664 48.3134 17.3994 48.3281C17.8416 48.3348 18.2917 48.2853 18.7232 48.3562C18.9184 48.3883 19.0764 48.6506 19.2517 48.8086C19.0804 48.9745 18.9211 49.2703 18.7378 49.285C18.0793 49.3399 17.4061 49.3573 16.7502 49.2823C15.7822 49.1726 15.0214 48.292 15.0135 47.3029C14.9949 44.8711 14.9949 42.4406 15.0135 40.0088C15.0214 38.9836 15.7331 38.1939 16.7502 38.0454C17.1843 37.9811 17.6318 37.9959 18.0726 37.9878C18.4895 37.9798 18.9065 37.9865 19.415 37.9865C19.415 37.2932 19.411 36.6548 19.4163 36.0164C19.4283 34.6084 20.1067 33.9272 21.4996 33.9259C24.0449 33.9245 26.5889 33.9272 29.1342 33.9245C30.0238 33.9232 30.2601 33.6796 30.2668 32.7709C30.2694 32.3279 30.2668 31.8849 30.2668 31.3709C29.9441 31.3562 29.6666 31.3415 29.3905 31.3321C27.979 31.2866 27.1479 30.4876 27.1333 29.0823C27.1107 26.8071 27.112 24.5318 27.1319 22.2566C27.1452 20.8179 27.999 20.0068 29.4383 20.0055C31.2082 20.0028 32.9794 20.0014 34.7493 20.0055C36.1116 20.0095 36.9268 20.8058 36.9826 22.1883C36.9999 22.6113 36.9733 23.0369 36.9906 23.4598C37.0158 24.0621 36.7436 24.2869 36.1501 24.2816C33.7601 24.2628 31.3702 24.2735 28.9802 24.2735C28.7372 24.2735 28.4942 24.2735 28.2194 24.2735C28.1915 24.4154 28.1463 24.5399 28.1463 24.663C28.141 26.158 28.1357 27.6516 28.1463 29.1465C28.1517 29.9081 28.5394 30.3069 29.2869 30.3109C31.1232 30.3216 32.9608 30.3203 34.7971 30.3123C35.5885 30.3083 35.9788 29.9174 35.9881 29.1265C36.0001 28.2338 35.9934 27.3424 35.9908 26.4497C35.9894 26.083 36.0625 25.7043 36.4966 25.7779C36.6892 25.8113 36.9507 26.1794 36.964 26.4082C37.0158 27.3424 37.0145 28.282 36.976 29.2175C36.9229 30.4956 36.1408 31.2598 34.8622 31.3241C34.339 31.3495 33.8146 31.3268 33.2303 31.3268ZM35.9894 46.967C33.3339 46.967 30.7647 46.967 28.1477 46.967C28.1477 48.6787 28.1278 50.3464 28.1583 52.0113C28.1702 52.647 28.6177 52.9856 29.2072 52.995C31.1059 53.0244 33.006 53.0258 34.9047 52.9977C35.5579 52.9883 35.9748 52.5654 35.9828 51.9604C36.0027 50.3156 35.9894 48.6694 35.9894 46.967ZM40.1294 46.9589C40.1294 48.6493 40.1108 50.2513 40.1374 51.8547C40.1493 52.5935 40.5662 52.9977 41.327 53.007C43.162 53.0311 44.997 53.0325 46.8306 53.0057C47.6405 52.9937 48.0044 52.5747 48.0176 51.7168C48.0349 50.6033 48.0229 49.4885 48.0229 48.3749C48.0229 47.9132 48.0229 47.4515 48.0229 46.9589C45.3595 46.9589 42.7863 46.9589 40.1294 46.9589ZM23.8696 41.2427C23.8696 40.789 23.9002 40.4103 23.863 40.0382C23.8006 39.3985 23.3969 39.0117 22.7729 39.0077C20.8702 38.9956 18.9675 38.9983 17.0648 39.0063C16.5032 39.009 16.1261 39.3182 16.0438 39.8642C15.9761 40.3112 16.0305 40.7757 16.0305 41.2414C18.6595 41.2427 21.2194 41.2427 23.8696 41.2427ZM40.1307 45.9123C42.7995 45.9123 45.3741 45.9123 48.0229 45.9123C48.0229 45.5617 48.0336 45.2538 48.0216 44.9474C47.9871 44.0627 47.614 43.692 46.7456 43.6893C44.9532 43.6839 43.1607 43.6839 41.3695 43.6893C40.618 43.692 40.1918 44.0694 40.1374 44.7881C40.1095 45.1388 40.1307 45.4948 40.1307 45.9123ZM35.9894 45.9284C35.9894 45.484 36.0067 45.1053 35.9855 44.7305C35.9523 44.1283 35.5699 43.7027 34.987 43.696C33.0405 43.6772 31.0953 43.6772 29.1488 43.696C28.5925 43.7013 28.234 44.0426 28.1636 44.5927C28.1092 45.0236 28.153 45.4666 28.153 45.9284C30.7873 45.9284 33.3445 45.9284 35.9894 45.9284ZM35.9908 23.2095C35.9908 22.8455 35.9974 22.5176 35.9894 22.1897C35.9722 21.467 35.6216 21.0173 34.9193 21.0052C33.0192 20.9718 31.1166 20.9811 29.2152 21.0012C28.6788 21.0066 28.2605 21.301 28.1729 21.8524C28.1012 22.2968 28.1583 22.7625 28.1583 23.2109C30.8098 23.2095 33.3671 23.2095 35.9908 23.2095ZM38.3794 35.2C38.5865 34.8025 38.7937 34.5843 38.7724 34.3916C38.7552 34.2297 38.4577 33.9727 38.3064 33.9874C38.1417 34.0035 37.8802 34.2846 37.8815 34.4478C37.8828 34.6406 38.1205 34.8319 38.3794 35.2Z" fill="#3D3D63"/>
<path d="M32.1042 25.6451C32.6539 25.6451 33.2116 25.5929 33.752 25.6679C34.0135 25.704 34.2446 25.9784 34.4889 26.1443C34.2539 26.321 34.0268 26.6382 33.7838 26.6502C32.642 26.7038 31.4961 26.6743 30.3502 26.6743C29.9825 26.6743 29.612 26.5472 29.6864 26.1484C29.7235 25.9436 30.1272 25.7027 30.3887 25.6679C30.9517 25.5943 31.5306 25.6451 32.1042 25.6451Z" fill="#3D3D63"/>
<path d="M32.0289 28.5616C31.4766 28.5616 30.9162 28.6138 30.3732 28.5388C30.1156 28.5027 29.8899 28.2243 29.6509 28.0543C29.8739 27.887 30.0917 27.5859 30.3214 27.5765C31.4912 27.527 32.6662 27.527 33.836 27.5779C34.0604 27.5872 34.2728 27.8991 34.4919 28.0717C34.2688 28.235 34.0577 28.512 33.8187 28.5402C33.2279 28.6071 32.6251 28.5616 32.0289 28.5616Z" fill="#3D3D63"/>
<path d="M20.5248 44.3315C20.9019 44.6809 21.1396 44.9003 21.3759 45.1198C21.1303 45.334 20.8833 45.5468 20.5089 45.872C20.3881 46.0139 20.1491 46.2976 19.9087 46.58C19.6844 46.3016 19.46 46.0232 19.3418 45.876C18.9767 45.5414 18.7217 45.3086 18.4668 45.0743C18.727 44.8669 18.9886 44.6581 19.2462 44.4533C19.4613 44.2004 19.6883 43.9314 19.9167 43.6624C20.1517 43.9207 20.3841 44.1763 20.5248 44.3315Z" fill="#3D3D63"/>
<path d="M33.9924 49.8482C33.9924 50.2698 34.0043 50.6927 33.9897 51.1143C33.9618 51.8691 33.4865 52.359 32.743 52.3871C32.2583 52.4058 31.7724 52.4031 31.2877 52.3884C30.5362 52.3643 30.037 51.8879 30.0184 51.1411C29.9958 50.2751 29.9971 49.4079 30.0184 48.5419C30.037 47.8232 30.5203 47.3401 31.2293 47.3106C31.7352 47.2892 32.2437 47.2919 32.7496 47.3093C33.4931 47.3361 33.9632 47.8219 33.9897 48.5821C34.0043 49.0037 33.9924 49.4266 33.9924 49.8482ZM30.9877 49.8134C31.0262 51.5827 30.6557 51.4047 32.4854 51.4087C32.5079 51.4087 32.5385 51.4168 32.5504 51.4061C32.7084 51.2414 32.9833 51.0822 32.9966 50.9042C33.0483 50.1975 33.0483 49.4828 32.9966 48.7762C32.9833 48.5995 32.7204 48.3211 32.5438 48.297C31.0527 48.0922 30.989 48.1632 30.989 49.6782C30.9877 49.7237 30.9877 49.7692 30.9877 49.8134Z" fill="#3D3D63"/>
<path d="M44.0809 47.8447C44.6983 47.8447 45.317 47.8367 45.9344 47.846C46.7696 47.8594 47.2489 48.3332 47.2702 49.163C47.2821 49.6301 47.2848 50.0972 47.2688 50.5643C47.2436 51.3231 46.7736 51.8357 46.03 51.8491C44.7288 51.8732 43.4263 51.8719 42.1238 51.8491C41.4015 51.8357 40.9261 51.3432 40.8996 50.6298C40.8796 50.0972 40.877 49.5618 40.9009 49.0292C40.9314 48.3519 41.4121 47.8755 42.0932 47.8514C42.7558 47.8273 43.4183 47.8447 44.0809 47.8447ZM44.049 50.8654C44.3358 50.8654 44.6226 50.8694 44.9094 50.8654C46.4377 50.8413 46.281 51.121 46.3022 49.4213C46.3075 48.9435 46.0977 48.8043 45.6583 48.8137C44.8417 48.8338 44.0251 48.819 43.2085 48.819C41.7692 48.819 41.7812 48.819 41.8449 50.3006C41.8622 50.6941 41.9976 50.8734 42.392 50.8667C42.9456 50.856 43.498 50.8627 44.049 50.8654Z" fill="#3D3D63"/>
<path d="M22.3201 40.8397C22.1024 40.4931 21.8687 40.2829 21.9045 40.1411C21.9523 39.9524 22.1927 39.7222 22.3812 39.69C22.5034 39.6686 22.8061 39.9724 22.8008 40.1223C22.7941 40.3151 22.5605 40.5011 22.3201 40.8397Z" fill="#3D3D63"/>
<path d="M47.2528 44.7825C46.9541 45.0247 46.7669 45.2857 46.6301 45.2616C46.4296 45.2255 46.2676 44.9832 46.0884 44.828C46.2557 44.666 46.4017 44.4158 46.5969 44.3689C46.735 44.3368 46.9395 44.5737 47.2528 44.7825Z" fill="#3D3D63"/>
<path d="M35.3164 44.8106C34.9579 45.0448 34.7627 45.271 34.5795 45.2616C34.4215 45.2536 34.1334 44.9444 34.1599 44.8267C34.2011 44.6393 34.4374 44.4118 34.6273 44.3689C34.768 44.3382 34.9672 44.5737 35.3164 44.8106Z" fill="#3D3D63"/>
<path d="M32.0977 21.6222C32.4057 21.6222 32.7324 21.5593 33.0165 21.6436C33.2197 21.7038 33.4547 21.938 33.5038 22.1374C33.533 22.2565 33.2422 22.5885 33.0776 22.6018C32.4004 22.6554 31.7126 22.6554 31.0355 22.6005C30.8722 22.5871 30.5814 22.2472 30.6133 22.1321C30.6704 21.9313 30.9067 21.6971 31.1112 21.6436C31.4219 21.5619 31.7671 21.6222 32.0977 21.6222Z" fill="#3D3D63"/>
</g>
<defs>
<clipPath id="clip0_31_2059">
<rect width="34" height="34" fill="white" transform="translate(15 20)"/>
</clipPath>
</defs>
</svg>
