<svg width="91" height="88" viewBox="0 0 91 88" fill="none" xmlns="http://www.w3.org/2000/svg">
<path fill-rule="evenodd" clip-rule="evenodd" d="M29.9084 0.692808C21.624 1.72997 13.8322 5.87721 8.43119 12.1245C4.11221 17.1203 1.48103 23.0793 0.710111 29.6105C0.439558 31.9033 0.580954 36.7476 0.979933 38.8482C3.73972 53.3808 15.7129 64.243 30.7199 65.8285C36.7749 66.4681 43.0157 65.4267 48.6756 62.8323C50.593 61.9533 53.1058 60.5023 54.2922 59.589C55.091 58.9739 55.0737 58.9674 56.4805 60.4202L57.1661 61.128L55.9807 62.2891C55.0565 63.1943 54.7953 63.5665 54.7947 63.9783C54.794 64.4409 56.1981 65.8685 66.0754 75.448C77.0511 86.0931 77.396 86.4081 78.8087 87.0786C80.2398 87.7578 80.291 87.7677 82.371 87.7677C84.3665 87.7677 84.5486 87.7368 85.7161 87.1993C87.431 86.4097 88.8067 85.0941 89.648 83.4399C90.3133 82.1314 90.3272 82.062 90.3272 80.0528C90.3272 78.0431 90.3131 77.9728 89.6305 76.5811C88.945 75.1836 88.7508 74.9826 77.6647 64.1951C67.8012 54.5971 66.328 53.2297 65.8523 53.2304C65.4285 53.2309 65.0454 53.4852 64.1117 54.3858L62.9146 55.5405L61.843 54.4881L60.7714 53.4355L61.3317 52.7479C61.6398 52.3697 62.3006 51.4197 62.8002 50.637C72.1433 35.9946 68.4013 16.9858 54.1723 6.80801C49.5923 3.53209 43.9315 1.33755 38.3588 0.677359C36.5468 0.462682 31.6755 0.47156 29.9084 0.692808ZM36.3405 2.80815C44.148 3.38702 51.0485 6.43637 56.4725 11.7042C60.7862 15.8937 63.6881 21.1692 65.0549 27.3064C65.4166 28.9308 65.4707 29.6853 65.474 33.1661C65.4782 37.4749 65.2427 39.1513 64.1658 42.4768C61.0034 52.2437 52.4547 60.1572 42.2952 62.7231C36.3854 64.2155 29.4936 63.9794 24.0052 62.0966C22.008 61.4114 19.6923 60.3787 18.2034 59.5093C3.97976 51.2029 -1.21993 33.8691 6.20063 19.4962C9.27792 13.5355 13.9657 9.00806 20.1771 5.99813C24.0089 4.14114 27.6139 3.13594 31.5948 2.81455C32.5493 2.73748 33.4536 2.66344 33.6043 2.64994C33.755 2.63663 34.9863 2.70783 36.3405 2.80815ZM31.2294 5.92515C30.9782 5.96848 29.9917 6.13166 29.0372 6.28774C25.6594 6.84033 21.5078 8.48654 18.474 10.4764C16.8293 11.5551 16.4321 11.929 16.4321 12.3989C16.4321 12.8066 17.1974 13.6338 17.5744 13.6338C17.7094 13.6338 18.638 13.1056 19.6378 12.4599C20.6378 11.8143 22.0213 11.0092 22.7126 10.6706C24.4555 9.81687 27.8818 8.74455 29.9371 8.40984C32.1046 8.05666 36.0915 8.0476 38.2682 8.39084C46.5051 9.68938 53.482 14.6051 57.2156 21.741C59.0636 25.2726 59.8623 28.2339 60.0339 32.1895C60.2343 36.8121 59.3804 40.6216 57.214 44.7688C55.9186 47.2487 54.4542 49.1721 52.2518 51.2867C47.935 55.4311 42.4991 57.8531 36.3453 58.3741C28.6167 59.0283 21.0973 56.2472 15.5706 50.6907C12.206 47.3077 9.89886 43.0725 8.82688 38.3107C8.3424 36.1594 8.3424 30.3505 8.82688 28.1991C9.53441 25.0561 10.7558 22.1984 12.5826 19.412C13.5892 17.8766 13.5973 17.8544 13.3223 17.3551C13.0183 16.803 12.4553 16.5921 11.8941 16.8201C10.9443 17.2059 8.4332 21.6167 7.39647 24.7202C6.37272 27.7848 6.13012 29.4202 6.13012 33.2549C6.13012 36.2373 6.19387 37.0925 6.528 38.5934C8.88205 49.1684 16.8165 57.3089 27.2853 59.8902C29.7203 60.4905 31.4693 60.6889 34.3301 60.6889C47.8616 60.6889 59.2831 51.4185 61.9486 38.272C62.4276 35.9097 62.5167 31.2742 62.1256 29.0821C61.0154 22.8632 58.4233 17.9696 53.9896 13.7226C51.6688 11.4995 49.4796 9.9852 46.6661 8.65683C42.4638 6.67288 39.5895 6.00275 34.8831 5.9097C33.1247 5.8749 31.4806 5.88183 31.2294 5.92515ZM29.7769 10.7958C27.9726 11.2088 28.5369 13.2503 30.3845 12.9935C31.8798 12.7858 32.5933 11.7634 31.7886 10.9812C31.3953 10.5989 30.8549 10.5492 29.7769 10.7958ZM23.6744 12.8382C21.7122 13.8139 20.7822 14.4169 18.9816 15.8809C14.0684 19.8756 10.769 26.5031 10.769 32.3777C10.769 34.0207 10.9756 34.4091 11.8497 34.4091C12.6899 34.4091 12.8879 33.9788 13.1152 31.6568C13.8541 24.1127 18.1512 18.0274 25.132 14.6389C25.8478 14.2914 26.485 13.8767 26.5478 13.7171C26.8452 12.9641 26.5098 12.2991 25.7489 12.1332C25.4265 12.0629 24.8167 12.2701 23.6744 12.8382ZM44.3826 17.3627C43.9224 17.81 43.9189 18.2589 44.3712 18.8177C44.956 19.5402 45.0154 20.1175 44.5758 20.8086L44.1843 21.4244L42.6851 21.4238C41.1392 21.4233 40.0904 21.682 38.9222 22.352C38.3593 22.6746 38.2026 22.6899 37.3897 22.5002C36.0762 22.1939 34.4892 22.3866 33.1969 23.0092L32.1034 23.536L31.7174 22.7133C31.4022 22.0418 31.3363 21.5808 31.3582 20.2038C31.3883 18.3251 31.1943 17.8954 30.316 17.8954C29.4521 17.8954 29.1582 18.4363 29.0721 20.1844C28.9888 21.8781 29.2879 23.2693 30.0027 24.5133L30.3874 25.1829L29.411 26.1441L28.4344 27.1051L27.594 26.4174C26.2563 25.3223 25.3542 25.0064 23.5518 25.002C21.6718 24.9972 21.1819 25.2364 21.1819 26.1583C21.1819 27.0362 21.7946 27.3863 23.1021 27.2551C24.3934 27.1255 25.1576 27.3435 26.0385 28.0929L26.7537 28.701L25.4194 30.0152L24.0853 31.3292L22.9037 31.3466C20.9292 31.3757 18.3832 32.4459 17.3912 33.6638C17.0584 34.0726 17.1119 34.842 17.497 35.1806C17.9785 35.6043 18.5794 35.543 19.2374 35.003C19.8963 34.4622 21.4842 33.7031 21.9619 33.7006C22.2634 33.699 22.2603 33.7469 21.9146 34.4054C20.9089 36.3215 20.7506 39.5551 21.5516 41.8177C22.3573 44.093 24.3359 46.3541 26.4755 47.4442C28.3162 48.3821 29.7022 48.6664 31.9601 48.5695C33.7645 48.4919 34.1657 48.4002 36.0248 47.6415C36.4971 47.4487 36.4315 47.8649 35.7989 49.0777C35.0511 50.5106 35.0765 50.9966 35.9216 51.4288C36.5203 51.7351 37.1376 51.4201 37.669 50.5371C38.3069 49.4772 38.7194 48.0279 38.7194 46.8467V45.8538L40.1443 44.4769L41.5692 43.1001L41.9468 43.5044C42.8292 44.4489 42.9772 44.8557 42.9498 46.2597C42.9169 47.9382 43.1823 48.4368 44.1085 48.4368C45.1157 48.4368 45.3568 47.9071 45.2607 45.9054C45.1749 44.1127 44.9628 43.5525 43.8767 42.2495L43.2337 41.4782L44.2335 40.5064L45.2333 39.5345L45.8583 39.8866C47.458 40.788 50.593 41.1339 51.2048 40.4767C51.5992 40.0532 51.5907 39.3291 51.1875 38.9878C51.0097 38.8372 50.315 38.6646 49.6226 38.5989C48.5187 38.4942 46.9401 38.0513 46.9401 37.8464C46.9401 37.805 47.1663 37.3542 47.4425 36.8448C47.8994 36.0022 47.946 35.7417 47.956 33.9652C47.9659 32.2138 48.017 31.918 48.4494 31.1026C49.1155 29.847 49.422 28.1277 49.1864 26.9689C49.0022 26.0633 49.0031 26.0603 49.591 25.7071C50.3665 25.2413 50.7103 25.2603 51.5337 25.8149C52.0992 26.1959 52.3088 26.2478 52.731 26.1112C53.42 25.8882 53.693 25.1421 53.321 24.4977C52.6124 23.2698 50.2841 22.7881 48.7689 23.5557L48.0108 23.9398L47.1434 23.1873L46.2759 22.4345L46.6971 21.7188C48.0139 19.4809 46.0351 15.7565 44.3826 17.3627ZM42.1968 23.921C41.9262 24.4125 41.9615 24.7257 42.3383 25.1781C42.8674 25.8131 43.6164 25.7032 44.3234 24.8871L44.9195 24.199L45.5187 24.7816L46.118 25.364L45.4101 25.9434C44.5705 26.6306 44.4575 27.3586 45.1107 27.8729C45.6115 28.2669 46.0031 28.2793 46.534 27.9178C46.9248 27.6518 46.9401 27.6601 46.939 28.1397C46.9377 28.7657 46.6009 29.9699 46.4271 29.9699C46.3553 29.9699 44.9459 28.6554 43.2952 27.0486C40.0338 23.8743 40.1293 24.057 41.551 23.7084C42.2998 23.5246 42.3973 23.5568 42.1968 23.921ZM37.5849 24.9846C37.9576 25.1724 38.8369 25.8923 39.5385 26.5844L40.8142 27.8429L34.9715 33.5363L29.1286 39.23L28.2458 39.1345C27.7603 39.0821 26.4554 38.9036 25.3458 38.7381L23.3286 38.437L23.4234 37.4197C23.4811 36.8021 23.7511 35.9237 24.1108 35.1838C24.6331 34.1094 25.2245 33.4531 29.1081 29.6382C31.9483 26.8483 33.7725 25.1941 34.2437 24.981C35.2134 24.5428 36.7113 24.5442 37.5849 24.9846ZM45.6513 33.2897C45.842 34.074 45.8301 34.3668 45.5718 35.2429C45.279 36.2359 45.1036 36.4326 40.7605 40.6408C36.8582 44.4219 36.0933 45.0819 35.0623 45.5578C34.1045 45.9999 31.6342 46.6066 31.4916 46.4348C31.4733 46.4127 31.2776 45.1625 31.0566 43.6564L30.6549 40.9179L36.5597 35.1737L42.4644 29.4294L43.9456 30.8982C45.216 32.1581 45.4587 32.4983 45.6513 33.2897ZM26.1782 41.1449C27.369 41.3336 28.3629 41.5133 28.3874 41.5444C28.4687 41.6477 29.0577 45.9901 28.9981 46.048C28.7972 46.2435 26.5429 44.9082 25.715 44.1035C24.5595 42.9804 23.3461 40.8013 23.8764 40.8015C23.9517 40.8015 24.9877 40.9559 26.1782 41.1449ZM60.0479 58.3324L58.819 59.5269L57.8112 58.5595L56.8033 57.5919L58.0339 56.3868L59.2642 55.1815L60.2706 56.1597L61.277 57.1379L60.0479 58.3324ZM64.9807 63.1286L60.8273 67.1658L59.1804 65.5725L57.5333 63.979L61.6892 59.9367L65.845 55.8944L67.4897 57.4929L69.1342 59.0915L64.9807 63.1286ZM68.4528 66.5013L64.3013 70.5365L63.3821 69.6565L62.4626 68.7763L66.6196 64.7329L70.7765 60.6896L71.6905 61.5778L72.6043 62.4661L68.4528 66.5013ZM87.6102 77.6457C88.8727 80.3261 87.7234 83.6301 85.0698 84.9482C83.3179 85.8184 81.2928 85.8291 79.5548 84.9773C79.1101 84.7594 76.2639 82.1456 72.3754 78.3837L65.9325 72.1511L70.0918 68.103L74.2511 64.0548L80.6834 70.3252C86.2453 75.7474 87.1825 76.7378 87.6102 77.6457Z" fill="#124077"/>
</svg>
