<svg width="167" height="362" viewBox="0 0 167 362" fill="none" xmlns="http://www.w3.org/2000/svg">
<circle cx="117.5" cy="105.877" r="99.5" stroke="white" stroke-opacity="0.3" stroke-width="4" stroke-dasharray="5 5"/>
<path d="M74.9702 106.234C84.7337 92.2831 97.1494 80.3918 111.509 71.2392C125.868 62.0866 141.889 55.8518 158.657 52.8908C175.426 49.9298 192.614 50.3007 209.239 53.9822C225.864 57.6637 241.602 64.5837 255.553 74.3472C269.503 84.1107 281.395 96.5264 290.547 110.886C299.7 125.245 305.935 141.266 308.896 158.034C311.857 174.803 311.486 191.991 307.804 208.616C304.123 225.241 297.203 240.979 287.439 254.93L181.205 180.582L74.9702 106.234Z" fill="#FF7575"/>
<circle cx="117.5" cy="122.877" r="83.5" stroke="white" stroke-opacity="0.3" stroke-width="2"/>
</svg>
