<svg width="64" height="74" viewBox="0 0 64 74" fill="none" xmlns="http://www.w3.org/2000/svg">
<path fill-rule="evenodd" clip-rule="evenodd" d="M-6.88536e-06 18.5L32 2.79753e-06L64 18.5L64 55.5L32 74L-3.65071e-06 55.5L-6.88536e-06 18.5Z" fill="#DAF2FF"/>
<path fill-rule="evenodd" clip-rule="evenodd" d="M25.9511 22.3699C25.6721 22.5705 25.4439 22.7593 25.4439 22.7898C25.4439 22.82 25.7499 23.3114 26.1237 23.8817L26.8036 24.9186L26.3922 25.2326C24.7105 26.5165 23.4753 28.5915 23.1025 30.7586C23.011 31.2912 22.9199 31.7432 22.9005 31.7631C22.8809 31.7829 22.6549 31.7403 22.3983 31.6684C21.1906 31.3299 19.9066 31.8887 19.3334 33.0024L19 33.6502L19.0026 37.9061C19.005 41.7741 19.0252 42.2061 19.2242 42.6464C19.8159 43.9556 21.3153 44.6188 22.5241 44.1061L22.9379 43.9306V44.6322C22.9379 45.9943 23.7758 46.9401 24.9864 46.9444L25.5431 46.9464L25.5831 48.9752C25.6204 50.8753 25.6419 51.0384 25.9212 51.5434C26.9816 53.4607 29.5043 53.458 30.5747 51.5384C30.8535 51.0385 30.8754 50.8735 30.9149 48.9752L30.9573 46.9464H31.594H32.2308L32.2681 49.1167L32.3055 51.2869L32.6642 51.8117C33.1217 52.4808 34.0891 53.0037 34.8626 53C35.8041 52.9954 36.7519 52.3934 37.2387 51.4911C37.3951 51.2009 37.4443 50.6959 37.4759 49.0496L37.5157 46.9741L38.2236 46.9222C39.4586 46.8314 40.0347 46.1904 40.1024 44.832L40.1467 43.9411L40.548 44.1114C41.5561 44.5389 42.9708 44.0718 43.6413 43.0902L44 42.565V37.9336V33.3021L43.6708 32.7972C43.4897 32.5195 43.1309 32.1507 42.8733 31.9777C42.2728 31.5742 41.2076 31.454 40.5829 31.7189L40.1499 31.9025L40.068 31.168C39.9525 30.1326 39.4895 28.7302 38.9613 27.8165C38.5243 27.0608 37.3179 25.6963 36.614 25.1619L36.2685 24.8996L36.9421 23.8722C37.3127 23.3072 37.6158 22.8028 37.6158 22.7516C37.6158 22.7004 37.495 22.5825 37.3473 22.4897C37.1995 22.3968 36.9658 22.2464 36.8276 22.1553C36.5895 21.9984 36.5381 22.0488 35.8415 23.1209L35.1067 24.2522L34.2623 23.9647C32.5234 23.3727 30.4801 23.3806 28.7618 23.9857L27.9626 24.2671L27.2246 23.1308C26.8185 22.5058 26.4801 21.997 26.4723 22C26.4646 22.0029 26.2301 22.1695 25.9511 22.3699ZM33.3695 25.0857C35.6754 25.6953 37.7619 27.6888 38.4382 29.9283C38.5588 30.328 38.6942 30.8595 38.7388 31.1092L38.8199 31.5635H31.5949H24.3699V31.2221C24.3699 31.0343 24.4556 30.5846 24.5604 30.2228C25.2693 27.7744 27.2832 25.7568 29.6858 25.0879C30.5044 24.8599 32.511 24.8587 33.3695 25.0857ZM27.5919 28.8381V29.5043H28.2482H28.9045V28.8381V28.172H28.2482H27.5919V28.8381ZM34.1551 28.8381V29.5043H34.8115H35.4678V28.8381V28.172H34.8115H34.1551V28.8381ZM22.5322 33.3077L22.9379 33.7195V37.9011V42.0828L22.6325 42.4513C22.0621 43.1393 20.9979 43.0587 20.5376 42.2927C20.3303 41.9477 20.3135 41.6199 20.3135 37.9225C20.3135 34.1369 20.3261 33.9043 20.5525 33.5275C21.0073 32.7705 21.9048 32.6708 22.5322 33.3077ZM38.8091 39.0334C38.8091 44.5745 38.7899 45.1925 38.6116 45.3925C38.4471 45.5769 38.2277 45.614 37.2989 45.614H36.1838L36.1833 48.1273C36.1829 50.3727 36.1589 50.6804 35.9588 51.0138C35.4986 51.7798 34.4344 51.8603 33.864 51.1723L33.5585 50.8039V48.2089V45.614H31.598H29.6375L29.5992 48.2161L29.5609 50.8183L29.1708 51.214C28.8468 51.5426 28.6903 51.6097 28.2482 51.6097C27.8061 51.6097 27.6496 51.5426 27.3257 51.214L26.9356 50.8183L26.8973 48.2161L26.8589 45.614H25.7406C24.72 45.614 24.6058 45.5904 24.4364 45.3447C24.2742 45.1098 24.2506 44.3015 24.2506 38.9857V32.8958H31.5298H38.8091V39.0334ZM42.3413 33.3077L42.747 33.7195V37.9011V42.0828L42.4415 42.4513C41.8711 43.1393 40.8069 43.0587 40.3467 42.2927C40.1395 41.9478 40.1226 41.62 40.1222 37.9468C40.1217 33.61 40.144 33.4519 40.8094 33.0854C41.3784 32.7721 41.8863 32.8458 42.3413 33.3077Z" fill="#3D3D63"/>
</svg>
