<svg width="64" height="74" viewBox="0 0 64 74" fill="none" xmlns="http://www.w3.org/2000/svg">
<path fill-rule="evenodd" clip-rule="evenodd" d="M-6.88536e-06 18.5L32 2.79753e-06L64 18.5L64 55.5L32 74L-3.65071e-06 55.5L-6.88536e-06 18.5Z" fill="#DAF2FF"/>
<path fill-rule="evenodd" clip-rule="evenodd" d="M30.5587 22.0688C27.0087 22.709 24.2107 25.5551 23.6356 29.1109C23.5709 29.5105 23.5178 30.8585 23.5174 32.1067C23.5166 34.6444 23.5913 34.9683 24.2755 35.3969C24.5955 35.5973 24.6394 35.6853 24.6434 36.135C24.6524 37.1521 25.2886 37.8616 26.3187 38.0038C26.7939 38.0694 26.886 38.1298 27.1125 38.5247C27.2535 38.7703 27.5217 39.146 27.7085 39.3596L28.0483 39.7479L27.5676 40.7204L27.0869 41.6928L25.4995 42.2187C23.2955 42.9489 22.7417 43.2632 21.5273 44.4729C20.6563 45.3405 20.4192 45.6609 19.9726 46.5746C19.3905 47.7652 19.1382 48.6241 19.0305 49.7814C18.9704 50.4265 18.9915 50.5847 19.1626 50.7743C19.3635 50.997 19.5341 51 32 51C44.4659 51 44.6365 50.997 44.8374 50.7743C45.0085 50.5847 45.0296 50.4265 44.9695 49.7814C44.8618 48.6241 44.6095 47.7652 44.0274 46.5746C43.5808 45.6609 43.3437 45.3405 42.4727 44.4729C41.2583 43.2632 40.7045 42.9489 38.5005 42.2187L36.9131 41.6928L36.4334 40.7224L35.9536 39.7519L36.3596 39.2768C36.5828 39.0154 36.9112 38.4953 37.0893 38.1208C37.3784 37.5127 37.4945 37.135 37.7038 36.1232C37.7603 35.8502 37.8218 35.8224 38.5146 35.7576C39.3419 35.6801 39.8281 35.4495 40.1889 34.9633C40.4156 34.6582 40.427 34.5109 40.427 31.8995C40.427 29.9259 40.3828 28.9836 40.2695 28.5405C39.4755 25.4354 37.1862 23.092 34.0926 22.2173C33.3755 22.0146 31.3349 21.9288 30.5587 22.0688ZM33.527 23.2557C34.8701 23.5377 36.1036 24.229 37.152 25.2873C38.374 26.5209 39.0533 27.8563 39.2787 29.4685L39.3382 29.894H38.8018H38.2654L38.123 29.0436C37.8202 27.2358 36.6525 25.651 35.038 24.8566C34.0503 24.3706 33.3332 24.2204 32 24.2204C30.6668 24.2204 29.9497 24.3706 28.962 24.8566C27.3475 25.651 26.1798 27.2358 25.877 29.0436L25.7346 29.894H25.1982H24.6618L24.7213 29.4685C24.9467 27.8563 25.626 26.5209 26.848 25.2873C27.5649 24.5636 27.9624 24.2679 28.7197 23.8945C30.2926 23.119 31.8743 22.9088 33.527 23.2557ZM34.0361 25.6273C35.7509 26.2604 36.9013 27.8085 37.0589 29.695L37.1236 30.4694L36.6262 30.3932C34.8025 30.1135 33.0152 29.3209 31.7948 28.2508C31.0161 27.5679 30.8706 27.5309 29.8281 27.7512C28.9997 27.9262 28.1046 28.3836 27.4695 28.9563L26.934 29.4393L27.0391 28.9574C27.3933 27.3322 28.675 25.9876 30.306 25.5303C31.1209 25.3019 33.3087 25.3587 34.0361 25.6273ZM31.1909 29.2246C32.3721 30.2688 34.1786 31.0906 36.0467 31.4334L37.0505 31.6177L37.0085 32.2594C36.9349 33.3869 36.6323 35.7144 36.4641 36.4481C35.5895 40.2617 31.2472 41.5508 28.6952 38.7543L28.1171 38.1208L28.6646 38.0854C29.161 38.0533 29.2374 38.0826 29.4848 38.3997C29.9327 38.9739 30.3544 39.1336 31.4344 39.1381C32.5 39.1425 32.9603 38.9623 33.4021 38.3678C33.7326 37.923 33.7326 36.9569 33.4021 36.5121C32.9603 35.9176 32.5 35.7374 31.4344 35.7418C30.3542 35.7464 29.9058 35.9161 29.4922 36.4774C29.2553 36.7987 29.2014 36.8159 28.425 36.8159H27.6073L27.4935 36.2769C27.3665 35.6749 27.0618 33.1702 26.9825 32.0766L26.931 31.3654L27.5174 30.6014C28.1659 29.7566 28.9257 29.1831 29.723 28.9369C30.5041 28.6956 30.6176 28.7179 31.1909 29.2246ZM25.8298 31.9082C25.8685 32.3918 25.9392 33.1834 25.9867 33.667L26.0732 34.5464H25.4961C25.1787 34.5464 24.8579 34.4851 24.7833 34.4102C24.6904 34.3171 24.6475 33.7622 24.6475 32.6514V31.0287H25.2035H25.7593L25.8298 31.9082ZM39.3525 32.6514C39.3525 33.7622 39.3096 34.3171 39.2167 34.4102C39.1421 34.4851 38.8213 34.5464 38.5039 34.5464H37.9268L38.0133 33.667C38.0608 33.1834 38.1315 32.3918 38.1702 31.9082L38.2407 31.0287H38.7965H39.3525V32.6514ZM26.2923 36.1067C26.3284 36.2782 26.3755 36.508 26.3971 36.6173C26.4221 36.7442 26.3666 36.8159 26.2431 36.8159C25.9469 36.8159 25.7787 36.5817 25.7787 36.1691C25.7787 35.8714 25.8247 35.7946 26.0028 35.7946C26.1559 35.7946 26.2476 35.8933 26.2923 36.1067ZM32.4298 37.0655C32.5045 37.1404 32.5656 37.3089 32.5656 37.44C32.5656 37.8496 32.3419 37.9506 31.4344 37.9506C30.5269 37.9506 30.3033 37.8496 30.3033 37.44C30.3033 37.0303 30.5269 36.9293 31.4344 36.9293C31.9523 36.9293 32.3481 36.9835 32.4298 37.0655ZM35.5588 41.4593L35.8873 42.1488L35.695 42.7446C35.5892 43.0724 35.3127 43.7387 35.0805 44.2254L34.6582 45.1103L33.7084 44.1495L32.7584 43.1887L33.9251 41.9363C34.5667 41.2474 35.1229 40.7032 35.161 40.7268C35.1991 40.7504 35.3782 41.0801 35.5588 41.4593ZM30.245 44.1962L29.3418 45.1105L28.9195 44.2255C28.6873 43.7389 28.4103 43.0708 28.3039 42.7412L28.1106 42.1418L28.4233 41.502L28.7362 40.8621L29.9422 42.0719L31.1484 43.2818L30.245 44.1962ZM32.4307 41.8877C32.1679 42.1562 31.9486 42.376 31.9434 42.376C31.9382 42.376 31.7143 42.1515 31.4457 41.877L30.9575 41.3779L31.933 41.3886L32.9085 41.3993L32.4307 41.8877ZM27.8497 44.5888C28.292 45.5831 29.2797 47.3254 29.9082 48.2199C30.1713 48.5944 30.5211 49.1178 30.6857 49.383L30.9848 49.8653H25.5609H20.1372L20.1964 49.4397C20.3921 48.0321 21.1192 46.5113 22.1025 45.4529C23.0362 44.4478 23.7716 44.0067 25.5525 43.3835L27.0795 42.849L27.2879 43.3217C27.4026 43.5817 27.6553 44.1519 27.8497 44.5888ZM40.4979 44.2571C41.3196 44.7578 42.4787 45.9962 42.9342 46.86C43.3165 47.585 43.7068 48.7431 43.8036 49.4397L43.8628 49.8653H38.4369H33.0111L33.4231 49.2128C33.6498 48.8539 33.9495 48.4071 34.0893 48.2199C34.8103 47.2543 36.2276 44.6154 36.6899 43.3778L36.8879 42.8478L38.3747 43.3586C39.1924 43.6396 40.1479 44.0439 40.4979 44.2571ZM33.0572 47.7438C32.5069 48.5926 32.0311 49.2874 32 49.2877C31.9476 49.2883 30.0621 46.426 29.9867 46.2313C29.9681 46.1833 30.3971 45.6758 30.9399 45.1035L31.9269 44.0631L32.9924 45.1319L34.0578 46.2007L33.0572 47.7438ZM37.8429 44.6261C37.5996 44.8958 37.606 45.1324 37.8626 45.3655C38.1315 45.6096 38.3673 45.6032 38.5997 45.3458C38.843 45.076 38.8367 44.8394 38.58 44.6064C38.3111 44.3623 38.0753 44.3686 37.8429 44.6261ZM39.8275 45.6895C39.5862 45.9316 39.6826 46.2942 40.0948 46.6942C40.3165 46.9092 40.6779 47.3568 40.8979 47.6889C41.3522 48.3743 41.515 48.4722 41.9048 48.294C42.2984 48.114 42.2586 47.6958 41.7788 46.9707C41.0262 45.8333 40.2151 45.3007 39.8275 45.6895Z" fill="#3D3D63"/>
</svg>
