<svg width="81" height="89" viewBox="0 0 81 89" fill="none" xmlns="http://www.w3.org/2000/svg">
<path fill-rule="evenodd" clip-rule="evenodd" d="M0.408556 22.0452L38.0763 3.33809e-06L75.744 22.0452L75.744 66.1355L38.0763 88.1806L0.40856 66.1355L0.408556 22.0452Z" fill="#DAF2FF"/>
<g clip-path="url(#clip0_21_8226)">
<path d="M49.1727 29.6385C49.1727 31.9649 49.1727 34.2912 49.1727 36.6175C49.1727 37.9208 48.7927 38.3044 47.5137 38.3327C39.467 38.5057 33.8299 44.6873 32.9665 51.7359C31.9771 59.8188 37.5579 66.3145 43.9324 68.0258C52.6976 70.3785 61.8295 64.2006 62.8979 55.1887C62.9562 54.6997 63.0013 54.207 63.0201 53.7162C63.0653 52.5784 63.4753 52.1759 64.6415 52.1703C65.7701 52.1646 66.8968 52.1703 68.0253 52.1703C71.5746 52.1703 75.1221 52.1703 78.6714 52.1703C79.0025 52.1703 79.3354 52.1534 79.642 52.2963C80.2251 52.5671 80.4715 53.0335 80.3812 53.6691C80.2947 54.2766 79.8301 54.6884 79.1511 54.696C77.6463 54.7148 76.1434 54.7016 74.6387 54.7054C73.8054 54.7072 73.6531 54.8521 73.5948 55.6626C72.8386 66.369 64.5569 76.1464 54.1421 78.6307C53.2694 78.8394 52.6449 78.5404 52.4511 77.822C52.2311 77.0039 52.6242 76.4153 53.6154 76.1558C58.2915 74.9296 62.2283 72.4979 65.3976 68.8589C68.6836 65.0845 70.5665 60.6857 71.0536 55.7021C71.1458 54.7637 71.0348 54.664 70.1244 54.6621C68.8793 54.6584 67.6322 54.679 66.3889 54.6527C65.7607 54.6395 65.4729 54.8521 65.3826 55.5159C64.3011 63.5443 58.5153 69.5059 50.5288 70.8599C49.6222 71.0141 49.1689 71.5451 49.1689 72.4528C49.1689 76.3307 49.1689 80.2066 49.1689 84.0845C49.1689 84.2725 49.1783 84.4606 49.1633 84.6487C49.1031 85.4178 48.6084 85.9181 47.9218 85.9162C47.2372 85.9124 46.7143 85.4065 46.6974 84.6355C46.6691 83.2739 46.688 81.9105 46.688 80.547C46.688 79.4337 46.6315 79.3942 45.5199 79.2456C35.0882 77.8577 27.9011 72.2685 23.9267 62.5363C23.5355 61.5809 23.2665 60.5842 23.0163 59.5837C22.8076 58.7449 23.1593 58.0773 23.8646 57.9175C24.6076 57.7501 25.1663 58.1243 25.3901 58.9894C27.0246 65.3403 30.6172 70.2431 36.2375 73.6301C39.2169 75.4261 42.4671 76.4228 45.9205 76.782C46.4096 76.8328 46.6861 76.6109 46.688 76.1087C46.6917 74.6287 46.6823 73.1486 46.6917 71.6686C46.6955 71.0988 46.3437 70.969 45.8791 70.9126C42.5367 70.5101 39.5404 69.2558 36.924 67.1457C33.2242 64.1611 31.1251 60.2626 30.495 55.5723C30.4009 54.8765 30.0906 54.6753 29.4341 54.6772C25.392 54.6941 21.3498 54.6866 17.3077 54.6866C17.1196 54.6866 16.9315 54.6941 16.7434 54.6847C15.9854 54.6471 15.4794 54.1675 15.4587 53.4679C15.4362 52.7364 15.9421 52.1778 16.7246 52.1628C18.1579 52.1346 19.5912 52.1534 21.0244 52.1515C22.2226 52.1515 22.2677 52.1139 22.3731 50.899C22.7906 46.0357 24.4515 41.635 27.3406 37.7121C30.8392 32.9597 35.4531 29.7758 41.0978 28.0776C41.9405 27.8237 42.5405 28.0344 42.8508 28.6587C43.2496 29.4599 42.8113 30.2497 41.7712 30.5394C39.61 31.1412 37.5729 32.025 35.6976 33.2512C29.1877 37.5089 25.5989 43.5382 24.8352 51.2638C24.7656 51.9672 24.9405 52.1665 25.6403 52.1703C26.9569 52.1797 28.2717 52.1646 29.5883 52.1778C30.1395 52.1835 30.3821 51.9409 30.4555 51.3955C31.5144 43.6022 36.7999 37.8343 44.4101 36.1493C44.7995 36.0627 45.1926 35.9913 45.5876 35.9443C46.6767 35.8145 46.6898 35.8051 46.6898 34.6824C46.6898 30.7575 46.6898 26.8345 46.6898 22.9097C46.6898 22.7931 46.6898 22.6746 46.6898 22.558C46.6955 21.5086 47.1281 20.9275 47.9143 20.9181C48.7118 20.9087 49.1689 21.4841 49.1689 22.526C49.1727 24.8994 49.1689 27.2727 49.1689 29.6461L49.1727 29.6385Z" fill="#3D3D63"/>
<path d="M47.903 63.8722C42.4765 63.8534 37.951 59.6709 37.5184 54.2566C37.0876 48.8686 40.9492 43.9545 46.2685 43.1365C46.7312 43.065 47.2015 43.0217 47.6698 43.0086C48.4786 42.986 49.0316 43.4656 49.0636 44.1764C49.0974 44.893 48.6027 45.4459 47.7902 45.4778C46.5996 45.5249 45.4747 45.7787 44.4045 46.3053C41.0997 47.932 39.3391 51.6877 40.2119 55.2759C41.0809 58.8453 44.3161 61.3729 47.967 61.3334C52.3458 61.2845 55.5171 58.1589 55.8124 53.5777C55.8519 52.9646 56.0155 52.4606 56.5949 52.1973C57.4601 51.8043 58.3517 52.4512 58.3648 53.4573C58.4175 57.9332 55.2914 62.1439 50.952 63.4115C50.3689 63.5826 49.7671 63.6954 49.167 63.7913C48.7513 63.8572 48.3244 63.8496 47.903 63.8741V63.8722Z" fill="#3D3D63"/>
<path d="M47.8862 55.0936C47.4272 55.0542 47.051 54.8435 46.8215 54.4166C46.5921 53.986 46.6165 53.5515 46.8949 53.151C47.0266 52.961 47.2034 52.7974 47.367 52.6319C50.6925 49.2769 54.0124 45.92 57.351 42.5781C57.6652 42.264 57.7705 41.9481 57.7667 41.5212C57.7498 39.8061 57.7724 38.0909 57.7517 36.3758C57.7442 35.7947 57.9341 35.349 58.3479 34.939C61.1675 32.1425 63.9738 29.3329 66.7802 26.5232C67.2241 26.0775 67.6981 25.7804 68.3451 26.0549C68.9828 26.3257 69.1257 26.8561 69.1182 27.4936C69.0994 28.8796 69.1088 30.2657 69.1144 31.6517C69.1182 32.4472 69.3213 32.6503 70.1132 32.654C71.5239 32.6597 72.9327 32.6653 74.3434 32.6522C74.9698 32.6465 75.4664 32.8459 75.6939 33.4495C75.9159 34.0419 75.6977 34.4971 75.2406 34.9465C72.4061 37.728 69.5922 40.5301 66.7915 43.3454C66.325 43.8155 65.8322 44.0224 65.172 44.0093C63.528 43.9754 61.8822 44.0149 60.2383 43.9886C59.6759 43.9792 59.2677 44.1672 58.8765 44.5659C55.6112 47.8796 52.3271 51.1763 49.0523 54.4806C48.7307 54.8059 48.3959 55.0861 47.888 55.0918L47.8862 55.0936ZM62.8791 41.5193C63.3475 41.5193 63.8177 41.5325 64.2861 41.5155C64.6246 41.5024 64.9801 41.6077 65.2773 41.3068C66.9419 39.6218 68.6179 37.948 70.2862 36.2667C70.5063 36.0448 70.6982 35.8135 70.5326 35.4618C70.3765 35.1289 70.1 35.0763 69.7765 35.0782C69.1426 35.0857 68.5088 35.0951 67.8768 35.0763C67.0642 35.0518 66.5733 34.5591 66.5488 33.7504C66.5319 33.1656 66.5357 32.5769 66.5488 31.9921C66.5563 31.6385 66.498 31.3226 66.1407 31.174C65.7758 31.0217 65.5218 31.2398 65.2811 31.4862C63.7048 33.0941 62.1305 34.702 60.5449 36.3025C60.2985 36.5526 60.1781 36.814 60.1837 37.1713C60.2007 38.3204 60.2138 39.4694 60.1819 40.6185C60.1612 41.3106 60.4866 41.5381 61.1186 41.5212C61.7054 41.5061 62.2904 41.5174 62.8772 41.5174L62.8791 41.5193Z" fill="#3D3D63"/>
</g>
<defs>
<clipPath id="clip0_21_8226">
<rect width="64.9432" height="65" fill="white" transform="translate(15.459 20.9102)"/>
</clipPath>
</defs>
</svg>
