<svg width="9" height="14" viewBox="0 0 9 14" fill="none" xmlns="http://www.w3.org/2000/svg">
<path d="M0.833197 0.983621C0.720571 1.09133 0.631218 1.21927 0.570252 1.36012C0.509286 1.50096 0.477905 1.65195 0.477905 1.80443C0.477905 1.95691 0.509286 2.1079 0.570252 2.24875C0.631218 2.38959 0.720571 2.51753 0.833197 2.62524L5.54702 7.14262L0.833197 11.66C0.606037 11.8777 0.47842 12.1729 0.47842 12.4808C0.47842 12.7887 0.606037 13.0839 0.833197 13.3016C1.06036 13.5193 1.36845 13.6416 1.6897 13.6416C2.01096 13.6416 2.31905 13.5193 2.54621 13.3016L8.12262 7.95761C8.23524 7.84989 8.32459 7.72195 8.38556 7.58111C8.44653 7.44026 8.47791 7.28928 8.47791 7.13679C8.47791 6.98431 8.44653 6.83333 8.38556 6.69248C8.32459 6.55163 8.23524 6.42369 8.12262 6.31598L2.54621 0.971978C2.08455 0.529555 1.30701 0.529555 0.833197 0.983621Z" fill="white"/>
</svg>
