<svg width="8" height="13" viewBox="0 0 8 13" fill="none" xmlns="http://www.w3.org/2000/svg">
<path d="M0.355291 0.342019C0.242666 0.44973 0.153312 0.57767 0.0923468 0.718516C0.0313812 0.859362 0 1.01035 0 1.16283C0 1.31531 0.0313812 1.4663 0.0923468 1.60714C0.153312 1.74799 0.242666 1.87593 0.355291 1.98364L5.06911 6.50101L0.355291 11.0184C0.128132 11.2361 0.000514428 11.5313 0.000514428 11.8392C0.000514428 12.1471 0.128132 12.4423 0.355291 12.66C0.582451 12.8777 0.890546 13 1.2118 13C1.53305 13 1.84114 12.8777 2.0683 12.66L7.64471 7.316C7.75734 7.20829 7.84669 7.08035 7.90765 6.93951C7.96862 6.79866 8 6.64768 8 6.49519C8 6.34271 7.96862 6.19172 7.90765 6.05088C7.84669 5.91003 7.75734 5.78209 7.64471 5.67438L2.0683 0.330376C1.60664 -0.112047 0.829104 -0.112047 0.355291 0.342019Z" fill="#4EAAF3"/>
</svg>
