<svg width="59" height="422" viewBox="0 0 59 422" fill="none" xmlns="http://www.w3.org/2000/svg">
<path d="M0.139647 392.548C0.139647 388.508 0.693032 385.215 1.7998 382.67C2.90657 380.069 4.34538 377.8 6.11621 375.863L14.334 375.863C13.4486 377.081 12.4801 378.464 11.4287 380.014C10.3773 381.508 9.46419 383.279 8.68945 385.326C7.85937 387.318 7.44433 389.726 7.44433 392.548C7.44433 396.698 8.38509 400.406 10.2666 403.671C12.1481 406.936 14.749 409.509 18.0693 411.391C21.3343 413.272 25.042 414.213 29.1924 414.213C33.3428 414.213 37.0505 413.272 40.3154 411.391C43.5804 409.509 46.1813 406.936 48.1182 403.671C49.9997 400.406 50.9404 396.698 50.9404 392.548C50.9404 388.287 50.2487 384.662 48.8652 381.674C47.4264 378.63 45.96 376.14 44.4658 374.203L51.9365 374.203C53.652 376.14 55.1462 378.686 56.4189 381.84C57.6364 384.939 58.2451 388.508 58.2451 392.548C58.2451 396.754 57.498 400.627 56.0039 404.169C54.4544 407.711 52.3516 410.81 49.6953 413.466C47.0391 416.122 43.9678 418.197 40.4814 419.691C36.9398 421.13 33.1768 421.85 29.1924 421.85C25.208 421.85 21.4727 421.13 17.9863 419.691C14.4447 418.197 11.3457 416.122 8.68945 413.466C6.0332 410.81 3.95801 407.711 2.46387 404.169C0.914387 400.627 0.139647 396.754 0.139647 392.548ZM14.666 344.237C14.666 340.032 15.6621 336.296 17.6543 333.031C19.6465 329.766 22.3027 327.221 25.623 325.395C28.9434 323.513 32.568 322.572 36.4971 322.572C40.4261 322.572 44.0508 323.513 47.3711 325.395C50.6361 327.221 53.2646 329.766 55.2568 333.031C57.249 336.296 58.2451 340.032 58.2451 344.237C58.2451 348.443 57.249 352.178 55.2568 355.443C53.2646 358.708 50.6361 361.282 47.3711 363.163C44.0508 364.989 40.4261 365.902 36.4971 365.902C32.568 365.902 28.9434 364.989 25.623 363.163C22.3027 361.282 19.6465 358.708 17.6543 355.443C15.6621 352.178 14.666 348.443 14.666 344.237ZM21.3066 344.237C21.3066 347.17 22.026 349.743 23.4648 351.957C24.8483 354.171 26.7021 355.886 29.0264 357.104C31.2952 358.266 33.7855 358.847 36.4971 358.847C39.1533 358.847 41.6436 358.266 43.9678 357.104C46.2367 355.886 48.0905 354.171 49.5293 351.957C50.9128 349.743 51.6045 347.17 51.6045 344.237C51.6045 341.249 50.9128 338.676 49.5293 336.518C48.0905 334.304 46.2366 332.616 43.9678 331.454C41.6436 330.237 39.1533 329.628 36.4971 329.628C33.7855 329.628 31.2952 330.237 29.0264 331.454C26.7021 332.616 24.8483 334.304 23.4648 336.518C22.026 338.676 21.3066 341.249 21.3066 344.237ZM15.4961 304.56L22.0537 304.56C20.9469 303.674 19.8402 302.54 18.7334 301.156C17.5713 299.773 16.6029 298.223 15.8281 296.508C15.0534 294.737 14.666 292.911 14.666 291.029C14.666 288.207 15.3024 285.634 16.5752 283.31C17.7926 280.985 19.6741 279.132 22.2197 277.748C24.71 276.365 27.8643 275.673 31.6826 275.673L57 275.673L57 282.479L32.3467 282.562C28.7497 282.562 26.0104 283.365 24.1289 284.97C22.2474 286.519 21.3066 288.926 21.3066 292.191C21.3066 294.405 22.1367 296.618 23.7969 298.832C25.4017 300.99 27.2832 302.899 29.4414 304.56L57 304.56L57 311.366L15.4961 311.366L15.4961 304.56ZM3.54296 251.352L15.4961 251.352L15.4961 239.232L21.8877 239.232L21.8877 251.352L46.209 251.352C47.9245 251.352 49.2803 250.909 50.2764 250.023C51.2725 249.138 51.7705 247.782 51.7705 245.956C51.7705 244.296 51.5768 242.912 51.1894 241.806C50.7467 240.699 50.2764 239.73 49.7783 238.9L55.3398 238.9C56.2253 240.007 56.917 241.197 57.415 242.47C57.9684 243.687 58.2451 245.347 58.2451 247.45C58.2451 250.992 57.1937 253.676 55.0908 255.502C52.9326 257.273 50.0827 258.158 46.541 258.158L21.8877 258.158L21.8877 266.127L19.8955 266.127C18.6781 263.415 16.6859 261.146 13.9189 259.32C11.0967 257.494 7.63801 255.889 3.54296 254.506L3.54296 251.352ZM14.666 209.765C14.666 207.385 15.2471 204.978 16.4092 202.543C17.5159 200.053 19.0654 197.922 21.0576 196.151L15.4961 196.151L15.4961 189.345L57 189.345L57 196.151L49.9443 196.151C52.1579 197.59 54.0947 199.555 55.7549 202.045C57.415 204.48 58.2451 207.274 58.2451 210.429C58.2451 213.97 57.3597 217.208 55.5889 220.141C53.7627 223.074 51.2448 225.425 48.0351 227.196C44.8255 228.912 41.1178 229.77 36.9121 229.77C32.319 229.77 28.3623 228.912 25.042 227.196C21.7217 225.425 19.1761 223.018 17.4053 219.975C15.5791 216.931 14.666 213.528 14.666 209.765ZM21.3066 208.52C21.3066 211.508 22.0537 214.053 23.5478 216.156C25.042 218.259 26.9788 219.892 29.3584 221.054C31.6826 222.16 34.2005 222.714 36.9121 222.714C39.5684 222.714 42.0309 222.16 44.2998 221.054C46.5133 219.947 48.2842 218.397 49.6123 216.405C50.9404 214.358 51.6045 212.006 51.6045 209.35C51.6045 206.804 50.9404 204.535 49.6123 202.543C48.2842 200.551 46.458 198.974 44.1338 197.812C41.7542 196.649 39.098 196.096 36.165 196.151L28.1963 196.234C26.0381 197.95 24.3503 199.804 23.1328 201.796C21.9154 203.733 21.3066 205.974 21.3066 208.52ZM14.666 156.474C14.666 153.43 15.1641 150.801 16.1601 148.588C17.1009 146.374 17.9586 144.853 18.7334 144.022L25.623 144.022C24.4609 145.572 23.4648 147.343 22.6348 149.335C21.7493 151.327 21.3066 153.707 21.3066 156.474C21.3066 159.407 22.026 161.98 23.4648 164.193C24.8483 166.407 26.7021 168.122 29.0264 169.34C31.2952 170.502 33.7855 171.083 36.4971 171.083C39.1533 171.083 41.6435 170.502 43.9678 169.34C46.2366 168.122 48.0905 166.407 49.5293 164.193C50.9127 161.98 51.6045 159.407 51.6045 156.474C51.6045 153.707 51.1894 151.327 50.3594 149.335C49.4739 147.343 48.4502 145.572 47.2881 144.022L54.1777 144.022C55.0078 144.853 55.8932 146.374 56.834 148.588C57.7747 150.801 58.2451 153.43 58.2451 156.474C58.2451 160.679 57.249 164.415 55.2568 167.68C53.2646 170.945 50.6361 173.518 47.3711 175.399C44.0508 177.226 40.4261 178.139 36.4971 178.139C32.568 178.139 28.9433 177.226 25.623 175.399C22.3027 173.518 19.6465 170.945 17.6543 167.68C15.6621 164.415 14.666 160.679 14.666 156.474ZM3.54296 121.361L15.4961 121.361L15.4961 109.242L21.8877 109.242L21.8877 121.361L46.209 121.361C47.9245 121.361 49.2803 120.919 50.2764 120.033C51.2724 119.148 51.7705 117.792 51.7705 115.966C51.7705 114.306 51.5768 112.922 51.1894 111.815C50.7467 110.709 50.2764 109.74 49.7783 108.91L55.3398 108.91C56.2252 110.017 56.917 111.207 57.415 112.479C57.9684 113.697 58.2451 115.357 58.2451 117.46C58.2451 121.002 57.1937 123.686 55.0908 125.512C52.9326 127.283 50.0827 128.168 46.541 128.168L21.8877 128.168L21.8877 136.137L19.8955 136.137C18.678 133.425 16.6859 131.156 13.9189 129.33C11.0967 127.504 7.63801 125.899 3.54296 124.516L3.54296 121.361ZM15.4961 38.0215L40.0664 38.0215C43.7187 38.0215 46.873 38.7962 49.5293 40.3457C52.1855 41.8952 54.2331 43.998 55.6719 46.6543C57.1107 49.3105 57.8301 52.2988 57.8301 55.6191C57.8301 58.9395 57.1107 61.9277 55.6719 64.584C54.2331 67.2402 52.1855 69.3431 49.5293 70.8926C46.873 72.4421 43.7187 73.2168 40.0664 73.2168L15.4961 73.2168L15.4961 66.1611L40.0664 66.1611C43.6634 66.1611 46.4303 65.1097 48.3672 63.0068C50.2487 60.8486 51.1894 58.3861 51.1894 55.6191C51.1894 52.8522 50.2487 50.4173 48.3672 48.3145C46.4303 46.1562 43.6634 45.0771 40.0664 45.0771L15.4961 45.0771L15.4961 38.0215ZM14.666 12.7871C14.666 10.3522 15.0257 8.08333 15.7451 5.98047C16.4092 3.8776 17.1009 2.35579 17.8203 1.41504L25.125 1.41504C24.2396 2.57715 23.3818 4.1543 22.5517 6.14648C21.7217 8.13867 21.3066 10.1862 21.3066 12.2891C21.3066 14.89 21.9153 16.8545 23.1328 18.1826C24.3502 19.4554 25.623 20.0918 26.9512 20.0918C28.0026 20.0918 29.0817 19.7321 30.1885 19.0127C31.2399 18.238 32.0976 16.9098 32.7617 15.0283L35.2519 8.05566C36.1927 5.34407 37.5485 3.32422 39.3193 1.99609C41.0902 0.667967 43.1653 0.00390467 45.5449 0.00390457C47.8691 0.00390446 49.9997 0.667967 51.9365 1.99609C53.8734 3.26888 55.4228 5.06738 56.5849 7.3916C57.6917 9.66048 58.2451 12.2891 58.2451 15.2773C58.2451 16.8822 58.0237 18.57 57.581 20.3408C57.1937 22.0563 56.7233 23.6058 56.1699 24.9893C55.5612 26.3727 55.0355 27.3965 54.5928 28.0605L47.2881 28.0605C47.8415 27.2858 48.4778 26.2067 49.1972 24.8232C49.8613 23.3844 50.4424 21.8626 50.9404 20.2578C51.3831 18.653 51.6045 17.1589 51.6045 15.7754C51.6045 13.1745 51.0234 11.127 49.8613 9.63281C48.6992 8.08333 47.2604 7.30859 45.5449 7.30859C44.2168 7.30859 43.1653 7.83431 42.3906 8.88574C41.6159 9.88183 40.8688 11.3483 40.1494 13.2852L37.9082 19.4277C36.6907 22.6374 35.1689 24.7679 33.3428 25.8193C31.4612 26.8708 29.3307 27.3965 26.9512 27.3965C23.4095 27.3965 20.4765 26.0684 18.1523 23.4121C15.8281 20.7559 14.666 17.2142 14.666 12.7871Z" fill="#858585" fill-opacity="0.07"/>
</svg>
