<svg width="74" height="75" viewBox="0 0 74 75" fill="none" xmlns="http://www.w3.org/2000/svg">
<circle cx="37.2445" cy="37.2445" r="36.4945" stroke="#CDCDCD" stroke-width="0.5" stroke-dasharray="3 3"/>
<g filter="url(#filter0_d_2_1153)">
<circle cx="37.5329" cy="37.5329" r="28.5329" fill="#DAF2FF"/>
</g>
<path d="M27.3702 42.943V42.848L26.7802 42.8222C26.7799 42.8222 26.7797 42.8222 26.7794 42.8222C23.2226 42.7297 20.4813 40.1277 20.3002 36.6825C20.1251 33.3473 22.5976 30.4581 26.0449 29.984L26.045 29.984L26.0507 29.9832C26.3634 29.9401 26.6055 29.9068 26.7909 29.8624C26.9779 29.8176 27.1221 29.7585 27.2289 29.6542C27.3366 29.5492 27.3945 29.4099 27.4348 29.2314C27.4744 29.0554 27.4997 28.8272 27.5321 28.5344L27.5328 28.528L27.5328 28.528C28.2263 22.2436 34.6541 17.9193 40.7326 19.6472L40.7598 19.5518L40.7326 19.6472C45.0161 20.8647 47.915 24.2472 48.4576 28.6583C48.4915 28.935 48.5187 29.1509 48.5578 29.317C48.5971 29.4836 48.6513 29.6144 48.749 29.7112C48.8472 29.8084 48.9769 29.8592 49.1405 29.8928C49.303 29.9262 49.5131 29.9451 49.7811 29.9683L49.7812 29.9683C52.8512 30.2326 55.231 32.5496 55.667 35.7088L55.667 35.7088C56.0564 38.5216 54.2052 41.4831 51.3841 42.4283L51.3841 42.4283C50.9673 42.5682 50.5309 42.6562 50.0808 42.7314C49.9193 42.7584 49.7551 42.7838 49.5896 42.8095C49.2968 42.8549 48.9995 42.901 48.7042 42.9575L48.623 42.9731V43.0557V43.0574V43.0591V43.0608V43.0625V43.0642V43.0659V43.0676V43.0694V43.0711V43.0728V43.0745V43.0762V43.0779V43.0796V43.0813V43.0831V43.0848V43.0865V43.0882V43.0899V43.0917V43.0934V43.0951V43.0968V43.0986V43.1003V43.102V43.1038V43.1055V43.1072V43.109V43.1107V43.1125V43.1142V43.1159V43.1177V43.1194V43.1212V43.1229V43.1247V43.1264V43.1282V43.1299V43.1317V43.1335V43.1352V43.137V43.1387V43.1405V43.1423V43.144V43.1458V43.1476V43.1493V43.1511V43.1529V43.1546V43.1564V43.1582V43.16V43.1618V43.1635V43.1653V43.1671V43.1689V43.1707V43.1724V43.1742V43.176V43.1778V43.1796V43.1814V43.1832V43.185V43.1868V43.1886V43.1904V43.1922V43.194V43.1958V43.1976V43.1994V43.2012V43.203V43.2048V43.2066V43.2084V43.2102V43.212V43.2139V43.2157V43.2175V43.2193V43.2211V43.2229V43.2248V43.2266V43.2284V43.2302V43.2321V43.2339V43.2357V43.2375V43.2394V43.2412V43.243V43.2449V43.2467V43.2485V43.2504V43.2522V43.2541V43.2559V43.2577V43.2596V43.2614V43.2633V43.2651V43.267V43.2688V43.2707V43.2725V43.2744V43.2762V43.2781V43.2799V43.2818V43.2836V43.2855V43.2873V43.2892V43.2911V43.2929V43.2948V43.2967V43.2985V43.3004V43.3023V43.3041V43.306V43.3079V43.3097V43.3116V43.3135V43.3154V43.3172V43.3191V43.321V43.3229V43.3247V43.3266V43.3285V43.3304V43.3323V43.3342V43.336V43.3379V43.3398V43.3417V43.3436V43.3455V43.3474V43.3493V43.3512V43.3531V43.3549V43.3568V43.3587V43.3606V43.3625V43.3644V43.3663V43.3682V43.3701V43.372V43.3739V43.3759V43.3778V43.3797V43.3816V43.3835V43.3854V43.3873V43.3892V43.3911V43.393V43.395V43.3969V43.3988V43.4007V43.4026V43.4045V43.4065V43.4084V43.4103V43.4122V43.4142V43.4161V43.418V43.4199V43.4219V43.4238V43.4257V43.4276V43.4296V43.4315V43.4334V43.4354V43.4373V43.4392V43.4412V43.4431V43.445V43.447V43.4489V43.4509V43.4528V43.4547V43.4567V43.4586V43.4606V43.4625V43.4645V43.4664V43.4683V43.4703V43.4722V43.4742V43.4761V43.4781V43.48V43.482V43.4839V43.4859V43.4878V43.4898V43.4918V43.4937V43.4957V43.4976V43.4996V43.5015V43.5035V43.5055V43.5074V43.5094V43.5113V43.5133V43.5153V43.5172V43.5192V43.5212V43.5231V43.5251V43.5271V43.529V43.531V43.533V43.535V43.5369V43.5389V43.5409V43.5428V43.5448V43.5468V43.5488V43.5507V43.5527V43.5547V43.5567V43.5587V43.5606V43.5626V43.5646V43.5666V43.5686V43.5705V43.5725V43.5745V43.5765V43.5785V43.5805V43.5824V43.5844V43.5864V43.5884V43.5904V43.5924V43.5944V43.5964V43.5984V43.6003V43.6023V43.6043V43.6063V43.6083V43.6103V43.6123V43.6143V43.6163V43.6183V43.6203V43.6223V43.6243V43.6263V43.6283V43.6303V43.6323V43.6343V43.6363V43.6383V43.6403V43.6423V43.6443V43.6463V43.6483V43.6503V43.6523V43.6543V43.6563V43.6583V43.6603V43.6623V43.6644V43.6664V43.6684V43.6704V43.6724V43.6744V43.6764V43.6784V43.6804V43.6824V43.6845V43.6865V43.6885V43.6905V43.6925V43.6945V43.6965V43.6986V43.7006V43.7026V43.7046V43.7066V43.7086V43.7107V43.7127V43.7147V43.7167V43.7187V43.7208V43.7228V43.7248V43.7268V43.7288V43.7309V43.7329V43.7349V43.7369V43.739V43.741V43.743V43.745V43.7471V43.7491V43.7511V43.7531V43.7552V43.7572V43.7592V43.7612V43.7633V43.7653V43.7673V43.7693V43.7714V43.7734V43.7754V43.7775V43.7795V43.7815V43.7836V43.7856V43.7876V43.7896V43.7917V43.7937V43.7957V43.7978V43.7998V43.8018V43.8039V43.8059V43.8079V43.81V43.812V43.814V43.8161V43.8181V43.8202V43.8222V43.8242V43.8263V43.8283V43.8303V43.8324V43.8344V43.8364V43.8385V43.8405V43.8426V43.8446V43.8466V43.8487V43.8507V43.8527V43.8548V43.8568V43.8589V43.8609V43.8629V43.865V43.867V43.8691V43.8711V43.8731V43.8752V43.8772V43.8793V43.8813V43.8834V43.8854V43.8874V43.8895V43.8915V43.8936V43.8956V43.8976V43.8997V43.9017V43.9038V43.9058V43.9079V43.9099V43.9119V43.914V43.916V43.9181V43.9201V43.9222V43.9242V43.9262V43.9283V43.9303V43.9324V43.9344V43.9365V43.9385V43.9406V43.9426V43.9446V43.9467V43.9487V43.9508V43.9528V43.9549V43.9569V43.959V43.961V43.963V43.9651V43.9671V43.9692V43.9712V43.9733V43.9753V43.9774V43.9794V43.9814V43.9835V43.9855V43.9876V43.9896V43.9917V43.9937V43.9958V43.9978V43.9998V44.0019V44.0039V44.006V44.008V44.0101V44.0121V44.0142V44.0162V44.0182V44.0203V44.0223V44.0244V44.0264V44.0285V44.0305V44.0326V44.0346V44.0366V44.0387V44.0407V44.0428V44.0448V44.0469V44.1372L48.7129 44.1463C54.1345 44.6969 58.4397 39.2095 56.6888 33.9897C55.6917 31.0118 53.5782 29.2334 50.4705 28.6812L50.4702 28.6811C50.4304 28.6742 50.394 28.6685 50.3592 28.6632C50.3108 28.6557 50.2655 28.6487 50.2181 28.6392C50.141 28.6238 50.0758 28.6046 50.0207 28.5747C49.9198 28.52 49.8315 28.4182 49.7968 28.168L49.7968 28.1679C49.0471 22.7854 44.9161 18.7441 39.4633 18.0038L39.4633 18.0038C33.1467 17.1479 27.0944 21.6823 26.2083 27.9853L26.2083 27.9853C26.1682 28.2703 26.0917 28.4211 25.9855 28.513C25.8761 28.6077 25.7188 28.6551 25.4782 28.6943L25.4781 28.6943C20.7895 29.4607 17.9114 34.026 19.214 38.6038L19.2973 38.5801L19.214 38.6038C20.2027 42.0778 23.8832 44.6166 27.2845 44.1251L27.3702 44.1127V44.0261V44.0241V44.0222V44.0203V44.0183V44.0164V44.0144V44.0125V44.0106V44.0086V44.0067V44.0047V44.0028V44.0009V43.9989V43.997V43.995V43.9931V43.9912V43.9892V43.9873V43.9853V43.9834V43.9815V43.9795V43.9776V43.9756V43.9737V43.9717V43.9698V43.9678V43.9659V43.964V43.962V43.9601V43.9581V43.9562V43.9542V43.9523V43.9503V43.9484V43.9464V43.9445V43.9426V43.9406V43.9387V43.9367V43.9348V43.9328V43.9309V43.9289V43.927V43.925V43.9231V43.9211V43.9192V43.9172V43.9153V43.9133V43.9114V43.9094V43.9074V43.9055V43.9035V43.9016V43.8996V43.8977V43.8957V43.8938V43.8918V43.8899V43.8879V43.8859V43.884V43.882V43.8801V43.8781V43.8762V43.8742V43.8722V43.8703V43.8683V43.8664V43.8644V43.8624V43.8605V43.8585V43.8565V43.8546V43.8526V43.8507V43.8487V43.8467V43.8448V43.8428V43.8408V43.8389V43.8369V43.8349V43.833V43.831V43.829V43.8271V43.8251V43.8231V43.8211V43.8192V43.8172V43.8152V43.8133V43.8113V43.8093V43.8073V43.8054V43.8034V43.8014V43.7994V43.7975V43.7955V43.7935V43.7915V43.7896V43.7876V43.7856V43.7836V43.7816V43.7796V43.7777V43.7757V43.7737V43.7717V43.7697V43.7677V43.7658V43.7638V43.7618V43.7598V43.7578V43.7558V43.7538V43.7519V43.7499V43.7479V43.7459V43.7439V43.7419V43.7399V43.7379V43.7359V43.7339V43.7319V43.7299V43.7279V43.7259V43.7239V43.7219V43.7199V43.7179V43.7159V43.7139V43.7119V43.7099V43.7079V43.7059V43.7039V43.7019V43.6999V43.6979V43.6959V43.6939V43.6919V43.6899V43.6879V43.6859V43.6838V43.6818V43.6798V43.6778V43.6758V43.6738V43.6718V43.6697V43.6677V43.6657V43.6637V43.6617V43.6597V43.6576V43.6556V43.6536V43.6516V43.6495V43.6475V43.6455V43.6435V43.6414V43.6394V43.6374V43.6354V43.6333V43.6313V43.6293V43.6272V43.6252V43.6232V43.6211V43.6191V43.6171V43.615V43.613V43.611V43.6089V43.6069V43.6048V43.6028V43.6007V43.5987V43.5967V43.5946V43.5926V43.5905V43.5885V43.5864V43.5844V43.5823V43.5803V43.5782V43.5762V43.5741V43.5721V43.57V43.568V43.5659V43.5638V43.5618V43.5597V43.5577V43.5556V43.5535V43.5515V43.5494V43.5473V43.5453V43.5432V43.5411V43.5391V43.537V43.5349V43.5329V43.5308V43.5287V43.5266V43.5246V43.5225V43.5204V43.5183V43.5162V43.5142V43.5121V43.51V43.5079V43.5058V43.5037V43.5017V43.4996V43.4975V43.4954V43.4933V43.4912V43.4891V43.487V43.4849V43.4828V43.4807V43.4786V43.4765V43.4745V43.4723V43.4702V43.4681V43.466V43.4639V43.4618V43.4597V43.4576V43.4555V43.4534V43.4513V43.4492V43.4471V43.4449V43.4428V43.4407V43.4386V43.4365V43.4344V43.4322V43.4301V43.428V43.4259V43.4237V43.4216V43.4195V43.4174V43.4152V43.4131V43.411V43.4088V43.4067V43.4046V43.4024V43.4003V43.3982V43.396V43.3939V43.3917V43.3896V43.3874V43.3853V43.3832V43.381V43.3789V43.3767V43.3746V43.3724V43.3703V43.3681V43.3659V43.3638V43.3616V43.3595V43.3573V43.3551V43.353V43.3508V43.3486V43.3465V43.3443V43.3421V43.34V43.3378V43.3356V43.3334V43.3313V43.3291V43.3269V43.3247V43.3226V43.3204V43.3182V43.316V43.3138V43.3116V43.3094V43.3073V43.3051V43.3029V43.3007V43.2985V43.2963V43.2941V43.2919V43.2897V43.2875V43.2853V43.2831V43.2809V43.2787V43.2765V43.2743V43.272V43.2698V43.2676V43.2654V43.2632V43.261V43.2588V43.2565V43.2543V43.2521V43.2499V43.2476V43.2454V43.2432V43.241V43.2387V43.2365V43.2343V43.232V43.2298V43.2275V43.2253V43.2231V43.2208V43.2186V43.2163V43.2141V43.2118V43.2096V43.2073V43.2051V43.2028V43.2006V43.1983V43.1961V43.1938V43.1915V43.1893V43.187V43.1847V43.1825V43.1802V43.1779V43.1757V43.1734V43.1711V43.1689V43.1666V43.1643V43.162V43.1597V43.1574V43.1552V43.1529V43.1506V43.1483V43.146V43.1437V43.1414V43.1391V43.1368V43.1345V43.1322V43.1299V43.1276V43.1253V43.123V43.1207V43.1184V43.1161V43.1138V43.1115V43.1092V43.1068V43.1045V43.1022V43.0999V43.0976V43.0952V43.0929V43.0906V43.0882V43.0859V43.0836V43.0812V43.0789V43.0766V43.0742V43.0719V43.0695V43.0672V43.0649V43.0625V43.0602V43.0578V43.0555V43.0531V43.0507V43.0484V43.046V43.0437V43.0413V43.0389V43.0366V43.0342V43.0318V43.0295V43.0271V43.0247V43.0224V43.02V43.0176V43.0152V43.0128V43.0104V43.0081V43.0057V43.0033V43.0009V42.9985V42.9961V42.9937V42.9913V42.9889V42.9865V42.9841V42.9817V42.9793V42.9769V42.9745V42.9721V42.9697V42.9672V42.9648V42.9624V42.96V42.9576V42.9551V42.9527V42.9503V42.9478V42.9454V42.943ZM39.4499 18.1029C44.8594 18.8374 48.9544 22.8448 49.6978 28.1817L26.3073 27.9992C27.1856 21.7513 33.1872 17.2542 39.4499 18.1029ZM51.4159 42.5231C54.2809 41.5631 56.1622 38.5572 55.7661 35.6951L50.453 28.7796C53.5257 29.3256 55.6088 31.0793 56.594 34.0215C58.3225 39.1744 54.0702 44.5899 48.723 44.0469V43.0557C49.0169 42.9995 49.3107 42.954 49.602 42.9088C50.2254 42.8121 50.8375 42.7172 51.4159 42.5231Z" fill="#3D3D63" stroke="#3D3D63" stroke-width="0.2"/>
<path d="M24.3533 50.0544L24.3516 49.9545C24.1391 49.9581 23.9865 49.9407 23.8631 49.8784C23.743 49.8177 23.6371 49.7073 23.5355 49.495L23.5354 49.4948C23.0333 48.4488 21.8683 47.9549 20.8118 48.2291C19.679 48.522 18.8984 49.5087 18.9046 50.647C18.9107 51.7916 19.6892 52.7507 20.8376 53.0416L20.8377 53.0416C21.8938 53.3084 23.0368 52.8071 23.5471 51.7523C23.6429 51.5554 23.7416 51.4523 23.8527 51.3953C23.9668 51.3368 24.1081 51.3192 24.3058 51.3221L24.3059 51.3221C25.6912 51.3414 27.0763 51.3399 28.4612 51.3251H28.4613C29.4513 51.3142 30.2064 50.7019 30.3498 49.788L30.3498 49.788C30.3824 49.5793 30.3782 49.3607 30.3743 49.1535C30.373 49.0869 30.3718 49.0215 30.3718 48.958V48.9475V48.9369V48.9264V48.9158V48.9053V48.8948V48.8842V48.8737V48.8632V48.8526V48.8421V48.8316V48.821V48.8105V48.7999V48.7894V48.7789V48.7683V48.7578V48.7473V48.7367V48.7262V48.7157V48.7051V48.6946V48.6841V48.6735V48.663V48.6524V48.6419V48.6314V48.6208V48.6103V48.5998V48.5892V48.5787V48.5682V48.5576V48.5471V48.5365V48.526V48.5155V48.5049V48.4944V48.4839V48.4733V48.4628V48.4523V48.4417V48.4312V48.4206V48.4101V48.3996V48.389V48.3785V48.368V48.3574V48.3469V48.3364V48.3258V48.3153V48.3047V48.2942V48.2837V48.2731V48.2626V48.2521V48.2415V48.231V48.2204V48.2099V48.1994V48.1888V48.1783V48.1678V48.1572V48.1467V48.1362V48.1256V48.1151V48.1045V48.094V48.0835V48.0729V48.0624V48.0518V48.0413V48.0308V48.0202V48.0097V47.9992V47.9886V47.9781V47.9675V47.957V47.9465V47.9359V47.9254V47.9148V47.9043V47.8938V47.8832V47.8727V47.8622V47.8516V47.8411V47.8305V47.82V47.8095V47.7989V47.7884V47.7778V47.7673V47.7568V47.7462V47.7357V47.7251V47.7146V47.704V47.6935V47.683V47.6724V47.6619V47.6513V47.6408V47.6303V47.6197V47.6092V47.5986V47.5881V47.5775V47.567V47.5565V47.5459V47.5354V47.5248V47.5143V47.5037V47.4932V47.4827V47.4721V47.4616V47.451V47.4405V47.4299V47.4194V47.4089V47.3983V47.3878V47.3772V47.3667V47.3561V47.3456V47.335V47.3245V47.3139V47.3034V47.2929V47.2823V47.2718V47.2612V47.2507V47.2401V47.2296V47.219V47.2085V47.1979V47.1874V47.1768V47.1663V47.1557V47.1452V47.1346V47.1241V47.1135V47.103V47.0924V47.0819V47.0714V47.0608V47.0503V47.0397V47.0292V47.0186V47.008V46.9975V46.9869V46.9764V46.9658V46.9553V46.9447V46.9342V46.9236V46.9131V46.9025V46.892V46.8814V46.8709V46.8603V46.8498V46.8392V46.8287V46.8181V46.8076V46.797V46.7864V46.7759V46.7653V46.7548V46.7442V46.7337V46.7231V46.7126V46.702V46.6914V46.6809V46.6703V46.6598V46.6492V46.6387V46.6281V46.6175V46.607V46.5964V46.5859V46.5753V46.5647V46.5542V46.5436V46.5331V46.5225V46.5119V46.5014V46.4908V46.4803V46.4697V46.4591V46.4486V46.438V46.4274V46.4169V46.4063V46.3958V46.3852V46.3746V46.3641V46.3535V46.3429V46.3324V46.3218V46.3112V46.3007V46.2901V46.2795V46.269V46.2584V46.2478V46.2373V46.2267V46.2161V46.2056V46.195V46.1844V46.1739V46.1633V46.1527V46.1422V46.1316V46.121V46.1104V46.0999V46.0893V46.0787V46.0682V46.0576V46.047V46.0364V46.0259V46.0153V46.0047V45.9941V45.9836V45.973V45.9624V45.9518V45.9413V45.9307V45.9201V45.9095V45.899V45.8884V45.8778V45.8672V45.8567V45.8461V45.8355V45.8249V45.8143V45.8038V45.7932V45.7826V45.772V45.7614V45.7509V45.7403V45.7297V45.7191V45.7085V45.6979V45.6874V45.6768V45.6662V45.6556V45.645V45.6344V45.6239V45.6133V45.6027V45.5921V45.5815V45.5709V45.5603V45.5497V45.5392V45.5286V45.518V45.5074V45.4968V45.4862V45.4756V45.465V45.4544V45.4439V45.4333V45.4227V45.4121V45.4015V45.3909V45.3803V45.3697V45.3591V45.3485V45.3379V45.3273V45.3167V45.3061V45.2955V45.2849V45.2743V45.2637V45.2531V45.2425V45.2319V45.2213V45.2107V45.2002V45.1895V45.1789V45.1683V45.1577V45.1471V45.1365V45.1259V45.1153V45.1047V45.0941V45.0835V45.0729V45.0623V45.0517V45.0411V45.0305V45.0199V45.0093V44.9987V44.9881V44.9775V44.9669V44.9562V44.9456V44.935V44.9244V44.9138V44.9032V44.8926V44.882V44.8714V44.8607V44.8501V44.8395V44.8289V44.8183V44.8077V44.7971V44.7864V44.7758V44.7652V44.7546V44.744V44.7333V44.7227V44.7121V44.7015V44.6909V44.6803V44.6696V44.659V44.6484V44.6378V44.6271V44.6165V44.6059V44.5953V44.5846V44.574V44.5634V44.5528V44.5421V44.5315V44.5209V44.5103V44.4996V44.489V44.4784V44.4677V44.4571V44.4465V44.4359V44.4252V44.4146V44.404V44.3933V44.3827V44.3721V44.3614V44.3508V44.3402V44.3295V44.3189V44.3082V44.2976V44.287V44.2763V44.2657V44.255V44.2444V44.2338V44.2231V44.2125V44.2018V44.1912V44.1806V44.1699V44.1593V44.1486V44.138V44.1273V44.1167V44.106V44.0954V44.0848V44.0741V44.0635V44.0528V44.0422V44.0315V44.0209V44.0102V43.9996V43.9889V43.9782V43.9676V43.9569V43.9463V43.9356V43.925V43.9143V43.9037V43.893V43.8823V43.8717V43.861V43.8504V43.8397V43.8291V43.8184V43.8077V43.7971V43.7864V43.7757V43.7651V43.7544V43.7438V43.7331V43.7224V43.7118V43.7011V43.6904V43.6798V43.6691V43.6584V43.6477V43.6371V43.6264V43.6157V43.6051V43.5944V43.5837V43.573V43.5624V43.5517V43.541V43.441H30.2718H30.2693H30.2668H30.2643H30.2619H30.2594H30.2569H30.2545H30.252H30.2495H30.2471H30.2446H30.2422H30.2397H30.2373H30.2348H30.2324H30.2299H30.2275H30.225H30.2226H30.2201H30.2177H30.2153H30.2128H30.2104H30.208H30.2055H30.2031H30.2007H30.1983H30.1959H30.1934H30.191H30.1886H30.1862H30.1838H30.1814H30.179H30.1765H30.1741H30.1717H30.1693H30.1669H30.1645H30.1621H30.1597H30.1573H30.155H30.1526H30.1502H30.1478H30.1454H30.143H30.1406H30.1382H30.1359H30.1335H30.1311H30.1287H30.1264H30.124H30.1216H30.1192H30.1169H30.1145H30.1121H30.1098H30.1074H30.1051H30.1027H30.1003H30.098H30.0956H30.0933H30.0909H30.0886H30.0862H30.0839H30.0815H30.0792H30.0768H30.0745H30.0722H30.0698H30.0675H30.0651H30.0628H30.0605H30.0581H30.0558H30.0535H30.0511H30.0488H30.0465H30.0442H30.0418H30.0395H30.0372H30.0349H30.0326H30.0302H30.0279H30.0256H30.0233H30.021H30.0187H30.0163H30.014H30.0117H30.0094H30.0071H30.0048H30.0025H30.0002H29.9979H29.9956H29.9933H29.991H29.9887H29.9864H29.9841H29.9818H29.9795H29.9772H29.9749H29.9726H29.9703H29.9681H29.9658H29.9635H29.9612H29.9589H29.9566H29.9543H29.9521H29.9498H29.9475H29.9452H29.9429H29.9407H29.9384H29.9361H29.9338H29.9316H29.9293H29.927H29.9247H29.9225H29.9202H29.9179H29.9157H29.9134H29.9111H29.9089H29.9066H29.9043H29.9021H29.8998H29.8975H29.8953H29.893H29.8908H29.8885H29.8862H29.884H29.8817H29.8795H29.8772H29.875H29.8727H29.8705H29.8682H29.866H29.8637H29.8614H29.8592H29.8569H29.8547H29.8524H29.8502H29.848H29.8457H29.8435H29.8412H29.839H29.8367H29.8345H29.8322H29.83H29.8278H29.8255H29.8233H29.821H29.8188H29.8165H29.8143H29.8121H29.8098H29.8076H29.8054H29.8031H29.8009H29.7986H29.7964H29.7942H29.7919H29.7897H29.7875H29.7852H29.783H29.7808H29.7785H29.7763H29.7741H29.7718H29.7696H29.7674H29.7651H29.7629H29.7607H29.7584H29.7562H29.754H29.7518H29.7495H29.7473H29.7451H29.7428H29.7406H29.7384H29.7362H29.7339H29.7317H29.7295H29.7272H29.725H29.7228H29.7206H29.7183H29.7161H29.7139H29.7117H29.7094H29.7072H29.705H29.7028H29.7005H29.6983H29.6961H29.6939H29.6916H29.6894H29.6872H29.6849H29.6827H29.6805H29.6783H29.676H29.6738H29.6716H29.6694H29.6671H29.6649H29.6627H29.6605H29.6582H29.656H29.6538H29.6516H29.6493H29.6471H29.6449H29.6427H29.6404H29.6382H29.636H29.6337H29.6315H29.6293H29.6271H29.6248H29.6226H29.6204H29.6182H29.6159H29.6137H29.6115H29.6092H29.607H29.6048H29.6025H29.6003H29.5981H29.5959H29.5936H29.5914H29.5892H29.5869H29.5847H29.5825H29.5802H29.578H29.5758H29.5735H29.5713H29.5691H29.5668H29.5646H29.5624H29.5601H29.5579H29.5556H29.5534H29.5512H29.5489H29.5467H29.5444H29.5422H29.54H29.5377H29.5355H29.5332H29.531H29.5288H29.5265H29.5243H29.522H29.5198H29.5175H29.5153H29.513H29.5108H29.5085H29.5063H29.504H29.5018H29.4995H29.4973H29.495H29.4928H29.4905H29.4883H29.486H29.4838H29.4815H29.4793H29.477H29.4747H29.4725H29.4702H29.468H29.4657H29.4634H29.4612H29.4589H29.4567H29.4544H29.4521H29.4499H29.4476H29.4453H29.4431H29.4408H29.4385H29.4363H29.434H29.4317H29.4294H29.4272H29.4249H29.4226H29.4203H29.4181H29.4158H29.4135H29.4112H29.4089H29.4067H29.4044H29.4021H29.3998H29.3975H29.3952H29.3929H29.3906H29.3884H29.3861H29.3838H29.3815H29.3792H29.3769H29.3746H29.3723H29.37H29.3677H29.3654H29.3631H29.3608H29.3585H29.3562H29.3539H29.3516H29.3493H29.347H29.3446H29.3423H29.34H29.3377H29.3354H29.3331H29.3308H29.3284H29.3261H29.3238H29.3215H29.3192H29.3168H29.3145H29.3122H29.3099H29.3075H29.3052H29.3029H29.3005H29.2982H29.2959H29.2935H29.2912H29.2888H29.2865H29.2842H29.2818H29.2795H29.2771H29.2748H29.2724H29.2701H29.2677H29.2654H29.263H29.2607H29.2583H29.2559H29.2536H29.2512H29.2488H29.2465H29.2441H29.2417H29.2394H29.237H29.2346H29.2323H29.2299H29.2275H29.2251H29.2227H29.2204H29.218H29.2156H29.2132H29.2108H29.2084H29.206H29.2037H29.2013H29.1989H29.1965H29.1941H29.1917H29.1893H29.1869H29.1845H29.182H29.1796H29.1772H29.1748H29.1724H29.17H29.1676H29.1651H29.1627H29.1603H29.1579H29.1554H29.153H29.1506H29.1482H29.1457H29.1433H29.1409H29.1384H29.136H29.1335H29.1311H29.1286H29.1262H29.1237H29.1213H29.1188H29.1164H29.1139H29.1115H29.109H29.1065H29.1041H29.1016H29.0991H29.0967H29.0942H29.0917H29.0892H28.9892V43.541C28.9892 44.0695 28.9877 44.5919 28.9861 45.1099C28.9819 46.4636 28.9779 47.7872 29.0026 49.1112C29.0084 49.4618 28.9406 49.6671 28.8148 49.7867C28.688 49.9073 28.4778 49.9647 28.1378 49.956C26.876 49.9218 25.6132 49.9307 24.3514 49.9545L24.3533 50.0544ZM24.3533 50.0544C25.6144 50.0307 26.8756 50.0218 28.1352 50.0559L19.0046 50.6464C18.9986 49.5559 19.7464 48.6078 20.8369 48.3259C21.8488 48.0633 22.9645 48.5366 23.4453 49.5381C23.6604 49.9877 23.9215 50.0619 24.3533 50.0544ZM21.37 51.72C21.3701 51.72 21.3702 51.72 21.3703 51.72L21.3696 51.82C22.0046 51.823 22.5447 51.2963 22.558 50.6583C22.5728 49.9892 22.0135 49.4328 21.3458 49.4506L21.37 51.72ZM21.37 51.72C21.9503 51.7228 22.4458 51.2398 22.458 50.6562L22.458 50.6561C22.4716 50.0441 21.959 49.5343 21.3485 49.5505L21.3484 49.5505C20.7677 49.5655 20.2832 50.0668 20.2885 50.6439C20.2954 51.2183 20.7955 51.7158 21.37 51.72Z" fill="#3D3D63" stroke="#3D3D63" stroke-width="0.2"/>
<path d="M45.7111 45.2079H45.6111L52.4338 51.6284C53.0554 52.6952 54.0911 53.2145 55.1549 52.9296C56.2602 52.6344 56.9917 51.7011 56.9783 50.6061L57.0783 50.6051C57.0783 50.605 57.0783 50.605 57.0783 50.6049C57.0659 49.4668 56.2669 48.4896 55.1339 48.2152L55.1338 48.2151C54.0493 47.9534 52.9731 48.5173 52.3595 49.5613C52.3096 49.6461 52.21 49.7362 52.0885 49.807C51.9673 49.8776 51.8381 49.9209 51.7374 49.9246C50.7969 49.9562 49.8551 49.9516 48.9114 49.947C48.6189 49.9456 48.3262 49.9442 48.0332 49.9438H48.0331C47.7595 49.9438 47.5592 49.9406 47.4093 49.9203C47.2593 49.9 47.1771 49.8646 47.1257 49.814C47.0746 49.7637 47.0388 49.6832 47.0182 49.5361C46.9975 49.3887 46.994 49.1916 46.9936 48.9221C46.9936 48.9221 46.9936 48.922 46.9936 48.922L46.9936 48.9151V48.9081V48.901V48.894V48.8869V48.8799V48.8729V48.8658V48.8588V48.8517V48.8447V48.8376V48.8306V48.8236V48.8165V48.8095V48.8024V48.7954V48.7884V48.7813V48.7743V48.7672V48.7602V48.7531V48.7461V48.7391V48.732V48.725V48.7179V48.7109V48.7039V48.6968V48.6898V48.6827V48.6757V48.6686V48.6616V48.6546V48.6475V48.6405V48.6334V48.6264V48.6193V48.6123V48.6053V48.5982V48.5912V48.5841V48.5771V48.5701V48.563V48.556V48.5489V48.5419V48.5348V48.5278V48.5208V48.5137V48.5067V48.4996V48.4926V48.4855V48.4785V48.4715V48.4644V48.4574V48.4503V48.4433V48.4362V48.4292V48.4222V48.4151V48.4081V48.401V48.394V48.3869V48.3799V48.3729V48.3658V48.3588V48.3517V48.3447V48.3376V48.3306V48.3236V48.3165V48.3095V48.3024V48.2954V48.2883V48.2813V48.2743V48.2672V48.2602V48.2531V48.2461V48.239V48.232V48.2249V48.2179V48.2109V48.2038V48.1968V48.1897V48.1827V48.1756V48.1686V48.1616V48.1545V48.1475V48.1404V48.1334V48.1263V48.1193V48.1122V48.1052V48.0982V48.0911V48.0841V48.077V48.07V48.0629V48.0559V48.0488V48.0418V48.0348V48.0277V48.0207V48.0136V48.0066V47.9995V47.9925V47.9854V47.9784V47.9713V47.9643V47.9573V47.9502V47.9432V47.9361V47.9291V47.922V47.915V47.9079V47.9009V47.8938V47.8868V47.8798V47.8727V47.8657V47.8586V47.8516V47.8445V47.8375V47.8304V47.8234V47.8163V47.8093V47.8022V47.7952V47.7881V47.7811V47.7741V47.767V47.76V47.7529V47.7459V47.7388V47.7318V47.7247V47.7177V47.7106V47.7036V47.6965V47.6895V47.6824V47.6754V47.6683V47.6613V47.6542V47.6472V47.6401V47.6331V47.626V47.619V47.612V47.6049V47.5979V47.5908V47.5838V47.5767V47.5697V47.5626V47.5556V47.5485V47.5415V47.5344V47.5274V47.5203V47.5133V47.5062V47.4992V47.4921V47.4851V47.478V47.471V47.4639V47.4569V47.4498V47.4428V47.4357V47.4287V47.4216V47.4146V47.4075V47.4005V47.3934V47.3864V47.3793V47.3723V47.3652V47.3582V47.3511V47.344V47.337V47.3299V47.3229V47.3158V47.3088V47.3017V47.2947V47.2876V47.2806V47.2735V47.2665V47.2594V47.2524V47.2453V47.2383V47.2312V47.2242V47.2171V47.21V47.203V47.1959V47.1889V47.1818V47.1748V47.1677V47.1607V47.1536V47.1466V47.1395V47.1325V47.1254V47.1183V47.1113V47.1042V47.0972V47.0901V47.0831V47.076V47.069V47.0619V47.0548V47.0478V47.0407V47.0337V47.0266V47.0196V47.0125V47.0055V46.9984V46.9913V46.9843V46.9772V46.9702V46.9631V46.9561V46.949V46.9419V46.9349V46.9278V46.9208V46.9137V46.9067V46.8996V46.8925V46.8855V46.8784V46.8714V46.8643V46.8572V46.8502V46.8431V46.8361V46.829V46.8219V46.8149V46.8078V46.8008V46.7937V46.7866V46.7796V46.7725V46.7655V46.7584V46.7513V46.7443V46.7372V46.7302V46.7231V46.716V46.709V46.7019V46.6949V46.6878V46.6807V46.6737V46.6666V46.6595V46.6525V46.6454V46.6384V46.6313V46.6242V46.6172V46.6101V46.603V46.596V46.5889V46.5819V46.5748V46.5677V46.5607V46.5536V46.5465V46.5395V46.5324V46.5253V46.5183V46.5112V46.5041V46.4971V46.49V46.4829V46.4759V46.4688V46.4618V46.4547V46.4476V46.4406V46.4335V46.4264V46.4194V46.4123V46.4052V46.3982V46.3911V46.384V46.377V46.3699V46.3628V46.3557V46.3487V46.3416V46.3345V46.3275V46.3204V46.3133V46.3063V46.2992V46.2921V46.2851V46.278V46.2709V46.2638V46.2568V46.2497V46.2426V46.2356V46.2285V46.2214V46.2144V46.2073V46.2002V46.1931V46.1861V46.179V46.1719V46.1649V46.1578V46.1507V46.1436V46.1366V46.1295V46.1224V46.1153V46.1083V46.1012V46.0941V46.087V46.08V46.0729V46.0658V46.0588V46.0517V46.0446V46.0375V46.0305V46.0234V46.0163V46.0092V46.0022V45.9951V45.988V45.9809V45.9738V45.9668V45.9597V45.9526V45.9455V45.9385V45.9314V45.9243V45.9172V45.9101V45.9031V45.896V45.8889V45.8818V45.8748V45.8677V45.8606V45.8535V45.8464V45.8394V45.8323V45.8252V45.8181V45.811V45.804V45.7969V45.7898V45.7827V45.7756V45.7686V45.7615V45.7544V45.7473V45.7402V45.7331V45.7261V45.719V45.7119V45.7048V45.6977V45.6906V45.6836V45.6765V45.6694V45.6623V45.6552V45.6481V45.6411V45.634V45.6269V45.6198V45.6127V45.6056V45.5985V45.5915V45.5844V45.5773V45.5702V45.5631V45.556V45.5489V45.5419V45.5348V45.5277V45.5206V45.5135V45.5064V45.4993V45.4922V45.4851V45.4781V45.471V45.4639V45.4568V45.4497V45.4426V45.4355V45.4284V45.4213V45.4142V45.4072V45.4001V45.393V45.3859V45.3788V45.3717V45.3646V45.3575V45.3504V45.3433V45.3362V45.3291V45.322V45.315V45.3079V45.2079H46.8936H46.8911H46.8886H46.8861H46.8836H46.8811H46.8786H46.8761H46.8736H46.8711H46.8686H46.8661H46.8636H46.8611H46.8586H46.8561H46.8536H46.8511H46.8487H46.8462H46.8437H46.8412H46.8388H46.8363H46.8338H46.8314H46.8289H46.8265H46.824H46.8215H46.8191H46.8166H46.8142H46.8118H46.8093H46.8069H46.8044H46.802H46.7996H46.7971H46.7947H46.7923H46.7898H46.7874H46.785H46.7826H46.7802H46.7778H46.7753H46.7729H46.7705H46.7681H46.7657H46.7633H46.7609H46.7585H46.7561H46.7537H46.7513H46.7489H46.7465H46.7442H46.7418H46.7394H46.737H46.7346H46.7322H46.7299H46.7275H46.7251H46.7228H46.7204H46.718H46.7157H46.7133H46.7109H46.7086H46.7062H46.7039H46.7015H46.6991H46.6968H46.6944H46.6921H46.6898H46.6874H46.6851H46.6827H46.6804H46.6781H46.6757H46.6734H46.671H46.6687H46.6664H46.6641H46.6617H46.6594H46.6571H46.6548H46.6524H46.6501H46.6478H46.6455H46.6432H46.6409H46.6386H46.6362H46.6339H46.6316H46.6293H46.627H46.6247H46.6224H46.6201H46.6178H46.6155H46.6132H46.6109H46.6086H46.6064H46.6041H46.6018H46.5995H46.5972H46.5949H46.5926H46.5903H46.5881H46.5858H46.5835H46.5812H46.579H46.5767H46.5744H46.5721H46.5699H46.5676H46.5653H46.5631H46.5608H46.5585H46.5563H46.554H46.5517H46.5495H46.5472H46.545H46.5427H46.5404H46.5382H46.5359H46.5337H46.5314H46.5292H46.5269H46.5247H46.5224H46.5202H46.5179H46.5157H46.5134H46.5112H46.5089H46.5067H46.5045H46.5022H46.5H46.4977H46.4955H46.4933H46.491H46.4888H46.4866H46.4843H46.4821H46.4799H46.4776H46.4754H46.4732H46.4709H46.4687H46.4665H46.4643H46.462H46.4598H46.4576H46.4554H46.4531H46.4509H46.4487H46.4465H46.4442H46.442H46.4398H46.4376H46.4354H46.4331H46.4309H46.4287H46.4265H46.4243H46.4221H46.4199H46.4176H46.4154H46.4132H46.411H46.4088H46.4066H46.4044H46.4022H46.3999H46.3977H46.3955H46.3933H46.3911H46.3889H46.3867H46.3845H46.3823H46.3801H46.3779H46.3756H46.3734H46.3712H46.369H46.3668H46.3646H46.3624H46.3602H46.358H46.3558H46.3536H46.3514H46.3492H46.347H46.3448H46.3426H46.3404H46.3382H46.336H46.3338H46.3316H46.3294H46.3272H46.325H46.3228H46.3206H46.3184H46.3162H46.314H46.3118H46.3095H46.3073H46.3051H46.3029H46.3007H46.2985H46.2963H46.2941H46.2919H46.2897H46.2875H46.2853H46.2831H46.2809H46.2787H46.2765H46.2743H46.2721H46.2699H46.2677H46.2655H46.2633H46.2611H46.2589H46.2567H46.2545H46.2523H46.2501H46.2479H46.2457H46.2435H46.2413H46.239H46.2368H46.2346H46.2324H46.2302H46.228H46.2258H46.2236H46.2214H46.2192H46.217H46.2148H46.2125H46.2103H46.2081H46.2059H46.2037H46.2015H46.1993H46.1971H46.1948H46.1926H46.1904H46.1882H46.186H46.1838H46.1816H46.1793H46.1771H46.1749H46.1727H46.1705H46.1682H46.166H46.1638H46.1616H46.1593H46.1571H46.1549H46.1527H46.1504H46.1482H46.146H46.1438H46.1415H46.1393H46.1371H46.1348H46.1326H46.1304H46.1281H46.1259H46.1237H46.1214H46.1192H46.117H46.1147H46.1125H46.1103H46.108H46.1058H46.1035H46.1013H46.099H46.0968H46.0945H46.0923H46.0901H46.0878H46.0856H46.0833H46.081H46.0788H46.0765H46.0743H46.072H46.0698H46.0675H46.0653H46.063H46.0607H46.0585H46.0562H46.0539H46.0517H46.0494H46.0471H46.0449H46.0426H46.0403H46.0381H46.0358H46.0335H46.0312H46.0289H46.0267H46.0244H46.0221H46.0198H46.0175H46.0153H46.013H46.0107H46.0084H46.0061H46.0038H46.0015H45.9992H45.9969H45.9946H45.9923H45.99H45.9877H45.9854H45.9831H45.9808H45.9785H45.9762H45.9739H45.9716H45.9693H45.9669H45.9646H45.9623H45.96H45.9577H45.9554H45.953H45.9507H45.9484H45.946H45.9437H45.9414H45.9391H45.9367H45.9344H45.932H45.9297H45.9274H45.925H45.9227H45.9203H45.918H45.9156H45.9133H45.9109H45.9086H45.9062H45.9039H45.9015H45.8991H45.8968H45.8944H45.892H45.8897H45.8873H45.8849H45.8825H45.8802H45.8778H45.8754H45.873H45.8706H45.8683H45.8659H45.8635H45.8611H45.8587H45.8563H45.8539H45.8515H45.8491H45.8467H45.8443H45.8419H45.8395H45.8371H45.8346H45.8322H45.8298H45.8274H45.825H45.8225H45.8201H45.8177H45.8153H45.8128H45.8104H45.808H45.8055H45.8031H45.8006H45.7982H45.7957H45.7933H45.7908H45.7884H45.7859H45.7835H45.781H45.7785H45.7761H45.7736H45.7711H45.7687H45.7662H45.7637H45.7612H45.7588H45.7563H45.7538H45.7513H45.7488H45.7463H45.7438H45.7413H45.7388H45.7363H45.7338H45.7313H45.7288H45.7263H45.7238H45.7212H45.7187H45.7162H45.7137H45.7111ZM49.1289 51.3256C50.0146 51.3235 50.8986 51.3213 51.7842 51.3441L47.6334 51.3248C47.6334 51.3248 47.6334 51.3248 47.6334 51.3248C48.1328 51.3281 48.6311 51.3268 49.1289 51.3256ZM55.6929 50.6555L55.6929 50.6557C55.6793 51.2319 55.1721 51.7238 54.5993 51.7198C53.9901 51.7143 53.4908 51.1822 53.5247 50.5746L53.5247 50.5746C53.5573 49.9877 54.0635 49.5257 54.6465 49.5488C55.2292 49.5719 55.7078 50.079 55.6929 50.6555Z" fill="#3D3D63" stroke="#3D3D63" stroke-width="0.2"/>
<path d="M35.6887 54.1493L35.5921 54.1749C35.894 55.3147 36.87 56.0836 38.0101 56.0743C39.15 56.065 40.1166 55.2778 40.4015 54.138C40.6652 53.0862 40.1579 51.9375 39.1092 51.4302C38.914 51.3358 38.8104 51.2386 38.7522 51.1281C38.6926 51.015 38.6731 50.8741 38.6745 50.6752L38.6745 50.6751C38.6857 48.8398 38.6843 47.0052 38.6829 45.1706C38.6824 44.5591 38.682 43.9476 38.682 43.3361V43.3343V43.3325V43.3306V43.3288V43.3269V43.3251V43.3232V43.3214V43.3195V43.3177V43.3159V43.314V43.3122V43.3103V43.3085V43.3066V43.3048V43.303V43.3011V43.2993V43.2974V43.2956V43.2937V43.2919V43.2901V43.2882V43.2864V43.2845V43.2827V43.2808V43.279V43.2772V43.2753V43.2735V43.2716V43.2698V43.2679V43.2661V43.2642V43.2624V43.2606V43.2587V43.2569V43.255V43.2532V43.2513V43.2495V43.2476V43.2458V43.244V43.2421V43.2403V43.2384V43.2366V43.2347V43.2329V43.231V43.2292V43.2273V43.2255V43.2237V43.2218V43.22V43.2181V43.2163V43.2144V43.2126V43.2107V43.2089V43.207V43.2052V43.2033V43.2015V43.1997V43.1978V43.196V43.1941V43.1923V43.1904V43.1886V43.1867V43.1849V43.183V43.1812V43.1793V43.1775V43.1756V43.1738V43.1719V43.1701V43.1682V43.1664V43.1645V43.1627V43.1608V43.159V43.1571V43.1553V43.1534V43.1516V43.1497V43.1479V43.146V43.1442V43.1423V43.1405V43.1386V43.1368V43.1349V43.1331V43.1312V43.1294V43.1275V43.1257V43.1238V43.122V43.1201V43.1183V43.1164V43.1146V43.1127V43.1108V43.109V43.1071V43.1053V43.1034V43.1016V43.0997V43.0979V43.096V43.0942V43.0923V43.0904V43.0886V43.0867V43.0849V43.083V43.0812V43.0793V43.0774V43.0756V43.0737V43.0719V43.07V43.0682V43.0663V43.0644V43.0626V43.0607V43.0589V43.057V43.0551V43.0533V43.0514V43.0496V43.0477V43.0458V43.044V43.0421V43.0403V43.0384V43.0365V43.0347V43.0328V43.0309V43.0291V43.0272V43.0254V43.0235V43.0216V43.0198V43.0179V43.016V43.0142V43.0123V43.0104V43.0086V43.0067V43.0048V43.003V43.0011V42.9992V42.9974V42.9955V42.9936V42.9918V42.9899V42.988V42.9862V42.9843V42.9824V42.9806V42.9787V42.9768V42.9749V42.9731V42.9712V42.9693V42.9675V42.9656V42.9637V42.9618V42.96V42.9581V42.9562V42.9543V42.9525V42.9506V42.9487V42.9468V42.945V42.9431V42.9412V42.9393V42.9375V42.9356V42.9337V42.9318V42.93V42.9281V42.9262V42.9243V42.9224V42.9206V42.9187V42.9168V42.9149V42.913V42.9112V42.9093V42.9074V42.9055V42.9036V42.9018V42.8999V42.898V42.8961V42.8942V42.8923V42.8904V42.8886V42.8867V42.8848V42.8829V42.881V42.8791V42.8772V42.8754V42.8735V42.8716V42.8697V42.8678V42.8659V42.864V42.8621V42.8602V42.8583V42.8565V42.8546V42.8527V42.8508V42.8489V42.847V42.8451V42.8432V42.8413V42.8394V42.8375V42.8356V42.8337V42.8318V42.8299V42.828V42.8261V42.8242V42.8223V42.8204V42.8185V42.8166V42.8147V42.8128V42.8109V42.809V42.8071V42.8052V42.8033V42.8014V42.7995V42.7976V42.7957V42.7938V42.7919V42.79V42.7881V42.7862V42.7843V42.7824V42.7805V42.7786V42.7767V42.7748V42.7728V42.7709V42.769V42.7671V42.7652V42.7633V42.7614V42.7595V42.7576V42.7556V42.7537V42.7518V42.7499V42.748V42.7461V42.7441V42.7422V42.7403V42.7384V42.7365V42.7346V42.7326V42.7307V42.7288V42.7269V42.725V42.723V42.7211V42.7192V42.7173V42.7154V42.7134V42.7115V42.7096V42.7077V42.7057V42.7038V42.7019V42.6999V42.698V42.6961V42.6942V42.6922V42.6903V42.6884V42.6864V42.6845V42.6826V42.6806V42.6787V42.6768V42.6748V42.6729V42.671V42.669V42.6671V42.6652V42.6632V42.6613V42.6594V42.6574V42.6555V42.6535V42.6516V42.6497V42.6477V42.6458V42.6438V42.6419V42.64V42.638V42.6361V42.6341V42.6322V42.6302V42.6283V42.6263V42.6244V42.6224V42.6205V42.6185V42.6166V42.6146V42.6127V42.6107V42.6088V42.6068V42.6049V42.6029V42.601V42.599V42.5971V42.5951V42.5932V42.5912V42.5892V42.5873V42.5853V42.5834V42.5814V42.5794V42.5775V42.5755V42.5736V42.5716V42.5696V42.5677V42.5657V42.5637V42.5618V42.5598V42.5578V42.5559V42.5539V42.5519V42.55V42.548V42.546V42.544V42.5421V42.5401V42.5381V42.5362V42.5342V42.5322V42.5302V42.5283V42.5263V42.5243V42.5223V42.5203V42.5184V42.5164V42.5144V42.5124V42.5104V42.5085V42.5065V42.5045V42.5025V42.5005V42.4985V42.4965V42.4946V42.4926V42.4906V42.4886V42.4866V42.4846V42.4826V42.4806V42.4786V42.4766V42.4746V42.4727V42.4707V42.4687V42.4667V42.4647V42.4627V42.4607V42.4587V42.4567V42.4547V42.4527V42.4507V42.4487V42.4467V42.4447V42.4427V42.4407V42.4386V42.4366V42.4346V42.4326V42.4306V42.4286V42.4266V42.4246V42.4226V42.4206V42.4185V42.4165V42.4145V42.4125V42.4105V42.4085V42.4065V42.4044V42.4024V42.4004V42.3984V42.3964V42.3943V42.3923V42.3903V42.3883V42.3862V42.3842V42.3822V42.3802V42.3781V42.3761V42.3741V42.3721V42.37V42.368V42.366V42.3639V42.3619V42.3599V42.2599H38.582H38.5795H38.5771H38.5747H38.5723H38.5699H38.5675H38.5651H38.5627H38.5603H38.558H38.5556H38.5532H38.5508H38.5484H38.546H38.5436H38.5413H38.5389H38.5365H38.5341H38.5318H38.5294H38.527H38.5246H38.5223H38.5199H38.5175H38.5152H38.5128H38.5105H38.5081H38.5057H38.5034H38.501H38.4987H38.4963H38.494H38.4916H38.4893H38.4869H38.4846H38.4822H38.4799H38.4776H38.4752H38.4729H38.4705H38.4682H38.4659H38.4635H38.4612H38.4589H38.4566H38.4542H38.4519H38.4496H38.4473H38.4449H38.4426H38.4403H38.438H38.4357H38.4333H38.431H38.4287H38.4264H38.4241H38.4218H38.4195H38.4172H38.4149H38.4126H38.4103H38.408H38.4057H38.4034H38.4011H38.3988H38.3965H38.3942H38.3919H38.3896H38.3873H38.385H38.3827H38.3804H38.3781H38.3758H38.3736H38.3713H38.369H38.3667H38.3644H38.3621H38.3599H38.3576H38.3553H38.353H38.3508H38.3485H38.3462H38.3439H38.3417H38.3394H38.3371H38.3349H38.3326H38.3303H38.3281H38.3258H38.3235H38.3213H38.319H38.3167H38.3145H38.3122H38.31H38.3077H38.3054H38.3032H38.3009H38.2987H38.2964H38.2942H38.2919H38.2896H38.2874H38.2851H38.2829H38.2806H38.2784H38.2761H38.2739H38.2716H38.2694H38.2672H38.2649H38.2627H38.2604H38.2582H38.2559H38.2537H38.2515H38.2492H38.247H38.2447H38.2425H38.2403H38.238H38.2358H38.2335H38.2313H38.2291H38.2268H38.2246H38.2224H38.2201H38.2179H38.2157H38.2134H38.2112H38.209H38.2067H38.2045H38.2023H38.2001H38.1978H38.1956H38.1934H38.1911H38.1889H38.1867H38.1845H38.1822H38.18H38.1778H38.1756H38.1733H38.1711H38.1689H38.1667H38.1644H38.1622H38.16H38.1578H38.1555H38.1533H38.1511H38.1489H38.1466H38.1444H38.1422H38.14H38.1378H38.1355H38.1333H38.1311H38.1289H38.1267H38.1244H38.1222H38.12H38.1178H38.1156H38.1133H38.1111H38.1089H38.1067H38.1045H38.1023H38.1H38.0978H38.0956H38.0934H38.0912H38.0889H38.0867H38.0845H38.0823H38.0801H38.0779H38.0756H38.0734H38.0712H38.069H38.0668H38.0645H38.0623H38.0601H38.0579H38.0557H38.0535H38.0512H38.049H38.0468H38.0446H38.0424H38.0401H38.0379H38.0357H38.0335H38.0313H38.029H38.0268H38.0246H38.0224H38.0202H38.0179H38.0157H38.0135H38.0113H38.009H38.0068H38.0046H38.0024H38.0002H37.9979H37.9957H37.9935H37.9913H37.989H37.9868H37.9846H37.9824H37.9801H37.9779H37.9757H37.9735H37.9712H37.969H37.9668H37.9645H37.9623H37.9601H37.9579H37.9556H37.9534H37.9512H37.9489H37.9467H37.9445H37.9422H37.94H37.9378H37.9355H37.9333H37.9311H37.9288H37.9266H37.9243H37.9221H37.9199H37.9176H37.9154H37.9131H37.9109H37.9087H37.9064H37.9042H37.9019H37.8997H37.8974H37.8952H37.893H37.8907H37.8885H37.8862H37.884H37.8817H37.8795H37.8772H37.875H37.8727H37.8705H37.8682H37.866H37.8637H37.8614H37.8592H37.8569H37.8547H37.8524H37.8501H37.8479H37.8456H37.8434H37.8411H37.8388H37.8366H37.8343H37.832H37.8298H37.8275H37.8252H37.823H37.8207H37.8184H37.8161H37.8139H37.8116H37.8093H37.807H37.8048H37.8025H37.8002H37.7979H37.7956H37.7934H37.7911H37.7888H37.7865H37.7842H37.7819H37.7796H37.7774H37.7751H37.7728H37.7705H37.7682H37.7659H37.7636H37.7613H37.759H37.7567H37.7544H37.7521H37.7498H37.7475H37.7452H37.7429H37.7406H37.7383H37.7359H37.7336H37.7313H37.729H37.7267H37.7244H37.7221H37.7197H37.7174H37.7151H37.7128H37.7104H37.7081H37.7058H37.7035H37.7011H37.6988H37.6965H37.6941H37.6918H37.6895H37.6871H37.6848H37.6824H37.6801H37.6778H37.6754H37.6731H37.6707H37.6684H37.666H37.6637H37.6613H37.659H37.6566H37.6543H37.6519H37.6495H37.6472H37.6448H37.6424H37.6401H37.6377H37.6353H37.633H37.6306H37.6282H37.6258H37.6235H37.6211H37.6187H37.6163H37.6139H37.6116H37.6092H37.6068H37.6044H37.602H37.5996H37.5972H37.5948H37.5924H37.59H37.5876H37.5852H37.5828H37.5804H37.578H37.5756H37.5732H37.5707H37.5683H37.5659H37.5635H37.5611H37.5586H37.5562H37.5538H37.5514H37.5489H37.5465H37.5441H37.5416H37.5392H37.5367H37.5343H37.5319H37.5294H37.527H37.5245H37.5221H37.5196H37.5172H37.5147H37.5122H37.5098H37.5073H37.5049H37.5024H37.4999H37.4974H37.495H37.4925H37.49H37.4875H37.4851H37.4826H37.4801H37.4776H37.4751H37.4726H37.4701H37.4676H37.4651H37.4626H37.4601H37.4576H37.4551H37.4526H37.4501H37.4476H37.4451H37.4426H37.4401H37.4375H37.435H37.4325H37.43H37.4274H37.4249H37.4224H37.4198H37.4173H37.4147H37.4122H37.4097H37.4071H37.4046H37.402H37.3994H37.2994V42.3599V42.3618V42.3637V42.3656V42.3676V42.3695V42.3714V42.3733V42.3753V42.3772V42.3791V42.381V42.3829V42.3848V42.3867V42.3887V42.3906V42.3925V42.3944V42.3963V42.3982V42.4001V42.402V42.4039V42.4058V42.4077V42.4096V42.4115V42.4134V42.4152V42.4171V42.419V42.4209V42.4228V42.4247V42.4266V42.4284V42.4303V42.4322V42.4341V42.436V42.4378V42.4397V42.4416V42.4434V42.4453V42.4472V42.449V42.4509V42.4528V42.4546V42.4565V42.4584V42.4602V42.4621V42.4639V42.4658V42.4676V42.4695V42.4713V42.4732V42.475V42.4769V42.4787V42.4806V42.4824V42.4843V42.4861V42.488V42.4898V42.4916V42.4935V42.4953V42.4971V42.499V42.5008V42.5026V42.5045V42.5063V42.5081V42.5099V42.5118V42.5136V42.5154V42.5172V42.519V42.5209V42.5227V42.5245V42.5263V42.5281V42.5299V42.5318V42.5336V42.5354V42.5372V42.539V42.5408V42.5426V42.5444V42.5462V42.548V42.5498V42.5516V42.5534V42.5552V42.557V42.5588V42.5606V42.5624V42.5642V42.566V42.5677V42.5695V42.5713V42.5731V42.5749V42.5767V42.5785V42.5802V42.582V42.5838V42.5856V42.5873V42.5891V42.5909V42.5927V42.5944V42.5962V42.598V42.5998V42.6015V42.6033V42.6051V42.6068V42.6086V42.6103V42.6121V42.6139V42.6156V42.6174V42.6191V42.6209V42.6227V42.6244V42.6262V42.6279V42.6297V42.6314V42.6332V42.6349V42.6367V42.6384V42.6402V42.6419V42.6436V42.6454V42.6471V42.6489V42.6506V42.6523V42.6541V42.6558V42.6576V42.6593V42.661V42.6628V42.6645V42.6662V42.668V42.6697V42.6714V42.6731V42.6749V42.6766V42.6783V42.68V42.6818V42.6835V42.6852V42.6869V42.6886V42.6904V42.6921V42.6938V42.6955V42.6972V42.6989V42.7007V42.7024V42.7041V42.7058V42.7075V42.7092V42.7109V42.7126V42.7143V42.716V42.7177V42.7194V42.7211V42.7228V42.7245V42.7262V42.7279V42.7296V42.7313V42.733V42.7347V42.7364V42.7381V42.7398V42.7415V42.7432V42.7449V42.7466V42.7483V42.7499V42.7516V42.7533V42.755V42.7567V42.7584V42.7601V42.7617V42.7634V42.7651V42.7668V42.7685V42.7701V42.7718V42.7735V42.7752V42.7768V42.7785V42.7802V42.7819V42.7835V42.7852V42.7869V42.7885V42.7902V42.7919V42.7936V42.7952V42.7969V42.7986V42.8002V42.8019V42.8035V42.8052V42.8069V42.8085V42.8102V42.8119V42.8135V42.8152V42.8168V42.8185V42.8201V42.8218V42.8235V42.8251V42.8268V42.8284V42.8301V42.8317V42.8334V42.835V42.8367V42.8383V42.84V42.8416V42.8433V42.8449V42.8466V42.8482V42.8498V42.8515V42.8531V42.8548V42.8564V42.8581V42.8597V42.8613V42.863V42.8646V42.8663V42.8679V42.8695V42.8712V42.8728V42.8744V42.8761V42.8777V42.8793V42.881V42.8826V42.8842V42.8859V42.8875V42.8891V42.8908V42.8924V42.894V42.8956V42.8973V42.8989V42.9005V42.9022V42.9038V42.9054V42.907V42.9087V42.9103V42.9119V42.9135V42.9151V42.9168V42.9184V42.92V42.9216V42.9232V42.9249V42.9265V42.9281V42.9297V42.9313V42.9329V42.9346V42.9362V42.9378V42.9394V42.941V42.9426V42.9442V42.9459V42.9475V42.9491V42.9507V42.9523V42.9539V42.9555V42.9571V42.9587V42.9603V42.9619V42.9636V42.9652V42.9668V42.9684V42.97V42.9716V42.9732V42.9748V42.9764V42.978V42.9796V42.9812V42.9828V42.9844V42.986V42.9876V42.9892V42.9908V42.9924V42.994V42.9956V42.9972V42.9988V43.0004V43.002V43.0036V43.0052V43.0068V43.0084V43.01V43.0116V43.0132V43.0148V43.0164V43.0179V43.0195V43.0211V43.0227V43.0243V43.0259V43.0275V43.0291V43.0307V43.0323V43.0339V43.0355V43.037V43.0386V43.0402V43.0418V43.0434V43.045V43.0466V43.0482V43.0498V43.0513V43.0529V43.0545V43.0561V43.0577V43.0593V43.0609V43.0624V43.064V43.0656V43.0672V43.0688V43.0704V43.072V43.0735V43.0751V43.0767V43.0783V43.0799V43.0815V43.083V43.0846V43.0862V43.0878V43.0894V43.0909V43.0925V43.0941V43.0957V43.0973V43.0988V43.1004V43.102V43.1036V43.1052V43.1067V43.1083V43.1099V43.1115V43.1131V43.1146V43.1162V43.1178V43.1194V43.1209V43.1225V43.1241V43.1257V43.1273V43.1288V43.1304V43.132V43.1336V43.1351V43.1367V43.1383V43.1399V43.1414V43.143V43.1446V43.1462V43.1477V43.1493V43.1509V43.1525V43.154V43.1556V43.1572V43.1588V43.1603V43.1619V43.1635V43.1651V43.1666V43.1682V43.1698V43.1714V43.1729V43.1745V43.1761V43.1777V43.1792V43.1808V43.1824V43.184V43.1855V43.1871V43.1887V43.1902V43.1918V43.1934V43.195V43.1965V43.1981V43.1997V43.2013V43.2028V43.2044V43.206V43.2076V43.2091V43.2107V43.2123V43.2138V43.2154V43.217V43.2186V43.2201V43.2217V43.2233V43.2249C37.2994 43.812 37.2991 44.3991 37.2988 44.9863C37.2977 46.8947 37.2967 48.8035 37.3069 50.7121L37.4065 50.7116L37.3069 50.712C37.3076 50.8969 37.2879 51.0263 37.2323 51.1298C37.178 51.231 37.0822 51.3203 36.9029 51.4082C35.8212 51.9375 35.305 53.095 35.5921 54.175L35.6887 54.1493ZM35.6887 54.1493C35.4143 53.1167 35.9068 52.0069 36.9469 51.498L38.5745 50.6745C38.5716 51.081 38.6517 51.3199 39.0656 51.5202C40.0716 52.0069 40.5568 53.1078 40.3045 54.1137C40.03 55.2116 39.1012 55.9654 38.0092 55.9743C36.9172 55.9832 35.9795 55.2473 35.6887 54.1493ZM36.9074 53.5922L36.9074 53.5921C36.9115 53.0075 37.3954 52.5233 37.982 52.5178C38.567 52.5124 39.0606 52.9885 39.077 53.5719C39.0932 54.1752 38.5699 54.7008 37.9687 54.6859L37.9686 54.6859C37.3911 54.6723 36.9034 54.1696 36.9074 53.5922Z" fill="#3D3D63" stroke="#3D3D63" stroke-width="0.2"/>
<path d="M37.3069 36.2594C37.2948 37.4415 37.2965 38.6229 37.2983 39.8184C37.2989 40.2427 37.2995 40.6688 37.2995 41.0972V41.1972H37.3995H37.4018H37.4042H37.4066H37.409H37.4113H37.4137H37.4161H37.4184H37.4208H37.4231H37.4255H37.4278H37.4302H37.4326H37.4349H37.4373H37.4396H37.4419H37.4443H37.4466H37.449H37.4513H37.4537H37.456H37.4583H37.4607H37.463H37.4653H37.4677H37.47H37.4723H37.4747H37.477H37.4793H37.4816H37.484H37.4863H37.4886H37.4909H37.4932H37.4956H37.4979H37.5002H37.5025H37.5048H37.5071H37.5094H37.5117H37.514H37.5164H37.5187H37.521H37.5233H37.5256H37.5279H37.5302H37.5325H37.5348H37.537H37.5393H37.5416H37.5439H37.5462H37.5485H37.5508H37.5531H37.5554H37.5577H37.5599H37.5622H37.5645H37.5668H37.5691H37.5713H37.5736H37.5759H37.5782H37.5805H37.5827H37.585H37.5873H37.5895H37.5918H37.5941H37.5964H37.5986H37.6009H37.6032H37.6054H37.6077H37.61H37.6122H37.6145H37.6167H37.619H37.6213H37.6235H37.6258H37.628H37.6303H37.6325H37.6348H37.6371H37.6393H37.6416H37.6438H37.6461H37.6483H37.6506H37.6528H37.6551H37.6573H37.6596H37.6618H37.664H37.6663H37.6685H37.6708H37.673H37.6753H37.6775H37.6797H37.682H37.6842H37.6865H37.6887H37.6909H37.6932H37.6954H37.6977H37.6999H37.7021H37.7044H37.7066H37.7088H37.7111H37.7133H37.7155H37.7178H37.72H37.7222H37.7244H37.7267H37.7289H37.7311H37.7334H37.7356H37.7378H37.74H37.7423H37.7445H37.7467H37.7489H37.7512H37.7534H37.7556H37.7578H37.7601H37.7623H37.7645H37.7667H37.769H37.7712H37.7734H37.7756H37.7778H37.7801H37.7823H37.7845H37.7867H37.7889H37.7912H37.7934H37.7956H37.7978H37.8H37.8023H37.8045H37.8067H37.8089H37.8111H37.8133H37.8156H37.8178H37.82H37.8222H37.8244H37.8267H37.8289H37.8311H37.8333H37.8355H37.8377H37.8399H37.8422H37.8444H37.8466H37.8488H37.851H37.8532H37.8555H37.8577H37.8599H37.8621H37.8643H37.8665H37.8688H37.871H37.8732H37.8754H37.8776H37.8798H37.8821H37.8843H37.8865H37.8887H37.8909H37.8931H37.8954H37.8976H37.8998H37.902H37.9042H37.9064H37.9087H37.9109H37.9131H37.9153H37.9175H37.9198H37.922H37.9242H37.9264H37.9286H37.9309H37.9331H37.9353H37.9375H37.9397H37.942H37.9442H37.9464H37.9486H37.9509H37.9531H37.9553H37.9575H37.9598H37.962H37.9642H37.9664H37.9687H37.9709H37.9731H37.9753H37.9776H37.9798H37.982H37.9842H37.9865H37.9887H37.9909H37.9932H37.9954H37.9976H37.9999H38.0021H38.0043H38.0066H38.0088H38.011H38.0133H38.0155H38.0177H38.02H38.0222H38.0244H38.0267H38.0289H38.0312H38.0334H38.0356H38.0379H38.0401H38.0424H38.0446H38.0469H38.0491H38.0514H38.0536H38.0558H38.0581H38.0603H38.0626H38.0648H38.0671H38.0693H38.0716H38.0738H38.0761H38.0784H38.0806H38.0829H38.0851H38.0874H38.0896H38.0919H38.0942H38.0964H38.0987H38.1009H38.1032H38.1055H38.1077H38.11H38.1123H38.1145H38.1168H38.1191H38.1213H38.1236H38.1259H38.1282H38.1304H38.1327H38.135H38.1373H38.1395H38.1418H38.1441H38.1464H38.1487H38.1509H38.1532H38.1555H38.1578H38.1601H38.1624H38.1647H38.167H38.1692H38.1715H38.1738H38.1761H38.1784H38.1807H38.183H38.1853H38.1876H38.1899H38.1922H38.1945H38.1968H38.1991H38.2014H38.2037H38.2061H38.2084H38.2107H38.213H38.2153H38.2176H38.2199H38.2223H38.2246H38.2269H38.2292H38.2315H38.2339H38.2362H38.2385H38.2409H38.2432H38.2455H38.2478H38.2502H38.2525H38.2549H38.2572H38.2595H38.2619H38.2642H38.2666H38.2689H38.2712H38.2736H38.2759H38.2783H38.2806H38.283H38.2854H38.2877H38.2901H38.2924H38.2948H38.2972H38.2995H38.3019H38.3042H38.3066H38.309H38.3114H38.3137H38.3161H38.3185H38.3209H38.3232H38.3256H38.328H38.3304H38.3328H38.3352H38.3375H38.3399H38.3423H38.3447H38.3471H38.3495H38.3519H38.3543H38.3567H38.3591H38.3615H38.3639H38.3664H38.3688H38.3712H38.3736H38.376H38.3784H38.3808H38.3833H38.3857H38.3881H38.3905H38.393H38.3954H38.3978H38.4003H38.4027H38.4051H38.4076H38.41H38.4125H38.4149H38.4174H38.4198H38.4223H38.4247H38.4272H38.4296H38.4321H38.4345H38.437H38.4395H38.4419H38.4444H38.4469H38.4494H38.4518H38.4543H38.4568H38.4593H38.4617H38.4642H38.4667H38.4692H38.4717H38.4742H38.4767H38.4792H38.4817H38.4842H38.4867H38.4892H38.4917H38.4942H38.4967H38.4992H38.5018H38.5043H38.5068H38.5093H38.5118H38.5144H38.5169H38.5194H38.522H38.5245H38.527H38.5296H38.5321H38.5347H38.5372H38.5398H38.5423H38.5449H38.5474H38.55H38.5525H38.5551H38.5577H38.5602H38.5628H38.5654H38.568H38.5705H38.5731H38.5757H38.5783H38.5809H38.5835H38.6835V41.0972V41.0865V41.0758V41.0652V41.0545V41.0438V41.0331V41.0225V41.0118V41.0011V40.9904V40.9798V40.9691V40.9584V40.9478V40.9371V40.9264V40.9158V40.9051V40.8944V40.8838V40.8731V40.8624V40.8518V40.8411V40.8305V40.8198V40.8092V40.7985V40.7879V40.7772V40.7666V40.7559V40.7453V40.7346V40.724V40.7133V40.7027V40.692V40.6814V40.6708V40.6601V40.6495V40.6389V40.6282V40.6176V40.607V40.5963V40.5857V40.5751V40.5644V40.5538V40.5432V40.5326V40.5219V40.5113V40.5007V40.4901V40.4795V40.4688V40.4582V40.4476V40.437V40.4264V40.4158V40.4052V40.3945V40.3839V40.3733V40.3627V40.3521V40.3415V40.3309V40.3203V40.3097V40.2991V40.2885V40.2779V40.2673V40.2567V40.2461V40.2355V40.2249V40.2143V40.2037V40.1931V40.1826V40.172V40.1614V40.1508V40.1402V40.1296V40.119V40.1085V40.0979V40.0873V40.0767V40.0661V40.0556V40.045V40.0344V40.0238V40.0133V40.0027V39.9921V39.9815V39.971V39.9604V39.9498V39.9393V39.9287V39.9181V39.9076V39.897V39.8864V39.8759V39.8653V39.8548V39.8442V39.8337V39.8231V39.8125V39.802V39.7914V39.7809V39.7387V38.3956V38.3538V38.3434V38.3329V38.3225V38.3121V38.3016V38.2912V38.2808V38.2703V38.2599V38.2495V38.239V38.2286V38.2182V38.2077V38.1973V38.1869V38.1764V38.166V38.1556V38.1451V38.1347V38.1243V38.1139V38.1034V38.093V38.0826V38.0722V38.0618V38.0513V38.0409V38.0305V38.0201V38.0097V37.9992V37.9888V37.9784V37.968V37.9576V37.9472V37.9367V37.9263V37.9159V37.9055V37.8951V37.8847V37.8743V37.8639V37.8534V37.843V37.8326V37.8222V37.8118V37.8014V37.791V37.7806V37.7702V37.7598V37.7494V37.739V37.7286V37.7182V37.7078V37.6974V37.687V37.6766V37.6662V37.6558V37.6454V37.635V37.6246V37.6142V37.6038V37.5934V37.583V37.5726V37.5622V37.5518V37.5414V37.531V37.5206V37.5102V37.4999V37.4895V37.4791V37.4687V37.4583V37.4479V37.4375V37.4271V37.4167V37.4064V37.396V37.3856V37.3752V37.3648V37.3544V37.3441V37.3337V37.3233V37.3129V37.3025V37.2921V37.2818V37.2714V37.261V37.2506V37.2403V37.2299V37.2195V37.2091V37.1987V37.1884V37.178V37.1676V37.1572V37.1469V37.1365V37.1261V37.1158V37.1054V37.095V37.0846V37.0743V37.0639V37.0535V37.0432V37.0328V37.0224V37.0121V37.0017V36.9913V36.981V36.9706V36.9602V36.9499V36.9395V36.9291V36.9188V36.9084V36.898V36.8877V36.8773V36.867V36.8566V36.8462V36.8359V36.8255V36.8152V36.8048V36.7944V36.7841V36.7737V36.7634V36.753V36.7426V36.7323V36.7219V36.7116V36.7012V36.6909V36.6805V36.6702V36.6598V36.6494V36.6391V36.6287V36.6184V36.608V36.5977V36.5873V36.577V36.5666V36.5563V36.5459V36.5356V36.5252V36.5149V36.5045V36.4942V36.4838V36.4735V36.4631V36.4528V36.4425V36.4321V36.4218V36.4114V36.4011V36.3907V36.3804V36.37V36.3597V36.3494V36.339V36.3287V36.3183V36.308V36.2976V36.2873V36.277V36.2666V36.2563V36.2459V36.2356V36.2253V36.2149V36.2046V36.1942V36.1839V36.1736V36.1632V36.1529V36.1425V36.1322V36.1219V36.1115V36.1012V36.0909V36.0805V36.0702V36.0599V36.0495V36.0392V36.0289V36.0185V36.0082V35.9979V35.9875V35.9772V35.9669V35.9565V35.9462V35.9359V35.9255V35.9152V35.9049V35.8945V35.8842V35.8739V35.8635V35.8532V35.8429V35.8325V35.8222V35.8119V35.806C38.7166 35.7923 38.7485 35.7795 38.7792 35.7671C38.8665 35.7318 38.9444 35.7004 39.0159 35.6641L39.0162 35.6639C40.0855 35.1178 40.6613 34.0052 40.4154 32.9251C40.1503 31.7596 39.1466 30.942 37.9807 30.9467L37.9805 30.9467C36.8393 30.9528 35.8725 31.7323 35.5829 32.8722L35.5829 32.8722C35.3096 33.9502 35.8375 35.0916 36.9283 35.6247L36.9285 35.6248C37.0972 35.7067 37.1868 35.787 37.2375 35.8774C37.289 35.9695 37.3083 36.0863 37.3069 36.2594ZM37.3069 36.2594C37.3069 36.2594 37.3069 36.2594 37.3069 36.2593L37.4069 36.2604M37.3069 36.2594C37.3069 36.2594 37.3069 36.2595 37.3069 36.2595L37.4069 36.2604M37.4069 36.2604C37.4099 35.9028 37.3297 35.7084 36.9722 35.5348L38.9707 35.5749C38.9026 35.6094 38.8316 35.6381 38.7476 35.6719C38.6981 35.6919 38.644 35.7137 38.5835 35.7396V40.9972V41.0972H38.4835H37.4995H37.3995C37.3995 40.6684 37.3989 40.2422 37.3983 39.8178C37.3965 38.6225 37.3948 37.4418 37.4069 36.2604ZM39.0755 33.4109L39.0755 33.4111C39.0809 33.9926 38.6009 34.4882 38.0156 34.5031C37.4081 34.518 36.891 34.0009 36.906 33.3933L36.8061 33.3909L36.906 33.3935C36.9209 32.8112 37.4194 32.3282 37.9994 32.3336C38.5815 32.339 39.0714 32.8291 39.0755 33.4109Z" fill="#3D3D63" stroke="#3D3D63" stroke-width="0.2"/>
<path d="M46.9831 44.1869H46.8831H46.8806H46.8781H46.8756H46.8731H46.8706H46.8681H46.8656H46.8631H46.8606H46.8581H46.8556H46.8531H46.8506H46.8481H46.8456H46.8431H46.8406H46.8382H46.8357H46.8332H46.8307H46.8283H46.8258H46.8233H46.8209H46.8184H46.816H46.8135H46.8111H46.8086H46.8062H46.8037H46.8013H46.7988H46.7964H46.794H46.7915H46.7891H46.7867H46.7842H46.7818H46.7794H46.777H46.7745H46.7721H46.7697H46.7673H46.7649H46.7625H46.7601H46.7577H46.7553H46.7529H46.7505H46.7481H46.7457H46.7433H46.7409H46.7385H46.7361H46.7337H46.7313H46.729H46.7266H46.7242H46.7218H46.7195H46.7171H46.7147H46.7124H46.71H46.7076H46.7053H46.7029H46.7005H46.6982H46.6958H46.6935H46.6911H46.6888H46.6864H46.6841H46.6817H46.6794H46.6771H46.6747H46.6724H46.67H46.6677H46.6654H46.6631H46.6607H46.6584H46.6561H46.6537H46.6514H46.6491H46.6468H46.6445H46.6422H46.6398H46.6375H46.6352H46.6329H46.6306H46.6283H46.626H46.6237H46.6214H46.6191H46.6168H46.6145H46.6122H46.6099H46.6076H46.6053H46.603H46.6007H46.5984H46.5962H46.5939H46.5916H46.5893H46.587H46.5848H46.5825H46.5802H46.5779H46.5756H46.5734H46.5711H46.5688H46.5666H46.5643H46.562H46.5598H46.5575H46.5552H46.553H46.5507H46.5485H46.5462H46.5439H46.5417H46.5394H46.5372H46.5349H46.5327H46.5304H46.5282H46.5259H46.5237H46.5214H46.5192H46.517H46.5147H46.5125H46.5102H46.508H46.5058H46.5035H46.5013H46.499H46.4968H46.4946H46.4923H46.4901H46.4879H46.4857H46.4834H46.4812H46.479H46.4767H46.4745H46.4723H46.4701H46.4679H46.4656H46.4634H46.4612H46.459H46.4568H46.4545H46.4523H46.4501H46.4479H46.4457H46.4435H46.4412H46.439H46.4368H46.4346H46.4324H46.4302H46.428H46.4258H46.4236H46.4214H46.4192H46.4169H46.4147H46.4125H46.4103H46.4081H46.4059H46.4037H46.4015H46.3993H46.3971H46.3949H46.3927H46.3905H46.3883H46.3861H46.3839H46.3817H46.3795H46.3773H46.3751H46.3729H46.3708H46.3686H46.3664H46.3642H46.362H46.3598H46.3576H46.3554H46.3532H46.351H46.3488H46.3466H46.3444H46.3423H46.3401H46.3379H46.3357H46.3335H46.3313H46.3291H46.3269H46.3247H46.3226H46.3204H46.3182H46.316H46.3138H46.3116H46.3094H46.3072H46.3051H46.3029H46.3007H46.2985H46.2963H46.2941H46.2919H46.2897H46.2876H46.2854H46.2832H46.281H46.2788H46.2766H46.2744H46.2723H46.2701H46.2679H46.2657H46.2635H46.2613H46.2591H46.257H46.2548H46.2526H46.2504H46.2482H46.246H46.2438H46.2416H46.2395H46.2373H46.2351H46.2329H46.2307H46.2285H46.2263H46.2241H46.2219H46.2198H46.2176H46.2154H46.2132H46.211H46.2088H46.2066H46.2044H46.2022H46.2H46.1978H46.1957H46.1935H46.1913H46.1891H46.1869H46.1847H46.1825H46.1803H46.1781H46.1759H46.1737H46.1715H46.1693H46.1671H46.1649H46.1627H46.1605H46.1583H46.1561H46.1539H46.1517H46.1495H46.1473H46.1451H46.1429H46.1407H46.1385H46.1363H46.1341H46.1319H46.1296H46.1274H46.1252H46.123H46.1208H46.1186H46.1164H46.1142H46.112H46.1097H46.1075H46.1053H46.1031H46.1009H46.0987H46.0964H46.0942H46.092H46.0898H46.0876H46.0853H46.0831H46.0809H46.0787H46.0764H46.0742H46.072H46.0697H46.0675H46.0653H46.0631H46.0608H46.0586H46.0563H46.0541H46.0519H46.0496H46.0474H46.0452H46.0429H46.0407H46.0384H46.0362H46.0339H46.0317H46.0294H46.0272H46.0249H46.0227H46.0204H46.0182H46.0159H46.0137H46.0114H46.0092H46.0069H46.0047H46.0024H46.0001H45.9979H45.9956H45.9933H45.9911H45.9888H45.9865H45.9843H45.982H45.9797H45.9774H45.9752H45.9729H45.9706H45.9683H45.966H45.9638H45.9615H45.9592H45.9569H45.9546H45.9523H45.95H45.9477H45.9454H45.9431H45.9408H45.9385H45.9362H45.9339H45.9316H45.9293H45.927H45.9247H45.9224H45.9201H45.9178H45.9155H45.9132H45.9108H45.9085H45.9062H45.9039H45.9016H45.8992H45.8969H45.8946H45.8923H45.8899H45.8876H45.8852H45.8829H45.8806H45.8782H45.8759H45.8735H45.8712H45.8689H45.8665H45.8642H45.8618H45.8594H45.8571H45.8547H45.8524H45.85H45.8476H45.8453H45.8429H45.8405H45.8382H45.8358H45.8334H45.831H45.8287H45.8263H45.8239H45.8215H45.8191H45.8167H45.8144H45.812H45.8096H45.8072H45.8048H45.8024H45.8H45.7976H45.7952H45.7927H45.7903H45.7879H45.7855H45.7831H45.7807H45.7783H45.7758H45.7734H45.771H45.7685H45.7661H45.7637H45.7612H45.7588H45.7564H45.7539H45.7515H45.749H45.7466H45.7441H45.7417H45.7392H45.7367H45.7343H45.7318H45.7294H45.7269H45.7244H45.7219H45.7195H45.717H45.7145H45.712H45.7095H45.6095V44.0869V44.0823V44.0776V44.073V44.0684V44.0637V44.0591V44.0544V44.0498V44.0451V44.0405V44.0359V44.0312V44.0266V44.022V44.0173V44.0127V44.008V44.0034V43.9988V43.9941V43.9895V43.9848V43.9802V43.9756V43.9709V43.9663V43.9617V43.957V43.9524V43.9478V43.9431V43.9385V43.9339V43.9292V43.9246V43.9199V43.9153V43.9107V43.906V43.9014V43.8968V43.8921V43.8875V43.8829V43.8783V43.8736V43.869V43.8644V43.8597V43.8551V43.8505V43.8458V43.8412V43.8366V43.8319V43.8273V43.8227V43.8181V43.8134V43.8088V43.8042V43.7995V43.7949V43.7903V43.7857V43.781V43.7764V43.7718V43.7671V43.7625V43.7579V43.7533V43.7486V43.744V43.7394V43.7348V43.7301V43.7255V43.7209V43.7163V43.7116V43.707V43.7024V43.6978V43.6931V43.6885V43.6839V43.6793V43.6746V43.67V43.6654V43.6608V43.6562V43.6515V43.6469V43.6423V43.6377V43.633V43.6284V43.6238V43.6192V43.6146V43.6099V43.6053V43.6007V43.5961V43.5915V43.5869V43.5822V43.5776V43.573V43.5684V43.5638V43.5591V43.5545V43.5499V43.5453V43.5407V43.5361V43.5314V43.5268V43.5222V43.5176V43.513V43.5084V43.5037V43.4991V43.4945V43.4899V43.4853V43.4807V43.476V43.4714V43.4668V43.4622V43.4576V43.453V43.4484V43.4438V43.4391V43.4345V43.4299V43.4253V43.4207V43.4161V43.4115V43.4069V43.4022V43.3976V43.393V43.3884V43.3838V43.3792V43.3746V43.37V43.3654V43.3607V43.3561V43.3515V43.3469V43.3423V43.3377V43.3331V43.3285V43.3239V43.3193V43.3147V43.31V43.3054V43.3008V43.2962V43.2916V43.287V43.2824V43.2778V43.2732V43.2686V43.264V43.2594V43.2548V43.2502V43.2456V43.2409V43.2363V43.2317V43.2271V43.2225V43.2179V43.2133V43.2087V43.2041V43.1995V43.1949V43.1903V43.1857V43.1811V43.1765V43.1719V43.1673V43.1627V43.1581V43.1535V43.1489V43.1443V43.1397V43.1351V43.1305V43.1259V43.1213V43.1167V43.1121V43.1075V43.1029V43.0983V43.0937V43.0891V43.0844V43.0799V43.0752V43.0707V43.0661V43.0615V43.0569V43.0523V43.0477V43.0431V43.0385V43.0339V43.0293V43.0247V43.0201V43.0155V43.0109V43.0063V43.0017V42.9971V42.9925V42.9879V42.9833V42.9787V42.9741V42.9695V42.9649V42.9603V42.9557V42.9511V42.9465V42.9419V42.9373V42.9327V42.9281V42.9235V42.9189V42.9143V42.9097V42.9052V42.9006V42.896V42.8914V42.8868V42.8822V42.8776V42.873V42.8684V42.8638V42.8592V42.8546V42.85V42.8454V42.8408V42.8363V42.8317V42.8271V42.8225V42.8179V42.8133V42.8087V42.8041V42.7995V42.7949V42.7903V42.7857V42.7812V42.7766V42.772V42.7674V42.7628V42.7582V42.7536V42.749V42.7444V42.7398V42.7352V42.7307V42.7261V42.7215V42.7169V42.7123V42.7077V42.7031V42.6985V42.6939V42.6894V42.6848V42.6802V42.6756V42.671V42.6664V42.6618V42.6572V42.6527V42.6481V42.6435V42.6389V42.6343V42.6297V42.6251V42.6205V42.616V42.6114V42.6068V42.6022V42.5976V42.593V42.5884V42.5838V42.5793V42.5747V42.5701V42.5655V42.5609V42.5563V42.5517V42.5472V42.5426V42.538V42.5334V42.5288V42.5242V42.5197V42.5151V42.5105V42.5059V42.5013V42.4967V42.4921V42.4876V42.483V42.4784V42.4738V42.4692V42.4646V42.4601V42.4555V42.4509V42.4463V42.4417V42.4371V42.4326V42.428V42.4234V42.4188V42.4142V42.4097V42.4051V42.4005V42.3959V42.3913V42.3867V42.3822V42.3776V42.373V42.3684V42.3638V42.3593V42.3547V42.3501V42.3455V42.3409V42.3364V42.3318V42.3272V42.3226V42.318V42.3134V42.3089V42.3043V42.2997V42.2951V42.2905V42.286V42.2814V42.2768V42.2722V42.2676V42.2631V42.2585V42.2539V42.2493V42.2448V42.2402V42.2356V42.231V42.2264V42.2219V42.2173V42.2127V42.2081V42.2035V42.199V42.1944V42.1898V42.1852V42.1807V42.1761V42.1715V42.1669V42.1623V42.1578V42.1532V42.1486V42.144V42.1395V42.1349V42.1303V42.1257V42.1211V42.1166V42.112V42.1074V42.1028V42.0983V42.0937V42.0891V42.0845V42.08V42.0754V42.0708V42.0662V42.0616V42.0571V42.0525V42.0479V42.0433V42.0388V42.0342V42.0296V42.025V42.0205V42.0159V42.0113V42.0067V42.0022V41.9976V41.993V41.9884V41.9839V41.9793V41.9747V41.9701V41.9656V41.961V41.9564V41.9518V41.9473V41.9427V41.9381V41.9335V41.929V41.9244V41.9198V41.9152V41.9107V41.9061V41.9015V41.8969V41.8924V41.8878V41.8832V41.8786V41.8741V41.8695V41.8649V41.8603V41.8558V41.8512V41.8466V41.8421V41.8375V41.8329V41.8283V41.8238V41.8192V41.8146V41.81V41.8055V41.8009V41.7963V41.7917V41.7872V41.7826V41.778V41.7734V41.7689V41.7643V41.7597V41.7552V41.7506V41.746V41.7414V41.7369V41.7323V41.7277V41.723V41.7184V41.7138V41.7092V41.7045V41.6999V41.6953V41.6907V41.686V41.6814V41.6768V41.6722V41.6675V41.6629V41.6583V41.6537V41.649V41.6444V41.6398V41.6352V41.6305V41.6259V41.6213V41.6167V41.612V41.6074V41.6028V41.5982V41.5935V41.5889V41.5843V41.5797V41.575V41.5704V41.5658V41.5612V41.5566V41.5519V41.5473V41.5427V41.5381V41.5334V41.5288V41.5242V41.5196V41.5149V41.5103V41.5057V41.5011V41.4964V41.4918V41.4872V41.4826V41.4779V41.4733V41.4687V41.4641V41.4594V41.4548V41.4502V41.4456V41.4409V41.4363V41.4317V41.4271V41.4225V41.4178V41.4132V41.4086V41.404V41.3993V41.3947V41.3901V41.3855V41.3808V41.3762V41.3716V41.367V41.3624V41.3577V41.3531V41.3485V41.3439V41.3392V41.3346V41.33V41.3254V41.3208V41.3161V41.3115V41.3069V41.3023V41.2976V41.293V41.2884V41.2838V41.2792V41.2745V41.2699V41.2653V41.2607V41.2561V41.2514V41.2468V41.2422V41.2376V41.2329V41.2283V41.2237V41.2191V41.2145V41.2098V41.2052V41.2006V41.196V41.1914V41.1867V41.1821V41.1775V41.1729V41.1683V41.1636V41.159V41.1544V41.1498V41.1452V41.1406V41.1359V41.1313V41.1267V41.1221V41.1175V41.1128V41.1082V41.1036V41.099V41.0944V41.0897V41.0851V41.0805V41.0759V41.0713V41.0667V41.062V41.0574V41.0528V41.0482V41.0436V41.039V41.0343V41.0297V41.0251V41.0205V41.0159V41.0113V41.0066V41.002V40.9974V40.9928V40.9882V40.9836V40.979V40.9743V40.9697V40.9651V40.9605V40.9559V40.9513V40.9466V40.942V40.9374V40.9328V40.9282V40.9236V40.919V40.9143V40.9097V40.9051V40.9005V40.8959V40.8913V40.8867V40.8821V40.8774V40.8728V40.8682V40.8636V40.859V40.8544V40.8498V40.8452V40.8405V40.8359V40.8313V40.8267V40.8221V40.8175V40.8129V40.8083V40.8037V40.7991V40.7944V40.7898V40.7852V40.7806V40.776V40.7714V40.7668V40.7622V40.7576V40.753V40.7484V40.7437V40.7391V40.7345V40.7299V40.7253V40.7207V40.7161V40.7115V40.7069V40.7023V40.6977V40.6931V40.6885V40.6838V40.6792V40.6746V40.67V40.6654V40.6608V40.6562V40.6516V40.647V40.6424V40.6378V40.6332V40.6286V40.624V40.6194V40.6148V40.6102V40.6056V40.601V40.5964V40.5918V40.5872V40.5826V40.578V40.5733V40.5687V40.5641V40.5595V40.5549V40.5503V40.5457V40.5411V40.5365V40.5319V40.5273V40.5227V40.5181V40.5135V40.5089V40.5043V40.4997V40.4951V40.4905V40.4859V40.4813V40.4767V40.4722V40.4676V40.463V40.4584V40.4538V40.4492V40.4446V40.44V40.4354V40.4308V40.4262V40.4216V40.417V40.4124V40.4078V40.4032V40.3986V40.394V40.3894V40.3848V40.3802V40.3756V40.3711V40.3665V40.3619V40.3573V40.3527V40.3481V40.3435V40.3389V40.3343V40.3297V40.3251V40.3205V40.3159V40.3114V40.3068V40.3022V40.2976V40.293V40.2884V40.2838V40.2792V40.2746V40.2701V40.2655V40.2609V40.2563V40.2517V40.2471V40.2425V40.2379V40.2334V40.2288V40.2242V40.2196V40.215V40.2104V40.2058V40.2013V40.1967V40.1921V40.1875V40.1829V40.1783V40.1738V40.1692V40.1646V40.16V40.1554V40.1508V40.1463V40.1417V40.1371V40.1325V40.1279V40.1234V40.1188V40.1142V40.1096V40.105V40.1005V40.0959V40.0913V40.0867V40.0821V40.0776V40.073V40.0684V40.0638V40.0592V40.0547V40.0501V40.0455V40.0409V40.0364V40.0318V40.0272V40.0226V40.0181V40.0135V40.0089V40.0043V39.9998V39.9952V39.9906V39.9861V39.9815V39.9769V39.9723V39.9678V39.9632V39.9586V39.9541V39.9495V39.9449V39.9403V39.9358V39.9312V39.9266V39.9221V39.9175V39.9129V39.9084V39.9038V39.8992V39.8947V39.8901V39.8855V39.881V39.8764V39.8718V39.8673V39.8627V39.8581V39.8536V39.849V39.8444V39.8399V39.8353V39.8307V39.8262V39.8216V39.8171V39.8125V39.8079V39.8034V39.7988V39.7943V39.7897V39.7851V39.7806V39.776V39.7715V39.7669V39.7623V39.7578V39.7532V39.7487V39.7441V39.7396V39.735V39.7304V39.7259V39.7213V39.7168V39.7122V39.7077V39.7031V39.6986V39.694V39.6895V39.6849V39.6803V39.6758V39.6712V39.6667V39.6621V39.6576V39.653V39.6485V39.6439V39.6394V39.6348V39.6303V39.6257V39.6212V39.6166V39.6121V39.6076V39.603V39.5985V39.5939V39.5894V39.5848V39.5803V39.5757V39.5712V39.5666V39.5621V39.5576V39.553V39.5485V39.5439V39.5394V39.5348V39.5303V39.5258V39.5212V39.5167V39.5121V39.5076V39.5031V39.4985V39.494V39.4894V39.4849V39.4804V39.4758V39.4713V39.4668V39.4622V39.4577V39.4531V39.4486V39.4441V39.4395V39.4369C44.8668 38.9819 44.3581 38.5222 44.0772 38.0215C43.7877 37.5053 43.7459 36.9556 43.922 36.3455L46.9831 44.1869ZM46.9831 44.1869V44.0869M46.9831 44.1869V44.0869M46.9831 44.0869C46.9831 42.4765 46.9831 40.9239 46.9846 39.3992L46.9831 44.0869ZM46.3821 34.5091L46.3821 34.5091C47.5188 34.5478 48.4713 35.361 48.7256 36.5043L46.3821 34.5091ZM46.3821 34.5091C45.2331 34.4704 44.2501 35.2072 43.9221 36.3454L46.3821 34.5091ZM45.2145 36.9435L45.2145 36.9434C45.2349 36.3598 45.7372 35.8837 46.3174 35.8945C46.8996 35.9068 47.3854 36.404 47.384 36.9827C47.3827 37.563 46.8941 38.0573 46.3121 38.0655C45.7045 38.0736 45.1928 37.551 45.2145 36.9435Z" fill="#3D3D63" stroke="#3D3D63" stroke-width="0.2"/>
<path d="M27.7093 35.5004L27.7093 35.5004C28.2858 34.726 29.3372 34.3399 30.2449 34.5761L27.7093 35.5004ZM27.7093 35.5004C27.1983 36.1869 27.081 36.9624 27.3273 37.6709C27.5674 38.3618 28.1487 38.9772 29.0204 39.384C29.0204 40.366 29.0203 41.3245 29.0189 42.29L29.0187 42.3902H29.1189H29.1213H29.1236H29.126H29.1283H29.1307H29.133H29.1354H29.1377H29.14H29.1424H29.1447H29.1471H29.1494H29.1517H29.1541H29.1564H29.1587H29.1611H29.1634H29.1657H29.1681H29.1704H29.1727H29.175H29.1773H29.1797H29.182H29.1843H29.1866H29.1889H29.1912H29.1936H29.1959H29.1982H29.2005H29.2028H29.2051H29.2074H29.2097H29.212H29.2143H29.2166H29.2189H29.2212H29.2235H29.2258H29.2281H29.2304H29.2327H29.235H29.2372H29.2395H29.2418H29.2441H29.2464H29.2487H29.251H29.2532H29.2555H29.2578H29.2601H29.2623H29.2646H29.2669H29.2692H29.2714H29.2737H29.276H29.2782H29.2805H29.2828H29.285H29.2873H29.2896H29.2918H29.2941H29.2964H29.2986H29.3009H29.3031H29.3054H29.3076H29.3099H29.3122H29.3144H29.3167H29.3189H29.3212H29.3234H29.3257H29.3279H29.3301H29.3324H29.3346H29.3369H29.3391H29.3414H29.3436H29.3458H29.3481H29.3503H29.3526H29.3548H29.357H29.3593H29.3615H29.3637H29.366H29.3682H29.3704H29.3727H29.3749H29.3771H29.3793H29.3816H29.3838H29.386H29.3882H29.3905H29.3927H29.3949H29.3971H29.3994H29.4016H29.4038H29.406H29.4082H29.4104H29.4127H29.4149H29.4171H29.4193H29.4215H29.4237H29.4259H29.4282H29.4304H29.4326H29.4348H29.437H29.4392H29.4414H29.4436H29.4458H29.448H29.4502H29.4524H29.4547H29.4569H29.4591H29.4613H29.4635H29.4657H29.4679H29.4701H29.4723H29.4745H29.4767H29.4789H29.4811H29.4833H29.4855H29.4877H29.4899H29.4921H29.4943H29.4964H29.4986H29.5008H29.503H29.5052H29.5074H29.5096H29.5118H29.514H29.5162H29.5184H29.5206H29.5228H29.525H29.5271H29.5293H29.5315H29.5337H29.5359H29.5381H29.5403H29.5425H29.5446H29.5468H29.549H29.5512H29.5534H29.5556H29.5578H29.56H29.5621H29.5643H29.5665H29.5687H29.5709H29.5731H29.5752H29.5774H29.5796H29.5818H29.584H29.5862H29.5883H29.5905H29.5927H29.5949H29.5971H29.5993H29.6014H29.6036H29.6058H29.608H29.6102H29.6123H29.6145H29.6167H29.6189H29.6211H29.6233H29.6254H29.6276H29.6298H29.632H29.6342H29.6363H29.6385H29.6407H29.6429H29.6451H29.6472H29.6494H29.6516H29.6538H29.656H29.6581H29.6603H29.6625H29.6647H29.6669H29.669H29.6712H29.6734H29.6756H29.6778H29.68H29.6821H29.6843H29.6865H29.6887H29.6909H29.693H29.6952H29.6974H29.6996H29.7018H29.704H29.7061H29.7083H29.7105H29.7127H29.7149H29.7171H29.7192H29.7214H29.7236H29.7258H29.728H29.7302H29.7324H29.7345H29.7367H29.7389H29.7411H29.7433H29.7455H29.7477H29.7498H29.752H29.7542H29.7564H29.7586H29.7608H29.763H29.7652H29.7674H29.7696H29.7717H29.7739H29.7761H29.7783H29.7805H29.7827H29.7849H29.7871H29.7893H29.7915H29.7937H29.7959H29.7981H29.8003H29.8025H29.8047H29.8069H29.8091H29.8113H29.8135H29.8157H29.8179H29.8201H29.8223H29.8245H29.8267H29.8289H29.8311H29.8333H29.8355H29.8377H29.8399H29.8421H29.8443H29.8465H29.8487H29.8509H29.8531H29.8553H29.8576H29.8598H29.862H29.8642H29.8664H29.8686H29.8708H29.873H29.8753H29.8775H29.8797H29.8819H29.8841H29.8864H29.8886H29.8908H29.893H29.8952H29.8975H29.8997H29.9019H29.9041H29.9064H29.9086H29.9108H29.913H29.9153H29.9175H29.9197H29.922H29.9242H29.9264H29.9287H29.9309H29.9331H29.9354H29.9376H29.9398H29.9421H29.9443H29.9466H29.9488H29.951H29.9533H29.9555H29.9578H29.96H29.9623H29.9645H29.9668H29.969H29.9713H29.9735H29.9758H29.978H29.9803H29.9825H29.9848H29.987H29.9893H29.9916H29.9938H29.9961H29.9983H30.0006H30.0029H30.0051H30.0074H30.0097H30.0119H30.0142H30.0165H30.0187H30.021H30.0233H30.0256H30.0278H30.0301H30.0324H30.0347H30.0369H30.0392H30.0415H30.0438H30.0461H30.0484H30.0507H30.0529H30.0552H30.0575H30.0598H30.0621H30.0644H30.0667H30.069H30.0713H30.0736H30.0759H30.0782H30.0805H30.0828H30.0851H30.0874H30.0897H30.092H30.0943H30.0966H30.099H30.1013H30.1036H30.1059H30.1082H30.1105H30.1129H30.1152H30.1175H30.1198H30.1222H30.1245H30.1268H30.1291H30.1315H30.1338H30.1361H30.1385H30.1408H30.1432H30.1455H30.1478H30.1502H30.1525H30.1549H30.1572H30.1596H30.1619H30.1643H30.1666H30.169H30.1713H30.1737H30.1761H30.1784H30.1808H30.1831H30.1855H30.1879H30.1902H30.1926H30.195H30.1974H30.1997H30.2021H30.2045H30.2069H30.2092H30.2116H30.214H30.2164H30.2188H30.2212H30.2236H30.226H30.2284H30.2307H30.2331H30.2355H30.2379H30.2403H30.2427H30.2452H30.2476H30.25H30.2524H30.2548H30.2572H30.2596H30.262H30.2645H30.2669H30.2693H30.2717H30.3717V42.2902C30.3717 42.0591 30.3739 41.8297 30.3761 41.6016C30.3813 41.0548 30.3865 40.5155 30.3612 39.9783L30.3612 39.9783M27.7093 35.5004L30.3612 39.9783M30.3612 39.9783C30.3505 39.7516 30.3749 39.5907 30.4463 39.4625C30.517 39.3354 30.642 39.2263 30.8623 39.1208C31.7855 38.6802 32.2661 37.649 32.1395 36.6763M30.3612 39.9783L32.1395 36.6763M32.1395 36.6763C32.0079 35.6608 31.2663 34.8411 30.245 34.5761L32.1395 36.6763ZM30.7682 37.0111L30.7682 37.0111C30.7506 37.5932 30.251 38.0722 29.6706 38.0655C29.0901 38.0573 28.6001 37.5616 28.5987 36.9828C28.5974 36.378 29.1314 35.8675 29.7329 35.8959L29.7329 35.8959C30.3151 35.9231 30.7858 36.4309 30.7682 37.0111Z" fill="#3D3D63" stroke="#3D3D63" stroke-width="0.2"/>
<path d="M41.4344 41.0729H41.5344H41.5371H41.5398H41.5425H41.5452H41.5478H41.5505H41.5532H41.5558H41.5585H41.5612H41.5638H41.5665H41.5691H41.5718H41.5744H41.5771H41.5797H41.5823H41.585H41.5876H41.5903H41.5929H41.5955H41.5981H41.6007H41.6034H41.606H41.6086H41.6112H41.6138H41.6164H41.619H41.6216H41.6242H41.6268H41.6294H41.632H41.6346H41.6372H41.6398H41.6423H41.6449H41.6475H41.6501H41.6526H41.6552H41.6578H41.6603H41.6629H41.6654H41.668H41.6706H41.6731H41.6757H41.6782H41.6808H41.6833H41.6858H41.6884H41.6909H41.6934H41.696H41.6985H41.701H41.7036H41.7061H41.7086H41.7111H41.7136H41.7161H41.7187H41.7212H41.7237H41.7262H41.7287H41.7312H41.7337H41.7362H41.7387H41.7412H41.7436H41.7461H41.7486H41.7511H41.7536H41.7561H41.7585H41.761H41.7635H41.766H41.7684H41.7709H41.7734H41.7758H41.7783H41.7807H41.7832H41.7857H41.7881H41.7906H41.793H41.7955H41.7979H41.8003H41.8028H41.8052H41.8077H41.8101H41.8125H41.815H41.8174H41.8198H41.8223H41.8247H41.8271H41.8295H41.8319H41.8344H41.8368H41.8392H41.8416H41.844H41.8464H41.8488H41.8512H41.8536H41.856H41.8584H41.8608H41.8632H41.8656H41.868H41.8704H41.8728H41.8752H41.8776H41.88H41.8824H41.8847H41.8871H41.8895H41.8919H41.8942H41.8966H41.899H41.9014H41.9037H41.9061H41.9085H41.9108H41.9132H41.9156H41.9179H41.9203H41.9226H41.925H41.9273H41.9297H41.932H41.9344H41.9367H41.9391H41.9414H41.9438H41.9461H41.9485H41.9508H41.9531H41.9555H41.9578H41.9602H41.9625H41.9648H41.9672H41.9695H41.9718H41.9741H41.9765H41.9788H41.9811H41.9834H41.9858H41.9881H41.9904H41.9927H41.995H41.9973H41.9997H42.002H42.0043H42.0066H42.0089H42.0112H42.0135H42.0158H42.0181H42.0204H42.0227H42.025H42.0273H42.0296H42.0319H42.0342H42.0365H42.0388H42.0411H42.0434H42.0457H42.048H42.0503H42.0526H42.0548H42.0571H42.0594H42.0617H42.064H42.0663H42.0685H42.0708H42.0731H42.0754H42.0777H42.0799H42.0822H42.0845H42.0868H42.089H42.0913H42.0936H42.0959H42.0981H42.1004H42.1027H42.1049H42.1072H42.1095H42.1117H42.114H42.1163H42.1185H42.1208H42.123H42.1253H42.1276H42.1298H42.1321H42.1343H42.1366H42.1388H42.1411H42.1434H42.1456H42.1479H42.1501H42.1524H42.1546H42.1569H42.1591H42.1614H42.1636H42.1659H42.1681H42.1704H42.1726H42.1749H42.1771H42.1794H42.1816H42.1838H42.1861H42.1883H42.1906H42.1928H42.1951H42.1973H42.1995H42.2018H42.204H42.2063H42.2085H42.2107H42.213H42.2152H42.2175H42.2197H42.2219H42.2242H42.2264H42.2286H42.2309H42.2331H42.2354H42.2376H42.2398H42.2421H42.2443H42.2465H42.2488H42.251H42.2532H42.2555H42.2577H42.2599H42.2622H42.2644H42.2666H42.2688H42.2711H42.2733H42.2755H42.2778H42.28H42.2822H42.2845H42.2867H42.2889H42.2912H42.2934H42.2956H42.2978H42.3001H42.3023H42.3045H42.3068H42.309H42.3112H42.3135H42.3157H42.3179H42.3201H42.3224H42.3246H42.3268H42.3291H42.3313H42.3335H42.3358H42.338H42.3402H42.3424H42.3447H42.3469H42.3491H42.3514H42.3536H42.3558H42.3581H42.3603H42.3625H42.3648H42.367H42.3692H42.3714H42.3737H42.3759H42.3781H42.3804H42.3826H42.3848H42.3871H42.3893H42.3915H42.3938H42.396H42.3983H42.4005H42.4027H42.405H42.4072H42.4094H42.4117H42.4139H42.4161H42.4184H42.4206H42.4229H42.4251H42.4273H42.4296H42.4318H42.4341H42.4363H42.4385H42.4408H42.443H42.4453H42.4475H42.4498H42.452H42.4543H42.4565H42.4588H42.461H42.4632H42.4655H42.4677H42.47H42.4722H42.4745H42.4767H42.479H42.4812H42.4835H42.4858H42.488H42.4903H42.4925H42.4948H42.497H42.4993H42.5016H42.5038H42.5061H42.5083H42.5106H42.5129H42.5151H42.5174H42.5196H42.5219H42.5242H42.5264H42.5287H42.531H42.5332H42.5355H42.5378H42.5401H42.5423H42.5446H42.5469H42.5492H42.5514H42.5537H42.556H42.5583H42.5605H42.5628H42.5651H42.5674H42.5697H42.572H42.5742H42.5765H42.5788H42.5811H42.5834H42.5857H42.588H42.5903H42.5926H42.5949H42.5972H42.5994H42.6017H42.604H42.6063H42.6086H42.6109H42.6132H42.6156H42.6179H42.6202H42.6225H42.6248H42.6271H42.6294H42.6317H42.634H42.6363H42.6387H42.641H42.6433H42.6456H42.6479H42.6503H42.6526H42.6549H42.6572H42.6596H42.6619H42.6642H42.6665H42.6689H42.6712H42.6735H42.6759H42.6782H42.6806H42.6829H42.6852H42.6876H42.6899H42.6923H42.6946H42.697H42.6993H42.7017H42.704H42.7064H42.7087H42.7111H42.7135H42.7158H42.7182H42.7205H42.7229H42.7253H42.7276H42.73H42.7324H42.7347H42.8347V41.1729V41.186V41.1991V41.2122V41.2253V41.2384V41.2515V41.2646V41.2777V41.2908V41.3039V41.317V41.3301V41.3432V41.3563V41.3694V41.3825V41.3956V41.4087V41.4218V41.4349V41.448V41.4611V41.4742V41.4873V41.5004V41.5135V41.5266V41.5397V41.5527V41.5658V41.5789V41.592V41.6051V41.6182V41.6313V41.6444V41.6574V41.6705V41.6836V41.6967V41.7098V41.7229V41.736V41.749V41.7621V41.7752V41.7883V41.8014V41.8145V41.8275V41.8406V41.8537V41.8668V41.8799V41.8929V41.906V41.9191V41.9322V41.9452V41.9583V41.9714V41.9845V41.9976V42.0106V42.0237V42.0368V42.0499V42.0629V42.076V42.0891V42.1022V42.1152V42.1283V42.1414V42.1544V42.1675V42.1806V42.1937V42.2067V42.2198V42.2329V42.246V42.259V42.2721V42.2852V42.2982V42.3113V42.3244V42.3375V42.3505V42.3636V42.3767V42.3897V42.4028V42.4159V42.429V42.442V42.4551V42.4682V42.4812V42.4943V42.5074V42.5205V42.5335V42.5466V42.5597V42.5727V42.5858V42.5989V42.612V42.625V42.6381V42.6512V42.6642V42.6773V42.6904V42.7035V42.7165V42.7296V42.7427V42.7558V42.7688V42.7819V42.795V42.8081V42.8211V42.8342V42.8473V42.8603V42.8734V42.8865V42.8996V42.9126V42.9257V42.9388V42.9519V42.965V42.978V42.9911V43.0042V43.0173V43.0303V43.0434V43.0565V43.0696V43.0827V43.0957V43.1088V43.1219V43.135V43.1481V43.1611V43.1742V43.1873V43.2004V43.2135V43.2266V43.2396V43.2527V43.2658V43.2789V43.292V43.3051V43.3182V43.3313V43.3443V43.3574V43.3705V43.3836V43.3967V43.4098V43.4229V43.436V43.4491V43.4622V43.4753V43.4884V43.5015V43.5145V43.5276V43.5407V43.5538V43.5669V43.58V43.5931V43.6062V43.6193V43.6324V43.6455V43.6586V43.6718V43.6849V43.698V43.7111V43.7242V43.7373V43.7504V43.7635V43.7766V43.7897V43.8028V43.816V43.8291V43.8422V43.8553V43.8684V43.8815V43.8946V43.9078V43.9209V43.934V43.9471V43.9602V43.9734V43.9865V43.9996V44.0127V44.0259V44.039V44.0521V44.0653V44.0784V44.0915V44.1047V44.1178V44.1309V44.1441V44.1572V44.1703V44.1835V44.1966V44.2097V44.2229V44.236V44.2492V44.2623V44.2755V44.2886V44.3018V44.3149V44.3281V44.3412V44.3544V44.3675V44.3807V44.3938V44.407V44.4201V44.4333V44.4465V44.4596V44.4728V44.486V44.4991V44.5123V44.5255V44.5386V44.5518V44.565V44.5781V44.5913V44.6045V44.6177V44.6308V44.644V44.6572V44.6704V44.6836V44.6968V44.7099V44.7231V44.7363V44.7495V44.7627V44.7759V44.7891V44.8023V44.8155V44.8287V44.8419V44.8551V44.8683V44.8815V44.8947V44.9079V44.9211V44.9343V44.9475V44.9607V44.974V44.9872V45.0004V45.0136V45.0268V45.04V45.0533V45.0665V45.0797V45.0929V45.1062V45.1194V45.1326V45.1459V45.1591V45.1724V45.1856V45.1988V45.2121V45.2253V45.2386V45.2518V45.2651V45.2783V45.2916V45.3048V45.3181V45.3313V45.3446V45.3579V45.3711V45.3844V45.3977V45.4109V45.4242V45.4375V45.4507V45.464V45.4773V45.4906V45.5039V45.5171V45.5304V45.5437V45.557V45.5703V45.5836V45.5969V45.6102V45.6235V45.6368V45.6501V45.6634V45.6767V45.69V45.7033V45.7166V45.7299V45.7432V45.7565V45.7699V45.7832V45.7965V45.8098V45.8232V45.8365V45.8498V45.8632V45.8765V45.8898V45.9032V45.9165V45.9298V45.9432V45.9565V45.9699V45.9832V45.9966V46.01V46.0233V46.0367V46.05V46.0634V46.0768V46.0901V46.1035V46.1169V46.1302V46.1436V46.157V46.1704V46.1838V46.1972V46.2105V46.2239V46.2373V46.2507V46.2641V46.2775V46.2909V46.3043V46.3177V46.3311V46.3446V46.358V46.3714V46.3848V46.3982V46.4116V46.4251V46.4385V46.4519V46.4654V46.4788V46.4922V46.5057V46.5191V46.5326V46.546V46.5595V46.5729V46.5864V46.5998V46.6133V46.6267V46.6402V46.6537V46.6671V46.6806V46.6941V46.7076V46.721V46.7345V46.748V46.7615V46.775V46.7885V46.802V46.8155V46.829V46.8425V46.856V46.8695V46.883V46.8965V46.91V46.9235V46.9371V46.9506V46.9641V46.9776V46.9912V47.0047V47.0182V47.0318V47.0453V47.0589V47.0724V47.086V47.0995V47.1131V47.1266V47.1402V47.1538V47.1673V47.1809V47.1945V47.208V47.2216V47.2352V47.2488V47.2624V47.276V47.2896V47.3032V47.3168V47.3304V47.344V47.3576V47.3712V47.3848V47.3984V47.412V47.4257V47.4393V47.4529V47.4665V47.4802V47.4938V47.5074V47.5211V47.5347V47.5484V47.562V47.5757V47.5893V47.603V47.6167V47.6303V47.644V47.6577V47.6714V47.685V47.6987V47.7124V47.7261V47.7398V47.7426C42.902 47.6853 42.9651 47.6316 43.0263 47.5795C43.1817 47.4472 43.3253 47.325 43.4947 47.18L43.5753 47.111L43.6394 47.1956C43.862 47.4895 44.0668 47.7611 44.3621 48.1528L44.4157 48.224L44.3512 48.2854C44.2168 48.4134 44.0785 48.5487 43.9363 48.6878C43.5229 49.0921 43.076 49.5292 42.5926 49.9171L42.5923 49.9174C42.5327 49.9648 42.454 49.9924 42.3752 50.0078C42.2949 50.0235 42.2058 50.0282 42.118 50.0236C41.9479 50.0146 41.7588 49.9692 41.644 49.8771C41.644 49.8771 41.644 49.8771 41.6439 49.877L41.7065 49.7991C41.269 49.4486 40.8664 49.054 40.4443 48.6404C40.2998 48.4988 40.153 48.3549 40.0018 48.2098L41.4344 41.0729ZM41.4344 41.0729V41.1729V41.1861V41.1993V41.2126V41.2258V41.239V41.2523V41.2655V41.2787V41.292V41.3052V41.3184V41.3316V41.3449V41.3581V41.3713V41.3845V41.3978V41.411V41.4242V41.4374V41.4506V41.4638V41.4771V41.4903V41.5035V41.5167V41.5299V41.5431V41.5563V41.5695V41.5827V41.5959V41.6091V41.6223V41.6355V41.6487V41.6619V41.6751V41.6883V41.7015V41.7147V41.7279V41.7411V41.7543V41.7675V41.7807V41.7938V41.807V41.8202V41.8334V41.8466V41.8598V41.8729V41.8861V41.8993V41.9125V41.9257V41.9388V41.952V41.9652V41.9784V41.9915V42.0047V42.0179V42.0311V42.0442V42.0574V42.0706V42.0837V42.0969V42.1101V42.1232V42.1364V42.1496V42.1627V42.1759V42.1891V42.2022V42.2154V42.2285V42.2417V42.2549V42.268V42.2812V42.2943V42.3075V42.3206V42.3338V42.3469V42.3601V42.3732V42.3864V42.3995V42.4127V42.4258V42.439V42.4521V42.4653V42.4784V42.4916V42.5047V42.5179V42.531V42.5442V42.5573V42.5705V42.5836V42.5967V42.6099V42.623V42.6362V42.6493V42.6624V42.6756V42.6887V42.7019V42.715V42.7281V42.7413V42.7544V42.7675V42.7807V42.7938V42.8069V42.8201V42.8332V42.8463V42.8595V44.5395V44.5527V44.5658V44.579V44.5921V44.6052V44.6184V44.6315V44.6447V44.6578V44.671V44.6841V44.6972V44.7104V44.7235V44.7367V44.7498V44.763V44.7761V44.7893V44.8024V44.8156V44.8287V44.8419V44.855V44.8682V44.8813V44.8945V44.9076V44.9208V44.9339V44.9471V44.9603V44.9734V44.9866V44.9997V45.0129V45.0261V45.0392V45.0524V45.0655V45.0787V45.0919V45.105V45.1182V45.1314V45.1445V45.1577V45.1709V45.184V45.1972V45.2104V45.2236V45.2367V45.2499V45.2631V45.2763V45.2894V45.3026V45.3158V45.329V45.3422V45.3553V45.3685V45.3817V45.3949V45.4081V45.4213V45.4344V45.4476V45.4608V45.474V45.4872V45.5004V45.5136V45.5268V45.54V45.5532V45.5664V45.5796V45.5928V45.606V45.6192V45.6324V45.6456V45.6588V45.672V45.6852V45.6984V45.7116V45.7248V45.738V45.7512V45.7645V45.7777V45.7909V45.8041V45.8173V45.8305V45.8438V45.857V45.8702V45.8834V45.8967V45.9099V45.9231V45.9363V45.9496V45.9628V45.976V45.9893V46.0025V46.0157V46.029V46.0422V46.0555V46.0687V46.0819V46.0952V46.1084V46.1217V46.1349V46.1482V46.1614V46.1747V46.2277V47.7233V41.0729Z" fill="#3D3D63" stroke="#3D3D63" stroke-width="0.2"/>
<path d="M34.4498 47.7284H34.5498V47.6284V47.6152V47.602V47.5887V47.5755V47.5623V47.5491V47.5359V47.5227V47.5095V47.4963V47.4831V47.4699V47.4567V47.4435V47.4303V47.4171V47.4039V47.3907V47.3775V47.3643V47.3511V47.3379V47.3248V47.3116V47.2984V47.2852V47.272V47.2588V47.2456V47.2325V47.2193V47.2061V47.1929V47.1797V47.1666V47.1534V47.1402V47.127V47.1139V47.1007V47.0875V47.0743V47.0612V47.048V47.0348V47.0217V47.0085V46.9953V46.9822V46.969V46.9559V46.9427V46.9295V46.9164V46.9032V46.8901V46.8769V46.8637V46.8506V46.8374V46.8243V46.8111V46.798V46.7848V46.7717V46.7585V46.7454V46.7322V46.7191V46.7059V46.6928V46.6796V46.6665V46.6533V46.6402V46.627V46.6139V46.6008V46.5876V46.5745V46.5613V46.5482V46.535V46.5219V46.5088V46.4956V46.4825V46.4694V46.4562V46.4431V46.43V46.4168V46.4037V46.3906V46.3774V46.3643V46.3512V46.338V46.3249V46.3118V46.2986V46.2855V46.2724V46.2593V46.2461V46.233V46.2199V46.2067V46.1936V46.1805V46.1674V46.1542V46.1411V46.128V46.1149V46.1018V46.0886V46.0755V46.0624V46.0493V46.0361V46.023V46.0099V45.9968V45.9837V45.9706V45.9574V45.9443V45.9312V45.9181V45.905V45.8918V45.8787V45.8656V45.8525V45.8394V45.8263V45.8131V45.8V45.7869V45.7738V45.7607V45.7476V45.7345V45.7213V45.7082V45.6951V45.682V45.6689V45.6558V45.6427V45.6296V45.6164V45.6033V45.5902V45.5771V45.564V45.5509V45.5378V45.5247V45.5116V45.4984V45.4853V45.4722V45.4591V45.446V45.4329V45.4198V45.4067V45.3936V45.3804V45.3673V45.3542V45.3411V45.328V45.3149V45.3018V45.2887V45.2756V45.2624V45.2493V45.2362V45.2231V45.21V45.1969V45.1838V45.1707V45.1576V45.1444V45.1313V45.1182V45.1051V45.092V45.0789V45.0658V45.0527V45.0395V45.0264V45.0133V45.0002V44.9871V44.974V44.9609V44.9478V44.9346V44.9215V44.9084V44.8953V44.8822V44.8691V44.856V44.8428V44.8297V44.8166V44.8035V44.7904V44.7773V44.7641V44.751V44.7379V44.7248V44.7117V44.6985V44.6854V44.6723V44.6592V44.6461V44.6329V44.6198V44.6067V44.5936V44.5805V44.5673V44.5542V44.5411V44.528V44.5148V44.5017V44.4886V44.4755V44.4623V44.4492V44.4361V44.423V44.4098V44.3967V44.3836V44.3704V44.3573V44.3442V44.3311V44.3179V44.3048V44.2917V44.2785V44.2654V44.2523V44.2391V44.226V44.2129V44.1997V44.1866V44.1734V44.1603V44.1472V44.134V44.1209V44.1077V44.0946V44.0815V44.0683V44.0552V44.042V44.0289V44.0157V44.0026V43.9895V43.9763V43.9632V43.95V43.9369V43.9237V43.9106V43.8974V43.8843V43.8711V43.8579V43.8448V43.8316V43.8185V43.8053V43.7922V43.779V43.7658V43.7527V43.7395V43.7264V43.7132V43.7V43.6869V43.6737V43.6605V43.6474V43.6342V43.621V43.6079V43.5947V43.5815V43.5683V43.5552V43.542V43.5288V43.5157V43.5025V43.4893V43.4761V43.4629V43.4498V43.4366V43.4234V43.4102V43.397V43.3838V43.3706V43.3575V43.3443V43.3311V43.3179V43.3047V43.2915V43.2783V43.2651V43.2519V43.2387V43.2255V43.2123V43.1991V43.1859V43.1727V43.1595V43.1463V43.1331V43.1199V43.1067V43.0935V43.0803V43.067V43.0538V43.0406V43.0274V43.0142V43.001V42.9877V42.9745V42.9613V42.9481V42.9349V42.9216V42.9084V42.8952V42.8819V42.8687V42.8555V42.8422V42.829V42.8158V42.8025V42.7893V42.7761V42.7628V42.7496V42.7363V42.7231V42.7098V42.6966V42.6833V42.6701V42.6568V42.6436V42.6303V42.6171V42.6038V42.5906V42.5773V42.564V42.5508V42.5375V42.5242V42.511V42.4977V42.4844V42.4712V42.4579V42.4446V42.4313V42.4181V42.4048V42.3915V42.3782V42.3649V42.3516V42.3384V42.3251V42.3118V42.2985V42.2852V42.2719V42.2586V42.2453V42.232V42.2187V42.2054V42.1921V42.1788V42.1655V42.1522V42.1388V42.1255V42.1122V42.0989V42.0856V42.0723V42.0589V42.0456V42.0323V42.019V42.0056V41.9923V41.979V41.9656V41.9523V41.939V41.9256V41.9123V41.8989V41.8856V41.8723V41.8589V41.8456V41.8322V41.8189V41.8055V41.7921V41.7788V41.7654V41.7521V41.7387V41.7253V41.712V41.6986V41.6852V41.6718V41.6585V41.6451V41.6317V41.6183V41.6049V41.5916V41.5782V41.5648V41.5514V41.538V41.5246V41.5112V41.4978V41.4844V41.471V41.4576V41.4442V41.4308V41.4174V41.404V41.3905V41.3771V41.3637V41.3503V41.3369V41.3234V41.31V41.2966V41.2831V41.2697V41.2563V41.2428V41.2294V41.216V41.2025V41.1891V41.1756V41.1622V41.1487V41.1353V41.1218V41.1083V41.0949V41.0814V41.0765C34.6109 41.1265 34.6679 41.1731 34.7211 41.2166C34.869 41.3375 34.9875 41.4344 35.084 41.513L35.1465 41.5639L35.2095 41.5136C35.5124 41.2716 35.7766 41.0593 36.1638 40.7478L36.2538 40.6754L36.1693 40.5967C35.9884 40.4281 35.8133 40.2604 35.641 40.0954C35.1952 39.6684 34.7681 39.2594 34.3068 38.8983C34.2469 38.851 34.1689 38.8208 34.0896 38.8023C34.0089 38.7834 33.9199 38.7751 33.8322 38.7761C33.6623 38.778 33.4732 38.8157 33.3564 38.9049C32.8761 39.2718 32.4311 39.6891 32.0603 40.0369C31.933 40.1563 31.8143 40.2676 31.706 40.3658L31.644 40.422L31.6884 40.4929C31.8787 40.797 32.0259 41.0316 32.1586 41.2429C32.2317 41.3594 32.3004 41.4689 32.3695 41.579L32.4318 41.6784L32.52 41.6012C32.5909 41.5392 32.6563 41.4821 32.7194 41.427C32.8597 41.3044 32.9883 41.1921 33.1391 41.0598V41.0719V41.0856V41.0992V41.1129V41.1266V41.1402V41.1539V41.1675V41.1812V41.1948V41.2085V41.2221V41.2358V41.2494V41.263V41.2767V41.2903V41.3039V41.3176V41.3312V41.3448V41.3584V41.372V41.3856V41.3992V41.4128V41.4264V41.44V41.4536V41.4672V41.4808V41.4944V41.508V41.5216V41.5351V41.5487V41.5623V41.5758V41.5894V41.603V41.6165V41.6301V41.6437V41.6572V41.6708V41.6843V41.6978V41.7114V41.7249V41.7385V41.752V41.7655V41.7791V41.7926V41.8061V41.8196V41.8332V41.8467V41.8602V41.8737V41.8872V41.9007V41.9142V41.9277V41.9412V41.9547V41.9682V41.9817V41.9952V42.0087V42.0221V42.0356V42.0491V42.0626V42.0761V42.0895V42.103V42.1165V42.1299V42.1434V42.1568V42.1703V42.1838V42.1972V42.2107V42.2241V42.2375V42.251V42.2644V42.2779V42.2913V42.3047V42.3182V42.3316V42.345V42.3584V42.3719V42.3853V42.3987V42.4121V42.4255V42.4389V42.4523V42.4657V42.4792V42.4926V42.506V42.5193V42.5327V42.5461V42.5595V42.5729V42.5863V42.5997V42.6131V42.6264V42.6398V42.6532V42.6666V42.6799V42.6933V42.7067V42.72V42.7334V42.7468V42.7601V42.7735V42.7868V42.8002V42.8135V42.8269V42.8402V42.8536V42.8669V42.8803V42.8936V42.9069V42.9203V42.9336V42.9469V42.9603V42.9736V42.9869V43.0002V43.0136V43.0269V43.0402V43.0535V43.0668V43.0801V43.0934V43.1068V43.1201V43.1334V43.1467V43.16V43.1733V43.1866V43.1999V43.2131V43.2264V43.2397V43.253V43.2663V43.2796V43.2929V43.3062V43.3194V43.3327V43.346V43.3593V43.3725V43.3858V43.3991V43.4123V43.4256V43.4389V43.4521V43.4654V43.4787V43.4919V43.5052V43.5184V43.5317V43.5449V43.5582V43.5714V43.5847V43.5979V43.6112V43.6244V43.6376V43.6509V43.6641V43.6773V43.6906V43.7038V43.717V43.7303V43.7435V43.7567V43.77V43.7832V43.7964V43.8096V43.8228V43.8361V43.8493V43.8625V43.8757V43.8889V43.9021V43.9153V43.9286V43.9418V43.955V43.9682V43.9814V43.9946V44.0078V44.021V44.0342V44.0474V44.0606V44.0738V44.0869V44.1001V44.1133V44.1265V44.1397V44.1529V44.1661V44.1793V44.1924V44.2056V44.2188V44.232V44.2452V44.2583V44.2715V44.2847V44.2979V44.311V44.3242V44.3374V44.3505V44.3637V44.3769V44.39V44.4032V44.4164V44.4295V44.4427V44.4559V44.469V44.4822V44.4953V44.5085V44.5216V44.5348V44.5479V44.5611V44.5743V44.5874V44.6006V44.6137V44.6268V44.64V44.6531V44.6663V44.6794V44.6926V44.7057V44.7189V44.732V44.7451V44.7583V44.7714V44.7845V44.7977V44.8108V44.8239V44.8371V44.8502V44.8633V44.8765V44.8896V44.9027V44.9159V44.929V44.9421V44.9552V44.9684V44.9815V44.9946V45.0077V45.0209V45.034V45.0471V45.0602V45.0733V45.0865V45.0996V45.1127V45.1258V45.1389V45.152V45.1652V45.1783V45.1914V45.2045V45.2176V45.2307V45.2438V45.2569V45.2701V45.2832V45.2963V45.3094V45.3225V45.3356V45.3487V45.3618V45.3749V45.388V45.4011V45.4142V45.4273V45.4404V45.4535V45.4666V45.4798V45.4929V45.506V45.5191V45.5322V45.5453V45.5584V45.5715V45.5846V45.5977V45.6107V45.6238V45.6369V45.65V45.6631V45.6762V45.6893V45.7024V45.7155V45.7286V45.7417V45.7548V45.7679V45.781V45.7941V45.8072V45.8203V45.8334V45.8465V45.8596V45.8726V45.8857V45.8988V45.9119V45.925V45.9381V45.9512V45.9643V45.9774V45.9905V46.0036V46.0167V46.0297V46.0428V46.0559V46.069V46.0821V46.0952V46.1083V46.1214V46.1345V46.1476V46.1606V46.1737V46.1868V46.1999V46.213V46.2261V46.2392V46.2523V46.2654V46.2785V46.2915V46.3046V46.3177V46.3308V46.3439V46.357V46.3701V46.3832V46.3963V46.4094V46.4225V46.4355V46.4486V46.4617V46.4748V46.4879V46.501V46.5141V46.5272V46.5403V46.5534V46.5665V46.5796V46.5926V46.6057V46.6188V46.6319V46.645V46.6581V46.6712V46.6843V46.6974V46.7105V46.7236V46.7367V46.7498V46.7629V46.776V46.7891V46.8022V46.8153V46.8284V46.8415V46.8546V46.8677V46.8808V46.8939V46.907V46.9201V46.9332V46.9463V46.9594V46.9725V46.9856V46.9987V47.0118V47.0249V47.038V47.0511V47.0642V47.0773V47.0904V47.1035V47.1166V47.1298V47.1429V47.156V47.1691V47.1822V47.1953V47.2084V47.2215V47.2346V47.2478V47.2609V47.274V47.2871V47.3002V47.3133V47.3265V47.3396V47.3527V47.3658V47.3789V47.3921V47.4052V47.4183V47.4314V47.4446V47.4577V47.4708V47.4839V47.4971V47.5102V47.5233V47.5365V47.5496V47.5627V47.5758V47.589V47.6021V47.6152V47.6284V47.7284H33.2391H33.2415H33.2439H33.2463H33.2487H33.2511H33.2535H33.2559H33.2583H33.2607H33.2631H33.2655H33.2679H33.2703H33.2726H33.275H33.2774H33.2798H33.2822H33.2845H33.2869H33.2893H33.2917H33.294H33.2964H33.2988H33.3012H33.3035H33.3059H33.3082H33.3106H33.313H33.3153H33.3177H33.32H33.3224H33.3247H33.3271H33.3295H33.3318H33.3341H33.3365H33.3388H33.3412H33.3435H33.3459H33.3482H33.3505H33.3529H33.3552H33.3576H33.3599H33.3622H33.3646H33.3669H33.3692H33.3715H33.3739H33.3762H33.3785H33.3808H33.3832H33.3855H33.3878H33.3901H33.3924H33.3948H33.3971H33.3994H33.4017H33.404H33.4063H33.4086H33.4109H33.4132H33.4155H33.4179H33.4202H33.4225H33.4248H33.4271H33.4294H33.4317H33.434H33.4363H33.4386H33.4409H33.4431H33.4454H33.4477H33.45H33.4523H33.4546H33.4569H33.4592H33.4615H33.4638H33.466H33.4683H33.4706H33.4729H33.4752H33.4775H33.4797H33.482H33.4843H33.4866H33.4889H33.4911H33.4934H33.4957H33.498H33.5002H33.5025H33.5048H33.5071H33.5093H33.5116H33.5139H33.5161H33.5184H33.5207H33.523H33.5252H33.5275H33.5298H33.532H33.5343H33.5365H33.5388H33.5411H33.5433H33.5456H33.5479H33.5501H33.5524H33.5546H33.5569H33.5592H33.5614H33.5637H33.5659H33.5682H33.5705H33.5727H33.575H33.5772H33.5795H33.5817H33.584H33.5862H33.5885H33.5907H33.593H33.5953H33.5975H33.5998H33.602H33.6043H33.6065H33.6088H33.611H33.6133H33.6155H33.6178H33.62H33.6223H33.6245H33.6268H33.629H33.6313H33.6335H33.6358H33.638H33.6403H33.6425H33.6448H33.647H33.6492H33.6515H33.6537H33.656H33.6582H33.6605H33.6627H33.665H33.6672H33.6695H33.6717H33.674H33.6762H33.6785H33.6807H33.683H33.6852H33.6875H33.6897H33.6919H33.6942H33.6964H33.6987H33.7009H33.7032H33.7054H33.7077H33.7099H33.7122H33.7144H33.7167H33.7189H33.7212H33.7234H33.7257H33.7279H33.7302H33.7324H33.7347H33.7369H33.7392H33.7414H33.7437H33.7459H33.7482H33.7504H33.7527H33.7549H33.7572H33.7594H33.7617H33.7639H33.7662H33.7685H33.7707H33.773H33.7752H33.7775H33.7797H33.782H33.7842H33.7865H33.7888H33.791H33.7933H33.7955H33.7978H33.8001H33.8023H33.8046H33.8068H33.8091H33.8114H33.8136H33.8159H33.8182H33.8204H33.8227H33.825H33.8272H33.8295H33.8318H33.834H33.8363H33.8386H33.8408H33.8431H33.8454H33.8477H33.8499H33.8522H33.8545H33.8568H33.859H33.8613H33.8636H33.8659H33.8681H33.8704H33.8727H33.875H33.8773H33.8796H33.8818H33.8841H33.8864H33.8887H33.891H33.8933H33.8956H33.8979H33.9001H33.9024H33.9047H33.907H33.9093H33.9116H33.9139H33.9162H33.9185H33.9208H33.9231H33.9254H33.9277H33.93H33.9323H33.9346H33.9369H33.9392H33.9415H33.9439H33.9462H33.9485H33.9508H33.9531H33.9554H33.9577H33.96H33.9624H33.9647H33.967H33.9693H33.9716H33.974H33.9763H33.9786H33.981H33.9833H33.9856H33.9879H33.9903H33.9926H33.9949H33.9973H33.9996H34.002H34.0043H34.0066H34.009H34.0113H34.0137H34.016H34.0184H34.0207H34.0231H34.0254H34.0278H34.0301H34.0325H34.0348H34.0372H34.0395H34.0419H34.0443H34.0466H34.049H34.0514H34.0537H34.0561H34.0585H34.0609H34.0632H34.0656H34.068H34.0704H34.0727H34.0751H34.0775H34.0799H34.0823H34.0847H34.0871H34.0895H34.0918H34.0942H34.0966H34.099H34.1014H34.1038H34.1062H34.1086H34.1111H34.1135H34.1159H34.1183H34.1207H34.1231H34.1255H34.128H34.1304H34.1328H34.1352H34.1376H34.1401H34.1425H34.1449H34.1474H34.1498H34.1522H34.1547H34.1571H34.1596H34.162H34.1645H34.1669H34.1693H34.1718H34.1743H34.1767H34.1792H34.1816H34.1841H34.1866H34.189H34.1915H34.194H34.1964H34.1989H34.2014H34.2039H34.2063H34.2088H34.2113H34.2138H34.2163H34.2188H34.2213H34.2237H34.2262H34.2287H34.2312H34.2337H34.2362H34.2388H34.2413H34.2438H34.2463H34.2488H34.2513H34.2538H34.2564H34.2589H34.2614H34.2639H34.2665H34.269H34.2715H34.2741H34.2766H34.2792H34.2817H34.2843H34.2868H34.2894H34.2919H34.2945H34.297H34.2996H34.3022H34.3047H34.3073H34.3099H34.3124H34.315H34.3176H34.3202H34.3227H34.3253H34.3279H34.3305H34.3331H34.3357H34.3383H34.3409H34.3435H34.3461H34.3487H34.3513H34.3539H34.3566H34.3592H34.3618H34.3644H34.367H34.3697H34.3723H34.3749H34.3776H34.3802H34.3829H34.3855H34.3881H34.3908H34.3934H34.3961H34.3988H34.4014H34.4041H34.4067H34.4094H34.4121H34.4148H34.4174H34.4201H34.4228H34.4255H34.4282H34.4309H34.4336H34.4363H34.439H34.4417H34.4444H34.4471H34.4498Z" fill="#3D3D63" stroke="#3D3D63" stroke-width="0.2"/>
<defs>
<filter id="filter0_d_2_1153" x="4" y="7" width="67.0658" height="67.0657" filterUnits="userSpaceOnUse" color-interpolation-filters="sRGB">
<feFlood flood-opacity="0" result="BackgroundImageFix"/>
<feColorMatrix in="SourceAlpha" type="matrix" values="0 0 0 0 0 0 0 0 0 0 0 0 0 0 0 0 0 0 127 0" result="hardAlpha"/>
<feMorphology radius="1" operator="dilate" in="SourceAlpha" result="effect1_dropShadow_2_1153"/>
<feOffset dy="3"/>
<feGaussianBlur stdDeviation="2"/>
<feComposite in2="hardAlpha" operator="out"/>
<feColorMatrix type="matrix" values="0 0 0 0 0 0 0 0 0 0 0 0 0 0 0 0 0 0 0.07 0"/>
<feBlend mode="normal" in2="BackgroundImageFix" result="effect1_dropShadow_2_1153"/>
<feBlend mode="normal" in="SourceGraphic" in2="effect1_dropShadow_2_1153" result="shape"/>
</filter>
</defs>
</svg>
