<svg width="75" height="75" viewBox="0 0 75 75" fill="none" xmlns="http://www.w3.org/2000/svg">
<circle cx="37.7127" cy="37.3265" r="36.4945" stroke="#CDCDCD" stroke-width="0.5" stroke-dasharray="3 3"/>
<g filter="url(#filter0_d_4_1226)">
<circle cx="37.7136" cy="37.3278" r="28.5329" fill="#DAF2FF"/>
</g>
<path d="M38.89 40.1852C38.89 40.5893 38.89 40.9818 38.89 41.4268C39.0905 41.4362 39.2762 41.4541 39.462 41.4541C40.7392 41.4562 42.0164 41.4551 43.2926 41.4551C43.4322 41.4551 43.5728 41.4499 43.7124 41.4604C44.0021 41.4834 44.2865 41.602 44.2004 41.9232C44.1522 42.1037 43.8656 42.3419 43.682 42.3461C42.283 42.3818 40.884 42.3661 39.484 42.3661C39.2951 42.3661 39.1073 42.3661 38.89 42.3661C38.89 42.6704 38.89 42.9223 38.89 43.2529C39.6215 43.2529 40.332 43.2529 41.0425 43.2529C42.494 43.2539 42.9169 43.6769 42.918 45.1252C42.918 45.7549 42.8991 46.3856 42.9306 47.0143C42.9389 47.1853 43.0575 47.3963 43.1929 47.5075C43.7198 47.941 43.9265 48.5045 43.7208 49.0807C43.5246 49.6338 43.0145 49.9885 42.4341 49.977C41.8706 49.9665 41.3689 49.6086 41.1905 49.0891C40.99 48.5035 41.1957 47.9357 41.7173 47.5107C41.8527 47.4005 41.9808 47.1948 41.9871 47.0279C42.0154 46.2765 41.9881 45.524 42.0039 44.7715C42.0133 44.3192 41.8097 44.1418 41.371 44.1491C40.6185 44.1617 39.8671 44.1512 39.1146 44.1544C38.995 44.1554 38.8239 44.1355 38.7651 44.2016C38.2089 44.8429 37.5246 44.5647 36.9023 44.4346C33.5229 43.7262 31.2004 40.7205 31.276 37.2047C31.3484 33.8264 33.8346 30.9686 37.2014 30.384C37.7555 30.2885 38.3086 30.1374 38.7557 30.6621C38.8061 30.7209 38.9509 30.7146 39.0516 30.7146C39.8388 30.7188 40.6259 30.7125 41.413 30.7188C41.7971 30.722 42.0039 30.5666 42.0007 30.1615C41.9944 29.3744 42.0133 28.5863 41.9871 27.8002C41.9818 27.6501 41.8527 27.4654 41.7268 27.3636C41.1968 26.9396 40.99 26.3781 41.1863 25.7904C41.3658 25.2531 41.8958 24.8858 42.4772 24.8952C43.0439 24.9046 43.5225 25.2457 43.7166 25.782C43.9265 26.3613 43.7229 26.9218 43.2013 27.3605C43.0575 27.4811 42.9389 27.7141 42.9306 27.8999C42.9001 28.6335 42.9274 29.3692 42.9148 30.1038C42.8991 31.0693 42.3859 31.593 41.4193 31.613C40.5849 31.6298 39.7506 31.6161 38.889 31.6161C38.889 31.9404 38.889 32.1923 38.889 32.503C39.9038 32.503 40.8956 32.503 41.8874 32.503C42.4646 32.503 43.0418 32.5061 43.619 32.5019C43.9286 32.4998 44.1983 32.5659 44.2172 32.9311C44.2382 33.3415 43.9381 33.4108 43.6169 33.4118C42.2179 33.416 40.8179 33.4129 39.419 33.415C39.25 33.415 39.081 33.4328 38.8869 33.4433C38.8869 33.8778 38.8869 34.2713 38.8869 34.7058C39.081 34.7163 39.251 34.7342 39.42 34.7342C41.519 34.7363 43.618 34.7363 45.7169 34.7342C46.4149 34.7331 46.4936 34.6492 46.4967 33.9418C46.4978 33.6091 46.4841 33.2764 46.4999 32.9448C46.5251 32.4179 46.4957 31.9877 45.9793 31.6035C45.3769 31.1554 45.4745 30.2119 46.0433 29.7092C46.6153 29.2044 47.4843 29.2674 47.9618 29.8488C48.4519 30.4449 48.3858 31.3107 47.7509 31.7484C47.4276 31.9719 47.3437 32.2059 47.3604 32.5649C47.3856 33.1232 47.3751 33.6847 47.3636 34.2441C47.3458 35.1109 46.8147 35.642 45.9436 35.6441C43.7575 35.6514 41.5704 35.6462 39.3843 35.6472C39.23 35.6472 39.0768 35.6609 38.8911 35.6693C38.8911 36.1027 38.8911 36.512 38.8911 36.9696C39.0737 36.9801 39.2426 36.9979 39.4116 36.9979C42.5254 37 45.6393 36.9958 48.7531 37.0042C49.0522 37.0053 49.2537 36.9549 49.4405 36.6715C49.8005 36.1268 50.383 35.9694 50.9571 36.172C51.5112 36.3672 51.867 36.8741 51.8575 37.4534C51.8481 38.0327 51.4797 38.5228 50.9151 38.7033C50.3358 38.8891 49.8121 38.6876 49.3912 38.1765C49.2695 38.0296 49.0438 37.8816 48.8654 37.8805C45.6466 37.8627 42.4278 37.8679 39.2091 37.869C39.123 37.869 39.0369 37.8826 38.9047 37.8942C38.9047 38.3098 38.9047 38.7191 38.9047 39.1966C39.0611 39.2039 39.2447 39.2197 39.4274 39.2197C41.5263 39.2218 43.6253 39.2197 45.7243 39.2207C46.8976 39.2207 47.3625 39.692 47.3657 40.8789C47.3667 41.2116 47.3793 41.5443 47.3625 41.876C47.3353 42.4185 47.3542 42.8688 47.8894 43.2665C48.4876 43.7115 48.3858 44.6697 47.8201 45.1651C47.2618 45.6541 46.4306 45.6058 45.9352 45.0559C45.4231 44.486 45.4451 43.5929 46.0801 43.1574C46.4747 42.8866 46.5083 42.5865 46.4978 42.196C46.4852 41.707 46.4925 41.2169 46.4946 40.7268C46.4957 40.3489 46.3361 40.1338 45.9331 40.1338C43.6589 40.1359 41.3847 40.1348 39.1115 40.138C39.0495 40.139 38.9834 40.1653 38.89 40.1852ZM37.9423 43.6108C37.9423 39.4873 37.9423 35.3639 37.9423 31.2404C34.8621 31.1953 32.0347 34.3175 32.146 37.5877C32.2551 40.8307 35.1664 43.8616 37.9423 43.6108ZM41.838 26.2616C42.1224 26.4526 42.3051 26.6709 42.4604 26.6531C42.622 26.6342 42.7563 26.3876 42.9033 26.2396C42.7416 26.0906 42.5958 25.8513 42.4153 25.8219C42.2799 25.7988 42.1015 26.0486 41.838 26.2616ZM50.553 36.809C50.3263 37.0903 50.0839 37.2666 50.1059 37.3936C50.1374 37.5688 50.3704 37.7074 50.5173 37.8616C50.659 37.7231 50.892 37.5972 50.9151 37.4408C50.9371 37.2939 50.7388 37.1134 50.553 36.809ZM43.0649 48.6C42.7847 48.4164 42.6 48.2023 42.4467 48.2222C42.2841 48.2432 42.1518 48.4877 42.0059 48.6347C42.1676 48.7826 42.3155 49.0209 42.4961 49.0482C42.6293 49.0692 42.8046 48.8173 43.0649 48.6ZM46.9574 30.0891C46.7413 30.3756 46.5083 30.553 46.5324 30.6831C46.5649 30.8563 46.7969 30.9917 46.9438 31.1439C47.0823 31.0022 47.3132 30.8731 47.3332 30.7167C47.3521 30.5677 47.1495 30.3914 46.9574 30.0891ZM46.9407 44.7809C47.1401 44.486 47.3468 44.315 47.3321 44.1659C47.3164 44.0085 47.0897 43.8731 46.9543 43.7273C46.8042 43.8752 46.5691 44.0043 46.5314 44.1775C46.5041 44.3055 46.7318 44.4892 46.9407 44.7809Z" fill="#3D3D63"/>
<path d="M38.8585 26.6888C38.8585 27.2314 38.8627 27.774 38.8575 28.3155C38.8512 29.0271 38.614 29.2926 37.914 29.3713C34.2869 29.7795 31.7955 31.6739 30.705 35.1634C29.2221 39.904 32.5028 44.8271 37.4407 45.4306C37.6485 45.4558 37.8573 45.4831 38.0651 45.5114C38.5468 45.5775 38.8417 45.8514 38.8491 46.3384C38.8669 47.5632 38.8827 48.789 38.8344 50.0116C38.8239 50.2687 38.5962 50.6151 38.3684 50.7484C37.5089 51.249 36.1592 50.6602 36.0931 49.68C36.0218 48.6147 35.5484 48.1456 34.5577 47.9231C33.9763 47.793 33.4306 47.4603 32.8985 47.1654C32.6235 47.0122 32.4409 47.0206 32.209 47.2095C31.9382 47.4299 31.6496 47.6293 31.3578 47.8203C30.8352 48.1614 30.2705 48.1561 29.8119 47.7395C29.2305 47.2116 28.6701 46.6554 28.1432 46.0729C27.7035 45.587 27.6353 44.9636 28.0792 44.4965C28.8285 43.7073 28.8842 42.9937 28.2692 42.0911C27.9365 41.6031 27.8515 40.9514 27.6069 40.393C27.5282 40.2125 27.3173 40.0667 27.1347 39.9628C26.9909 39.8819 26.7978 39.8756 26.6246 39.863C25.3285 39.7686 25.0147 39.1788 25.0011 38.0086C24.9937 37.3988 25.0252 36.7859 25.0777 36.1772C25.1291 35.5864 25.4901 35.1298 26.0621 35.1246C27.269 35.1141 27.7759 34.4886 28.0057 33.3908C28.117 32.8598 28.436 32.3634 28.7131 31.8806C28.8611 31.6225 28.8527 31.4535 28.6732 31.2341C28.4528 30.9644 28.2545 30.6748 28.0614 30.3841C27.7003 29.8404 27.7045 29.281 28.1422 28.7941C28.6564 28.2232 29.2022 27.6785 29.7699 27.1621C30.2747 26.7035 30.8981 26.629 31.3872 27.0929C32.1638 27.8296 32.8607 27.8737 33.7444 27.2807C34.2366 26.9501 34.8652 26.8095 35.4498 26.6384C35.7489 26.5513 35.9084 26.439 35.9137 26.1179C35.9168 25.9458 35.9882 25.7757 36.0008 25.6026C36.1005 24.255 36.7753 23.999 37.8678 24C38.5007 24 38.8438 24.3285 38.8554 24.9571C38.8669 25.5344 38.8585 26.1116 38.8585 26.6888ZM37.9581 46.4308C32.4671 46.0057 29.4425 41.3932 29.453 37.4167C29.4635 33.4118 32.5112 28.8696 37.9507 28.4425C37.9507 27.2839 37.9507 26.1231 37.9507 24.9634C37.0608 24.8784 37.002 24.9204 36.8676 25.7506C36.8089 26.1126 36.8047 26.4915 36.6871 26.8315C36.6158 27.0393 36.4027 27.2954 36.2054 27.3468C35.031 27.6533 33.9144 28.0836 32.8943 28.7458C32.6193 28.9242 32.3832 28.8969 32.1281 28.7028C31.7535 28.4163 31.3599 28.1549 30.9821 27.8726C30.7376 27.69 30.513 27.6627 30.2842 27.8936C29.8277 28.3522 29.3711 28.8098 28.9094 29.2621C28.6627 29.5035 28.6795 29.7407 28.8768 30.0041C29.1602 30.382 29.4205 30.7766 29.7059 31.1512C29.9032 31.4094 29.8686 31.6277 29.7385 31.9184C29.262 32.9794 28.795 34.0468 28.3941 35.1372C28.2576 35.5098 28.0803 35.6882 27.7182 35.7438C27.2701 35.812 26.8125 35.8508 26.3801 35.9778C26.2017 36.0303 25.9634 36.2675 25.9508 36.4354C25.9015 37.0955 25.9015 37.7641 25.9498 38.4252C25.9624 38.5974 26.1891 38.844 26.3654 38.8965C26.7957 39.0256 27.2543 39.0612 27.7024 39.1337C28.054 39.1903 28.2524 39.3446 28.3909 39.7266C28.7876 40.8191 29.2515 41.8886 29.7332 42.9465C29.877 43.2613 29.8906 43.4901 29.686 43.7588C29.4005 44.1345 29.1413 44.5291 28.859 44.9069C28.669 45.1609 28.6816 45.3823 28.9052 45.6038C29.3648 46.0592 29.8235 46.5147 30.2779 46.9744C30.5025 47.2021 30.7218 47.199 30.9716 47.0101C31.3337 46.7362 31.7199 46.4937 32.0736 46.2093C32.38 45.9627 32.6382 45.9889 32.9772 46.1694C33.6824 46.5462 34.3877 47.0195 35.1486 47.1727C36.3502 47.4131 36.8802 47.9914 36.9075 49.2161C36.9233 49.9696 37.1762 50.0588 37.957 49.8678C37.9581 48.7207 37.9581 47.5747 37.9581 46.4308Z" fill="#3D3D63"/>
<defs>
<filter id="filter0_d_4_1226" x="4.18066" y="6.79492" width="67.0658" height="67.0657" filterUnits="userSpaceOnUse" color-interpolation-filters="sRGB">
<feFlood flood-opacity="0" result="BackgroundImageFix"/>
<feColorMatrix in="SourceAlpha" type="matrix" values="0 0 0 0 0 0 0 0 0 0 0 0 0 0 0 0 0 0 127 0" result="hardAlpha"/>
<feMorphology radius="1" operator="dilate" in="SourceAlpha" result="effect1_dropShadow_4_1226"/>
<feOffset dy="3"/>
<feGaussianBlur stdDeviation="2"/>
<feComposite in2="hardAlpha" operator="out"/>
<feColorMatrix type="matrix" values="0 0 0 0 0 0 0 0 0 0 0 0 0 0 0 0 0 0 0.07 0"/>
<feBlend mode="normal" in2="BackgroundImageFix" result="effect1_dropShadow_4_1226"/>
<feBlend mode="normal" in="SourceGraphic" in2="effect1_dropShadow_4_1226" result="shape"/>
</filter>
</defs>
</svg>
