<svg width="52" height="53" viewBox="0 0 52 53" fill="none" xmlns="http://www.w3.org/2000/svg">
<path d="M24.4771 41.8145C24.4771 44.4368 24.5006 47.059 24.4677 49.686C24.4395 51.8444 23.0909 52.687 21.216 51.6693C16.3198 49.0092 11.4423 46.3159 6.56953 43.6084C5.21624 42.8558 4.84972 41.7766 5.46528 40.6974C6.06674 39.6466 7.18508 39.4147 8.54307 40.1578C11.8182 41.947 15.0652 43.7836 18.3356 45.5775C19.9755 46.4768 20.5535 46.1313 20.5629 44.2427C20.577 40.8489 20.5582 37.4551 20.5723 34.0566C20.5817 32.2768 21.1878 31.4579 22.4519 31.4201C23.7675 31.3822 24.4677 32.291 24.4771 34.0944C24.4912 36.6646 24.4771 39.2396 24.4771 41.8098H24.4724L24.4771 41.8145Z" fill="white"/>
<path d="M4.798 29.072C4.798 30.8186 4.82619 32.5699 4.7886 34.3165C4.75571 35.8501 3.96629 36.7542 2.75397 36.6595C1.3396 36.5506 0.897903 35.6276 0.897903 34.3165C0.912 29.0199 0.879108 23.7186 0.902602 18.4219C0.912 16.2872 2.29348 15.4683 4.18714 16.4955C9.04112 19.1319 13.8716 21.8016 18.6974 24.4806C20.0507 25.2285 20.4454 26.3124 19.8486 27.3774C19.2519 28.4377 18.1523 28.6507 16.7755 27.9076C13.4957 26.1278 10.2346 24.3102 6.9501 22.5352C5.35717 21.6737 4.84499 21.9909 4.82149 23.8227C4.798 25.5693 4.8168 27.3206 4.8168 29.0672H4.7933L4.798 29.072Z" fill="white"/>
<path d="M24.2092 20.8793C23.5044 22.0105 22.5552 22.0721 21.4416 21.4473C17.2642 19.0995 12.9647 16.9695 8.87667 14.4514C8.01207 14.0206 7.12397 13.642 6.29226 13.1497C4.53017 12.1084 4.55367 10.4896 6.36745 9.48138C10.7938 7.03424 15.2343 4.62497 19.6701 2.2015C20.2057 1.90804 20.7555 1.6335 21.2865 1.33057C22.3954 0.701034 23.448 0.601634 24.2233 1.8039C24.9188 2.87364 24.4583 4.09484 23.1097 4.85691C21.5966 5.70891 20.0648 6.52777 18.5423 7.36084C16.8413 8.28858 15.1309 9.20684 13.4346 10.144C11.884 11.0008 11.8558 11.4173 13.2326 12.5249C13.2326 12.5249 13.2326 12.5249 13.2373 12.5249C16.597 14.3425 19.9755 16.1365 23.3164 17.9967C24.4911 18.6499 24.8342 19.8758 24.2092 20.8745V20.8793Z" fill="white"/>
<path d="M51.9939 34.5114C51.9939 35.8226 51.383 36.6083 50.0908 36.6178C48.8033 36.6225 48.1596 35.832 48.1502 34.5351C48.1126 30.5259 48.075 26.5121 48.0374 22.5029C47.3561 21.8166 46.6888 22.0911 45.9746 22.4887C42.7652 24.2779 39.5418 26.0482 36.3183 27.8137C34.7724 28.6657 33.5929 28.4859 33.015 27.3309C32.4558 26.2139 32.9163 25.1583 34.3777 24.3631C39.1753 21.7598 43.9869 19.1754 48.7892 16.5863C50.6735 15.6159 51.9798 16.2786 51.9892 18.3045C52.0174 23.7052 51.9798 29.1107 51.9845 34.5114H51.9939Z" fill="white"/>
<path d="M47.6286 41.9997C47.5722 42.7002 47.1258 43.1168 46.576 43.4197C41.5247 46.2313 36.4781 49.0618 31.3986 51.8214C29.9278 52.6213 28.5181 51.7835 28.504 50.1363C28.4617 44.5746 28.4852 39.0177 28.4899 33.456C28.4899 33.049 28.4664 32.623 28.8517 32.3342C29.6647 31.2124 30.5856 30.9805 31.6476 32.0076C32.4652 32.4715 32.3994 33.2809 32.4041 34.0477C32.4041 37.4983 32.3806 40.9489 32.3994 44.3948C32.4088 46.1177 32.9492 46.4585 34.4528 45.6444C37.7844 43.8457 41.0924 41.9997 44.4051 40.1632C45.2275 39.7088 46.0498 39.5857 46.8674 40.1064C47.5581 40.5418 47.6897 41.2376 47.6286 41.9997Z" fill="white"/>
<path d="M46.6841 13.0689C41.5999 15.9137 36.4781 18.7016 31.3798 21.5179C30.3037 22.1143 29.3874 21.9298 28.7249 20.9121C28.114 19.9701 28.5087 18.6117 29.5848 18.0058C32.7988 16.2119 36.0411 14.47 39.2551 12.6808C39.8096 12.3731 40.6084 12.1838 40.5896 11.3555C40.5708 10.5366 39.772 10.3851 39.2175 10.068C37.8079 9.24914 36.3841 8.45393 34.965 7.64927C33.1606 6.70733 31.3328 5.7938 29.5519 4.80453C28.4852 4.20813 28.1046 2.82599 28.7249 1.89826C29.4109 0.866391 30.3977 0.785924 31.4079 1.34919C32.921 2.19173 34.5374 2.85439 35.9377 3.90519C39.5418 5.81746 43.174 7.68713 46.7452 9.66094C48.2864 10.5129 48.2394 12.198 46.6888 13.0642L46.6841 13.0689Z" fill="white"/>
</svg>
