<svg width="209" height="52" viewBox="0 0 209 52" fill="none" xmlns="http://www.w3.org/2000/svg">
<path d="M23.581 41.5323C23.581 44.1464 23.6045 46.7606 23.5716 49.3794C23.5434 51.5312 22.1949 52.3711 20.3202 51.3566C15.4245 48.7047 10.5475 46.0197 5.67519 43.3207C4.32204 42.5704 3.95556 41.4945 4.57106 40.4187C5.17246 39.3711 6.29069 39.1399 7.64854 39.8807C10.9234 41.6644 14.17 43.4953 17.4401 45.2836C19.0799 46.1802 19.6578 45.8357 19.6672 43.953C19.6813 40.5697 19.6625 37.1864 19.6766 33.7984C19.686 32.0242 20.2921 31.2078 21.5559 31.1701C22.8715 31.1323 23.5716 32.0383 23.581 33.8361C23.5951 36.3984 23.581 38.9653 23.581 41.5276H23.5763L23.581 41.5323Z" fill="white"/>
<path d="M3.90375 28.8295C3.90375 30.5707 3.93194 32.3166 3.89436 34.0578C3.86147 35.5866 3.07213 36.4879 1.85993 36.3935C0.445697 36.285 0.00404323 35.3648 0.00404323 34.0578C0.0181386 28.7776 -0.0147505 23.4927 0.00874168 18.2125C0.0181386 16.0843 1.39948 15.268 3.29295 16.292C8.14645 18.9203 12.9764 21.5816 17.8018 24.2524C19.1549 24.9979 19.5496 26.0785 18.9529 27.1402C18.3562 28.1972 17.2567 28.4095 15.8801 27.6687C12.6006 25.8945 9.33985 24.0825 6.05564 22.313C4.46287 21.4542 3.95074 21.7703 3.92724 23.5965C3.90375 25.3377 3.92255 27.0836 3.92255 28.8248H3.89905L3.90375 28.8295Z" fill="white"/>
<path d="M23.313 20.662C22.6083 21.7898 21.6592 21.8511 20.5456 21.2282C16.3687 18.8878 12.0696 16.7644 7.98199 14.254C7.11748 13.8246 6.22947 13.4471 5.39785 12.9564C3.63593 11.9183 3.65942 10.3045 5.47302 9.29943C9.89896 6.85988 14.339 4.45807 18.7743 2.04211C19.3099 1.74955 19.8597 1.47587 20.3906 1.17388C21.4994 0.546293 22.5519 0.447201 23.3271 1.64574C24.0225 2.71216 23.562 3.92958 22.2136 4.68929C20.7007 5.53865 19.169 6.35498 17.6467 7.18547C15.9459 8.11033 14.2356 9.02575 12.5395 9.96004C10.989 10.8141 10.9608 11.2294 12.3375 12.3335C12.3375 12.3335 12.3375 12.3335 12.3421 12.3335C15.7015 14.1455 19.0797 15.9339 22.4203 17.7883C23.5949 18.4395 23.9379 19.6616 23.313 20.6573V20.662Z" fill="white"/>
<path d="M51.0949 34.2524C51.0949 35.5594 50.4841 36.3427 49.1921 36.3522C47.9047 36.3569 47.261 35.5689 47.2516 34.276C47.214 30.2792 47.1764 26.2778 47.1388 22.2811C46.4576 21.5969 45.7904 21.8706 45.0762 22.2669C41.8672 24.0506 38.6441 25.8154 35.4209 27.5754C33.8751 28.4248 32.6958 28.2455 32.1179 27.0941C31.5588 25.9805 32.0193 24.9283 33.4805 24.1355C38.2776 21.5403 43.0888 18.9639 47.8906 16.3828C49.7747 15.4154 51.0808 16.076 51.0902 18.0956C51.1184 23.4796 51.0808 28.8684 51.0855 34.2524H51.0949Z" fill="white"/>
<path d="M46.7301 41.7167C46.6738 42.4151 46.2274 42.8303 45.6777 43.1323C40.6269 45.9352 35.5807 48.757 30.5017 51.508C29.0311 52.3054 27.6216 51.4702 27.6075 49.8281C27.5652 44.2837 27.5887 38.7439 27.5934 33.1995C27.5934 32.7937 27.5699 32.369 27.9552 32.0812C28.768 30.9629 29.6889 30.7316 30.7507 31.7556C31.5683 32.218 31.5025 33.0249 31.5072 33.7893C31.5072 37.2293 31.4837 40.6692 31.5025 44.1044C31.5119 45.822 32.0522 46.1617 33.5557 45.3501C36.8869 43.557 40.1946 41.7167 43.507 39.8859C44.3292 39.4329 45.1515 39.3102 45.969 39.8292C46.6597 40.2634 46.7912 40.957 46.7301 41.7167Z" fill="white"/>
<path d="M45.7857 12.8763C40.702 15.7122 35.5807 18.4915 30.4829 21.2991C29.407 21.8937 28.4908 21.7096 27.8283 20.6951C27.2175 19.7561 27.6122 18.4018 28.6881 17.7978C31.9018 16.0095 35.1438 14.273 38.3575 12.4893C38.9119 12.1826 39.7107 11.9939 39.6919 11.1681C39.6731 10.3518 38.8743 10.2008 38.3199 9.88464C36.9104 9.06831 35.4868 8.27557 34.0678 7.4734C32.2636 6.53438 30.4359 5.62368 28.6552 4.63747C27.5887 4.04292 27.2081 2.66507 27.8283 1.74021C28.5143 0.711538 29.5009 0.63132 30.5111 1.19284C32.024 2.03277 33.6403 2.69338 35.0404 3.74093C38.6441 5.64727 42.276 7.51114 45.8468 9.47883C47.3879 10.3282 47.3409 12.008 45.7904 12.8716L45.7857 12.8763Z" fill="white"/>
<g clip-path="url(#clip0_19_90)">
<path d="M114.03 35.243C113.643 35.4167 113.232 35.5428 112.805 35.6177C112.374 35.6961 111.916 35.7335 111.424 35.7335C110.159 35.7335 109.189 35.3997 108.514 34.7286C107.839 34.061 107.5 33.0629 107.5 31.7411V24.2367H105.24V21.8385H107.5V17.8223H110.57V21.8385H113.809V24.2367H110.57V31.4686C110.57 32.1431 110.692 32.6268 110.936 32.9198C111.18 33.2127 111.557 33.3592 112.065 33.3592C112.317 33.3592 112.551 33.332 112.774 33.2741C112.998 33.2196 113.202 33.1412 113.382 33.0458L114.026 35.2362L114.03 35.243Z" fill="white"/>
<path d="M127.033 35.437H124.065V33.376H124.014C123.56 34.1629 122.99 34.7557 122.305 35.1576C121.62 35.5596 120.836 35.7606 119.951 35.7606C118.703 35.7606 117.678 35.3961 116.881 34.6671C116.081 33.9381 115.681 32.9468 115.681 31.6932C115.681 30.4396 116.084 29.4688 116.888 28.6989C117.692 27.9291 118.896 27.4283 120.494 27.1967L124.092 26.7164V26.4302C124.092 25.5139 123.855 24.8462 123.377 24.4204C122.898 23.998 122.251 23.7868 121.433 23.7868C120.789 23.7868 120.131 23.906 119.466 24.1445C118.798 24.3829 118.153 24.7372 117.522 25.2141L116.206 23.3746C117.024 22.7444 117.878 22.2777 118.767 21.9745C119.656 21.6714 120.626 21.5215 121.677 21.5215C123.475 21.5215 124.818 21.9711 125.704 22.8704C126.589 23.7698 127.033 25.1221 127.033 26.9276V35.4404V35.437ZM124.092 29.8912V28.75L121.175 29.1384C120.314 29.261 119.673 29.4926 119.245 29.8367C118.818 30.1808 118.608 30.6883 118.608 31.3526C118.608 32.0168 118.808 32.5108 119.208 32.8821C119.608 33.2534 120.131 33.4408 120.775 33.4408C121.766 33.4408 122.563 33.1069 123.177 32.4427C123.787 31.7784 124.092 30.9268 124.092 29.8912Z" fill="white"/>
<path d="M142.324 21.8457L137.819 28.5837L142.259 35.4376H138.711L136.374 31.3702C136.296 31.2237 136.208 31.0568 136.11 30.8729C136.011 30.6889 135.906 30.4777 135.794 30.2461H135.73C135.679 30.3483 135.608 30.4948 135.516 30.6787C135.425 30.8661 135.303 31.0875 135.15 31.3464L132.776 35.441H129.241L133.834 28.7268L129.472 21.8457H133.033L135.343 26.1208C135.455 26.3286 135.557 26.5262 135.645 26.717C135.737 26.9077 135.818 27.0917 135.896 27.2756H135.961C136.045 27.0781 136.144 26.8839 136.252 26.6931C136.361 26.5024 136.466 26.3082 136.568 26.1106L138.956 21.8457H142.324Z" fill="url(#paint0_linear_19_90)"/>
<path d="M101.54 21.8457V35.3149H98.7347V24.3256H93.3009V35.3149H90.4958V21.8457H101.543H101.54Z" fill="white"/>
<path d="M76.7656 43.3265V40.7716L79.5707 40.85H85.0045V35.3145H87.8096V41.5142C87.8096 42.5157 87.0023 43.3265 86.0051 43.3265H76.7622H76.7656Z" fill="white"/>
<path d="M76.7689 35.3149V21.8457H79.574V32.835H85.0078V21.8457H87.8128V35.3149H76.7655H76.7689Z" fill="white"/>
<path d="M62.3533 15.9385H74.0959V18.7556H64.8226V24.2128H74.0959V27.03H62.3533V15.9385Z" fill="white"/>
<path d="M74.0928 35.3075H62.3501V32.4904H71.6235V27.0332H74.0928V35.3075Z" fill="white"/>
<path d="M159.403 35.4368H155.791L152.966 30.5008C152.467 29.6356 152.012 29.0395 151.599 28.7056C151.185 28.3718 150.7 28.1981 150.14 28.181H148.502V35.4368H145.368V16.8545H151.405C153.332 16.8545 154.845 17.2871 155.94 18.149C157.036 19.0142 157.585 20.2984 157.585 22.0119C157.585 23.2893 157.236 24.376 156.534 25.2651C155.832 26.1542 154.872 26.8082 153.651 27.2204V27.2715C154.115 27.4691 154.539 27.7757 154.923 28.1844C155.306 28.5966 155.665 29.0838 156.001 29.656L159.407 35.4368H159.403ZM148.502 19.4059V25.6125H150.89C151.88 25.6125 152.691 25.3026 153.322 24.6792C153.953 24.0558 154.271 23.2655 154.271 22.3083C154.271 21.351 153.99 20.68 153.434 20.169C152.874 19.658 152.05 19.4059 150.958 19.4059H148.505H148.502Z" fill="white"/>
<path d="M183.187 35.764C181.064 35.764 179.382 35.127 178.143 33.853C176.905 32.579 176.285 30.8757 176.285 28.7399C176.292 26.478 176.936 24.7066 178.215 23.4326C179.493 22.1586 181.233 21.5215 183.435 21.5215C185.551 21.5147 187.21 22.1381 188.411 23.4019C189.611 24.6623 190.212 26.369 190.212 28.5219C190.212 30.6747 189.581 32.4938 188.316 33.8019C187.051 35.11 185.344 35.764 183.194 35.764H183.187Z" fill="white"/>
<path d="M201.131 35.243C200.744 35.4167 200.334 35.5428 199.906 35.6177C199.476 35.6961 199.018 35.7335 198.526 35.7335C197.261 35.7335 196.29 35.3997 195.615 34.7286C194.94 34.061 194.601 33.0629 194.601 31.7411V24.2367H192.342V21.8385H194.601V17.8223H197.671V21.8385H200.911V24.2367H197.671V31.4686C197.671 32.1431 197.793 32.6268 198.037 32.9198C198.282 33.2127 198.658 33.3592 199.167 33.3592C199.418 33.3592 199.652 33.332 199.876 33.2741C200.1 33.2196 200.3 33.1412 200.483 33.0458L201.128 35.2362L201.131 35.243Z" fill="white"/>
<path d="M182.818 32.5237L181.189 30.8886L183.462 28.6028L181.132 26.266L182.76 24.6309L186.719 28.6028L182.814 32.5237H182.818Z" fill="#4EAAF3"/>
<path d="M162.124 33.9074C160.858 32.5993 160.228 30.8381 160.228 28.6273C160.228 26.4165 160.828 24.7712 162.029 23.5074C163.229 22.247 164.888 21.6202 167.005 21.627C169.206 21.627 170.946 22.264 172.225 23.538C173.503 24.8121 174.144 26.58 174.155 28.8453C174.155 30.9778 173.534 32.6844 172.296 33.9585C171.058 35.2325 169.375 35.8695 167.252 35.8695C165.102 35.8695 163.396 35.2155 162.13 33.9074H162.124Z" fill="white"/>
<path d="M163.718 28.7161L167.677 24.7441L169.305 26.3793L166.974 28.7161L169.247 31.0018L167.619 32.637L163.714 28.7161H163.718Z" fill="#4EAAF3"/>
</g>
<defs>
<linearGradient id="paint0_linear_19_90" x1="129.248" y1="28.6448" x2="142.333" y2="28.6448" gradientUnits="userSpaceOnUse">
<stop stop-color="white"/>
<stop offset="1" stop-color="white"/>
</linearGradient>
<clipPath id="clip0_19_90">
<rect width="145.985" height="36.8854" fill="white" transform="translate(62.1219 7.82227)"/>
</clipPath>
</defs>
</svg>
