<svg width="54" height="69" viewBox="0 0 54 69" fill="none" xmlns="http://www.w3.org/2000/svg">
<path d="M52.2706 68.1023H32.649C31.8739 68.1023 31.2474 67.4744 31.2474 66.7008V2.22967C31.2474 1.45602 31.8739 0.828125 32.649 0.828125H52.2706C53.0457 0.828125 53.6722 1.45602 53.6722 2.22967V66.7008C53.6722 67.4744 53.0457 68.1023 52.2706 68.1023ZM34.0505 65.2992H50.8691V3.63122H34.0505V65.2992Z" fill="#0D396E"/>
<path d="M39.6561 12.041H32.6484V14.8441H39.6561V12.041Z" fill="#0D396E"/>
<path d="M39.6561 20.4492H32.6484V23.2523H39.6561V20.4492Z" fill="#0D396E"/>
<path d="M39.6561 28.8594H32.6484V31.6625H39.6561V28.8594Z" fill="#0D396E"/>
<path d="M39.6561 37.2676H32.6484V40.0707H39.6561V37.2676Z" fill="#0D396E"/>
<path d="M39.6561 45.6777H32.6484V48.4808H39.6561V45.6777Z" fill="#0D396E"/>
<path d="M39.6561 54.0879H32.6484V56.891H39.6561V54.0879Z" fill="#0D396E"/>
<path d="M13.0269 65.2998H7.42076C3.55669 65.2998 0.413025 62.1561 0.413025 58.292V17.6472C0.413025 17.3711 0.495716 17.0992 0.648485 16.8693L9.05776 4.25542C9.57773 3.47476 10.87 3.47476 11.3899 4.25542L19.7992 16.8693C19.952 17.0992 20.0347 17.3711 20.0347 17.6472V58.292C20.0347 62.1561 16.891 65.2998 13.0269 65.2998ZM3.21612 18.0719V58.292C3.21612 60.6102 5.1026 62.4967 7.42076 62.4967H13.0269C15.3451 62.4967 17.2316 60.6102 17.2316 58.292V18.0719L10.2238 7.56026L3.21612 18.0719Z" fill="#0D396E"/>
<path d="M18.6331 56.891H1.81457C1.03952 56.891 0.413025 56.2631 0.413025 55.4894C0.413025 54.7158 1.03952 54.0879 1.81457 54.0879H18.6331C19.4082 54.0879 20.0347 54.7158 20.0347 55.4894C20.0347 56.2631 19.4082 56.891 18.6331 56.891Z" fill="#0D396E"/>
<path d="M18.6332 51.2836H1.81463C1.03958 51.2836 0.413086 50.6557 0.413086 49.882C0.413086 49.1084 1.03958 48.4805 1.81463 48.4805H18.6332C19.4082 48.4805 20.0347 49.1084 20.0347 49.882C20.0347 50.6557 19.4082 51.2836 18.6332 51.2836Z" fill="#0D396E"/>
<path d="M7.4215 51.284C6.64645 51.284 6.01996 50.6561 6.01996 49.8825V23.2531C6.01996 22.4795 6.64645 21.8516 7.4215 21.8516C8.19656 21.8516 8.82305 22.4795 8.82305 23.2531V49.8825C8.82305 50.6561 8.19656 51.284 7.4215 51.284Z" fill="#0D396E"/>
<path d="M13.0275 51.284C12.2524 51.284 11.6259 50.6561 11.6259 49.8825V23.2531C11.6259 22.4795 12.2524 21.8516 13.0275 21.8516C13.8025 21.8516 14.429 22.4795 14.429 23.2531V49.8825C14.429 50.6561 13.8025 51.284 13.0275 51.284Z" fill="#0D396E"/>
<path d="M14.4292 10.6387H6.0199V13.4418H14.4292V10.6387Z" fill="#0D396E"/>
<path d="M6.01927 24.6542C2.92746 24.6542 0.413086 22.1398 0.413086 19.048C0.413086 18.2744 1.03958 17.6465 1.81463 17.6465C2.58969 17.6465 3.21618 18.2744 3.21618 19.048C3.21618 20.5939 4.47336 21.8511 6.01927 21.8511C7.56518 21.8511 8.82236 20.5939 8.82236 19.048C8.82236 18.2744 9.44885 17.6465 10.2239 17.6465C10.999 17.6465 11.6255 18.2744 11.6255 19.048C11.6255 22.1398 9.11108 24.6542 6.01927 24.6542Z" fill="#0D396E"/>
<path d="M14.4288 24.6542C11.3369 24.6542 8.82257 22.1398 8.82257 19.048C8.82257 18.2744 9.44906 17.6465 10.2241 17.6465C10.9992 17.6465 11.6257 18.2744 11.6257 19.048C11.6257 20.5939 12.8828 21.8511 14.4288 21.8511C15.9747 21.8511 17.2318 20.5939 17.2318 19.048C17.2318 18.2744 17.8583 17.6465 18.6334 17.6465C19.4084 17.6465 20.0349 18.2744 20.0349 19.048C20.0349 22.1398 17.5206 24.6542 14.4288 24.6542Z" fill="#0D396E"/>
</svg>
