<svg width="64" height="74" viewBox="0 0 64 74" fill="none" xmlns="http://www.w3.org/2000/svg">
<path fill-rule="evenodd" clip-rule="evenodd" d="M-6.01207e-06 18.5L32 2.79753e-06L64 18.5L64 55.5L32 74L-2.77743e-06 55.5L-6.01207e-06 18.5Z" fill="#DAF2FF"/>
<path d="M16.1 26.25H16V26.35V39.325C16 44.9639 19.8045 48.7777 23.6594 51.1941C27.4757 53.5863 31.3643 54.6242 31.74 54.7193L31.8803 54.7894L31.925 54.8118L31.9697 54.7894L32.1089 54.7198C32.525 54.6238 36.4128 53.5856 40.2188 51.194C44.0645 48.7776 47.85 44.9637 47.85 39.325V26.35V26.25H47.75H47.0011C43.6812 26.1756 41.025 23.4456 41.025 20.125V19.375V19.275H40.925H22.925H22.825V19.375V20.125C22.825 23.4456 20.1687 26.1756 16.8489 26.25H16.1ZM17.7 39.325V27.8646C21.276 27.4492 24.1007 24.5497 24.5146 20.975H39.4854C39.8993 24.5497 42.7239 27.4492 46.3 27.8646V39.325C46.3 43.962 43.166 47.2732 39.792 49.4883C36.4521 51.681 32.8996 52.7837 32 53.0216C31.0999 52.7839 27.5475 51.6996 24.2078 49.5163C20.8342 47.3108 17.7 43.9996 17.7 39.325Z" fill="#3D3D63" stroke="#3D3D63" stroke-width="0.2"/>
<path d="M28 47.6496V47.7496H28.1H35.9H36V47.6496V40.9996H42.65H42.75V40.8996V33.0996V32.9996H42.65H36V26.3496V26.2496H35.9H28.1H28V26.3496V32.9996H21.35H21.25V33.0996V40.8996V40.9996H21.35H28V47.6496ZM29.6 39.2996H22.95V34.6996H29.6H29.7V34.5996V27.9496H34.3V34.5996V34.6996H34.4H41.05V39.2996H34.4H34.3V39.3996V46.0496H29.7V39.3996V39.2996H29.6Z" fill="#3D3D63" stroke="#3D3D63" stroke-width="0.2"/>
</svg>
