<svg width="64" height="74" viewBox="0 0 64 74" fill="none" xmlns="http://www.w3.org/2000/svg">
<path fill-rule="evenodd" clip-rule="evenodd" d="M-6.88536e-06 18.5L32 2.79753e-06L64 18.5L64 55.5L32 74L-3.65071e-06 55.5L-6.88536e-06 18.5Z" fill="#DAF2FF"/>
<mask id="path-2-outside-1_2_1086" maskUnits="userSpaceOnUse" x="14" y="18" width="37" height="37" fill="black">
<rect fill="white" x="14" y="18" width="37" height="37"/>
<path fill-rule="evenodd" clip-rule="evenodd" d="M43.9606 19.164C43.8548 19.2699 43.7913 19.7957 43.7913 20.5671V21.8007L37.0518 21.8515C29.5941 21.9075 29.5444 21.913 27.1488 22.9327C22.6178 24.8611 19.379 29.3944 18.9989 34.3394L18.9089 35.5117H19.474H20.039L20.1316 34.4028C20.5728 29.1098 24.1481 24.8371 29.3919 23.3365C30.3976 23.0486 30.8045 23.0298 37.1224 22.9813L43.7913 22.9299V24.181C43.7913 25.4481 43.9069 25.7765 44.3488 25.7653C44.6666 25.7573 49.7598 22.8754 49.9283 22.6083C50.0239 22.4567 50.0239 22.3087 49.9283 22.1571C49.7598 21.89 44.6666 19.0081 44.3488 19.0001C44.2284 18.9971 44.0538 19.0708 43.9606 19.164ZM47.6362 22.0247C47.9267 22.1828 48.1644 22.3439 48.1644 22.3827C48.1644 22.4215 47.9267 22.5826 47.6362 22.7407C47.3457 22.8988 46.6158 23.3003 46.0142 23.6329L44.9204 24.2377V22.3827V20.5277L46.0142 21.1325C46.6158 21.4651 47.3457 21.8666 47.6362 22.0247ZM36.9123 25.4178C36.7519 25.9408 36.7653 25.9647 37.3475 26.186C37.6799 26.3124 37.7417 26.2837 37.9324 25.915C38.2275 25.3442 38.2093 25.2859 37.6769 25.0934C37.054 24.868 37.085 24.8549 36.9123 25.4178ZM38.9556 26.3948C38.7307 26.8668 38.7332 26.8828 39.0657 27.1007C39.5328 27.4069 39.6349 27.3856 39.9718 26.9124L40.2647 26.501L39.7884 26.2065C39.5264 26.0446 39.2836 25.912 39.2489 25.912C39.2142 25.912 39.0822 26.1293 38.9556 26.3948ZM40.7745 27.6956C40.5116 28.0563 40.5123 28.0611 40.8804 28.4291L41.2507 28.7997L41.6318 28.4185L42.0129 28.0374L41.6778 27.6805C41.2599 27.2355 41.1079 27.238 40.7745 27.6956ZM31.0886 28.1208C30.6448 28.2087 30.3829 28.5413 30.3829 29.0168C30.3829 29.325 30.2677 29.434 29.6796 29.6824C28.9859 29.9756 28.9715 29.9761 28.634 29.7105C28.0414 29.2442 27.7431 29.3651 26.555 30.5536C25.3667 31.742 25.2459 32.0403 25.7121 32.6331C25.9776 32.9706 25.9772 32.985 25.684 33.6789C25.4356 34.2671 25.3267 34.3823 25.0186 34.3823C24.8159 34.3823 24.5268 34.4725 24.3761 34.5827C24.1309 34.7621 24.1021 34.9634 24.1021 36.4999C24.1021 38.0364 24.1309 38.2377 24.3761 38.4172C24.5268 38.5273 24.8159 38.6175 25.0186 38.6175C25.3267 38.6175 25.4356 38.7327 25.684 39.3209C25.9772 40.0148 25.9776 40.0292 25.7121 40.3668C25.2459 40.9595 25.3667 41.2578 26.555 42.4462C27.7431 43.6347 28.0414 43.7556 28.634 43.2893C28.9715 43.0237 28.9859 43.0242 29.6796 43.3174C30.2677 43.5658 30.3829 43.6748 30.3829 43.983C30.3829 44.1857 30.4731 44.4749 30.5832 44.6256C30.7626 44.8708 30.9638 44.8996 32.5 44.8996C34.0362 44.8996 34.2374 44.8708 34.4168 44.6256C34.5269 44.4749 34.6171 44.1857 34.6171 43.983C34.6171 43.6748 34.7323 43.5658 35.3204 43.3174C36.0141 43.0242 36.0285 43.0237 36.366 43.2893C36.9586 43.7556 37.2569 43.6347 38.445 42.4462C39.6333 41.2578 39.7541 40.9595 39.2879 40.3668C39.0224 40.0292 39.0228 40.0148 39.316 39.3209C39.5644 38.7327 39.6733 38.6175 39.9814 38.6175C40.1841 38.6175 40.4732 38.5273 40.6239 38.4172C40.8691 38.2377 40.8979 38.0364 40.8979 36.4999C40.8979 34.9634 40.8691 34.7621 40.6239 34.5827C40.4732 34.4725 40.1841 34.3823 39.9814 34.3823C39.6733 34.3823 39.5644 34.2671 39.316 33.6789C39.0228 32.985 39.0224 32.9706 39.2879 32.6331C39.7541 32.0403 39.6333 31.742 38.445 30.5536C37.2569 29.3651 36.9586 29.2442 36.366 29.7105C36.0285 29.9761 36.0141 29.9756 35.3204 29.6824C34.7323 29.434 34.6171 29.325 34.6171 29.0168C34.6171 28.2639 34.367 28.1336 32.8399 28.0903C32.0707 28.0686 31.2827 28.0822 31.0886 28.1208ZM42.4122 29.2648L41.9611 29.6531L42.3125 30.0502L42.664 30.4474L43.0865 30.1465C43.5877 29.7894 43.5904 29.7649 43.181 29.2648L42.8633 28.8766L42.4122 29.2648ZM33.5348 29.6178C33.7794 30.2029 33.9274 30.318 35.0294 30.7796C35.907 31.1472 35.9537 31.1522 36.5083 30.9343L37.0809 30.7093L37.6851 31.3137L38.2893 31.918L38.0643 32.4908C37.8466 33.0454 37.8515 33.0922 38.219 33.97C38.6805 35.0722 38.7956 35.2202 39.3806 35.4648C39.8255 35.6509 39.8393 35.682 39.8393 36.4999C39.8393 37.3179 39.8255 37.3489 39.3806 37.535C38.7956 37.7796 38.6805 37.9276 38.219 39.0299C37.8515 39.9077 37.8466 39.9544 38.0643 40.5091L38.2893 41.0818L37.6851 41.6861L37.0809 42.2905L36.5083 42.0655C35.9537 41.8476 35.907 41.8526 35.0294 42.2202C33.9274 42.6818 33.7794 42.7969 33.5348 43.382C33.3488 43.827 33.3178 43.8409 32.5 43.8409C31.6822 43.8409 31.6512 43.827 31.4652 43.382C31.2206 42.7969 31.0726 42.6818 29.9706 42.2202C29.093 41.8526 29.0463 41.8476 28.4917 42.0655L27.9191 42.2905L27.3149 41.6861L26.7107 41.0818L26.9357 40.5091C27.1535 39.9544 27.1485 39.9077 26.781 39.0299C26.3194 37.9276 26.2044 37.7796 25.6194 37.535C25.1745 37.3489 25.1607 37.3179 25.1607 36.4999C25.1607 35.682 25.1745 35.6509 25.6194 35.4648C26.2044 35.2202 26.3194 35.0722 26.781 33.97C27.1485 33.0922 27.1535 33.0454 26.9357 32.4908L26.7107 31.918L27.3149 31.3137L27.9191 30.7093L28.4917 30.9343C29.0463 31.1522 29.093 31.1472 29.9706 30.7796C31.0726 30.318 31.2206 30.2029 31.4652 29.6178C31.6512 29.1728 31.6822 29.159 32.5 29.159C33.3178 29.159 33.3488 29.1728 33.5348 29.6178ZM43.7201 31.0966C43.4875 31.216 43.2793 31.3286 43.2576 31.3467C43.1834 31.4081 43.7201 32.2629 43.8336 32.2639C43.8956 32.2643 44.1344 32.1675 44.3641 32.0486C44.7706 31.8384 44.7763 31.8215 44.5699 31.4224C44.2852 30.8718 44.2121 30.8437 43.7201 31.0966ZM31.0893 32.2093C27.8915 33.3715 26.9577 37.3159 29.3209 39.6797C30.2482 40.6072 31.0875 40.9399 32.5 40.9399C33.9125 40.9399 34.7518 40.6072 35.6791 39.6797C36.6063 38.7522 36.939 37.9128 36.939 36.4999C36.939 35.0871 36.6063 34.2476 35.6791 33.3201C34.5193 32.1603 32.5415 31.6816 31.0893 32.2093ZM44.6028 33.1346C44.1763 33.2905 44.1434 33.4248 44.3975 33.9725C44.5505 34.3026 44.6135 34.3268 45.0262 34.2156C45.5109 34.0849 45.5708 33.9206 45.3473 33.3327C45.1963 32.9357 45.1681 32.9281 44.6028 33.1346ZM33.5422 33.2834C34.7551 33.6419 35.8874 35.1948 35.8874 36.4999C35.8874 38.2492 34.2489 39.888 32.5 39.888C30.7511 39.888 29.1126 38.2492 29.1126 36.4999C29.1126 35.6126 29.4356 34.8968 30.1664 34.1642C31.1565 33.1718 32.2229 32.8935 33.5422 33.2834ZM45.0968 35.329C44.8423 35.378 44.7792 35.4847 44.7792 35.8662C44.7792 36.4406 44.8744 36.5125 45.5006 36.4108C45.9668 36.3352 45.982 36.3129 45.9314 35.7809C45.8769 35.2104 45.8336 35.187 45.0968 35.329ZM19.3708 36.5966C19.0486 36.6483 19.0198 36.7066 19.0681 37.212C19.1238 37.7967 19.2376 37.8598 19.9107 37.6795C20.1852 37.606 20.2289 37.5134 20.193 37.0827C20.1485 36.552 20.0418 36.489 19.3708 36.5966ZM44.8684 38.597C44.4272 43.89 40.8519 48.1627 35.6081 49.6633C34.6024 49.9512 34.1955 49.97 27.8776 50.0185L21.2087 50.0699V48.8189C21.2087 47.5517 21.0932 47.2233 20.6512 47.2345C20.3334 47.2425 15.2402 50.1244 15.0717 50.3915C14.9761 50.5431 14.9761 50.6911 15.0717 50.8427C15.2402 51.1098 20.3334 53.9917 20.6512 53.9997C21.0917 54.0109 21.2087 53.6821 21.2087 52.4327V51.1992L27.9482 51.1483C35.4059 51.0923 35.4556 51.0868 37.8512 50.0671C42.3822 48.1387 45.621 43.6054 46.0011 38.6604L46.0911 37.4881H45.526H44.961L44.8684 38.597ZM19.9578 38.7884C19.5169 38.9072 19.4894 38.948 19.5722 39.3625C19.695 39.9765 19.8154 40.0574 20.3355 39.876C20.8237 39.7058 20.8615 39.5856 20.6025 39.0273C20.448 38.694 20.3891 38.6723 19.9578 38.7884ZM20.6079 40.9576C20.2322 41.1614 20.2261 41.1829 20.4305 41.5781C20.7231 42.1442 20.8587 42.1959 21.3106 41.913C21.5263 41.778 21.7207 41.6569 21.7424 41.6439C21.836 41.5883 21.2662 40.7373 21.1382 40.7416C21.0605 40.7442 20.8219 40.8414 20.6079 40.9576ZM21.8571 42.8999L21.4471 43.2282L21.7734 43.6696L22.0996 44.1111L22.4968 43.8281C22.7151 43.6726 22.9218 43.5003 22.9558 43.4451C23.0091 43.3587 22.4252 42.569 22.3094 42.571C22.2862 42.5714 22.0827 42.7194 21.8571 42.8999ZM23.3259 44.6173L22.9943 44.9702L23.3259 45.3232C23.7394 45.7635 23.8928 45.7608 24.2227 45.3081C24.48 44.9547 24.479 44.9434 24.1627 44.6067C23.7642 44.1825 23.7339 44.1828 23.3259 44.6173ZM25.0282 46.0875L24.7353 46.4988L25.2377 46.8094C25.514 46.9802 25.7604 47.0968 25.7852 47.0686C25.8102 47.0404 25.9323 46.817 26.0566 46.5722C26.2758 46.1408 26.2723 46.1206 25.9384 45.9017C25.467 45.5928 25.3656 45.6135 25.0282 46.0875ZM27.0698 47.0807C26.7703 47.6601 26.7885 47.7131 27.359 47.9194C27.9357 48.128 27.893 48.1496 28.0964 47.5465C28.2416 47.1156 28.2261 47.0745 27.8421 46.8759C27.3084 46.5998 27.32 46.5968 27.0698 47.0807ZM20.0508 51.527L20.009 52.4368L18.4232 51.5623C17.5509 51.0813 16.8373 50.6559 16.8373 50.6171C16.8373 50.5783 17.5509 50.1529 18.4232 49.672L20.009 48.7974L20.0508 49.7073C20.0737 50.2077 20.0737 51.0265 20.0508 51.527Z"/>
</mask>
<path fill-rule="evenodd" clip-rule="evenodd" d="M43.9606 19.164C43.8548 19.2699 43.7913 19.7957 43.7913 20.5671V21.8007L37.0518 21.8515C29.5941 21.9075 29.5444 21.913 27.1488 22.9327C22.6178 24.8611 19.379 29.3944 18.9989 34.3394L18.9089 35.5117H19.474H20.039L20.1316 34.4028C20.5728 29.1098 24.1481 24.8371 29.3919 23.3365C30.3976 23.0486 30.8045 23.0298 37.1224 22.9813L43.7913 22.9299V24.181C43.7913 25.4481 43.9069 25.7765 44.3488 25.7653C44.6666 25.7573 49.7598 22.8754 49.9283 22.6083C50.0239 22.4567 50.0239 22.3087 49.9283 22.1571C49.7598 21.89 44.6666 19.0081 44.3488 19.0001C44.2284 18.9971 44.0538 19.0708 43.9606 19.164ZM47.6362 22.0247C47.9267 22.1828 48.1644 22.3439 48.1644 22.3827C48.1644 22.4215 47.9267 22.5826 47.6362 22.7407C47.3457 22.8988 46.6158 23.3003 46.0142 23.6329L44.9204 24.2377V22.3827V20.5277L46.0142 21.1325C46.6158 21.4651 47.3457 21.8666 47.6362 22.0247ZM36.9123 25.4178C36.7519 25.9408 36.7653 25.9647 37.3475 26.186C37.6799 26.3124 37.7417 26.2837 37.9324 25.915C38.2275 25.3442 38.2093 25.2859 37.6769 25.0934C37.054 24.868 37.085 24.8549 36.9123 25.4178ZM38.9556 26.3948C38.7307 26.8668 38.7332 26.8828 39.0657 27.1007C39.5328 27.4069 39.6349 27.3856 39.9718 26.9124L40.2647 26.501L39.7884 26.2065C39.5264 26.0446 39.2836 25.912 39.2489 25.912C39.2142 25.912 39.0822 26.1293 38.9556 26.3948ZM40.7745 27.6956C40.5116 28.0563 40.5123 28.0611 40.8804 28.4291L41.2507 28.7997L41.6318 28.4185L42.0129 28.0374L41.6778 27.6805C41.2599 27.2355 41.1079 27.238 40.7745 27.6956ZM31.0886 28.1208C30.6448 28.2087 30.3829 28.5413 30.3829 29.0168C30.3829 29.325 30.2677 29.434 29.6796 29.6824C28.9859 29.9756 28.9715 29.9761 28.634 29.7105C28.0414 29.2442 27.7431 29.3651 26.555 30.5536C25.3667 31.742 25.2459 32.0403 25.7121 32.6331C25.9776 32.9706 25.9772 32.985 25.684 33.6789C25.4356 34.2671 25.3267 34.3823 25.0186 34.3823C24.8159 34.3823 24.5268 34.4725 24.3761 34.5827C24.1309 34.7621 24.1021 34.9634 24.1021 36.4999C24.1021 38.0364 24.1309 38.2377 24.3761 38.4172C24.5268 38.5273 24.8159 38.6175 25.0186 38.6175C25.3267 38.6175 25.4356 38.7327 25.684 39.3209C25.9772 40.0148 25.9776 40.0292 25.7121 40.3668C25.2459 40.9595 25.3667 41.2578 26.555 42.4462C27.7431 43.6347 28.0414 43.7556 28.634 43.2893C28.9715 43.0237 28.9859 43.0242 29.6796 43.3174C30.2677 43.5658 30.3829 43.6748 30.3829 43.983C30.3829 44.1857 30.4731 44.4749 30.5832 44.6256C30.7626 44.8708 30.9638 44.8996 32.5 44.8996C34.0362 44.8996 34.2374 44.8708 34.4168 44.6256C34.5269 44.4749 34.6171 44.1857 34.6171 43.983C34.6171 43.6748 34.7323 43.5658 35.3204 43.3174C36.0141 43.0242 36.0285 43.0237 36.366 43.2893C36.9586 43.7556 37.2569 43.6347 38.445 42.4462C39.6333 41.2578 39.7541 40.9595 39.2879 40.3668C39.0224 40.0292 39.0228 40.0148 39.316 39.3209C39.5644 38.7327 39.6733 38.6175 39.9814 38.6175C40.1841 38.6175 40.4732 38.5273 40.6239 38.4172C40.8691 38.2377 40.8979 38.0364 40.8979 36.4999C40.8979 34.9634 40.8691 34.7621 40.6239 34.5827C40.4732 34.4725 40.1841 34.3823 39.9814 34.3823C39.6733 34.3823 39.5644 34.2671 39.316 33.6789C39.0228 32.985 39.0224 32.9706 39.2879 32.6331C39.7541 32.0403 39.6333 31.742 38.445 30.5536C37.2569 29.3651 36.9586 29.2442 36.366 29.7105C36.0285 29.9761 36.0141 29.9756 35.3204 29.6824C34.7323 29.434 34.6171 29.325 34.6171 29.0168C34.6171 28.2639 34.367 28.1336 32.8399 28.0903C32.0707 28.0686 31.2827 28.0822 31.0886 28.1208ZM42.4122 29.2648L41.9611 29.6531L42.3125 30.0502L42.664 30.4474L43.0865 30.1465C43.5877 29.7894 43.5904 29.7649 43.181 29.2648L42.8633 28.8766L42.4122 29.2648ZM33.5348 29.6178C33.7794 30.2029 33.9274 30.318 35.0294 30.7796C35.907 31.1472 35.9537 31.1522 36.5083 30.9343L37.0809 30.7093L37.6851 31.3137L38.2893 31.918L38.0643 32.4908C37.8466 33.0454 37.8515 33.0922 38.219 33.97C38.6805 35.0722 38.7956 35.2202 39.3806 35.4648C39.8255 35.6509 39.8393 35.682 39.8393 36.4999C39.8393 37.3179 39.8255 37.3489 39.3806 37.535C38.7956 37.7796 38.6805 37.9276 38.219 39.0299C37.8515 39.9077 37.8466 39.9544 38.0643 40.5091L38.2893 41.0818L37.6851 41.6861L37.0809 42.2905L36.5083 42.0655C35.9537 41.8476 35.907 41.8526 35.0294 42.2202C33.9274 42.6818 33.7794 42.7969 33.5348 43.382C33.3488 43.827 33.3178 43.8409 32.5 43.8409C31.6822 43.8409 31.6512 43.827 31.4652 43.382C31.2206 42.7969 31.0726 42.6818 29.9706 42.2202C29.093 41.8526 29.0463 41.8476 28.4917 42.0655L27.9191 42.2905L27.3149 41.6861L26.7107 41.0818L26.9357 40.5091C27.1535 39.9544 27.1485 39.9077 26.781 39.0299C26.3194 37.9276 26.2044 37.7796 25.6194 37.535C25.1745 37.3489 25.1607 37.3179 25.1607 36.4999C25.1607 35.682 25.1745 35.6509 25.6194 35.4648C26.2044 35.2202 26.3194 35.0722 26.781 33.97C27.1485 33.0922 27.1535 33.0454 26.9357 32.4908L26.7107 31.918L27.3149 31.3137L27.9191 30.7093L28.4917 30.9343C29.0463 31.1522 29.093 31.1472 29.9706 30.7796C31.0726 30.318 31.2206 30.2029 31.4652 29.6178C31.6512 29.1728 31.6822 29.159 32.5 29.159C33.3178 29.159 33.3488 29.1728 33.5348 29.6178ZM43.7201 31.0966C43.4875 31.216 43.2793 31.3286 43.2576 31.3467C43.1834 31.4081 43.7201 32.2629 43.8336 32.2639C43.8956 32.2643 44.1344 32.1675 44.3641 32.0486C44.7706 31.8384 44.7763 31.8215 44.5699 31.4224C44.2852 30.8718 44.2121 30.8437 43.7201 31.0966ZM31.0893 32.2093C27.8915 33.3715 26.9577 37.3159 29.3209 39.6797C30.2482 40.6072 31.0875 40.9399 32.5 40.9399C33.9125 40.9399 34.7518 40.6072 35.6791 39.6797C36.6063 38.7522 36.939 37.9128 36.939 36.4999C36.939 35.0871 36.6063 34.2476 35.6791 33.3201C34.5193 32.1603 32.5415 31.6816 31.0893 32.2093ZM44.6028 33.1346C44.1763 33.2905 44.1434 33.4248 44.3975 33.9725C44.5505 34.3026 44.6135 34.3268 45.0262 34.2156C45.5109 34.0849 45.5708 33.9206 45.3473 33.3327C45.1963 32.9357 45.1681 32.9281 44.6028 33.1346ZM33.5422 33.2834C34.7551 33.6419 35.8874 35.1948 35.8874 36.4999C35.8874 38.2492 34.2489 39.888 32.5 39.888C30.7511 39.888 29.1126 38.2492 29.1126 36.4999C29.1126 35.6126 29.4356 34.8968 30.1664 34.1642C31.1565 33.1718 32.2229 32.8935 33.5422 33.2834ZM45.0968 35.329C44.8423 35.378 44.7792 35.4847 44.7792 35.8662C44.7792 36.4406 44.8744 36.5125 45.5006 36.4108C45.9668 36.3352 45.982 36.3129 45.9314 35.7809C45.8769 35.2104 45.8336 35.187 45.0968 35.329ZM19.3708 36.5966C19.0486 36.6483 19.0198 36.7066 19.0681 37.212C19.1238 37.7967 19.2376 37.8598 19.9107 37.6795C20.1852 37.606 20.2289 37.5134 20.193 37.0827C20.1485 36.552 20.0418 36.489 19.3708 36.5966ZM44.8684 38.597C44.4272 43.89 40.8519 48.1627 35.6081 49.6633C34.6024 49.9512 34.1955 49.97 27.8776 50.0185L21.2087 50.0699V48.8189C21.2087 47.5517 21.0932 47.2233 20.6512 47.2345C20.3334 47.2425 15.2402 50.1244 15.0717 50.3915C14.9761 50.5431 14.9761 50.6911 15.0717 50.8427C15.2402 51.1098 20.3334 53.9917 20.6512 53.9997C21.0917 54.0109 21.2087 53.6821 21.2087 52.4327V51.1992L27.9482 51.1483C35.4059 51.0923 35.4556 51.0868 37.8512 50.0671C42.3822 48.1387 45.621 43.6054 46.0011 38.6604L46.0911 37.4881H45.526H44.961L44.8684 38.597ZM19.9578 38.7884C19.5169 38.9072 19.4894 38.948 19.5722 39.3625C19.695 39.9765 19.8154 40.0574 20.3355 39.876C20.8237 39.7058 20.8615 39.5856 20.6025 39.0273C20.448 38.694 20.3891 38.6723 19.9578 38.7884ZM20.6079 40.9576C20.2322 41.1614 20.2261 41.1829 20.4305 41.5781C20.7231 42.1442 20.8587 42.1959 21.3106 41.913C21.5263 41.778 21.7207 41.6569 21.7424 41.6439C21.836 41.5883 21.2662 40.7373 21.1382 40.7416C21.0605 40.7442 20.8219 40.8414 20.6079 40.9576ZM21.8571 42.8999L21.4471 43.2282L21.7734 43.6696L22.0996 44.1111L22.4968 43.8281C22.7151 43.6726 22.9218 43.5003 22.9558 43.4451C23.0091 43.3587 22.4252 42.569 22.3094 42.571C22.2862 42.5714 22.0827 42.7194 21.8571 42.8999ZM23.3259 44.6173L22.9943 44.9702L23.3259 45.3232C23.7394 45.7635 23.8928 45.7608 24.2227 45.3081C24.48 44.9547 24.479 44.9434 24.1627 44.6067C23.7642 44.1825 23.7339 44.1828 23.3259 44.6173ZM25.0282 46.0875L24.7353 46.4988L25.2377 46.8094C25.514 46.9802 25.7604 47.0968 25.7852 47.0686C25.8102 47.0404 25.9323 46.817 26.0566 46.5722C26.2758 46.1408 26.2723 46.1206 25.9384 45.9017C25.467 45.5928 25.3656 45.6135 25.0282 46.0875ZM27.0698 47.0807C26.7703 47.6601 26.7885 47.7131 27.359 47.9194C27.9357 48.128 27.893 48.1496 28.0964 47.5465C28.2416 47.1156 28.2261 47.0745 27.8421 46.8759C27.3084 46.5998 27.32 46.5968 27.0698 47.0807ZM20.0508 51.527L20.009 52.4368L18.4232 51.5623C17.5509 51.0813 16.8373 50.6559 16.8373 50.6171C16.8373 50.5783 17.5509 50.1529 18.4232 49.672L20.009 48.7974L20.0508 49.7073C20.0737 50.2077 20.0737 51.0265 20.0508 51.527Z" fill="#3D3D63"/>
<path fill-rule="evenodd" clip-rule="evenodd" d="M43.9606 19.164C43.8548 19.2699 43.7913 19.7957 43.7913 20.5671V21.8007L37.0518 21.8515C29.5941 21.9075 29.5444 21.913 27.1488 22.9327C22.6178 24.8611 19.379 29.3944 18.9989 34.3394L18.9089 35.5117H19.474H20.039L20.1316 34.4028C20.5728 29.1098 24.1481 24.8371 29.3919 23.3365C30.3976 23.0486 30.8045 23.0298 37.1224 22.9813L43.7913 22.9299V24.181C43.7913 25.4481 43.9069 25.7765 44.3488 25.7653C44.6666 25.7573 49.7598 22.8754 49.9283 22.6083C50.0239 22.4567 50.0239 22.3087 49.9283 22.1571C49.7598 21.89 44.6666 19.0081 44.3488 19.0001C44.2284 18.9971 44.0538 19.0708 43.9606 19.164ZM47.6362 22.0247C47.9267 22.1828 48.1644 22.3439 48.1644 22.3827C48.1644 22.4215 47.9267 22.5826 47.6362 22.7407C47.3457 22.8988 46.6158 23.3003 46.0142 23.6329L44.9204 24.2377V22.3827V20.5277L46.0142 21.1325C46.6158 21.4651 47.3457 21.8666 47.6362 22.0247ZM36.9123 25.4178C36.7519 25.9408 36.7653 25.9647 37.3475 26.186C37.6799 26.3124 37.7417 26.2837 37.9324 25.915C38.2275 25.3442 38.2093 25.2859 37.6769 25.0934C37.054 24.868 37.085 24.8549 36.9123 25.4178ZM38.9556 26.3948C38.7307 26.8668 38.7332 26.8828 39.0657 27.1007C39.5328 27.4069 39.6349 27.3856 39.9718 26.9124L40.2647 26.501L39.7884 26.2065C39.5264 26.0446 39.2836 25.912 39.2489 25.912C39.2142 25.912 39.0822 26.1293 38.9556 26.3948ZM40.7745 27.6956C40.5116 28.0563 40.5123 28.0611 40.8804 28.4291L41.2507 28.7997L41.6318 28.4185L42.0129 28.0374L41.6778 27.6805C41.2599 27.2355 41.1079 27.238 40.7745 27.6956ZM31.0886 28.1208C30.6448 28.2087 30.3829 28.5413 30.3829 29.0168C30.3829 29.325 30.2677 29.434 29.6796 29.6824C28.9859 29.9756 28.9715 29.9761 28.634 29.7105C28.0414 29.2442 27.7431 29.3651 26.555 30.5536C25.3667 31.742 25.2459 32.0403 25.7121 32.6331C25.9776 32.9706 25.9772 32.985 25.684 33.6789C25.4356 34.2671 25.3267 34.3823 25.0186 34.3823C24.8159 34.3823 24.5268 34.4725 24.3761 34.5827C24.1309 34.7621 24.1021 34.9634 24.1021 36.4999C24.1021 38.0364 24.1309 38.2377 24.3761 38.4172C24.5268 38.5273 24.8159 38.6175 25.0186 38.6175C25.3267 38.6175 25.4356 38.7327 25.684 39.3209C25.9772 40.0148 25.9776 40.0292 25.7121 40.3668C25.2459 40.9595 25.3667 41.2578 26.555 42.4462C27.7431 43.6347 28.0414 43.7556 28.634 43.2893C28.9715 43.0237 28.9859 43.0242 29.6796 43.3174C30.2677 43.5658 30.3829 43.6748 30.3829 43.983C30.3829 44.1857 30.4731 44.4749 30.5832 44.6256C30.7626 44.8708 30.9638 44.8996 32.5 44.8996C34.0362 44.8996 34.2374 44.8708 34.4168 44.6256C34.5269 44.4749 34.6171 44.1857 34.6171 43.983C34.6171 43.6748 34.7323 43.5658 35.3204 43.3174C36.0141 43.0242 36.0285 43.0237 36.366 43.2893C36.9586 43.7556 37.2569 43.6347 38.445 42.4462C39.6333 41.2578 39.7541 40.9595 39.2879 40.3668C39.0224 40.0292 39.0228 40.0148 39.316 39.3209C39.5644 38.7327 39.6733 38.6175 39.9814 38.6175C40.1841 38.6175 40.4732 38.5273 40.6239 38.4172C40.8691 38.2377 40.8979 38.0364 40.8979 36.4999C40.8979 34.9634 40.8691 34.7621 40.6239 34.5827C40.4732 34.4725 40.1841 34.3823 39.9814 34.3823C39.6733 34.3823 39.5644 34.2671 39.316 33.6789C39.0228 32.985 39.0224 32.9706 39.2879 32.6331C39.7541 32.0403 39.6333 31.742 38.445 30.5536C37.2569 29.3651 36.9586 29.2442 36.366 29.7105C36.0285 29.9761 36.0141 29.9756 35.3204 29.6824C34.7323 29.434 34.6171 29.325 34.6171 29.0168C34.6171 28.2639 34.367 28.1336 32.8399 28.0903C32.0707 28.0686 31.2827 28.0822 31.0886 28.1208ZM42.4122 29.2648L41.9611 29.6531L42.3125 30.0502L42.664 30.4474L43.0865 30.1465C43.5877 29.7894 43.5904 29.7649 43.181 29.2648L42.8633 28.8766L42.4122 29.2648ZM33.5348 29.6178C33.7794 30.2029 33.9274 30.318 35.0294 30.7796C35.907 31.1472 35.9537 31.1522 36.5083 30.9343L37.0809 30.7093L37.6851 31.3137L38.2893 31.918L38.0643 32.4908C37.8466 33.0454 37.8515 33.0922 38.219 33.97C38.6805 35.0722 38.7956 35.2202 39.3806 35.4648C39.8255 35.6509 39.8393 35.682 39.8393 36.4999C39.8393 37.3179 39.8255 37.3489 39.3806 37.535C38.7956 37.7796 38.6805 37.9276 38.219 39.0299C37.8515 39.9077 37.8466 39.9544 38.0643 40.5091L38.2893 41.0818L37.6851 41.6861L37.0809 42.2905L36.5083 42.0655C35.9537 41.8476 35.907 41.8526 35.0294 42.2202C33.9274 42.6818 33.7794 42.7969 33.5348 43.382C33.3488 43.827 33.3178 43.8409 32.5 43.8409C31.6822 43.8409 31.6512 43.827 31.4652 43.382C31.2206 42.7969 31.0726 42.6818 29.9706 42.2202C29.093 41.8526 29.0463 41.8476 28.4917 42.0655L27.9191 42.2905L27.3149 41.6861L26.7107 41.0818L26.9357 40.5091C27.1535 39.9544 27.1485 39.9077 26.781 39.0299C26.3194 37.9276 26.2044 37.7796 25.6194 37.535C25.1745 37.3489 25.1607 37.3179 25.1607 36.4999C25.1607 35.682 25.1745 35.6509 25.6194 35.4648C26.2044 35.2202 26.3194 35.0722 26.781 33.97C27.1485 33.0922 27.1535 33.0454 26.9357 32.4908L26.7107 31.918L27.3149 31.3137L27.9191 30.7093L28.4917 30.9343C29.0463 31.1522 29.093 31.1472 29.9706 30.7796C31.0726 30.318 31.2206 30.2029 31.4652 29.6178C31.6512 29.1728 31.6822 29.159 32.5 29.159C33.3178 29.159 33.3488 29.1728 33.5348 29.6178ZM43.7201 31.0966C43.4875 31.216 43.2793 31.3286 43.2576 31.3467C43.1834 31.4081 43.7201 32.2629 43.8336 32.2639C43.8956 32.2643 44.1344 32.1675 44.3641 32.0486C44.7706 31.8384 44.7763 31.8215 44.5699 31.4224C44.2852 30.8718 44.2121 30.8437 43.7201 31.0966ZM31.0893 32.2093C27.8915 33.3715 26.9577 37.3159 29.3209 39.6797C30.2482 40.6072 31.0875 40.9399 32.5 40.9399C33.9125 40.9399 34.7518 40.6072 35.6791 39.6797C36.6063 38.7522 36.939 37.9128 36.939 36.4999C36.939 35.0871 36.6063 34.2476 35.6791 33.3201C34.5193 32.1603 32.5415 31.6816 31.0893 32.2093ZM44.6028 33.1346C44.1763 33.2905 44.1434 33.4248 44.3975 33.9725C44.5505 34.3026 44.6135 34.3268 45.0262 34.2156C45.5109 34.0849 45.5708 33.9206 45.3473 33.3327C45.1963 32.9357 45.1681 32.9281 44.6028 33.1346ZM33.5422 33.2834C34.7551 33.6419 35.8874 35.1948 35.8874 36.4999C35.8874 38.2492 34.2489 39.888 32.5 39.888C30.7511 39.888 29.1126 38.2492 29.1126 36.4999C29.1126 35.6126 29.4356 34.8968 30.1664 34.1642C31.1565 33.1718 32.2229 32.8935 33.5422 33.2834ZM45.0968 35.329C44.8423 35.378 44.7792 35.4847 44.7792 35.8662C44.7792 36.4406 44.8744 36.5125 45.5006 36.4108C45.9668 36.3352 45.982 36.3129 45.9314 35.7809C45.8769 35.2104 45.8336 35.187 45.0968 35.329ZM19.3708 36.5966C19.0486 36.6483 19.0198 36.7066 19.0681 37.212C19.1238 37.7967 19.2376 37.8598 19.9107 37.6795C20.1852 37.606 20.2289 37.5134 20.193 37.0827C20.1485 36.552 20.0418 36.489 19.3708 36.5966ZM44.8684 38.597C44.4272 43.89 40.8519 48.1627 35.6081 49.6633C34.6024 49.9512 34.1955 49.97 27.8776 50.0185L21.2087 50.0699V48.8189C21.2087 47.5517 21.0932 47.2233 20.6512 47.2345C20.3334 47.2425 15.2402 50.1244 15.0717 50.3915C14.9761 50.5431 14.9761 50.6911 15.0717 50.8427C15.2402 51.1098 20.3334 53.9917 20.6512 53.9997C21.0917 54.0109 21.2087 53.6821 21.2087 52.4327V51.1992L27.9482 51.1483C35.4059 51.0923 35.4556 51.0868 37.8512 50.0671C42.3822 48.1387 45.621 43.6054 46.0011 38.6604L46.0911 37.4881H45.526H44.961L44.8684 38.597ZM19.9578 38.7884C19.5169 38.9072 19.4894 38.948 19.5722 39.3625C19.695 39.9765 19.8154 40.0574 20.3355 39.876C20.8237 39.7058 20.8615 39.5856 20.6025 39.0273C20.448 38.694 20.3891 38.6723 19.9578 38.7884ZM20.6079 40.9576C20.2322 41.1614 20.2261 41.1829 20.4305 41.5781C20.7231 42.1442 20.8587 42.1959 21.3106 41.913C21.5263 41.778 21.7207 41.6569 21.7424 41.6439C21.836 41.5883 21.2662 40.7373 21.1382 40.7416C21.0605 40.7442 20.8219 40.8414 20.6079 40.9576ZM21.8571 42.8999L21.4471 43.2282L21.7734 43.6696L22.0996 44.1111L22.4968 43.8281C22.7151 43.6726 22.9218 43.5003 22.9558 43.4451C23.0091 43.3587 22.4252 42.569 22.3094 42.571C22.2862 42.5714 22.0827 42.7194 21.8571 42.8999ZM23.3259 44.6173L22.9943 44.9702L23.3259 45.3232C23.7394 45.7635 23.8928 45.7608 24.2227 45.3081C24.48 44.9547 24.479 44.9434 24.1627 44.6067C23.7642 44.1825 23.7339 44.1828 23.3259 44.6173ZM25.0282 46.0875L24.7353 46.4988L25.2377 46.8094C25.514 46.9802 25.7604 47.0968 25.7852 47.0686C25.8102 47.0404 25.9323 46.817 26.0566 46.5722C26.2758 46.1408 26.2723 46.1206 25.9384 45.9017C25.467 45.5928 25.3656 45.6135 25.0282 46.0875ZM27.0698 47.0807C26.7703 47.6601 26.7885 47.7131 27.359 47.9194C27.9357 48.128 27.893 48.1496 28.0964 47.5465C28.2416 47.1156 28.2261 47.0745 27.8421 46.8759C27.3084 46.5998 27.32 46.5968 27.0698 47.0807ZM20.0508 51.527L20.009 52.4368L18.4232 51.5623C17.5509 51.0813 16.8373 50.6559 16.8373 50.6171C16.8373 50.5783 17.5509 50.1529 18.4232 49.672L20.009 48.7974L20.0508 49.7073C20.0737 50.2077 20.0737 51.0265 20.0508 51.527Z" stroke="#3D3D63" stroke-width="0.4" mask="url(#path-2-outside-1_2_1086)"/>
</svg>
