<svg width="80" height="77" viewBox="0 0 80 77" fill="none" xmlns="http://www.w3.org/2000/svg">
<path d="M29.3881 0.5625C27.2011 0.5625 25.4041 2.26964 25.4041 4.34425V9.3898C25.4041 10.3591 25.8067 11.241 26.4482 11.915C25.8062 12.5871 25.4041 13.468 25.4041 14.4378V19.4834C25.4041 21.5581 27.2011 23.2651 29.3881 23.2651H50.6689C52.8559 23.2651 54.6555 21.5581 54.6555 19.4834V14.4378C54.6555 13.468 54.2509 12.5871 53.6088 11.915C54.2502 11.241 54.6555 10.3591 54.6555 9.3898V4.34425C54.6555 2.26964 52.8559 0.5625 50.6689 0.5625H29.3881ZM29.3881 3.08778H36.0445V10.6561H29.3881C28.6284 10.6561 28.0636 10.1105 28.0636 9.3898V4.34425C28.0636 3.6236 28.6284 3.08778 29.3881 3.08778ZM38.6936 3.08778H50.6689C51.4286 3.08778 51.9934 3.6236 51.9934 4.34425V9.3898C51.9934 10.1105 51.4286 10.6561 50.6689 10.6561H38.6936V3.08778ZM32.0501 5.6081C31.3157 5.6081 30.7204 6.17286 30.7204 6.86948C30.7204 7.56615 31.3157 8.13086 32.0501 8.13086C32.7845 8.13086 33.3798 7.56615 33.3798 6.86948C33.3798 6.17286 32.7845 5.6081 32.0501 5.6081ZM42.6905 5.61054C41.9552 5.60649 41.3559 6.16943 41.353 6.867C41.3501 7.56849 41.9511 8.13744 42.6905 8.13334H48.0692C48.8076 8.1361 49.407 7.56753 49.4041 6.867C49.4012 6.17038 48.8036 5.60782 48.0692 5.61053L42.6905 5.61054ZM20.6514 10.9912C10.7081 17.046 4.12328 27.6305 4.12328 39.6608C4.12328 43.3393 4.73914 46.8908 5.87897 50.2127C6.10563 50.8778 6.85919 51.2414 7.55928 51.0232C8.25946 50.8072 8.64137 50.0926 8.41114 49.4292C7.35644 46.3553 6.78275 43.0723 6.78275 39.6608C6.78275 28.5036 12.8879 18.7216 22.0954 13.1149C22.7097 12.7359 22.8851 11.957 22.4874 11.3731C22.2502 11.0179 21.8423 10.7979 21.3993 10.7867C21.134 10.7825 20.8736 10.8539 20.6514 10.9912ZM57.5592 11.3727C57.1636 11.9592 57.3436 12.7389 57.9617 13.1145C67.1691 18.7213 73.2769 28.5033 73.2769 39.6605C73.2769 43.072 72.7006 46.355 71.6459 49.4289C71.4158 50.093 71.7992 50.8079 72.5004 51.0228C73.1997 51.2393 73.9515 50.876 74.1781 50.2123C75.3179 46.8904 75.9364 43.3389 75.9364 39.6605C75.9364 27.6303 69.3385 17.0456 59.3953 10.9909C59.1742 10.8559 58.9154 10.7868 58.6123 10.7937C58.1579 10.8296 57.7834 11.0413 57.5592 11.3727ZM29.3881 13.1812H36.0445V20.7397H29.3881C28.6284 20.7397 28.0636 20.2039 28.0636 19.4832V14.4377C28.0636 13.717 28.6284 13.1812 29.3881 13.1812ZM38.6936 13.1812H50.6689C51.4286 13.1812 51.9934 13.717 51.9934 14.4377V19.4832C51.9934 20.2039 51.4286 20.7397 50.6689 20.7397H38.6936V13.1812ZM32.0501 15.6991C31.3157 15.6991 30.7204 16.2638 30.7204 16.9605C30.7204 17.6571 31.3157 18.2219 32.0501 18.2219C32.7845 18.2219 33.3798 17.6571 33.3798 16.9605C33.3798 16.2638 32.7845 15.6991 32.0501 15.6991ZM42.6905 15.7039C41.9552 15.6998 41.3559 16.2627 41.353 16.9603C41.3559 17.658 41.9552 18.2209 42.6905 18.2168H48.0692C48.8036 18.2196 49.4012 17.657 49.4041 16.9603C49.4012 16.2637 48.8036 15.7011 48.0692 15.7039L42.6905 15.7039ZM20.9087 22.0248L15.3821 23.0966C14.6644 23.2339 14.1989 23.8958 14.3407 24.5772C14.4864 25.2616 15.1909 25.7034 15.9119 25.5627L18.2961 25.1045L17.8648 25.7229C12.758 33.0328 12.0169 42.3434 15.9118 50.2954C16.2209 50.9275 17.0116 51.2022 17.6779 50.9089C18.3452 50.6166 18.636 49.8662 18.3272 49.2335C14.8203 42.0738 15.4845 33.6992 20.0828 27.1173L20.506 26.5087L20.9864 28.758C21.1322 29.4424 21.8367 29.8842 22.5577 29.7435C23.278 29.6053 23.7432 28.9386 23.5965 28.2554L22.485 23.0497C22.385 22.548 22.086 22.3524 21.942 22.2318C21.7274 22.0878 21.4726 22.0072 21.2097 22.0005C21.1032 21.9914 21.0057 22.0201 20.9087 22.0249V22.0248ZM57.7668 22.565C57.2221 23.0374 57.1871 23.8402 57.6889 24.3536C62.9354 29.8006 65.0655 37.3226 63.4 44.5309L63.2311 45.2553L61.9196 43.3114C61.6819 42.9553 61.2728 42.7355 60.8288 42.7251C60.5644 42.7214 60.3049 42.7928 60.0834 42.9296C59.4655 43.3053 59.2853 44.0849 59.6809 44.6714L62.6701 49.0986C62.932 49.5491 63.2897 49.6473 63.483 49.7096C63.8605 49.8283 64.307 49.7131 64.5583 49.5594L69.3109 46.672C69.9273 46.2963 70.1073 45.5186 69.7135 44.9326C69.3175 44.3464 68.4956 44.1755 67.8773 44.5508L65.823 45.7974L65.9919 45.0706C67.8418 37.0642 65.4799 28.6992 59.6523 22.6488C59.4046 22.3924 59.0557 22.2441 58.6888 22.2398C58.3491 22.2303 58.019 22.349 57.7668 22.565ZM37.9092 25.7875C37.2488 25.7871 36.688 26.2466 36.5925 26.8666L36.2261 29.1134C35.4619 29.3361 34.5971 29.6733 33.8887 30.025L31.9798 28.6749C31.4516 28.3054 30.7181 28.3564 30.2527 28.7955L27.2478 31.6435C26.7789 32.0864 26.725 32.7887 27.1207 33.2917L28.5388 35.1123C28.1226 35.8196 27.8046 36.603 27.5674 37.3247L25.2066 37.6599C24.5541 37.7504 24.07 38.2808 24.0691 38.9065V42.9394C24.07 43.5651 24.5541 44.0956 25.2066 44.186L27.57 44.5236C27.8052 45.249 28.1545 46.0735 28.5257 46.7458L27.1103 48.564C26.7214 49.0657 26.7766 49.7615 27.24 50.2023L30.2423 53.0503C30.7087 53.4956 31.449 53.5482 31.9798 53.1733L33.9017 51.8282C34.6115 52.1833 35.4673 52.5188 36.2339 52.7447L36.5847 54.989C36.6847 55.6042 37.2427 56.0582 37.8988 56.0582H42.1503C42.8064 56.0582 43.3644 55.6039 43.4644 54.989L43.8253 52.7373C44.6002 52.5289 45.4517 52.1773 46.1601 51.8257L48.0768 53.1733C48.6061 53.5437 49.3413 53.4913 49.8065 53.0503L52.8087 50.2023C53.2716 49.7608 53.3256 49.0651 52.9359 48.564L51.5179 46.7261C51.9199 46.0542 52.2485 45.2467 52.4866 44.5212L54.85 44.186C55.5036 44.0964 55.9891 43.5658 55.9901 42.9394V38.9064C55.9891 38.2799 55.5036 37.7492 54.85 37.6598L52.4762 37.3246C52.2415 36.6033 51.9149 35.7944 51.523 35.1122L52.9359 33.2916C53.3314 32.7886 53.2771 32.0863 52.8087 31.6434L49.8065 28.7954C49.3406 28.3549 48.6055 28.3037 48.0768 28.6748L46.1497 30.0298C45.4423 29.6751 44.6377 29.327 43.8201 29.1133L43.4643 26.8665C43.3688 26.2474 42.8097 25.7882 42.1502 25.7874L37.9092 25.7875ZM39.0572 28.3103H40.9998L41.3139 30.2935C41.3948 30.808 41.7999 31.2228 42.3346 31.3381C43.469 31.5851 44.5516 32.0167 45.5368 32.6044C46.0017 32.881 46.5978 32.8585 47.038 32.5477L48.7365 31.3553L50.1208 32.6586L48.8637 34.2698C48.5396 34.6855 48.5159 35.2472 48.8039 35.6864C49.4215 36.6238 49.8715 37.6533 50.1285 38.7315C50.2501 39.2387 50.6872 39.6232 51.2296 39.6997L53.3307 39.9977V41.8503L51.2374 42.1483C50.692 42.2222 50.251 42.6069 50.1285 43.1165C49.8681 44.1931 49.4239 45.2167 48.8039 46.1517C48.5124 46.5927 48.536 47.1582 48.8637 47.5757L50.1208 49.187L48.7365 50.5001L47.0483 49.3077C46.6076 48.9959 46.01 48.973 45.5446 49.251C44.5568 49.836 43.4706 50.2663 42.3346 50.5099C41.8007 50.6248 41.3955 51.0384 41.3139 51.552L40.9998 53.5451H39.0468L38.7427 51.552C38.6613 51.0384 38.2557 50.6249 37.722 50.5099C36.5881 50.263 35.5073 49.8382 34.5224 49.251C34.0575 48.9744 33.4614 48.9969 33.0213 49.3077L31.3124 50.5001L29.9385 49.187L31.1851 47.5856C31.5128 47.168 31.5364 46.6025 31.2449 46.1616C30.6274 45.2242 30.1851 44.1946 29.9282 43.1165C29.8071 42.61 29.371 42.2258 28.8296 42.1483L26.7285 41.8503V39.9977L28.8192 39.6997C29.3584 39.6234 29.7938 39.2425 29.9178 38.7389C30.1787 37.6622 30.6323 36.6288 31.2527 35.6938C31.5402 35.2557 31.5181 34.6956 31.1954 34.2797L29.9384 32.6586L31.3227 31.3553L33.0108 32.5379C33.4511 32.8487 34.0472 32.8711 34.5119 32.5946C35.4998 32.0096 36.5756 31.5891 37.7116 31.3455C38.2496 31.234 38.6596 30.8198 38.7427 30.3034L39.0572 28.3103ZM40.0285 34.6148C36.3721 34.6148 33.3747 37.461 33.3747 40.9291C33.3747 44.3973 36.3721 47.2312 40.0285 47.2312C43.6849 47.2312 46.6745 44.3973 46.6745 40.9291C46.6745 37.461 43.6849 34.6148 40.0285 34.6148ZM40.0285 37.1375C42.248 37.1375 44.0151 38.8247 44.0151 40.9291C44.0151 43.0336 42.248 44.7084 40.0285 44.7084C37.809 44.7084 36.0341 43.0336 36.0341 40.9291C36.0341 38.8247 37.809 37.1375 40.0285 37.1375ZM4.12328 53.5455C1.93628 53.5455 0.136719 55.2501 0.136719 57.3247V62.3728C0.136719 63.3421 0.541793 64.2212 1.18338 64.8931C0.541994 65.5672 0.136719 66.449 0.136719 67.4183V72.4664C0.136719 74.541 1.93628 76.2456 4.12328 76.2456H25.4041C27.5911 76.2456 29.3881 74.541 29.3881 72.4664V67.4184C29.3881 66.4491 28.9855 65.5672 28.3441 64.8931C28.9854 64.2212 29.3881 63.3422 29.3881 62.3728V57.3248C29.3881 55.2502 27.5911 53.5455 25.4041 53.5455L4.12328 53.5455ZM54.6555 53.5455C52.4685 53.5455 50.6689 55.2501 50.6689 57.3247V62.3728C50.6689 63.3421 51.0739 64.2212 51.7155 64.8931C51.0741 65.5672 50.6689 66.449 50.6689 67.4183V72.4664C50.6689 74.541 52.4684 76.2456 54.6555 76.2456H75.9363C78.1233 76.2456 79.9203 74.541 79.9203 72.4664V67.4184C79.9203 66.4491 79.5177 65.5672 78.8762 64.8931C79.5176 64.2212 79.9203 63.3422 79.9203 62.3728V57.3248C79.9203 55.2502 78.1233 53.5455 75.9363 53.5455L54.6555 53.5455ZM4.12328 56.0584H10.7771V63.6292H4.12328C3.36364 63.6292 2.79875 63.0934 2.79875 62.3728V57.3247C2.79875 56.6041 3.36364 56.0584 4.12328 56.0584ZM13.4392 56.0584H25.4041C26.1638 56.0584 26.7286 56.6041 26.7286 57.3247V62.3728C26.7286 63.0934 26.1637 63.6292 25.4041 63.6292H13.4392V56.0584ZM54.6555 56.0584H61.2989V63.6292H54.6555C53.8958 63.6292 53.331 63.0934 53.331 62.3728V57.3247C53.331 56.6041 53.8958 56.0584 54.6555 56.0584ZM63.9609 56.0584H75.9363C76.696 56.0584 77.2608 56.6041 77.2608 57.3247V62.3728C77.2608 63.0934 76.696 63.6292 75.9363 63.6292H63.9609V56.0584ZM17.4231 58.5812C16.6878 58.584 16.0943 59.1524 16.0986 59.85C16.1014 60.5428 16.6928 61.1038 17.4231 61.1064H22.8018C23.5362 61.1092 24.1339 60.5466 24.1367 59.85C24.1411 59.1485 23.5413 58.5784 22.8018 58.5812H17.4231ZM67.9553 58.5812C67.2159 58.5784 66.6161 59.1485 66.6204 59.85C66.6233 60.5466 67.2209 61.1092 67.9553 61.1064H73.334C74.0683 61.1092 74.666 60.5466 74.6689 59.85C74.6733 59.1485 74.0734 58.5784 73.334 58.5812H67.9553ZM6.78536 58.586C6.05095 58.586 5.4556 59.1507 5.4556 59.8474C5.4556 60.544 6.05095 61.1088 6.78536 61.1088C7.51972 61.1088 8.11507 60.544 8.11507 59.8474C8.11507 59.1507 7.51972 58.586 6.78536 58.586ZM55.9852 59.8473C55.9852 60.544 56.5805 61.1088 57.3149 61.1088C58.0493 61.1088 58.6447 60.544 58.6447 59.8473C58.6447 59.1507 58.0493 58.586 57.3149 58.586C56.5805 58.586 55.9852 59.1507 55.9852 59.8473ZM10.7771 66.1519V73.7229H4.12328C3.36364 73.7229 2.79875 73.1871 2.79875 72.4664V67.4184C2.79875 66.6977 3.36364 66.1521 4.12328 66.152L10.7771 66.1519ZM13.4392 66.1519H25.4041C26.1638 66.1519 26.7286 66.6975 26.7286 67.4182V72.4662C26.7286 73.1869 26.1638 73.7227 25.4041 73.7227H13.4392L13.4392 66.1519ZM61.2989 66.1519V73.7229H54.6555C53.8958 73.7229 53.331 73.1871 53.331 72.4664V67.4184C53.331 66.6977 53.8958 66.1521 54.6555 66.152L61.2989 66.1519ZM63.9609 66.1519H75.9363C76.696 66.1519 77.2608 66.6975 77.2608 67.4182V72.4662C77.2608 73.1869 76.696 73.7227 75.9363 73.7227H63.9609V66.1519ZM17.4231 68.6747C16.6878 68.6774 16.0943 69.2458 16.0986 69.9434C16.1015 70.6362 16.6928 71.1972 17.4231 71.1999H22.8018C23.5362 71.2027 24.1339 70.6401 24.1367 69.9434C24.1411 69.242 23.5413 68.6719 22.8018 68.6747H17.4231ZM67.9553 68.6747C67.2159 68.6719 66.6161 69.242 66.6204 69.9434C66.6233 70.6401 67.2209 71.2027 67.9553 71.1999H73.334C74.0683 71.2027 74.666 70.6401 74.6689 69.9434C74.6733 69.242 74.0734 68.6719 73.334 68.6747H67.9553ZM6.78536 68.6772C6.05095 68.6772 5.4556 69.2419 5.4556 69.9386C5.4556 70.6352 6.05095 71.1999 6.78536 71.1999C7.51972 71.1999 8.11507 70.6352 8.11507 69.9386C8.11507 69.2419 7.51972 68.6772 6.78536 68.6772ZM55.9852 69.9385C55.9852 70.6352 56.5805 71.1999 57.3149 71.1999C58.0493 71.1999 58.6447 70.6352 58.6447 69.9385C58.6447 69.2418 58.0493 68.6771 57.3149 68.6772C56.5805 68.6771 55.9852 69.2418 55.9852 69.9385ZM32.0683 71.6089C31.9271 72.2926 32.3965 72.9557 33.1176 73.0896C35.3553 73.5034 37.6654 73.7129 40.0285 73.7129C42.3916 73.7129 44.7018 73.5036 46.9394 73.0896C47.6602 72.9556 48.13 72.2926 47.9886 71.6089C47.8474 70.9263 47.1503 70.481 46.4304 70.6136C44.3593 70.9969 42.2202 71.1901 40.0285 71.1901C37.8368 71.1901 35.7003 70.997 33.6292 70.6136C33.5583 70.5993 33.4859 70.5897 33.4136 70.5845C32.7607 70.565 32.1905 71.0002 32.0683 71.6089Z" fill="#16457F"/>
</svg>
