<svg width="81" height="78" viewBox="0 0 81 78" fill="none" xmlns="http://www.w3.org/2000/svg">
<path fill-rule="evenodd" clip-rule="evenodd" d="M10.2559 0.984451C10.1301 1.10345 10.0249 8.52916 10.0221 17.4857L10.017 33.77L7.25235 35.3957C5.7319 36.2899 4.34786 37.2647 4.17683 37.5618C4.0058 37.859 3.01559 40.4774 1.97602 43.381L0.0864258 48.6598L2.65741 56.0835C5.45255 64.1533 5.70482 65.4689 4.45754 65.4767C4.03322 65.4796 3.51086 65.5892 3.29664 65.7205C3.04643 65.874 2.81679 68.0232 2.65501 71.7309L2.40343 77.5022H3.81591H5.22874V72.7876V68.073H13.9689H22.7091V72.7876V77.5022H24.0801H25.4511L25.446 72.056C25.4429 69.0604 25.314 66.4206 25.1594 66.1897C25.0049 65.9585 24.429 65.6555 23.8796 65.5163L22.8805 65.2634L22.6988 57.8081C22.5302 50.8864 22.4383 50.0325 21.4135 45.884C20.475 42.0843 20.3095 40.7951 20.3085 37.2676C20.3074 33.7024 20.2115 32.9708 19.626 32.06C18.5008 30.3091 17.0413 29.639 14.7401 29.8168L12.7693 29.969V16.6689V3.36875H35.5623H58.3553V8.08338V12.798H63.3252H68.2951V21.3835V29.969L66.3243 29.8058C64.6469 29.667 64.1749 29.7573 63.1539 30.4122C61.1573 31.6929 60.7556 32.87 60.7553 37.4419C60.7546 40.8247 60.5702 42.2202 59.555 46.519C58.3985 51.4164 58.3553 51.8368 58.3553 58.2233V64.8475L56.9843 66.0847L55.6133 67.3219V72.4121V77.5022H56.9843H58.3553V72.7876V68.073H66.5814H74.8074V72.7876V77.5022H76.0071H77.2067L77.2043 72.5437C77.2026 68.1426 77.1258 67.4757 76.5212 66.6098C76.1466 66.0733 75.8391 65.1558 75.8381 64.5705C75.8367 63.9855 76.9928 60.1664 78.407 56.0835L80.978 48.6598L79.1213 43.4909C78.0999 40.6481 77.1587 38.0684 77.0298 37.7586C76.9006 37.4487 75.4998 36.4245 73.9166 35.4825L71.0382 33.77L71.0378 22.5488L71.0372 11.3274L65.4637 6.04764L59.8902 0.767578H35.1873C21.6006 0.767578 10.3813 0.865122 10.2559 0.984451ZM63.8394 7.75823L66.3929 10.1968H63.5737H60.7546V7.75823C60.7546 6.417 60.8742 5.31963 61.0202 5.31963C61.1662 5.31963 62.4351 6.417 63.8394 7.75823ZM17.9106 9.2214C17.9106 10.4911 17.939 10.522 19.1102 10.522C20.2814 10.522 20.3098 10.4911 20.3098 9.2214C20.3098 7.9517 20.2814 7.92081 19.1102 7.92081C17.939 7.92081 17.9106 7.9517 17.9106 9.2214ZM22.7742 9.14011C22.8746 10.2931 22.9504 10.3649 24.1658 10.4602L25.4511 10.5613V9.2409V7.92081H24.0595H22.6676L22.7742 9.14011ZM27.8504 9.2409V10.5613L29.1357 10.4602C30.3511 10.3649 30.4268 10.2931 30.5273 9.14011L30.6339 7.92081H29.242H27.8504V9.2409ZM17.9106 16.3746V17.6752H35.5623H53.214V16.3746V15.074H35.5623H17.9106V16.3746ZM17.9106 21.0893V22.2273H40.5322H63.1539V21.0893V19.9512H40.5322H17.9106V21.0893ZM17.9106 25.9665V27.1045H40.5322H63.1539V25.9665V24.8284H40.5322H17.9106V25.9665ZM17.0575 32.6362C17.5805 33.1841 17.7251 34.1494 17.9476 38.5701C18.1529 42.6556 18.449 44.8055 19.2572 48.0764C20.2385 52.0494 20.3016 52.6991 20.3054 58.8876L20.3098 65.4718H13.9689H7.628V64.1315C7.628 63.3401 6.62202 59.9115 5.17184 55.759L2.71568 48.7267L4.18026 44.6624C6.33308 38.6878 6.32589 38.7002 8.2734 37.5635L10.0273 36.5396V40.9284C10.0273 43.342 9.79248 46.8002 9.50526 48.6133C9.21837 50.426 9.03671 51.96 9.10184 52.0218C9.16696 52.0835 9.70302 52.2256 10.2929 52.3375C11.5443 52.5748 11.4514 52.8047 12.2452 47.4977C12.5335 45.5699 12.7713 41.7657 12.7741 39.0439C12.7765 36.3221 12.867 33.7827 12.9749 33.4006C13.366 32.0181 15.998 31.5252 17.0575 32.6362ZM46.7018 45.1501V58.3186H48.0728H49.4438V45.1501V31.9817H48.0728H46.7018V45.1501ZM67.0503 32.3465C68.1933 32.8404 68.2852 33.3362 68.2903 39.0439C68.2931 41.7657 68.531 45.5699 68.8192 47.4977C69.613 52.8047 69.5201 52.5748 70.7715 52.3375C71.3614 52.2256 71.8975 52.0835 71.9626 52.0218C72.0277 51.96 71.8461 50.426 71.5592 48.6133C71.2719 46.8002 71.0372 43.342 71.0372 40.9284V36.5396L72.791 37.5635C74.7492 38.7064 74.7752 38.7519 76.8708 44.6624L78.3117 48.7267L75.8741 55.7782C74.4719 59.8341 73.4364 63.3905 73.4364 64.1507V65.4718H67.0955H60.7546L60.759 58.8876C60.7628 52.7046 60.8266 52.0458 61.8048 48.0764C62.5996 44.8516 62.9139 42.5938 63.1302 38.5535C63.364 34.1891 63.5209 33.1454 64.0224 32.6196C64.7065 31.9027 65.7961 31.8045 67.0503 32.3465ZM36.7619 46.2881V58.3186H37.9616H39.1612V46.2881V34.2577H37.9616H36.7619V46.2881ZM26.4794 47.5887V58.3186H27.8504H29.2214V47.5887V36.8589H27.8504H26.4794V47.5887ZM51.843 47.5887V58.3186H53.214H54.5851V47.5887V36.8589H53.214H51.843V47.5887ZM41.9032 48.7267V58.3186H43.1029H44.3025V48.7267V39.1349H43.1029H41.9032V48.7267ZM31.6207 49.8452V58.3186H32.9975H34.3743L34.2828 49.946L34.1913 41.5735L32.906 41.4727L31.6207 41.3716V49.8452ZM26.708 60.8115C26.5822 60.9305 26.4794 61.5157 26.4794 62.1121C26.4794 63.1597 26.525 63.1958 27.8504 63.1958H29.2214V61.8952C29.2214 60.6378 29.1833 60.5946 28.079 60.5946C27.4504 60.5946 26.8334 60.6921 26.708 60.8115ZM31.6207 61.8757V63.1958H33.0122H34.4041L34.2976 61.9765C34.1971 60.8235 34.1214 60.7516 32.906 60.6564L31.6207 60.5553V61.8757ZM36.7619 61.8952C36.7619 63.1649 36.7904 63.1958 37.9616 63.1958C39.1328 63.1958 39.1612 63.1649 39.1612 61.8952C39.1612 60.6255 39.1328 60.5946 37.9616 60.5946C36.7904 60.5946 36.7619 60.6255 36.7619 61.8952ZM41.9032 61.8952C41.9032 63.1649 41.9317 63.1958 43.1029 63.1958C44.274 63.1958 44.3025 63.1649 44.3025 61.8952C44.3025 60.6255 44.274 60.5946 43.1029 60.5946C41.9317 60.5946 41.9032 60.6255 41.9032 61.8952ZM46.9304 60.8115C46.8046 60.9305 46.7018 61.5157 46.7018 62.1121C46.7018 63.1597 46.7473 63.1958 48.0728 63.1958H49.4438V61.8952C49.4438 60.6378 49.4057 60.5946 48.3014 60.5946C47.6728 60.5946 47.0558 60.6921 46.9304 60.8115ZM51.843 61.8757V63.1958H53.2346H54.6265L54.5199 61.9765C54.4195 60.8235 54.3438 60.7516 53.1284 60.6564L51.843 60.5553V61.8757ZM17.9106 71.487C17.9106 72.5707 17.9678 72.625 19.1102 72.625C20.2526 72.625 20.3098 72.5707 20.3098 71.487C20.3098 70.4033 20.2526 70.349 19.1102 70.349C17.9678 70.349 17.9106 70.4033 17.9106 71.487ZM60.7546 71.487C60.7546 72.5707 60.8118 72.625 61.9542 72.625C63.0966 72.625 63.1539 72.5707 63.1539 71.487C63.1539 70.4033 63.0966 70.349 61.9542 70.349C60.8118 70.349 60.7546 70.4033 60.7546 71.487Z" fill="#113F76"/>
</svg>
