<svg width="64" height="74" viewBox="0 0 64 74" fill="none" xmlns="http://www.w3.org/2000/svg">
<path fill-rule="evenodd" clip-rule="evenodd" d="M-6.88536e-06 18.5L32 2.79753e-06L64 18.5L64 55.5L32 74L-3.65071e-06 55.5L-6.88536e-06 18.5Z" fill="#DAF2FF"/>
<path d="M35.9825 19.9856C33.9447 20.2576 32.1164 21.4956 31.3423 23.1434L31.4202 23.18L31.3423 23.1434C30.9482 23.9823 30.65 25.4553 30.65 26.5483V27.403V27.5032L30.7502 27.503L31.6848 27.5009C33.628 27.4965 35.209 26.938 36.356 25.8369C37.548 24.6927 38.206 22.9048 38.206 20.8546V20V19.8979L38.104 19.9L37.2297 19.9182C36.7487 19.9282 36.1876 19.9582 35.9825 19.9856ZM35.9825 19.9856L35.9945 20.0759L35.9825 19.9856C35.9825 19.9856 35.9825 19.9856 35.9825 19.9856ZM32.9206 25.8477C32.7119 25.8851 32.5167 25.9125 32.3709 25.9268C32.2977 25.934 32.2388 25.9377 32.1977 25.9379C32.1962 25.9379 32.1947 25.9379 32.1932 25.9379C32.193 25.9345 32.1929 25.9309 32.1927 25.927C32.1914 25.8854 32.1951 25.8267 32.2043 25.7525C32.2225 25.6051 32.2604 25.4093 32.3119 25.1937C32.415 24.7619 32.5693 24.2627 32.7176 23.9302L32.6289 23.8906L32.7176 23.9302C33.095 23.0838 33.8011 22.3733 34.6558 21.9807C34.946 21.8475 35.4056 21.7071 35.8186 21.6114C36.0245 21.5637 36.216 21.5278 36.3663 21.5095C36.4417 21.5003 36.5046 21.4958 36.5528 21.496C36.5682 21.496 36.5814 21.4966 36.5926 21.4975C36.5947 21.5292 36.5948 21.5741 36.5923 21.631C36.5867 21.7545 36.5692 21.9225 36.5409 22.1045C36.3723 23.1861 35.9919 24.0255 35.396 24.6414C34.8003 25.2572 33.9813 25.6579 32.9206 25.8477ZM32.9206 25.8477L32.9383 25.9462M32.9206 25.8477C32.9206 25.8477 32.9206 25.8477 32.9206 25.8477L32.9383 25.9462M32.9383 25.9462C32.5169 26.0215 32.1468 26.0578 32.1159 26.0269C32.0022 25.9124 32.3228 24.5701 32.6263 23.8895C33.0137 23.0205 33.7377 22.2924 34.6141 21.8898L32.9383 25.9462ZM24.5184 28.1501L24.5184 28.1501C24.6606 28.1193 24.9318 28.0968 25.2482 28.084C25.5673 28.0711 25.9403 28.0677 26.2908 28.0771C26.873 28.0927 27.2349 28.1142 27.6642 28.2057C28.0908 28.2966 28.5819 28.4563 29.4239 28.7439C29.9285 28.9162 30.4076 29.0728 30.773 29.1862C30.9558 29.243 31.1094 29.2887 31.2233 29.3202C31.2804 29.3359 31.3266 29.3479 31.3611 29.3558C31.3946 29.3635 31.4096 29.3656 31.4127 29.366C31.4132 29.366 31.4134 29.3661 31.4133 29.3661C31.4127 29.3661 31.4268 29.3647 31.4655 29.3558C31.5 29.3479 31.5462 29.336 31.6032 29.3203C31.7171 29.289 31.8707 29.2434 32.0534 29.1869C32.4185 29.0739 32.8974 28.9179 33.4016 28.7462L33.4017 28.7462C34.9299 28.2258 35.4378 28.1066 36.3656 28.0578C38.9194 27.9234 41.2805 29.0159 42.9552 31.1018L42.8804 31.1618L42.9552 31.1018C43.136 31.327 43.3006 31.5395 43.4204 31.7007C43.4801 31.7811 43.5293 31.8495 43.5638 31.9007C43.5809 31.926 43.5954 31.9485 43.6059 31.9667C43.611 31.9756 43.6162 31.9852 43.6204 31.9946L43.6207 31.9952C43.6231 32.0006 43.6326 32.0215 43.6326 32.0466C43.6326 32.0886 43.6082 32.1155 43.6017 32.1225C43.5918 32.1332 43.5808 32.1415 43.5726 32.1472C43.5555 32.159 43.534 32.1707 43.5114 32.1818C43.4654 32.2045 43.4013 32.2314 43.3252 32.2607C43.1722 32.3196 42.9628 32.3911 42.7334 32.4612L42.7334 32.4612C41.3689 32.8783 40.309 33.7164 39.5529 34.9787L39.4763 34.9327L39.5529 34.9787C39.1753 35.6091 38.9637 36.4524 38.931 37.3201C38.8983 38.1874 39.0447 39.0696 39.3734 39.7761C40.0872 41.3101 41.5525 42.4463 43.1961 42.7416L43.1962 42.7416C43.4103 42.7802 43.6101 42.8188 43.7596 42.8501C43.8343 42.8657 43.8971 42.8796 43.9432 42.8908C43.9575 42.8943 43.9706 42.8977 43.9822 42.9008C43.9892 42.9027 43.9957 42.9045 44.0015 42.9063C44.0091 42.9085 44.017 42.9111 44.0242 42.9138L44.0246 42.9139C44.029 42.9156 44.0434 42.921 44.0569 42.931L24.5184 28.1501ZM24.5184 28.1501C21.0588 28.9011 18.4777 31.9218 17.9655 35.7929M24.5184 28.1501L17.9655 35.7929M17.9655 35.7929C17.7945 37.0846 17.9706 39.7393 18.3524 41.682M17.9655 35.7929L18.3524 41.682M18.3524 41.682C19.0794 45.3821 20.7977 48.5879 22.8613 50.0463M18.3524 41.682L22.8613 50.0463M22.8613 50.0463C23.4646 50.4727 23.9329 50.7409 24.4403 50.8991M22.8613 50.0463L24.4403 50.8991M24.4403 50.8991C24.9477 51.0572 25.487 51.1029 26.2288 51.0958M24.4403 50.8991L26.2288 51.0958M26.2288 51.0958C26.7378 51.0909 27.0791 51.0748 27.384 51.0231M26.2288 51.0958L27.384 51.0231M27.384 51.0231C27.6904 50.9712 27.9561 50.8839 28.3149 50.741M27.384 51.0231L28.3149 50.741M28.3149 50.741C29.3882 50.3138 30.0052 50.0802 30.4637 49.9598M28.3149 50.741L30.4637 49.9598M30.4637 49.9598C30.9161 49.841 31.213 49.8327 31.6479 49.8614M30.4637 49.9598L31.6479 49.8614M31.6479 49.8614C32.1803 49.8963 32.7489 50.0314 33.2435 50.2405M31.6479 49.8614L33.2435 50.2405M33.2435 50.2405C34.1869 50.6393 34.7088 50.8531 35.1605 50.9669M33.2435 50.2405L35.1605 50.9669M35.1605 50.9669C35.6161 51.0816 35.9983 51.094 36.6583 51.0986M35.1605 50.9669L36.6583 51.0986M36.6583 51.0986C37.2623 51.1028 37.5994 51.1011 37.8949 51.0428M36.6583 51.0986L37.8949 51.0428M37.8949 51.0428C38.1929 50.984 38.4452 50.8684 38.8812 50.6589M37.8949 51.0428L38.8812 50.6589M38.8812 50.6589C41.003 49.6392 42.7368 47.3075 43.8016 44.0833M38.8812 50.6589L43.8016 44.0833M43.8016 44.0833C43.8936 43.8048 43.9726 43.5475 44.0258 43.357M43.8016 44.0833L44.0258 43.357M44.0258 43.357C44.0524 43.262 44.0729 43.1822 44.0853 43.1242M44.0258 43.357L44.0853 43.1242M44.0853 43.1242C44.0915 43.0957 44.0962 43.0698 44.0985 43.049M44.0853 43.1242L44.0985 43.049M44.0985 43.049C44.0995 43.0392 44.1005 43.0264 44.0997 43.0134M44.0985 43.049L44.0997 43.0134M44.0997 43.0134C44.0993 43.0071 44.0982 42.9966 44.0946 42.9848M44.0997 43.0134L44.0946 42.9848M44.0946 42.9848C44.0915 42.9749 44.0826 42.9502 44.0571 42.9312L44.0946 42.9848ZM31.4138 30.8998L31.4138 30.8998C31.4917 30.8994 31.6133 30.8795 31.7596 30.848C31.9086 30.8158 32.091 30.7698 32.2943 30.7134C32.701 30.6007 33.1946 30.4457 33.6774 30.2757L33.6774 30.2757C34.9642 29.8224 35.9931 29.5928 36.9053 29.5795C37.8151 29.5661 38.6138 29.7679 39.4406 30.1851C39.7178 30.325 40.1515 30.6105 40.5179 30.8792C40.7006 31.0132 40.8643 31.1413 40.9816 31.2432C41.0405 31.2944 41.0857 31.3373 41.1154 31.3699C41.1176 31.3723 41.1196 31.3745 41.1215 31.3767C41.0933 31.403 41.0507 31.4378 40.9956 31.4789C40.884 31.5623 40.7285 31.6665 40.5565 31.7707C38.622 32.9434 37.3896 35.1919 37.3914 37.5366C37.3938 40.5887 39.0323 42.9003 42.0165 44.0769L42.1894 44.1451L41.82 44.9982L41.9118 45.0379L41.82 44.9982C40.9638 46.9757 39.6501 48.5627 38.351 49.2162C38.0422 49.3715 37.8412 49.4561 37.6098 49.5037C37.3762 49.5517 37.1067 49.5631 36.6591 49.5627C36.2346 49.5623 35.9528 49.5478 35.6978 49.5C35.4439 49.4525 35.2123 49.3713 34.8897 49.2324L34.8501 49.3242L34.8897 49.2324C33.2858 48.5416 32.7508 48.3844 31.7699 48.327C30.5577 48.2562 29.7598 48.4195 28.4994 48.9923C27.5623 49.418 26.7467 49.6177 25.9999 49.5975C25.2548 49.5775 24.5708 49.3384 23.896 48.8742C22.7588 48.0919 21.7728 46.7514 21.0146 45.0057C20.2569 43.261 19.7297 41.1183 19.5061 38.7407C19.1981 35.4667 19.8266 33.3248 21.596 31.5339C22.9967 30.1162 24.3926 29.5377 26.224 29.6086C27.1386 29.6441 27.5442 29.7365 29.0894 30.271L29.122 30.1765L29.0894 30.271C29.6018 30.4483 30.1087 30.6051 30.5223 30.7176C30.729 30.7739 30.9132 30.8193 31.0636 30.8506C31.2115 30.8814 31.3341 30.9002 31.4138 30.8998ZM41.1468 31.4099C41.1468 31.4099 41.1464 31.4093 41.1458 31.408C41.1466 31.4093 41.1469 31.41 41.1468 31.4099Z" fill="#3D3D63" stroke="#3D3D63" stroke-width="0.2"/>
</svg>
