<svg width="86" height="89" viewBox="0 0 86 89" fill="none" xmlns="http://www.w3.org/2000/svg">
<path fill-rule="evenodd" clip-rule="evenodd" d="M1.92725e-06 22.0452L38.1833 3.33809e-06L76.3666 22.0452L76.3666 66.1355L38.1833 88.1806L5.78175e-06 66.1355L1.92725e-06 22.0452Z" fill="#DAF2FF"/>
<path fill-rule="evenodd" clip-rule="evenodd" d="M38.9925 6.48985C36.0986 7.52276 34.0075 9.70848 33.0471 12.7048C32.6356 13.9881 32.5816 15.4746 32.6605 23.3444L32.7522 32.4922L33.5502 34.2303C33.989 35.1863 34.3482 36.0735 34.3482 36.202C34.3482 36.3308 32.1611 37.7364 29.4877 39.3256C22.6688 43.3797 22.5719 43.4528 21.7356 45.1648L21 46.6708V61.5267C21 73.7914 21.0699 76.4419 21.4002 76.7216C21.6953 76.9715 28.2614 77.0393 46.4281 76.9798L71.0558 76.8993L72.478 76.2302C73.363 75.8137 74.9581 74.5001 76.7027 72.7516C79.298 70.15 79.5911 69.9422 80.6633 69.9422C81.3003 69.9422 81.9781 69.7823 82.1696 69.5869C82.4041 69.3477 82.5179 67.9948 82.5179 65.4422V61.6529H84.2589H86V60.4687V59.2845H84.2589H82.5179V58.1003V56.9161H84.2589H86V55.7319V54.5477H84.2589H82.5179V53.3635V52.1794H84.2589H86V50.9952V49.811H84.2589H82.5179V48.6268V47.4426H84.2589H86V46.2584V45.0742H84.2589H82.5179V42.469C82.5179 40.8375 82.3879 39.7312 82.1696 39.5085C81.9671 39.3019 80.9962 39.1533 79.8482 39.1533H77.875V37.377V35.6007H76.7143H75.5536V37.377V39.1533H74.3929H73.2321V37.377V35.6007H72.0714H70.9107V37.377V39.1533H69.75H68.5893V37.377V35.6007H67.4286H66.2679V37.377V39.1533H64.272C62.2666 39.1533 61.7991 39.367 61.5838 40.3822C61.5005 40.7741 60.7783 40.4491 57.9345 38.7388C55.9848 37.5662 54.3009 36.5164 54.1927 36.406C54.0841 36.2956 54.3737 35.3698 54.836 34.3487L55.6763 32.4922V21.9308C55.6763 11.7254 55.656 11.3415 55.078 10.551C54.1767 9.31917 53.1782 8.66461 51.8973 8.46685C51.2117 8.36087 50.3902 7.95084 49.8728 7.45645C49.394 6.99876 48.6346 6.48304 48.1854 6.31015C46.8993 5.81546 40.5334 5.9398 38.9925 6.48985ZM48.1448 9.09122C48.744 9.70226 48.8571 10.1019 48.8571 11.6076C48.8571 12.6136 48.7289 13.3972 48.5644 13.3972C48.4036 13.3972 47.4904 14.1299 46.5357 15.0255C45.581 15.921 44.5297 16.6537 44.1995 16.6537C43.8693 16.6537 42.9215 16.006 42.0931 15.2144C40.2888 13.4896 39.6118 13.1012 38.4107 13.1012C37.3861 13.1012 36.5559 13.4757 35.5406 14.3964L34.8467 15.0255L35.0551 14.1373C35.4358 12.5147 36.1491 11.3213 37.4215 10.1786C39.1045 8.66757 39.9809 8.43014 44.0097 8.39462C47.2762 8.3659 47.4652 8.39758 48.1448 9.09122ZM52.7876 11.4596C53.3389 12.0218 53.5 12.4961 53.5 13.558V14.9301L52.6071 14.1637C52.1161 13.7421 51.5938 13.3972 51.4464 13.3972C51.299 13.3972 51.1786 12.7977 51.1786 12.065C51.1786 10.4998 51.6669 10.316 52.7876 11.4596ZM40.5319 16.9089C42.3362 18.6337 43.0132 19.0221 44.2143 19.0221C45.4153 19.0221 46.0923 18.6337 47.8967 16.9089C48.7251 16.1173 49.6772 15.4695 50.0129 15.4695C50.3484 15.4695 51.2804 16.0969 52.0839 16.8636L53.5447 18.2577L53.4454 25.227C53.3503 31.9297 53.3189 32.2527 52.6321 33.6764C51.7206 35.5658 49.9798 37.3406 48.1317 38.2649C46.9431 38.8593 46.2348 38.9919 44.2143 38.9979C41.9233 39.0047 41.6134 38.9298 39.8616 37.9457C37.6835 36.7225 36.1122 34.831 35.3972 32.5722C35.0246 31.3957 34.9286 29.7713 34.9286 24.6535V18.2151L36.367 16.8423C37.1583 16.0874 38.0802 15.4695 38.4156 15.4695C38.7514 15.4695 39.7035 16.1173 40.5319 16.9089ZM37.25 22.5747V23.7589H39.5714H41.8929V22.5747V21.3905H39.5714H37.25V22.5747ZM46.5357 22.5747V23.7589H48.8571H51.1786V22.5747V21.3905H48.8571H46.5357V22.5747ZM38.7125 25.3729C37.9415 26.3206 39.0738 27.7762 40.0792 27.1302C41.0838 26.4846 40.726 24.943 39.5714 24.943C39.2914 24.943 38.9049 25.1364 38.7125 25.3729ZM47.9982 25.3729C47.2272 26.3206 48.3595 27.7762 49.365 27.1302C50.3696 26.4846 50.0118 24.943 48.8571 24.943C48.5771 24.943 48.1906 25.1364 47.9982 25.3729ZM44.2143 29.9166C44.2143 31.5437 43.8574 32.0482 42.7054 32.0482C41.9465 32.0482 41.8929 32.129 41.8929 33.2708V34.4935L43.2341 34.3393C44.2218 34.2256 44.8103 33.9449 45.4684 33.2735C46.2452 32.4813 46.3779 32.1094 46.4826 30.4288L46.6033 28.4956H45.4087H44.2143V29.9166ZM37.064 38.9934C37.5788 39.394 38.7778 40.0921 39.7287 40.5447C41.2379 41.2629 41.8081 41.3674 44.2143 41.3674C46.6204 41.3674 47.1906 41.2629 48.6999 40.5447C49.6508 40.0921 50.8498 39.394 51.3646 38.9934C53.5296 37.3089 53.1202 38.1633 48.5153 44.9404C46.2525 48.2704 44.317 50.9952 44.2143 50.9952C44.1116 50.9952 42.1761 48.2704 39.9133 44.9404C35.3084 38.1633 34.899 37.3089 37.064 38.9934ZM37.7604 45.9002L41.8984 52.0313L39.9489 52.1201C38.8767 52.1693 37.8309 52.3519 37.6249 52.5266C37.344 52.7643 37.25 54.1744 37.25 58.1471C37.25 63.4043 37.2448 63.4472 36.654 63.1245C35.5205 62.5058 34.9309 61.0661 34.9297 58.9144L34.9286 56.9161H33.7679H32.6071L32.6135 59.0624C32.6211 61.6247 33.2174 63.1707 34.7159 64.513C35.9201 65.5918 36.7515 65.8079 46.0279 67.4512L52.3393 68.5694V71.6243V74.6789H43.985C34.9428 74.6789 33.7168 74.5244 30.8043 73.0187C27.4202 71.269 24.4102 67.2052 23.6192 63.3175C23.4123 62.3012 23.3252 58.9023 23.38 53.9944L23.4665 46.2709L24.192 45.5417C24.824 44.9064 33.0894 39.7679 33.4777 39.7688C33.5575 39.7691 35.4848 42.5282 37.7604 45.9002ZM58.3007 41.7088C61.0621 43.3397 61.625 43.7909 61.625 44.3732C61.625 45.0328 61.5217 45.0742 59.8839 45.0742H58.1429V46.2584V47.4426H59.8839H61.625V48.6268V49.811H59.8839H58.1429V50.9952V52.1794H59.8839H61.625V53.3635V54.5477H59.8839H58.1429V55.7319V56.9161H59.8839H61.625V58.1003V59.2845H59.8839H58.1429V60.4479C58.1429 61.429 58.2453 61.6265 58.7955 61.7061C59.3181 61.7819 58.8326 62.2461 56.3545 64.039C53.6262 66.0127 53.1384 66.2623 52.22 66.1528L51.1786 66.0287V59.4363C51.1786 54.4101 51.0895 52.7685 50.8037 52.5266C50.5976 52.3519 49.5518 52.1693 48.4796 52.1201L46.5302 52.0313L50.6681 45.9002C52.9437 42.5282 54.8441 39.7637 54.8911 39.7572C54.9378 39.7507 56.4723 40.6288 58.3007 41.7088ZM80.1964 54.5477V67.5738H77.6188C75.1807 67.5738 75.0333 67.5377 74.8992 66.9077C74.8214 66.5412 74.6616 66.0083 74.5443 65.7235C74.3577 65.2708 74.5107 65.2054 75.7547 65.2054C76.5379 65.2054 77.3353 65.0455 77.5268 64.8502C78.0256 64.3413 78.0256 44.7542 77.5268 44.2453C77.0465 43.7553 70.5785 43.7553 70.0982 44.2453C69.9067 44.4407 69.75 44.9129 69.75 45.2948C69.75 46.1897 68.522 47.4426 67.6448 47.4426C67.2704 47.4426 66.8076 47.6025 66.6161 47.7979C66.1196 48.3044 66.1196 64.3436 66.6161 64.8502C66.8076 65.0455 67.3627 65.2084 67.8493 65.2119L68.7344 65.2184L68.0089 65.8227C66.6407 66.9616 65.5418 67.5717 64.8556 67.5726C64.2839 67.5735 64.1989 67.4622 64.3469 66.9077C64.855 65.0065 64.8857 63.136 64.4206 62.4122C64.0053 61.7653 63.9464 60.4234 63.9464 51.5976V41.5217H72.0714H80.1964V54.5477ZM75.5536 54.5477V62.837H72.0714H68.5893V56.176C68.5893 50.5227 68.6537 49.5149 69.0144 49.5149C69.6551 49.5149 71.4722 47.7706 71.6701 46.9657C71.8309 46.3123 71.9855 46.2584 73.6987 46.2584H75.5536V54.5477ZM70.9107 55.7319V59.2845H72.0714H73.2321V55.7319V52.1794H72.0714H70.9107V55.7319ZM43.111 56.0715C43.172 57.1316 43.353 57.6941 43.7065 57.9203C44.606 58.4961 45.2186 57.7933 45.3175 56.0715L45.4055 54.5477H47.1312H48.8571V60.0566V65.5657L48.2042 65.4106C47.845 65.3253 45.756 64.9476 43.5614 64.571L39.5714 63.8862V59.217V54.5477H41.2974H43.0231L43.111 56.0715ZM62.3647 63.4528C62.4714 63.6287 62.3322 64.9606 62.0559 66.4127C61.3955 69.8818 61.5066 70.0372 64.5436 69.8966C66.7443 69.7944 66.7841 69.7781 68.9424 68.0916C71.1519 66.3653 72.1579 66.013 72.4745 66.855C72.7383 67.556 72.3549 68.083 69.5579 70.8626C65.8477 74.5501 65.9475 74.5113 59.8114 74.6286L54.6607 74.7269V71.465V68.2029L58.0703 65.6815C61.5165 63.1328 62.0144 62.8743 62.3647 63.4528ZM25.7778 72.1729C26.2621 72.667 27.1155 73.4314 27.6741 73.8719L28.6897 74.6724L26.0056 74.6757L23.3214 74.6789L23.3246 71.9405L23.3278 69.202L24.1125 70.2382C24.5442 70.8081 25.2935 71.6788 25.7778 72.1729ZM74.8171 71.4455C73.1756 73.1593 71.5149 74.2319 70.0402 74.5303C69.0388 74.7331 69.057 74.7023 71.3393 72.339C73.5519 70.0479 73.7112 69.9422 74.9555 69.9422H76.2573L74.8171 71.4455Z" fill="#3D3D63"/>
</svg>
