<svg width="77" height="77" viewBox="0 0 77 77" fill="none" xmlns="http://www.w3.org/2000/svg">
<path d="M12.674 21.9349C13.3706 21.9349 13.9354 21.3701 13.9354 20.6735C13.9354 19.9769 13.3706 19.4121 12.674 19.4121C11.9773 19.4121 11.4126 19.9769 11.4126 20.6735C11.4126 21.3701 11.9773 21.9349 12.674 21.9349Z" fill="#113F76"/>
<path d="M21.0881 21.9349C21.7847 21.9349 22.3494 21.3701 22.3494 20.6735C22.3494 19.9769 21.7847 19.4121 21.0881 19.4121C20.3914 19.4121 19.8267 19.9769 19.8267 20.6735C19.8267 21.3701 20.3914 21.9349 21.0881 21.9349Z" fill="#113F76"/>
<path d="M16.8879 21.9349C17.5845 21.9349 18.1492 21.3701 18.1492 20.6735C18.1492 19.9769 17.5845 19.4121 16.8879 19.4121C16.1912 19.4121 15.6265 19.9769 15.6265 20.6735C15.6265 21.3701 16.1912 21.9349 16.8879 21.9349Z" fill="#113F76"/>
<path d="M26.1331 38.9756L29.9172 35.1914C30.1548 34.9539 30.2882 34.6318 30.2882 34.2959C30.2882 33.9599 30.1548 33.6378 29.9172 33.4003C29.6797 33.1627 29.3576 33.0293 29.0217 33.0293C28.6858 33.0293 28.3636 33.1627 28.1261 33.4003L23.4337 38.1053C23.1988 38.3416 23.0669 38.6613 23.0669 38.9945C23.0669 39.3278 23.1988 39.6475 23.4337 39.8838L28.1261 44.5888C28.2433 44.707 28.3828 44.8009 28.5366 44.8649C28.6903 44.929 28.8551 44.9619 29.0217 44.9619C29.1882 44.9619 29.353 44.929 29.5068 44.8649C29.6605 44.8009 29.8 44.707 29.9172 44.5888C30.1522 44.3525 30.2841 44.0328 30.2841 43.6995C30.2841 43.3663 30.1522 43.0466 29.9172 42.8102L26.1331 38.9756Z" fill="#113F76"/>
<path d="M44.1961 44.5643C44.4324 44.7992 44.7521 44.9311 45.0853 44.9311C45.4186 44.9311 45.7383 44.7992 45.9746 44.5643L50.6796 39.9223C50.9145 39.686 51.0464 39.3663 51.0464 39.033C51.0464 38.6998 50.9145 38.3801 50.6796 38.1438L45.9746 33.4388C45.7371 33.2029 45.4156 33.0711 45.0809 33.0723C44.7462 33.0735 44.4256 33.2076 44.1898 33.4451C43.9539 33.6826 43.8221 34.0041 43.8233 34.3388C43.8244 34.6736 43.9585 34.9941 44.1961 35.23L47.9802 39.0141L44.1961 42.7983C43.9649 43.0341 43.8355 43.3511 43.8355 43.6813C43.8355 44.0114 43.9649 44.3285 44.1961 44.5643Z" fill="#113F76"/>
<path d="M40.0092 33.8027C39.8652 33.7193 39.7062 33.6652 39.5412 33.6436C39.3763 33.6219 39.2087 33.6331 39.048 33.6764C38.8874 33.7198 38.7369 33.7946 38.6053 33.8963C38.4737 33.9981 38.3635 34.1249 38.2811 34.2695L33.6266 42.4433C33.5353 42.5868 33.474 42.7474 33.4464 42.9152C33.4188 43.0831 33.4254 43.2548 33.4659 43.4201C33.5064 43.5853 33.5799 43.7407 33.6819 43.8768C33.784 44.0129 33.9125 44.1269 34.0598 44.212C34.2071 44.2972 34.3701 44.3516 34.539 44.3722C34.7079 44.3927 34.8791 44.3788 35.0425 44.3314C35.2059 44.284 35.358 44.2041 35.4897 44.0963C35.6214 43.9886 35.7299 43.8554 35.8088 43.7047L40.5138 35.5687C40.6018 35.4209 40.6586 35.2566 40.6808 35.0861C40.703 34.9155 40.6901 34.7422 40.6429 34.5767C40.5956 34.4113 40.515 34.2574 40.406 34.1242C40.2971 33.9911 40.162 33.8817 40.0092 33.8027Z" fill="#113F76"/>
<path d="M71.3663 51.2739C71.2919 51.2733 71.2194 51.2501 71.1586 51.2072C71.0977 51.1644 71.0514 51.1041 71.0257 51.0342C70.5238 49.7139 69.8125 48.483 68.9192 47.3888C68.8769 47.3276 68.8542 47.255 68.8542 47.1807C68.8542 47.1063 68.8769 47.0337 68.9192 46.9725C69.3033 46.3067 69.4075 45.5155 69.2089 44.7729C69.0102 44.0303 68.5249 43.3969 67.8596 43.0118L66.9136 42.4441V19.4111C66.9136 18.4075 66.5149 17.445 65.8052 16.7353C65.0955 16.0256 64.133 15.627 63.1294 15.627H10.9961C9.99246 15.627 9.02994 16.0256 8.32027 16.7353C7.6106 17.445 7.21191 18.4075 7.21191 19.4111V51.3748C7.21523 52.1532 7.52595 52.8989 8.07641 53.4493C8.62687 53.9998 9.3725 54.3105 10.151 54.3138H27.3942L26.1328 58.981H24.4551C23.2265 58.9818 22.0341 59.3969 21.0705 60.159C20.1069 60.9212 19.4284 61.986 19.1447 63.1814H16.0417C15.7071 63.1814 15.3863 63.3143 15.1497 63.5509C14.9132 63.7874 14.7803 64.1083 14.7803 64.4428C14.7803 64.7773 14.9132 65.0982 15.1497 65.3347C15.3863 65.5713 15.7071 65.7042 16.0417 65.7042H48.1693C48.1479 66.0056 48.1778 66.3084 48.2576 66.5998C48.3522 66.9698 48.5205 67.3169 48.7524 67.6204C48.9843 67.9238 49.2751 68.1773 49.6073 68.3657L52.2688 69.9046C52.5993 70.0943 52.9639 70.2171 53.3418 70.2659C53.7197 70.3147 54.1035 70.2885 54.4713 70.189C54.8391 70.0894 55.1837 69.9183 55.4854 69.6856C55.7871 69.4528 56.0399 69.1629 56.2296 68.8324C56.2705 68.7681 56.3292 68.7171 56.3987 68.6857C56.4682 68.6543 56.5453 68.644 56.6206 68.6558C58.0063 68.8955 59.4228 68.8955 60.8084 68.6558C60.8852 68.6434 60.9638 68.6549 61.0338 68.6888C61.1038 68.7226 61.1616 68.7772 61.1995 68.8451C61.4566 69.2853 61.8251 69.6499 62.268 69.9024C62.7109 70.1548 63.2125 70.2861 63.7222 70.283C64.2308 70.288 64.7315 70.1573 65.1728 69.9046L67.8344 68.3657C68.1648 68.1751 68.4542 67.9209 68.6859 67.6178C68.9175 67.3147 69.0869 66.9687 69.1841 66.5998C69.2845 66.2331 69.3106 65.85 69.2608 65.4731C69.2109 65.0961 69.0862 64.733 68.894 64.405C68.8506 64.3419 68.8273 64.2671 68.8273 64.1905C68.8273 64.1139 68.8506 64.0392 68.894 63.9761C69.7845 62.8846 70.4956 61.6583 71.0005 60.3433C71.0245 60.2724 71.0705 60.211 71.1317 60.1679C71.1929 60.1248 71.2662 60.1023 71.341 60.1036C72.1095 60.1003 72.8455 59.7936 73.3888 59.2502C73.9322 58.7068 74.2389 57.9708 74.2422 57.2024V54.1246C74.2291 53.3683 73.9211 52.647 73.3839 52.1145C72.8466 51.582 72.1227 51.2803 71.3663 51.2739ZM9.7347 19.4111C9.7347 19.0766 9.86759 18.7557 10.1041 18.5192C10.3407 18.2826 10.6615 18.1497 10.9961 18.1497H63.1294C63.4639 18.1497 63.7848 18.2826 64.0213 18.5192C64.2579 18.7557 64.3908 19.0766 64.3908 19.4111V23.1953H9.7347V19.4111ZM10.151 51.791C10.0963 51.791 10.0422 51.7803 9.99166 51.7594C9.94116 51.7384 9.89527 51.7078 9.85662 51.6691C9.81796 51.6305 9.7873 51.5846 9.76638 51.5341C9.74546 51.4836 9.7347 51.4295 9.7347 51.3748V25.7181H64.3908V41.1827C63.7939 41.0242 63.1619 41.0612 62.5875 41.2882C62.0132 41.5152 61.5267 41.9203 61.1995 42.4441C61.1602 42.5064 61.1031 42.5553 61.0356 42.5845C60.9681 42.6138 60.8933 42.622 60.821 42.6081C59.4343 42.381 58.0199 42.381 56.6332 42.6081C56.5609 42.6239 56.4855 42.6165 56.4176 42.5871C56.3497 42.5577 56.2928 42.5077 56.2548 42.4441C56.0653 42.1135 55.8123 41.8235 55.5103 41.5911C55.2082 41.3587 54.8632 41.1883 54.495 41.0898C54.1268 40.9913 53.7428 40.9666 53.3651 41.0172C52.9873 41.0678 52.6233 41.1927 52.294 41.3846L49.6325 42.9235C49.3011 43.1099 49.0108 43.3612 48.7789 43.6625C48.547 43.9638 48.3783 44.3088 48.2828 44.6768C48.0811 45.4205 48.1808 46.2136 48.5603 46.8842C48.6063 46.9439 48.6313 47.017 48.6313 47.0924C48.6313 47.1677 48.6063 47.2409 48.5603 47.3005C47.667 48.3947 46.9557 49.6256 46.4538 50.9459C46.4281 51.0158 46.3818 51.0761 46.3209 51.1189C46.2601 51.1618 46.1876 51.185 46.1132 51.1856C45.4954 51.1865 44.8941 51.3854 44.3977 51.7532L10.151 51.791ZM43.7923 58.981H28.6556L29.917 54.3138H43.1616V57.2024C43.1696 57.8486 43.3914 58.474 43.7923 58.981ZM24.4677 61.5038H46.9205C47.2088 62.0853 47.5376 62.6459 47.9044 63.1814H21.8062C22.0444 62.6802 22.4195 62.2567 22.8883 61.9598C23.357 61.663 23.9003 61.5048 24.4551 61.5038H24.4677ZM71.7447 57.2024C71.7447 57.3028 71.7048 57.399 71.6339 57.47C71.5629 57.541 71.4666 57.5808 71.3663 57.5808C70.7787 57.5823 70.2053 57.7613 69.7213 58.0945C69.2374 58.4277 68.8654 58.8994 68.6543 59.4477C68.2511 60.5112 67.6805 61.5034 66.964 62.3867C66.5946 62.8431 66.3716 63.4004 66.3244 63.9856C66.2771 64.5708 66.4077 65.1566 66.6991 65.6663C66.7194 65.7098 66.7299 65.7572 66.7299 65.8051C66.7299 65.853 66.7194 65.9004 66.6991 65.9439C66.6881 65.9939 66.6667 66.0412 66.6363 66.0825C66.6059 66.1238 66.5671 66.1582 66.5225 66.1835L63.8988 67.672C63.855 67.6963 63.8068 67.7118 63.757 67.7173C63.7071 67.7229 63.6567 67.7185 63.6086 67.7044C63.5605 67.6904 63.5156 67.6669 63.4767 67.6353C63.4377 67.6037 63.4054 67.5647 63.3817 67.5206C63.0834 67.0123 62.6381 66.6063 62.1043 66.3563C61.5706 66.1064 60.9736 66.0241 60.3922 66.1204C59.2817 66.3096 58.1473 66.3096 57.0369 66.1204C56.4541 66.0253 55.8562 66.1094 55.3223 66.3617C54.7885 66.614 54.3438 67.0226 54.0474 67.5332C53.995 67.6178 53.9123 67.6792 53.8163 67.705C53.7202 67.7308 53.6179 67.719 53.5302 67.672L50.8687 66.1331C50.8241 66.1077 50.7853 66.0733 50.7549 66.032C50.7245 65.9907 50.7031 65.9435 50.6921 65.8934C50.6718 65.85 50.6613 65.8026 50.6613 65.7546C50.6613 65.7067 50.6718 65.6593 50.6921 65.6159C50.9801 65.1052 51.1088 64.52 51.0616 63.9355C51.0144 63.3511 50.7934 62.7941 50.4272 62.3363C49.7043 61.4552 49.1292 60.4626 48.7243 59.3972C48.5127 58.8633 48.1462 58.405 47.6718 58.0813C47.1975 57.7576 46.637 57.5833 46.0628 57.5808C45.9624 57.5808 45.8661 57.541 45.7952 57.47C45.7242 57.399 45.6843 57.3028 45.6843 57.2024V54.1246C45.6826 54.0744 45.6912 54.0245 45.7096 53.9777C45.728 53.931 45.7558 53.8886 45.7913 53.8531C45.8268 53.8176 45.8692 53.7898 45.9159 53.7714C45.9626 53.753 46.0126 53.7444 46.0628 53.7462C46.6486 53.7439 47.22 53.5644 47.7018 53.2312C48.1836 52.8979 48.5533 52.4267 48.7621 51.8793C49.1641 50.8126 49.7395 49.8196 50.465 48.9403C50.8313 48.4824 51.0522 47.9255 51.0994 47.341C51.1466 46.7566 51.0179 46.1714 50.7299 45.6607C50.7094 45.6151 50.6987 45.5656 50.6987 45.5156C50.6987 45.4656 50.7094 45.4162 50.7299 45.3706C50.7402 45.3218 50.7614 45.276 50.792 45.2366C50.8226 45.1973 50.8618 45.1655 50.9065 45.1435L53.568 43.6046C53.6299 43.5874 53.6954 43.5874 53.7573 43.6046C53.8204 43.6054 53.8823 43.622 53.9374 43.6528C53.9925 43.6837 54.0389 43.7278 54.0726 43.7812C54.3704 44.2906 54.8152 44.6981 55.3487 44.9503C55.8822 45.2024 56.4795 45.2873 57.0621 45.194C58.1725 45.0048 59.307 45.0048 60.4174 45.194C61.0039 45.2732 61.6007 45.1735 62.1296 44.9079C62.6585 44.6423 63.0949 44.2232 63.3817 43.7055C63.4063 43.6639 63.439 43.6276 63.4778 43.5987C63.5166 43.5698 63.5607 43.5489 63.6076 43.5372C63.6545 43.5254 63.7033 43.5231 63.7512 43.5304C63.799 43.5376 63.8449 43.5543 63.8862 43.5794L66.5478 45.1183C66.5925 45.1402 66.6317 45.1721 66.6623 45.2114C66.6929 45.2508 66.7141 45.2966 66.7244 45.3453C66.7449 45.3909 66.7555 45.4404 66.7555 45.4904C66.7555 45.5404 66.7449 45.5899 66.7244 45.6355C66.434 46.1432 66.304 46.7269 66.3512 47.3099C66.3985 47.893 66.6209 48.4481 66.9892 48.9025C67.706 49.7903 68.2765 50.7866 68.6795 51.8541C68.8784 52.4116 69.2416 52.8958 69.7213 53.2426C70.2009 53.5894 70.7745 53.7826 71.3663 53.7967C71.4164 53.7949 71.4664 53.8035 71.5131 53.8219C71.5599 53.8403 71.6023 53.8681 71.6378 53.9036C71.6733 53.9391 71.7011 53.9815 71.7195 54.0282C71.7379 54.0749 71.7465 54.1249 71.7447 54.1751V57.2024Z" fill="#113F76"/>
<path d="M58.7145 49.9375C57.5819 49.9375 56.4747 50.2734 55.5329 50.9026C54.5912 51.5319 53.8572 52.4263 53.4237 53.4727C52.9903 54.5191 52.8769 55.6706 53.0978 56.7814C53.3188 57.8923 53.8642 58.9127 54.6651 59.7136C55.466 60.5145 56.4864 61.0599 57.5973 61.2809C58.7082 61.5019 59.8596 61.3885 60.906 60.955C61.9525 60.5216 62.8468 59.7876 63.4761 58.8458C64.1054 57.9041 64.4412 56.7969 64.4412 55.6642C64.4412 54.1454 63.8379 52.6888 62.7639 51.6148C61.6899 50.5408 60.2333 49.9375 58.7145 49.9375ZM58.7145 58.8682C58.0808 58.8682 57.4614 58.6802 56.9345 58.3282C56.4076 57.9761 55.997 57.4758 55.7545 56.8903C55.512 56.3049 55.4485 55.6607 55.5721 55.0392C55.6958 54.4177 56.0009 53.8468 56.449 53.3987C56.8971 52.9506 57.468 52.6455 58.0895 52.5218C58.711 52.3982 59.3552 52.4617 59.9406 52.7042C60.526 52.9467 61.0264 53.3573 61.3785 53.8842C61.7305 54.4111 61.9184 55.0305 61.9184 55.6642C61.9118 56.5096 61.5713 57.318 60.9712 57.9135C60.371 58.5089 59.5599 58.843 58.7145 58.8429V58.8682Z" fill="#113F76"/>
</svg>
