<svg width="327" height="693" viewBox="0 0 327 693" fill="none" xmlns="http://www.w3.org/2000/svg">
<path d="M-22.554 225.226L-22.6585 225.218L-68.8144 222.527L-89.612 181.1L-89.5559 181.011L-64.1412 142.389L-64.0367 142.397L-17.8808 145.088L2.90881 186.499L2.85266 186.587L-22.554 225.226ZM-68.5899 222.172L-22.7234 224.848L2.51493 186.475L-18.0892 145.434L-63.9396 142.75L-89.194 181.131L-68.5899 222.172Z" fill="url(#paint0_linear_7_4)"/>
<path d="M48.8721 189.368L48.7676 189.36L2.61172 186.668L-18.1859 145.241L-18.1298 145.153L7.28489 106.53L7.38937 106.538L53.5453 109.23L74.3348 150.64L74.2787 150.729L48.8721 189.368ZM2.82012 186.322L48.6705 189.006L73.9088 150.633L53.3047 109.592L7.45429 106.908L-17.784 145.281L2.82012 186.322Z" fill="url(#paint1_linear_7_4)"/>
<path d="M126.326 143.686L120.097 153.148L74.23 150.472L53.626 109.431L78.8803 71.0497L90.1902 71.7069L90.0047 71.3374L78.7993 70.6881L78.6948 70.6803L53.2882 109.319L53.224 109.391L74.0216 150.818L120.178 153.51L120.282 153.518L126.511 144.055L126.326 143.686Z" fill="url(#paint2_linear_7_4)"/>
<path d="M-27.212 304.993L-27.3165 304.986L-73.4724 302.294L-94.262 260.883L-94.2059 260.795L-68.7912 222.172L-68.6866 222.18L-22.5308 224.872L-1.74118 266.282L-1.79733 266.371L-27.212 304.993ZM-73.2399 301.956L-27.3895 304.64L-2.15115 266.267L-22.7633 225.21L-68.6138 222.526L-93.852 260.899L-73.2399 301.956Z" fill="url(#paint3_linear_7_4)"/>
<path d="M44.198 269.143L44.0935 269.135L-2.06244 266.443L-22.852 225.033L-22.7959 224.944L2.61884 186.322L2.72333 186.329L48.8792 189.021L69.6688 230.432L69.6127 230.52L44.198 269.143ZM-1.82989 266.105L44.0206 268.789L69.2589 230.416L48.6467 189.359L2.79626 186.675L-22.4421 225.048L-1.82989 266.105Z" fill="url(#paint4_linear_7_4)"/>
<path d="M115.624 233.284L115.52 233.277L69.3636 230.585L48.574 189.174L48.6302 189.086L74.0449 150.463L74.1494 150.471L120.305 153.163L141.095 194.573L141.039 194.662L115.624 233.284ZM69.5801 230.255L115.431 232.939L140.669 194.566L120.057 153.509L74.2062 150.825L48.9679 189.198L69.5801 230.255Z" fill="url(#paint5_linear_7_4)"/>
<path d="M152.115 195.054L140.99 194.405L120.378 153.348L126.511 144.054L126.326 143.685L120.04 153.236L119.984 153.324L140.774 194.735L152.293 195.408L152.115 195.054Z" fill="url(#paint6_linear_7_4)"/>
<path d="M39.5488 348.928L39.4443 348.92L-6.7116 346.229L-27.5012 304.818L-27.4451 304.73L-2.03036 266.107L-1.92588 266.115L44.2301 268.807L65.0196 310.217L64.9635 310.306L39.5488 348.928ZM-6.47911 345.891L39.3874 348.567L64.6257 310.194L44.0136 269.136L-1.83687 266.452L-27.0913 304.834L-6.47911 345.891Z" fill="url(#paint7_linear_7_4)"/>
<path d="M110.975 313.07L110.87 313.062L64.7145 310.37L43.9249 268.96L43.981 268.871L69.3957 230.249L69.5002 230.256L115.656 232.948L136.446 274.359L136.39 274.447L110.975 313.07ZM64.9309 310.04L110.781 312.724L136.02 274.351L115.408 233.294L69.557 230.61L44.3188 268.983L64.9309 310.04Z" fill="url(#paint8_linear_7_4)"/>
<path d="M188.428 267.386L182.207 276.865L136.341 274.189L115.728 233.132L140.983 194.751L152.293 195.408L152.115 195.054L140.902 194.389L140.797 194.381L115.391 233.02L115.335 233.108L136.124 274.519L182.28 277.211L182.384 277.218L188.614 267.756L188.428 267.386Z" fill="url(#paint9_linear_7_4)"/>
<path d="M106.309 392.862L106.204 392.854L60.0484 390.162L39.2588 348.751L39.3149 348.663L64.7296 310.04L64.8341 310.048L110.99 312.74L131.78 354.15L131.723 354.239L106.309 392.862ZM60.2728 389.808L106.123 392.492L131.362 354.119L110.749 313.062L64.899 310.378L39.6607 348.751L60.2728 389.808Z" fill="url(#paint10_linear_7_4)"/>
<path d="M177.735 357.003L177.63 356.995L131.474 354.304L110.685 312.893L110.741 312.805L136.156 274.182L136.26 274.19L182.416 276.881L203.206 318.292L203.15 318.381L177.735 357.003ZM131.683 353.958L177.533 356.642L202.772 318.269L182.159 277.211L136.325 274.519L111.087 312.892L131.699 353.95L131.683 353.958Z" fill="url(#paint11_linear_7_4)"/>
<path d="M214.218 318.757L203.093 318.107L182.481 277.05L188.614 267.756L188.429 267.387L182.143 276.938L182.087 277.026L202.876 318.437L214.395 319.11L214.218 318.757Z" fill="url(#paint12_linear_7_4)"/>
<path d="M173.077 436.771L172.973 436.763L126.817 434.071L106.027 392.66L106.083 392.572L131.498 353.949L131.603 353.957L177.758 356.649L198.548 398.059L198.492 398.148L173.077 436.771ZM127.033 433.741L172.884 436.425L198.122 398.052L177.51 356.995L131.659 354.311L106.421 392.684L127.033 433.741Z" fill="url(#paint13_linear_7_4)"/>
<path d="M250.539 391.105L244.31 400.568L198.443 397.892L177.831 356.834L203.085 318.453L214.395 319.111L214.218 318.757L203.004 318.092L202.908 318.1L177.493 356.723L177.437 356.811L198.227 398.222L244.383 400.913L244.487 400.921L250.717 391.459L250.539 391.105Z" fill="url(#paint14_linear_7_4)"/>
<path d="M276.321 442.458L265.196 441.809L244.591 400.768L250.717 391.458L250.539 391.105L244.254 400.656L244.19 400.728L264.987 442.155L276.498 442.812L276.321 442.458Z" fill="url(#paint15_linear_7_4)"/>
<path d="M175.519 619.366L163.874 596.171L189.112 557.798L234.979 560.474L246.624 583.669L246.929 583.515L235.195 560.144L189.031 557.436L188.927 557.428L163.52 596.067L163.48 596.147L175.214 619.519L175.519 619.366Z" fill="url(#paint16_linear_7_4)"/>
<path d="M246.929 583.515L235.284 560.32L260.538 521.939L306.389 524.623L318.034 547.818L318.339 547.665L306.605 524.293L260.441 521.585L260.353 521.569L234.946 560.208L234.89 560.297L246.624 583.668L246.929 583.515Z" fill="url(#paint17_linear_7_4)"/>
<path d="M-15.2748 34.8751L2.36167 70.005L-30.1082 119.369L-89.0932 115.919L-106.73 80.7886L-108.336 81.595L-90.2317 117.657L-29.1727 121.233L4.45158 70.1223L-13.6526 34.0607L-15.2748 34.8751Z" fill="url(#paint18_linear_7_4)"/>
<path d="M3.98393 69.1908L-13.6525 34.0608L-15.2747 34.8752L2.82946 70.9368L63.9044 74.505L79.6102 50.6314L78.6748 48.7681L62.969 72.6417L3.98393 69.1908Z" fill="url(#paint19_linear_7_4)"/>
<path d="M-35.237 225.197L-96.312 221.629L-123.755 166.967L-90.1301 115.856L-29.0552 119.424L-1.60457 174.103L-35.237 225.197ZM-95.1494 219.899L-36.1644 223.35L-3.69449 173.986L-30.2097 121.17L-89.1947 117.719L-121.665 167.084L-95.1494 219.899Z" fill="url(#paint20_linear_7_4)"/>
<path d="M57.8401 178.47L-3.23489 174.902L-30.6774 120.239L2.9469 69.1285L64.0219 72.6966L91.4725 127.375L57.8401 178.47ZM-2.07235 173.172L56.9127 176.623L89.3825 127.258L62.8674 74.4427L3.88235 70.9918L-28.5875 120.356L-2.07235 173.172Z" fill="url(#paint21_linear_7_4)"/>
<path d="M118.472 128.04L90.9891 126.452L64.4739 73.6369L79.6105 50.6323L78.6751 48.769L62.4 73.5116L89.8506 128.19L119.407 129.904L118.472 128.04Z" fill="url(#paint22_linear_7_4)"/>
<path d="M51.7677 282.458L-9.30732 278.889L-36.7579 224.211L-3.13355 173.1L57.9414 176.668L85.392 231.347L51.7677 282.458ZM-8.15281 277.143L50.8322 280.594L83.3021 231.23L56.7869 178.414L-2.19811 174.963L-34.668 224.328L-8.15281 277.143Z" fill="url(#paint23_linear_7_4)"/>
<path d="M159.615 209.993L143.909 233.866L84.924 230.415L58.4089 177.6L90.8868 128.252L119.407 129.902L118.471 128.039L89.9513 126.388L56.3189 177.483L83.7696 232.161L144.845 235.73L160.55 211.856L159.615 209.993Z" fill="url(#paint24_linear_7_4)"/>
<path d="M199.412 289.264L171.921 287.66L145.414 234.861L160.551 211.856L159.615 209.993L143.34 234.735L170.783 289.398L200.348 291.127L199.412 289.264Z" fill="url(#paint25_linear_7_4)"/>
<path d="M219.721 500.92L158.646 497.352L131.196 442.673L164.82 391.562L225.895 395.13L253.345 449.809L219.721 500.92ZM159.801 495.606L218.786 499.056L251.256 449.692L224.74 396.877L165.755 393.426L133.285 442.79L159.801 495.606Z" fill="url(#paint26_linear_7_4)"/>
<path d="M208.542 602.786L153.72 599.577L127.213 546.778L159.683 497.414L218.668 500.865L245.175 553.664L215.014 599.536L218.243 597.915L247.273 553.797L219.823 499.119L158.748 495.55L125.139 546.653L152.59 601.332L205.313 604.407L208.542 602.786Z" fill="url(#paint27_linear_7_4)"/>
<path d="M252.76 450.686L281.288 452.353L280.353 450.489L251.825 448.823L218.2 499.933L245.651 554.612L298.39 557.679L301.619 556.058L246.798 552.85L220.29 500.05L252.76 450.686Z" fill="url(#paint28_linear_7_4)"/>
<path d="M32.0878 691.371L60.5491 648.122L112.235 651.134L115.464 649.513L59.6056 646.242L28.8595 692.992L32.0878 691.371Z" fill="url(#paint29_linear_7_4)"/>
<path d="M125.165 644.643L153.627 601.394L205.313 604.407L208.541 602.786L152.683 599.515L121.937 646.264L125.165 644.643Z" fill="url(#paint30_linear_7_4)"/>
<path d="M218.243 597.915L246.704 554.666L298.39 557.678L301.619 556.057L245.76 552.786L215.014 599.536L218.243 597.915Z" fill="url(#paint31_linear_7_4)"/>
<path d="M3.69931 188.474C4.79039 187.927 5.23077 186.598 4.68296 185.507C4.13515 184.416 2.80659 183.975 1.71551 184.523C0.624429 185.071 0.183999 186.399 0.73181 187.49C1.27962 188.582 2.60823 189.022 3.69931 188.474Z" fill="url(#paint32_linear_7_4)"/>
<path d="M8.30879 108.57C9.33674 108.054 9.75261 106.799 9.2365 105.771C8.72039 104.743 7.46584 104.327 6.43789 104.843C5.40995 105.359 4.99408 106.614 5.51019 107.642C6.0263 108.67 7.28085 109.086 8.30879 108.57Z" fill="url(#paint33_linear_7_4)"/>
<path d="M54.9005 112.33C56.5228 111.516 57.1625 109.546 56.356 107.939C55.5415 106.317 53.5713 105.677 51.9652 106.484C50.3429 107.298 49.7032 109.268 50.5096 110.875C51.3081 112.505 53.2783 113.145 54.9005 112.33Z" fill="url(#paint34_linear_7_4)"/>
<path d="M75.8029 153.965C77.6391 153.043 78.3802 150.808 77.4583 148.971C76.5364 147.135 74.3005 146.393 72.4643 147.315C70.6281 148.237 69.8869 150.473 70.8088 152.309C71.7307 154.146 73.9667 154.887 75.8029 153.965Z" fill="url(#paint35_linear_7_4)"/>
<path d="M80.1864 73.6508C81.7283 72.8767 82.3521 70.9948 81.578 69.4527C80.8038 67.9107 78.922 67.2867 77.38 68.0608C75.8381 68.8349 75.2144 70.7168 75.9885 72.2588C76.7627 73.8009 78.6445 74.4249 80.1864 73.6508Z" fill="url(#paint36_linear_7_4)"/>
<path d="M50.7264 193.061C52.8626 191.988 53.7263 189.383 52.6538 187.246C51.5812 185.11 48.9756 184.246 46.8394 185.318C44.7032 186.391 43.8395 188.997 44.9121 191.133C45.9846 193.269 48.5741 194.141 50.7264 193.061Z" fill="url(#paint37_linear_7_4)"/>
<path d="M117.471 236.963C119.607 235.891 120.455 233.293 119.39 231.173C118.318 229.037 115.72 228.189 113.6 229.253C111.464 230.326 110.616 232.923 111.681 235.044C112.753 237.18 115.335 238.036 117.471 236.963Z" fill="url(#paint38_linear_7_4)"/>
<path d="M71.7661 234.97C74.2717 233.712 75.2873 230.648 74.0293 228.142C72.7713 225.636 69.7073 224.62 67.2017 225.878C64.6961 227.136 63.6805 230.2 64.9385 232.706C66.1804 235.22 69.2444 236.236 71.7661 234.97Z" fill="url(#paint39_linear_7_4)"/>
<path d="M122.266 157.469C124.546 156.324 125.466 153.549 124.313 151.252C123.168 148.971 120.385 148.035 118.104 149.18C115.824 150.325 114.888 153.108 116.041 155.405C117.194 157.702 119.985 158.614 122.266 157.469Z" fill="url(#paint40_linear_7_4)"/>
<path d="M-0.74064 268.676C0.581078 268.013 1.11457 266.403 0.450959 265.081C-0.21265 263.759 -1.82206 263.226 -3.14378 263.889C-4.46549 264.553 -4.99898 266.162 -4.33537 267.484C-3.67177 268.806 -2.06236 269.34 -0.74064 268.676Z" fill="url(#paint41_linear_7_4)"/>
<path d="M45.3995 271.537C46.8129 270.827 47.3968 269.106 46.6791 267.676C45.9694 266.263 44.2484 265.679 42.8189 266.396C41.4055 267.106 40.8216 268.827 41.5393 270.257C42.265 271.662 43.9861 272.246 45.3995 271.537Z" fill="url(#paint42_linear_7_4)"/>
<path d="M183.57 279.58C184.971 278.877 185.537 277.17 184.833 275.768C184.13 274.367 182.423 273.801 181.021 274.504C179.62 275.208 179.054 276.915 179.758 278.316C180.462 279.718 182.168 280.284 183.57 279.58Z" fill="url(#paint43_linear_7_4)"/>
<path d="M134.575 271.033C132.744 271.952 132.008 274.172 132.928 276.003C133.847 277.835 136.066 278.57 137.897 277.651C139.728 276.732 140.464 274.512 139.545 272.681C138.618 270.874 136.39 270.122 134.575 271.033Z" fill="url(#paint44_linear_7_4)"/>
<path d="M142.482 197.738C144.23 196.861 144.935 194.733 144.058 192.985C143.18 191.238 141.053 190.532 139.305 191.41C137.558 192.287 136.852 194.415 137.73 196.162C138.607 197.91 140.735 198.616 142.482 197.738Z" fill="url(#paint45_linear_7_4)"/>
<path d="M35.5084 350.734C36.6052 352.919 39.2671 353.815 41.4675 352.71C43.6519 351.613 44.5477 348.951 43.4429 346.751C42.3461 344.566 39.6842 343.67 37.4838 344.775C35.2834 345.88 34.4036 348.534 35.5084 350.734Z" fill="url(#paint46_linear_7_4)"/>
<path d="M107.413 395.062C108.735 394.398 109.269 392.789 108.605 391.467C107.941 390.145 106.332 389.612 105.01 390.275C103.689 390.939 103.155 392.548 103.819 393.87C104.482 395.192 106.092 395.725 107.413 395.062Z" fill="url(#paint47_linear_7_4)"/>
<path d="M61.725 393.101C63.4459 392.237 64.1405 390.141 63.2765 388.42C62.4125 386.699 60.317 386.004 58.5961 386.868C56.8752 387.732 56.1806 389.828 57.0446 391.549C57.9086 393.27 60.0041 393.965 61.725 393.101Z" fill="url(#paint48_linear_7_4)"/>
<path d="M66.4795 313.525C68.3157 312.603 69.0568 310.367 68.1349 308.531C67.213 306.694 64.9771 305.953 63.1409 306.875C61.3047 307.797 60.5635 310.033 61.4854 311.869C62.4073 313.705 64.6433 314.447 66.4795 313.525Z" fill="url(#paint49_linear_7_4)"/>
<path d="M133.957 358.849C136.565 357.54 137.618 354.364 136.309 351.756C134.999 349.147 131.824 348.094 129.216 349.404C126.608 350.713 125.555 353.889 126.864 356.497C128.174 359.105 131.349 360.158 133.957 358.849Z" fill="url(#paint50_linear_7_4)"/>
<path d="M178.985 359.492C180.462 358.751 181.054 356.965 180.312 355.487C179.57 354.01 177.785 353.418 176.307 354.159C174.83 354.901 174.238 356.687 174.98 358.164C175.698 359.634 177.507 360.234 178.985 359.492Z" fill="url(#paint51_linear_7_4)"/>
<path d="M113.232 317.567C115.818 316.268 116.858 313.132 115.56 310.546C114.261 307.96 111.125 306.92 108.539 308.218C105.953 309.516 104.913 312.653 106.212 315.239C107.494 317.833 110.646 318.865 113.232 317.567Z" fill="url(#paint52_linear_7_4)"/>
<path d="M204.061 320.396C205.232 319.808 205.704 318.382 205.117 317.211C204.529 316.04 203.103 315.568 201.932 316.155C200.761 316.743 200.288 318.169 200.876 319.34C201.464 320.511 202.89 320.984 204.061 320.396Z" fill="url(#paint53_linear_7_4)"/>
<path d="M167.21 514.169C165.989 514.782 165.501 516.253 166.114 517.474C166.727 518.695 168.198 519.183 169.419 518.57C170.64 517.957 171.128 516.485 170.515 515.265C169.902 514.044 168.43 513.556 167.21 514.169Z" fill="url(#paint54_linear_7_4)"/>
<path d="M128.203 436.472C129.616 435.762 130.192 434.025 129.483 432.612C128.773 431.198 127.036 430.622 125.622 431.332C124.209 432.041 123.633 433.779 124.343 435.192C125.061 436.622 126.79 437.182 128.203 436.472Z" fill="url(#paint55_linear_7_4)"/>
<path d="M170.464 431.566C167.686 432.961 166.566 436.339 167.961 439.118C169.356 441.897 172.734 443.017 175.512 441.622C178.291 440.227 179.411 436.849 178.016 434.07C176.605 431.299 173.227 430.18 170.464 431.566Z" fill="url(#paint56_linear_7_4)"/>
<path d="M199.71 400.775C201.219 400.017 201.827 398.183 201.069 396.673C200.311 395.163 198.478 394.555 196.968 395.313C195.458 396.071 194.85 397.905 195.608 399.415C196.366 400.925 198.2 401.533 199.71 400.775Z" fill="url(#paint57_linear_7_4)"/>
<path d="M246.455 404.84C248.719 403.703 249.631 400.953 248.494 398.688C247.357 396.423 244.607 395.511 242.342 396.648C240.077 397.785 239.166 400.535 240.303 402.8C241.44 405.065 244.19 405.977 246.455 404.84Z" fill="url(#paint58_linear_7_4)"/>
<path d="M262.357 436.516C259.338 438.032 258.122 441.699 259.638 444.719C261.154 447.739 264.821 448.955 267.841 447.439C270.861 445.923 272.076 442.256 270.56 439.236C269.044 436.216 265.361 435.008 262.357 436.516Z" fill="url(#paint59_linear_7_4)"/>
<path d="M191.995 556.128C191.172 554.489 189.17 553.825 187.531 554.648C185.893 555.47 185.229 557.473 186.052 559.111C186.874 560.75 188.877 561.414 190.515 560.591C192.145 559.753 192.809 557.75 191.995 556.128Z" fill="url(#paint60_linear_7_4)"/>
<path d="M241.684 484.382C243.82 483.31 244.668 480.712 243.603 478.592C242.531 476.456 239.933 475.608 237.813 476.672C235.677 477.745 234.829 480.342 235.894 482.462C236.942 484.591 239.548 485.455 241.684 484.382Z" fill="url(#paint61_linear_7_4)"/>
<path d="M258.514 517.906C256.378 518.978 255.522 521.56 256.594 523.696C257.667 525.832 260.248 526.688 262.385 525.616C264.521 524.543 265.377 521.962 264.304 519.826C263.231 517.689 260.634 516.841 258.514 517.906Z" fill="url(#paint62_linear_7_4)"/>
<path d="M165.205 599.222C166.892 598.376 167.579 596.301 166.733 594.614C165.886 592.928 163.811 592.24 162.125 593.086C160.438 593.933 159.75 596.008 160.597 597.695C161.452 599.397 163.519 600.069 165.205 599.222Z" fill="url(#paint63_linear_7_4)" fill-opacity="0.5"/>
<path d="M236.792 563.686C238.672 562.742 239.415 560.458 238.48 558.595C237.536 556.715 235.253 555.972 233.389 556.907C231.51 557.85 230.766 560.134 231.702 561.998C232.629 563.885 234.913 564.629 236.792 563.686Z" fill="url(#paint64_linear_7_4)"/>
<defs>
<linearGradient id="paint0_linear_7_4" x1="477.801" y1="489.732" x2="-169.598" y2="109.761" gradientUnits="userSpaceOnUse">
<stop stop-color="#52BBE8"/>
<stop offset="0.196" stop-color="#69C3EB"/>
<stop offset="0.6037" stop-color="#A3D8F1"/>
<stop offset="1" stop-color="#E1EFF8"/>
</linearGradient>
<linearGradient id="paint1_linear_7_4" x1="511.752" y1="431.888" x2="-135.647" y2="51.9173" gradientUnits="userSpaceOnUse">
<stop stop-color="#52BBE8"/>
<stop offset="0.196" stop-color="#69C3EB"/>
<stop offset="0.6037" stop-color="#A3D8F1"/>
<stop offset="1" stop-color="#E1EFF8"/>
</linearGradient>
<linearGradient id="paint2_linear_7_4" x1="541.671" y1="380.914" x2="-105.729" y2="0.942226" gradientUnits="userSpaceOnUse">
<stop stop-color="#52BBE8"/>
<stop offset="0.196" stop-color="#69C3EB"/>
<stop offset="0.6037" stop-color="#A3D8F1"/>
<stop offset="1" stop-color="#E1EFF8"/>
</linearGradient>
<linearGradient id="paint3_linear_7_4" x1="441.783" y1="551.099" x2="-205.616" y2="171.129" gradientUnits="userSpaceOnUse">
<stop stop-color="#52BBE8"/>
<stop offset="0.196" stop-color="#69C3EB"/>
<stop offset="0.6037" stop-color="#A3D8F1"/>
<stop offset="1" stop-color="#E1EFF8"/>
</linearGradient>
<linearGradient id="paint4_linear_7_4" x1="475.734" y1="493.254" x2="-171.665" y2="113.283" gradientUnits="userSpaceOnUse">
<stop stop-color="#52BBE8"/>
<stop offset="0.196" stop-color="#69C3EB"/>
<stop offset="0.6037" stop-color="#A3D8F1"/>
<stop offset="1" stop-color="#E1EFF8"/>
</linearGradient>
<linearGradient id="paint5_linear_7_4" x1="509.684" y1="435.409" x2="-137.715" y2="55.4386" gradientUnits="userSpaceOnUse">
<stop stop-color="#52BBE8"/>
<stop offset="0.196" stop-color="#69C3EB"/>
<stop offset="0.6037" stop-color="#A3D8F1"/>
<stop offset="1" stop-color="#E1EFF8"/>
</linearGradient>
<linearGradient id="paint6_linear_7_4" x1="529.499" y1="401.649" x2="-117.899" y2="21.6788" gradientUnits="userSpaceOnUse">
<stop stop-color="#52BBE8"/>
<stop offset="0.196" stop-color="#69C3EB"/>
<stop offset="0.6037" stop-color="#A3D8F1"/>
<stop offset="1" stop-color="#E1EFF8"/>
</linearGradient>
<linearGradient id="paint7_linear_7_4" x1="439.716" y1="554.623" x2="-207.682" y2="174.652" gradientUnits="userSpaceOnUse">
<stop stop-color="#52BBE8"/>
<stop offset="0.196" stop-color="#69C3EB"/>
<stop offset="0.6037" stop-color="#A3D8F1"/>
<stop offset="1" stop-color="#E1EFF8"/>
</linearGradient>
<linearGradient id="paint8_linear_7_4" x1="473.667" y1="496.779" x2="-173.732" y2="116.808" gradientUnits="userSpaceOnUse">
<stop stop-color="#52BBE8"/>
<stop offset="0.196" stop-color="#69C3EB"/>
<stop offset="0.6037" stop-color="#A3D8F1"/>
<stop offset="1" stop-color="#E1EFF8"/>
</linearGradient>
<linearGradient id="paint9_linear_7_4" x1="503.585" y1="445.804" x2="-143.815" y2="65.8317" gradientUnits="userSpaceOnUse">
<stop stop-color="#52BBE8"/>
<stop offset="0.196" stop-color="#69C3EB"/>
<stop offset="0.6037" stop-color="#A3D8F1"/>
<stop offset="1" stop-color="#E1EFF8"/>
</linearGradient>
<linearGradient id="paint10_linear_7_4" x1="437.648" y1="558.146" x2="-209.751" y2="178.175" gradientUnits="userSpaceOnUse">
<stop stop-color="#52BBE8"/>
<stop offset="0.196" stop-color="#69C3EB"/>
<stop offset="0.6037" stop-color="#A3D8F1"/>
<stop offset="1" stop-color="#E1EFF8"/>
</linearGradient>
<linearGradient id="paint11_linear_7_4" x1="471.598" y1="500.3" x2="-175.8" y2="120.33" gradientUnits="userSpaceOnUse">
<stop stop-color="#52BBE8"/>
<stop offset="0.196" stop-color="#69C3EB"/>
<stop offset="0.6037" stop-color="#A3D8F1"/>
<stop offset="1" stop-color="#E1EFF8"/>
</linearGradient>
<linearGradient id="paint12_linear_7_4" x1="491.414" y1="466.54" x2="-155.985" y2="86.5688" gradientUnits="userSpaceOnUse">
<stop stop-color="#52BBE8"/>
<stop offset="0.196" stop-color="#69C3EB"/>
<stop offset="0.6037" stop-color="#A3D8F1"/>
<stop offset="1" stop-color="#E1EFF8"/>
</linearGradient>
<linearGradient id="paint13_linear_7_4" x1="435.581" y1="561.668" x2="-211.818" y2="181.697" gradientUnits="userSpaceOnUse">
<stop stop-color="#52BBE8"/>
<stop offset="0.196" stop-color="#69C3EB"/>
<stop offset="0.6037" stop-color="#A3D8F1"/>
<stop offset="1" stop-color="#E1EFF8"/>
</linearGradient>
<linearGradient id="paint14_linear_7_4" x1="465.499" y1="510.695" x2="-181.901" y2="130.723" gradientUnits="userSpaceOnUse">
<stop stop-color="#52BBE8"/>
<stop offset="0.196" stop-color="#69C3EB"/>
<stop offset="0.6037" stop-color="#A3D8F1"/>
<stop offset="1" stop-color="#E1EFF8"/>
</linearGradient>
<linearGradient id="paint15_linear_7_4" x1="453.329" y1="531.43" x2="-194.069" y2="151.461" gradientUnits="userSpaceOnUse">
<stop stop-color="#52BBE8"/>
<stop offset="0.196" stop-color="#69C3EB"/>
<stop offset="0.6037" stop-color="#A3D8F1"/>
<stop offset="1" stop-color="#E1EFF8"/>
</linearGradient>
<linearGradient id="paint16_linear_7_4" x1="364.253" y1="683.196" x2="-283.145" y2="303.226" gradientUnits="userSpaceOnUse">
<stop stop-color="#52BBE8"/>
<stop offset="0.196" stop-color="#69C3EB"/>
<stop offset="0.6037" stop-color="#A3D8F1"/>
<stop offset="1" stop-color="#E1EFF8"/>
</linearGradient>
<linearGradient id="paint17_linear_7_4" x1="398.204" y1="625.352" x2="-249.194" y2="245.382" gradientUnits="userSpaceOnUse">
<stop stop-color="#52BBE8"/>
<stop offset="0.196" stop-color="#69C3EB"/>
<stop offset="0.6037" stop-color="#A3D8F1"/>
<stop offset="1" stop-color="#E1EFF8"/>
</linearGradient>
<linearGradient id="paint18_linear_7_4" x1="522.718" y1="413.205" x2="-124.682" y2="33.2338" gradientUnits="userSpaceOnUse">
<stop stop-color="#52BBE8"/>
<stop offset="0.196" stop-color="#69C3EB"/>
<stop offset="0.6037" stop-color="#A3D8F1"/>
<stop offset="1" stop-color="#E1EFF8"/>
</linearGradient>
<linearGradient id="paint19_linear_7_4" x1="553.458" y1="360.828" x2="-93.9408" y2="-19.1426" gradientUnits="userSpaceOnUse">
<stop stop-color="#52BBE8"/>
<stop offset="0.196" stop-color="#69C3EB"/>
<stop offset="0.6037" stop-color="#A3D8F1"/>
<stop offset="1" stop-color="#E1EFF8"/>
</linearGradient>
<linearGradient id="paint20_linear_7_4" x1="478.64" y1="488.303" x2="-168.759" y2="108.332" gradientUnits="userSpaceOnUse">
<stop stop-color="#52BBE8"/>
<stop offset="0.196" stop-color="#69C3EB"/>
<stop offset="0.6037" stop-color="#A3D8F1"/>
<stop offset="1" stop-color="#E1EFF8"/>
</linearGradient>
<linearGradient id="paint21_linear_7_4" x1="522.886" y1="412.916" x2="-124.512" y2="32.9456" gradientUnits="userSpaceOnUse">
<stop stop-color="#52BBE8"/>
<stop offset="0.196" stop-color="#69C3EB"/>
<stop offset="0.6037" stop-color="#A3D8F1"/>
<stop offset="1" stop-color="#E1EFF8"/>
</linearGradient>
<linearGradient id="paint22_linear_7_4" x1="552.111" y1="363.125" x2="-95.2877" y2="-16.8465" gradientUnits="userSpaceOnUse">
<stop stop-color="#52BBE8"/>
<stop offset="0.196" stop-color="#69C3EB"/>
<stop offset="0.6037" stop-color="#A3D8F1"/>
<stop offset="1" stop-color="#E1EFF8"/>
</linearGradient>
<linearGradient id="paint23_linear_7_4" x1="475.946" y1="492.894" x2="-171.453" y2="112.923" gradientUnits="userSpaceOnUse">
<stop stop-color="#52BBE8"/>
<stop offset="0.196" stop-color="#69C3EB"/>
<stop offset="0.6037" stop-color="#A3D8F1"/>
<stop offset="1" stop-color="#E1EFF8"/>
</linearGradient>
<linearGradient id="paint24_linear_7_4" x1="516.436" y1="423.905" x2="-130.962" y2="43.9336" gradientUnits="userSpaceOnUse">
<stop stop-color="#52BBE8"/>
<stop offset="0.196" stop-color="#69C3EB"/>
<stop offset="0.6037" stop-color="#A3D8F1"/>
<stop offset="1" stop-color="#E1EFF8"/>
</linearGradient>
<linearGradient id="paint25_linear_7_4" x1="502.475" y1="447.694" x2="-144.924" y2="67.7221" gradientUnits="userSpaceOnUse">
<stop stop-color="#52BBE8"/>
<stop offset="0.196" stop-color="#69C3EB"/>
<stop offset="0.6037" stop-color="#A3D8F1"/>
<stop offset="1" stop-color="#E1EFF8"/>
</linearGradient>
<linearGradient id="paint26_linear_7_4" x1="423.615" y1="582.056" x2="-223.784" y2="202.085" gradientUnits="userSpaceOnUse">
<stop stop-color="#52BBE8"/>
<stop offset="0.196" stop-color="#69C3EB"/>
<stop offset="0.6037" stop-color="#A3D8F1"/>
<stop offset="1" stop-color="#E1EFF8"/>
</linearGradient>
<linearGradient id="paint27_linear_7_4" x1="376.674" y1="662.034" x2="-270.725" y2="282.063" gradientUnits="userSpaceOnUse">
<stop stop-color="#52BBE8"/>
<stop offset="0.196" stop-color="#69C3EB"/>
<stop offset="0.6037" stop-color="#A3D8F1"/>
<stop offset="1" stop-color="#E1EFF8"/>
</linearGradient>
<linearGradient id="paint28_linear_7_4" x1="417.165" y1="593.045" x2="-230.234" y2="213.074" gradientUnits="userSpaceOnUse">
<stop stop-color="#52BBE8"/>
<stop offset="0.196" stop-color="#69C3EB"/>
<stop offset="0.6037" stop-color="#A3D8F1"/>
<stop offset="1" stop-color="#E1EFF8"/>
</linearGradient>
<linearGradient id="paint29_linear_7_4" x1="294.62" y1="801.837" x2="-352.779" y2="421.867" gradientUnits="userSpaceOnUse">
<stop stop-color="#52BBE8"/>
<stop offset="0.196" stop-color="#69C3EB"/>
<stop offset="0.6037" stop-color="#A3D8F1"/>
<stop offset="1" stop-color="#E1EFF8"/>
</linearGradient>
<linearGradient id="paint30_linear_7_4" x1="338.867" y1="726.45" x2="-308.533" y2="346.478" gradientUnits="userSpaceOnUse">
<stop stop-color="#52BBE8"/>
<stop offset="0.196" stop-color="#69C3EB"/>
<stop offset="0.6037" stop-color="#A3D8F1"/>
<stop offset="1" stop-color="#E1EFF8"/>
</linearGradient>
<linearGradient id="paint31_linear_7_4" x1="383.114" y1="651.062" x2="-264.288" y2="271.089" gradientUnits="userSpaceOnUse">
<stop stop-color="#52BBE8"/>
<stop offset="0.196" stop-color="#69C3EB"/>
<stop offset="0.6037" stop-color="#A3D8F1"/>
<stop offset="1" stop-color="#E1EFF8"/>
</linearGradient>
<linearGradient id="paint32_linear_7_4" x1="488.426" y1="471.624" x2="-158.971" y2="91.6559" gradientUnits="userSpaceOnUse">
<stop stop-color="#52BBE8"/>
<stop offset="0.196" stop-color="#69C3EB"/>
<stop offset="0.6037" stop-color="#A3D8F1"/>
<stop offset="1" stop-color="#E1EFF8"/>
</linearGradient>
<linearGradient id="paint33_linear_7_4" x1="524.446" y1="410.255" x2="-122.951" y2="30.2843" gradientUnits="userSpaceOnUse">
<stop stop-color="#52BBE8"/>
<stop offset="0.196" stop-color="#69C3EB"/>
<stop offset="0.6037" stop-color="#A3D8F1"/>
<stop offset="1" stop-color="#E1EFF8"/>
</linearGradient>
<linearGradient id="paint34_linear_7_4" x1="535.076" y1="392.152" x2="-112.327" y2="12.1808" gradientUnits="userSpaceOnUse">
<stop stop-color="#52BBE8"/>
<stop offset="0.196" stop-color="#69C3EB"/>
<stop offset="0.6037" stop-color="#A3D8F1"/>
<stop offset="1" stop-color="#E1EFF8"/>
</linearGradient>
<linearGradient id="paint35_linear_7_4" x1="522.382" y1="413.782" x2="-125.022" y2="33.8099" gradientUnits="userSpaceOnUse">
<stop stop-color="#52BBE8"/>
<stop offset="0.196" stop-color="#69C3EB"/>
<stop offset="0.6037" stop-color="#A3D8F1"/>
<stop offset="1" stop-color="#E1EFF8"/>
</linearGradient>
<linearGradient id="paint36_linear_7_4" x1="558.401" y1="352.413" x2="-89.0016" y2="-27.5617" gradientUnits="userSpaceOnUse">
<stop stop-color="#52BBE8"/>
<stop offset="0.196" stop-color="#69C3EB"/>
<stop offset="0.6037" stop-color="#A3D8F1"/>
<stop offset="1" stop-color="#E1EFF8"/>
</linearGradient>
<linearGradient id="paint37_linear_7_4" x1="499.056" y1="453.516" x2="-148.341" y2="73.5454" gradientUnits="userSpaceOnUse">
<stop stop-color="#52BBE8"/>
<stop offset="0.196" stop-color="#69C3EB"/>
<stop offset="0.6037" stop-color="#A3D8F1"/>
<stop offset="1" stop-color="#E1EFF8"/>
</linearGradient>
<linearGradient id="paint38_linear_7_4" x1="496.988" y1="457.038" x2="-150.407" y2="77.0672" gradientUnits="userSpaceOnUse">
<stop stop-color="#52BBE8"/>
<stop offset="0.196" stop-color="#69C3EB"/>
<stop offset="0.6037" stop-color="#A3D8F1"/>
<stop offset="1" stop-color="#E1EFF8"/>
</linearGradient>
<linearGradient id="paint39_linear_7_4" x1="486.36" y1="475.148" x2="-161.038" y2="95.1797" gradientUnits="userSpaceOnUse">
<stop stop-color="#52BBE8"/>
<stop offset="0.196" stop-color="#69C3EB"/>
<stop offset="0.6037" stop-color="#A3D8F1"/>
<stop offset="1" stop-color="#E1EFF8"/>
</linearGradient>
<linearGradient id="paint40_linear_7_4" x1="533.009" y1="395.674" x2="-114.394" y2="15.7022" gradientUnits="userSpaceOnUse">
<stop stop-color="#52BBE8"/>
<stop offset="0.196" stop-color="#69C3EB"/>
<stop offset="0.6037" stop-color="#A3D8F1"/>
<stop offset="1" stop-color="#E1EFF8"/>
</linearGradient>
<linearGradient id="paint41_linear_7_4" x1="452.405" y1="532.991" x2="-194.988" y2="153.026" gradientUnits="userSpaceOnUse">
<stop stop-color="#52BBE8"/>
<stop offset="0.196" stop-color="#69C3EB"/>
<stop offset="0.6037" stop-color="#A3D8F1"/>
<stop offset="1" stop-color="#E1EFF8"/>
</linearGradient>
<linearGradient id="paint42_linear_7_4" x1="463.039" y1="514.886" x2="-184.361" y2="134.914" gradientUnits="userSpaceOnUse">
<stop stop-color="#52BBE8"/>
<stop offset="0.196" stop-color="#69C3EB"/>
<stop offset="0.6037" stop-color="#A3D8F1"/>
<stop offset="1" stop-color="#E1EFF8"/>
</linearGradient>
<linearGradient id="paint43_linear_7_4" x1="494.921" y1="460.563" x2="-152.477" y2="80.5921" gradientUnits="userSpaceOnUse">
<stop stop-color="#52BBE8"/>
<stop offset="0.196" stop-color="#69C3EB"/>
<stop offset="0.6037" stop-color="#A3D8F1"/>
<stop offset="1" stop-color="#E1EFF8"/>
</linearGradient>
<linearGradient id="paint44_linear_7_4" x1="484.291" y1="478.669" x2="-163.102" y2="98.7011" gradientUnits="userSpaceOnUse">
<stop stop-color="#52BBE8"/>
<stop offset="0.196" stop-color="#69C3EB"/>
<stop offset="0.6037" stop-color="#A3D8F1"/>
<stop offset="1" stop-color="#E1EFF8"/>
</linearGradient>
<linearGradient id="paint45_linear_7_4" x1="520.314" y1="417.304" x2="-127.088" y2="37.3307" gradientUnits="userSpaceOnUse">
<stop stop-color="#52BBE8"/>
<stop offset="0.196" stop-color="#69C3EB"/>
<stop offset="0.6037" stop-color="#A3D8F1"/>
<stop offset="1" stop-color="#E1EFF8"/>
</linearGradient>
<linearGradient id="paint46_linear_7_4" x1="427.021" y1="576.254" x2="-220.38" y2="196.281" gradientUnits="userSpaceOnUse">
<stop stop-color="#52BBE8"/>
<stop offset="0.196" stop-color="#69C3EB"/>
<stop offset="0.6037" stop-color="#A3D8F1"/>
<stop offset="1" stop-color="#E1EFF8"/>
</linearGradient>
<linearGradient id="paint47_linear_7_4" x1="424.952" y1="579.774" x2="-222.444" y2="199.803" gradientUnits="userSpaceOnUse">
<stop stop-color="#52BBE8"/>
<stop offset="0.196" stop-color="#69C3EB"/>
<stop offset="0.6037" stop-color="#A3D8F1"/>
<stop offset="1" stop-color="#E1EFF8"/>
</linearGradient>
<linearGradient id="paint48_linear_7_4" x1="414.331" y1="597.886" x2="-233.077" y2="217.908" gradientUnits="userSpaceOnUse">
<stop stop-color="#52BBE8"/>
<stop offset="0.196" stop-color="#69C3EB"/>
<stop offset="0.6037" stop-color="#A3D8F1"/>
<stop offset="1" stop-color="#E1EFF8"/>
</linearGradient>
<linearGradient id="paint49_linear_7_4" x1="450.342" y1="536.515" x2="-197.056" y2="156.546" gradientUnits="userSpaceOnUse">
<stop stop-color="#52BBE8"/>
<stop offset="0.196" stop-color="#69C3EB"/>
<stop offset="0.6037" stop-color="#A3D8F1"/>
<stop offset="1" stop-color="#E1EFF8"/>
</linearGradient>
<linearGradient id="paint50_linear_7_4" x1="448.275" y1="540.037" x2="-199.121" y2="160.067" gradientUnits="userSpaceOnUse">
<stop stop-color="#52BBE8"/>
<stop offset="0.196" stop-color="#69C3EB"/>
<stop offset="0.6037" stop-color="#A3D8F1"/>
<stop offset="1" stop-color="#E1EFF8"/>
</linearGradient>
<linearGradient id="paint51_linear_7_4" x1="458.901" y1="521.928" x2="-188.491" y2="141.959" gradientUnits="userSpaceOnUse">
<stop stop-color="#52BBE8"/>
<stop offset="0.196" stop-color="#69C3EB"/>
<stop offset="0.6037" stop-color="#A3D8F1"/>
<stop offset="1" stop-color="#E1EFF8"/>
</linearGradient>
<linearGradient id="paint52_linear_7_4" x1="460.97" y1="518.407" x2="-186.426" y2="138.436" gradientUnits="userSpaceOnUse">
<stop stop-color="#52BBE8"/>
<stop offset="0.196" stop-color="#69C3EB"/>
<stop offset="0.6037" stop-color="#A3D8F1"/>
<stop offset="1" stop-color="#E1EFF8"/>
</linearGradient>
<linearGradient id="paint53_linear_7_4" x1="482.229" y1="482.196" x2="-165.18" y2="102.221" gradientUnits="userSpaceOnUse">
<stop stop-color="#52BBE8"/>
<stop offset="0.196" stop-color="#69C3EB"/>
<stop offset="0.6037" stop-color="#A3D8F1"/>
<stop offset="1" stop-color="#E1EFF8"/>
</linearGradient>
<linearGradient id="paint54_linear_7_4" x1="386.87" y1="644.667" x2="-260.536" y2="264.692" gradientUnits="userSpaceOnUse">
<stop stop-color="#52BBE8"/>
<stop offset="0.196" stop-color="#69C3EB"/>
<stop offset="0.6037" stop-color="#A3D8F1"/>
<stop offset="1" stop-color="#E1EFF8"/>
</linearGradient>
<linearGradient id="paint55_linear_7_4" x1="412.254" y1="601.402" x2="-235.135" y2="221.436" gradientUnits="userSpaceOnUse">
<stop stop-color="#52BBE8"/>
<stop offset="0.196" stop-color="#69C3EB"/>
<stop offset="0.6037" stop-color="#A3D8F1"/>
<stop offset="1" stop-color="#E1EFF8"/>
</linearGradient>
<linearGradient id="paint56_linear_7_4" x1="422.887" y1="583.299" x2="-224.515" y2="203.325" gradientUnits="userSpaceOnUse">
<stop stop-color="#52BBE8"/>
<stop offset="0.196" stop-color="#69C3EB"/>
<stop offset="0.6037" stop-color="#A3D8F1"/>
<stop offset="1" stop-color="#E1EFF8"/>
</linearGradient>
<linearGradient id="paint57_linear_7_4" x1="446.207" y1="543.561" x2="-201.19" y2="163.593" gradientUnits="userSpaceOnUse">
<stop stop-color="#52BBE8"/>
<stop offset="0.196" stop-color="#69C3EB"/>
<stop offset="0.6037" stop-color="#A3D8F1"/>
<stop offset="1" stop-color="#E1EFF8"/>
</linearGradient>
<linearGradient id="paint58_linear_7_4" x1="456.835" y1="525.453" x2="-190.559" y2="145.483" gradientUnits="userSpaceOnUse">
<stop stop-color="#52BBE8"/>
<stop offset="0.196" stop-color="#69C3EB"/>
<stop offset="0.6037" stop-color="#A3D8F1"/>
<stop offset="1" stop-color="#E1EFF8"/>
</linearGradient>
<linearGradient id="paint59_linear_7_4" x1="444.141" y1="547.083" x2="-203.256" y2="167.111" gradientUnits="userSpaceOnUse">
<stop stop-color="#52BBE8"/>
<stop offset="0.196" stop-color="#69C3EB"/>
<stop offset="0.6037" stop-color="#A3D8F1"/>
<stop offset="1" stop-color="#E1EFF8"/>
</linearGradient>
<linearGradient id="paint60_linear_7_4" x1="374.171" y1="666.294" x2="-273.222" y2="286.324" gradientUnits="userSpaceOnUse">
<stop stop-color="#52BBE8"/>
<stop offset="0.196" stop-color="#69C3EB"/>
<stop offset="0.6037" stop-color="#A3D8F1"/>
<stop offset="1" stop-color="#E1EFF8"/>
</linearGradient>
<linearGradient id="paint61_linear_7_4" x1="420.816" y1="586.819" x2="-226.574" y2="206.85" gradientUnits="userSpaceOnUse">
<stop stop-color="#52BBE8"/>
<stop offset="0.196" stop-color="#69C3EB"/>
<stop offset="0.6037" stop-color="#A3D8F1"/>
<stop offset="1" stop-color="#E1EFF8"/>
</linearGradient>
<linearGradient id="paint62_linear_7_4" x1="408.123" y1="608.451" x2="-239.278" y2="228.478" gradientUnits="userSpaceOnUse">
<stop stop-color="#52BBE8"/>
<stop offset="0.196" stop-color="#69C3EB"/>
<stop offset="0.6037" stop-color="#A3D8F1"/>
<stop offset="1" stop-color="#E1EFF8"/>
</linearGradient>
<linearGradient id="paint63_linear_7_4" x1="350.852" y1="706.035" x2="-296.555" y2="326.06" gradientUnits="userSpaceOnUse">
<stop stop-color="#52BBE8"/>
<stop offset="0.196" stop-color="#69C3EB"/>
<stop offset="0.6037" stop-color="#A3D8F1"/>
<stop offset="1" stop-color="#E1EFF8"/>
</linearGradient>
<linearGradient id="paint64_linear_7_4" x1="384.801" y1="648.189" x2="-262.6" y2="268.214" gradientUnits="userSpaceOnUse">
<stop stop-color="#52BBE8" stop-opacity="0.5"/>
<stop offset="0.196" stop-color="#69C3EB"/>
<stop offset="0.6037" stop-color="#A3D8F1"/>
<stop offset="1" stop-color="#E1EFF8"/>
</linearGradient>
</defs>
</svg>
