<svg width="16" height="20" viewBox="0 0 16 20" fill="none" xmlns="http://www.w3.org/2000/svg">
<path d="M8 10.916C9.51878 10.916 10.75 9.6848 10.75 8.16602C10.75 6.64723 9.51878 5.41602 8 5.41602C6.48122 5.41602 5.25 6.64723 5.25 8.16602C5.25 9.6848 6.48122 10.916 8 10.916Z" stroke="white" stroke-linecap="round" stroke-linejoin="round"/>
<path d="M7.99996 0.833008C6.05504 0.833008 4.18978 1.60562 2.81451 2.98089C1.43924 4.35616 0.666626 6.22142 0.666626 8.16634C0.666626 9.90067 1.03513 11.0355 2.04163 12.2913L7.99996 19.1663L13.9583 12.2913C14.9648 11.0355 15.3333 9.90067 15.3333 8.16634C15.3333 6.22142 14.5607 4.35616 13.1854 2.98089C11.8101 1.60562 9.94488 0.833008 7.99996 0.833008V0.833008Z" stroke="white" stroke-linecap="round" stroke-linejoin="round"/>
</svg>
