<svg width="83" height="89" viewBox="0 0 83 89" fill="none" xmlns="http://www.w3.org/2000/svg">
<path fill-rule="evenodd" clip-rule="evenodd" d="M0.130592 22.0452L38.2805 3.33809e-06L76.4304 22.0452L76.4304 66.1355L38.2805 88.1806L0.130596 66.1355L0.130592 22.0452Z" fill="#DAF2FF"/>
<path d="M70.6935 5C71.7376 5.70907 71.8278 6.32442 71.0345 7.31465C69.7915 8.86598 68.5633 10.4309 67.2931 11.96C67.0003 12.3127 67.0522 12.5013 67.3142 12.8207C68.5745 14.3585 69.8039 15.9209 71.0531 17.4685C71.4312 17.9359 71.7277 18.4119 71.4349 19.0322C71.1359 19.6685 70.5811 19.7696 69.9447 19.7696C64.1127 19.761 58.2795 19.7721 52.4474 19.7511C51.9322 19.7499 51.8173 19.8745 51.8197 20.3825C51.842 24.891 51.8333 29.4007 51.8321 33.9091C51.8321 34.1952 51.8444 34.4603 52.0088 34.7255C54.4886 38.7259 56.9574 42.7324 59.4286 46.7377C59.4693 46.8043 59.5188 46.8648 59.5707 46.9375C59.7931 46.8364 59.8462 46.6243 59.9463 46.4615C61.3586 44.1826 62.7597 41.8976 64.1696 39.6174C64.9023 38.4336 65.9291 38.4533 66.6321 39.6643C71.6919 48.3865 76.7504 57.1099 81.8102 65.8333C81.9202 66.022 82.0413 66.2045 82.1574 66.3895V67.1281C81.7954 67.7854 81.2455 68.0025 80.4943 68.0012C60.569 67.9864 40.645 67.9901 20.7197 67.9877C20.4738 67.9877 20.2193 68.0037 19.9845 67.9457C19.106 67.7287 18.8119 66.8273 19.3321 65.9295C21.403 62.3533 23.4813 58.7808 25.5558 55.2059C28.5225 50.092 31.4879 44.9756 34.4546 39.8616C34.5263 39.7383 34.5979 39.6137 34.6733 39.4917C35.2874 38.5113 36.3179 38.494 36.9345 39.4806C38.3443 41.7373 39.7331 44.0063 41.1318 46.2704C41.269 46.4936 41.4123 46.7118 41.5531 46.9326C41.7607 46.8697 41.7966 46.6921 41.8769 46.5614C44.2974 42.6436 46.7105 38.7222 49.1385 34.8093C49.3238 34.5109 49.3708 34.2186 49.3708 33.8845C49.3671 24.9465 49.3733 16.0085 49.356 7.07049C49.3547 6.26276 49.4078 5.52903 50.1072 5L70.6935 5ZM68.1111 65.5189C62.2568 56.0247 56.4532 46.6132 50.6002 37.1215C44.741 46.6243 38.9324 56.0445 33.0918 65.5189H68.1099H68.1111ZM22.4149 65.5275C24.9973 65.5275 27.4747 65.5238 29.9509 65.5337C30.1869 65.5337 30.2709 65.3992 30.3673 65.2439C33.5675 60.0547 36.7664 54.8668 39.9666 49.6788C40.0778 49.4976 40.1458 49.3533 40.0062 49.1289C38.6248 46.9129 37.257 44.687 35.8373 42.3859C31.352 50.1179 26.9063 57.782 22.4137 65.5275H22.4149ZM78.7855 65.5275C74.2916 57.7795 69.8459 50.1154 65.3619 42.3859C63.9842 44.6179 62.6658 46.7784 61.3166 48.9192C61.0941 49.2719 61.1189 49.5025 61.3277 49.8404C64.4735 54.9186 67.6095 60.0017 70.7306 65.0947C70.9443 65.4436 71.1742 65.5398 71.5621 65.5361C73.2858 65.5164 75.0107 65.5275 76.7356 65.5275C77.3843 65.5275 78.0342 65.5275 78.7879 65.5275H78.7855ZM67.738 7.48113C67.5724 7.47003 67.4983 7.4614 67.4241 7.4614C62.3718 7.4614 57.3182 7.46757 52.2658 7.44907C51.8321 7.44784 51.8271 7.63034 51.8284 7.95343C51.837 10.8847 51.8457 13.8159 51.821 16.7471C51.8173 17.2071 51.9285 17.3144 52.3893 17.3132C57.3194 17.2947 62.2482 17.3021 67.1782 17.3021H67.754C66.6902 15.9739 65.6968 14.7321 64.7021 13.4916C63.9793 12.5889 63.9793 12.1746 64.7021 11.2719C65.6955 10.0313 66.6902 8.78952 67.7367 7.48236L67.738 7.48113Z" fill="#3D3D63"/>
</svg>
