<svg width="82" height="89" viewBox="0 0 82 89" fill="none" xmlns="http://www.w3.org/2000/svg">
<path fill-rule="evenodd" clip-rule="evenodd" d="M1.92725e-06 22.0452L38.1833 3.33809e-06L76.3666 22.0452L76.3666 66.1355L38.1833 88.1806L5.78175e-06 66.1355L1.92725e-06 22.0452Z" fill="#DAF2FF"/>
<path fill-rule="evenodd" clip-rule="evenodd" d="M32.1865 19.2334C30.8831 19.6122 29.0225 21.5183 28.6457 22.8606C28.45 23.5572 28.336 28.5543 28.3351 36.4732L28.3333 48.9853L27.4099 48.8027C26.1339 48.5503 24.56 47.296 24.0732 46.1439C23.2583 44.2152 23.6623 42.4796 25.3175 40.7943C26.0712 40.027 26.3001 39.586 26.1642 39.1622C25.3242 36.545 21.3333 40.7877 21.3333 44.2977C21.3333 47.6257 24.7207 51.2209 27.8567 51.2209C28.2712 51.2209 28.3333 51.6717 28.3333 54.6824C28.3333 57.9516 28.301 58.144 27.75 58.144C27.3443 58.144 27.1617 57.9464 27.1503 57.495C27.1066 55.7748 26.4912 54.9522 24.6875 54.2021C22.078 53.1169 21.833 53.1031 20.4569 53.9621L19.215 54.7375L18.4963 54.0268L17.7776 53.316L18.5616 52.0877C19.4302 50.7267 19.4162 50.4844 18.319 47.9035C17.5606 46.1197 16.7288 45.511 14.9896 45.4677C14.4211 45.4539 14.3333 45.2973 14.3333 44.2977C14.3333 43.2982 14.4211 43.1416 14.9896 43.1277C16.7288 43.0845 17.5606 42.4758 18.319 40.6919C19.4162 38.1111 19.4302 37.8687 18.5616 36.5078L17.7776 35.2795L18.4963 34.5687L19.215 33.858L20.4569 34.6333C21.2065 35.1012 21.9444 35.3516 22.318 35.2648C23.5144 34.9873 26.3692 33.6785 26.6064 33.2995C26.7379 33.0886 27.0036 32.0418 27.1967 30.9733C27.5782 28.862 27.342 28.1438 26.2663 28.1438C25.6223 28.1438 25.2492 28.7666 24.9669 30.3124C24.6983 31.7842 24.5049 32.0066 23.0956 32.4667C22.0015 32.8238 21.8633 32.801 20.7643 32.0816C19.072 30.9742 18.4826 31.085 16.7297 32.8403C14.9817 34.5907 14.875 35.1581 15.9815 36.8118C16.709 37.8987 16.732 38.0355 16.3709 39.1175C15.9057 40.5114 15.6808 40.7026 14.1927 40.9683C12.0496 41.3514 12 41.4267 12 44.2977C12 47.1688 12.0496 47.2441 14.1927 47.6272C15.6808 47.8929 15.9057 48.0841 16.3709 49.478C16.732 50.56 16.709 50.6967 15.9815 51.7837C14.8618 53.4573 14.9738 54.0403 16.7486 55.774C18.5185 57.5027 19.0922 57.6083 20.7643 56.5139C21.8633 55.7945 22.0015 55.7717 23.0956 56.1288C24.5049 56.5889 24.6983 56.8113 24.9669 58.283C25.3122 60.1736 25.5753 60.4517 27.0188 60.4517H28.3091L28.394 72.3508L28.4792 84.25L29.1713 85.351C29.5519 85.9568 30.3957 86.8006 31.0458 87.226L32.2283 88H47H61.7717L62.9542 87.226C63.6043 86.8006 64.4481 85.9568 64.8287 85.351L65.5208 84.25L65.6051 71.197C65.6976 56.8202 65.5605 57.7309 67.5126 58.5375C68.756 59.0512 69.9699 60.5019 70.2085 61.7582C70.5209 63.4059 70.1009 64.7282 68.8327 66.0886C67.9878 66.9952 67.7107 67.5047 67.841 67.9111C68.6764 70.5139 72.6667 66.2542 72.6667 62.7594C72.6667 59.4314 69.2792 55.8363 66.1432 55.8363C65.7288 55.8363 65.6667 55.3854 65.6667 52.3747C65.6667 49.1056 65.699 48.9132 66.25 48.9132C66.6557 48.9132 66.8383 49.1108 66.8497 49.5622C66.8934 51.2823 67.5088 52.105 69.3125 52.855C71.922 53.9402 72.167 53.9541 73.5431 53.095L74.785 52.3196L75.5037 53.0304L76.2224 53.7412L75.4384 54.9695C74.5698 56.3304 74.5838 56.5727 75.681 59.1536C76.4394 60.9375 77.2712 61.5461 79.0104 61.5894C79.5789 61.6033 79.6667 61.7599 79.6667 62.7594C79.6667 63.7589 79.5789 63.9156 79.0104 63.9294C77.2712 63.9727 76.4394 64.5814 75.681 66.3652C74.5838 68.9461 74.5698 69.1884 75.4384 70.5494L76.2224 71.7777L75.5037 72.4884L74.785 73.1992L73.5431 72.4238C72.7935 71.9559 72.0556 71.7055 71.682 71.7924C70.4856 72.0699 67.6307 73.3786 67.3936 73.7577C67.2621 73.9685 66.9964 75.0154 66.8033 76.0839C66.4218 78.1951 66.658 78.9134 67.7337 78.9134C68.3777 78.9134 68.7507 78.2906 69.0331 76.7447C69.3017 75.273 69.4951 75.0506 70.9044 74.5905C71.9985 74.2334 72.1367 74.2561 73.2357 74.9756C74.928 76.083 75.5174 75.9722 77.2703 74.2169C79.0183 72.4665 79.125 71.8991 78.0185 70.2453C77.291 69.1584 77.268 69.0217 77.6291 67.9397C78.0943 66.5458 78.3192 66.3545 79.8072 66.0889C81.9504 65.7058 82 65.6305 82 62.7594C82 59.8883 81.9504 59.813 79.8072 59.43C78.3192 59.1643 78.0943 58.973 77.6291 57.5792C77.268 56.4972 77.291 56.3604 78.0185 55.2735C79.1382 53.5998 79.0262 53.0168 77.2514 51.2832C75.4815 49.5544 74.9078 49.4488 73.2357 50.5433C72.1367 51.2627 71.9985 51.2855 70.9044 50.9284C69.4951 50.4683 69.3017 50.2459 69.0331 48.7741C68.6877 46.8835 68.4247 46.6055 66.9812 46.6055H65.6909L65.606 34.6847L65.5208 22.7642L64.7383 21.5951C64.3081 20.9524 63.455 20.1181 62.8425 19.7417L61.7292 19.0572L47.4375 19.0058C38.929 18.9752 32.7576 19.0673 32.1865 19.2334ZM62.234 22.3079L63.1875 23.2509V53.5286V83.8063L62.234 84.7493L61.2806 85.6923H47H32.7194L31.766 84.7493L30.8125 83.8063V53.5462V23.2863L31.5417 22.5104C31.9427 22.0837 32.5333 21.6251 32.8542 21.4915C33.175 21.358 39.7022 21.2749 47.359 21.3069L61.2809 21.3649L62.234 22.3079ZM42.6909 23.867C42.4943 24.0614 42.3333 24.4385 42.3333 24.7047C42.3333 25.7016 43.0269 25.8551 47.1546 25.7723C50.6032 25.7031 51.2117 25.6209 51.4882 25.187C51.7221 24.8192 51.7221 24.5452 51.4882 24.1774C51.2114 23.743 50.6018 23.6616 47.1076 23.593C44.198 23.5359 42.9473 23.6135 42.6909 23.867ZM70.6501 28.5468C70.4512 28.7836 70.3316 29.2766 70.3838 29.6423C70.4582 30.1616 70.6641 30.3073 71.3224 30.3073C72.3622 30.3073 72.9586 29.533 72.4896 28.7928C72.0708 28.1322 71.1062 28.003 70.6501 28.5468ZM70.6501 33.1622C70.4512 33.399 70.3316 33.892 70.3838 34.2578C70.4582 34.777 70.6641 34.9227 71.3224 34.9227C72.3622 34.9227 72.9586 34.1484 72.4896 33.4082C72.0708 32.7477 71.1062 32.6184 70.6501 33.1622ZM70.6501 37.7776C70.4512 38.0144 70.3316 38.5074 70.3838 38.8732C70.4582 39.3924 70.6641 39.5381 71.3224 39.5381C72.3622 39.5381 72.9586 38.7639 72.4896 38.0237C72.0708 37.3631 71.1062 37.2338 70.6501 37.7776ZM38.0254 50.4331C36.5449 51.9037 35.3333 53.3016 35.3333 53.5398C35.3333 54.1084 40.6087 59.2979 41.1868 59.2979C41.7593 59.2979 42.3333 58.7307 42.3333 58.1653C42.3333 57.923 41.3851 56.7807 40.226 55.6269L38.1188 53.5286L40.226 51.4303C42.3342 49.3314 42.6393 48.7542 41.9833 48.1055C41.3 47.4296 40.686 47.7905 38.0254 50.4331ZM47.3725 48.0833C47.1925 48.2612 46.484 50.6509 45.798 53.3933C44.7477 57.593 44.6118 58.4521 44.9362 58.8386C45.3853 59.374 46.1603 59.436 46.6275 58.9739C46.8075 58.7959 47.516 56.4063 48.202 53.6639C49.2522 49.4641 49.3882 48.6051 49.0638 48.2185C48.6147 47.6832 47.8397 47.6211 47.3725 48.0833ZM52.0167 48.1055C51.3607 48.7542 51.6658 49.3314 53.774 51.4303L55.8813 53.5286L53.774 55.6269C52.6149 56.7807 51.6667 57.923 51.6667 58.1653C51.6667 58.7351 52.2421 59.2979 52.8246 59.2979C53.4082 59.2979 58.6667 54.0951 58.6667 53.5173C58.6667 52.9488 53.3913 47.7593 52.8132 47.7593C52.5676 47.7593 52.2092 47.9151 52.0167 48.1055ZM21.8437 67.3979C20.7019 68.0559 21.681 69.9753 22.9188 69.5054C23.6591 69.2245 23.8487 67.9313 23.2163 67.4741C22.5846 67.0171 22.5117 67.0131 21.8437 67.3979ZM21.8437 72.0133C20.7019 72.6713 21.681 74.5908 22.9188 74.1208C23.6591 73.8399 23.8487 72.5467 23.2163 72.0895C22.5846 71.6326 22.5117 71.6285 21.8437 72.0133ZM21.8437 76.6288C20.7019 77.2867 21.681 79.2062 22.9188 78.7363C23.6591 78.4553 23.8487 77.1621 23.2163 76.7049C22.5846 76.248 22.5117 76.2439 21.8437 76.6288Z" fill="#3D3D63"/>
</svg>
