<svg width="18" height="18" viewBox="0 0 18 18" fill="none" xmlns="http://www.w3.org/2000/svg">
<path d="M7.79503 4.20019L4.97586 0.946021C4.65086 0.571021 4.05503 0.572688 3.67753 0.951021L1.3592 3.27352C0.669198 3.96435 0.471697 4.99019 0.870864 5.81269C3.25555 10.7502 7.23757 14.7378 12.1717 17.1294C12.9934 17.5285 14.0184 17.331 14.7084 16.6402L17.0484 14.296C17.4275 13.9169 17.4284 13.3177 17.05 12.9927L13.7834 10.1885C13.4417 9.89519 12.9109 9.93352 12.5684 10.2769L11.4317 11.4152C11.3735 11.4762 11.2969 11.5164 11.2137 11.5296C11.1304 11.5429 11.0451 11.5284 10.9709 11.4885C9.1129 10.4186 7.57169 8.87538 6.5042 7.01602C6.46422 6.94165 6.44974 6.85621 6.46299 6.77282C6.47624 6.68943 6.51647 6.61268 6.57753 6.55435L7.71086 5.42019C8.0542 5.07519 8.0917 4.54185 7.79503 4.19935V4.20019Z" stroke="white" stroke-linecap="round" stroke-linejoin="round"/>
</svg>
