<svg width="77" height="89" viewBox="0 0 77 89" fill="none" xmlns="http://www.w3.org/2000/svg">
<path fill-rule="evenodd" clip-rule="evenodd" d="M6.29624e-05 22.0452L38.1834 3.33809e-06L76.3667 22.0452L76.3667 66.1355L38.1834 88.1806L6.68169e-05 66.1355L6.29624e-05 22.0452Z" fill="#DAF2FF"/>
<path fill-rule="evenodd" clip-rule="evenodd" d="M43.9704 15.2983C43.7758 15.4928 43.6842 16.6225 43.6842 18.8257C43.6842 21.0288 43.7758 22.1585 43.9704 22.353C44.3684 22.7508 50.6316 22.7508 51.0296 22.353C51.4277 21.9552 51.4277 15.6961 51.0296 15.2983C50.6316 14.9006 44.3684 14.9006 43.9704 15.2983ZM49.4079 18.8257V20.7324H47.5H45.5921V18.8257V16.919H47.5H49.4079V18.8257ZM62.0955 18.1583C61.6975 18.5561 61.6975 24.8153 62.0955 25.213C62.262 25.3794 63.0599 25.499 64.0034 25.499H65.6251V26.4524V27.4057H64.4804C63.8508 27.4057 63.2069 27.5344 63.0495 27.6917C62.8599 27.8812 62.7633 28.9098 62.7633 30.7424C62.7633 32.5749 62.8599 33.6036 63.0495 33.7931C63.4442 34.1875 68.7601 34.1875 69.1548 33.7931C69.3122 33.6358 69.4409 32.9923 69.4409 32.363V31.219H72.0166C73.702 31.219 74.6913 31.1201 74.8785 30.933C75.281 30.5307 75.281 22.374 74.8785 21.9717C74.6913 21.7846 73.702 21.6857 72.0166 21.6857H69.4409V20.065C69.4409 19.1222 69.3212 18.3247 69.1548 18.1583C68.7567 17.7606 62.4935 17.7606 62.0955 18.1583ZM67.533 20.7324C67.533 21.6175 67.4853 21.6857 66.8653 21.6857C66.0179 21.6857 65.6251 22.0782 65.6251 22.925C65.6251 23.5447 65.5569 23.5924 64.6712 23.5924H63.7172V21.6857V19.779H65.6251H67.533V20.7324ZM25.8452 21.0184C25.4505 21.4128 25.4505 26.7253 25.8452 27.1197C26.2399 27.5141 31.5558 27.5141 31.9505 27.1197C32.3452 26.7253 32.3452 21.4128 31.9505 21.0184C31.5558 20.6239 26.2399 20.6239 25.8452 21.0184ZM30.3288 24.069V25.499H28.8979H27.467V24.069V22.639H28.8979H30.3288V24.069ZM73.2568 26.4524V29.3124H70.3949H67.533V26.4524V23.5924H70.3949H73.2568V26.4524ZM45.1638 26.7512C45.0273 26.9157 44.88 27.4169 44.8366 27.865C44.7734 28.5147 44.621 28.7249 44.0846 28.9024C43.5354 29.0843 43.3133 29.0328 42.8767 28.6229C42.0548 27.8514 41.5488 28.0056 40.0541 29.4837C38.5648 30.9566 38.3998 31.4905 39.1784 32.3187C39.5886 32.7551 39.6401 32.977 39.4582 33.5259C39.2805 34.0619 39.0701 34.2142 38.42 34.2773C37.1281 34.4025 37.0065 34.6318 37.0065 36.9391C37.0065 39.2464 37.1281 39.4757 38.42 39.6008C39.0701 39.6639 39.2805 39.8162 39.4582 40.3522C39.6401 40.9011 39.5886 41.123 39.1784 41.5594C38.4064 42.3807 38.5607 42.8864 40.0398 44.3801C41.5137 45.8685 42.0479 46.0334 42.8767 45.2553C43.3133 44.8453 43.5354 44.7938 44.0846 44.9757C44.621 45.1532 44.7734 45.3635 44.8366 46.0132C44.9618 47.3025 45.1926 47.4258 47.4814 47.4258C49.785 47.4258 50.1234 47.2554 50.1234 46.0961C50.1234 45.4769 50.2557 45.2838 50.8481 45.0386C51.4949 44.771 51.6313 44.7934 52.1157 45.2479C52.9526 46.0336 53.4832 45.8718 54.9602 44.3801C56.4393 42.8864 56.5936 42.3807 55.8216 41.5594C55.4114 41.123 55.3599 40.9011 55.5418 40.3522C55.7195 39.8162 55.9299 39.6639 56.58 39.6008C57.8719 39.4757 57.9935 39.2464 57.9935 36.9391C57.9935 34.6318 57.8719 34.4025 56.58 34.2773C55.9299 34.2142 55.7195 34.0619 55.5418 33.5259C55.3599 32.977 55.4114 32.7551 55.8216 32.3187C56.6002 31.4905 56.4352 30.9566 54.9458 29.4837C53.4479 28.0023 52.9456 27.8509 52.1157 28.6303C51.6313 29.0848 51.4949 29.1072 50.8481 28.8395C50.2557 28.5943 50.1234 28.4012 50.1234 27.782C50.1234 27.3652 49.9946 26.8957 49.8372 26.7384C49.4389 26.3403 45.496 26.3513 45.1638 26.7512ZM48.428 29.2111C48.9073 30.5357 51.2762 31.4014 52.5531 30.7185C52.9497 30.5064 53.1336 30.5462 53.5152 30.9278C53.897 31.3091 53.9368 31.4929 53.7246 31.8892C53.3427 32.6026 53.4014 33.4208 53.9213 34.6332C54.2788 35.4669 54.569 35.7717 55.233 36.0117C55.9129 36.2574 56.0856 36.4452 56.0856 36.9391C56.0856 37.4329 55.9129 37.6207 55.233 37.8664C53.9075 38.3455 53.0413 40.7128 53.7246 41.9889C53.9368 42.3852 53.897 42.569 53.5152 42.9503C53.1336 43.3319 52.9497 43.3717 52.5531 43.1596C51.8393 42.778 51.0206 42.8366 49.8074 43.3562C48.9731 43.7135 48.6681 44.0035 48.428 44.667C48.1821 45.3465 47.9941 45.5191 47.5 45.5191C47.0058 45.5191 46.8179 45.3465 46.572 44.667C46.0927 43.3424 43.7238 42.4768 42.4469 43.1596C41.7329 43.5416 40.8931 42.7025 41.2754 41.9889C41.6573 41.2755 41.5986 40.4573 41.0787 39.2449C40.7212 38.4113 40.431 38.1064 39.767 37.8664C39.0871 37.6207 38.9144 37.4329 38.9144 36.9391C38.9144 36.4452 39.0871 36.2574 39.767 36.0117C41.0925 35.5327 41.9587 33.1653 41.2754 31.8892C41.0632 31.4929 41.103 31.3091 41.4848 30.9278C41.8664 30.5462 42.0503 30.5064 42.4469 30.7185C43.1607 31.1001 43.9794 31.0415 45.1926 30.5219C46.0269 30.1647 46.3319 29.8746 46.572 29.2111C46.8179 28.5316 47.0058 28.359 47.5 28.359C47.9941 28.359 48.1821 28.5316 48.428 29.2111ZM65.6251 29.9797C65.6251 30.8265 66.0179 31.219 66.8653 31.219C67.374 31.219 67.533 31.3325 67.533 31.6957C67.533 32.1195 67.374 32.1724 66.1021 32.1724H64.6712V30.7424C64.6712 29.4713 64.7241 29.3124 65.1481 29.3124C65.5116 29.3124 65.6251 29.4713 65.6251 29.9797ZM23.9373 30.5517C23.7501 30.7388 23.6511 31.7274 23.6511 33.4117V35.9857H22.0294C21.086 35.9857 20.288 36.1054 20.1215 36.2717C19.7235 36.6695 19.7235 42.9286 20.1215 43.3264C20.3161 43.5209 21.4466 43.6124 23.6511 43.6124C25.8557 43.6124 26.9862 43.5209 27.1808 43.3264C27.3472 43.1601 27.467 42.3626 27.467 41.4197V39.7991H30.0426C31.728 39.7991 32.7173 39.7002 32.9045 39.5131C33.3071 39.1108 33.3071 30.954 32.9045 30.5517C32.7037 30.351 31.3677 30.2657 28.4209 30.2657C25.4742 30.2657 24.1381 30.351 23.9373 30.5517ZM45.5921 31.5306C44.4216 31.8993 42.4252 33.9651 42.0663 35.1792C41.4057 37.4138 41.8714 39.1954 43.5568 40.8797C45.9696 43.2909 49.0304 43.2909 51.4432 40.8797C53.856 38.4685 53.856 35.4097 51.4432 32.9984C49.7649 31.3215 47.8117 30.8315 45.5921 31.5306ZM31.2828 35.0324V37.8924H28.4209H25.5591V35.0324V32.1724H28.4209H31.2828V35.0324ZM49.0094 33.4508C51.4596 34.474 52.057 37.6843 50.1515 39.5889C48.6044 41.1347 46.3956 41.1347 44.8485 39.5889C41.8993 36.6414 45.1535 31.8409 49.0094 33.4508ZM23.6511 38.5597C23.6511 39.4065 24.0439 39.7991 24.8913 39.7991C25.5114 39.7991 25.5591 39.8672 25.5591 40.7524V41.7057H23.6511H21.7432V39.7991V37.8924H22.6972C23.5829 37.8924 23.6511 37.9401 23.6511 38.5597ZM61.1415 43.8984C60.7519 44.2879 60.7519 48.657 61.1415 49.0464C61.5312 49.4359 65.9032 49.4359 66.2929 49.0464C66.6826 48.657 66.6826 44.2879 66.2929 43.8984C66.11 43.7156 65.1799 43.6124 63.7172 43.6124C62.2546 43.6124 61.3245 43.7156 61.1415 43.8984ZM64.6712 46.4724V47.4258H63.7172H62.7633V46.4724V45.5191H63.7172H64.6712V46.4724ZM44.6381 53.1458V56.0058H45.5921H46.546V53.1458V50.2858H45.5921H44.6381V53.1458ZM48.454 53.6224V56.9591H49.4079H50.3619V53.6224V50.2858H49.4079H48.454V53.6224ZM40.8223 56.0058V60.7725H41.7763H42.7302V56.0058V51.2391H41.7763H40.8223V56.0058ZM52.2698 56.4825V60.7725H53.2237H54.1777V56.4825V52.1924H53.2237H52.2698V56.4825ZM44.6381 58.8658V59.8191H45.5921H46.546V58.8658V57.9125H45.5921H44.6381V58.8658ZM24.7632 59.402C24.5817 59.6971 23.1625 62.922 21.6094 66.5685C19.3793 71.8042 18.8387 73.2831 19.0383 73.5994C19.2727 73.9709 21.3369 74 47.5 74C73.6631 74 75.7273 73.9709 75.9617 73.5994C76.1613 73.2831 75.6207 71.8042 73.3906 66.5685C71.8375 62.922 70.4183 59.6971 70.2368 59.402C69.9089 58.8691 69.8707 58.8658 63.9502 58.8658H57.9935V59.8191V60.7725L63.4191 60.7768L68.8447 60.781L71.253 66.4372L73.6612 72.0933L60.5806 72.1548C53.3864 72.1889 41.6136 72.1889 34.4194 72.1548L21.3388 72.0933L23.747 66.4372L26.1553 60.781L31.5809 60.7768L37.0065 60.7725V59.8191V58.8658H31.0498C25.1293 58.8658 25.0911 58.8691 24.7632 59.402ZM48.454 62.6791V66.4925H49.4079H50.3619V62.6791V58.8658H49.4079H48.454V62.6791ZM26.8121 62.0237C26.6823 62.1877 25.8994 64.1303 25.0723 66.3411C23.9276 69.4013 23.6275 70.4534 23.8147 70.7503C24.0399 71.1066 26.0616 71.14 47.5 71.14C68.9384 71.14 70.9601 71.1066 71.1852 70.7503C71.3725 70.4534 71.0724 69.4013 69.9277 66.3411C69.1006 64.1303 68.3177 62.1877 68.1879 62.0237C68.0155 61.8064 66.8617 61.7258 63.9266 61.7258H59.9014V62.6727V63.6198L63.4081 63.6856L66.9151 63.7516L67.8209 66.135C68.3193 67.4458 68.7875 68.7061 68.8614 68.9354C68.989 69.3306 67.8648 69.3525 47.5 69.3525C27.1352 69.3525 26.011 69.3306 26.1386 68.9354C26.2125 68.7061 26.6807 67.4458 27.1791 66.135L28.0849 63.7516L31.5919 63.6856L35.0986 63.6198V62.6727V61.7258H31.0734C28.1383 61.7258 26.9845 61.8064 26.8121 62.0237ZM44.6381 64.1091V66.4925H45.5921H46.546V64.1091V61.7258H45.5921H44.6381V64.1091ZM40.8223 63.6325V64.5858H41.7763H42.7302V63.6325V62.6791H41.7763H40.8223V63.6325ZM52.2698 63.6325V64.5858H53.2237H54.1777V63.6325V62.6791H53.2237H52.2698V63.6325Z" fill="#3D3D63"/>
</svg>
