<svg width="77" height="89" viewBox="0 0 77 89" fill="none" xmlns="http://www.w3.org/2000/svg">
<path fill-rule="evenodd" clip-rule="evenodd" d="M6.29624e-05 22.0452L38.1834 3.33809e-06L76.3667 22.0452L76.3667 66.1355L38.1834 88.1806L6.68169e-05 66.1355L6.29624e-05 22.0452Z" fill="#DAF2FF"/>
<path fill-rule="evenodd" clip-rule="evenodd" d="M15.2819 19.0951C14.9122 19.1465 14.3827 19.453 13.9458 19.8692C13.0557 20.7168 12.928 21.4676 13.0294 25.2566C13.1071 28.1637 13.3124 28.8105 14.3614 29.4502C14.8987 29.778 15.3184 29.8154 18.4745 29.816C22.3936 29.8167 22.7707 29.727 23.4481 28.6302C23.81 28.0446 23.8401 27.7242 23.8394 24.4641C23.8388 21.2914 23.8016 20.8717 23.4737 20.3338C22.8076 19.2406 22.2304 19.078 18.8858 19.0423C17.2407 19.0245 15.619 19.0485 15.2819 19.0951ZM67.4936 19.1424C66.6049 19.3569 66.0992 19.6953 65.7082 20.3366C65.3828 20.8708 65.345 21.297 65.3444 24.4488C65.3437 28.3696 65.4334 28.7469 66.5297 29.4245C67.1151 29.7866 67.4353 29.8167 70.6939 29.816C73.8652 29.8154 74.2847 29.7782 74.8224 29.4502C75.9024 28.7914 76 28.368 76 24.3396V20.7142L75.3924 20.0117C74.9381 19.4861 74.5726 19.2682 73.9435 19.147C72.9392 18.9535 68.2897 18.9501 67.4936 19.1424ZM21.2228 24.4862V27.1982H18.5119H15.8011V24.4862V21.7742H18.5119H21.2228V24.4862ZM73.3827 24.4862V27.1982H70.6718H67.961V24.4862V21.7742H70.6718H73.3827V24.4862ZM26.2705 24.3841V25.7019H27.5878H28.9048L28.8497 24.4394L28.7944 23.1769L27.5324 23.1216L26.2705 23.0664V24.3841ZM31.3182 24.3841V25.7019H32.6355H33.9526L33.8974 24.4394L33.8421 23.1769L32.5802 23.1216L31.3182 23.0664V24.3841ZM36.3037 23.2082C36.2351 23.2766 36.179 23.8658 36.179 24.5174V25.7019H37.4877H38.7963V24.3927V23.0834H37.6124C36.961 23.0834 36.3721 23.1395 36.3037 23.2082ZM41.2267 24.3841V25.7019H42.544H43.8611L43.8059 24.4394L43.7506 23.1769L42.4887 23.1216L41.2267 23.0664V24.3841ZM46.2745 24.3841V25.7019H47.5917H48.9088L48.8537 24.4394L48.7983 23.1769L47.5364 23.1216L46.2745 23.0664V24.3841ZM51.2599 23.2082C51.1913 23.2766 51.1352 23.8658 51.1352 24.5174V25.7019H52.4439H53.7526V24.3927V23.0834H52.5686C51.9173 23.0834 51.3284 23.1395 51.2599 23.2082ZM56.3155 23.2001C56.2426 23.2731 56.183 23.8658 56.183 24.5174V25.7019H57.5002H58.8173L58.7622 24.4394L58.7068 23.1769L57.5775 23.1223C56.9562 23.0922 56.3884 23.1272 56.3155 23.2001ZM61.2307 24.3841V25.7019H62.548H63.8651L63.8099 24.4394L63.7546 23.1769L62.4926 23.1216L61.2307 23.0664V24.3841ZM31.8346 34.1958C28.3655 35.9572 25.358 37.5432 25.151 37.7205C24.7848 38.0342 24.7749 38.2575 24.7749 46.2451C24.7749 53.8233 24.7997 54.4693 25.102 54.7336C25.2821 54.8909 28.3851 56.5228 31.9978 58.3601C37.9614 61.3929 38.6152 61.6831 39.0979 61.5133C40.079 61.1682 40.0992 60.9991 40.1037 53.1028L40.108 45.8084L46.2292 42.6978C52.835 39.3408 53.1031 39.1474 52.5944 38.1103C52.4015 37.7172 50.9821 36.9163 45.8071 34.2809C41.2974 31.9841 39.0895 30.9554 38.7029 30.971C38.3815 30.9837 35.448 32.361 31.8346 34.1958ZM17.2345 31.4378C17.1659 31.5063 17.1098 32.0954 17.1098 32.7471V33.9316H18.4185H19.7271V32.6223V31.313H18.5432C17.8918 31.313 17.3029 31.3692 17.2345 31.4378ZM69.4566 32.6137V33.9316H70.7739H72.091L72.0358 32.6691L71.9805 31.4066L70.7186 31.3512L69.4566 31.296V32.6137ZM43.587 36.1292C46.1946 37.4409 48.3289 38.5573 48.3296 38.6103C48.3304 38.6634 46.1614 39.7895 43.5096 41.1128L38.6881 43.5189L34.4891 41.414C32.1795 40.2562 30.0041 39.1366 29.6549 38.926L29.0198 38.5429L33.7679 36.1537C36.3792 34.8398 38.5901 33.76 38.6808 33.7546C38.7715 33.749 40.9792 34.8175 43.587 36.1292ZM17.1868 36.6191C17.1328 36.7599 17.1143 37.3281 17.1459 37.8816L17.2033 38.888L18.4652 38.9434L19.7271 38.9986V37.6809V36.363H18.5061C17.645 36.363 17.256 36.4386 17.1868 36.6191ZM69.4566 37.6637V38.9815H70.7739H72.091L72.0358 37.719L71.9805 36.4566L70.7186 36.4012L69.4566 36.346V37.6637ZM32.5334 43.3391L37.3942 45.8084L37.4436 51.9338C37.4707 55.3027 37.4499 58.0593 37.3977 58.0593C37.3454 58.0593 35.0728 56.9447 32.3474 55.5827L27.3922 53.1062V46.9791C27.3922 43.609 27.4554 40.856 27.5324 40.8609C27.6094 40.8659 29.86 41.9812 32.5334 43.3391ZM17.1479 42.6755L17.2033 43.938L18.4652 43.9934L19.7271 44.0486V42.7309V41.413H18.4099H17.0928L17.1479 42.6755ZM69.4566 42.7309V44.0486L70.7186 43.9934L71.9805 43.938L72.0358 42.6755L72.091 41.413H70.7739H69.4566V42.7309ZM50.1141 44.9624C46.5192 46.8019 43.4696 48.4553 43.3371 48.6366C43.1495 48.8932 43.0963 50.7379 43.0963 56.9814V64.9967L43.5552 65.4557C43.8076 65.7082 44.1688 65.9148 44.3578 65.9148C44.547 65.9148 46.1023 65.1996 47.8142 64.3254C49.526 63.4512 50.9631 62.7988 51.0076 62.8759C51.0522 62.9527 51.4843 64.3204 51.9679 65.9148C52.4514 67.5093 52.9797 68.9613 53.1418 69.1412C53.4716 69.5073 54.1545 69.5667 54.6965 69.2766C54.8937 69.171 55.2377 68.6598 55.461 68.1406L55.867 67.1964L57.3843 68.7065C59.4836 70.7959 59.4373 70.8027 62.2152 68.0162C64.9943 65.2286 64.9887 65.2669 62.909 63.1985L61.4089 61.7067L62.3911 61.2367C63.5586 60.678 63.9124 60.0191 63.468 59.2305C63.1889 58.7352 62.8088 58.575 59.7818 57.6768L58.4264 57.2747V49.8467C58.4264 42.6299 58.4156 42.4071 58.0452 42.0095C57.8274 41.7755 57.447 41.6038 57.1572 41.609C56.8784 41.6139 53.709 43.1229 50.1141 44.9624ZM55.8091 50.7649C55.8091 54.6176 55.7464 56.376 55.6094 56.376C55.4997 56.376 54.2684 56.0311 52.873 55.6095C50.1012 54.7719 49.6579 54.7852 49.2332 55.7182C49.0548 56.1098 49.1203 56.5174 49.6265 58.1668C49.9604 59.2552 50.2053 60.1717 50.1704 60.2033C50.0535 60.3095 45.908 62.3611 45.8103 62.3611C45.757 62.3611 45.7136 59.604 45.7136 56.234V50.1069L50.6211 47.641C53.3204 46.2846 55.5918 45.1702 55.6689 45.1644C55.7459 45.1584 55.8091 47.6788 55.8091 50.7649ZM17.2345 46.4007C17.1659 46.4692 17.1098 47.0584 17.1098 47.71V48.8945H18.4185H19.7271V47.5852V46.276H18.5432C17.8918 46.276 17.3029 46.3321 17.2345 46.4007ZM69.4566 47.5766V48.8945H70.7739H72.091L72.0358 47.632L71.9805 46.3695L70.7186 46.3141L69.4566 46.259V47.5766ZM17.2345 51.4507C17.1659 51.5192 17.1098 52.1083 17.1098 52.76V53.9445H18.4185H19.7271V52.6352V51.326H18.5432C17.8918 51.326 17.3029 51.3821 17.2345 51.4507ZM69.4566 52.6266V53.9445H70.7739H72.091L72.0358 52.682L71.9805 51.4195L70.7186 51.3641L69.4566 51.309V52.6266ZM17.1479 57.6385L17.2033 58.901L18.4652 58.9563L19.7271 59.0115V57.6938V56.376H18.4099H17.0928L17.1479 57.6385ZM69.4566 57.6938V59.0115L70.7186 58.9563L71.9805 58.901L72.0358 57.6385L72.091 56.376H70.7739H69.4566V57.6938ZM55.2609 59.0777C56.5391 59.4531 57.7317 59.8036 57.9108 59.8571C58.2095 59.9459 58.2131 59.9994 57.9536 60.5012C57.7979 60.8024 57.7203 61.2462 57.7809 61.4877C57.8414 61.7291 58.6418 62.6744 59.5595 63.5883L61.2283 65.2499L60.3507 66.1412L59.4732 67.0326L57.7814 65.3765C55.8943 63.5297 55.4628 63.2997 54.7554 63.7634C54.4944 63.9345 54.2381 64.0314 54.1858 63.979C54.0799 63.8733 52.4536 58.6213 52.4477 58.3666C52.4456 58.2785 52.5548 58.249 52.6903 58.3009C52.8257 58.3529 53.9825 58.7025 55.2609 59.0777ZM17.2345 61.3637C17.1659 61.4321 17.1098 62.0213 17.1098 62.6729V63.8574H18.4185H19.7271V62.5482V61.2389H18.5432C17.8918 61.2389 17.3029 61.295 17.2345 61.3637ZM69.4566 62.5396V63.8574H70.7739H72.091L72.0358 62.5949L71.9805 61.3324L70.7186 61.2771L69.4566 61.2219V62.5396ZM17.2345 66.4137C17.1659 66.4821 17.1098 67.0713 17.1098 67.7229V68.9074H18.4185H19.7271V67.5982V66.2889H18.5432C17.8918 66.2889 17.3029 66.345 17.2345 66.4137ZM69.4566 67.5896V68.9074H70.7739H72.091L72.0358 67.6449L71.9805 66.3824L70.7186 66.3271L69.4566 66.2719V67.5896ZM14.3614 71.7055C13.3124 72.3452 13.1071 72.9919 13.0294 75.899C12.9299 79.6149 13.0514 80.3488 13.917 81.2591L14.6214 82L18.3427 81.9993C23.8429 81.9983 23.8401 82.0009 23.8401 76.6695C23.8401 72.7896 23.7483 72.4076 22.6541 71.7311C22.0687 71.369 21.7485 71.3389 18.4899 71.3397C15.3186 71.3402 14.8991 71.3774 14.3614 71.7055ZM66.5213 71.7055C65.4484 72.3599 65.3437 72.801 65.3437 76.6695C65.3437 80.5379 65.4484 80.979 66.5213 81.6334C67.0586 81.9613 67.4783 81.9987 70.6344 81.9993C74.4423 82 74.8517 81.9138 75.6096 80.9498C75.9755 80.4844 76 80.2224 75.9993 76.7845C75.9983 71.3383 75.9983 71.3385 70.6344 71.3397C67.4783 71.3402 67.0586 71.3776 66.5213 71.7055ZM21.2228 76.6695V79.3815H18.5119H15.8011V76.6695V73.9574H18.5119H21.2228V76.6695ZM73.3827 76.6695V79.3815H70.6718H67.961V76.6695V73.9574H70.6718H73.3827V76.6695ZM26.2705 76.7716V78.0892L27.5324 78.0341L28.7944 77.9787L28.8497 76.7162L28.9048 75.4537H27.5878H26.2705V76.7716ZM31.3182 76.7716V78.0892L32.5802 78.0341L33.8421 77.9787L33.8974 76.7162L33.9526 75.4537H32.6355H31.3182V76.7716ZM36.2171 76.7162L36.2725 77.9787L37.5344 78.0341L38.7963 78.0892V76.7716V75.4537H37.4791H36.162L36.2171 76.7162ZM41.2267 76.7716V78.0892L42.4887 78.0341L43.7506 77.9787L43.8059 76.7162L43.8611 75.4537H42.544H41.2267V76.7716ZM46.2745 76.7716V78.0892L47.5364 78.0341L48.7983 77.9787L48.8537 76.7162L48.9088 75.4537H47.5917H46.2745V76.7716ZM51.1734 76.7162L51.2287 77.9787L52.4907 78.0341L53.7526 78.0892V76.7716V75.4537H52.4353H51.1182L51.1734 76.7162ZM56.2211 76.7162L56.2765 77.9787H57.4916H58.7068L58.7622 76.7162L58.8173 75.4537H57.4916H56.166L56.2211 76.7162ZM61.2307 76.7716V78.0892L62.4926 78.0341L63.7546 77.9787L63.8099 76.7162L63.8651 75.4537H62.548H61.2307V76.7716Z" fill="#3D3D63"/>
</svg>
