<svg width="24" height="18" viewBox="0 0 24 18" fill="none" xmlns="http://www.w3.org/2000/svg">
<path d="M5.26829 6.75196C8.16496 6.75196 10.5132 9.10021 10.5132 11.9968C10.5132 14.8935 8.16496 17.2417 5.26829 17.2417C2.37162 17.2417 0.0234146 14.8935 0.0234146 11.9968L0 11.2476C0 5.45423 4.69641 0.757812 10.4898 0.757812V3.75489C8.48841 3.75489 6.60681 4.53427 5.19163 5.94945C4.91923 6.2219 4.67061 6.51177 4.44635 6.81626C4.71416 6.77411 4.98863 6.75196 5.26829 6.75196ZM18.7551 6.75196C21.6517 6.75196 24 9.10021 24 11.9968C24 14.8935 21.6517 17.2417 18.7551 17.2417C15.8585 17.2417 13.5102 14.8935 13.5102 11.9968L13.4868 11.2476C13.4868 5.45423 18.1832 0.757812 23.9766 0.757812V3.75489C21.9753 3.75489 20.0936 4.53427 18.6785 5.94945C18.406 6.2219 18.1574 6.51177 17.9331 6.81626C18.2009 6.77411 18.4754 6.75196 18.7551 6.75196Z" fill="#113E75"/>
</svg>
