<svg width="80" height="89" viewBox="0 0 80 89" fill="none" xmlns="http://www.w3.org/2000/svg">
<path fill-rule="evenodd" clip-rule="evenodd" d="M1.92725e-06 22.0452L38.1833 3.33809e-06L76.3666 22.0452L76.3666 66.1355L38.1833 88.1806L5.78175e-06 66.1355L1.92725e-06 22.0452Z" fill="#DAF2FF"/>
<path fill-rule="evenodd" clip-rule="evenodd" d="M31.4645 21.295C31.2608 21.499 31.1935 24.4211 31.1935 33.0557V44.545H27.8331C25.2436 44.545 24.4134 44.6169 24.213 44.8587C24.0215 45.0898 23.9696 48.9742 24.0159 59.6161L24.0789 74.0598L24.6148 74.9231C24.9096 75.3981 25.563 76.0596 26.0664 76.3932L26.9821 77H47.4554H67.9288L68.8444 76.3932C70.3448 75.399 70.8001 74.424 70.907 71.9761L70.9989 69.8757H75.218C78.1984 69.8757 79.5168 69.7961 79.7083 69.6043C80.0972 69.2149 80.0972 52.4432 79.7083 52.0537C79.5168 51.8619 78.1926 51.7823 75.1911 51.7823H70.9449V36.6744C70.9449 25.2253 70.8792 21.5006 70.6739 21.295C70.2811 20.9017 31.8573 20.9017 31.4645 21.295ZM69.138 37.3076V51.7823H68.5056C68.1578 51.7823 67.7513 51.9045 67.6022 52.0537C67.4531 52.203 67.3312 52.6101 67.3312 52.9584C67.3312 53.5711 67.293 53.5917 66.151 53.5917C64.9969 53.5917 64.9373 53.5582 63.4407 52.0712L61.9105 50.5506V47.8016C61.9105 44.5432 61.8473 44.438 59.981 44.5929C58.6549 44.7031 57.871 45.1394 57.0685 46.2143C56.6563 46.7664 56.5944 47.2239 56.5303 50.1998L56.4578 53.5616L52.751 53.6333L49.0439 53.7048L48.3062 54.4441L47.5684 55.1834V61.7337V68.284L48.3065 69.0233L49.0444 69.7626L55.1232 69.8296L61.202 69.8963L63.0192 68.9815C64.4871 68.2423 65.0764 68.0664 66.084 68.0664C67.2993 68.0664 67.3312 68.0824 67.3312 68.6997C67.3312 69.5098 67.7038 69.8757 68.5289 69.8757H69.1843L69.1048 71.7939C69.0292 73.6116 68.9865 73.7507 68.2868 74.4513L67.5484 75.1907L49.838 75.2513L32.1276 75.3119L32.5075 74.5728C32.8558 73.8952 32.8924 71.7127 32.9468 48.3333L33.006 22.8329H51.0721H69.138V37.3076ZM49.1261 25.7496C47.0649 27.1274 44.454 27.9961 41.8089 28.1843C40.5095 28.2765 39.682 28.4412 39.5169 28.6404C39.1621 29.0686 39.4098 31.9619 39.9973 34.2544C40.8978 37.7686 42.7657 40.9566 45.453 43.5666C47.5372 45.591 50.6757 48.1551 51.0692 48.1551C51.4602 48.1551 54.5883 45.6064 56.6753 43.5874C60.2143 40.1637 62.3552 35.6154 62.7423 30.6986C62.912 28.5464 62.7342 28.2609 61.2252 28.2609C59.7632 28.2609 57.0961 27.7292 55.6126 27.1419C54.9438 26.877 53.6955 26.2064 52.8388 25.6514C51.9819 25.0964 51.1571 24.6502 51.0057 24.6597C50.8542 24.6692 50.0083 25.1597 49.1261 25.7496ZM52.4677 27.5698C54.1985 28.6533 57.4161 29.7523 59.4825 29.9656C61.2505 30.1481 61.1848 29.971 60.5786 32.9118C59.9202 36.1062 58.3419 39.2016 56.1587 41.5797C54.9691 42.8759 51.4057 45.902 51.0692 45.902C50.7327 45.902 47.1693 42.8759 45.9797 41.5797C43.7965 39.2016 42.2182 36.1062 41.5598 32.9118C40.9538 29.9712 40.8879 30.1483 42.6559 29.9647C44.7487 29.7471 48.0007 28.6357 49.6147 27.5861C50.3525 27.1061 50.9759 26.7054 50.9996 26.6956C51.0236 26.6857 51.6842 27.0792 52.4677 27.5698ZM49.6011 29.9737C48.1631 30.9709 46.4126 31.6277 44.7216 31.8048C43.9903 31.8812 43.2736 32.0868 43.1288 32.2614C42.554 32.9548 43.9277 36.585 45.5916 38.7705C46.6057 40.1024 50.5574 43.6403 51.0308 43.6403C51.2126 43.6403 51.827 43.2588 52.3959 42.7922C56.0108 39.8287 57.5995 37.762 58.6841 34.6131C59.4694 32.3329 59.3529 32.061 57.49 31.8251C55.6207 31.5883 54.2462 31.0855 52.6568 30.0569C51.8995 29.5666 51.1562 29.1713 51.0051 29.178C50.854 29.1848 50.2222 29.5429 49.6011 29.9737ZM52.3406 32.002C53.5306 32.7205 54.6936 33.1516 56.5418 33.5594L57.1584 33.6953L56.694 34.8747C56.0216 36.5832 54.4896 38.6169 52.7643 40.092C51.9363 40.7997 51.1735 41.3786 51.0692 41.3786C50.9649 41.3786 50.2021 40.7997 49.3741 40.092C47.6488 38.6169 46.1168 36.5832 45.4444 34.8747L44.98 33.6953L45.5966 33.5594C47.7441 33.0858 49.707 32.2351 50.9854 31.2242C51.0014 31.2115 51.6113 31.5614 52.3406 32.002ZM31.1422 60.0332L31.0805 73.712L30.3422 74.4513C29.7066 75.0875 29.4476 75.1907 28.4832 75.1907C27.5187 75.1907 27.2597 75.0875 26.6241 74.4513L25.8858 73.712L25.8241 60.0332L25.7627 46.3543H28.4832H31.2036L31.1422 60.0332ZM60.1036 48.7813V51.2083L62.1883 53.3047L64.273 55.401H65.8021H67.3312V60.829V66.2571H65.8581C64.5894 66.2571 64.1355 66.3826 62.5881 67.1617L60.7911 68.0664H55.2978C49.3879 68.0664 49.2623 68.042 49.2623 66.8903V66.2571H52.8761H56.4899V65.3524V64.4477H52.8761H49.2623V63.543V62.6384H52.8761H56.4899V61.7337V60.829H52.8761H49.2623V59.9244V59.0197H52.8761H56.4899V58.115V57.2104H52.8761H49.2623V56.5771C49.2623 55.461 49.4922 55.401 53.7795 55.401C56.5703 55.401 57.8355 55.32 58.0257 55.1296C58.2143 54.9408 58.2967 53.7351 58.2967 51.1615C58.2967 47.5379 58.3078 47.4535 58.8512 46.9096C59.9279 45.8312 60.1036 46.0938 60.1036 48.7813ZM44.1805 47.4852L43.5313 48.1637H39.4403C36.5595 48.1637 35.2691 48.244 35.0783 48.4351C34.697 48.8168 34.697 56.5572 35.0783 56.939C35.4595 57.3207 43.1894 57.3207 43.5706 56.939C43.7558 56.7535 43.8417 55.6579 43.8417 53.4813V50.2953L44.971 49.1814C46.2152 47.9542 46.295 47.7317 45.6872 47.181C45.1187 46.6658 44.9276 46.7044 44.1805 47.4852ZM40.515 51.1502L39.3394 52.3274L38.7571 51.7799C38.14 51.1993 37.6971 51.2832 37.1982 52.075C37.0076 52.3778 37.1562 52.6488 37.9643 53.4734C38.5156 54.0361 39.1203 54.4963 39.308 54.4963C39.4954 54.4963 40.1859 53.9655 40.842 53.3167L42.0348 52.137V53.769V55.401H39.3245H36.6141V52.687V49.973H39.1524H41.6906L40.515 51.1502ZM78.1725 60.829V68.0664H73.6552H69.138V60.829V53.5917H73.6552H78.1725V60.829ZM44.1805 58.3412L43.5313 59.0197H39.4403C36.5595 59.0197 35.2691 59.1 35.0783 59.2911C34.697 59.6729 34.697 67.4132 35.0783 67.795C35.4595 68.1768 43.1894 68.1768 43.5706 67.795C43.7558 67.6095 43.8417 66.514 43.8417 64.3373V61.1513L44.971 60.0374C46.2152 58.8103 46.295 58.5877 45.6872 58.037C45.1187 57.5218 44.9276 57.5605 44.1805 58.3412ZM40.515 62.0062L39.3394 63.1834L38.7571 62.6359C38.14 62.0553 37.6971 62.1392 37.1982 62.931C37.0076 63.2339 37.1562 63.5048 37.9643 64.3294C38.5156 64.8921 39.1203 65.3524 39.308 65.3524C39.4954 65.3524 40.1859 64.8216 40.842 64.1727L42.0348 62.993V64.625V66.2571H39.3245H36.6141V63.543V60.829H39.1524H41.6906L40.515 62.0062Z" fill="#3D3D63"/>
</svg>
