<svg width="75" height="75" viewBox="0 0 75 75" fill="none" xmlns="http://www.w3.org/2000/svg">
<circle cx="37.7127" cy="37.3265" r="36.4945" stroke="#CDCDCD" stroke-width="0.5" stroke-dasharray="3 3"/>
<g filter="url(#filter0_d_4_1227)">
<circle cx="37.7136" cy="37.3278" r="28.5329" fill="#DAF2FF"/>
</g>
<path fill-rule="evenodd" clip-rule="evenodd" d="M29.1991 25.1264C29.1118 25.2138 29.0829 26.4662 29.0829 30.1667V35.0907H27.6428C26.533 35.0907 26.1772 35.1215 26.0913 35.2251C26.0092 35.3242 25.987 36.989 26.0068 41.5498L26.0338 47.7399L26.2635 48.1099C26.3898 48.3135 26.6699 48.597 26.8856 48.7399L27.278 49H36.0523H44.8266L45.219 48.7399C45.8621 48.3138 46.0572 47.896 46.103 46.8469L46.1424 45.9467H47.9506C49.2279 45.9467 49.7929 45.9126 49.875 45.8304C50.0417 45.6635 50.0417 38.4757 49.875 38.3087C49.7929 38.2265 49.2254 38.1924 47.939 38.1924H46.1193V31.7176C46.1193 26.8108 46.0911 25.2145 46.0031 25.1264C45.8348 24.9579 29.3674 24.9579 29.1991 25.1264ZM45.3449 31.989V38.1924H45.0738C44.9248 38.1924 44.7505 38.2448 44.6867 38.3087C44.6228 38.3727 44.5705 38.5472 44.5705 38.6965C44.5705 38.959 44.5541 38.9679 44.0647 38.9679C43.5701 38.9679 43.5445 38.9535 42.9032 38.3162L42.2474 37.6646V36.4864C42.2474 35.0899 42.2203 35.0449 41.4204 35.1113C40.8521 35.1585 40.5161 35.3454 40.1722 35.8061C39.9956 36.0427 39.969 36.2388 39.9415 37.5142L39.9105 38.955L38.3218 38.9857L36.7331 39.0163L36.417 39.3332L36.1007 39.65V42.4573V45.2646L36.4171 45.5814L36.7333 45.8983L39.3385 45.927L41.9437 45.9556L42.7225 45.5635C43.3516 45.2467 43.6042 45.1713 44.036 45.1713C44.5568 45.1713 44.5705 45.1782 44.5705 45.4427C44.5705 45.7899 44.7302 45.9467 45.0838 45.9467H45.3647L45.3306 46.7688C45.2982 47.5478 45.2799 47.6074 44.98 47.9077L44.6636 48.2246L37.0734 48.2505L29.4833 48.2765L29.6461 47.9598C29.7953 47.6694 29.811 46.734 29.8344 36.7143L29.8597 25.7855H37.6023H45.3449V31.989ZM36.7683 27.0355C35.885 27.626 34.766 27.9983 33.6324 28.079C33.0755 28.1185 32.7209 28.1891 32.6501 28.2745C32.498 28.458 32.6042 29.698 32.856 30.6804C33.2419 32.1865 34.0424 33.5528 35.1941 34.6714C36.0874 35.539 37.4325 36.6379 37.6011 36.6379C37.7686 36.6379 39.1093 35.5456 40.0037 34.6803C41.5204 33.213 42.438 31.2638 42.6039 29.1565C42.6766 28.2342 42.6004 28.1118 41.9537 28.1118C41.3271 28.1118 40.184 27.8839 39.5483 27.6322C39.2616 27.5187 38.7266 27.2313 38.3595 26.9935C37.9922 26.7556 37.6387 26.5644 37.5739 26.5684C37.5089 26.5725 37.1464 26.7827 36.7683 27.0355ZM38.2005 27.8156C38.9422 28.28 40.3212 28.751 41.2068 28.8424C41.9645 28.9206 41.9363 28.8447 41.6765 30.1051C41.3944 31.4741 40.718 32.8007 39.7823 33.8199C39.2725 34.3754 37.7453 35.6723 37.6011 35.6723C37.4569 35.6723 35.9297 34.3754 35.4199 33.8199C34.4842 32.8007 33.8078 31.4741 33.5256 30.1051C33.2659 28.8448 33.2377 28.9207 33.9954 28.842C34.8923 28.7487 36.286 28.2724 36.9777 27.8226C37.2939 27.6169 37.5611 27.4452 37.5713 27.441C37.5815 27.4367 37.8647 27.6054 38.2005 27.8156ZM36.9719 28.8459C36.3556 29.2732 35.6054 29.5547 34.8807 29.6306C34.5673 29.6634 34.2601 29.7515 34.1981 29.8263C33.9517 30.1235 34.5405 31.6793 35.2536 32.6159C35.6882 33.1867 37.3817 34.703 37.5846 34.703C37.6626 34.703 37.9258 34.5395 38.1697 34.3395C39.7189 33.0695 40.3998 32.1837 40.8646 30.8342C41.2012 29.8569 41.1512 29.7404 40.3528 29.6393C39.5517 29.5378 38.9626 29.3224 38.2815 28.8815C37.9569 28.6714 37.6384 28.502 37.5736 28.5049C37.5088 28.5078 37.2381 28.6612 36.9719 28.8459ZM38.146 29.7151C38.656 30.0231 39.1544 30.2078 39.9465 30.3826L40.2107 30.4408L40.0117 30.9463C39.7236 31.6785 39.067 32.5501 38.3276 33.1823C37.9727 33.4856 37.6458 33.7337 37.6011 33.7337C37.5564 33.7337 37.2295 33.4856 36.8746 33.1823C36.1352 32.5501 35.4786 31.6785 35.1904 30.9463L34.9914 30.4408L35.2557 30.3826C36.176 30.1796 37.0173 29.8151 37.5652 29.3818C37.572 29.3764 37.8334 29.5263 38.146 29.7151ZM29.0609 41.7285L29.0345 47.5908L28.7181 47.9077C28.4457 48.1804 28.3347 48.2246 27.9214 48.2246C27.508 48.2246 27.397 48.1804 27.1246 47.9077L26.8082 47.5908L26.7818 41.7285L26.7554 35.8661H27.9214H29.0873L29.0609 41.7285ZM41.473 36.9063V37.9464L42.3664 38.8449L43.2599 39.7433H43.9152H44.5705V42.0696V44.3959H43.9392C43.3955 44.3959 43.2009 44.4497 42.5378 44.7836L41.7676 45.1713H39.4133C36.8805 45.1713 36.8267 45.1608 36.8267 44.6673V44.3959H38.3755H39.9242V44.0082V43.6204H38.3755H36.8267V43.2327V42.845H38.3755H39.9242V42.4573V42.0696H38.3755H36.8267V41.6819V41.2942H38.3755H39.9242V40.9064V40.5187H38.3755H36.8267V40.2473C36.8267 39.769 36.9252 39.7433 38.7627 39.7433C39.9587 39.7433 40.5009 39.7086 40.5824 39.627C40.6633 39.546 40.6986 39.0293 40.6986 37.9264C40.6986 36.3734 40.7033 36.3372 40.9362 36.1041C41.3977 35.6419 41.473 35.7545 41.473 36.9063ZM34.6488 36.3508L34.3706 36.6416H32.6173C31.3826 36.6416 30.8296 36.676 30.7478 36.7579C30.5844 36.9215 30.5844 40.2388 30.7478 40.4024C30.9112 40.566 34.224 40.566 34.3874 40.4024C34.4668 40.3229 34.5036 39.8534 34.5036 38.9206V37.5551L34.9876 37.0777C35.5208 36.5518 35.555 36.4564 35.2945 36.2204C35.0509 35.9996 34.969 36.0162 34.6488 36.3508ZM33.0778 37.9215L32.574 38.426L32.3245 38.1914C32.06 37.9425 31.8702 37.9785 31.6564 38.3179C31.5747 38.4476 31.6384 38.5638 31.9847 38.9172C32.221 39.1583 32.4801 39.3556 32.5606 39.3556C32.6409 39.3556 32.9368 39.1281 33.218 38.85L33.7292 38.3444V39.0439V39.7433H32.5676H31.4061V38.5801V37.417H32.4939H33.5817L33.0778 37.9215ZM49.2168 42.0696V45.1713H47.2808H45.3449V42.0696V38.9679H47.2808H49.2168V42.0696ZM34.6488 41.0034L34.3706 41.2942H32.6173C31.3826 41.2942 30.8296 41.3286 30.7478 41.4105C30.5844 41.5741 30.5844 44.8914 30.7478 45.055C30.9112 45.2186 34.224 45.2186 34.3874 45.055C34.4668 44.9755 34.5036 44.506 34.5036 43.5731V42.2077L34.9876 41.7303C35.5208 41.2044 35.555 41.109 35.2945 40.873C35.0509 40.6522 34.969 40.6688 34.6488 41.0034ZM33.0778 42.5741L32.574 43.0786L32.3245 42.844C32.06 42.5951 31.8702 42.6311 31.6564 42.9704C31.5747 43.1002 31.6384 43.2164 31.9847 43.5698C32.221 43.8109 32.4801 44.0082 32.5606 44.0082C32.6409 44.0082 32.9368 43.7807 33.218 43.5026L33.7292 42.997V43.6964V44.3959H32.5676H31.4061V43.2327V42.0696H32.4939H33.5817L33.0778 42.5741Z" fill="#3D3D63"/>
<defs>
<filter id="filter0_d_4_1227" x="4.18066" y="6.79492" width="67.0658" height="67.0657" filterUnits="userSpaceOnUse" color-interpolation-filters="sRGB">
<feFlood flood-opacity="0" result="BackgroundImageFix"/>
<feColorMatrix in="SourceAlpha" type="matrix" values="0 0 0 0 0 0 0 0 0 0 0 0 0 0 0 0 0 0 127 0" result="hardAlpha"/>
<feMorphology radius="1" operator="dilate" in="SourceAlpha" result="effect1_dropShadow_4_1227"/>
<feOffset dy="3"/>
<feGaussianBlur stdDeviation="2"/>
<feComposite in2="hardAlpha" operator="out"/>
<feColorMatrix type="matrix" values="0 0 0 0 0 0 0 0 0 0 0 0 0 0 0 0 0 0 0.07 0"/>
<feBlend mode="normal" in2="BackgroundImageFix" result="effect1_dropShadow_4_1227"/>
<feBlend mode="normal" in="SourceGraphic" in2="effect1_dropShadow_4_1227" result="shape"/>
</filter>
</defs>
</svg>
