<svg width="65" height="69" viewBox="0 0 65 69" fill="none" xmlns="http://www.w3.org/2000/svg">
<path fill-rule="evenodd" clip-rule="evenodd" d="M0.848253 1.16687C0.528266 1.47197 0.492737 4.78954 0.492737 34.4652C0.492737 64.1409 0.528266 67.4585 0.848253 67.7636C1.16756 68.0678 3.95942 68.1023 28.1954 68.1023C54.0571 68.1023 55.2026 68.0857 55.5615 67.708C55.9003 67.3513 55.9361 66.1995 55.9361 55.6331V43.9526H54.6914H53.4468V54.9494V65.9461H28.2144H2.98203V34.4652V2.98435H23.8016H44.6211V6.83213C44.6211 10.286 44.6634 10.7164 45.035 11.0368C45.3871 11.3406 46.0443 11.3936 49.4478 11.3936H53.4468V15.5983V19.8029H54.6914H55.9361V13.7799V7.75694L52.2956 4.29253L48.6551 0.828125H24.9297C3.66251 0.828125 1.16711 0.863271 0.848253 1.16687ZM50.4454 5.83833C52.096 7.40806 53.4468 8.815 53.4468 8.96485C53.4468 9.17142 52.6808 9.2374 50.2786 9.2374H47.1104V6.11088C47.1104 4.39129 47.1853 2.98435 47.2772 2.98435C47.3688 2.98435 48.7945 4.2686 50.4454 5.83833ZM26.0646 5.07395C22.6873 5.61257 19.1737 7.79187 17.135 10.6122C14.9474 13.6387 14.3524 18.0143 15.6342 21.6491C17.001 25.5247 20.0305 28.3868 24.2259 29.766C26.201 30.4152 30.0488 30.4549 31.9483 29.8453C34.1197 29.1486 35.7312 28.2549 37.2385 26.9111C39.0883 25.2625 39.9951 23.9157 40.8086 21.609C41.3443 20.0899 41.4529 19.4223 41.4529 17.6467C41.4529 15.871 41.3443 15.2035 40.8086 13.6844C40.0906 11.6487 39.1709 10.1523 37.9428 9.02178L37.1229 8.2671L36.3313 9.08797L35.5395 9.90863L36.3204 10.7321C39.4189 14.0001 39.9639 18.8994 37.6649 22.8216C36.3804 25.0134 33.6454 27.0463 31.1477 27.6662C25.9944 28.9451 20.7775 26.7252 18.4557 22.2655C15.5362 16.6583 18.3251 10.0928 24.5936 7.81559C25.8199 7.37011 29.3941 7.24289 31.1864 7.58099L32.1217 7.75737L32.4772 6.76335L32.8325 5.76911L32.2208 5.54724C30.7324 5.0071 27.865 4.78674 26.0646 5.07395ZM29.4611 16.4588L25.5079 20.2303L24.2003 18.9976L22.893 17.7648L22.0505 18.5676L21.208 19.3706L23.122 21.2038C24.2709 22.3043 25.22 23.0372 25.4959 23.0372C25.7923 23.0372 27.6007 21.4682 30.5853 18.6219L35.2152 14.2064L34.4426 13.447C34.0176 13.0291 33.6125 12.6874 33.5422 12.6874C33.472 12.6874 31.6354 14.3845 29.4611 16.4588ZM58.3122 20.0013C57.706 20.2723 53.7611 23.8872 46.3659 30.9489L35.3247 41.4917L34.5417 44.4798C33.6417 47.9149 33.5965 48.4895 34.1871 48.9988C34.5933 49.349 34.7984 49.324 38.1836 48.5115L41.7521 47.6551L52.8195 37.1249C58.9067 31.3335 64.0837 26.2349 64.3243 25.795C65.1777 24.2344 64.7468 21.9565 63.3664 20.7296C62.0796 19.586 59.9336 19.2768 58.3122 20.0013ZM61.7633 22.7185C62.6178 23.6556 62.4548 24.5949 61.2195 25.8533L60.1663 26.926L58.7358 25.5747C57.949 24.8312 57.3027 24.121 57.2995 23.9959C57.2932 23.7376 58.5367 22.5724 59.2174 22.1989C59.9067 21.8207 61.1819 22.081 61.7633 22.7185ZM51.4705 35.1626C47.6427 38.8111 44.4591 41.7955 44.3962 41.7947C44.2504 41.7923 42.1241 39.8709 41.6955 39.3543C41.3988 38.9963 41.9424 38.4215 48.3679 32.2967L55.3633 25.6288L56.8967 27.0787L58.4301 28.5285L51.4705 35.1626ZM11.2422 37.2681L8.5336 39.8556L9.37883 40.6607L10.2238 41.4661L12.9394 38.8853C14.4328 37.466 15.6548 36.2001 15.6548 36.0723C15.6548 35.7887 14.4708 34.6809 14.168 34.6809C14.0483 34.6809 12.7317 35.8452 11.2422 37.2681ZM5.29028 36.6646C5.10019 36.8457 5.01872 38.0323 5.01872 40.6202C5.01872 43.9278 5.0624 44.3545 5.43262 44.6739C5.78135 44.9747 6.41589 45.0307 9.47094 45.0307C13.7987 45.0307 13.8444 45.0085 13.8444 42.9114V41.5808H12.7129C11.6568 41.5808 11.5814 41.6168 11.5814 42.1198C11.5814 42.6569 11.5739 42.6589 9.43156 42.6589H7.28172V40.6105C7.28172 38.5692 7.28375 38.5621 7.84746 38.5621C8.37542 38.5621 8.41321 38.4903 8.41321 37.4839V36.4058H6.98753C6.18032 36.4058 5.44394 36.5182 5.29028 36.6646ZM17.0567 40.6644L17.1257 41.6886L24.8765 41.7453L32.6272 41.802V40.7211V39.6402H24.8075H16.9877L17.0567 40.6644ZM53.4468 40.7183V41.7964H54.6914H55.9361V40.7183V39.6402H54.6914H53.4468V40.7183ZM41.9732 44.2135C41.6405 44.5443 41.2959 44.8151 41.2072 44.8151C41.0408 44.8151 39.0942 43.0369 38.5332 42.3723C38.2526 42.04 38.2908 41.9217 38.8625 41.3533L39.5092 40.7101L41.0438 42.1608L42.5783 43.6117L41.9732 44.2135ZM37.7133 46.2882C37.1351 46.4463 36.6314 46.5433 36.5934 46.5039C36.5556 46.4644 36.6377 45.9728 36.7764 45.4115L37.0283 44.3905L37.8962 45.1959L38.764 46.001L37.7133 46.2882ZM11.5814 52.355C10.0256 53.871 8.7805 55.2271 8.81444 55.3687C8.89749 55.7146 10 56.6743 10.3144 56.6743C10.4524 56.6743 11.8817 55.4117 13.4907 53.8682L16.4163 51.0621L15.6516 50.3105C15.2312 49.8971 14.7797 49.5679 14.6487 49.5788C14.5174 49.5896 13.1372 50.8389 11.5814 52.355ZM5.41475 52.0152C5.06489 52.2683 5.01872 52.7297 5.01872 55.982C5.01872 59.0401 5.07892 59.7196 5.37424 60.0012C5.66798 60.2808 6.36068 60.3399 9.34941 60.3399C11.4117 60.3399 13.1574 60.244 13.4067 60.1167C13.7702 59.9313 13.8444 59.657 13.8444 58.4996V57.1056H12.7129C11.7323 57.1056 11.5814 57.1632 11.5814 57.5368C11.5814 57.9379 11.4305 57.9681 9.43156 57.9681H7.28172V56.0275C7.28172 54.1013 7.28602 54.0869 7.84746 54.0869C8.38244 54.0869 8.41321 54.0222 8.41321 52.9009V51.715L7.11199 51.7219C6.39055 51.7256 5.63426 51.8565 5.41475 52.0152ZM17.0126 56.0275V57.1056H25.9514H34.8902V56.0275V54.9494H25.9514H17.0126V56.0275Z" fill="#022959"/>
</svg>
