<svg width="75" height="75" viewBox="0 0 75 75" fill="none" xmlns="http://www.w3.org/2000/svg">
<circle cx="37.7127" cy="37.3265" r="36.4945" stroke="#CDCDCD" stroke-width="0.5" stroke-dasharray="3 3"/>
<g filter="url(#filter0_d_4_1225)">
<circle cx="37.7136" cy="37.3278" r="28.5329" fill="#DAF2FF"/>
</g>
<path d="M37.2988 45.4258C36.8635 45.4258 36.4531 45.4258 36.0436 45.4258C34.5201 45.4258 32.9966 45.4307 31.4731 45.4248C29.4895 45.4168 28.1399 44.0841 28.118 42.0975C28.1021 40.5909 28.1041 39.0833 28.121 37.5767C28.125 37.197 28.0624 37.0162 27.6261 36.9148C26.041 36.5461 24.9746 35.0892 25.0005 33.4375C25.0253 31.8494 26.196 30.469 27.8259 30.1082C27.9034 30.0913 27.9819 30.0804 28.0823 30.0635C28.1051 29.7306 28.1131 29.4195 28.1498 29.1104C28.3516 27.3991 29.6515 26.2453 31.3668 26.2095C31.659 26.2035 31.9462 26.0515 32.2384 25.976C32.6955 25.8577 33.1497 25.7096 33.6148 25.649C33.894 25.6122 34.0809 25.5705 34.2568 25.3121C35.4573 23.555 37.9686 23.565 39.1622 25.328C39.3252 25.5675 39.4862 25.6559 39.7595 25.6391C40.3379 25.6033 40.8656 25.7484 41.3486 26.0883C41.4937 26.1906 41.7173 26.2135 41.9061 26.2155C44.1511 26.2403 45.6716 28.058 45.2622 30.2613C45.2383 30.3914 45.0396 30.4898 44.9223 30.6031C44.8021 30.4769 44.6013 30.3646 44.5765 30.2215C44.5109 29.8329 44.5546 29.4274 44.494 29.0379C44.3032 27.8185 43.3909 27.0363 42.0959 26.9827C42.1079 27.1119 42.1079 27.2371 42.1327 27.3583C42.398 28.6423 41.4857 29.8886 40.1739 29.9114C37.8732 29.9512 35.5706 29.9502 33.2689 29.9144C31.9084 29.8935 31.0199 28.6632 31.2853 27.2848C31.3032 27.1934 31.3241 27.1029 31.3439 27.0065C29.7668 26.939 28.7252 28.2418 28.9071 30.0545C29.8324 30.2185 30.6403 30.62 31.2366 31.3872C32.8148 33.4176 31.7653 36.3881 29.2569 36.9436C28.9429 37.0132 28.8624 37.1265 28.8654 37.4276C28.8783 39.0177 28.8664 40.6068 28.8733 42.1969C28.8793 43.5892 29.9079 44.6744 31.2982 44.6953C33.2689 44.7251 35.2397 44.7082 37.2104 44.6953C37.3396 44.6943 37.5433 44.589 37.584 44.4826C38.5083 42.0886 41.9886 41.4128 43.7248 43.8675C43.7417 43.8913 43.7804 43.8983 43.8321 43.9251C44.3906 43.4073 44.5546 42.7365 44.5546 42.0071C44.5576 38.7285 44.5556 35.4489 44.5566 32.1704C44.5566 32.0213 44.5168 31.8513 44.5755 31.7291C44.6411 31.593 44.7981 31.4111 44.9134 31.4121C45.0346 31.4131 45.1867 31.59 45.2622 31.7251C45.3188 31.8265 45.2781 31.9835 45.2781 32.1167C45.2781 35.3953 45.2662 38.6748 45.2861 41.9534C45.292 42.9482 45.0257 43.8009 44.333 44.5283C44.2286 44.6387 44.1998 44.8881 44.2336 45.0531C44.6182 46.9175 43.537 48.7053 41.7103 49.1923C39.5389 49.7727 37.3773 48.1557 37.3227 45.9117C37.3207 45.7656 37.3088 45.6215 37.2988 45.4258ZM36.635 29.2038C37.7272 29.2038 38.8203 29.2088 39.9125 29.2019C40.8139 29.1959 41.4271 28.6125 41.4231 27.7827C41.4191 26.9608 40.8358 26.4182 39.9414 26.4043C39.7267 26.4013 39.4961 26.451 39.2994 26.3904C39.0887 26.3248 38.8283 26.2025 38.7319 26.0266C38.2827 25.2137 37.6188 24.7476 36.6986 24.7526C35.7823 24.7575 35.1144 25.2157 34.6742 26.0386C34.5818 26.2125 34.3114 26.3238 34.0998 26.3914C33.9199 26.449 33.7062 26.4023 33.5074 26.4043C32.6061 26.4152 31.9651 26.9936 31.9661 27.7956C31.967 28.6026 32.611 29.1979 33.5055 29.2028C34.549 29.2088 35.5915 29.2038 36.635 29.2038ZM28.4808 36.2768C30.0023 36.2807 31.2426 35.0633 31.2525 33.5567C31.2624 32.059 30.0122 30.7999 28.5116 30.7949C26.9881 30.79 25.7627 32.0014 25.7518 33.5259C25.7399 35.0514 26.9513 36.2718 28.4808 36.2768ZM38.0809 45.8412C38.0949 47.3577 39.3431 48.594 40.8427 48.5781C42.3414 48.5622 43.5876 47.2961 43.5777 45.8004C43.5678 44.2948 42.3116 43.0635 40.802 43.0764C39.2735 43.0903 38.067 44.3167 38.0809 45.8412Z" fill="#3D3D63"/>
<path d="M38.1365 40.0463C38.0978 41.056 37.5124 42.0975 36.3248 42.7395C35.1422 43.3795 33.9486 43.3249 32.7909 42.6282C32.7203 42.5855 32.6179 42.5537 32.5901 42.4901C32.5136 42.3152 32.3754 42.0856 32.4331 41.9514C32.5464 41.6861 32.8008 41.7328 33.0174 41.8868C33.7499 42.4056 34.5479 42.5636 35.4165 42.3201C36.8814 41.9107 37.7341 40.3415 37.2918 38.8786C36.8565 37.4405 35.3052 36.6157 33.8622 37.0529C32.4102 37.4932 31.5903 39.0266 32.0326 40.4746C32.0515 40.5382 32.0912 40.6038 32.0833 40.6644C32.0564 40.8821 32.0813 41.2299 31.963 41.2905C31.6211 41.4674 31.48 41.1643 31.3757 40.8871C30.8937 39.607 31.2485 38.0845 32.2472 37.1474C33.2888 36.1704 34.7765 35.9101 36.0694 36.4775C37.3445 37.041 38.1485 38.2932 38.1365 40.0463Z" fill="#3D3D63"/>
<path d="M34.6245 40.9486C34.9644 40.9486 35.2337 40.9019 35.4762 40.9645C35.6452 41.0082 35.7744 41.201 35.9214 41.3273C35.7763 41.4564 35.6412 41.6791 35.4842 41.696C35.0091 41.7456 34.5251 41.7327 34.0451 41.7119C33.5284 41.689 33.3763 41.371 33.6725 40.9476C33.9944 40.4865 34.3353 40.0393 34.6623 39.5811C34.7676 39.4341 34.8541 39.2731 34.9465 39.117C35.0976 38.8616 35.0697 38.6201 34.8104 38.475C34.5361 38.321 34.2817 38.4035 34.1574 38.7016C34.0441 38.9739 33.8712 39.1508 33.5949 39.0047C33.2879 38.8407 33.3952 38.5525 33.5144 38.3081C33.7848 37.7505 34.4576 37.5051 35.032 37.7446C35.6581 38.005 35.9532 38.6609 35.668 39.3009C35.4881 39.7034 35.2099 40.0631 34.9724 40.4388C34.8789 40.5889 34.7746 40.731 34.6245 40.9486Z" fill="#3D3D63"/>
<path d="M36.6767 32.9781C35.7664 32.9781 34.8551 32.9761 33.9448 32.9791C33.6735 32.9801 33.418 32.9383 33.4151 32.6074C33.4121 32.2784 33.6685 32.2168 33.9378 32.2168C35.7426 32.2158 37.5473 32.2148 39.3531 32.2178C39.6283 32.2178 39.9553 32.2516 39.8857 32.6153C39.8569 32.7644 39.5478 32.9542 39.36 32.9612C38.4656 32.9989 37.5712 32.9781 36.6767 32.9781Z" fill="#3D3D63"/>
<path d="M41.2572 38.356C41.9668 38.356 42.6764 38.357 43.3859 38.355C43.6572 38.354 43.9067 38.4106 43.9037 38.7396C43.9007 39.0695 43.6453 39.1222 43.378 39.1222C41.9429 39.1232 40.5069 39.1361 39.0718 39.1053C38.8909 39.1013 38.716 38.8628 38.5381 38.7336C38.718 38.6074 38.8929 38.3838 39.0798 38.3729C39.8043 38.3311 40.5317 38.356 41.2572 38.356Z" fill="#3D3D63"/>
<path d="M35.6858 34.8658C35.0906 34.8658 34.4933 34.8926 33.901 34.8489C33.729 34.836 33.572 34.6203 33.407 34.4981C33.5641 34.3659 33.7191 34.1234 33.8801 34.1194C35.0866 34.0867 36.295 34.0867 37.5015 34.1185C37.6715 34.1224 37.8345 34.351 38.0014 34.4762C37.8255 34.6064 37.6566 34.833 37.4707 34.8479C36.8794 34.8966 36.2811 34.8658 35.6858 34.8658Z" fill="#3D3D63"/>
<path d="M47.9088 44.5096C48.5856 44.5096 49.2633 44.4858 49.9372 44.5265C50.1091 44.5365 50.2691 44.7501 50.435 44.8694C50.2741 44.9926 50.115 45.2192 49.9521 45.2232C48.5826 45.252 47.2131 45.2401 45.8437 45.2391C45.5982 45.2391 45.3587 45.2043 45.3607 44.8823C45.3637 44.5384 45.6091 44.5066 45.8794 44.5086C46.5552 44.5126 47.232 44.5096 47.9088 44.5096Z" fill="#3D3D63"/>
<path d="M40.2704 40.2427C40.6838 40.2427 41.1022 40.206 41.5086 40.2606C41.6826 40.2835 41.8306 40.4972 41.9906 40.6244C41.8296 40.7516 41.6736 40.9821 41.5076 40.9901C40.6828 41.0279 39.853 41.0288 39.0281 40.9901C38.8591 40.9821 38.7011 40.7496 38.5381 40.6204C38.7021 40.4952 38.8542 40.2845 39.0321 40.2606C39.4385 40.205 39.8569 40.2427 40.2704 40.2427Z" fill="#3D3D63"/>
<path d="M46.902 47.1203C46.5224 47.1203 46.1378 47.1571 45.7651 47.1034C45.615 47.0816 45.4918 46.8649 45.3566 46.7377C45.4908 46.6244 45.621 46.4197 45.7591 46.4137C46.5333 46.3819 47.3105 46.3819 48.0856 46.4137C48.2277 46.4197 48.3619 46.6205 48.5 46.7318C48.3629 46.861 48.2387 47.0816 48.0866 47.1025C47.699 47.1551 47.2985 47.1193 46.902 47.1203Z" fill="#3D3D63"/>
<path d="M38.1257 26.9616C38.1297 27.7706 37.4896 28.4156 36.6906 28.4086C35.9254 28.4016 35.2725 27.7497 35.2635 26.9835C35.2546 26.2073 35.9383 25.5256 36.7184 25.5335C37.4956 25.5415 38.1227 26.1785 38.1257 26.9616ZM36.7155 26.3037C36.316 26.2987 36.0178 26.582 36.0297 26.9755C36.0417 27.383 36.2663 27.6136 36.6707 27.6424C37.0563 27.6702 37.3833 27.3701 37.3982 26.9954C37.4131 26.6277 37.0971 26.3087 36.7155 26.3037Z" fill="#3D3D63"/>
<path d="M28.2085 32.3256C28.0296 32.3047 27.8776 32.3266 27.7802 32.264C27.6709 32.1934 27.5486 32.0453 27.5496 31.932C27.5506 31.8188 27.6858 31.623 27.7812 31.6101C28.0893 31.5703 28.4123 31.5614 28.7144 31.622C28.8227 31.6438 28.9549 31.8943 28.9579 32.0424C28.9797 33.0511 28.9867 34.0618 28.9519 35.0705C28.9459 35.2365 28.7144 35.3945 28.5872 35.5565C28.4609 35.3915 28.2354 35.2325 28.2264 35.0615C28.1857 34.3361 28.2085 33.6066 28.2075 32.8782C28.2085 32.6983 28.2085 32.5204 28.2085 32.3256Z" fill="#3D3D63"/>
<path d="M41.7689 45.8251C41.8564 46.0676 41.9667 46.2763 42.0064 46.4979C42.1267 47.1707 41.6914 47.7829 41.0474 47.8843C40.3885 47.9876 39.7594 47.5673 39.672 46.9084C39.6491 46.7345 39.828 46.5347 39.9145 46.3469C40.0735 46.4711 40.2434 46.5844 40.3885 46.7235C40.5088 46.8398 40.6022 47.1012 40.7006 47.0972C40.8924 47.0902 41.0782 46.9432 41.267 46.8537C41.1647 46.6589 41.0862 46.4453 40.953 46.2743C40.8288 46.1143 40.6459 46.001 40.4889 45.8669C40.6469 45.7357 40.8168 45.6164 40.959 45.4703C41.0872 45.3382 41.272 45.1762 41.271 45.0291C41.27 44.887 41.0832 44.6624 40.9411 44.6296C40.796 44.5968 40.6052 44.7478 40.4412 44.8303C40.4084 44.8462 40.4163 44.9426 40.3835 44.9595C40.2136 45.045 40.0357 45.1175 39.8608 45.1941C39.8101 45.0062 39.6829 44.7995 39.7237 44.6355C39.8777 44.0204 40.6121 43.6845 41.2303 43.9061C41.9011 44.1466 42.2151 44.8581 41.9379 45.516C41.8862 45.6343 41.8126 45.7456 41.7689 45.8251Z" fill="#3D3D63"/>
<defs>
<filter id="filter0_d_4_1225" x="4.18066" y="6.79492" width="67.0658" height="67.0657" filterUnits="userSpaceOnUse" color-interpolation-filters="sRGB">
<feFlood flood-opacity="0" result="BackgroundImageFix"/>
<feColorMatrix in="SourceAlpha" type="matrix" values="0 0 0 0 0 0 0 0 0 0 0 0 0 0 0 0 0 0 127 0" result="hardAlpha"/>
<feMorphology radius="1" operator="dilate" in="SourceAlpha" result="effect1_dropShadow_4_1225"/>
<feOffset dy="3"/>
<feGaussianBlur stdDeviation="2"/>
<feComposite in2="hardAlpha" operator="out"/>
<feColorMatrix type="matrix" values="0 0 0 0 0 0 0 0 0 0 0 0 0 0 0 0 0 0 0.07 0"/>
<feBlend mode="normal" in2="BackgroundImageFix" result="effect1_dropShadow_4_1225"/>
<feBlend mode="normal" in="SourceGraphic" in2="effect1_dropShadow_4_1225" result="shape"/>
</filter>
</defs>
</svg>
