<svg width="82" height="89" viewBox="0 0 82 89" fill="none" xmlns="http://www.w3.org/2000/svg">
<path fill-rule="evenodd" clip-rule="evenodd" d="M0.786219 22.0452L38.9361 3.33809e-06L77.0861 22.0452L77.0861 66.1355L38.9361 88.1806L0.786223 66.1355L0.786219 22.0452Z" fill="#DAF2FF"/>
<g clip-path="url(#clip0_22_2)">
<path d="M27.5338 35.9259C27.9939 35.9188 28.3351 36.1487 28.497 36.5693C28.6694 37.0094 28.6022 37.4531 28.2299 37.7846C27.5476 38.3941 26.848 38.9803 26.1707 39.5969C24.6061 41.0243 23.1896 42.5997 21.8369 44.2409C21.5164 44.6312 21.5457 44.8593 21.8473 45.2353C25.6262 49.9577 30.1823 53.6447 35.5311 56.2821C35.7051 56.3677 35.8826 56.4461 36.0497 56.5441C36.5977 56.8684 36.789 57.4119 36.5495 57.943C36.2962 58.5043 35.7378 58.7289 35.1433 58.4509C33.6201 57.7398 32.1467 56.9254 30.7234 56.0184C26.4051 53.2634 22.6761 49.8294 19.5606 45.6844C18.942 44.8593 18.9437 44.5991 19.5813 43.758C21.6681 41.0012 24.0409 38.5366 26.6808 36.3465C27.1082 35.9919 27.2253 35.9366 27.5321 35.9277L27.5338 35.9259Z" fill="#3D3D63"/>
<path d="M70.6069 29.0657C69.8073 29.0479 69.2904 28.0999 69.7884 27.4334C70.6896 26.227 71.658 25.0704 72.6299 23.921C72.9918 23.4933 73.6414 23.4915 74.0222 23.8622C74.4341 24.2614 74.5478 24.78 74.198 25.2344C73.2657 26.4462 72.2853 27.617 71.3117 28.7949C71.1376 29.0052 70.8671 29.0461 70.6069 29.0657Z" fill="#3D3D63"/>
<path d="M81.1341 57.4026C81.1323 57.775 80.9617 58.0976 80.6274 58.3078C80.2656 58.5342 79.8675 58.552 79.5401 58.2758C78.3959 57.3099 77.2517 56.3405 76.1506 55.3247C75.7353 54.9416 75.7508 54.4105 76.1093 53.9436C76.4539 53.4946 77.0294 53.3823 77.4826 53.7565C78.6199 54.6974 79.7262 55.6758 80.8342 56.6523C81.0341 56.827 81.1254 57.0872 81.1341 57.4026Z" fill="#3D3D63"/>
<path d="M30.5227 27.9615C30.5158 28.432 30.3366 28.7741 29.9558 28.9648C29.5526 29.1662 29.1149 29.143 28.8237 28.7991C27.8346 27.6318 26.8593 26.4503 25.9322 25.2296C25.5893 24.7788 25.7047 24.2335 26.1493 23.8664C26.5887 23.5029 27.116 23.4939 27.4882 23.927C28.4722 25.0693 29.4027 26.2597 30.3556 27.4322C30.4883 27.5962 30.4917 27.8011 30.5245 27.9615H30.5227Z" fill="#3D3D63"/>
<path d="M26.7654 64.3297C25.9658 64.3173 25.4368 63.3728 25.9331 62.7099C26.8481 61.4856 27.8269 60.3112 28.8246 59.1565C29.1985 58.7235 29.7172 58.7448 30.1532 59.1262C30.5908 59.5093 30.6908 60.0422 30.3479 60.4912C29.4191 61.7048 28.4351 62.8738 27.4616 64.05C27.291 64.2549 27.0376 64.3404 26.7654 64.3315V64.3297Z" fill="#3D3D63"/>
<path d="M42.5894 17.6678C43.0098 17.7052 43.3596 17.9511 43.5078 18.4537C43.9111 19.8258 44.3212 21.1962 44.702 22.5737C44.864 23.1582 44.5469 23.7089 44.0127 23.8835C43.5165 24.0457 42.934 23.7909 42.7634 23.2402C42.3275 21.8324 41.9122 20.4175 41.5451 18.9901C41.3608 18.279 41.8519 17.6731 42.5894 17.666V17.6678Z" fill="#3D3D63"/>
<path d="M34.9042 19.7928C35.1558 19.8 35.4573 20.0102 35.6572 20.3934C36.2983 21.6176 36.9531 22.8365 37.5803 24.0679C37.8939 24.6845 37.7406 25.269 37.2339 25.5666C36.7084 25.8785 36.107 25.6931 35.771 25.073C35.1144 23.8576 34.4648 22.637 33.8444 21.4002C33.4516 20.6161 33.9289 19.7857 34.9042 19.791V19.7928Z" fill="#3D3D63"/>
<path d="M66.4294 20.7885C66.4329 21.1021 66.3243 21.3178 66.2123 21.5334C65.6092 22.6792 65.013 23.8269 64.4029 24.9692C64.0342 25.6624 63.4879 25.8851 62.9314 25.5947C62.361 25.2953 62.2266 24.6573 62.6022 23.9356C63.2208 22.7487 63.8481 21.5673 64.4753 20.384C64.7355 19.8939 65.1474 19.6908 65.6591 19.8262C66.1434 19.9545 66.3949 20.3287 66.4294 20.7885Z" fill="#3D3D63"/>
<path d="M74.3769 63.1856C74.3459 63.6846 74.1788 64.0231 73.7928 64.2192C73.3792 64.4295 72.9588 64.3938 72.6675 64.0481C71.6784 62.8773 70.6979 61.6976 69.7726 60.4751C69.4314 60.026 69.552 59.4861 69.9983 59.1136C70.4464 58.7394 70.9599 58.743 71.3321 59.1778C72.3143 60.3236 73.2534 61.5105 74.1943 62.6938C74.308 62.8381 74.3339 63.0573 74.3787 63.1838L74.3769 63.1856Z" fill="#3D3D63"/>
<path d="M58.6257 18.7845C58.6016 18.9092 58.5843 19.0874 58.5344 19.2549C58.1708 20.5059 57.8072 21.7587 57.4315 23.0061C57.2196 23.7082 56.7009 24.0557 56.146 23.8971C55.5395 23.7243 55.2603 23.1415 55.4654 22.4127C55.8376 21.094 56.215 19.777 56.6165 18.469C56.7991 17.8756 57.2954 17.5602 57.7951 17.6885C58.3086 17.8204 58.6033 18.1679 58.6257 18.7845Z" fill="#3D3D63"/>
<path d="M77.0476 34.3498C76.5238 34.3676 76.2032 34.1698 76.012 33.7849C75.8069 33.3732 75.819 32.9188 76.1515 32.6176C77.2768 31.5983 78.4175 30.595 79.5979 29.6416C80.0029 29.3137 80.5077 29.4207 80.8662 29.843C81.2211 30.2618 81.2883 30.7839 80.9075 31.1653C79.803 32.2737 78.6019 33.2716 77.3802 34.2393C77.2716 34.3266 77.101 34.3319 77.0493 34.348L77.0476 34.3498Z" fill="#3D3D63"/>
<path d="M49.0311 20.1703C49.0311 19.5056 49.0208 18.8409 49.0345 18.1762C49.0466 17.4545 49.4638 16.9947 50.0706 17C50.6775 17.0054 51.0861 17.4669 51.0912 18.1958C51.1016 19.5252 51.1016 20.8546 51.0912 22.184C51.0861 22.9164 50.6861 23.3797 50.0844 23.394C49.4569 23.4082 49.0414 22.9307 49.0311 22.1644C49.0225 21.4997 49.0294 20.835 49.0311 20.1703Z" fill="#3D3D63"/>
<path d="M20.1776 58.1719C19.7468 58.1291 19.4073 57.9776 19.2178 57.5749C19.023 57.1561 19.0161 56.7053 19.3608 56.413C20.4688 55.4757 21.5957 54.5615 22.752 53.6901C23.1862 53.3622 23.6687 53.5243 24.0116 53.9449C24.3597 54.3726 24.4045 54.9036 24.0134 55.2672C22.9174 56.2847 21.737 57.1989 20.5222 58.0632C20.4223 58.1345 20.2792 58.1416 20.1776 58.1719Z" fill="#3D3D63"/>
<path d="M19.1048 30.8629C19.1307 29.9986 19.9923 29.4729 20.6385 29.9451C21.7758 30.7773 22.8734 31.6701 23.9487 32.5897C24.3812 32.9603 24.3847 33.5021 24.0314 33.9672C23.6782 34.4341 23.1647 34.5517 22.7149 34.2185C21.5828 33.3773 20.4937 32.4756 19.3978 31.5828C19.1703 31.3975 19.0859 31.1106 19.1031 30.8629H19.1048Z" fill="#3D3D63"/>
<path fill-rule="evenodd" clip-rule="evenodd" d="M36.352 32.7948C37.2602 32.3909 38.1716 31.9855 39.2021 31.7048L39.2055 31.7066C39.148 31.9872 39.0142 32.0987 38.8951 32.198C38.8644 32.2236 38.8347 32.2484 38.8075 32.2751C31.7528 39.2357 31.8079 50.4982 38.9729 57.3056C39.5794 57.8812 39.8327 58.4229 39.7638 59.2302C39.7363 59.5545 39.6725 59.6489 39.3468 59.7006C38.0699 59.9055 37.1825 60.6558 36.7965 61.9371C36.1675 64.0274 37.665 66.0589 39.8362 66.0625C44.6956 66.069 49.555 66.0679 54.4144 66.0668C56.2375 66.0664 58.0606 66.066 59.8837 66.066C59.941 66.066 59.999 66.0642 60.0572 66.0624C60.2156 66.0575 60.3752 66.0526 60.5264 66.0839C61.0778 66.1961 61.4035 66.5579 61.3983 67.1477C61.3932 67.7073 61.0727 68.053 60.5557 68.1742C60.4028 68.2101 60.2403 68.2053 60.0783 68.2006C60.023 68.199 59.9677 68.1974 59.913 68.1974H40.2532C40.2013 68.1974 40.1492 68.1964 40.0971 68.1955C39.9557 68.1931 39.814 68.1906 39.6742 68.2063C39.1659 68.2633 38.835 68.5645 38.7437 69.0741C38.6524 69.5873 38.8419 70.0471 39.3279 70.2004C39.7391 70.3309 39.7499 70.5716 39.7651 70.912L39.7655 70.9221C40.0085 76.409 44.5095 80.9157 49.8117 80.9959C55.4965 81.0815 60.0543 76.6745 60.3662 70.7777C60.3817 70.4677 60.4282 70.3554 60.7711 70.2948C63.1612 69.876 64.1916 67.415 62.8837 65.2909C62.751 65.077 62.72 64.963 62.8648 64.7242C64.1951 62.5323 63.1784 60.1443 60.7384 59.6774C60.7043 59.6709 60.6681 59.6722 60.632 59.6736C60.5308 59.6773 60.4298 59.681 60.3765 59.5117C60.2094 58.9825 60.4678 57.9863 60.8745 57.6014C65.5443 53.1891 67.3485 47.7663 66.2129 41.3189C66.0716 40.5241 65.5977 40.1374 65.0015 40.2533C64.3639 40.378 64.071 40.9376 64.2089 41.7359C65.1445 47.1747 63.7677 51.8882 59.8354 55.6358C58.736 56.6818 58.0502 57.6477 58.3173 59.1874C58.3948 59.6418 58.1674 59.681 57.809 59.6739C56.7785 59.6525 55.7463 59.6472 54.7159 59.6757C54.3092 59.6864 54.1748 59.5901 54.1799 59.1393C54.2041 57.0062 54.2023 54.8731 54.1817 52.74C54.1765 52.298 54.2971 52.0361 54.6676 51.783C57.7435 49.682 59.0634 45.66 57.8986 42.062C57.74 41.5755 57.5264 41.1603 56.9715 41.0819C56.4563 41.0106 56.1375 41.2815 55.8514 41.6932C55.3414 42.4238 54.6228 42.7392 53.7664 42.545C52.9186 42.3525 52.3568 41.784 52.1759 40.9001C51.995 40.0145 52.2931 39.2714 53.003 38.7439C53.4011 38.4463 53.6561 38.113 53.5889 37.582C53.5148 37.0028 53.1098 36.7712 52.6377 36.625C49.5997 35.6877 46.8358 36.2401 44.4871 38.4499C40.5013 42.1993 41.0407 48.7571 45.5451 51.8472C45.8277 52.0414 45.95 52.2196 45.9466 52.5796C45.9276 54.7572 45.9207 56.9349 45.95 59.1125C45.9569 59.6044 45.8018 59.6988 45.3728 59.6739C45.0166 59.6531 44.6593 59.6576 44.3019 59.662C44.0144 59.6656 43.7267 59.6692 43.4394 59.6596C43.2735 59.654 43.0908 59.6759 42.9085 59.6978C42.5094 59.7456 42.1129 59.7932 41.9023 59.5509C41.6904 59.3086 41.7448 58.7885 41.7937 58.3208C41.8048 58.2142 41.8157 58.1103 41.823 58.013C41.8764 57.2966 41.6042 56.8208 41.0769 56.3629C36.7982 52.6527 34.9958 47.9196 35.8763 42.2082C37.1946 33.6562 45.5055 28.0909 53.6268 30.2739C57.6763 31.3627 60.7091 33.8433 62.7562 37.6176C63.1422 38.3287 63.6764 38.5425 64.2347 38.2414C64.8189 37.9259 64.9395 37.3076 64.5569 36.5769C64.1382 35.775 63.654 35.0177 63.1181 34.2941C62.4633 33.4067 61.7051 32.6155 60.8952 31.8385C61.1985 31.7334 61.4261 31.8319 61.6417 31.9252C61.682 31.9427 61.722 31.96 61.7619 31.9757C68.3497 34.5561 73.8776 38.6619 78.3372 44.3056C78.5836 44.6175 78.6164 44.8099 78.351 45.1414C75.4268 48.8088 72.0183 51.8917 68.0791 54.3456C66.8109 55.1368 65.5012 55.8407 64.164 56.4965C63.3697 56.885 63.2318 57.8081 63.859 58.3302C64.3191 58.7116 64.7672 58.5601 65.2393 58.3302C71.3497 55.3524 76.4813 51.1112 80.6256 45.594C81.146 44.899 81.1477 44.5604 80.6308 43.8761C77.8444 40.1909 74.6031 37.0028 70.8483 34.3886C65.5753 30.7176 59.7923 28.4651 53.4545 27.8271C48.3849 27.3175 43.4307 27.959 38.5955 29.602C35.6713 30.5964 32.9125 31.9561 30.3174 33.6687C29.6849 34.0856 29.5023 34.6185 29.7883 35.1745C30.0968 35.7768 30.7275 35.9194 31.3892 35.4917C32.9555 34.4795 34.5788 33.5813 36.2744 32.8293C36.3002 32.8178 36.3261 32.8063 36.352 32.7948ZM56.2512 44.1942C54.4012 45.0629 52.7389 44.9253 51.3401 43.5233C49.8772 42.0567 49.7238 40.2836 50.5613 38.3625C50.5232 38.3592 50.4892 38.3558 50.4581 38.3527C50.3906 38.346 50.3364 38.3406 50.2821 38.3394C47.4751 38.2396 44.8955 40.1731 44.139 42.9424C43.3429 45.8578 44.5388 48.8872 47.1028 50.3235C47.7525 50.6871 48.023 51.1362 48.0127 51.9024C47.9931 53.275 47.9947 54.6475 47.9962 56.02C47.9973 57.0675 47.9985 58.115 47.9903 59.1624C47.9868 59.5634 48.0678 59.6935 48.4779 59.6792C49.5067 59.6454 50.5389 59.6436 51.5693 59.6792C52.0122 59.6953 52.1414 59.5866 52.1363 59.1072C52.1243 58.001 52.1256 56.8944 52.1269 55.7876C52.1284 54.4963 52.1299 53.2047 52.1104 51.9131C52.0983 51.1504 52.362 50.7031 53.0065 50.3253C55.2722 49.0032 56.2889 46.9345 56.2512 44.1942ZM43.0516 70.334H50.0736L50.0753 70.3322C50.7432 70.3322 51.4111 70.3331 52.0791 70.3339C53.9879 70.3363 55.8972 70.3387 57.8055 70.3215C58.238 70.318 58.3311 70.4427 58.3104 70.8722C58.2172 72.7763 57.4459 74.5568 56.2492 75.9518C54.8116 77.629 52.7593 78.7495 50.5313 78.8585C46.2905 79.0652 42.534 75.9431 41.9257 71.709C41.8588 71.2417 41.9238 70.8938 42.1207 70.6652C42.309 70.4444 42.6193 70.334 43.0516 70.334ZM40.2015 61.7999H50.0529H59.9043C59.9574 61.7999 60.0107 61.7984 60.0642 61.7969C60.2054 61.793 60.3471 61.7891 60.4833 61.8123C61.0399 61.9068 61.3639 62.2543 61.3983 62.8406C61.4311 63.3912 61.0244 63.8528 60.4678 63.9223C60.3432 63.9379 60.2176 63.9354 60.0918 63.933C60.0454 63.9321 59.999 63.9312 59.9526 63.9312H40.1843C40.132 63.9312 40.0794 63.9329 40.0268 63.9346C39.8849 63.9391 39.7427 63.9437 39.607 63.9151C39.0556 63.8011 38.723 63.4464 38.7282 62.8566C38.7334 62.2685 39.0677 61.9175 39.6225 61.8141C39.7592 61.7882 39.9013 61.7924 40.043 61.7967C40.096 61.7983 40.1489 61.7999 40.2015 61.7999ZM39.2899 31.6692L39.3313 31.7512V31.753L39.2899 31.7975C39.2859 31.788 39.2813 31.7787 39.2767 31.7694C39.2675 31.7508 39.2584 31.7322 39.2538 31.712C39.2525 31.7029 39.2648 31.6921 39.2769 31.6813C39.2815 31.6772 39.2861 31.6731 39.2899 31.6692Z" fill="#3D3D63"/>
<path d="M39.3305 31.7517L39.2892 31.7963C39.2754 31.7678 39.2582 31.741 39.253 31.7107C39.2513 31.7 39.2771 31.6822 39.2892 31.668L39.3305 31.7499V31.7517Z" fill="#3D3D63"/>
</g>
<defs>
<clipPath id="clip0_22_2">
<rect width="62.081" height="64" fill="white" transform="translate(19.0837 17)"/>
</clipPath>
</defs>
</svg>
