<svg width="91" height="89" viewBox="0 0 91 89" fill="none" xmlns="http://www.w3.org/2000/svg">
<path fill-rule="evenodd" clip-rule="evenodd" d="M1.92725e-06 22.0452L38.1833 3.33809e-06L76.3666 22.0452L76.3666 66.1355L38.1833 88.1806L5.78175e-06 66.1355L1.92725e-06 22.0452Z" fill="#DAF2FF"/>
<g clip-path="url(#clip0_1_51)">
<path d="M20.9065 28.157C21.6705 28.157 22.2898 27.5377 22.2898 26.7737C22.2898 26.0097 21.6705 25.3903 20.9065 25.3903C20.1425 25.3903 19.5232 26.0097 19.5232 26.7737C19.5232 27.5377 20.1425 28.157 20.9065 28.157Z" fill="#3D3D63"/>
<path d="M30.1333 28.157C30.8973 28.157 31.5167 27.5377 31.5167 26.7737C31.5167 26.0097 30.8973 25.3903 30.1333 25.3903C29.3693 25.3903 28.75 26.0097 28.75 26.7737C28.75 27.5377 29.3693 28.157 30.1333 28.157Z" fill="#3D3D63"/>
<path d="M25.5268 28.157C26.2908 28.157 26.9102 27.5377 26.9102 26.7737C26.9102 26.0097 26.2908 25.3903 25.5268 25.3903C24.7628 25.3903 24.1435 26.0097 24.1435 26.7737C24.1435 27.5377 24.7628 28.157 25.5268 28.157Z" fill="#3D3D63"/>
<path d="M35.6667 46.8458L39.8167 42.6958C40.0772 42.4354 40.2235 42.0821 40.2235 41.7137C40.2235 41.3453 40.0772 40.992 39.8167 40.7315C39.5562 40.471 39.2029 40.3247 38.8345 40.3247C38.4661 40.3247 38.1128 40.471 37.8523 40.7315L32.7063 45.8913C32.4487 46.1505 32.3041 46.5011 32.3041 46.8666C32.3041 47.232 32.4487 47.5827 32.7063 47.8418L37.8523 53.0017C37.9809 53.1313 38.1339 53.2342 38.3025 53.3045C38.4711 53.3747 38.6519 53.4109 38.8345 53.4109C39.0171 53.4109 39.1979 53.3747 39.3665 53.3045C39.5351 53.2342 39.6881 53.1313 39.8167 53.0017C40.0743 52.7425 40.2189 52.3919 40.2189 52.0264C40.2189 51.661 40.0743 51.3104 39.8167 51.0512L35.6667 46.8458Z" fill="#3D3D63"/>
<path d="M55.476 52.9732C55.7352 53.2308 56.0858 53.3754 56.4513 53.3754C56.8167 53.3754 57.1673 53.2308 57.4265 52.9732L62.5863 47.8825C62.844 47.6233 62.9886 47.2727 62.9886 46.9073C62.9886 46.5418 62.844 46.1912 62.5863 45.932L57.4265 40.7722C57.166 40.5135 56.8134 40.369 56.4464 40.3702C56.0793 40.3715 55.7277 40.5186 55.4691 40.7791C55.2104 41.0396 55.0659 41.3922 55.0671 41.7592C55.0684 42.1263 55.2155 42.4779 55.476 42.7365L59.626 46.8865L55.476 51.0365C55.2225 51.2951 55.0806 51.6428 55.0806 52.0048C55.0806 52.3669 55.2225 52.7146 55.476 52.9732V52.9732Z" fill="#3D3D63"/>
<path d="M50.8833 41.1746C50.7255 41.0832 50.551 41.0238 50.3701 41.0001C50.1892 40.9763 50.0054 40.9886 49.8292 41.0361C49.6531 41.0837 49.4881 41.1657 49.3437 41.2773C49.1994 41.3889 49.0785 41.528 48.9882 41.6865L43.8837 50.6505C43.7836 50.8079 43.7164 50.984 43.6861 51.1681C43.6558 51.3522 43.6631 51.5405 43.7075 51.7217C43.7519 51.9029 43.8324 52.0733 43.9444 52.2225C44.0563 52.3718 44.1973 52.4969 44.3588 52.5902C44.5203 52.6836 44.6991 52.7433 44.8843 52.7658C45.0695 52.7883 45.2573 52.7731 45.4365 52.7211C45.6157 52.6692 45.7825 52.5815 45.9269 52.4634C46.0713 52.3452 46.1904 52.1991 46.2768 52.0338L51.4367 43.1113C51.5332 42.9492 51.5955 42.7691 51.6199 42.582C51.6442 42.3949 51.6301 42.2049 51.5782 42.0235C51.5264 41.8421 51.438 41.6732 51.3185 41.5272C51.199 41.3812 51.0509 41.2613 50.8833 41.1746V41.1746Z" fill="#3D3D63"/>
<path d="M85.273 60.3326C85.1914 60.332 85.1119 60.3065 85.0452 60.2596C84.9785 60.2126 84.9276 60.1464 84.8995 60.0698C84.349 58.6218 83.569 57.2719 82.5893 56.072C82.5429 56.0049 82.5181 55.9253 82.5181 55.8437C82.5181 55.7622 82.5429 55.6825 82.5893 55.6155C83.0106 54.8852 83.1249 54.0176 82.907 53.2032C82.6892 52.3888 82.157 51.6941 81.4273 51.2718L80.3898 50.6493V25.3896C80.3898 24.289 79.9526 23.2334 79.1743 22.4551C78.396 21.6769 77.3405 21.2396 76.2398 21.2396H19.0667C17.966 21.2396 16.9104 21.6769 16.1322 22.4551C15.3539 23.2334 14.9167 24.289 14.9167 25.3896V60.4433C14.9203 61.297 15.261 62.1147 15.8647 62.7184C16.4684 63.3221 17.2861 63.6628 18.1398 63.6665H37.05L35.6667 68.7848H33.8268C32.4795 68.7857 31.1717 69.2409 30.115 70.0768C29.0582 70.9126 28.3142 72.0804 28.003 73.3913H24.6C24.2331 73.3913 23.8813 73.5371 23.6218 73.7965C23.3624 74.0559 23.2167 74.4078 23.2167 74.7746C23.2167 75.1415 23.3624 75.4934 23.6218 75.7528C23.8813 76.0122 24.2331 76.158 24.6 76.158H59.8335C59.8101 76.4885 59.8428 76.8206 59.9303 77.1401C60.034 77.5459 60.2186 77.9266 60.4729 78.2594C60.7273 78.5922 61.0462 78.8702 61.4105 79.0768L64.3293 80.7645C64.6917 80.9725 65.0916 81.1071 65.506 81.1606C65.9204 81.2141 66.3414 81.1855 66.7447 81.0763C67.1481 80.9671 67.526 80.7795 67.8568 80.5243C68.1877 80.269 68.465 79.9511 68.673 79.5886C68.7178 79.5181 68.7823 79.4621 68.8585 79.4277C68.9347 79.3933 69.0192 79.3819 69.1018 79.395C70.6214 79.6578 72.1749 79.6578 73.6945 79.395C73.7786 79.3813 73.8649 79.3939 73.9416 79.4311C74.0184 79.4682 74.0818 79.528 74.1233 79.6025C74.4053 80.0852 74.8095 80.4852 75.2952 80.762C75.7809 81.0389 76.3309 81.1829 76.89 81.1795C77.4477 81.1849 77.9968 81.0416 78.4808 80.7645L81.3997 79.0768C81.762 78.8677 82.0794 78.5889 82.3335 78.2565C82.5875 77.9241 82.7732 77.5447 82.8798 77.1401C82.99 76.738 83.0186 76.3179 82.9639 75.9045C82.9093 75.4911 82.7725 75.0929 82.5617 74.7331C82.5141 74.6639 82.4886 74.582 82.4886 74.498C82.4886 74.414 82.5141 74.332 82.5617 74.2628C83.5383 73.0658 84.3181 71.721 84.8718 70.2788C84.8982 70.2011 84.9486 70.1337 85.0157 70.0865C85.0828 70.0393 85.1632 70.0146 85.2453 70.016C86.088 70.0123 86.8952 69.676 87.4911 69.0801C88.087 68.4842 88.4233 67.677 88.427 66.8343V63.459C88.4126 62.6295 88.0748 61.8385 87.4856 61.2545C86.8965 60.6705 86.1025 60.3397 85.273 60.3326V60.3326ZM17.6833 25.3896C17.6833 25.0228 17.8291 24.6709 18.0885 24.4115C18.3479 24.1521 18.6998 24.0063 19.0667 24.0063H76.2398C76.6067 24.0063 76.9586 24.1521 77.218 24.4115C77.4774 24.6709 77.6232 25.0228 77.6232 25.3896V29.5396H17.6833V25.3896ZM18.1398 60.8998C18.0799 60.8998 18.0205 60.888 17.9651 60.8651C17.9097 60.8421 17.8594 60.8085 17.817 60.7661C17.7746 60.7237 17.741 60.6734 17.7181 60.618C17.6951 60.5626 17.6833 60.5033 17.6833 60.4433V32.3063H77.6232V49.266C76.9685 49.0921 76.2754 49.1326 75.6456 49.3816C75.0157 49.6306 74.4822 50.0749 74.1233 50.6493V50.6493C74.0803 50.7175 74.0176 50.7712 73.9436 50.8033C73.8695 50.8354 73.7876 50.8444 73.7083 50.8291C72.1876 50.5801 70.6364 50.5801 69.1157 50.8291C69.0364 50.8464 68.9536 50.8384 68.8792 50.8061C68.8047 50.7738 68.7423 50.719 68.7007 50.6493V50.6493C68.4929 50.2867 68.2153 49.9687 67.8841 49.7138C67.5529 49.4589 67.1745 49.272 66.7707 49.164C66.367 49.056 65.9458 49.029 65.5316 49.0845C65.1173 49.1399 64.7181 49.2769 64.357 49.4873L61.4382 51.175C61.0748 51.3794 60.7564 51.6551 60.502 51.9855C60.2477 52.3159 60.0627 52.6942 59.958 53.0978C59.7368 53.9134 59.8461 54.7832 60.2623 55.5186C60.3128 55.584 60.3402 55.6643 60.3402 55.7469C60.3402 55.8295 60.3128 55.9098 60.2623 55.9751C59.2826 57.1751 58.5026 58.525 57.9522 59.973C57.924 60.0496 57.8732 60.1158 57.8065 60.1627C57.7397 60.2097 57.6603 60.2352 57.5787 60.2358C56.9011 60.2368 56.2417 60.455 55.6973 60.8583L18.1398 60.8998ZM55.0333 68.7848H38.4333L39.8167 63.6665H54.3417V66.8343C54.3505 67.543 54.5937 68.2289 55.0333 68.7848V68.7848ZM33.8407 71.5515H58.464C58.7802 72.1892 59.1407 72.804 59.543 73.3913H30.9218C31.183 72.8417 31.5944 72.3772 32.1085 72.0516C32.6226 71.7261 33.2183 71.5527 33.8268 71.5515H33.8407ZM85.688 66.8343C85.688 66.9444 85.6443 67.0499 85.5664 67.1278C85.4886 67.2056 85.3831 67.2493 85.273 67.2493C84.6286 67.2509 83.9998 67.4473 83.469 67.8126C82.9383 68.178 82.5303 68.6953 82.2988 69.2966C81.8566 70.4629 81.2309 71.5511 80.4452 72.5198C80.04 73.0203 79.7955 73.6314 79.7437 74.2732C79.6918 74.915 79.8351 75.5575 80.1547 76.1165C80.1769 76.1641 80.1884 76.2161 80.1884 76.2686C80.1884 76.3212 80.1769 76.3732 80.1547 76.4208C80.1426 76.4757 80.1191 76.5275 80.0858 76.5728C80.0524 76.6181 80.0099 76.6559 79.961 76.6836L77.0837 78.316C77.0356 78.3427 76.9827 78.3596 76.9281 78.3657C76.8734 78.3718 76.8181 78.367 76.7654 78.3516C76.7126 78.3362 76.6634 78.3104 76.6207 78.2758C76.578 78.2411 76.5425 78.1984 76.5165 78.15C76.1894 77.5925 75.701 77.1473 75.1157 76.8732C74.5303 76.599 73.8756 76.5088 73.238 76.6145C72.0202 76.8219 70.7761 76.8219 69.5583 76.6145C68.9192 76.5101 68.2635 76.6024 67.678 76.8791C67.0926 77.1558 66.605 77.6038 66.2798 78.1638C66.2224 78.2566 66.1317 78.3239 66.0264 78.3522C65.921 78.3805 65.8088 78.3675 65.7127 78.316L62.7938 76.6283C62.7449 76.6005 62.7024 76.5628 62.669 76.5175C62.6357 76.4722 62.6122 76.4204 62.6002 76.3655C62.5779 76.3178 62.5664 76.2659 62.5664 76.2133C62.5664 76.1607 62.5779 76.1088 62.6002 76.0611C62.916 75.501 63.0571 74.8593 63.0054 74.2183C62.9536 73.5774 62.7113 72.9666 62.3097 72.4645C61.5169 71.4982 60.8862 70.4097 60.4422 69.2413C60.2101 68.6558 59.8081 68.1532 59.2879 67.7981C58.7677 67.4431 58.1531 67.252 57.5233 67.2493C57.4133 67.2493 57.3077 67.2056 57.2299 67.1278C57.152 67.0499 57.1083 66.9444 57.1083 66.8343V63.459C57.1064 63.404 57.1158 63.3491 57.136 63.2979C57.1561 63.2467 57.1866 63.2002 57.2256 63.1612C57.2645 63.1223 57.311 63.0918 57.3623 63.0716C57.4135 63.0515 57.4683 63.042 57.5233 63.044C58.1658 63.0415 58.7924 62.8446 59.3208 62.4792C59.8492 62.1137 60.2546 61.5969 60.4837 60.9966C60.9245 59.8268 61.5555 58.7378 62.3512 57.7735C62.7528 57.2713 62.9951 56.6605 63.0469 56.0196C63.0986 55.3787 62.9575 54.7369 62.6417 54.1768C62.6191 54.1268 62.6075 54.0726 62.6075 54.0177C62.6075 53.9629 62.6191 53.9087 62.6417 53.8586C62.6529 53.8051 62.6762 53.7549 62.7097 53.7118C62.7433 53.6686 62.7862 53.6337 62.8353 53.6096L65.7542 51.922C65.822 51.9031 65.8938 51.9031 65.9617 51.922C66.0309 51.9228 66.0988 51.941 66.1592 51.9749C66.2196 52.0087 66.2706 52.0571 66.3075 52.1156V52.1156C66.6341 52.6743 67.1219 53.1212 67.707 53.3977C68.292 53.6742 68.947 53.7674 69.586 53.665C70.8038 53.4575 72.0479 53.4575 73.2657 53.665C73.9089 53.7518 74.5633 53.6425 75.1434 53.3512C75.7234 53.06 76.202 52.6004 76.5165 52.0326V52.0326C76.5435 51.987 76.5794 51.9472 76.6219 51.9155C76.6644 51.8838 76.7128 51.8609 76.7643 51.848C76.8157 51.8351 76.8692 51.8326 76.9217 51.8406C76.9741 51.8485 77.0245 51.8668 77.0698 51.8943L79.9887 53.582C80.0377 53.606 80.0807 53.641 80.1142 53.6841C80.1478 53.7273 80.1711 53.7775 80.1823 53.831C80.2049 53.881 80.2165 53.9352 80.2165 53.9901C80.2165 54.0449 80.2049 54.0991 80.1823 54.1491C79.8639 54.706 79.7213 55.3461 79.7731 55.9855C79.825 56.6249 80.0689 57.2337 80.4728 57.732C81.2588 58.7056 81.8846 59.7983 82.3265 60.969C82.5446 61.5804 82.9429 62.1113 83.469 62.4917C83.995 62.872 84.624 63.0839 85.273 63.0993C85.328 63.0974 85.3828 63.1068 85.4341 63.127C85.4853 63.1471 85.5318 63.1776 85.5707 63.2166C85.6097 63.2555 85.6402 63.302 85.6603 63.3532C85.6805 63.4045 85.6899 63.4593 85.688 63.5143V66.8343Z" fill="#3D3D63"/>
<path d="M71.3981 58.8676C70.156 58.8676 68.9418 59.2359 67.909 59.926C66.8762 60.6161 66.0712 61.597 65.5959 62.7446C65.1205 63.8921 64.9961 65.1549 65.2385 66.3732C65.4808 67.5914 66.0789 68.7105 66.9573 69.5888C67.8356 70.4671 68.9546 71.0653 70.1729 71.3076C71.3912 71.5499 72.6539 71.4255 73.8015 70.9502C74.9491 70.4749 75.93 69.6699 76.62 68.6371C77.3101 67.6043 77.6785 66.3901 77.6785 65.1479C77.6785 63.4823 77.0168 61.8849 75.839 60.7071C74.6612 59.5293 73.0638 58.8676 71.3981 58.8676ZM71.3981 68.6616C70.7032 68.6616 70.0239 68.4555 69.446 68.0694C68.8682 67.6834 68.4179 67.1346 68.1519 66.4926C67.886 65.8505 67.8164 65.144 67.952 64.4625C68.0876 63.7809 68.4222 63.1548 68.9136 62.6634C69.405 62.172 70.0311 61.8374 70.7126 61.7018C71.3942 61.5662 72.1007 61.6358 72.7428 61.9017C73.3848 62.1677 73.9336 62.618 74.3196 63.1958C74.7057 63.7737 74.9118 64.453 74.9118 65.1479C74.9045 66.075 74.5311 66.9616 73.8729 67.6146C73.2148 68.2676 72.3252 68.634 71.3981 68.6339V68.6616Z" fill="#3D3D63"/>
</g>
<defs>
<clipPath id="clip0_1_51">
<rect width="83" height="83" fill="white" transform="translate(8 5)"/>
</clipPath>
</defs>
</svg>
