<svg width="34" height="52" viewBox="0 0 34 52" fill="none" xmlns="http://www.w3.org/2000/svg">
<g clip-path="url(#clip0_1_102)">
<path d="M8.5 51.9993C13.192 51.9993 17 48.1167 17 43.3327V34.666H8.5C3.808 34.666 0 38.5487 0 43.3327C0 48.1167 3.808 51.9993 8.5 51.9993Z" fill="#0ACF83"/>
<path d="M0 26.0007C0 21.2167 3.808 17.334 8.5 17.334H17V34.6673H8.5C3.808 34.6673 0 30.7847 0 26.0007Z" fill="#A259FF"/>
<path d="M0 8.66667C0 3.88267 3.808 0 8.5 0H17V17.3333H8.5C3.808 17.3333 0 13.4507 0 8.66667Z" fill="#F24E1E"/>
<path d="M17 0H25.5C30.192 0 34 3.88267 34 8.66667C34 13.4507 30.192 17.3333 25.5 17.3333H17V0Z" fill="#FF7262"/>
<path d="M34 26.0007C34 30.7847 30.192 34.6673 25.5 34.6673C20.808 34.6673 17 30.7847 17 26.0007C17 21.2167 20.808 17.334 25.5 17.334C30.192 17.334 34 21.2167 34 26.0007Z" fill="#1ABCFE"/>
</g>
<defs>
<clipPath id="clip0_1_102">
<rect width="34" height="52" fill="white"/>
</clipPath>
</defs>
</svg>
