<svg width="37" height="37" viewBox="0 0 37 37" fill="none" xmlns="http://www.w3.org/2000/svg">
<path d="M17.0222 29.5535C17.0222 31.4466 17.0392 33.3396 17.0154 35.2361C16.9951 36.7943 16.0215 37.4025 14.668 36.6679C11.1333 34.7475 7.61219 32.8032 4.09447 30.8486C3.11751 30.3053 2.85292 29.5262 3.2973 28.7471C3.7315 27.9885 4.53885 27.8211 5.5192 28.3576C7.88357 29.6492 10.2276 30.975 12.5886 32.2701C13.7725 32.9193 14.1897 32.6699 14.1965 31.3065C14.2067 28.8564 14.1931 26.4064 14.2033 23.953C14.21 22.6681 14.6476 22.077 15.5602 22.0496C16.51 22.0223 17.0154 22.6784 17.0222 23.9803C17.0324 25.8358 17.0222 27.6946 17.0222 29.5501H17.0188L17.0222 29.5535Z" fill="url(#paint0_linear_1179_45)"/>
<path d="M2.81553 20.3563C2.81553 21.6172 2.83588 22.8816 2.80874 24.1425C2.785 25.2496 2.2151 25.9022 1.33991 25.8339C0.318858 25.7553 -1.05284e-05 25.089 -1.05284e-05 24.1425C0.0101661 20.3188 -0.0135794 16.4916 0.00338169 12.6679C0.0101661 11.1268 1.00748 10.5357 2.37454 11.2772C5.8787 13.1805 9.36589 15.1077 12.8497 17.0418C13.8267 17.5817 14.1116 18.3642 13.6808 19.133C13.25 19.8985 12.4562 20.0522 11.4623 19.5157C9.09451 18.2309 6.74032 16.9188 4.36916 15.6374C3.2192 15.0155 2.84945 15.2444 2.83249 16.5668C2.81553 17.8277 2.8291 19.092 2.8291 20.3529H2.81213L2.81553 20.3563Z" fill="url(#paint1_linear_1179_45)"/>
<path d="M16.8289 14.4408C16.32 15.2575 15.6348 15.3019 14.8308 14.8509C11.8152 13.156 8.71129 11.6183 5.76006 9.80045C5.1359 9.48949 4.49477 9.21613 3.89435 8.86075C2.62227 8.109 2.63923 6.94036 3.94862 6.21253C7.14409 4.4459 10.3497 2.70662 13.552 0.957078C13.9387 0.74522 14.3356 0.54703 14.7189 0.328338C15.5195 -0.126132 16.2793 -0.19789 16.839 0.670045C17.3411 1.4423 17.0086 2.3239 16.0351 2.87405C14.9428 3.48912 13.8369 4.08028 12.7378 4.68168C11.5099 5.35143 10.2751 6.01434 9.05051 6.69092C7.93108 7.3094 7.91073 7.61011 8.90465 8.4097C8.90465 8.4097 8.90465 8.4097 8.90804 8.4097C11.3335 9.72185 13.7725 11.0169 16.1843 12.3598C17.0324 12.8314 17.28 13.7164 16.8289 14.4374V14.4408Z" fill="url(#paint2_linear_1179_45)"/>
<path d="M36.887 24.2814C36.887 25.2279 36.446 25.7951 35.5131 25.8019C34.5837 25.8054 34.1189 25.2347 34.1122 24.2984C34.085 21.4042 34.0579 18.5065 34.0307 15.6123C33.5389 15.1168 33.0572 15.315 32.5416 15.602C30.2247 16.8937 27.8976 18.1716 25.5706 19.4462C24.4545 20.0613 23.6031 19.9314 23.1858 19.0977C22.7822 18.2912 23.1146 17.5292 24.1696 16.9552C27.633 15.0758 31.1067 13.2101 34.5735 11.3409C35.9338 10.6404 36.8768 11.1188 36.8836 12.5813C36.904 16.4802 36.8768 20.3825 36.8802 24.2814H36.887Z" fill="url(#paint3_linear_1179_45)"/>
<path d="M33.7356 29.687C33.6949 30.1928 33.3727 30.4935 32.9758 30.7122C29.3291 32.7419 25.6859 34.7853 22.0189 36.7775C20.9571 37.3549 19.9395 36.7501 19.9293 35.561C19.8988 31.5459 19.9157 27.5343 19.9191 23.5192C19.9191 23.2254 19.9022 22.9178 20.1803 22.7094C20.7672 21.8996 21.4321 21.7321 22.1987 22.4736C22.7889 22.8085 22.7415 23.3928 22.7448 23.9464C22.7448 26.4374 22.7279 28.9285 22.7415 31.4161C22.7482 32.6599 23.1383 32.9059 24.2239 32.3182C26.6289 31.0197 29.017 29.687 31.4086 28.3612C32.0022 28.0332 32.5958 27.9443 33.1861 28.3202C33.6847 28.6346 33.7797 29.1369 33.7356 29.687Z" fill="url(#paint4_linear_1179_45)"/>
<path d="M33.0538 8.80313C29.3834 10.8568 25.6859 12.8694 22.0053 14.9026C21.2285 15.3331 20.567 15.1999 20.0887 14.4652C19.6477 13.7852 19.9327 12.8045 20.7095 12.3671C23.0298 11.0721 25.3704 9.81458 27.6907 8.52293C28.091 8.30082 28.6676 8.16414 28.6541 7.56615C28.6405 6.975 28.0638 6.86565 27.6635 6.63671C26.6459 6.04556 25.618 5.47149 24.5936 4.89059C23.291 4.21059 21.9714 3.5511 20.6857 2.83693C19.9157 2.40638 19.6409 1.4086 20.0887 0.738853C20.584 -0.0060673 21.2963 -0.0641574 22.0257 0.342474C23.118 0.950711 24.2849 1.4291 25.2958 2.18769C27.8976 3.56818 30.5198 4.91793 33.0979 6.34284C34.2105 6.95792 34.1766 8.17439 33.0572 8.79971L33.0538 8.80313Z" fill="url(#paint5_linear_1179_45)"/>
<defs>
<linearGradient id="paint0_linear_1179_45" x1="3.09376" y1="29.5159" x2="17.029" y2="29.5159" gradientUnits="userSpaceOnUse">
<stop stop-color="#1B75BB"/>
<stop offset="1" stop-color="#2B388F"/>
</linearGradient>
<linearGradient id="paint1_linear_1179_45" x1="-1.05285e-05" y1="18.4018" x2="13.8809" y2="18.4018" gradientUnits="userSpaceOnUse">
<stop stop-color="#1B75BB"/>
<stop offset="1" stop-color="#2B388F"/>
</linearGradient>
<linearGradient id="paint2_linear_1179_45" x1="2.9547" y1="7.5691" x2="17.0731" y2="7.5691" gradientUnits="userSpaceOnUse">
<stop stop-color="#1B75BB"/>
<stop offset="1" stop-color="#2B388F"/>
</linearGradient>
<linearGradient id="paint3_linear_1179_45" x1="23.0264" y1="18.4142" x2="36.9006" y2="18.4142" gradientUnits="userSpaceOnUse">
<stop stop-color="#1B75BB"/>
<stop offset="1" stop-color="#2B388F"/>
</linearGradient>
<linearGradient id="paint4_linear_1179_45" x1="19.9123" y1="29.4991" x2="33.7458" y2="29.4991" gradientUnits="userSpaceOnUse">
<stop stop-color="#1B75BB"/>
<stop offset="1" stop-color="#2B388F"/>
</linearGradient>
<linearGradient id="paint5_linear_1179_45" x1="19.8682" y1="7.62083" x2="33.912" y2="7.62083" gradientUnits="userSpaceOnUse">
<stop stop-color="#1B75BB"/>
<stop offset="1" stop-color="#2B388F"/>
</linearGradient>
</defs>
</svg>
