<svg width="19" height="21" viewBox="0 0 19 21" fill="none" xmlns="http://www.w3.org/2000/svg">
<path fill-rule="evenodd" clip-rule="evenodd" d="M5.25935 0.144886C4.41343 0.450394 3.80221 1.09687 3.52145 1.9831C3.40117 2.36269 3.38539 2.80234 3.40846 5.13003L3.43527 7.83573L3.66853 8.34982C3.79678 8.63256 3.90179 8.89499 3.90179 8.93299C3.90179 8.97108 3.26249 9.38683 2.48103 9.85687C0.487808 11.056 0.459478 11.0776 0.215023 11.584L0 12.0294V16.4234C0 20.051 0.0204418 20.8349 0.116969 20.9177C0.203232 20.9916 2.12257 21.0116 7.43282 20.994L14.6317 20.9702L15.0474 20.7723C15.3061 20.6491 15.7724 20.2606 16.2823 19.7434C17.041 18.9739 17.1266 18.9125 17.4401 18.9125C17.6262 18.9125 17.8244 18.8652 17.8804 18.8074C17.9489 18.7366 17.9821 18.3365 17.9821 17.5815V16.4607H18.4911H19V16.1105V15.7602H18.4911H17.9821V15.4099V15.0597H18.4911H19V14.7094V14.3592H18.4911H17.9821V14.0089V13.6587H18.4911H19V13.3084V12.9582H18.4911H17.9821V12.6079V12.2577H18.4911H19V11.9074V11.5572H18.4911H17.9821V10.7866C17.9821 10.3041 17.9441 9.97683 17.8804 9.91098C17.8211 9.84986 17.5373 9.8059 17.2018 9.8059H16.625V9.28053V8.75515H16.2857H15.9464V9.28053V9.8059H15.6071H15.2679V9.28053V8.75515H14.9286H14.5893V9.28053V9.8059H14.25H13.9107V9.28053V8.75515H13.5714H13.2321V9.28053V9.8059H12.6487C12.0625 9.8059 11.9259 9.86912 11.863 10.1694C11.8386 10.2853 11.6275 10.1892 10.7962 9.68332C10.2263 9.33648 9.73411 9.02598 9.70247 8.99332C9.67074 8.96066 9.7554 8.68685 9.89052 8.38484L10.1362 7.83573V4.71192C10.1362 1.69344 10.1302 1.57987 9.96126 1.34608C9.6978 0.981727 9.40593 0.788125 9.03153 0.729633C8.8311 0.698285 8.59097 0.57701 8.43973 0.43078C8.29978 0.295407 8.0778 0.142872 7.9465 0.0917354C7.57057 -0.0545826 5.70975 -0.0178062 5.25935 0.144886ZM7.93462 0.914304C8.10978 1.09503 8.14286 1.21324 8.14286 1.65859C8.14286 1.95613 8.10537 2.18791 8.05727 2.18791C8.01028 2.18791 7.74335 2.40463 7.46429 2.66951C7.18522 2.93439 6.87792 3.1511 6.78139 3.1511C6.68486 3.1511 6.40784 2.95952 6.16567 2.72537C5.63825 2.21523 5.44036 2.10035 5.08929 2.10035C4.78978 2.10035 4.54711 2.21111 4.25032 2.48344L4.04751 2.66951L4.10841 2.40682C4.2197 1.92688 4.42819 1.57392 4.80013 1.23592C5.29209 0.789001 5.54825 0.718775 6.72591 0.708267C7.68075 0.699774 7.73597 0.709143 7.93462 0.914304ZM9.29176 1.61481C9.45292 1.78109 9.5 1.92137 9.5 2.23546V2.64131L9.239 2.41461C9.09549 2.28992 8.94281 2.18791 8.89972 2.18791C8.85663 2.18791 8.82143 2.01059 8.82143 1.79388C8.82143 1.33093 8.96418 1.27655 9.29176 1.61481ZM5.70933 3.22658C6.23675 3.73673 6.43464 3.85161 6.78571 3.85161C7.13679 3.85161 7.33468 3.73673 7.8621 3.22658C8.10426 2.99244 8.38256 2.80085 8.4807 2.80085C8.57875 2.80085 8.8512 2.9864 9.08607 3.21319L9.51306 3.62552L9.48405 5.68685C9.45623 7.66936 9.44707 7.76489 9.2463 8.18599C8.97987 8.74481 8.47103 9.26975 7.9308 9.54313C7.58337 9.71895 7.37633 9.75818 6.78571 9.75993C6.11605 9.76195 6.02546 9.73979 5.51339 9.44873C4.87672 9.08692 4.41742 8.52748 4.20842 7.85938C4.0995 7.5114 4.07143 7.03094 4.07143 5.51724V3.61291L4.49189 3.20688C4.7232 2.9836 4.99267 2.80085 5.09073 2.80085C5.18887 2.80085 5.46716 2.99244 5.70933 3.22658ZM4.75 4.90237V5.25262H5.42857H6.10714V4.90237V4.55211H5.42857H4.75V4.90237ZM7.46429 4.90237V5.25262H8.14286H8.82143V4.90237V4.55211H8.14286H7.46429V4.90237ZM5.1775 5.73001C4.95213 6.0103 5.2831 6.44085 5.57701 6.24979C5.87066 6.05881 5.76608 5.60287 5.42857 5.60287C5.34672 5.60287 5.23374 5.66005 5.1775 5.73001ZM7.89178 5.73001C7.66641 6.0103 7.99739 6.44085 8.29129 6.24979C8.58495 6.05881 8.48036 5.60287 8.14286 5.60287C8.061 5.60287 7.94802 5.66005 7.89178 5.73001ZM6.78571 7.07393C6.78571 7.55518 6.68138 7.70439 6.34464 7.70439C6.12283 7.70439 6.10714 7.72829 6.10714 8.06602V8.42766L6.49919 8.38204C6.78792 8.34842 6.95994 8.26541 7.15231 8.06681C7.37938 7.83249 7.41814 7.72251 7.44876 7.22542L7.48405 6.65363H7.13484H6.78571V7.07393ZM4.69563 9.75862C4.8461 9.87709 5.19659 10.0836 5.47455 10.2175C5.9157 10.4299 6.08237 10.4608 6.78571 10.4608C7.48905 10.4608 7.65573 10.4299 8.09688 10.2175C8.37484 10.0836 8.72533 9.87709 8.8758 9.75862C9.50865 9.26039 9.38897 9.51309 8.04294 11.5176C7.3815 12.5025 6.81574 13.3084 6.78571 13.3084C6.75569 13.3084 6.18993 12.5025 5.52849 11.5176C4.18246 9.51309 4.06278 9.26039 4.69563 9.75862ZM4.8992 11.8015L6.10875 13.6149L5.53892 13.6412C5.22551 13.6557 4.91981 13.7097 4.85959 13.7614C4.77748 13.8317 4.75 14.2488 4.75 15.4238C4.75 16.9787 4.74847 16.9914 4.57578 16.896C4.24446 16.713 4.07211 16.2872 4.07177 15.6507L4.07143 15.0597H3.73214H3.39286L3.39472 15.6945C3.39693 16.4524 3.57124 16.9096 4.00925 17.3067C4.36126 17.6257 4.60428 17.6897 7.31585 18.1757L9.16071 18.5064V19.41V20.3135H6.71871C4.07559 20.3135 3.71721 20.2678 2.86586 19.8224C1.87667 19.3049 0.996821 18.1029 0.765598 16.9531C0.705121 16.6525 0.679674 15.6472 0.695706 14.1955L0.720982 11.9111L0.933036 11.6954C1.11778 11.5075 3.53383 9.98768 3.64732 9.98795C3.67065 9.98803 4.23403 10.8041 4.8992 11.8015ZM10.9033 10.5617C11.7104 11.0441 11.875 11.1776 11.875 11.3498C11.875 11.5449 11.8448 11.5572 11.3661 11.5572H10.8571V11.9074V12.2577H11.3661H11.875V12.6079V12.9582H11.3661H10.8571V13.3084V13.6587H11.3661H11.875V14.0089V14.3592H11.3661H10.8571V14.7094V15.0597H11.3661H11.875V15.4099V15.7602H11.3661H10.8571V16.1043C10.8571 16.3945 10.8871 16.4529 11.0479 16.4765C11.2007 16.4989 11.0588 16.6362 10.3344 17.1665C9.5369 17.7502 9.39431 17.8241 9.12585 17.7917L8.82143 17.755V15.8051C8.82143 14.3185 8.79539 13.8329 8.71184 13.7614C8.65162 13.7097 8.34592 13.6557 8.03251 13.6412L7.46267 13.6149L8.67223 11.8015C9.3374 10.8041 9.89289 9.98646 9.90663 9.98453C9.92029 9.98261 10.3688 10.2423 10.9033 10.5617ZM17.3036 14.3592V18.212H16.5501C15.8374 18.212 15.7943 18.2013 15.7552 18.0149C15.7324 17.9065 15.6857 17.7489 15.6514 17.6647C15.5969 17.5308 15.6416 17.5115 16.0052 17.5115C16.2341 17.5115 16.4672 17.4642 16.5232 17.4064C16.669 17.2559 16.669 11.4625 16.5232 11.312C16.3828 11.1671 14.4922 11.1671 14.3518 11.312C14.2958 11.3698 14.25 11.5094 14.25 11.6224C14.25 11.8871 13.891 12.2577 13.6346 12.2577C13.5252 12.2577 13.3899 12.305 13.3339 12.3627C13.1888 12.5126 13.1888 17.2566 13.3339 17.4064C13.3899 17.4642 13.5522 17.5123 13.6944 17.5134L13.9531 17.5153L13.7411 17.694C13.3411 18.0309 13.0199 18.2114 12.8193 18.2116C12.6522 18.2119 12.6274 18.179 12.6706 18.0149C12.8191 17.4526 12.8281 16.8994 12.6922 16.6853C12.5708 16.494 12.5536 16.0971 12.5536 13.4866V10.5064H14.9286H17.3036V14.3592ZM15.9464 14.3592V16.811H14.9286H13.9107V14.8408C13.9107 13.1687 13.9295 12.8706 14.035 12.8706C14.2223 12.8706 14.7534 12.3547 14.8113 12.1166C14.8583 11.9234 14.9035 11.9074 15.4042 11.9074H15.9464V14.3592ZM14.5893 14.7094V15.7602H14.9286H15.2679V14.7094V13.6587H14.9286H14.5893V14.7094ZM6.46322 14.8099C6.48104 15.1234 6.53396 15.2898 6.63728 15.3567C6.90022 15.527 7.07928 15.3191 7.10821 14.8099L7.13391 14.3592H7.63834H8.14286V15.9886V17.618L7.95201 17.5721C7.847 17.5469 7.23637 17.4352 6.59487 17.3238L5.42857 17.1213V15.7402V14.3592H5.93309H6.43752L6.46322 14.8099ZM12.0912 16.9931C12.1224 17.0451 12.0817 17.439 12.001 17.8685C11.8079 18.8946 11.8404 18.9406 12.7281 18.899C13.3714 18.8688 13.383 18.864 14.0139 18.3651C14.6598 17.8545 14.9538 17.7503 15.0464 17.9994C15.1235 18.2067 15.0114 18.3626 14.1938 19.1847C13.1093 20.2754 13.1385 20.2639 11.3449 20.2986L9.83928 20.3277V19.3629V18.398L10.8359 17.6523C11.8433 16.8984 11.9888 16.822 12.0912 16.9931ZM1.39658 19.5723C1.53815 19.7184 1.78761 19.9445 1.95089 20.0748L2.24777 20.3116L1.46317 20.3125L0.678571 20.3135L0.679505 19.5035L0.680438 18.6936L0.909794 19C1.03601 19.1686 1.25502 19.4261 1.39658 19.5723ZM15.7312 19.3571C15.2513 19.864 14.7659 20.1813 14.3348 20.2695C14.0421 20.3295 14.0474 20.3204 14.7146 19.6214C15.3613 18.9437 15.4079 18.9125 15.7716 18.9125H16.1521L15.7312 19.3571Z" fill="#3D3D63"/>
</svg>
