<svg width="20" height="21" viewBox="0 0 20 21" fill="none" xmlns="http://www.w3.org/2000/svg">
<path fill-rule="evenodd" clip-rule="evenodd" d="M8.76153 0.106187C8.69325 0.175409 8.66112 0.577507 8.66112 1.36168C8.66112 2.14586 8.69325 2.54796 8.76153 2.61718C8.90119 2.75876 11.0988 2.75876 11.2385 2.61718C11.3781 2.47559 11.3781 0.247769 11.2385 0.106187C11.0988 -0.0353956 8.90119 -0.0353956 8.76153 0.106187ZM10.6694 1.36168V2.04033H10H9.33056V1.36168V0.683036H10H10.6694V1.36168ZM15.1212 1.12416C14.9816 1.26574 14.9816 3.49356 15.1212 3.63515C15.1796 3.69436 15.4596 3.73694 15.7907 3.73694H16.3597V4.07627V4.41559H15.958C15.7371 4.41559 15.5112 4.4614 15.4559 4.51739C15.3894 4.58483 15.3555 4.95096 15.3555 5.60322C15.3555 6.25548 15.3894 6.62161 15.4559 6.68905C15.5944 6.82945 17.4597 6.82945 17.5982 6.68905C17.6534 6.63306 17.6986 6.40402 17.6986 6.18007V5.77288H18.6023C19.1937 5.77288 19.5408 5.73768 19.6065 5.67108C19.7477 5.52789 19.7477 2.62464 19.6065 2.48145C19.5408 2.41486 19.1937 2.37965 18.6023 2.37965H17.6986V1.8028C17.6986 1.46721 17.6566 1.18337 17.5982 1.12416C17.4585 0.982573 15.2609 0.982573 15.1212 1.12416ZM17.0291 2.04033C17.0291 2.35539 17.0124 2.37965 16.7948 2.37965C16.4975 2.37965 16.3597 2.51937 16.3597 2.82077C16.3597 3.04133 16.3358 3.0583 16.025 3.0583H15.6903V2.37965V1.70101H16.3597H17.0291V2.04033ZM2.40184 2.14212C2.26335 2.28252 2.26335 4.1734 2.40184 4.31379C2.54033 4.45419 4.40556 4.45419 4.54405 4.31379C4.68254 4.1734 4.68254 2.28252 4.54405 2.14212C4.40556 2.00173 2.54033 2.00173 2.40184 2.14212ZM3.97503 3.22796V3.73694H3.47295H2.97086V3.22796V2.71897H3.47295H3.97503V3.22796ZM19.0375 4.07627V5.09423H18.0333H17.0291V4.07627V3.0583H18.0333H19.0375V4.07627ZM9.18027 4.18264C9.1324 4.24118 9.08069 4.41958 9.06546 4.57906C9.04328 4.81031 8.98981 4.88513 8.80162 4.94833C8.6089 5.01305 8.53099 4.99473 8.37778 4.84882C8.08941 4.57422 7.91184 4.62911 7.38742 5.15523C6.86484 5.67948 6.80693 5.8695 7.08015 6.16429C7.22408 6.31961 7.24215 6.39859 7.1783 6.59396C7.11596 6.78474 7.04216 6.83895 6.81404 6.86143C6.36075 6.90596 6.31807 6.98757 6.31807 7.80882C6.31807 8.63006 6.36075 8.71167 6.81404 8.75621C7.04216 8.77869 7.11596 8.8329 7.1783 9.02368C7.24215 9.21904 7.22408 9.29802 7.08015 9.45335C6.80927 9.74567 6.86341 9.92568 7.3824 10.4573C7.89954 10.9871 8.08699 11.0458 8.37778 10.7688C8.53099 10.6229 8.6089 10.6046 8.80162 10.6693C8.98981 10.7325 9.04328 10.8073 9.06546 11.0386C9.10939 11.4975 9.19039 11.5414 9.99347 11.5414C10.8017 11.5414 10.9205 11.4807 10.9205 11.0681C10.9205 10.8477 10.9669 10.779 11.1748 10.6917C11.4017 10.5964 11.4496 10.6044 11.6195 10.7662C11.9132 11.0459 12.0994 10.9883 12.6176 10.4573C13.1366 9.92568 13.1907 9.74567 12.9199 9.45335C12.7759 9.29802 12.7578 9.21904 12.8217 9.02368C12.884 8.8329 12.9578 8.77869 13.186 8.75621C13.6393 8.71167 13.6819 8.63006 13.6819 7.80882C13.6819 6.98757 13.6393 6.90596 13.186 6.86143C12.9578 6.83895 12.884 6.78474 12.8217 6.59396C12.7578 6.39859 12.7759 6.31961 12.9199 6.16429C13.1931 5.8695 13.1352 5.67948 12.6126 5.15523C12.087 4.62792 11.9108 4.57405 11.6195 4.85145C11.4496 5.01322 11.4017 5.0212 11.1748 4.92593C10.9669 4.83864 10.9205 4.76993 10.9205 4.54954C10.9205 4.40117 10.8753 4.23405 10.8201 4.17806C10.6803 4.0364 9.29683 4.0403 9.18027 4.18264ZM10.3256 5.05818C10.4938 5.52967 11.325 5.83778 11.773 5.59474C11.9122 5.51924 11.9767 5.5334 12.1106 5.66922C12.2446 5.80495 12.2585 5.87035 12.1841 6.01142C12.0501 6.26532 12.0707 6.55655 12.2531 6.98808C12.3785 7.28482 12.4804 7.39332 12.7133 7.47874C12.9519 7.5662 13.0125 7.63305 13.0125 7.80882C13.0125 7.98459 12.9519 8.05144 12.7133 8.1389C12.2482 8.30941 11.9443 9.15203 12.1841 9.60621C12.2585 9.74729 12.2446 9.81269 12.1106 9.94842C11.9767 10.0842 11.9122 10.0984 11.773 10.0229C11.5226 9.88709 11.2353 9.90796 10.8096 10.0929C10.5169 10.22 10.4099 10.3233 10.3256 10.5595C10.2393 10.8013 10.1734 10.8627 10 10.8627C9.82661 10.8627 9.76067 10.8013 9.6744 10.5595C9.5062 10.088 8.67501 9.77986 8.22698 10.0229C7.97645 10.1589 7.68181 9.8602 7.81595 9.60621C7.94992 9.35231 7.92933 9.06109 7.74691 8.62956C7.62147 8.33282 7.51964 8.22432 7.28667 8.1389C7.0481 8.05144 6.98751 7.98459 6.98751 7.80882C6.98751 7.63305 7.0481 7.5662 7.28667 7.47874C7.75176 7.30823 8.05569 6.46561 7.81595 6.01142C7.74147 5.87035 7.75545 5.80495 7.88942 5.66922C8.02331 5.5334 8.08782 5.51924 8.22698 5.59474C8.47744 5.73055 8.76471 5.70968 9.19039 5.52475C9.48311 5.39759 9.59013 5.29435 9.6744 5.05818C9.76067 4.81633 9.82661 4.75491 10 4.75491C10.1734 4.75491 10.2393 4.81633 10.3256 5.05818ZM16.3597 5.33176C16.3597 5.63316 16.4975 5.77288 16.7948 5.77288C16.9733 5.77288 17.0291 5.81326 17.0291 5.94254C17.0291 6.09337 16.9733 6.1122 16.5271 6.1122H16.025V5.60322C16.025 5.15082 16.0436 5.09423 16.1923 5.09423C16.3199 5.09423 16.3597 5.15082 16.3597 5.33176ZM1.7324 5.53535C1.66671 5.60195 1.63198 5.95382 1.63198 6.55332V7.4695H1.06296C0.731917 7.4695 0.451923 7.51208 0.393515 7.57129C0.253852 7.71287 0.253852 9.9407 0.393515 10.0823C0.461798 10.1515 0.858442 10.1841 1.63198 10.1841C2.40552 10.1841 2.80217 10.1515 2.87045 10.0823C2.92886 10.0231 2.97086 9.73923 2.97086 9.40364V8.82679H3.87461C4.46598 8.82679 4.81308 8.79158 4.87877 8.72499C5.02003 8.5818 5.02003 5.67855 4.87877 5.53535C4.80831 5.46393 4.33954 5.43356 3.30559 5.43356C2.27163 5.43356 1.80286 5.46393 1.7324 5.53535ZM9.33056 5.88376C8.91986 6.01499 8.21937 6.7503 8.09343 7.18243C7.86164 7.9778 8.02506 8.61191 8.61643 9.21141C9.46302 10.0696 10.537 10.0696 11.3836 9.21141C12.2302 8.35318 12.2302 7.26446 11.3836 6.40623C10.7947 5.80936 10.1094 5.63495 9.33056 5.88376ZM4.30975 7.13017V8.14814H3.30559H2.30142V7.13017V6.1122H3.30559H4.30975V7.13017ZM10.5296 6.56724C11.3893 6.93141 11.599 8.07408 10.9304 8.75197C10.3875 9.30218 9.61248 9.30218 9.06964 8.75197C8.03485 7.70286 9.17667 5.9942 10.5296 6.56724ZM1.63198 8.38567C1.63198 8.68707 1.7698 8.82679 2.06712 8.82679C2.28469 8.82679 2.30142 8.85105 2.30142 9.16611V9.50543H1.63198H0.96254V8.82679V8.14814H1.29726C1.60805 8.14814 1.63198 8.16511 1.63198 8.38567ZM14.7865 10.2859C14.6498 10.4245 14.6498 11.9796 14.7865 12.1182C14.9232 12.2568 16.4573 12.2568 16.594 12.1182C16.7307 11.9796 16.7307 10.4245 16.594 10.2859C16.5298 10.2208 16.2035 10.1841 15.6903 10.1841C15.177 10.1841 14.8507 10.2208 14.7865 10.2859ZM16.025 11.202V11.5414H15.6903H15.3555V11.202V10.8627H15.6903H16.025V11.202ZM8.99584 13.5773V14.5953H9.33056H9.66528V13.5773V12.5593H9.33056H8.99584V13.5773ZM10.3347 13.747V14.9346H10.6694H11.0042V13.747V12.5593H10.6694H10.3347V13.747ZM7.65695 14.5953V16.2919H7.99168H8.3264V14.5953V12.8987H7.99168H7.65695V14.5953ZM11.6736 14.7649V16.2919H12.0083H12.343V14.7649V13.238H12.0083H11.6736V14.7649ZM8.99584 15.6132V15.9526H9.33056H9.66528V15.6132V15.2739H9.33056H8.99584V15.6132ZM2.02218 15.8041C1.9585 15.9091 1.46052 17.057 0.915596 18.3549C0.133102 20.2185 -0.0566011 20.7448 0.0134392 20.8574C0.0956968 20.9897 0.819949 21 10 21C19.18 21 19.9043 20.9897 19.9866 20.8574C20.0566 20.7448 19.8669 20.2185 19.0844 18.3549C18.5395 17.057 18.0415 15.9091 17.9778 15.8041C17.8628 15.6144 17.8494 15.6132 15.772 15.6132H13.6819V15.9526V16.2919L15.5857 16.2934L17.4894 16.2949L18.3344 18.3082L19.1794 20.3214L14.5897 20.3432C12.0654 20.3554 7.9346 20.3554 5.41031 20.3432L0.820619 20.3214L1.66562 18.3082L2.51062 16.2949L4.41435 16.2934L6.31807 16.2919V15.9526V15.6132H4.22799C2.15063 15.6132 2.13724 15.6144 2.02218 15.8041ZM10.3347 16.9705V18.3278H10.6694H11.0042V16.9705V15.6132H10.6694H10.3347V16.9705ZM2.74108 16.7373C2.69556 16.7956 2.42083 17.4871 2.13063 18.274C1.72897 19.3632 1.6237 19.7376 1.68939 19.8433C1.76838 19.9702 2.47774 19.982 10 19.982C17.5223 19.982 18.2316 19.9702 18.3106 19.8433C18.3763 19.7376 18.271 19.3632 17.8694 18.274C17.5792 17.4871 17.3044 16.7956 17.2589 16.7373C17.1984 16.6599 16.7936 16.6312 15.7637 16.6312H14.3514V16.9682V17.3054L15.5818 17.3288L16.8123 17.3523L17.1301 18.2006C17.305 18.6672 17.4693 19.1157 17.4952 19.1973C17.54 19.338 17.1455 19.3458 10 19.3458C2.85447 19.3458 2.46 19.338 2.50477 19.1973C2.53071 19.1157 2.69497 18.6672 2.86986 18.2006L3.18768 17.3523L4.4182 17.3288L5.64863 17.3054V16.9682V16.6312H4.23628C3.20642 16.6312 2.80158 16.6599 2.74108 16.7373ZM8.99584 17.4795V18.3278H9.33056H9.66528V17.4795V16.6312H9.33056H8.99584V17.4795ZM7.65695 17.3099V17.6492H7.99168H8.3264V17.3099V16.9705H7.99168H7.65695V17.3099ZM11.6736 17.3099V17.6492H12.0083H12.343V17.3099V16.9705H12.0083H11.6736V17.3099Z" fill="#3D3D63"/>
</svg>
