<svg width="19" height="19" viewBox="0 0 19 19" fill="none" xmlns="http://www.w3.org/2000/svg">
<path fill-rule="evenodd" clip-rule="evenodd" d="M0.688207 0.028667C0.576682 0.0441792 0.417006 0.136632 0.28524 0.262139C0.0168022 0.51778 -0.0217072 0.744201 0.00885224 1.88691C0.0323074 2.76366 0.0942156 2.95872 0.410579 3.15163C0.572623 3.25052 0.699202 3.2618 1.65105 3.26197C2.833 3.26219 2.94673 3.23512 3.151 2.90434C3.26016 2.72773 3.26924 2.6311 3.26901 1.64791C3.26884 0.691065 3.25762 0.564486 3.15873 0.402257C2.95783 0.0725523 2.78378 0.0235338 1.7751 0.0127599C1.27893 0.00740114 0.789865 0.0146214 0.688207 0.028667ZM16.4346 0.0429382C16.1665 0.107638 16.014 0.20968 15.8961 0.403103C15.798 0.564204 15.7866 0.692757 15.7864 1.64329C15.7862 2.82577 15.8133 2.93954 16.1439 3.14391C16.3204 3.25311 16.417 3.26219 17.3997 3.26197C18.3562 3.2618 18.4827 3.25057 18.6448 3.15163C18.9706 2.95297 19 2.82526 19 1.61034V0.51699L18.8168 0.305122C18.6797 0.146616 18.5695 0.0809007 18.3798 0.0443484C18.0769 -0.0140338 16.6747 -0.0150491 16.4346 0.0429382ZM2.47988 1.65457V2.47248H1.66233H0.844782V1.65457V0.836654H1.66233H2.47988V1.65457ZM18.2106 1.65457V2.47248H17.3931H16.5755V1.65457V0.836654H17.3931H18.2106V1.65457ZM4.00221 1.62377V2.02122H4.39948H4.7967L4.78007 1.64047L4.76338 1.25971L4.38279 1.24302L4.00221 1.22638V1.62377ZM5.52454 1.62377V2.02122H5.92181H6.31903L6.3024 1.64047L6.28571 1.25971L5.90513 1.24302L5.52454 1.22638V1.62377ZM7.0281 1.26913C7.00741 1.28978 6.99049 1.46746 6.99049 1.66399V2.02122H7.38517H7.77985V1.62636V1.23151H7.42278C7.22634 1.23151 7.04874 1.24843 7.0281 1.26913ZM8.51282 1.62377V2.02122H8.9101H9.30731L9.29068 1.64047L9.27399 1.25971L8.89341 1.24302L8.51282 1.22638V1.62377ZM10.0352 1.62377V2.02122H10.4324H10.8296L10.813 1.64047L10.7963 1.25971L10.4157 1.24302L10.0352 1.22638V1.62377ZM11.5387 1.26913C11.518 1.28978 11.5011 1.46746 11.5011 1.66399V2.02122H11.8958H12.2905V1.62636V1.23151H11.9334C11.737 1.23151 11.5593 1.24843 11.5387 1.26913ZM13.0634 1.26671C13.0414 1.28871 13.0234 1.46746 13.0234 1.66399V2.02122H13.4207H13.8179L13.8013 1.64047L13.7846 1.25971L13.444 1.24324C13.2566 1.23416 13.0854 1.24471 13.0634 1.26671ZM14.5458 1.62377V2.02122H14.943H15.3403L15.3236 1.64047L15.3069 1.25971L14.9264 1.24302L14.5458 1.22638V1.62377ZM5.68027 4.58287C4.63404 5.11407 3.72701 5.5924 3.66459 5.64588C3.55414 5.74048 3.55115 5.80783 3.55115 8.21678C3.55115 10.5023 3.55865 10.6971 3.64982 10.7768C3.70412 10.8242 4.63996 11.3164 5.72949 11.8705C7.52804 12.7851 7.72522 12.8727 7.8708 12.8215C8.16669 12.7174 8.17278 12.6664 8.17413 10.285L8.17543 8.08507L10.0215 7.14695C12.0137 6.13454 12.0946 6.07622 11.9412 5.76343C11.883 5.64486 11.4549 5.40332 9.8942 4.60854C8.53414 3.91585 7.86826 3.6056 7.75166 3.61029C7.65474 3.61412 6.77004 4.02951 5.68027 4.58287ZM1.27707 3.75108C1.25638 3.77173 1.23946 3.94941 1.23946 4.14594V4.50317H1.63414H2.02882V4.10831V3.71346H1.67175C1.47531 3.71346 1.2977 3.73038 1.27707 3.75108ZM17.0266 4.10572V4.50317H17.4239H17.8211L17.8045 4.12241L17.7878 3.74166L17.4072 3.72496L17.0266 3.70832V4.10572ZM9.22466 5.16596C10.0111 5.56155 10.6547 5.89825 10.655 5.91421C10.6552 5.93023 10.001 6.26986 9.20131 6.66895L7.7472 7.39458L6.48085 6.75977C5.7843 6.4106 5.12823 6.07294 5.02291 6.00943L4.83137 5.8939L6.26332 5.17335C7.05088 4.77708 7.71766 4.45144 7.74501 4.44981C7.77235 4.44811 8.43817 4.77037 9.22466 5.16596ZM1.26269 5.31369C1.2464 5.35617 1.24081 5.52754 1.25034 5.69445L1.26765 5.99798L1.64823 6.01467L2.02882 6.03131V5.63392V5.23647H1.66058C1.40088 5.23647 1.28355 5.25926 1.26269 5.31369ZM17.0266 5.62873V6.02618H17.4239H17.8211L17.8045 5.64543L17.7878 5.26467L17.4072 5.24798L17.0266 5.23134V5.62873ZM5.89103 7.34037L7.35698 8.08507L7.37187 9.93243C7.38004 10.9484 7.37378 11.7798 7.35805 11.7798C7.34226 11.7798 6.65688 11.4437 5.83493 11.0329L4.34051 10.286V8.43813C4.34051 7.42177 4.35956 6.5915 4.38279 6.59297C4.40602 6.59449 5.08476 6.93085 5.89103 7.34037ZM1.25096 7.14024L1.26765 7.52099L1.64823 7.53769L2.02882 7.55433V7.15693V6.75948H1.63155H1.23433L1.25096 7.14024ZM17.0266 7.15693V7.55433L17.4072 7.53769L17.7878 7.52099L17.8045 7.14024L17.8211 6.75948H17.4239H17.0266V7.15693ZM11.1931 7.82994C10.109 8.38471 9.18925 8.88336 9.14927 8.93801C9.09272 9.01541 9.07665 9.57176 9.07665 11.4547V13.872L9.21507 14.0104C9.29119 14.0866 9.40012 14.1489 9.45712 14.1489C9.51418 14.1489 9.98323 13.9332 10.4995 13.6696C11.0158 13.4059 11.4492 13.2092 11.4626 13.2324C11.4761 13.2556 11.6064 13.668 11.7522 14.1489C11.898 14.6298 12.0574 15.0677 12.1063 15.122C12.2057 15.2323 12.4117 15.2503 12.5751 15.1628C12.6346 15.1309 12.7384 14.9768 12.8057 14.8202L12.9282 14.5354L13.3858 14.9909C14.0189 15.621 14.0049 15.623 14.8427 14.7827C15.6808 13.942 15.6791 13.9535 15.0519 13.3297L14.5995 12.8798L14.8957 12.738C15.2478 12.5696 15.3545 12.3708 15.2205 12.133C15.1363 11.9836 15.0217 11.9353 14.1088 11.6644L13.7 11.5432V9.30297C13.7 7.12647 13.6968 7.05929 13.5851 6.93937C13.5194 6.8688 13.4046 6.81702 13.3172 6.8186C13.2332 6.82007 12.2773 7.27517 11.1931 7.82994ZM12.9107 9.57988C12.9107 10.7418 12.8918 11.2721 12.8505 11.2721C12.8174 11.2721 12.446 11.1681 12.0252 11.041C11.1893 10.7884 11.0556 10.7924 10.9275 11.0737C10.8737 11.1918 10.8934 11.3148 11.0461 11.8122C11.1468 12.1405 11.2207 12.4169 11.2101 12.4264C11.1749 12.4584 9.92465 13.0772 9.89516 13.0772C9.87909 13.0772 9.86601 12.2457 9.86601 11.2293V9.38144L11.3461 8.63776C12.1601 8.22868 12.8452 7.89261 12.8684 7.89086C12.8916 7.88905 12.9107 8.64915 12.9107 9.57988ZM1.27707 8.26371C1.25638 8.28436 1.23946 8.46204 1.23946 8.65857V9.0158H1.63414H2.02882V8.62094V8.22609H1.67175C1.47531 8.22609 1.2977 8.24301 1.27707 8.26371ZM17.0266 8.61835V9.0158H17.4239H17.8211L17.8045 8.63505L17.7878 8.25429L17.4072 8.2376L17.0266 8.22096V8.61835ZM1.27707 9.78673C1.25638 9.80737 1.23946 9.98506 1.23946 10.1816V10.5388H1.63414H2.02882V10.144V9.7491H1.67175C1.47531 9.7491 1.2977 9.76603 1.27707 9.78673ZM17.0266 10.1414V10.5388H17.4239H17.8211L17.8045 10.1581L17.7878 9.77731L17.4072 9.76061L17.0266 9.74397V10.1414ZM1.25096 11.6529L1.26765 12.0336L1.64823 12.0503L2.02882 12.067V11.6696V11.2721H1.63155H1.23433L1.25096 11.6529ZM17.0266 11.6696V12.067L17.4072 12.0503L17.7878 12.0336L17.8045 11.6529L17.8211 11.2721H17.4239H17.0266V11.6696ZM12.7454 12.0869C13.1308 12.2001 13.4905 12.3058 13.5445 12.322C13.6346 12.3488 13.6357 12.3649 13.5574 12.5162C13.5105 12.6071 13.4871 12.7409 13.5053 12.8137C13.5236 12.8866 13.765 13.1717 14.0418 13.4473L14.545 13.9484L14.2804 14.2172L14.0157 14.486L13.5055 13.9866C12.9364 13.4296 12.8063 13.3602 12.5929 13.5001C12.5142 13.5517 12.4369 13.5809 12.4211 13.5651C12.3892 13.5332 11.8987 11.9493 11.8969 11.8725C11.8963 11.8459 11.9292 11.837 11.9701 11.8527C12.0109 11.8683 12.3598 11.9738 12.7454 12.0869ZM1.27707 12.7763C1.25638 12.797 1.23946 12.9747 1.23946 13.1712V13.5284H1.63414H2.02882V13.1336V12.7387H1.67175C1.47531 12.7387 1.2977 12.7556 1.27707 12.7763ZM17.0266 13.131V13.5284H17.4239H17.8211L17.8045 13.1477L17.7878 12.7669L17.4072 12.7502L17.0266 12.7336V13.131ZM1.27707 14.2994C1.25638 14.32 1.23946 14.4977 1.23946 14.6942V15.0514H1.63414H2.02882V14.6566V14.2617H1.67175C1.47531 14.2617 1.2977 14.2787 1.27707 14.2994ZM17.0266 14.654V15.0514H17.4239H17.8211L17.8045 14.6707L17.7878 14.2899L17.4072 14.2732L17.0266 14.2566V14.654ZM0.410579 15.8953C0.0942156 16.0882 0.0323074 16.2833 0.00885224 17.16C-0.0211433 18.2807 0.0155055 18.502 0.276557 18.7766L0.489007 19L1.6113 18.9998C3.27008 18.9995 3.26924 19.0003 3.26924 17.3924C3.26924 16.2222 3.24155 16.1071 2.91154 15.903C2.73501 15.7938 2.63843 15.7847 1.65568 15.785C0.699258 15.7851 0.572735 15.7964 0.410579 15.8953ZM16.1413 15.8953C15.8178 16.0927 15.7862 16.2257 15.7862 17.3924C15.7862 18.5591 15.8178 18.6921 16.1413 18.8894C16.3034 18.9883 16.43 18.9996 17.3818 18.9998C18.5302 19 18.6537 18.974 18.8823 18.6833C18.9926 18.5429 19 18.4639 18.9998 17.4271C18.9995 15.7846 18.9995 15.7846 17.3818 15.785C16.43 15.7851 16.3034 15.7964 16.1413 15.8953ZM2.47988 17.3924V18.2103H1.66233H0.844782V17.3924V16.5745H1.66233H2.47988V17.3924ZM18.2106 17.3924V18.2103H17.3931H16.5755V17.3924V16.5745H17.3931H18.2106V17.3924ZM4.00221 17.4232V17.8206L4.38279 17.8039L4.76338 17.7872L4.78007 17.4065L4.7967 17.0257H4.39948H4.00221V17.4232ZM5.52454 17.4232V17.8206L5.90513 17.8039L6.28571 17.7872L6.3024 17.4065L6.31903 17.0257H5.92181H5.52454V17.4232ZM7.00199 17.4065L7.01868 17.7872L7.39927 17.8039L7.77985 17.8206V17.4232V17.0257H7.38258H6.98536L7.00199 17.4065ZM8.51282 17.4232V17.8206L8.89341 17.8039L9.27399 17.7872L9.29068 17.4065L9.30731 17.0257H8.9101H8.51282V17.4232ZM10.0352 17.4232V17.8206L10.4157 17.8039L10.7963 17.7872L10.813 17.4065L10.8296 17.0257H10.4324H10.0352V17.4232ZM11.5126 17.4065L11.5293 17.7872L11.9099 17.8039L12.2905 17.8206V17.4232V17.0257H11.8932H11.496L11.5126 17.4065ZM13.0349 17.4065L13.0516 17.7872H13.4181H13.7846L13.8013 17.4065L13.8179 17.0257H13.4181H13.0183L13.0349 17.4065ZM14.5458 17.4232V17.8206L14.9264 17.8039L15.3069 17.7872L15.3236 17.4065L15.3403 17.0257H14.943H14.5458V17.4232Z" fill="#3D3D63"/>
</svg>
