<svg width="19" height="19" viewBox="0 0 19 19" fill="none" xmlns="http://www.w3.org/2000/svg">
<path fill-rule="evenodd" clip-rule="evenodd" d="M2.5326 0.100082C2.46348 0.169297 2.44064 1.16072 2.44064 4.09032V7.98848H1.30053C0.421949 7.98848 0.140252 8.01288 0.0722806 8.09491C0.00729728 8.17333 -0.010328 9.49126 0.00538141 13.1019L0.0267615 18.0024L0.208607 18.2953C0.308611 18.4565 0.530306 18.6809 0.701117 18.7941L1.01178 19H7.95809H14.9044L15.2151 18.7941C15.7241 18.4568 15.8786 18.126 15.9149 17.2955L15.9461 16.5828H17.3775C18.3888 16.5828 18.836 16.5558 18.901 16.4908C19.033 16.3586 19.033 10.6682 18.901 10.5361C18.836 10.471 18.3868 10.444 17.3684 10.444H15.9277V5.31809C15.9277 1.43359 15.9054 0.169835 15.8358 0.100082C15.7025 -0.0333607 2.66586 -0.0333607 2.5326 0.100082ZM15.3147 5.53295V10.444H15.1001C14.9821 10.444 14.8442 10.4854 14.7936 10.5361C14.743 10.5867 14.7016 10.7249 14.7016 10.843C14.7016 11.0509 14.6887 11.0579 14.3012 11.0579C13.9097 11.0579 13.8894 11.0465 13.3817 10.542L12.8625 10.0261V9.09339C12.8625 7.98786 12.841 7.95218 12.2078 8.00475C11.7579 8.04212 11.4919 8.19014 11.2197 8.55486C11.0798 8.74217 11.0588 8.89741 11.0371 9.90709L11.0125 11.0477L9.75479 11.072L8.49704 11.0963L8.24676 11.3471L7.99641 11.598V13.8204V16.0428L8.24684 16.2936L8.49719 16.5445L10.5596 16.5672L12.6221 16.5898L13.2387 16.2794C13.7367 16.0287 13.9366 15.969 14.2785 15.969C14.6908 15.969 14.7016 15.9744 14.7016 16.1838C14.7016 16.4587 14.8281 16.5828 15.108 16.5828H15.3304L15.3034 17.2336C15.2778 17.8503 15.2633 17.8975 15.0259 18.1353L14.7754 18.3861L8.76648 18.4067L2.75759 18.4272L2.88649 18.1765C3.00465 17.9466 3.01707 17.2061 3.03553 9.27379L3.05561 0.621883H9.18519H15.3147V5.53295ZM8.52493 1.61146C7.8256 2.07893 6.93974 2.37367 6.04231 2.43752C5.60145 2.46883 5.32068 2.52469 5.26466 2.59229C5.14427 2.73755 5.22834 3.71923 5.42765 4.49702C5.73318 5.68933 6.36692 6.77099 7.27868 7.65652C7.98583 8.34338 9.0507 9.21333 9.18419 9.21333C9.31684 9.21333 10.3782 8.3486 11.0863 7.66358C12.287 6.50196 13.0134 4.95881 13.1447 3.29058C13.2023 2.56037 13.142 2.46353 12.63 2.46353C12.134 2.46353 11.229 2.28313 10.7257 2.08384C10.4988 1.99399 10.0753 1.76647 9.7846 1.57816C9.49386 1.38985 9.214 1.23845 9.16266 1.24167C9.11124 1.2449 8.82426 1.41134 8.52493 1.61146ZM9.65869 2.22903C10.2459 2.59667 11.3376 2.96952 12.0387 3.04189C12.6386 3.10381 12.6163 3.04373 12.4106 4.04152C12.1872 5.12533 11.6517 6.17553 10.911 6.9824C10.5074 7.42217 9.29837 8.44889 9.18419 8.44889C9.07001 8.44889 7.861 7.42217 7.45739 6.9824C6.71667 6.17553 6.18117 5.12533 5.95779 4.04152C5.75219 3.0438 5.72981 3.10389 6.32968 3.04158C7.03974 2.96776 8.14308 2.59068 8.69069 2.23455C8.94104 2.07172 9.15254 1.93575 9.16059 1.93245C9.16871 1.92907 9.39286 2.06259 9.65869 2.22903ZM8.68609 3.04465C8.19818 3.38297 7.60429 3.60581 7.03055 3.6659C6.78242 3.69183 6.53927 3.76159 6.49014 3.82083C6.29512 4.0561 6.76119 5.28778 7.32573 6.02927C7.66981 6.48116 9.01055 7.68154 9.17117 7.68154C9.23285 7.68154 9.44129 7.55208 9.63432 7.39378C10.8608 6.38831 11.3998 5.68711 11.7678 4.61872C12.0343 3.84507 11.9947 3.75284 11.3627 3.6728C10.7285 3.59246 10.2621 3.42188 9.72283 3.07289C9.46589 2.90652 9.2137 2.77239 9.16243 2.77469C9.11116 2.777 8.89683 2.89847 8.68609 3.04465ZM9.61555 3.73281C10.0193 3.9766 10.4139 4.12286 11.041 4.26121L11.2502 4.30733L11.0926 4.7075C10.8645 5.28716 10.3447 5.97717 9.75931 6.47763C9.47838 6.71774 9.2196 6.91418 9.18419 6.91418C9.14879 6.91418 8.89001 6.71774 8.60907 6.47763C8.02369 5.97717 7.5039 5.28716 7.27577 4.7075L7.11821 4.30733L7.32742 4.26121C8.05603 4.10053 8.72203 3.81192 9.15576 3.46892C9.1612 3.46462 9.36811 3.58333 9.61555 3.73281ZM2.42325 13.2434L2.40233 17.8844L2.15182 18.1353C1.93618 18.3511 1.84829 18.3861 1.52107 18.3861C1.19386 18.3861 1.10596 18.3511 0.890319 18.1353L0.639811 17.8844L0.618891 13.2434L0.598047 8.60236H1.52107H2.44409L2.42325 13.2434ZM12.2494 9.42581V10.2493L12.9567 10.9605L13.6641 11.6718H14.1828H14.7016V13.5134V15.3551H14.2019C13.7714 15.3551 13.6174 15.3977 13.0924 15.662L12.4827 15.969H10.6189C8.61375 15.969 8.57114 15.9607 8.57114 15.5699V15.3551H9.79724H11.0233V15.0481V14.7412H9.79724H8.57114V14.4342V14.1273H9.79724H11.0233V13.8204V13.5134H9.79724H8.57114V13.2065V12.8995H9.79724H11.0233V12.5926V12.2857H9.79724H8.57114V12.0708C8.57114 11.6921 8.64915 11.6718 10.1038 11.6718C11.0506 11.6718 11.4799 11.6443 11.5444 11.5797C11.6084 11.5156 11.6364 11.1065 11.6364 10.2334C11.6364 9.00392 11.6401 8.97529 11.8245 8.79075C12.1898 8.42487 12.2494 8.51396 12.2494 9.42581ZM6.84694 8.98604L6.6267 9.21624H5.23868C4.26125 9.21624 3.82346 9.24348 3.7587 9.30832C3.62935 9.43785 3.62935 12.064 3.7587 12.1936C3.88806 12.3231 6.51068 12.3231 6.64004 12.1936C6.70287 12.1307 6.73199 11.7589 6.73199 11.0204V9.93947L7.11515 9.56155C7.53731 9.14519 7.56436 9.06968 7.35815 8.88283C7.16527 8.70802 7.10044 8.72115 6.84694 8.98604ZM5.60329 10.2295L5.20443 10.6289L5.00687 10.4432C4.79752 10.2462 4.64724 10.2747 4.47796 10.5433C4.41329 10.6461 4.46371 10.738 4.7379 11.0178C4.92495 11.2087 5.13009 11.3648 5.19378 11.3648C5.25738 11.3648 5.49164 11.1847 5.71425 10.9646L6.11894 10.5643V11.1181V11.6718H5.19937H4.27979V10.7509V9.83012H5.14098H6.00216L5.60329 10.2295ZM18.3799 13.5134V15.969H16.8473H15.3147V13.5134V11.0579H16.8473H18.3799V13.5134ZM6.84694 12.6693L6.6267 12.8995H5.23868C4.26125 12.8995 3.82346 12.9268 3.7587 12.9916C3.62935 13.1212 3.62935 15.7473 3.7587 15.8769C3.88806 16.0064 6.51068 16.0064 6.64004 15.8769C6.70287 15.8139 6.73199 15.4422 6.73199 14.7037V13.6228L7.11515 13.2448C7.53731 12.8285 7.56436 12.753 7.35815 12.5661C7.16527 12.3913 7.10044 12.4044 6.84694 12.6693ZM5.60329 13.9128L5.20443 14.3122L5.00687 14.1265C4.79752 13.9295 4.64724 13.958 4.47796 14.2266C4.41329 14.3293 4.46371 14.4213 4.7379 14.7011C4.92495 14.892 5.13009 15.0481 5.19378 15.0481C5.25738 15.0481 5.49164 14.868 5.71425 14.6479L6.11894 14.2476V14.8013V15.3551H5.19937H4.27979V14.4342V13.5134H5.14098H6.00216L5.60329 13.9128Z" fill="#3D3D63"/>
</svg>
