<svg width="37" height="37" viewBox="0 0 37 37" fill="none" xmlns="http://www.w3.org/2000/svg">
<rect x="0.0246582" y="0.844727" width="35.9964" height="35.8885" rx="8" fill="white"/>
<path d="M22.1303 10.5986H13.9157C11.6473 10.5986 9.80841 12.432 9.80841 14.6936V22.8836C9.80841 25.1452 11.6473 26.9785 13.9157 26.9785H22.1303C24.3987 26.9785 26.2376 25.1452 26.2376 22.8836V14.6936C26.2376 12.432 24.3987 10.5986 22.1303 10.5986Z" stroke="#4EAAF3" stroke-linecap="round" stroke-linejoin="round"/>
<path d="M21.3091 18.272C21.4105 18.9536 21.2937 19.6497 20.9754 20.2614C20.657 20.873 20.1533 21.369 19.5359 21.6788C18.9185 21.9886 18.2189 22.0964 17.5364 21.9869C16.854 21.8775 16.2236 21.5563 15.7348 21.069C15.2461 20.5818 14.9239 19.9533 14.8141 19.273C14.7043 18.5927 14.8124 17.8952 15.1232 17.2797C15.4339 16.6642 15.9315 16.1621 16.545 15.8447C17.1585 15.5274 17.8568 15.4109 18.5405 15.512C19.238 15.6151 19.8836 15.9391 20.3822 16.4361C20.8807 16.9331 21.2057 17.5768 21.3091 18.272Z" stroke="#4EAAF3" stroke-linecap="round" stroke-linejoin="round"/>
<path d="M22.541 14.2842H22.5489" stroke="#4EAAF3" stroke-width="2" stroke-linecap="round" stroke-linejoin="round"/>
</svg>
