<svg width="20" height="20" viewBox="0 0 20 20" fill="none" xmlns="http://www.w3.org/2000/svg">
<path d="M14.1666 1.66699H5.83329C3.53211 1.66699 1.66663 3.53247 1.66663 5.83366V14.167C1.66663 16.4682 3.53211 18.3337 5.83329 18.3337H14.1666C16.4678 18.3337 18.3333 16.4682 18.3333 14.167V5.83366C18.3333 3.53247 16.4678 1.66699 14.1666 1.66699Z" stroke="white" stroke-linecap="round" stroke-linejoin="round"/>
<path d="M13.3331 9.47525C13.436 10.1688 13.3175 10.8771 12.9946 11.4994C12.6717 12.1218 12.1608 12.6264 11.5345 12.9416C10.9082 13.2569 10.1985 13.3666 9.50629 13.2552C8.81407 13.1438 8.1746 12.817 7.67883 12.3212C7.18306 11.8255 6.85624 11.186 6.74485 10.4938C6.63347 9.80154 6.74318 9.09183 7.0584 8.46556C7.37362 7.8393 7.87829 7.32837 8.50062 7.00545C9.12295 6.68254 9.83126 6.56407 10.5248 6.66692C11.2322 6.77182 11.8872 7.10147 12.3929 7.60717C12.8986 8.11288 13.2282 8.76782 13.3331 9.47525Z" stroke="white" stroke-linecap="round" stroke-linejoin="round"/>
<path d="M14.5834 5.41699H14.5913" stroke="white" stroke-width="2" stroke-linecap="round" stroke-linejoin="round"/>
</svg>
