<svg width="36" height="37" viewBox="0 0 36 37" fill="none" xmlns="http://www.w3.org/2000/svg">
<rect y="0.844727" width="35.9964" height="35.8885" rx="8" fill="white"/>
<path d="M13.0699 16.3311H9.78369V26.159H13.0699V16.3311Z" fill="#4EAAF3" stroke="#4EAAF3" stroke-linecap="round" stroke-linejoin="round"/>
<path d="M11.4268 13.8746C12.3342 13.8746 13.0699 13.1413 13.0699 12.2366C13.0699 11.332 12.3342 10.5986 11.4268 10.5986C10.5193 10.5986 9.78369 11.332 9.78369 12.2366C9.78369 13.1413 10.5193 13.8746 11.4268 13.8746Z" fill="#4EAAF3" stroke="#4EAAF3" stroke-linecap="round" stroke-linejoin="round"/>
<path d="M21.2846 15.5117C22.5919 15.5117 23.8457 16.0294 24.7701 16.951C25.6945 17.8725 26.2138 19.1224 26.2138 20.4257V26.1587H22.9277V20.4257C22.9277 19.9913 22.7546 19.5746 22.4464 19.2675C22.1383 18.9603 21.7204 18.7877 21.2846 18.7877C20.8488 18.7877 20.4309 18.9603 20.1228 19.2675C19.8146 19.5746 19.6415 19.9913 19.6415 20.4257V26.1587H16.3553V20.4257C16.3553 19.1224 16.8747 17.8725 17.7991 16.951C18.7235 16.0294 19.9773 15.5117 21.2846 15.5117Z" fill="#4EAAF3" stroke="#4EAAF3" stroke-linecap="round" stroke-linejoin="round"/>
<rect x="15.8842" y="14.9004" width="2.70961" height="5.57621" fill="#4EAAF3"/>
</svg>
