<svg width="37" height="37" viewBox="0 0 37 37" fill="none" xmlns="http://www.w3.org/2000/svg">
<rect x="0.512329" y="0.844727" width="35.9964" height="35.8885" rx="8" fill="white"/>
<g clip-path="url(#clip0_19_68)">
<path d="M27.5466 11.4174C26.76 11.9706 25.889 12.3937 24.9672 12.6705C24.4725 12.1033 23.815 11.7014 23.0836 11.5189C22.3523 11.3365 21.5824 11.3824 20.8781 11.6504C20.1737 11.9184 19.5689 12.3956 19.1455 13.0175C18.7221 13.6394 18.5004 14.3759 18.5105 15.1275V15.9465C17.0669 15.9838 15.6365 15.6646 14.3466 15.0173C13.0567 14.37 11.9473 13.4146 11.1174 12.2364C11.1174 12.2364 7.83157 19.6074 15.2247 22.8834C13.5329 24.0283 11.5176 24.6024 9.47449 24.5213C16.8676 28.6163 25.9037 24.5213 25.9037 15.1029C25.9029 14.8748 25.8809 14.6472 25.838 14.4231C26.6763 13.5988 27.268 12.558 27.5466 11.4174Z" fill="#4EAAF3" stroke="#4EAAF3" stroke-linecap="round" stroke-linejoin="round"/>
</g>
<defs>
<clipPath id="clip0_19_68">
<rect width="19.715" height="19.6559" fill="white" transform="translate(8.65295 8.95996)"/>
</clipPath>
</defs>
</svg>
