<svg width="20" height="20" viewBox="0 0 20 20" fill="none" xmlns="http://www.w3.org/2000/svg">
<path d="M19.1667 2.50057C18.3687 3.06347 17.4851 3.49399 16.55 3.77557C16.0482 3.19849 15.3812 2.78948 14.6392 2.60384C13.8973 2.4182 13.1163 2.4649 12.4018 2.73761C11.6873 3.01033 11.0737 3.4959 10.6442 4.12866C10.2146 4.76143 9.98979 5.51085 10 6.27557V7.1089C8.53557 7.14687 7.08444 6.82208 5.77588 6.16344C4.46733 5.5048 3.34197 4.53276 2.50004 3.3339C2.50004 3.3339 -0.833293 10.8339 6.66671 14.1672C4.95048 15.3322 2.906 15.9163 0.833374 15.8339C8.33337 20.0006 17.5 15.8339 17.5 6.25057C17.4993 6.01845 17.477 5.7869 17.4334 5.5589C18.2839 4.72014 18.8841 3.66116 19.1667 2.50057V2.50057Z" stroke="white" stroke-linecap="round" stroke-linejoin="round"/>
</svg>
